<svg id="Layer_1" data-name="Layer 1" xmlns="http://www.w3.org/2000/svg" viewBox="0 0 91 71"><defs><style>.cls-1{fill:#fff;}.cls-2{fill:#d2d2d2;}.cls-3{fill:#3a3a3a;}.cls-4{fill:#fcb316;}.cls-5{isolation:isolate;}</style></defs><g id="Group_189" data-name="Group 189"><g id="Rectangle_14006" data-name="Rectangle 14006"><g id="Rectangle_14015" data-name="Rectangle 14015"><rect class="cls-1" x="0.5" y="0.5" width="90" height="70" rx="2"/><path class="cls-2" d="M88.5,71H2.5A2.5,2.5,0,0,1,0,68.5V2.5A2.5,2.5,0,0,1,2.5,0h86A2.5,2.5,0,0,1,91,2.5v66A2.5,2.5,0,0,1,88.5,71ZM2.5,1A1.5,1.5,0,0,0,1,2.5v66A1.5,1.5,0,0,0,2.5,70h86A1.5,1.5,0,0,0,90,68.5V2.5A1.5,1.5,0,0,0,88.5,1Z"/></g></g><g id="NSRS"><g id="Group_116" data-name="Group 116"><g id="Path_1379" data-name="Path 1379"><path class="cls-3" d="M22,9.53H25.9V47.45H22.62l-8.51-26L14.37,31V47.45H10.26V9.53h3.36L22.4,35.34l-.45-11Z"/></g><g id="Path_1380" data-name="Path 1380"><path class="cls-3" d="M31.65,21.27A12.14,12.14,0,0,1,31.28,18,12.24,12.24,0,0,1,32.8,11.5q1.52-2.43,5.81-2.43,5.51,0,6.51,5.3a32.72,32.72,0,0,1,.43,5.76v2.22H41.28V19.81a20.92,20.92,0,0,0-.36-4.87A3.34,3.34,0,0,0,40,13.28a2.26,2.26,0,0,0-1.4-.41,2.52,2.52,0,0,0-2.36,1.19,6.85,6.85,0,0,0-.71,3.51A6.94,6.94,0,0,0,36.24,21,11.72,11.72,0,0,0,37.83,23c.64.65,1,1,1.06,1.11l2.58,2.76a15.34,15.34,0,0,1,4.66,10.9q0,4.91-1.52,7.5c-1,1.72-2.94,2.6-5.78,2.6-3.44,0-5.61-1.51-6.53-4.53a23,23,0,0,1-.8-6.66V32.8h4.33v3.86a18.45,18.45,0,0,0,.61,5.78,2.24,2.24,0,0,0,2.24,1.63A2.85,2.85,0,0,0,41,43.3,4,4,0,0,0,41.63,41c.07-1,.1-2.23.1-3.53a10.38,10.38,0,0,0-3.47-7.41l-2.48-2.48A15.46,15.46,0,0,1,31.65,21.27Z"/></g><g id="Path_1381" data-name="Path 1381"><path class="cls-3" d="M50.89,9.53h8c2.25,0,3.88.47,4.86,1.4s1.59,2.51,1.79,4.76c.09.92.13,2.36.13,4.3a13.59,13.59,0,0,1-.76,4.9,4.06,4.06,0,0,1-2.7,2.57A2.93,2.93,0,0,1,64.31,29a10.72,10.72,0,0,1,1,4c.19,1.83.29,4.56.29,8.16s.12,5.71.35,6.32H61.55q-.33-.69-.34-12.77c0-2.76-.26-4.3-.8-4.73A3.77,3.77,0,0,0,58,29.29l-2.64-.15V47.45H50.89Zm10.32,9.29c0-2.92-.26-4.61-.79-5.07a3.37,3.37,0,0,0-2.27-.69H55.39v12.8h2.84a3,3,0,0,0,1.86-.47,3.16,3.16,0,0,0,.85-1.9,25,25,0,0,0,.27-4.4Z"/></g><g id="Path_1382" data-name="Path 1382"><path class="cls-3" d="M71,21.27a11.72,11.72,0,0,1-.4-3.23,12.09,12.09,0,0,1,1.5-6.56c1-1.62,3-2.42,5.8-2.42,3.68,0,5.85,1.76,6.51,5.3a31.62,31.62,0,0,1,.43,5.75v2.25H80.6V19.81a20.93,20.93,0,0,0-.37-4.87,3.27,3.27,0,0,0-.92-1.65,2.23,2.23,0,0,0-1.41-.42,2.51,2.51,0,0,0-2.32,1.19,6.86,6.86,0,0,0-.73,3.51A6.93,6.93,0,0,0,75.49,21,11.77,11.77,0,0,0,77.09,23c.63.65,1,1,1,1.11l2.59,2.76a15.39,15.39,0,0,1,4.69,10.88q0,4.9-1.51,7.5c-1,1.73-3,2.59-5.8,2.6q-5.14,0-6.52-4.52a22.42,22.42,0,0,1-.8-6.67v-3.9h4.34v3.86a18.87,18.87,0,0,0,.64,5.79A2.23,2.23,0,0,0,78,44.06a2.76,2.76,0,0,0,2.26-.76A4.07,4.07,0,0,0,81,41c.07-1.06.1-2.23.1-3.54a10.43,10.43,0,0,0-3.47-7.41L75.1,27.59A15.82,15.82,0,0,1,71,21.27Z"/></g></g></g><g id="Rectangle_14005" data-name="Rectangle 14005"><g id="Rectangle_14016" data-name="Rectangle 14016"><rect class="cls-4" x="7.5" y="51.5" width="79" height="15"/></g></g><g id="ACTC" class="cls-5"><g class="cls-5"><path class="cls-1" d="M38.49,63.5h-1.4a.66.66,0,0,1-.38-.11.64.64,0,0,1-.22-.29l-.58-1.66H32.44l-.59,1.66a.76.76,0,0,1-.21.28.6.6,0,0,1-.38.12H29.85l3.4-8.71H35.1Zm-3-3.31-.94-2.66c-.06-.14-.12-.3-.18-.49s-.12-.39-.18-.61c-.05.22-.11.43-.17.62l-.18.49-.94,2.65Z"/><path class="cls-1" d="M45,61.36a.33.33,0,0,1,.26.11l.71.76a3.36,3.36,0,0,1-1.31,1,4.57,4.57,0,0,1-1.86.35A4.28,4.28,0,0,1,41,63.26a3.91,3.91,0,0,1-1.33-.92,4.33,4.33,0,0,1-.84-1.41,5.59,5.59,0,0,1-.15-3,4.24,4.24,0,0,1,.41-1.08,4.36,4.36,0,0,1,.65-.88,4,4,0,0,1,1.91-1.11,5.21,5.21,0,0,1,1.21-.14,5.31,5.31,0,0,1,.91.08,5,5,0,0,1,.8.24,3.75,3.75,0,0,1,.69.36,4.29,4.29,0,0,1,.56.46l-.6.83-.14.14a.39.39,0,0,1-.23.06.48.48,0,0,1-.29-.1l-.36-.23a3,3,0,0,0-.53-.23,2.74,2.74,0,0,0-.82-.1,2.51,2.51,0,0,0-1,.2,2.19,2.19,0,0,0-.78.57,2.64,2.64,0,0,0-.51.92,4,4,0,0,0-.18,1.24,3.68,3.68,0,0,0,.2,1.25,2.63,2.63,0,0,0,.53.93,2.31,2.31,0,0,0,.79.57,2.28,2.28,0,0,0,1,.2,4.86,4.86,0,0,0,.56,0,2.21,2.21,0,0,0,.46-.1,2.09,2.09,0,0,0,.4-.19,1.92,1.92,0,0,0,.38-.29l.14-.09A.4.4,0,0,1,45,61.36Z"/><path class="cls-1" d="M53.1,56.25H50.55V63.5h-1.8V56.25H46.2V54.79h6.9Z"/><path class="cls-1" d="M59.86,61.36a.31.31,0,0,1,.25.11l.71.76a3.29,3.29,0,0,1-1.31,1,4.57,4.57,0,0,1-1.86.35,4.32,4.32,0,0,1-1.76-.34,3.78,3.78,0,0,1-1.32-.92,4,4,0,0,1-.84-1.41,5.17,5.17,0,0,1-.3-1.79,5.45,5.45,0,0,1,.14-1.23A4.65,4.65,0,0,1,54,56.83a4.05,4.05,0,0,1,.66-.88,3.79,3.79,0,0,1,.86-.68,4.15,4.15,0,0,1,1-.43,5.26,5.26,0,0,1,2.12-.06,4.68,4.68,0,0,1,.8.24,3.75,3.75,0,0,1,.69.36,4.4,4.4,0,0,1,.57.46l-.61.83a.62.62,0,0,1-.14.14.37.37,0,0,1-.23.06.51.51,0,0,1-.29-.1,2.53,2.53,0,0,0-.36-.23,3,3,0,0,0-.53-.23,2.67,2.67,0,0,0-.81-.1,2.56,2.56,0,0,0-1,.2A2.19,2.19,0,0,0,56,57a2.64,2.64,0,0,0-.51.92,4,4,0,0,0-.18,1.24,3.68,3.68,0,0,0,.2,1.25,2.8,2.8,0,0,0,.53.93,2.35,2.35,0,0,0,1.76.77,4.73,4.73,0,0,0,.56,0,2.07,2.07,0,0,0,.46-.1,1.84,1.84,0,0,0,.4-.19,1.67,1.67,0,0,0,.38-.29l.14-.09A.41.41,0,0,1,59.86,61.36Z"/></g></g></g></svg>