<svg xmlns="http://www.w3.org/2000/svg" width="91" height="71" viewBox="0 0 91 71">
  <g id="Group_654" data-name="Group 654" transform="translate(-82.125 -19.5)">
    <g id="Rectangle_14006" data-name="Rectangle 14006" transform="translate(83 20)">
      <rect id="Rectangle_14015" data-name="Rectangle 14015" width="90" height="70" rx="2" transform="translate(-0.375 0)" fill="#fff" stroke="#b2b2b2" stroke-width="1"/>
    </g>
    <g id="NSRS" transform="translate(92.386 28.555)">
      <g id="Group_116" data-name="Group 116" transform="translate(0 0)">
        <path id="Path_1379" data-name="Path 1379" d="M29.422,10.75h3.943V48.666H30.093L21.581,22.644l.257,9.559V48.666H17.73V10.75h3.355l8.787,25.81-.45-10.966Z" transform="translate(-17.73 -10.272)" fill="#3a3a3a"/>
        <path id="Path_1380" data-name="Path 1380" d="M40.966,22.447a11.949,11.949,0,0,1-.368-3.235,12.234,12.234,0,0,1,1.517-6.535q1.517-2.427,5.809-2.427,5.515,0,6.508,5.3a32.07,32.07,0,0,1,.432,5.754v2.224H50.6V20.986a21.068,21.068,0,0,0-.368-4.872,3.217,3.217,0,0,0-.919-1.655,2.234,2.234,0,0,0-1.4-.414,2.5,2.5,0,0,0-2.353,1.186,6.885,6.885,0,0,0-.717,3.511,6.875,6.875,0,0,0,.717,3.41,11.3,11.3,0,0,0,1.59,2.05c.634.653.984,1.029,1.057,1.112l2.583,2.758a15.387,15.387,0,0,1,4.66,10.9c0,3.272-.515,5.772-1.526,7.5s-2.941,2.6-5.782,2.6q-5.147,0-6.526-4.522a22.8,22.8,0,0,1-.8-6.664V33.974h4.329v3.861a18.751,18.751,0,0,0,.607,5.782A2.234,2.234,0,0,0,48,45.243a2.822,2.822,0,0,0,2.261-.763,4.09,4.09,0,0,0,.689-2.289c.064-1.057.1-2.234.1-3.539a10.379,10.379,0,0,0-3.474-7.408L45.1,28.762A15.451,15.451,0,0,1,40.966,22.447Z" transform="translate(-19.577 -10.232)" fill="#3a3a3a"/>
        <path id="Path_1381" data-name="Path 1381" d="M61.93,10.75h7.951c2.252,0,3.879.469,4.862,1.4s1.59,2.509,1.792,4.761c.083.919.129,2.353.129,4.3a13.787,13.787,0,0,1-.763,4.9,4.044,4.044,0,0,1-2.7,2.564,2.923,2.923,0,0,1,2.151,1.5,10.708,10.708,0,0,1,1.039,4.008q.294,2.757.294,8.162t.349,6.324h-4.44q-.34-.689-.34-12.776c0-2.758-.267-4.293-.8-4.725a3.741,3.741,0,0,0-2.417-.662l-2.647-.147v18.31H61.93Zm10.322,9.284q0-4.375-.79-5.065a3.337,3.337,0,0,0-2.27-.689H66.434v12.8h2.84a2.987,2.987,0,0,0,1.857-.478,3.171,3.171,0,0,0,.855-1.9,26.215,26.215,0,0,0,.267-4.394Z" transform="translate(-21.303 -10.272)" fill="#3a3a3a"/>
        <path id="Path_1382" data-name="Path 1382" d="M83.764,22.446a11.581,11.581,0,0,1-.4-3.235,12.151,12.151,0,0,1,1.5-6.554q1.517-2.427,5.8-2.427,5.515,0,6.508,5.3a32.07,32.07,0,0,1,.432,5.754V23.53H93.369V20.984A20.544,20.544,0,0,0,93,16.113a3.217,3.217,0,0,0-.919-1.655,2.243,2.243,0,0,0-1.406-.414A2.509,2.509,0,0,0,88.35,15.23a7,7,0,0,0-.726,3.511,6.885,6.885,0,0,0,.643,3.41,11.352,11.352,0,0,0,1.6,2.05c.625.653.984,1.029,1.048,1.112l2.592,2.758a15.415,15.415,0,0,1,4.688,10.883q0,4.908-1.517,7.5t-5.791,2.6q-5.147,0-6.526-4.522a22.8,22.8,0,0,1-.8-6.664v-3.9H87.9v3.861a18.824,18.824,0,0,0,.643,5.782,2.234,2.234,0,0,0,2.243,1.627,2.757,2.757,0,0,0,2.261-.763,4.081,4.081,0,0,0,.68-2.289c.064-1.057.092-2.234.092-3.539a10.391,10.391,0,0,0-3.465-7.408L87.872,28.76A15.826,15.826,0,0,1,83.764,22.446Z" transform="translate(-23.034 -10.23)" fill="#3a3a3a"/>
      </g>
    </g>
    <g id="Rectangle_14005" data-name="Rectangle 14005" transform="translate(90 70.75)">
      <rect id="Rectangle_14016" data-name="Rectangle 14016" width="79" height="15" transform="translate(-0.375 0.25)" fill="#1f91c0"/>
    </g>
    <text id="ACTC" transform="translate(127.625 83)" fill="#fff" font-size="12" font-family="Lato-Black, Lato" font-weight="800"><tspan x="-15" y="0">ACTC</tspan></text>
  </g>
</svg>
