<svg id="Group_114" data-name="Group 114" xmlns="http://www.w3.org/2000/svg" width="216.56" height="40.55" viewBox="0 0 216.56 40.55">
  <g id="ACTC">
    <g id="Group_131" data-name="Group 131">
      <path id="Path_11534" data-name="Path 11534" d="M6.18,10.34H10.8L16.2,43H12.58l-.93-6.23H5.73L4.88,43H1.22Zm0,23.31h5L8.59,16.39H8.54Z" transform="translate(-1.22 -7.73)"/>
      <path id="Path_11535" data-name="Path 11535" d="M19.33,19.77A17.75,17.75,0,0,1,20,14.31a7.81,7.81,0,0,1,1.33-2.56,5.93,5.93,0,0,1,4.6-1.8q4.23,0,5.46,3.73a18.69,18.69,0,0,1,.7,5.68V23H28.28V19.34a16.83,16.83,0,0,0-.35-4.24,2.84,2.84,0,0,0-.82-1.46,2,2,0,0,0-1.23-.36,2.12,2.12,0,0,0-2.12,1.45,13.19,13.19,0,0,0-.59,4.59V33.46a17.43,17.43,0,0,0,.53,5.19,2.093,2.093,0,0,0,4-.01,18.09,18.09,0,0,0,.51-5.2V29.83h3.8v3.58q0,5.13-1.4,7.56t-4.89,2.42a5.31,5.31,0,0,1-5-2.5q-1.49-2.49-1.49-7.52Z" transform="translate(-1.22 -7.73)"/>
      <path id="Path_11536" data-name="Path 11536" d="M34.59,10.34H45.37v3.2H42V43H38.19V13.54h-3.6Z" transform="translate(-1.22 -7.73)"/>
      <path id="Path_11537" data-name="Path 11537" d="M48.19,19.77a17.82,17.82,0,0,1,.61-5.46,8,8,0,0,1,1.33-2.56A6,6,0,0,1,54.74,10q4.23,0,5.45,3.73a18.65,18.65,0,0,1,.71,5.68V23H57.13V19.34a17,17,0,0,0-.34-4.24A2.91,2.91,0,0,0,56,13.64a2,2,0,0,0-1.22-.36,2.12,2.12,0,0,0-2.13,1.45A13.23,13.23,0,0,0,52,19.32V33.46a17.1,17.1,0,0,0,.53,5.19,2.093,2.093,0,0,0,4-.01,18.09,18.09,0,0,0,.51-5.2V29.83h3.8v3.58c0,3.42-.46,5.94-1.4,7.56s-2.44,2.42-4.8,2.42a5.31,5.31,0,0,1-5-2.5q-1.48-2.49-1.48-7.52Z" transform="translate(-1.22 -7.73)"/>
    </g>
  </g>
  <g id="Annual_Calendar_for_Training_Competition" data-name="Annual Calendar for Training Competition">
    <g id="Group_132" data-name="Group 132">
      <path id="Path_11538" data-name="Path 11538" d="M79.84,25l2.58-12.15h1.63L86.65,25H85l-.55-3.06H82L81.43,25Zm2.4-4.28h2l-1-5.47Z" transform="translate(-1.22 -7.73)" fill="#737373"/>
      <path id="Path_11539" data-name="Path 11539" d="M87.88,25V12.85H89l3.45,8.07V12.85h1.41V25H92.81l-3.49-8.29V25Z" transform="translate(-1.22 -7.73)" fill="#737373"/>
      <path id="Path_11540" data-name="Path 11540" d="M95.8,25V12.85H97l3.45,8.07V12.85h1.41V25h-1.08l-3.49-8.29V25Z" transform="translate(-1.22 -7.73)" fill="#737373"/>
      <path id="Path_11541" data-name="Path 11541" d="M106.85,25.13a3.33,3.33,0,0,1-2-.52,2.61,2.61,0,0,1-1-1.48,8.62,8.62,0,0,1-.26-2.22V12.85h1.62V21a8.939,8.939,0,0,0,.11,1.43,1.86,1.86,0,0,0,.46,1,1.36,1.36,0,0,0,1,.38,1.39,1.39,0,0,0,1.07-.38,1.93,1.93,0,0,0,.45-1,9,9,0,0,0,.1-1.43V12.85h1.61v8.06a8.62,8.62,0,0,1-.26,2.22,2.59,2.59,0,0,1-.95,1.48,3.31,3.31,0,0,1-1.95.52Z" transform="translate(-1.22 -7.73)" fill="#737373"/>
      <path id="Path_11542" data-name="Path 11542" d="M111.2,25l2.58-12.15h1.64L118,25h-1.6l-.56-3.06h-2.47L112.79,25Zm2.4-4.28h2l-1-5.47Z" transform="translate(-1.22 -7.73)" fill="#737373"/>
      <path id="Path_11543" data-name="Path 11543" d="M119.24,25V12.85h1.7V23.79H124V25Z" transform="translate(-1.22 -7.73)" fill="#737373"/>
      <path id="Path_11544" data-name="Path 11544" d="M131.68,25.13a3.22,3.22,0,0,1-2-.54,2.79,2.79,0,0,1-1-1.45,7.2,7.2,0,0,1-.27-2V16.81a7.58,7.58,0,0,1,.27-2.14,2.6,2.6,0,0,1,1-1.42,3.44,3.44,0,0,1,2-.5,3.24,3.24,0,0,1,1.8.42,2.26,2.26,0,0,1,1,1.2,5.16,5.16,0,0,1,.3,1.87v1h-1.61v-.86a8.47,8.47,0,0,0-.07-1.19,1.27,1.27,0,0,0-.36-.8,1.45,1.45,0,0,0-1-.28,1.53,1.53,0,0,0-1.05.3,1.56,1.56,0,0,0-.43.87,8.421,8.421,0,0,0-.09,1.31v4.82a5.6,5.6,0,0,0,.15,1.45,1.32,1.32,0,0,0,.49.76,1.78,1.78,0,0,0,.93.22,1.32,1.32,0,0,0,1-.31,1.46,1.46,0,0,0,.38-.85,9.147,9.147,0,0,0,.07-1.26v-.89h1.61v.89a6.45,6.45,0,0,1-.27,2,2.46,2.46,0,0,1-.93,1.32,3.12,3.12,0,0,1-1.92.39Z" transform="translate(-1.22 -7.73)" fill="#737373"/>
      <path id="Path_11545" data-name="Path 11545" d="M135.7,25l2.58-12.15h1.63L142.51,25H140.9l-.55-3.06h-2.48L137.29,25Zm2.4-4.28h2l-1-5.47Z" transform="translate(-1.22 -7.73)" fill="#737373"/>
      <path id="Path_11546" data-name="Path 11546" d="M143.74,25V12.85h1.69V23.79h3.11V25Z" transform="translate(-1.22 -7.73)" fill="#737373"/>
      <path id="Path_11547" data-name="Path 11547" d="M149.69,25V12.85h4.71v1.26h-3v4h2.44v1.2H151.4v4.46h3V25Z" transform="translate(-1.22 -7.73)" fill="#737373"/>
      <path id="Path_11548" data-name="Path 11548" d="M155.8,25V12.85H157l3.45,8.07V12.85h1.41V25h-1.08l-3.49-8.29V25Z" transform="translate(-1.22 -7.73)" fill="#737373"/>
      <path id="Path_11549" data-name="Path 11549" d="M163.72,25V12.85h2.64a4.66,4.66,0,0,1,2.13.41,2.4,2.4,0,0,1,1.13,1.24,5.56,5.56,0,0,1,.34,2.05V21a6.261,6.261,0,0,1-.34,2.17,2.58,2.58,0,0,1-1.1,1.34,3.84,3.84,0,0,1-2,.46Zm1.69-1.21h1a1.88,1.88,0,0,0,1.32-.37,1.61,1.61,0,0,0,.47-1,13.211,13.211,0,0,0,.09-1.67V16.76a7.7,7.7,0,0,0-.12-1.52,1.27,1.27,0,0,0-.53-.86,2.33,2.33,0,0,0-1.27-.27h-.92Z" transform="translate(-1.22 -7.73)" fill="#737373"/>
      <path id="Path_11550" data-name="Path 11550" d="M171,25l2.58-12.15h1.64L177.77,25h-1.6l-.56-3.06h-2.47L172.55,25Zm2.4-4.28h2l-1-5.47Z" transform="translate(-1.22 -7.73)" fill="#737373"/>
      <path id="Path_11551" data-name="Path 11551" d="M179,25V12.85h2.45a5.5,5.5,0,0,1,2,.32,2.22,2.22,0,0,1,1.17,1,3.85,3.85,0,0,1,.39,1.87,5.17,5.17,0,0,1-.15,1.28,2.46,2.46,0,0,1-.48,1,1.84,1.84,0,0,1-.87.58l1.73,6.1h-1.63L182,19.3h-1.3V25Zm1.7-6.92h.64a3.22,3.22,0,0,0,1.17-.17,1.21,1.21,0,0,0,.66-.62,2.86,2.86,0,0,0,.21-1.21,2.41,2.41,0,0,0-.39-1.54,1.93,1.93,0,0,0-1.54-.47h-.75Z" transform="translate(-1.22 -7.73)" fill="#737373"/>
      <path id="Path_11552" data-name="Path 11552" d="M190.22,25V12.85h4.7v1.22h-3v4.05h2.32v1.2h-2.32V25Z" transform="translate(-1.22 -7.73)" fill="#737373"/>
      <path id="Path_11553" data-name="Path 11553" d="M199.19,25.13a3.53,3.53,0,0,1-2-.47,2.67,2.67,0,0,1-1-1.38,6.249,6.249,0,0,1-.32-2.09V16.58a6.059,6.059,0,0,1,.32-2.06,2.66,2.66,0,0,1,1-1.32,3.72,3.72,0,0,1,2-.45,3.56,3.56,0,0,1,1.95.46,2.59,2.59,0,0,1,1,1.32,5.72,5.72,0,0,1,.33,2v4.63a5.91,5.91,0,0,1-.33,2.07,2.72,2.72,0,0,1-1,1.37A3.47,3.47,0,0,1,199.19,25.13Zm0-1.33a1.57,1.57,0,0,0,1-.28,1.35,1.35,0,0,0,.47-.78,5.07,5.07,0,0,0,.12-1.17V16.24a4.871,4.871,0,0,0-.12-1.16,1.27,1.27,0,0,0-.47-.75,1.64,1.64,0,0,0-1-.26,1.69,1.69,0,0,0-1,.26,1.27,1.27,0,0,0-.47.75,4.871,4.871,0,0,0-.12,1.16v5.33a5.069,5.069,0,0,0,.12,1.17,1.35,1.35,0,0,0,.47.78,1.62,1.62,0,0,0,1,.28Z" transform="translate(-1.22 -7.73)" fill="#737373"/>
      <path id="Path_11554" data-name="Path 11554" d="M204.17,25V12.85h2.45a5.5,5.5,0,0,1,2,.32,2.22,2.22,0,0,1,1.17,1,3.85,3.85,0,0,1,.39,1.87,5.169,5.169,0,0,1-.15,1.28,2.46,2.46,0,0,1-.48,1,1.84,1.84,0,0,1-.87.58l1.73,6.1h-1.63l-1.59-5.7h-1.32V25Zm1.7-6.92h.64a3.22,3.22,0,0,0,1.17-.17,1.21,1.21,0,0,0,.66-.62,2.86,2.86,0,0,0,.21-1.21,2.41,2.41,0,0,0-.39-1.54,1.93,1.93,0,0,0-1.54-.47h-.75Z" transform="translate(-1.22 -7.73)" fill="#737373"/>
    </g>
    <g id="Group_133" data-name="Group 133">
      <path id="Path_11555" data-name="Path 11555" d="M77.54,43V32.11H75.49V30.85h5.74v1.26h-2V43Z" transform="translate(-1.22 -7.73)" fill="#737373"/>
      <path id="Path_11556" data-name="Path 11556" d="M82.4,43V30.85h2.45a5.5,5.5,0,0,1,2,.32,2.28,2.28,0,0,1,1.18,1,4,4,0,0,1,.38,1.87,5.17,5.17,0,0,1-.15,1.28,2.46,2.46,0,0,1-.48,1,1.84,1.84,0,0,1-.87.58L88.64,43H87l-1.59-5.7H84.1V43Zm1.7-6.92h.64a3.22,3.22,0,0,0,1.17-.17,1.21,1.21,0,0,0,.66-.62,2.86,2.86,0,0,0,.21-1.21,2.41,2.41,0,0,0-.39-1.54,1.93,1.93,0,0,0-1.54-.47H84.1Z" transform="translate(-1.22 -7.73)" fill="#737373"/>
      <path id="Path_11557" data-name="Path 11557" d="M89.53,43l2.58-12.15h1.63L96.34,43H94.73l-.55-3.06H91.7L91.12,43Zm2.4-4.28h2l-1-5.47Z" transform="translate(-1.22 -7.73)" fill="#737373"/>
      <path id="Path_11558" data-name="Path 11558" d="M97.66,43V30.85h1.66V43Z" transform="translate(-1.22 -7.73)" fill="#737373"/>
      <path id="Path_11559" data-name="Path 11559" d="M101.29,43V30.85h1.15l3.45,8.07V30.85h1.41V43h-1.08l-3.49-8.29V43Z" transform="translate(-1.22 -7.73)" fill="#737373"/>
      <path id="Path_11560" data-name="Path 11560" d="M109.3,43V30.85H111V43Z" transform="translate(-1.22 -7.73)" fill="#737373"/>
      <path id="Path_11561" data-name="Path 11561" d="M112.93,43V30.85h1.15l3.45,8.07V30.85h1.41V43h-1.08l-3.49-8.29V43Z" transform="translate(-1.22 -7.73)" fill="#737373"/>
      <path id="Path_11562" data-name="Path 11562" d="M123.74,43.15a3,3,0,0,1-1.82-.49,2.64,2.64,0,0,1-1-1.41,7.09,7.09,0,0,1-.31-2.24V35a7.93,7.93,0,0,1,.28-2.28,2.52,2.52,0,0,1,1-1.43,3.44,3.44,0,0,1,2-.49,3.72,3.72,0,0,1,1.83.38,2.18,2.18,0,0,1,1,1.17,5.4,5.4,0,0,1,.31,2v.45h-1.59v-.38a6.66,6.66,0,0,0-.1-1.3,1.27,1.27,0,0,0-.43-.75,1.71,1.71,0,0,0-1-.24,1.47,1.47,0,0,0-1.09.34,1.55,1.55,0,0,0-.42.94,9,9,0,0,0-.08,1.34v4.5a7.349,7.349,0,0,0,.12,1.45,1.43,1.43,0,0,0,.49.87,1.55,1.55,0,0,0,1,.29,1.5,1.5,0,0,0,1-.31,1.7,1.7,0,0,0,.5-.94A7.229,7.229,0,0,0,125.6,39v-.85h-1.54V37h3.07v6h-1.06l-.17-1.39a2.58,2.58,0,0,1-.75,1.1A2.11,2.11,0,0,1,123.74,43.15Z" transform="translate(-1.22 -7.73)" fill="#737373"/>
      <path id="Path_11563" data-name="Path 11563" d="M134.86,43.13a2.67,2.67,0,0,1-1.42-.35,2.2,2.2,0,0,1-.9-1,3,3,0,0,1-.31-1.41,3.74,3.74,0,0,1,.52-2A6.7,6.7,0,0,1,134,36.89c-.18-.35-.37-.72-.58-1.08a8.331,8.331,0,0,1-.52-1.14,3.49,3.49,0,0,1-.22-1.24A3,3,0,0,1,133,32a2.33,2.33,0,0,1,.9-.94,2.76,2.76,0,0,1,1.38-.33,3.07,3.07,0,0,1,1.31.26,2.33,2.33,0,0,1,.92.78,2.08,2.08,0,0,1,.35,1.21,3.41,3.41,0,0,1-.37,1.52,7.5,7.5,0,0,1-.89,1.35c-.35.41-.69.78-1,1.1l1.83,2.88a3.49,3.49,0,0,0,.27-.71c.08-.27.14-.55.2-.85s.1-.59.13-.87h1.59a4.58,4.58,0,0,1-.18,1.23,6.78,6.78,0,0,1-.44,1.22,6.858,6.858,0,0,1-.55,1,2,2,0,0,0,.51.42,1.24,1.24,0,0,0,.67.19v1.65h-.21a1.8,1.8,0,0,1-.78-.2,2.85,2.85,0,0,1-.62-.46l-.53-.51a3.34,3.34,0,0,1-1.06.85A3.41,3.41,0,0,1,134.86,43.13Zm0-1.33a1.58,1.58,0,0,0,1-.28,3.31,3.31,0,0,0,.67-.62l-1.9-2.9a3.829,3.829,0,0,0-.58,1.08,4,4,0,0,0-.21,1.29,2.44,2.44,0,0,0,.09.66,1.09,1.09,0,0,0,.31.53.92.92,0,0,0,.62.24Zm.16-5.7a5.09,5.09,0,0,0,.59-.89,5.479,5.479,0,0,0,.46-1.08,3.8,3.8,0,0,0,.18-1.13.9.9,0,0,0-.27-.69,1,1,0,0,0-.7-.24.8.8,0,0,0-.77.42,1.92,1.92,0,0,0-.22.94,4.06,4.06,0,0,0,.23,1.37c.15.46.32.89.48,1.3Z" transform="translate(-1.22 -7.73)" fill="#737373"/>
      <path id="Path_11564" data-name="Path 11564" d="M147.88,43.13a3.22,3.22,0,0,1-2-.54,2.79,2.79,0,0,1-1-1.45,7.2,7.2,0,0,1-.27-2V34.81a7.579,7.579,0,0,1,.27-2.14,2.6,2.6,0,0,1,1-1.42,3.44,3.44,0,0,1,2-.5,3.24,3.24,0,0,1,1.8.42,2.26,2.26,0,0,1,1,1.2,5.16,5.16,0,0,1,.3,1.87v1h-1.61v-.86a8.475,8.475,0,0,0-.07-1.19,1.27,1.27,0,0,0-.36-.8,1.45,1.45,0,0,0-1-.28,1.53,1.53,0,0,0-1,.3,1.56,1.56,0,0,0-.43.87,8.419,8.419,0,0,0-.09,1.31v4.82a5.6,5.6,0,0,0,.15,1.45,1.32,1.32,0,0,0,.49.76,1.78,1.78,0,0,0,.93.22,1.32,1.32,0,0,0,1-.31,1.46,1.46,0,0,0,.38-.85,9.147,9.147,0,0,0,.07-1.26v-.89h1.61v.89a6.45,6.45,0,0,1-.27,2,2.46,2.46,0,0,1-.93,1.32,3.12,3.12,0,0,1-1.97.39Z" transform="translate(-1.22 -7.73)" fill="#737373"/>
      <path id="Path_11565" data-name="Path 11565" d="M155.66,43.13a3.53,3.53,0,0,1-2-.47,2.67,2.67,0,0,1-1-1.38,6.25,6.25,0,0,1-.32-2.09V34.58a6.06,6.06,0,0,1,.32-2.06,2.66,2.66,0,0,1,1-1.32,3.72,3.72,0,0,1,2-.45,3.56,3.56,0,0,1,2,.46,2.59,2.59,0,0,1,1,1.32,5.72,5.72,0,0,1,.33,2v4.63a5.91,5.91,0,0,1-.33,2.07,2.72,2.72,0,0,1-1,1.37A3.47,3.47,0,0,1,155.66,43.13Zm0-1.33a1.57,1.57,0,0,0,1-.28,1.35,1.35,0,0,0,.47-.78,5.07,5.07,0,0,0,.12-1.17V34.24a4.871,4.871,0,0,0-.12-1.16,1.27,1.27,0,0,0-.47-.75,1.64,1.64,0,0,0-1-.26,1.69,1.69,0,0,0-1,.26,1.27,1.27,0,0,0-.47.75,4.871,4.871,0,0,0-.12,1.16v5.33a5.07,5.07,0,0,0,.12,1.17,1.35,1.35,0,0,0,.47.78,1.62,1.62,0,0,0,1,.28Z" transform="translate(-1.22 -7.73)" fill="#737373"/>
      <path id="Path_11566" data-name="Path 11566" d="M160.61,43l.23-12.15h1.66l2.15,9.86,2.16-9.86h1.65L168.68,43h-1.36l-.14-8.82L165.13,43h-1l-2-8.82L162,43Z" transform="translate(-1.22 -7.73)" fill="#737373"/>
      <path id="Path_11567" data-name="Path 11567" d="M170.54,43V30.85h3a3.25,3.25,0,0,1,1.74.4,2.29,2.29,0,0,1,1,1.14,5,5,0,0,1,.3,1.82,3.92,3.92,0,0,1-.34,1.67,2.49,2.49,0,0,1-1,1.08,3.2,3.2,0,0,1-1.65.38h-1.33V43Zm1.7-6.87H173a3,3,0,0,0,1.15-.17,1,1,0,0,0,.6-.57,3,3,0,0,0,.18-1.17,5.1,5.1,0,0,0-.13-1.33.91.91,0,0,0-.53-.64,3.1,3.1,0,0,0-1.26-.18h-.79Z" transform="translate(-1.22 -7.73)" fill="#737373"/>
      <path id="Path_11568" data-name="Path 11568" d="M177.74,43V30.85h4.71v1.26h-3v4h2.44v1.2h-2.44v4.46h3V43Z" transform="translate(-1.22 -7.73)" fill="#737373"/>
      <path id="Path_11569" data-name="Path 11569" d="M185.18,43V32.11h-2.05V30.85h5.74v1.26h-2V43Z" transform="translate(-1.22 -7.73)" fill="#737373"/>
      <path id="Path_11570" data-name="Path 11570" d="M190.13,43V30.85h1.67V43Z" transform="translate(-1.22 -7.73)" fill="#737373"/>
      <path id="Path_11571" data-name="Path 11571" d="M195.1,43V32.11H193V30.85h5.75v1.26h-2V43Z" transform="translate(-1.22 -7.73)" fill="#737373"/>
      <path id="Path_11572" data-name="Path 11572" d="M200.05,43V30.85h1.66V43Z" transform="translate(-1.22 -7.73)" fill="#737373"/>
      <path id="Path_11573" data-name="Path 11573" d="M206.78,43.13a3.51,3.51,0,0,1-2-.47,2.67,2.67,0,0,1-1-1.38,6.251,6.251,0,0,1-.32-2.09V34.58a6.06,6.06,0,0,1,.32-2.06,2.66,2.66,0,0,1,1-1.32,3.72,3.72,0,0,1,2-.45,3.56,3.56,0,0,1,1.95.46,2.59,2.59,0,0,1,1,1.32,5.72,5.72,0,0,1,.33,2v4.63a5.91,5.91,0,0,1-.33,2.07,2.72,2.72,0,0,1-1,1.37A3.47,3.47,0,0,1,206.78,43.13Zm0-1.33a1.57,1.57,0,0,0,1-.28,1.35,1.35,0,0,0,.47-.78,5.749,5.749,0,0,0,.11-1.17V34.24a5.5,5.5,0,0,0-.11-1.16,1.27,1.27,0,0,0-.47-.75,1.64,1.64,0,0,0-1-.26,1.69,1.69,0,0,0-1,.26,1.27,1.27,0,0,0-.47.75,4.87,4.87,0,0,0-.12,1.16v5.33a5.07,5.07,0,0,0,.12,1.17,1.35,1.35,0,0,0,.47.78A1.62,1.62,0,0,0,206.78,41.8Z" transform="translate(-1.22 -7.73)" fill="#737373"/>
      <path id="Path_11574" data-name="Path 11574" d="M211.76,43V30.85h1.16l3.45,8.07V30.85h1.41V43H216.7l-3.5-8.29V43Z" transform="translate(-1.22 -7.73)" fill="#737373"/>
    </g>
  </g>
  <g id="Line_1769" data-name="Line 1769">
    <rect id="Rectangle_13938" data-name="Rectangle 13938" width="1" height="40.55" transform="translate(68.27)" fill="#e3e3e3"/>
  </g>
</svg>
