<svg id="Layer_1" data-name="Layer 1" xmlns="http://www.w3.org/2000/svg" viewBox="0 0 103 81"><defs><style>.cls-1{fill:#fff;}.cls-2{fill:#3a3a3a;}.cls-3{fill:#1f91c0;}</style></defs><g id="Group_42099" data-name="Group 42099"><g id="Rectangle_14006" data-name="Rectangle 14006"><g id="Rectangle_14015" data-name="Rectangle 14015"><rect class="cls-1" x="0.5" y="0.5" width="102" height="80" rx="2"/><path class="cls-1" d="M100.5,81H2.5A2.5,2.5,0,0,1,0,78.5V2.5A2.5,2.5,0,0,1,2.5,0h98A2.5,2.5,0,0,1,103,2.5v76A2.5,2.5,0,0,1,100.5,81ZM2.5,1A1.5,1.5,0,0,0,1,2.5v76A1.5,1.5,0,0,0,2.5,80h98a1.5,1.5,0,0,0,1.5-1.5V2.5A1.5,1.5,0,0,0,100.5,1Z"/></g></g><g id="NSRS"><g id="Group_116" data-name="Group 116"><g id="Path_1379" data-name="Path 1379"><path class="cls-2" d="M24.59,10.82H29.1V54.16H25.36L15.63,24.42l.29,10.92V54.16h-4.7V10.82h3.84l10,29.5-.52-12.53Z"/></g><g id="Path_1380" data-name="Path 1380"><path class="cls-2" d="M35.67,24.24a13.57,13.57,0,0,1-.42-3.7A13.93,13.93,0,0,1,37,13.07q1.72-2.77,6.63-2.77,6.3,0,7.44,6.06a37.07,37.07,0,0,1,.5,6.57v2.55H46.68V22.57A23.63,23.63,0,0,0,46.26,17a3.7,3.7,0,0,0-1-1.89,2.53,2.53,0,0,0-1.6-.47A2.87,2.87,0,0,0,40.92,16a8,8,0,0,0-.82,4,8,8,0,0,0,.82,3.9,13.42,13.42,0,0,0,1.82,2.35c.73.74,1.13,1.18,1.21,1.27l2.95,3.15a17.57,17.57,0,0,1,5.33,12.46c0,3.74-.59,6.6-1.75,8.57s-3.36,3-6.6,3q-5.9,0-7.46-5.16a26.14,26.14,0,0,1-.92-7.62V37.41h5v4.41a21.63,21.63,0,0,0,.69,6.61,2.56,2.56,0,0,0,2.57,1.86,3.26,3.26,0,0,0,2.58-.87,4.71,4.71,0,0,0,.79-2.62c.07-1.21.11-2.55.11-4q0-4.52-4-8.47L40.4,31.45A17.62,17.62,0,0,1,35.67,24.24Z"/></g><g id="Path_1381" data-name="Path 1381"><path class="cls-2" d="M57.66,10.82h9.08c2.58,0,4.44.54,5.56,1.6s1.82,2.87,2,5.44c.09,1.05.15,2.69.15,4.92a15.71,15.71,0,0,1-.88,5.6,4.63,4.63,0,0,1-3.08,2.93A3.34,3.34,0,0,1,73,33a12.14,12.14,0,0,1,1.19,4.58c.27,3.1.38,6.22.34,9.33q0,6.18.4,7.23H69.84q-.39-.8-.39-14.6c0-3.15-.3-4.91-.91-5.4a4.31,4.31,0,0,0-2.76-.76l-3-.17V54.16H57.66Zm11.8,10.61q0-5-.9-5.78a3.76,3.76,0,0,0-2.6-.79H62.81V29.49h3.24a3.39,3.39,0,0,0,2.12-.55,3.62,3.62,0,0,0,1-2.17,29.91,29.91,0,0,0,.3-5Z"/></g><g id="Path_1382" data-name="Path 1382"><path class="cls-2" d="M80.63,24.24a13.59,13.59,0,0,1-.45-3.7,13.88,13.88,0,0,1,1.71-7.49q1.74-2.78,6.63-2.78,6.3,0,7.44,6.07a37.06,37.06,0,0,1,.49,6.57v2.57H91.61V22.57A23.63,23.63,0,0,0,91.19,17a3.7,3.7,0,0,0-1-1.89,2.52,2.52,0,0,0-1.61-.47A2.87,2.87,0,0,0,85.87,16,8,8,0,0,0,85,20a7.82,7.82,0,0,0,.74,3.9,13,13,0,0,0,1.83,2.35c.71.74,1.12,1.17,1.2,1.27l3,3.15a17.66,17.66,0,0,1,5.36,12.44c0,3.74-.58,6.59-1.74,8.57s-3.36,3-6.62,3q-5.88,0-7.46-5.17a26.47,26.47,0,0,1-.91-7.62V37.41h5v4.41a21.66,21.66,0,0,0,.73,6.61,2.56,2.56,0,0,0,2.57,1.86,3.12,3.12,0,0,0,2.58-.87A4.57,4.57,0,0,0,92,46.8c.07-1.21.1-2.55.1-4q0-4.52-4-8.47l-2.83-2.84C82.81,28.82,81.23,26.42,80.63,24.24Z"/></g></g></g><g id="Rectangle_14005" data-name="Rectangle 14005"><g id="Rectangle_14016" data-name="Rectangle 14016"><rect class="cls-3" x="8.5" y="58.5" width="90" height="17"/></g></g><g id="ACTC"><path class="cls-1" d="M43.32,72.5H41.69a.69.69,0,0,1-.44-.13A.84.84,0,0,1,41,72l-.68-1.94H36.26L35.58,72a1,1,0,0,1-.25.32.7.7,0,0,1-.44.14H33.24l4-10.16h2.15ZM39.8,68.64l-1.1-3.1c-.07-.17-.14-.36-.21-.58s-.14-.46-.21-.71c-.06.26-.13.5-.2.72s-.14.42-.21.58l-1.09,3.09Z"/><path class="cls-1" d="M50.86,70a.39.39,0,0,1,.3.13L52,71a4,4,0,0,1-1.53,1.19,5.39,5.39,0,0,1-2.17.4,5.06,5.06,0,0,1-2-.39,4.3,4.3,0,0,1-1.55-1.08,4.77,4.77,0,0,1-1-1.64A6.54,6.54,0,0,1,43.53,66,5.17,5.17,0,0,1,44,64.72a4.8,4.8,0,0,1,1.76-1.82A5.12,5.12,0,0,1,47,62.4a6,6,0,0,1,1.41-.17,5.36,5.36,0,0,1,1.06.1,5,5,0,0,1,.93.27,4.11,4.11,0,0,1,.8.43,3.39,3.39,0,0,1,.66.54l-.7,1a1.29,1.29,0,0,1-.16.17.63.63,0,0,1-.27.06.6.6,0,0,1-.34-.11L50,64.38a2.65,2.65,0,0,0-.62-.27,3.74,3.74,0,0,0-1-.11,2.78,2.78,0,0,0-1.17.23,2.48,2.48,0,0,0-.91.66A2.94,2.94,0,0,0,45.73,66a5,5,0,0,0,0,2.91A3.14,3.14,0,0,0,46.37,70a2.54,2.54,0,0,0,.92.67,2.93,2.93,0,0,0,1.13.23h.65a2.48,2.48,0,0,0,.54-.12,2.86,2.86,0,0,0,.47-.22,3.61,3.61,0,0,0,.44-.33l.16-.11A.36.36,0,0,1,50.86,70Z"/><path class="cls-1" d="M60.36,64h-3v8.5h-2.1V64h-3V62.3h8Z"/><path class="cls-1" d="M68.25,70a.39.39,0,0,1,.3.13l.83.89a4,4,0,0,1-1.53,1.19,5.39,5.39,0,0,1-2.17.4,5.17,5.17,0,0,1-2.06-.39,4.48,4.48,0,0,1-1.54-1.08,4.77,4.77,0,0,1-1-1.64,6.32,6.32,0,0,1-.16-3.5,5.2,5.2,0,0,1,.48-1.26,4.63,4.63,0,0,1,.76-1,4.25,4.25,0,0,1,1-.79,4.82,4.82,0,0,1,1.22-.5,6,6,0,0,1,1.41-.17,5.5,5.5,0,0,1,2,.37,4.11,4.11,0,0,1,.8.43,3.39,3.39,0,0,1,.66.54l-.7,1a1.37,1.37,0,0,1-.17.17.58.58,0,0,1-.26.06.6.6,0,0,1-.34-.11l-.42-.27a3.42,3.42,0,0,0-.62-.27,3.38,3.38,0,0,0-.95-.11,2.78,2.78,0,0,0-1.17.23,2.37,2.37,0,0,0-.91.66,3,3,0,0,0-.6,1.08,4.47,4.47,0,0,0-.21,1.45A4.25,4.25,0,0,0,63.13,69a3.18,3.18,0,0,0,.62,1,2.8,2.8,0,0,0,.93.67,2.93,2.93,0,0,0,1.13.23h.65a2.06,2.06,0,0,0,.54-.2,2.77,2.77,0,0,0,.46-.22,2.36,2.36,0,0,0,.45-.33.91.91,0,0,1,.16-.11A.39.39,0,0,1,68.25,70Z"/></g></g></svg>