<svg xmlns="http://www.w3.org/2000/svg" width="102" height="80" viewBox="0 0 102 80">
  <g id="Group_434" data-name="Group 434" transform="translate(-83 -20)">
    <g id="Rectangle_14006" data-name="Rectangle 14006" transform="translate(82.572 20)">
      <rect id="Rectangle_14015" data-name="Rectangle 14015" width="102" height="80" rx="2" transform="translate(0.428 0)" fill="#fff"/>
    </g>
    <g id="NSRS" transform="translate(93.727 29.777)">
      <g id="Group_116" data-name="Group 116" transform="translate(0 0)">
        <path id="Path_1379" data-name="Path 1379" d="M31.092,10.75H35.6V54.082h-3.74L22.131,24.343l.294,10.925V54.082h-4.7V10.75h3.834l10.043,29.5-.515-12.532Z" transform="translate(-17.73 -10.204)" fill="#3a3a3a"/>
        <path id="Path_1380" data-name="Path 1380" d="M41.021,24.19a13.656,13.656,0,0,1-.42-3.7,13.982,13.982,0,0,1,1.733-7.469q1.733-2.773,6.639-2.773,6.3,0,7.437,6.061a36.651,36.651,0,0,1,.494,6.576v2.542H52.03V22.52a24.077,24.077,0,0,0-.42-5.568,3.677,3.677,0,0,0-1.05-1.891,2.553,2.553,0,0,0-1.6-.473,2.857,2.857,0,0,0-2.689,1.355,7.868,7.868,0,0,0-.819,4.013,7.857,7.857,0,0,0,.819,3.9A12.911,12.911,0,0,0,48.091,26.2c.725.746,1.124,1.177,1.208,1.271l2.952,3.151a17.585,17.585,0,0,1,5.326,12.459c0,3.74-.588,6.6-1.744,8.572s-3.362,2.973-6.607,2.973q-5.883,0-7.458-5.168a26.062,26.062,0,0,1-.914-7.616V37.363H45.8v4.412a21.43,21.43,0,0,0,.693,6.607,2.553,2.553,0,0,0,2.563,1.859,3.225,3.225,0,0,0,2.584-.872,4.675,4.675,0,0,0,.788-2.616c.074-1.208.116-2.553.116-4.044q0-4.507-3.971-8.467l-2.826-2.836A17.659,17.659,0,0,1,41.021,24.19Z" transform="translate(-16.576 -10.229)" fill="#3a3a3a"/>
        <path id="Path_1381" data-name="Path 1381" d="M61.93,10.75h9.087c2.574,0,4.433.536,5.557,1.6s1.817,2.868,2.048,5.441c.095,1.05.147,2.689.147,4.916a15.757,15.757,0,0,1-.872,5.6,4.622,4.622,0,0,1-3.088,2.931,3.34,3.34,0,0,1,2.458,1.712,12.238,12.238,0,0,1,1.187,4.58q.336,3.151.336,9.328t.4,7.227H74.116q-.389-.788-.389-14.6c0-3.151-.3-4.906-.914-5.4a4.275,4.275,0,0,0-2.763-.756l-3.025-.168V54.082H61.93Zm11.8,10.61q0-5-.9-5.788a3.813,3.813,0,0,0-2.595-.788H67.077V29.417h3.246a3.414,3.414,0,0,0,2.122-.546,3.624,3.624,0,0,0,.977-2.174,29.96,29.96,0,0,0,.3-5.021Z" transform="translate(-15.499 -10.204)" fill="#3a3a3a"/>
        <path id="Path_1382" data-name="Path 1382" d="M83.823,24.191a13.236,13.236,0,0,1-.452-3.7A13.887,13.887,0,0,1,85.083,13q1.733-2.773,6.628-2.773,6.3,0,7.437,6.061a36.651,36.651,0,0,1,.494,6.576V25.43H94.8v-2.91a23.478,23.478,0,0,0-.42-5.568,3.677,3.677,0,0,0-1.05-1.891,2.563,2.563,0,0,0-1.607-.473,2.868,2.868,0,0,0-2.658,1.355,7.994,7.994,0,0,0-.83,4.013,7.868,7.868,0,0,0,.735,3.9A12.973,12.973,0,0,0,90.8,26.2c.714.746,1.124,1.177,1.2,1.271l2.962,3.151a17.617,17.617,0,0,1,5.357,12.438q0,5.61-1.733,8.572T91.964,54.6q-5.883,0-7.458-5.168a26.063,26.063,0,0,1-.914-7.616V37.364H88.55v4.412a21.513,21.513,0,0,0,.735,6.607,2.553,2.553,0,0,0,2.563,1.859,3.151,3.151,0,0,0,2.584-.872,4.664,4.664,0,0,0,.777-2.616c.074-1.208.105-2.553.105-4.044q0-4.507-3.96-8.467l-2.836-2.836C86,28.771,84.421,26.376,83.823,24.191Z" transform="translate(-14.418 -10.23)" fill="#3a3a3a"/>
      </g>
    </g>
    <g id="Rectangle_14005" data-name="Rectangle 14005" transform="translate(90.572 78.285)">
      <rect id="Rectangle_14016" data-name="Rectangle 14016" width="90" height="17" transform="translate(0.428 -0.286)" fill="#1f91c0"/>
    </g>
    <text id="ACTC" transform="translate(134 92)" fill="#fff" font-size="14" font-family="Lato-Black, Lato" font-weight="800"><tspan x="-18" y="0">ACTC</tspan></text>
  </g>
</svg>
