<svg xmlns="http://www.w3.org/2000/svg" width="47.084" height="31.662" viewBox="0 0 47.084 31.662">
  <g id="ad" transform="translate(-0.051 -2.4)">
    <path id="Path_6840" data-name="Path 6840" d="M66.918,230.084H65.067v-.313c0-1.128.005-2.257.018-3.386a.6.6,0,0,0-.194-.478q-2.971-2.944-5.934-5.9c-1.128-1.123-2.267-2.236-3.37-3.383a12.516,12.516,0,0,1-1.31-1.62,7.245,7.245,0,0,1-.862-2.469l-2.44-10.025a3.3,3.3,0,0,1,.319-2.755,2.854,2.854,0,0,1,4.181-.715,6.138,6.138,0,0,1,.825.938.28.28,0,0,0,.3.142,2.907,2.907,0,0,1,3.109,1.556.442.442,0,0,0,.464.267,3.025,3.025,0,0,1,2.626,1.316,4.748,4.748,0,0,1,.6,1.625q.71,2.973,1.443,5.942a.6.6,0,0,0,.155.263c.841.848,1.7,1.683,2.525,2.544a1.594,1.594,0,0,0,.769.4,9.072,9.072,0,0,1,6.034,5.207c0,.008.012.013.036.039.209-.385.406-.769.623-1.142a8.65,8.65,0,0,1,2.7-2.84,9.944,9.944,0,0,1,3.125-1.377.965.965,0,0,0,.388-.277q1.27-1.261,2.528-2.538a.649.649,0,0,0,.166-.284c.295-1.213.576-2.429.873-3.641q.352-1.444.728-2.88a3,3,0,0,1,3.056-2.354.467.467,0,0,0,.49-.28,2.887,2.887,0,0,1,3.06-1.548.326.326,0,0,0,.374-.194,2.9,2.9,0,0,1,5.427,1.611,13.607,13.607,0,0,1-.42,2.1q-1.022,4.281-2.07,8.557c-.158.647-.327,1.292-.529,1.926a6.561,6.561,0,0,1-1.832,2.6q-1.742,1.727-3.472,3.466l-3.339,3.347c-.822.825-1.649,1.644-2.462,2.474a.511.511,0,0,0-.111.327c-.008,1.138-.005,2.277-.006,3.415v.34H81.813v-1.662c0-.918.01-1.836,0-2.754a.669.669,0,0,1,.214-.527q1.739-1.729,3.47-3.466l3.994-3.995c.77-.771,1.52-1.563,2.314-2.308a5.763,5.763,0,0,0,1.676-3.024c.8-3.452,1.661-6.888,2.495-10.332a3.279,3.279,0,0,0,.094-.564,1.074,1.074,0,0,0-.7-1.106,1.007,1.007,0,0,0-1.251.415,3.1,3.1,0,0,0-.393.882c-.808,3.116-1.613,6.232-2.387,9.356a4.353,4.353,0,0,1-.74,1.892c-.357.422-.753.813-1.144,1.205q-2.227,2.234-4.463,4.463c-.049.049-.1.091-.143.133l-1.3-1.3c.55-.552,1.109-1.112,1.669-1.672,1.261-1.264,2.533-2.522,3.787-3.794a1.231,1.231,0,0,0-.434-2.134,1.246,1.246,0,0,0-1.279.383c-1.286,1.268-2.555,2.553-3.832,3.832-.514.514-1.027,1.027-1.547,1.535a.465.465,0,0,1-.243.119,6.988,6.988,0,0,0-4.117,2.119,7.863,7.863,0,0,0-2.1,4.456,16.08,16.08,0,0,0-.167,2.2c-.023,1.76-.008,3.521-.008,5.281v.37h-1.84v-.308c0-1.9.01-3.808,0-5.712a10.345,10.345,0,0,0-.735-3.914,7.132,7.132,0,0,0-4.56-4.246c-.351-.114-.725-.159-1.085-.246a.582.582,0,0,1-.266-.137q-2.66-2.651-5.312-5.311a1.289,1.289,0,0,0-1.585-.314,1.222,1.222,0,0,0-.213,1.983c.885.91,1.795,1.8,2.693,2.694s1.81,1.809,2.716,2.716a.977.977,0,0,1,.085.111l-1.358,1.3c-.2-.216-.432-.49-.685-.745-1.6-1.614-3.218-3.217-4.815-4.838a3.4,3.4,0,0,1-.853-1.75c-.2-.967-.455-1.925-.7-2.884-.366-1.441-.743-2.878-1.116-4.317-.228-.885-.432-1.778-.7-2.652a2.76,2.76,0,0,0-.534-.956.9.9,0,0,0-1.131-.175.949.949,0,0,0-.618.945,8.2,8.2,0,0,0,.233,1.318q.961,3.987,1.94,7.969c.176.722.371,1.439.524,2.165a4.653,4.653,0,0,0,1.335,2.357l4.2,4.2,5.4,5.394a.584.584,0,0,0,.081.081,1.449,1.449,0,0,1,.551,1.423c-.033,1.176-.01,2.354-.01,3.53ZM59.526,208.03a.646.646,0,0,0-.009-.08c-.382-1.5-.761-3.012-1.151-4.515a5.8,5.8,0,0,0-.328-.97A.951.951,0,0,0,57,201.977l1.669,6.486Zm30.538.433c.282-1.094.562-2.172.839-3.25s.553-2.164.833-3.258a1.051,1.051,0,0,0-1.19.837c-.34,1.24-.652,2.488-.973,3.735-.13.5-.254,1.01-.378,1.5Zm-1.712-4.621a.974.974,0,0,0-1.019.707c-.246.9-.467,1.806-.693,2.711-.1.414-.194.83-.295,1.254.3-.149.582-.281.857-.429a.3.3,0,0,0,.114-.182c.348-1.347.689-2.694,1.036-4.06Zm-27.964-.011c.01.067.012.114.023.157q.5,1.963,1.005,3.924a.3.3,0,0,0,.115.176c.271.146.551.28.855.433-.126-.528-.243-1.036-.368-1.542-.186-.758-.365-1.518-.571-2.271A1.078,1.078,0,0,0,60.388,203.831Z" transform="translate(-50.77 -196.021)" fill="#fff"/>
    <path id="Path_6842" data-name="Path 6842" d="M180.651,277.522l-.862.432q-.835-3.243-1.669-6.486a.951.951,0,0,1,1.042.487,5.794,5.794,0,0,1,.328.97q.582,2.255,1.151,4.515A.648.648,0,0,1,180.651,277.522Z" transform="translate(-171.894 -265.514)" fill="#fff"/>
    <path id="Path_6843" data-name="Path 6843" d="M842.819,277.68l-.869-.437c.124-.494.248-1,.378-1.5.321-1.245.631-2.493.973-3.735a1.052,1.052,0,0,1,1.19-.837c-.28,1.094-.555,2.176-.833,3.258S843.1,276.587,842.819,277.68Z" transform="translate(-803.524 -265.239)" fill="#fff"/>
    <path id="Path_6844" data-name="Path 6844" d="M785.245,310.169c-.347,1.366-.688,2.714-1.034,4.06a.307.307,0,0,1-.114.182c-.274.148-.556.28-.857.429.1-.424.194-.841.295-1.254.226-.9.447-1.811.693-2.711A.97.97,0,0,1,785.245,310.169Z" transform="translate(-747.662 -302.349)" fill="#fff"/>
    <path id="Path_6845" data-name="Path 6845" d="M248.06,309.94a1.078,1.078,0,0,1,1.059.878c.206.752.385,1.512.571,2.271.125.506.243,1.013.368,1.542-.3-.152-.582-.285-.855-.433a.3.3,0,0,1-.115-.176q-.507-1.961-1.005-3.924C248.072,310.053,248.07,310.007,248.06,309.94Z" transform="translate(-238.442 -302.13)" fill="#fff"/>
  </g>
</svg>
