<svg xmlns="http://www.w3.org/2000/svg" width="64.235" height="66.001" viewBox="0 0 64.235 66.001">
  <g id="Amateur_Soft_Tennis" data-name="Amateur Soft Tennis" transform="translate(0 0)">
    <path id="Path_9125" data-name="Path 9125" d="M206.017,104.1a.506.506,0,0,0-.643-.158c-.324.122-.592-.065-.885-.089-.056,0-.1-.061-.164-.064-.953-.066-1.86-.387-2.8-.527a7.183,7.183,0,0,1-1.341-.4c-.326-.119-.671-.112-1-.257-.674-.3-1.373-.548-2.073-.79a15.114,15.114,0,0,1-1.544-.657c-.4-.193-.8-.389-1.194-.606-.718-.4-1.451-.786-2.135-1.241-.548-.364-1.1-.738-1.646-1.09-.75-.485-1.333-1.16-2.039-1.687a11.426,11.426,0,0,1-1.723-1.462,10.036,10.036,0,0,1-1.607-1.773,1.158,1.158,0,0,0-.23-.233A13.752,13.752,0,0,1,183.352,91c-.132-.2-.311-.359-.449-.561A21.347,21.347,0,0,1,181,87.3a3.425,3.425,0,0,0-.389-.6c-.189-.254-.164-.561-.328-.823a14.141,14.141,0,0,1-.7-1.457,6.529,6.529,0,0,1-.543-1.428.983.983,0,0,0-.091-.255,9.564,9.564,0,0,1-.629-1.725c-.286-.977-.508-1.977-.762-2.965a6.762,6.762,0,0,1-.1-.778c-.073-.527-.259-1.034-.283-1.569A2.372,2.372,0,0,0,177,74.637a1.6,1.6,0,0,1-.045-.81,6.521,6.521,0,0,0,0-1.484,14.535,14.535,0,0,0-.073-1.485c-.062-.257.158-.473.152-.738-.011-.662.1-1.315.157-1.97.039-.448.121-.887.14-1.343a5.646,5.646,0,0,1,.279-1.382.553.553,0,0,0,.048-.206,1.349,1.349,0,0,1,.3-.989.165.165,0,0,0,.036-.113,3.135,3.135,0,0,1,.167-1.2c.074-.344.166-.694.222-1.034a11.912,11.912,0,0,1,.666-1.847,17.027,17.027,0,0,1,.617-1.634c.244-.542.468-1.1.706-1.649.331-.758.8-1.444,1.165-2.181.563-1.124,1.385-2.075,2-3.163a6.791,6.791,0,0,1,.792-.973c.47-.549.882-1.146,1.391-1.665.615-.632,1.257-1.227,1.89-1.836.778-.751,1.618-1.425,2.448-2.108.668-.552,1.411-1,2.124-1.494.593-.408,1.218-.761,1.834-1.128a14.421,14.421,0,0,1,1.348-.663c.693-.323,1.374-.683,2.09-.937a13,13,0,0,1,1.789-.694c.6-.117,1.17-.375,1.762-.527a7.316,7.316,0,0,1,1.439-.34.736.736,0,0,0,.32-.059,3.563,3.563,0,0,1,1.5-.351,12.133,12.133,0,0,1,2.027-.25c.441.038.873-.082,1.312-.087.082,0,.2.02.183-.129l.36-.011a.181.181,0,0,0,.065.134.175.175,0,0,0,.142.038,7.264,7.264,0,0,0,1.1-.069c.073-.015.175-.014.133-.143l.78-.021c-.069.192.09.182.175.17a7.075,7.075,0,0,1,1.9.18,15.758,15.758,0,0,1,1.762.232c.741.178,1.506.281,2.256.443a6.009,6.009,0,0,1,.948.228c.261.105.548.093.829.2a36.584,36.584,0,0,1,3.623,1.384c.8.4,1.634.738,2.419,1.16a10.051,10.051,0,0,1,1.659,1.069c.484.4,1.017.726,1.531,1.079a11.724,11.724,0,0,1,1.107.759c.518.453,1.037.907,1.535,1.384.427.409.864.807,1.263,1.247.638.7,1.308,1.377,1.923,2.1.518.618,1,1.278,1.473,1.938a21.175,21.175,0,0,1,1.334,2c.415.738.891,1.435,1.244,2.207a12.008,12.008,0,0,1,.542,1.094,10.274,10.274,0,0,0,.38,1c.2.432.395.868.557,1.316a11.343,11.343,0,0,1,.726,2.019,10.475,10.475,0,0,0,.318,1.1,5.293,5.293,0,0,0,.311,1c.22.437.145.936.345,1.37a.786.786,0,0,1,.056.357,8.787,8.787,0,0,0,.232,1.524,42.7,42.7,0,0,1,.294,4.786,10.394,10.394,0,0,1-.09,1.792c-.088.507.08,1.043-.036,1.548s-.093,1.035-.215,1.549a2.682,2.682,0,0,0-.215,1.172c.046.222-.126.4-.17.606-.126.612-.254,1.223-.351,1.843a4.05,4.05,0,0,1-.385,1.074.924.924,0,0,0-.11.456.475.475,0,0,1-.055.262,11.155,11.155,0,0,0-.654,1.681,9.492,9.492,0,0,1-.441,1.054c-.195.379-.275.816-.48,1.2q-.56,1.034-1.092,2.083a26.18,26.18,0,0,1-1.525,2.488c-.5.768-1.14,1.449-1.672,2.2-.284.4-.694.66-.963,1.062a3.248,3.248,0,0,0-.285.422.606.606,0,0,1-.361.375.823.823,0,0,0-.311.27,22.3,22.3,0,0,1-2.3,2.123c-.726.6-1.477,1.186-2.251,1.735-.878.622-1.818,1.14-2.689,1.771a7.143,7.143,0,0,1-1.225.614c-.605.285-1.227.527-1.828.826a11.921,11.921,0,0,0-1.2.507,6.926,6.926,0,0,1-1.564.511c-.366.124-.744.218-1.115.311-.352.089-.694.218-1.052.291-.732.147-1.458.325-2.2.422-.1.013-.175.063-.1.187Zm34.025-37.015a1.64,1.64,0,0,0-.054-.6c-.277-.527-.1-1.131-.32-1.687a6.234,6.234,0,0,1-.293-1.287c-.116-.738-.431-1.432-.585-2.166a4,4,0,0,0-.262-.843c-.326-.722-.591-1.47-.905-2.2a22.361,22.361,0,0,0-1.043-2.214c-.537-.949-1.037-1.907-1.647-2.807-.563-.833-1.117-1.675-1.754-2.448a29.42,29.42,0,0,0-3.309-3.609q-1.029-.9-2.084-1.777a15.968,15.968,0,0,0-1.457-1.113c-.858-.552-1.755-1.055-2.614-1.607a28.146,28.146,0,0,0-3.145-1.536c-.622-.3-1.326-.41-1.97-.685-.4-.173-.851-.211-1.244-.377a15.484,15.484,0,0,0-2.66-.633c-.341-.077-.715-.083-1.044-.16a10.437,10.437,0,0,0-1.578-.25,15.472,15.472,0,0,0-3.091-.138,2.863,2.863,0,0,1-.747-.015,10.434,10.434,0,0,0-1.891.152c-.252.011-.518.105-.789.124-.2.014-.4.04-.594.07a22.328,22.328,0,0,0-2.679.539q-.557.153-1.115.3c-.622.166-1.244.324-1.856.541a13.359,13.359,0,0,0-1.276.488c-.57.273-1.167.476-1.74.745-.647.306-1.281.633-1.925.949-.257.123-.445.335-.687.471a23.666,23.666,0,0,0-3.433,2.355c-.617.5-1.244,1-1.837,1.529-.339.3-.591.705-.949.962a12.344,12.344,0,0,0-1.8,1.837,9.561,9.561,0,0,0-.622.732c-.363.48-.706.976-1.065,1.46-.538.725-1.032,1.482-1.5,2.256-.391.654-.706,1.352-1.057,2.029a27.715,27.715,0,0,0-1.366,2.643c-.23.588-.437,1.185-.638,1.785-.124.371-.263.738-.4,1.1-.109.29-.128.59-.207.879-.133.467-.318.915-.433,1.389a15.874,15.874,0,0,0-.363,2.088,6.887,6.887,0,0,0-.134,1.328,2.533,2.533,0,0,1-.062.633,9.343,9.343,0,0,0-.2,1.649c0,.648.029,1.3.05,1.948a2.7,2.7,0,0,0,.089.994,1.086,1.086,0,0,1,.069.533,4.43,4.43,0,0,0-.047,1.088,8.208,8.208,0,0,1,.239,1.288c.009.324.088.673.117,1.014a.7.7,0,0,0,.1.377.828.828,0,0,1,.158.605,7.088,7.088,0,0,0,.337,1.782c.085.51.319,1,.434,1.5a18.27,18.27,0,0,0,.824,2.3c.126.34.311.662.428,1a9.048,9.048,0,0,0,.487,1.168,38.918,38.918,0,0,0,2.157,3.7,24.129,24.129,0,0,0,2.469,3.256c.731.773,1.4,1.6,2.186,2.324a27.121,27.121,0,0,0,2.135,1.792c.658.488,1.273,1.036,1.959,1.49.643.422,1.291.836,1.963,1.211.368.2.78.324,1.128.553.868.572,1.876.829,2.781,1.322a8.375,8.375,0,0,0,1.685.592c.745.211,1.5.394,2.242.615a18.95,18.95,0,0,0,2.742.571c.875.125,1.747.271,2.635.316a5.44,5.44,0,0,1,1.126.061,1.931,1.931,0,0,0,.682.052,4.349,4.349,0,0,1,.778-.017,6.6,6.6,0,0,0,1.576-.081,5.124,5.124,0,0,0,1.337-.211.253.253,0,0,1,.089,0,9.235,9.235,0,0,0,1.944-.211c.568-.142,1.14-.267,1.71-.4.42-.1.846-.211,1.27-.3a13.128,13.128,0,0,0,1.718-.559,25.093,25.093,0,0,0,2.668-1.046c.5-.253,1.023-.478,1.517-.75.622-.34,1.206-.75,1.834-1.071a21.268,21.268,0,0,0,1.989-1.353c.476-.316.892-.72,1.339-1.068.4-.308.751-.661,1.14-.974a20.855,20.855,0,0,0,2.645-2.687c.518-.6,1.013-1.207,1.488-1.837.171-.227.279-.492.467-.7a7.628,7.628,0,0,0,1.03-1.476c.447-.818.992-1.572,1.4-2.419.311-.653.642-1.3.912-1.969a24.852,24.852,0,0,0,1.153-2.916c.3-1.142.661-2.264.872-3.431a6.477,6.477,0,0,1,.155-.822c.123-.384.14-.787.234-1.175.089-.369-.011-.757.078-1.116a17.9,17.9,0,0,0,.169-2.233,15.734,15.734,0,0,0-.017-2.221A16.841,16.841,0,0,0,240.041,67.086Z" transform="translate(-176.873 -38.1)" fill="#0e0e6d"/>
    <path id="Path_9126" data-name="Path 9126" d="M479.972,38.26c.042.13-.06.129-.133.143a6.642,6.642,0,0,1-1.1.069.175.175,0,0,1-.142-.038.181.181,0,0,1-.065-.134Z" transform="translate(-447.258 -38.243)" fill="#fefefd"/>
    <path id="Path_9127" data-name="Path 9127" d="M285.79,129.043c.518-.026.955.124,1.422.054a9.84,9.84,0,0,1,2.51.14c.473.05.948.115,1.411.193a18.5,18.5,0,0,1,2.087.5,14.268,14.268,0,0,0,1.762.549c.282.044.512.291.793.4a19.4,19.4,0,0,1,3.286,1.771c.611.4,1.16.876,1.755,1.291a8.184,8.184,0,0,1,1.637,1.49,11.324,11.324,0,0,0,1,.989,15.142,15.142,0,0,1,1.536,1.727,23.3,23.3,0,0,1,1.879,2.859,20.559,20.559,0,0,1,1.33,2.772c.257.665.534,1.329.726,2.016.207.757.408,1.517.574,2.287.112.52.128,1.054.287,1.566a8.088,8.088,0,0,1,.076,1.242,17,17,0,0,1,.052,3.239,13.254,13.254,0,0,1-.185,1.957c-.1.509-.217,1.02-.288,1.539a9.959,9.959,0,0,1-.329,1.316c-.207.729-.391,1.47-.652,2.18a17.1,17.1,0,0,1-1.327,2.944c-.367.611-.669,1.265-1.076,1.847-.344.49-.7.979-1.057,1.462a7.5,7.5,0,0,1-.84,1.088c-.317.293-.616.6-.915.911-.25.257-.48.537-.71.813a4.453,4.453,0,0,1-.7.558c-.529.429-1.037.884-1.589,1.285a27.546,27.546,0,0,1-2.656,1.633,18.972,18.972,0,0,1-1.9.922,9.973,9.973,0,0,1-2.165.738,4.861,4.861,0,0,0-.642.23c-.427.142-.878.18-1.3.336a1.444,1.444,0,0,1-.434.105c-.94.024-1.854.273-2.788.339-.385.026-.769-.085-1.161-.031-.3.042-.6.043-.893.091a7.225,7.225,0,0,1-1.451-.105,8.181,8.181,0,0,1-1.593-.211c-.627-.153-1.273-.192-1.9-.392-.587-.188-1.186-.337-1.777-.521a21.836,21.836,0,0,1-2.379-.98c-.592-.265-1.14-.609-1.736-.868a11.791,11.791,0,0,1-1.517-.962,17.185,17.185,0,0,1-2.669-2.139,4.945,4.945,0,0,0-.948-.787c-.14-.078-.136-.242-.232-.345-.415-.437-.76-.932-1.2-1.344a2.483,2.483,0,0,1-.334-.5,7.864,7.864,0,0,1-.66-.857c-.017-.036-.044-.087-.073-.094-.6-.121-.424-.755-.7-1.1a9.971,9.971,0,0,1-.908-1.566,10.714,10.714,0,0,1-.774-1.619c-.189-.583-.392-1.137-.622-1.7a5.484,5.484,0,0,1-.241-.717,23.161,23.161,0,0,1-.613-2.6c-.089-.684-.07-1.4-.221-2.052a12.147,12.147,0,0,1-.17-2.489,7.507,7.507,0,0,1,.132-1.462c.078-.447.079-.906.151-1.357a20.542,20.542,0,0,1,.447-2.222c.124-.455.231-.914.374-1.365.287-.9.576-1.8.946-2.678.261-.622.581-1.214.829-1.841a.6.6,0,0,1,.065-.136,20.88,20.88,0,0,0,1.147-1.969.754.754,0,0,1,.081-.128,12.519,12.519,0,0,0,1-1.381c.24-.337.553-.632.823-.96a7.473,7.473,0,0,1,1.083-1.143,15.453,15.453,0,0,1,1.206-1.007,3.68,3.68,0,0,0,.456-.433,21.613,21.613,0,0,1,2.853-2.043c.743-.474,1.547-.828,2.327-1.228a19.545,19.545,0,0,1,3.2-1.214c.739-.229,1.511-.316,2.263-.488C283.927,129.2,284.9,129.209,285.79,129.043ZM308.922,150.3a9.993,9.993,0,0,0-.253-1.892,3.712,3.712,0,0,0-.142-.805c-.121-.414-.207-.843-.3-1.265a6.614,6.614,0,0,0-.273-.98c-.29-.738-.576-1.49-.914-2.214a19.372,19.372,0,0,0-1.393-2.588c-.512-.772-.993-1.566-1.574-2.29a6.617,6.617,0,0,1-.5-.559,9.945,9.945,0,0,0-1.109-1.242,21.9,21.9,0,0,0-1.737-1.611c-.483-.443-1.045-.777-1.562-1.168a18.681,18.681,0,0,0-2.665-1.591c-.613-.316-1.263-.556-1.9-.829a4.7,4.7,0,0,0-.829-.359c-.574-.118-1.125-.322-1.705-.422-.76-.135-1.5-.361-2.27-.475a23.028,23.028,0,0,0-2.363-.251,15.643,15.643,0,0,0-2.68.165,12.7,12.7,0,0,0-2.678.492,12.659,12.659,0,0,1-1.745.494c-.386.076-.719.3-1.095.372a4.629,4.629,0,0,0-.829.3,12.253,12.253,0,0,0-1.439.707c-.492.28-1.007.527-1.494.815-.4.239-.776.527-1.16.792a13.838,13.838,0,0,0-2.35,1.9c-.355.387-.823.653-1.14,1.065-.434.566-.943,1.065-1.375,1.632a4.033,4.033,0,0,0-.555.713,14.216,14.216,0,0,1-1.052,1.634c-.415.676-.771,1.376-1.115,2.082a15.514,15.514,0,0,0-.863,2.081c-.112.351-.266.687-.376,1.038s-.172.7-.279,1.047a11.025,11.025,0,0,0-.406,2.2,5.082,5.082,0,0,0-.159,1.4.2.2,0,0,1-.051.139.521.521,0,0,0-.1.4q.05,1.86.1,3.718a.529.529,0,0,0,.034.268,1.846,1.846,0,0,1,.182,1.03c.008.121-.027.272.031.359a3.977,3.977,0,0,1,.318,1.4,17.244,17.244,0,0,0,.735,2.488c.1.241.123.5.239.728a5.062,5.062,0,0,1,.483,1.028,7.289,7.289,0,0,0,.887,1.875,29.291,29.291,0,0,0,1.611,2.471,23.968,23.968,0,0,0,1.933,2.278c.554.617,1.244,1.07,1.81,1.666.3.316.749.411,1.029.756a2.587,2.587,0,0,0,.67.506c.321.2.65.389.969.592a9.13,9.13,0,0,0,1.535.86,12.376,12.376,0,0,1,1.58.692,15.4,15.4,0,0,0,2,.738c.5.193,1.057.129,1.547.364a5.216,5.216,0,0,0,1.229.234,15.014,15.014,0,0,0,2.031.221,6.892,6.892,0,0,1,1.221.031,3.867,3.867,0,0,0,.99.1c.527.012,1.008-.237,1.536-.211a15.627,15.627,0,0,0,2.151-.311,9.05,9.05,0,0,1,1.043-.211.189.189,0,0,0,.109-.041,2.947,2.947,0,0,1,.923-.3c.3-.083.6-.2.88-.3.447-.164.9-.342,1.333-.547.51-.24,1.043-.453,1.518-.738.8-.487,1.619-.939,2.384-1.476a9.863,9.863,0,0,0,1.633-1.265,12.357,12.357,0,0,1,1.072-1,9.026,9.026,0,0,0,1.121-1.223c.111-.132.289-.145.357-.288a9.027,9.027,0,0,1,1.065-1.406c.57-.772.99-1.629,1.511-2.425.364-.556.537-1.215.855-1.8a8.972,8.972,0,0,0,.495-1.13c.264-.7.455-1.418.706-2.12a9.514,9.514,0,0,0,.449-2,16.479,16.479,0,0,0,.207-3.426c-.02-.267.194-.483.122-.738a1.233,1.233,0,0,1-.022-.907.475.475,0,0,0-.028-.385A2.347,2.347,0,0,1,308.922,150.3Z" transform="translate(-254.607 -119.454)" fill="#0e0e6d"/>
    <path id="Path_9128" data-name="Path 9128" d="M342.1,571.891a1.231,1.231,0,0,1,.268-.7c.547-.966,1.037-1.962,1.538-2.952a.438.438,0,0,1,.248-.228.429.429,0,0,1,.334.018.387.387,0,0,1,.221.57,7.611,7.611,0,0,1-.824,1.536,1.58,1.58,0,0,0-.278.6c-.011.069-.05.143.03.193a.147.147,0,0,0,.189-.044,2.985,2.985,0,0,0,.586-.646,5.789,5.789,0,0,1,1-1.2.512.512,0,0,1,.622-.157c.365.162.453.4.311.852-.214.674-.422,1.348-.63,2.024-.033.105-.067.245.047.3s.193-.042.256-.146c.376-.621.622-1.309,1-1.931.172-.287.335-.407.556-.294a.508.508,0,0,1,.242.738c-.332.606-.622,1.245-1.008,1.81a12.143,12.143,0,0,0-.684,1.459c-.189.373-.415.452-.775.244-.035-.02-.066-.046-.1-.063-.822-.375-.686-.4-.452-1.147.165-.52.252-1.062.46-1.568a.189.189,0,0,0,.013-.09c-.011-.146.073-.331-.084-.422s-.25.073-.354.16a9.217,9.217,0,0,0-1.162,1.339c-.02.023-.029.054-.047.078-.311.428-.483.473-.943.238-.116-.059-.223-.14-.343-.187A.356.356,0,0,1,342.1,571.891Z" transform="translate(-324.965 -512.13)" fill="#b5222a"/>
    <path id="Path_9129" data-name="Path 9129" d="M240.436,483.3a.432.432,0,0,1,.323-.388.372.372,0,0,1,.49.135c.286.352.5.753.756,1.119a3.643,3.643,0,0,0,.264.329c.216.235.344.159.677-.08.207-.149.133-.335-.009-.527-.277-.37-.532-.757-.784-1.145-.187-.29-.145-.465.118-.645a.429.429,0,0,1,.659.156c.249.365.5.729.745,1.1a.45.45,0,0,0,.283.209.443.443,0,0,0,.345-.061.545.545,0,0,0,.331-.662,4.06,4.06,0,0,0-.586-.949c-.137-.2-.291-.384-.434-.579a.4.4,0,0,1,.063-.591c.25-.22.5-.241.683-.047a5.581,5.581,0,0,1,.612.933c.316.491.622.989.962,1.463.186.259.1.4-.1.581-.654.564-1.42.96-2.11,1.471-.362.268-.736.518-1.109.77-.356.242-.415.2-.642-.157-.311-.491-.67-.949-1-1.427-.15-.211-.292-.433-.436-.65a.611.611,0,0,1-.094-.352Z" transform="translate(-233.846 -433.9)" fill="#b5222a"/>
    <path id="Path_9130" data-name="Path 9130" d="M206.175,400.625c-.468.024-.431.012-.582-.439a14.4,14.4,0,0,1-.4-1.677,2.21,2.21,0,0,1,0-1,1.36,1.36,0,0,1,1.705-.853.617.617,0,0,0,.766-.094,2.23,2.23,0,0,1,1-.45c.1-.029.2-.043.29-.074.462-.152.546-.113.66.316a.587.587,0,0,1-.428.8,5.042,5.042,0,0,0-.622.192.512.512,0,0,0-.4.565,2.778,2.778,0,0,0,.069.843c.047.121.1.255.244.224a2.389,2.389,0,0,0,.908-.242c.352-.249.6-.193.778.2a1.123,1.123,0,0,1,.126.433c.01.217-.058.33-.288.371a13.646,13.646,0,0,0-1.71.365c-.553.177-1.1.274-1.64.447A3.163,3.163,0,0,1,206.175,400.625Zm-.09-2.117a1.291,1.291,0,0,0,.177.666c.086.222.311.236.508.211.231-.028.484-.03.632-.26a.3.3,0,0,0,.024-.2,6.158,6.158,0,0,0-.157-.645c-.158-.494-.375-.679-.712-.627C206.243,397.7,206.083,397.976,206.085,398.509Z" transform="translate(-202.203 -358.238)" fill="#b5222a"/>
    <path id="Path_9131" data-name="Path 9131" d="M200.853,335.251a2.293,2.293,0,0,1-.605,1.642,1.223,1.223,0,0,1-.9.316c-.151,0-.232-.1-.228-.26a1,1,0,0,1,.393-.843,1.32,1.32,0,0,0,.311-1.281c-.09-.176-.221-.334-.437-.316a.5.5,0,0,0-.423.422c-.1.382-.245.753-.318,1.135a1.363,1.363,0,0,1-2.625.266,2.753,2.753,0,0,1,.027-1.815,1.516,1.516,0,0,1,1.119-.941.154.154,0,0,1,.146.012.16.16,0,0,1,.073.13c.042.375.093.738-.279,1.016a.874.874,0,0,0-.328.89c.05.343.238.513.525.472a.371.371,0,0,0,.311-.243,3.756,3.756,0,0,0,.326-1.007,2.308,2.308,0,0,1,.539-1.087,1.027,1.027,0,0,1,.969-.354,1.632,1.632,0,0,1,1.387,1.563C200.839,335.043,200.842,335.125,200.853,335.251Z" transform="translate(-193.905 -302.259)" fill="#b5222a"/>
    <path id="Path_9132" data-name="Path 9132" d="M476.279,605.538a2.238,2.238,0,0,1,1.527-2.2,1.538,1.538,0,0,1,1.8.851,2.47,2.47,0,0,1,.256,1.98,1.352,1.352,0,0,1-.518.78,2.025,2.025,0,0,1-2.248.017A1.436,1.436,0,0,1,476.279,605.538Z" transform="translate(-445.239 -543.715)" fill="#b5222a"/>
    <path id="Path_9133" data-name="Path 9133" d="M297.928,117.678a.533.533,0,0,1-.178.435q-.572.463-1.13.949c-.3.256-.311.445-.06.752.16.2.4.2.661-.012.3-.239.578-.5.869-.738a.463.463,0,0,1,.791.115.326.326,0,0,1-.089.46c-.311.27-.622.532-.954.775-.222.163-.374.335-.292.632a.813.813,0,0,0,.611.522.4.4,0,0,0,.347-.14c.345-.382.822-.6,1.175-.981a.423.423,0,0,1,.658.081.394.394,0,0,1-.122.585c-.726.517-1.312,1.211-2.047,1.721a.35.35,0,0,1-.5-.009,4.11,4.11,0,0,1-.6-.789,16.68,16.68,0,0,0-1.321-1.647,6.848,6.848,0,0,0-.622-.779c-.174-.157-.09-.342.078-.493.493-.443,1.05-.806,1.527-1.265.171-.167.373-.3.559-.453.1-.081.207-.134.327-.048C297.757,117.437,297.922,117.525,297.928,117.678Z" transform="translate(-282.773 -108.956)" fill="#b5222a"/>
    <path id="Path_9134" data-name="Path 9134" d="M339.712,93.652c-.311.051-.506-.211-.731-.382-.523-.388-1.089-.7-1.644-1.038a.221.221,0,0,0-.253-.023c-.1.069-.09.171-.072.274a7.139,7.139,0,0,0,.552,1.173c.1.292.251.571.382.855.06.13.1.251-.06.336s-.328.268-.541.119a.554.554,0,0,1-.195-.225c-.207-.5-.492-.949-.726-1.426-.3-.633-.674-1.233-1.018-1.847-.23-.408-.193-.5.191-.758a.641.641,0,0,1,.843.037,8.072,8.072,0,0,0,1.209.773,2.916,2.916,0,0,0,.751.407c.1.02.223.061.306-.049a.271.271,0,0,0-.015-.316c-.253-.436-.406-.925-.7-1.337-.259-.363-.271-.59-.069-.858a.31.31,0,0,1,.529-.037,1.642,1.642,0,0,1,.3.447,24.862,24.862,0,0,0,1.4,2.6,3.046,3.046,0,0,1,.158.293C340.577,93.221,340.342,93.626,339.712,93.652Z" transform="translate(-318.843 -83.813)" fill="#b5222a"/>
    <path id="Path_9135" data-name="Path 9135" d="M202.837,283.326a2.088,2.088,0,0,1,.863-1.89,1.748,1.748,0,0,1,1.107-.4,2.806,2.806,0,0,1,2.584,1.168,1.269,1.269,0,0,1,.276.7,2.913,2.913,0,0,1-.549,1.932,1.577,1.577,0,0,1-1.548.624,3.441,3.441,0,0,1-1.321-.158,2.443,2.443,0,0,1-1.348-1.219A2.585,2.585,0,0,1,202.837,283.326Zm.8-.07a.8.8,0,0,0,.225.58,1.917,1.917,0,0,0,.945.6,1.419,1.419,0,0,0,2-.869.437.437,0,0,0,.036-.325,1.529,1.529,0,0,0-.68-.941,2.521,2.521,0,0,0-1.375-.308,1.223,1.223,0,0,0-1.152,1.261Z" transform="translate(-200.128 -255.415)" fill="#b5222a"/>
    <path id="Path_9136" data-name="Path 9136" d="M385.427,73.859c.136.459.291,1,.459,1.538a2.562,2.562,0,0,1,.091.412c.032.227.043.432-.224.518a.485.485,0,0,1-.379-.025.5.5,0,0,1-.249-.292,4.241,4.241,0,0,1-.2-.764,5.2,5.2,0,0,0-.508-1.325c-.04-.093-.1-.176-.076-.286a1.891,1.891,0,0,0-.159-1.123c-.068-.222-.2-.435.039-.632a.66.66,0,0,1,.853-.07,2.058,2.058,0,0,1,.415.391,17.659,17.659,0,0,0,1.443,1.4c.087.092.187.211.334.125s.062-.211.046-.327c-.1-.662-.353-1.283-.518-1.927-.092-.354-.039-.464.263-.547s.44,0,.512.339c.147.685.439,1.327.592,2,.127.565.367,1.09.49,1.653.037.17.058.354-.081.449-.172.119-.365.279-.6.168a1.548,1.548,0,0,1-.7-.547,7.25,7.25,0,0,0-1.14-1.109c-.1-.105-.228-.2-.34-.3-.085-.077-.174-.154-.291-.092S385.427,73.668,385.427,73.859Z" transform="translate(-362.607 -67.439)" fill="#b5222a"/>
    <path id="Path_9137" data-name="Path 9137" d="M638.1,527.776a4.733,4.733,0,0,1,1.1.352c.455.145.915.276,1.37.422.23.075.326-.027.272-.266a.757.757,0,0,0-.207-.393c-.347-.342-.692-.688-1.019-1.048a.464.464,0,0,1-.028-.7c.194-.2.372-.211.653.015a1.681,1.681,0,0,1,.278.274,8.8,8.8,0,0,1,.881,1,7.37,7.37,0,0,0,.768.949,4.022,4.022,0,0,0,.354.4c.19.181.365.394.222.694a.688.688,0,0,1-.749.378c-.254-.047-.5-.144-.756-.179a4.849,4.849,0,0,1-1.358-.487.641.641,0,0,0-.231-.049c-.086,0-.192-.024-.24.079a.213.213,0,0,0,.058.223,3.26,3.26,0,0,0,.4.483,3.614,3.614,0,0,1,.85,1.124c.116.222-.011.4-.267.4a1.026,1.026,0,0,1-.7-.369,20.768,20.768,0,0,1-1.571-1.709c-.189-.211-.386-.411-.568-.625-.128-.149-.324-.3-.194-.527A.829.829,0,0,1,638.1,527.776Z" transform="translate(-589.636 -474.563)" fill="#b5222a"/>
    <path id="Path_9138" data-name="Path 9138" d="M220.807,446.81a1.788,1.788,0,0,0-1.037.36,1.773,1.773,0,0,1-.676.3,5.349,5.349,0,0,0-.979.441.323.323,0,0,1-.509-.177c-.046-.105-.1-.2-.138-.3a.315.315,0,0,1,.187-.462,6.162,6.162,0,0,0,1.549-.843c.182-.161.469-.092.636-.244.266-.242.586-.191.886-.266a1.582,1.582,0,0,1,1.762,1.078,2.935,2.935,0,0,1,.262,1.2,1.483,1.483,0,0,1-.983,1.324c-.74.369-1.519.655-2.235,1.075a.732.732,0,0,1-.083.036c-.549.218-.81.041-.845-.568-.011-.2.09-.281.257-.356a23.635,23.635,0,0,0,2.5-1.2.727.727,0,0,0,.221-1.072C221.4,446.8,221.166,446.815,220.807,446.81Z" transform="translate(-213.226 -402.62)" fill="#b5222a"/>
    <path id="Path_9139" data-name="Path 9139" d="M598.828,95.749a3.86,3.86,0,0,1-1.52,2.549,1.369,1.369,0,0,1-1.527.037,12.3,12.3,0,0,1-1.468-.87c-.19-.142-.192-.264-.089-.46.5-.949,1.044-1.87,1.49-2.846a1.7,1.7,0,0,1,.1-.184c.476-.775.445-.668,1.1-.284a4.241,4.241,0,0,1,1.379.932A2.347,2.347,0,0,1,598.828,95.749Zm-.954.129c.052-.169-.178-.308-.207-.527a1,1,0,0,0-.89-.828.359.359,0,0,0-.42.3,1.593,1.593,0,0,1-.236.521c-.271.46-.533.923-.759,1.409a.321.321,0,0,0-.01.316,1.45,1.45,0,0,0,1.31.479,1.248,1.248,0,0,0,.8-.682,1.912,1.912,0,0,0,.414-.991Z" transform="translate(-550.898 -87.567)" fill="#b5222a"/>
    <path id="Path_9140" data-name="Path 9140" d="M634.8,121.985c.1-.015.173.063.253.124.54.414.953.977,1.53,1.346.067.043.123.105.192.142a.516.516,0,0,1,.248.355.524.524,0,0,1-.107.422c-.141.164-.311.071-.427-.024-.361-.286-.714-.583-1.052-.9a1.139,1.139,0,0,0-.551-.28c-.216-.04-.321.232-.459.383a.262.262,0,0,0,.012.362,2.79,2.79,0,0,0,.477.5c.264.211.531.428.774.665.179.176.122.365-.051.527s-.3.225-.5.014a6.68,6.68,0,0,0-.958-.869c-.335-.237-.582-.178-.888.217-.229.294-.213.483.079.763a10.539,10.539,0,0,0,1.2,1.039.38.38,0,0,1,.148.506.389.389,0,0,1-.21.212.38.38,0,0,1-.3,0,1.023,1.023,0,0,1-.392-.211c-.6-.557-1.2-1.116-1.81-1.663a.3.3,0,0,1-.03-.455c.384-.474.8-.919,1.174-1.4a18.716,18.716,0,0,0,1.218-1.457C634.469,122.144,634.575,121.977,634.8,121.985Z" transform="translate(-584.723 -113.14)" fill="#b5222a"/>
    <path id="Path_9141" data-name="Path 9141" d="M408.674,590.691c.025-1.423-.092-2.584-.1-3.749,0-.41.055-.465.447-.375.488.113.518.111.545.592.036.666.561.756,1,.956.072.033.163.025.228.064.28.17.443.027.591-.2.3-.462.485-.548.9-.44.287.074.39.339.186.549-.341.35-.5.822-.8,1.191-.375.456-.622,1-1.031,1.441a3.542,3.542,0,0,0-.472.695.582.582,0,0,1-.772.3A.885.885,0,0,1,408.674,590.691Zm.955-1.245h0c0,.071,0,.142.006.211a1,1,0,0,0,.035.237c.1.279.2.3.377.081a5.145,5.145,0,0,0,.311-.446c.3-.46.252-.584-.281-.7-.311-.066-.444.039-.449.369a2.219,2.219,0,0,0,0,.249Z" transform="translate(-384.551 -528.716)" fill="#b5222a"/>
    <path id="Path_9142" data-name="Path 9142" d="M538.98,589.2c-.2.038-.326-.084-.46-.261-.8-1.043-1.5-2.164-2.347-3.17-.139-.166-.316-.378-.1-.617a.732.732,0,0,1,.876-.133,1.732,1.732,0,0,1,.236.271c.245.327.468.381.915.177.036-.017.067-.057.1-.06.518-.043.716-.386.8-.86.076-.414.4-.577.759-.669.172-.043.2.075.207.211.024,1.406-.133,2.808-.081,4.217C539.913,588.864,539.584,589.166,538.98,589.2Zm.207-2.239c0-.889-.032-.927-.783-.868a.535.535,0,0,0-.38.794c.129.211.239.422.362.632a.464.464,0,0,0,.546.253.358.358,0,0,0,.266-.442A2.667,2.667,0,0,1,539.187,586.957Z" transform="translate(-498.744 -526.331)" fill="#b5222a"/>
    <path id="Path_9143" data-name="Path 9143" d="M458.988,65.007a1.543,1.543,0,0,1-1.445-.583c-.011-.017-.029-.028-.04-.044-.179-.246-.191-.569-.024-.693a.634.634,0,0,1,.726.147,1.26,1.26,0,0,0,1.5.265.5.5,0,0,0,.275-.442.527.527,0,0,0-.3-.453,2.341,2.341,0,0,0-.637-.152,2.877,2.877,0,0,1-1.289-.511,1.338,1.338,0,0,1-.351-1.393,1.224,1.224,0,0,1,1.086-.909,2.54,2.54,0,0,1,1.672.291,1.14,1.14,0,0,1,.415.469.412.412,0,0,1-.093.548.488.488,0,0,1-.657-.162.945.945,0,0,0-.9-.482.7.7,0,0,0-.632.338.474.474,0,0,0,.03.519c.122.211.361.2.549.258.32.105.666.135.985.245a1.254,1.254,0,0,1,.984.949,1.517,1.517,0,0,1-.465,1.463,1.67,1.67,0,0,1-.958.3C459.286,64.987,459.143,65,458.988,65.007Z" transform="translate(-428.276 -57.883)" fill="#b5222a"/>
    <path id="Path_9144" data-name="Path 9144" d="M713.928,425.618a2.131,2.131,0,0,1,1.451-2.223,3.36,3.36,0,0,1,1.91.306,1.851,1.851,0,0,1,1.168,1.2,2.614,2.614,0,0,1-.316,2.214,1.174,1.174,0,0,1-.581.458,2.726,2.726,0,0,1-1.631.169,3.883,3.883,0,0,1-1.3-.584A1.64,1.64,0,0,1,713.928,425.618Zm2.064-1.348a1.228,1.228,0,0,0-1.221.775,1.1,1.1,0,0,0,.331,1.315,2.387,2.387,0,0,0,.8.406,1.357,1.357,0,0,0,1.812-.492,1.053,1.053,0,0,0,.046-.976A2.343,2.343,0,0,0,715.992,424.27Z" transform="translate(-658.224 -382.741)" fill="#b5222a"/>
    <path id="Path_9145" data-name="Path 9145" d="M668.929,157.837a1.325,1.325,0,0,1-.9,1.186,3.219,3.219,0,0,1-.326.053.559.559,0,0,0-.562.454c-.1.488-.58.679-.816,1.063a.329.329,0,0,1-.064.062c-.142.13-.207.474-.5.211a.634.634,0,0,1-.133-.932c.216-.266.549-.4.726-.712a.481.481,0,0,0,.06-.453,2.181,2.181,0,0,0-.518-.805c-.3-.287-.438-.292-.738,0a4.856,4.856,0,0,1-.714.591c-.241.156-.382.076-.543-.092a.368.368,0,0,1-.028-.541,5.609,5.609,0,0,1,.757-.632c.511-.465,1.105-.828,1.575-1.347a2.572,2.572,0,0,1,.681-.537.3.3,0,0,1,.442.08c.406.527.829,1.035,1.244,1.551A2.126,2.126,0,0,1,668.929,157.837Zm-1.837-1.388a1.414,1.414,0,0,0-.842.7.265.265,0,0,0,.036.166,5.036,5.036,0,0,0,.7.858.62.62,0,0,0,1.044-.336,1.808,1.808,0,0,0-.94-1.387Z" transform="translate(-613.299 -142.983)" fill="#b5222a"/>
    <path id="Path_9146" data-name="Path 9146" d="M308.835,541.85c-.045-.224.122-.414.187-.633a15.11,15.11,0,0,1,.5-1.618c.22-.522.365-1.044.536-1.571.062-.194.116-.472.333-.488.244-.019.42.211.559.411a.465.465,0,0,1,.015.5c-.248.413-.1.576.238.906a2.828,2.828,0,0,0,.47.323.675.675,0,0,0,.855,0,.569.569,0,0,1,.848.135.334.334,0,0,1-.012.466,4.125,4.125,0,0,1-.909.622q-1.238.843-2.5,1.656A.769.769,0,0,1,308.835,541.85Zm1.348-.645c.261,0,.423-.236.632-.383.43-.3.429-.406.013-.724-.031-.023-.072-.035-.1-.06a.223.223,0,0,0-.2-.059.227.227,0,0,0-.163.126,2.865,2.865,0,0,0-.371.89c-.026.119-.009.233.189.211Z" transform="translate(-295.149 -484.89)" fill="#b5222a"/>
    <path id="Path_9147" data-name="Path 9147" d="M604.651,560.244a1.729,1.729,0,0,1,.829-1.557c.415-.268.829-.527,1.244-.783.338-.211.5-.137.683.216.2.385.44.745.653,1.122.317.56.646,1.113.933,1.687a1.106,1.106,0,0,1-.337,1.255c-.415.267-.845.493-1.276.721a1.722,1.722,0,0,1-1.97-.738,8.229,8.229,0,0,1-.651-1.289A2.523,2.523,0,0,1,604.651,560.244Zm.933-.153a2.522,2.522,0,0,0,.739,1.649,1.017,1.017,0,0,0,1.151.266,2.542,2.542,0,0,0,.507-.316c.292-.2.3-.379.1-.684-.361-.57-.71-1.149-1.037-1.74-.133-.24-.3-.327-.535-.24-.408.149-1,.662-.933,1.067Z" transform="translate(-560.304 -503.002)" fill="#b5222a"/>
    <path id="Path_9148" data-name="Path 9148" d="M731.6,307.969a1.82,1.82,0,0,1-1.244,1.966,3.1,3.1,0,0,1-2.093.148,1.816,1.816,0,0,1-.818-.595,2.264,2.264,0,0,1,.014-2.982,1.744,1.744,0,0,1,1.117-.584,4.626,4.626,0,0,1,1.478-.039,1.9,1.9,0,0,1,1.539,1.751C731.6,307.749,731.6,307.854,731.6,307.969Zm-2.4,1.315a2.273,2.273,0,0,0,1.029-.219,1.25,1.25,0,0,0,.688-1.183,1.174,1.174,0,0,0-.92-1.106,2.536,2.536,0,0,0-1.819.273,1.219,1.219,0,0,0-.241,1.792A1.4,1.4,0,0,0,729.2,309.284Z" transform="translate(-669.874 -277.61)" fill="#b5222a"/>
    <path id="Path_9149" data-name="Path 9149" d="M556.365,76.908a.365.365,0,0,0,.292.436c.349.117.7.238,1.037.372.242.095.5.181.462.54s-.207.47-.531.333c-.366-.158-.726-.325-1.1-.483a.674.674,0,0,0-.943.72.488.488,0,0,0,.3.412c.5.262,1.081.316,1.573.608.3.176.338.294.185.612-.12.249-.324.211-.513.122-.769-.353-1.565-.632-2.36-.92-.294-.105-.339-.28-.207-.573.518-1.171.91-2.388,1.319-3.6a.311.311,0,0,1,.345-.251,1.931,1.931,0,0,1,.733.246,6.291,6.291,0,0,0,1.049.359,4.415,4.415,0,0,1,.78.368c.217.1.147.355.067.544s-.249.179-.432.133c-.481-.124-.892-.422-1.379-.542C556.472,76.2,556.36,76.275,556.365,76.908Z" transform="translate(-515.345 -71.32)" fill="#b5222a"/>
    <path id="Path_9150" data-name="Path 9150" d="M691.425,209.793c-.064.016-.14.038-.219.054a.608.608,0,0,1-.818-.489.234.234,0,0,1,.228-.339,8.044,8.044,0,0,0,1.549-.293,17.945,17.945,0,0,0,2.289-.413.619.619,0,0,1,.689.244.58.58,0,0,1,.041.806c-.482.541-.867,1.16-1.341,1.7a10.675,10.675,0,0,0-1.015,1.308c-.175.278-.393.369-.551.245a.552.552,0,0,1-.158-.829c.087-.111.174-.221.257-.336s.134-.233.074-.342a4.828,4.828,0,0,0-.638-1.16.5.5,0,0,0-.388-.157Zm2.212-.543a1.233,1.233,0,0,0-.685.132.56.56,0,0,0-.1.959.331.331,0,0,0,.506.007,2.78,2.78,0,0,0,.532-.608c.07-.133.3-.211.195-.4S693.774,209.278,693.637,209.25Z" transform="translate(-637.136 -190.342)" fill="#b5222a"/>
    <path id="Path_9151" data-name="Path 9151" d="M728.869,358.913a7.578,7.578,0,0,1-1.026-.076c-.207.006-.207-.17-.22-.329a.318.318,0,0,1,.292-.382,2.829,2.829,0,0,1,1.1.061,9.987,9.987,0,0,0,1.489.124c.415.018.812.079,1.218.105.248.017.33.162.322.413-.018.589-.518.652-.881.853-.538.3-1.1.559-1.65.843a.719.719,0,0,0-.189.149c-.159.169-.1.377.1.363.483-.035.938.211,1.421.105a1.3,1.3,0,0,1,.589.07.326.326,0,0,1,.225.14.336.336,0,0,1,.05.263c-.024.2-.164.346-.339.322-.507-.07-1.014.021-1.522-.051a13.011,13.011,0,0,0-1.519-.082,1.874,1.874,0,0,1-.587-.089.5.5,0,0,1-.181-.891,1.649,1.649,0,0,1,.471-.254c.58-.287,1.163-.569,1.739-.867a2.944,2.944,0,0,0,.408-.3.149.149,0,0,0,.046-.192.366.366,0,0,0-.3-.222Z" transform="translate(-670.297 -324.361)" fill="#b5222a"/>
    <path id="Path_9152" data-name="Path 9152" d="M217.862,236.46a.885.885,0,0,1-.076.356c-.12.375-.237.752-.343,1.131-.084.3.132.411.349.511.311.142.65.177.952.343a.4.4,0,0,1,.228.587.518.518,0,0,1-.583.363,12.072,12.072,0,0,1-1.518-.589c-.532-.2-1.067-.39-1.6-.583-.141-.052-.285-.092-.424-.148-.34-.139-.385-.289-.262-.639.266-.76.5-1.53.8-2.279.134-.343.216-.392.562-.267.247.09.311.273.216.552-.154.448-.339.883-.465,1.342-.1.355-.019.52.4.674a.463.463,0,0,0,.6-.353c.118-.375.231-.753.355-1.127.079-.239.286-.238.474-.206S217.879,236.212,217.862,236.46Z" transform="translate(-210.619 -214.408)" fill="#b5222a"/>
    <path id="Path_9153" data-name="Path 9153" d="M230.336,194.685c-.039-.271.158-.449.281-.647.443-.705.942-1.37,1.336-2.108.15-.281.328-.316.566-.164.285.178.328.333.165.632a3.3,3.3,0,0,1-.3.492c-.167.211-.114.356.078.507a12.955,12.955,0,0,0,1.542.985,6.179,6.179,0,0,0,.986.561c.349.124.387.41.2.784-.148.3-.366.373-.7.178-.518-.3-1.021-.632-1.517-.966a10.86,10.86,0,0,0-1.037-.607.356.356,0,0,0-.528.177,1.978,1.978,0,0,1-.347.492.364.364,0,0,1-.453.105A.405.405,0,0,1,230.336,194.685Z" transform="translate(-224.789 -175.487)" fill="#b5222a"/>
    <path id="Path_9154" data-name="Path 9154" d="M701.922,470.338a2.254,2.254,0,0,1,.223-.474,5.077,5.077,0,0,1,.423-.7.35.35,0,0,0-.123-.555c-.346-.218-.726-.364-1.069-.6a.328.328,0,0,1-.109-.527c.225-.361.292-.414.575-.251.657.38,1.29.8,1.957,1.16.375.2.726.453,1.1.661.415.232.436.347.217.756a10.652,10.652,0,0,0-.77,1.538,1.013,1.013,0,0,1-.332.492c-.136.105-.288.219-.454.062a.408.408,0,0,1-.094-.527c.207-.383.406-.766.615-1.146a.616.616,0,0,0,0-.616.6.6,0,0,0-.528-.3.322.322,0,0,0-.284.192c-.224.383-.447.765-.676,1.145-.077.125-.181.235-.345.156A.458.458,0,0,1,701.922,470.338Z" transform="translate(-646.825 -421.917)" fill="#b5222a"/>
    <path id="Path_9155" data-name="Path 9155" d="M265.73,151.817a.865.865,0,0,1-.494-.316c-.6-.654-1.338-1.153-1.889-1.86-.23-.294-.486-.252-.726.043-.115.139-.22.288-.342.422a.317.317,0,0,1-.48.041c-.162-.141-.383-.3-.227-.582a.583.583,0,0,1,.122-.172,24.68,24.68,0,0,0,1.989-2.14.328.328,0,0,1,.553-.007c.33.316.332.4-.035.707-.513.422-.518.738-.029,1.185.641.591,1.274,1.189,1.91,1.785.1.105.277.2.18.371C266.144,151.5,266.066,151.776,265.73,151.817Z" transform="translate(-252.744 -135.608)" fill="#b5222a"/>
    <path id="Path_9156" data-name="Path 9156" d="M517.56,62.67c.379.021.8.191,1.251.234.237.023.473.066.712.077.214.011.4.089.421.344s-.079.394-.34.372a7.289,7.289,0,0,1-1-.148,3.044,3.044,0,0,0-.531-.065c-.347-.017-.338.293-.423.5a.4.4,0,0,0,.13.541.98.98,0,0,0,.59.193,2.723,2.723,0,0,1,.876.17c.207.045.238.211.225.4a.3.3,0,0,1-.325.316c-.33,0-.639-.137-.972-.144-.655-.013-.779.065-.822.725-.022.33-.172.62-.216.949-.031.226-.263.161-.427.14a.272.272,0,0,1-.273-.327c.07-.6.128-1.2.234-1.792.112-.632.216-1.265.277-1.912C516.985,62.782,517.092,62.679,517.56,62.67Z" transform="translate(-481.229 -60.08)" fill="#b5222a"/>
    <path id="Path_9157" data-name="Path 9157" d="M273.417,525.577a.361.361,0,0,1-.135.341c-.691.582-1.314,1.239-1.951,1.879-.377.379-.378.582.006.96.044.042.086.084.131.125.259.235.281.375.089.579-.3.316-.391.316-.66.064-.561-.534-1.022-1.16-1.562-1.717a4.052,4.052,0,0,1-.476-.455c-.133-.187-.133-.331.052-.462s.371-.366.613-.083c.1.114.179.242.278.355.246.279.4.31.69.077a6.563,6.563,0,0,0,.788-.738c.4-.448.894-.805,1.279-1.273a.437.437,0,0,1,.554-.175A.528.528,0,0,1,273.417,525.577Z" transform="translate(-259.239 -473.682)" fill="#b5222a"/>
    <path id="Path_9158" data-name="Path 9158" d="M718,239.6c-.007.229,0,.422-.218.468s-.323-.105-.4-.281a4.042,4.042,0,0,0-.195-.506c-.134-.217-.311-.306-.53-.186a11.964,11.964,0,0,1-1.493.6c-.375.147-.756.279-1.129.437a.482.482,0,0,1-.622-.211c-.223-.367-.1-.639.328-.664a2.084,2.084,0,0,0,.609-.228c.71-.262,1.439-.472,2.135-.779.207-.091.285-.176.189-.406a4.25,4.25,0,0,1-.221-.72.3.3,0,0,1,.193-.393c.171-.055.276.03.372.171a2.226,2.226,0,0,1,.322.648c.165.575.375,1.131.582,1.687A2.616,2.616,0,0,1,718,239.6Z" transform="translate(-657.69 -215.773)" fill="#b5222a"/>
    <path id="Path_9159" data-name="Path 9159" d="M581.465,579.737a.55.55,0,0,1,.437-.567c.234-.054.341.083.424.281.347.828.7,1.653,1.054,2.478.127.3.262.589.387.887.183.44.129.619-.226.76-.331.132-.547.017-.686-.394-.288-.851-.656-1.668-1-2.494-.093-.224-.2-.443-.311-.66A.838.838,0,0,1,581.465,579.737Z" transform="translate(-539.521 -522.122)" fill="#b5222a"/>
    <path id="Path_9160" data-name="Path 9160" d="M669.21,513.753c.019-.149.027-.333.207-.422a.369.369,0,0,1,.447.047c.893.843,1.932,1.521,2.8,2.4.263.266.282.4.1.621-.217.265-.387.266-.68,0-.4-.351-.789-.709-1.193-1.054q-.726-.61-1.462-1.2A.5.5,0,0,1,669.21,513.753Z" transform="translate(-618.171 -463.185)" fill="#b5222a"/>
    <path id="Path_9161" data-name="Path 9161" d="M433.689,67.8c-.1-.949-.311-1.818-.448-2.706-.047-.309.007-.431.288-.475.406-.064.463-.015.518.316.1.626.235,1.248.338,1.874.11.668.207,1.34.3,2.011.036.261-.161.316-.353.363a.331.331,0,0,1-.447-.238A2.987,2.987,0,0,1,433.689,67.8Z" transform="translate(-406.651 -61.797)" fill="#b5222a"/>
    <path id="Path_9162" data-name="Path 9162" d="M723.11,284.422c-.456.011-.68-.316-.549-.671.046-.127.152-.137.264-.159a7.452,7.452,0,0,0,1.332-.4,7.09,7.09,0,0,1,.805-.167,11.463,11.463,0,0,1,1.477-.335.344.344,0,0,1,.423.25.374.374,0,0,1-.2.459,1.3,1.3,0,0,1-.441.181c-.975.2-1.916.527-2.873.792A2.2,2.2,0,0,1,723.11,284.422Z" transform="translate(-665.958 -256.904)" fill="#b5222a"/>
    <path id="Path_9163" data-name="Path 9163" d="M348.787,198.249a1.435,1.435,0,0,0-.368.338c-.109.211-.066.346.179.386l.233.129c-.009.126.089.211.113.331l.022.615a.4.4,0,0,0,.216.363.307.307,0,0,1,.163.163c.023.1,0,.226.142.252.032.063.065.126.1.189a.27.27,0,0,0,.1.255,1.969,1.969,0,0,1-.023,1.054c-.084-.013-.115.025-.1.105l-.149.085a2.059,2.059,0,0,1-.442,0,.752.752,0,0,0-.655.125.307.307,0,0,1-.323,0c-.056-.13-.172-.118-.281-.124a1.476,1.476,0,0,1-.447-.028c-.054-.071-.1-.077-.155.005l-.222.159c-.113.067-.229.132-.231.292a.848.848,0,0,0,.829,1.012,1.25,1.25,0,0,0,.759-.105.313.313,0,0,1,.247-.046.318.318,0,0,1,.2.151c.134.186-.025.272-.118.381a1.311,1.311,0,0,1-.823.493c-.432.07-.481.352-.287.744a3.512,3.512,0,0,0,.74.935,1.178,1.178,0,0,0,1.14.259,4.755,4.755,0,0,0,.89-.346.41.41,0,0,0,.264-.582.54.54,0,0,1,.174-.543.194.194,0,0,1,.166-.057.2.2,0,0,1,.145.1.436.436,0,0,1,.091.22c.013.672.221,1.321.215,1.993a1.352,1.352,0,0,1-.093.506,2.023,2.023,0,0,0-.016,1.476,1.357,1.357,0,0,1,.057.481,23.154,23.154,0,0,0,.376,2.425,4.214,4.214,0,0,0,.144,1.083,1.218,1.218,0,0,0,.2.436,1.554,1.554,0,0,1,.415.779c.094.537.488.942.6,1.467a8.863,8.863,0,0,1,.234,1.249,4.024,4.024,0,0,0,.6,1.758c.235.422.4.876.594,1.312a18.931,18.931,0,0,1,.571,2.255,3.33,3.33,0,0,0,1.006,1.4c.19.178.788-.135.884-.443a.837.837,0,0,1,.592-.651c.087-.02.124-.1.177-.157a3.891,3.891,0,0,0,.744-1.054.959.959,0,0,1,.493-.488.481.481,0,0,0,.247-.718,2.035,2.035,0,0,0-.524-.658c-.2-.193-.17-.347.036-.519a11.213,11.213,0,0,0,.894-.8,1.108,1.108,0,0,0,.285-.8c-.007-.62-.03-1.239-.05-1.859a.625.625,0,0,0-.036-.268c-.322-.579.07-1,.306-1.451a.472.472,0,0,1,.5-.211.4.4,0,0,0,.45-.228.853.853,0,0,1,.816-.471.862.862,0,0,0,.85-.639c.124-.422.474-.552.734-.792.219-.2.457-.381.68-.583.376-.342.8-.632,1.2-.949a.955.955,0,0,0,.394-.56c.011-.055.069-.1.091-.153.083-.2.254-.352.289-.59a.371.371,0,0,1,.344-.294c.148-.016.3-.026.448-.028a1.186,1.186,0,0,0,1.211-1.335c-.041-.534,0-.767.643-1.009a4.806,4.806,0,0,1,1.526-.532.392.392,0,0,0,.3-.555,1.634,1.634,0,0,1-.111-.649,2.747,2.747,0,0,0-.3-1.288,1.844,1.844,0,0,0-.446-.446.608.608,0,0,1-.045-.949.369.369,0,0,0,.013-.6.944.944,0,0,1-.284-.708c0-.16.011-.326-.2-.393-.112-.035-.047-.1.009-.153a1.18,1.18,0,0,0,.35-.482c.051-.159.186-.094.274-.039.18.114.375.226.531.015a.519.519,0,0,0-.04-.622,1.1,1.1,0,0,1-.1-.281c-.062-.174-.14-.337-.379-.309-.148.018-.353.089-.391-.148s.207-.3.353-.385a.982.982,0,0,1,.442-.048c.15-.006.194.105.224.234a3.654,3.654,0,0,0,.366,1.046.749.749,0,0,0,.951.281.822.822,0,0,1,.548-.08,1.511,1.511,0,0,0,.933-.154.353.353,0,0,0,.128-.572c-.207-.316-.091-.643.291-.632.66.011.969-.492,1.383-.843.207-.173.344-.4.668-.394.207.006.292-.229.393-.384.268-.411.452-.508.921-.382a.694.694,0,0,0,.6-.095,1.251,1.251,0,0,1,1.136-.171c.293.091.293.378.319.567.057.4.354.475.622.54a.821.821,0,0,1,.628.571c.1.289-.035.461-.261.6-.15.095-.1.254-.092.39.011.461-.031.5-.455.382a.964.964,0,0,0-.891.227,1.624,1.624,0,0,0-.726.941,3.14,3.14,0,0,1-.429,1.416c-.133.169-.073.473-.15.72a5.229,5.229,0,0,0-.245.872c-.04.3-.187.485-.518.447-.268-.03-.4.1-.374.37a1.141,1.141,0,0,1-.1.467,1.927,1.927,0,0,0-.123.923,1.01,1.01,0,0,1-.176.657c-.083.147-.241.337-.467.232-.207-.095-.485-.139-.429-.484a.2.2,0,0,0-.025-.145.857.857,0,0,1-.359-.738c0-.105-.131-.09-.224-.082a6.184,6.184,0,0,1-.627.026.424.424,0,0,1-.326-.125.439.439,0,0,1-.126-.33c-.01-.224-.009-.447-.019-.67a.738.738,0,0,1,.518-.774.7.7,0,0,0,.336-.24c.207-.254.142-.459-.166-.567a2.084,2.084,0,0,0-.737-.105,5.985,5.985,0,0,1-1.165-.025.468.468,0,0,1-.415-.329c-.207-.522-.321-.6-.7-.578-.17.011-.236.082-.207.252.02.105.033.22.049.331.04.294.028.54-.339.627-.193.045-.286.354-.144.47.461.376.453.908.585,1.426a14.372,14.372,0,0,1,.207,2.108c.03.278-.062.376-.347.469-.475.153-.956-.026-1.419.13a3.054,3.054,0,0,0-.553.294.243.243,0,0,0-.117.29c.193.647-.2,1.06-.56,1.493a1.194,1.194,0,0,1-.669.422,2.873,2.873,0,0,0-1.535,1.242,3.231,3.231,0,0,1-1.01.955c-.406.211-.646.623-1.02.875a1.96,1.96,0,0,0-.781.884.614.614,0,0,1-.37.333c-.055.02-.13.038-.154.081-.207.361-.6.354-.925.478-.1.037-.189.051-.225.167a.452.452,0,0,1-.474.3.819.819,0,0,0-.764,1.086,6.749,6.749,0,0,1,.169,2.295,2.431,2.431,0,0,1-.431,1.215,1.243,1.243,0,0,0-.236.58,5.116,5.116,0,0,0,.008,1.418.631.631,0,0,1-.479.787,1.211,1.211,0,0,0-.74,1.054.524.524,0,0,1-.565.527.481.481,0,0,0-.518.387,1.556,1.556,0,0,1-1,.926c-.214.078-.359-.126-.518-.245a4.33,4.33,0,0,1-1.071-1.564,1.815,1.815,0,0,1-.219-.9,4.257,4.257,0,0,0-.569-1.833,10.141,10.141,0,0,1-.958-2.024,7.478,7.478,0,0,1-.176-1.247,2.673,2.673,0,0,0-.273-.825,6.657,6.657,0,0,0-.58-1.142c-.128-.211-.058-.51-.2-.748a8.275,8.275,0,0,0-.463-.907.486.486,0,0,1-.06-.294c-.01-.325-.039-.65-.023-.974a3.8,3.8,0,0,0-.361-1.432.449.449,0,0,1-.006-.354,1.191,1.191,0,0,0-.018-.982,2.021,2.021,0,0,1,0-1.064c.075-.4.372-.806.1-1.272-.146-.25-.333-.268-.485-.16a1.464,1.464,0,0,1-.6.227c-.6.112-1.224.293-1.768-.193-.03-.026-.077-.045-.089-.079-.235-.582-.829-.906-1.052-1.495a1.013,1.013,0,0,0-.153-.222.351.351,0,0,1-.028-.45c.247-.287.078-.518-.111-.683-.228-.2-.4-.453-.611-.664-.2-.193-.123-.481-.083-.721.033-.191.229-.2.393-.2a.412.412,0,0,0,.316-.148.661.661,0,0,1,.682-.2c.216.044.433.071.649.115a.8.8,0,0,0,.529-.03,1.574,1.574,0,0,1,.518-.135c.366-.044.489-.326.329-.666a3.079,3.079,0,0,0-.69-.972.412.412,0,0,1-.1-.588c.168-.27-.116-.365-.266-.437-.389-.189-.525-.4-.339-.768a2.9,2.9,0,0,1,1.114-1.152.475.475,0,0,1,.409-.005,1.359,1.359,0,0,0,1.866-.591,1.757,1.757,0,0,1,.622-.476,1.323,1.323,0,0,0,.663-.87.7.7,0,0,1,.357-.508.759.759,0,0,0,.407-.382,12.306,12.306,0,0,0,.622-1.321,1.183,1.183,0,0,1,.343-.727c.207-.182.01-.646-.306-.745a.6.6,0,0,1-.319-.248,1.265,1.265,0,0,0-.339-.38.283.283,0,0,1-.116-.169,5.52,5.52,0,0,1-.214-1.891.542.542,0,0,1,.2-.292c.4-.412.42-.562.02-.971-.188-.191-.356-.432-.68-.451a.354.354,0,0,1-.311-.329.423.423,0,0,1,.146-.456,4.289,4.289,0,0,1,1.256-.837,3.169,3.169,0,0,1,1.97.04.7.7,0,0,1,.406.385.554.554,0,0,0,.311.307c.356.129.562.436.847.638.318.226.57.679,1.084.5a.866.866,0,0,0,.267-.114,1.5,1.5,0,0,1,1.13-.257,3.125,3.125,0,0,1,.6.259c.155.061.324.082.432.239.147.211.331.4.149.7-.1.168.01.422-.141.58-.348.375-.573.863-1.046,1.126a.414.414,0,0,0-.118.721,1.082,1.082,0,0,1-.023,1.465.853.853,0,0,0-.132,1.16,1.789,1.789,0,0,1,.207.719.485.485,0,0,0,.174.365,10.776,10.776,0,0,0,.906.861c.379.274.145.5.069.7a1.877,1.877,0,0,0-.1.653c0,.242.2.316.369.382a1.29,1.29,0,0,1,.4.257,2.641,2.641,0,0,0,1.2.724c.224.04.4.243.608.359a2.374,2.374,0,0,0,1.434.281,1.313,1.313,0,0,1,1.026.338,1.438,1.438,0,0,0,.943.392c.233,0,.4.2.622.257a.868.868,0,0,0,.375.077,2.438,2.438,0,0,1,1.176.211c.125.038.248.105.222.241s-.178.133-.28.116a11.106,11.106,0,0,1-1.53-.2c-.32-.1-.649-.18-.974-.266a1.863,1.863,0,0,1-.854-.469c-.218-.211-.434-.406-.751-.16a.2.2,0,0,1-.171.025,6,6,0,0,1-1.623-.544.738.738,0,0,0-.423-.134.53.53,0,0,1-.361-.158,9.119,9.119,0,0,0-1.4-1.021.766.766,0,0,1-.311-1.091c.063-.149.117-.3.194-.445a.288.288,0,0,0-.137-.429,3.938,3.938,0,0,1-1.194-1.341,16.061,16.061,0,0,1-.689-1.821c-.094-.188-.092-.4.221-.433a1.427,1.427,0,0,1,.473-.037c.162.037.245-.067.317-.177s-.043-.192-.1-.249a1.267,1.267,0,0,1-.461-1,.568.568,0,0,1,.27-.563,3.736,3.736,0,0,0,1.015-1.107.651.651,0,0,0,.1-.713.766.766,0,0,0-.7-.316,1.758,1.758,0,0,0-1.282.371.5.5,0,0,1-.518,0,5.72,5.72,0,0,0-.855-.431c-.151-.04-.164-.225-.207-.351a.678.678,0,0,0-.487-.444,1.024,1.024,0,0,1-.7-.557,1.153,1.153,0,0,0-1.216-.308,2.523,2.523,0,0,1-.942.347.337.337,0,0,0-.311.285.513.513,0,0,0,.268.568,1.4,1.4,0,0,1,.6.688.728.728,0,0,1-.3,1.1.532.532,0,0,0-.215.633,1.555,1.555,0,0,1,.12.619.927.927,0,0,0,.667.926c.336.116.489.437.726.659.54.5.538.558-.127.873a.675.675,0,0,0-.437.836.583.583,0,0,1-.2.543c-.207.2-.329.509-.533.683a13.665,13.665,0,0,0-1.291,1.74c-.027.031-.057.08-.086.081-.457.017-.656.4-.928.675a.569.569,0,0,0-.348.255c-.33.407-.819.38-1.244.515a.325.325,0,0,1-.2-.032C349.113,197.857,349.1,197.859,348.787,198.249Zm26.539,6.737a3.9,3.9,0,0,0,.263-1.355c-.063-.481.091-.606.566-.654a.561.561,0,0,0,.56-.413,4.819,4.819,0,0,0,.293-1.165,1.1,1.1,0,0,1,.217-.623,1.1,1.1,0,0,0,.19-.589c.045-.407-.011-.9.426-1.113.3-.143.491-.4.778-.539a2.1,2.1,0,0,0,.976-.806c.148-.252.163-.328-.092-.468a.613.613,0,0,0-.373-.066c-.432.04-.57-.053-.726-.461-.043-.114-.065-.235-.1-.349-.049-.14-.161-.265-.288-.157a1.345,1.345,0,0,1-1.089.19.559.559,0,0,0-.556.26c-.094.13-.173.29-.345.316a.916.916,0,0,0-.562.374,3.761,3.761,0,0,1-1.022.876c-.1.057-.294.141-.224.279.159.3,0,.557-.053.834-.052.251-.207.415-.429.368-.511-.105-.991.194-1.5.065a.723.723,0,0,0-.611.271c-.138.132.048.27.1.4a.506.506,0,0,1,.024.119c.091.68.151.75.812.855a2.225,2.225,0,0,0,.415,0c.389-.015.777-.044,1.167-.046a.6.6,0,0,1,.573.9c-.114.247-.26.478-.385.719-.063.123-.1.257.072.33a.874.874,0,0,1,.518.795A1.8,1.8,0,0,0,375.326,204.986Z" transform="translate(-328.301 -170.047)" fill="#0e0e6d"/>
    <path id="Path_9164" data-name="Path 9164" d="M408.763,290.923a1.589,1.589,0,0,1,.764.079.325.325,0,0,0,.233.006c.335-.163.711-.079,1.054-.2.166-.058.325.069.489.1.1.017.2.073.291.041.286-.1.374.07.457.3.038.105.043.179-.053.227a.561.561,0,0,0-.291.5c-.02.206-.125.248-.281.157-.285-.164-.632-.147-.908-.336a.219.219,0,0,0-.173-.01,4.774,4.774,0,0,1-1.3.141.489.489,0,0,1-.256-.055,1.123,1.123,0,0,0-.684-.154.791.791,0,0,1-.59-.153c-.37-.246-.459-.177-.583.229a1.275,1.275,0,0,0,.094.907.6.6,0,0,1-.092.75.241.241,0,0,0-.1.211c.113.589-.383.9-.6,1.33-.068.133-.1.2-.009.3a.612.612,0,0,1,.072.1c.05.095.158.206.085.3s-.217.056-.333,0c-.622-.284-.949-.016-1.3.376a6.717,6.717,0,0,0-1.208,2.782,4.732,4.732,0,0,1-.263,1.085c-.037.065-.055.179-.157.151s-.081-.126-.091-.211a3.183,3.183,0,0,1,.222-1.218,2.184,2.184,0,0,0,.1-.743,1.491,1.491,0,0,1,.363-1.209.708.708,0,0,0,.121-.791.478.478,0,0,1,.311-.7,2.064,2.064,0,0,1,.708-.2c.322-.021.5-.285.628-.547.09-.178-.018-.28-.207-.234a1.116,1.116,0,0,0-.468.192c-.2.16-.372.114-.405-.13a.759.759,0,0,0-.43-.579c-.06-.034-.14-.071-.162-.127-.186-.476-.405-.937-.59-1.412a3.161,3.161,0,0,0-.217-.522c-.141-.23-.254-.14-.352.026-.082.139-.137.293-.212.436-.189.358-.383.376-.767.288s-.708-.363-1.1-.428c-.294-.047-.379-.343-.59-.491a5.083,5.083,0,0,0-.643-.441.2.2,0,0,1-.123-.107.2.2,0,0,1,0-.165c.052-.129.159-.08.257-.055a1.253,1.253,0,0,1,.7.377.957.957,0,0,0,1.092.274c.088-.026.179-.05.178-.17a3.329,3.329,0,0,1,.345-1.168A2.078,2.078,0,0,1,403,288.86a.421.421,0,0,0,.311-.416c-.007-.5.212-.969.207-1.476a.376.376,0,0,1,.279-.363,5.227,5.227,0,0,1,1.074-.248.415.415,0,0,1,.434.306,1.167,1.167,0,0,0,.476.566.532.532,0,0,1,.218.731,1.568,1.568,0,0,0-.109.861.625.625,0,0,0,.622.552.245.245,0,0,1,.183.09,3.1,3.1,0,0,1,.428.581A1.423,1.423,0,0,0,408.763,290.923Zm-3.363,1.37a1.219,1.219,0,0,0-.428.284c-.176.156-.1.26.074.337a.357.357,0,0,0,.366-.057c.27-.186.541-.369.812-.552.113-.076.207-.233.052-.269-.278-.065-.329-.258-.393-.471-.031-.105-.081-.191-.207-.176a.228.228,0,0,0-.223.211c-.013.086.009.211-.1.23s-.207-.074-.27-.159a.89.89,0,0,0-.476-.4c-.162-.04-.3-.076-.375-.25a.181.181,0,0,0-.228-.1.21.21,0,0,0-.135.187,3.582,3.582,0,0,1-.1.473c-.116.331.083.515.3.686a.493.493,0,0,0,.635.028.668.668,0,0,1,.7,0Zm-.933-2.62c.189.019.362-.021.374-.245a2.943,2.943,0,0,1,.112-.651.5.5,0,0,0-.232-.551c-.174-.13-.294.026-.428.105-.065.039-.13.118-.214.061-.237-.157-.3.044-.367.192a1.762,1.762,0,0,0,.207.974.358.358,0,0,0,.162.063c.126.028.256.039.382.055Zm-1.663.521a.41.41,0,0,0-.372-.452c-.136-.025-.194.061-.192.2,0,.206.217.538.365.537C402.8,290.474,402.772,290.3,402.8,290.194Zm3.655,2.727c-.178.01-.359.033-.385.248-.019.155.125.157.231.154.193-.006.365-.084.383-.3.005-.139-.152-.091-.234-.106Z" transform="translate(-376.149 -260.185)" fill="#b5222a"/>
    <path id="Path_9165" data-name="Path 9165" d="M458.488,383.087c-.019.12.056.287-.1.37a.532.532,0,0,1-.489-.041.717.717,0,0,1-.281-.309.343.343,0,0,0-.361-.211.312.312,0,0,1-.176-.023c-.643-.347-1.108-.005-1.588.383s-.96.724-1.458,1.059a.855.855,0,0,1-1.018-.145,14.728,14.728,0,0,1-1.407-1.687.622.622,0,0,0-.933-.178c-.122.066-.231.16-.356.222-.088.044-.207.072-.26-.051a.2.2,0,0,1,.088-.264c.551-.243.974-.7,1.523-.949.231-.105.25.033.229.19a1.093,1.093,0,0,0,.518,1.026c.1.091.2.2.3.293.12.105.238.211.424.113.163-.083.243.008.311.17.18.435.207.422.622.234a2.118,2.118,0,0,0,.68-.48.807.807,0,0,1,.472-.237,2.62,2.62,0,0,0,.736-.392.13.13,0,0,0,.069-.079.133.133,0,0,0-.011-.1c-.034-.067-.1-.059-.158-.044a1.563,1.563,0,0,0-.373.105c-.1.057-.156.045-.215-.05-.07-.112,0-.168.076-.221a.542.542,0,0,1,.153-.1.919.919,0,0,0,.607-.527c.145-.286.341-.241.557-.016a2.392,2.392,0,0,0,1.064.833A1.151,1.151,0,0,1,458.488,383.087Z" transform="translate(-421.72 -344.821)" fill="#b5222a"/>
    <path id="Path_9166" data-name="Path 9166" d="M416.566,418.63a.948.948,0,0,1,.143.663c0,.429.1.5.475.316.172-.081.221-.04.207.132a.774.774,0,0,1-.057.265,2.169,2.169,0,0,0-.258.98c0,.157-.11.211-.24.211-.223.008-.3.093-.169.3s.029.269-.161.3a1.419,1.419,0,0,1-.839-.147,2.862,2.862,0,0,1-1.106-.748c-.115-.14-.245-.307-.13-.491s.319-.173.513-.133.369.076.555.105.486-.276.622-.465A4,4,0,0,0,416.566,418.63Z" transform="translate(-389.765 -378.516)" fill="#b5222a"/>
    <path id="Path_9167" data-name="Path 9167" d="M389.228,326.731a1.122,1.122,0,0,1-.792-.287,4.66,4.66,0,0,1-1.111-1.212.634.634,0,0,1,0-.708c.164-.234.439-.131.67-.141.079,0,.1.086.118.156.015.091-.054.112-.124.138-.355.127-.392.211-.167.527a2.95,2.95,0,0,0,1.471,1.07c.137.047.37.014.34.251C389.6,326.781,389.371,326.714,389.228,326.731Z" transform="translate(-365.411 -294.191)" fill="#b5222a"/>
    <path id="Path_9168" data-name="Path 9168" d="M374.49,297.65c.311-.39.326-.392.786-.2a.325.325,0,0,0,.2.032c.428-.136.917-.105,1.244-.515a.565.565,0,0,1,.348-.255c.017.02.048.058.047.058-.22.2-.393.485-.688.545a5.409,5.409,0,0,1-.98.263.42.42,0,0,1-.259-.041.416.416,0,0,0-.642.124c-.005.007-.018.018-.023.016A.134.134,0,0,1,374.49,297.65Z" transform="translate(-354.003 -269.448)" fill="#b5222a"/>
    <path id="Path_9169" data-name="Path 9169" d="M471.752,375.46c-.011.158-.137.16-.25.1a1.1,1.1,0,0,0-.391-.124c-.146-.022-.372-.449-.319-.584a.152.152,0,0,1,.078-.079C471.173,374.658,471.745,375.088,471.752,375.46Z" transform="translate(-440.315 -339.264)" fill="#b5222a"/>
    <path id="Path_9170" data-name="Path 9170" d="M443.948,413.049a.418.418,0,0,1-.059-.4,5.436,5.436,0,0,0,.151-.681.219.219,0,0,1,.089-.155.212.212,0,0,1,.173-.035c.143.021.128.139.116.261A2.355,2.355,0,0,1,443.948,413.049Z" transform="translate(-416.185 -372.384)" fill="#b5222a"/>
    <path id="Path_9171" data-name="Path 9171" d="M415.347,307.934a.331.331,0,0,1-.207.361.286.286,0,0,1-.355-.073.211.211,0,0,1-.1-.147.214.214,0,0,1,.048-.169c.041-.058.084-.115.126-.171.071-.093.045-.3.237-.245a.361.361,0,0,1,.245.38A.15.15,0,0,0,415.347,307.934Z" transform="translate(-390.034 -279.084)" fill="#b5222a"/>
    <path id="Path_9172" data-name="Path 9172" d="M485.974,392.491a.184.184,0,0,1-.2-.139.223.223,0,0,1,.112-.283,3.017,3.017,0,0,1,.586-.2c.161-.038.207.1.136.2A1.447,1.447,0,0,1,485.974,392.491Z" transform="translate(-453.741 -354.567)" fill="#b5222a"/>
    <path id="Path_9173" data-name="Path 9173" d="M369.94,345.933a.752.752,0,0,1,.655-.125,2.058,2.058,0,0,0,.442,0,.206.206,0,0,1-.256.105A2.615,2.615,0,0,0,369.94,345.933Z" transform="translate(-349.925 -313.345)" fill="#b5222a"/>
    <path id="Path_9174" data-name="Path 9174" d="M480.706,385.878c-.005.072-.008.2-.07.166a.624.624,0,0,1-.319-.436c-.012-.081.017-.18.12-.163C480.682,385.484,480.684,385.694,480.706,385.878Z" transform="translate(-448.857 -348.826)" fill="#b5222a"/>
    <path id="Path_9175" data-name="Path 9175" d="M450.279,403.389c-.013.088.014.2-.1.183-.094-.009-.109-.105-.1-.186s0-.187.1-.188C450.29,403.2,450.257,403.324,450.279,403.389Z" transform="translate(-421.749 -364.712)" fill="#b5222a"/>
    <path id="Path_9176" data-name="Path 9176" d="M370.631,309.226c-.246-.04-.288-.177-.179-.386Z" transform="translate(-350.333 -280.299)" fill="#b5222a"/>
    <path id="Path_9177" data-name="Path 9177" d="M376.424,323.053a.4.4,0,0,1-.216-.363C376.282,322.81,376.405,322.9,376.424,323.053Z" transform="translate(-355.543 -292.689)" fill="#b5222a"/>
    <path id="Path_9178" data-name="Path 9178" d="M353.94,347.632c0-.16.118-.225.231-.292A.324.324,0,0,1,353.94,347.632Z" transform="translate(-335.584 -314.741)" fill="#b5222a"/>
    <path id="Path_9179" data-name="Path 9179" d="M380.012,327.932c-.146-.026-.119-.154-.142-.252A.292.292,0,0,1,380.012,327.932Z" transform="translate(-358.826 -297.153)" fill="#b5222a"/>
    <path id="Path_9180" data-name="Path 9180" d="M375.018,314.051c-.024-.116-.122-.2-.113-.331.161.047.093.2.139.3v.028Z" transform="translate(-354.375 -284.665)" fill="#b5222a"/>
    <path id="Path_9181" data-name="Path 9181" d="M364.11,346.05c.109.006.225-.005.281.124C364.264,346.208,364.187,346.13,364.11,346.05Z" transform="translate(-344.7 -313.587)" fill="#b5222a"/>
    <path id="Path_9182" data-name="Path 9182" d="M382.256,332.115a.27.27,0,0,1-.1-.255.191.191,0,0,1,.1.107A.2.2,0,0,1,382.256,332.115Z" transform="translate(-360.874 -300.893)" fill="#b5222a"/>
    <path id="Path_9183" data-name="Path 9183" d="M358.31,345.321c.049-.082.1-.076.154-.005a.093.093,0,0,1-.154.005Z" transform="translate(-339.501 -312.881)" fill="#b5222a"/>
    <path id="Path_9184" data-name="Path 9184" d="M381.963,344.359c-.017-.082.015-.12.1-.105C382.067,344.329,382.048,344.377,381.963,344.359Z" transform="translate(-360.698 -311.977)" fill="#b5222a"/>
  </g>
</svg>
