<svg xmlns="http://www.w3.org/2000/svg" width="34.79" height="40" viewBox="0 0 34.79 40">
  <g id="Athletes" transform="translate(-0.017)">
    <path id="Path_1367" data-name="Path 1367" d="M109.169,110.791l2.8,1.015c.992.362,1.993.716,2.986,1.083a2.238,2.238,0,0,1,1.646,2.038,2.75,2.75,0,0,1-.6,1.878L109.851,125c-.208.278-.408.564-.63.832a2,2,0,0,1-2.046.818,1.723,1.723,0,0,1-1.29-2.18,3.266,3.266,0,0,1,.433-.913c1.487-2.241,3-4.473,4.5-6.709.055-.079.105-.16.177-.269-.316-.09-.607-.175-.9-.257l-6.283-1.755a2.6,2.6,0,0,1-2.072-2.154,3.652,3.652,0,0,1,.41-2.3q1.735-3.415,3.478-6.831c.061-.124.124-.24.195-.39-.547-.073-1.056-.144-1.565-.211-1.171-.152-2.341-.307-3.513-.451a.868.868,0,0,0-.439.063q-2.652,1.164-5.3,2.344a2.021,2.021,0,0,1-1.273.19,1.427,1.427,0,0,1-.868-2.274,2.206,2.206,0,0,1,.693-.59c2.017-1.082,4.043-2.144,6.073-3.21a2.812,2.812,0,0,1,1.563-.229c2.435.176,4.872.346,7.313.528a21.887,21.887,0,0,1,2.386.248,4.71,4.71,0,0,1,2.618,1.481,3.264,3.264,0,0,1,.352,4.25c-.523.765-1.148,1.461-1.735,2.181-.912,1.115-1.832,2.221-2.749,3.332Z" transform="translate(-90.918 -91.561)" fill="#fff"/>
    <path id="Path_1368" data-name="Path 1368" d="M93.978,223.486c-.139.354-.271.692-.4,1.029-.645,1.648-1.3,3.293-1.927,4.948a3.9,3.9,0,0,1-1.115,1.582c-1.106.97-2.17,1.983-3.251,2.988l-4.562,4.214a2.361,2.361,0,0,1-1.414.684A1.744,1.744,0,0,1,79.52,236.5a2.927,2.927,0,0,1,.6-.868c2.269-2.355,4.552-4.69,6.827-7.038a1.093,1.093,0,0,0,.248-.428q1.06-3.441,2.107-6.888c.021-.068.043-.138.068-.214.024.016.051.024.059.041a3.179,3.179,0,0,0,2.113,1.686c.729.209,1.461.411,2.193.62A2.252,2.252,0,0,1,93.978,223.486Z" transform="translate(-79.36 -198.94)" fill="#fff"/>
    <path id="Path_1369" data-name="Path 1369" d="M249.794,50.651a4.065,4.065,0,1,1,4.067-4.055A4.065,4.065,0,0,1,249.794,50.651Z" transform="translate(-225.095 -42.52)" fill="#fff"/>
    <path id="Path_1370" data-name="Path 1370" d="M264.14,135.2a4.994,4.994,0,0,0,1.562-4.039l3.2,3.1.248-.145q2.148-1.3,4.295-2.6a1.959,1.959,0,0,1,1.334-.341,1.427,1.427,0,0,1,1.025,2.194,2.468,2.468,0,0,1-.653.669c-1.818,1.3-3.651,2.568-5.473,3.857a1.857,1.857,0,0,1-2.121.1,2.555,2.555,0,0,1-.42-.285q-1.44-1.208-2.876-2.426C264.223,135.258,264.188,135.235,264.14,135.2Z" transform="translate(-241.223 -120.167)" fill="#fff"/>
  </g>
</svg>
