<svg xmlns="http://www.w3.org/2000/svg" width="54.404" height="66.526" viewBox="0 0 54.404 66.526">
  <g id="Athletics_Federation_of_India" data-name="Athletics Federation  of India" transform="translate(0)">
    <path id="Path_10714" data-name="Path 10714" d="M219.415,25.676c15.165-.158,27.189,12.278,27.472,27.011.3,15.651-12.136,28.177-27.055,28.214a26.147,26.147,0,0,1-18.691-7.48,27.479,27.479,0,0,1-8.65-19.607C192.3,38.118,204.683,25.806,219.415,25.676ZM201.1,35.594c-.174.041-.24.2-.341.323-.365.434-.75.85-1.091,1.306-.3.4-.613.806-.9,1.223-.274.4-.543.8-.791,1.22s-.508.8-.717,1.221-.427.831-.622,1.258c-.207.451-.414.9-.6,1.363-.248.607-.459,1.227-.656,1.853-.125.4-.23.8-.35,1.2-.127.425-.219.857-.311,1.287a8.081,8.081,0,0,0-.169.837c-.054.536-.168,1.062-.222,1.6-.054.558-.126,1.117-.14,1.676a30.411,30.411,0,0,0,.057,3.511c.042.446.073.891.14,1.337.085.565.172,1.13.292,1.689.129.609.262,1.217.44,1.812.132.443.241.891.408,1.328.148.385.267.783.424,1.166.14.341.292.679.42,1.025.147.4.36.767.532,1.155.135.3.315.594.475.885a8.513,8.513,0,0,0,.429.775c.142.207.271.424.4.636.206.33.423.651.642.972.266.389.562.757.85,1.131a18.431,18.431,0,0,0,1.423,1.666c.357.367.714.734,1.079,1.094.258.254.544.481.787.747.135.147.3.244.444.376.248.229.525.425.792.632.338.261.661.548,1.02.774.323.2.635.421.963.618.6.363,1.2.742,1.826,1.067.647.334,1.3.648,1.976.926a14.939,14.939,0,0,0,1.907.7c.254.068.5.181.751.249.556.147,1.111.3,1.673.414s1.106.206,1.66.3c.573.1,1.149.144,1.725.209.433.049.876.047,1.307.062.536.02,1.071.01,1.611-.014.708-.033,1.409-.1,2.113-.169.518-.05,1.027-.148,1.538-.23a18.429,18.429,0,0,0,1.934-.447q.863-.231,1.708-.517c.607-.206,1.194-.461,1.785-.706a7.991,7.991,0,0,0,.757-.319c.527-.284,1.076-.526,1.587-.841.371-.228.749-.44,1.117-.671.314-.2.621-.407.926-.617.261-.178.523-.358.773-.548.5-.38.967-.8,1.46-1.194.176-.143.333-.307.52-.44.125-.089.216-.25.342-.359a14.317,14.317,0,0,0,1.265-1.287q.618-.687,1.191-1.418c.328-.417.658-.833.953-1.273.408-.61.819-1.218,1.168-1.868.241-.451.509-.891.733-1.351.3-.616.584-1.239.838-1.88.235-.594.469-1.188.657-1.8.212-.693.422-1.38.568-2.088.087-.417.215-.826.269-1.247.083-.644.2-1.287.259-1.933.053-.626.107-1.253.142-1.88.043-.765,0-1.533-.031-2.3-.007-.172-.018-.347-.036-.521-.055-.508-.081-1.017-.16-1.522-.064-.41-.112-.822-.195-1.228-.1-.517-.214-1.03-.334-1.543-.1-.426-.217-.844-.334-1.264-.127-.451-.292-.891-.446-1.336-.228-.657-.513-1.287-.779-1.927-.2-.476-.455-.929-.689-1.391a7.969,7.969,0,0,0-.416-.783c-.149-.229-.287-.464-.43-.693-.21-.341-.422-.681-.644-1.015-.138-.209-.316-.4-.439-.609a7.576,7.576,0,0,0-.755-1.005c-.231-.288-.468-.579-.728-.846-.319-.328-.6-.693-.92-1.018-.374-.383-.763-.749-1.156-1.11-.369-.336-.745-.665-1.131-.981-.361-.3-.731-.581-1.111-.847-.3-.21-.584-.447-.9-.634-.367-.218-.719-.462-1.084-.684-.324-.2-.649-.4-.989-.56-.283-.137-.558-.291-.843-.424-.255-.118-.5-.263-.761-.365-.487-.193-.973-.41-1.47-.588-.461-.165-.92-.345-1.388-.483-.639-.188-1.284-.363-1.936-.5-.816-.175-1.635-.319-2.464-.415-.763-.088-1.528-.145-2.294-.185a20.158,20.158,0,0,0-2.06.031,2.15,2.15,0,0,0-.342.016c-.342.078-.692.058-1.036.112-.479.074-.973.088-1.442.188-.533.113-1.076.177-1.6.331-.455.133-.925.225-1.376.37-.47.151-.946.284-1.409.462-.566.217-1.142.415-1.69.673-.447.208-.9.409-1.33.654-.46.263-.931.508-1.386.785-.75.458-1.481.946-2.188,1.474-.6.447-1.173.931-1.735,1.426s-1.079,1.033-1.59,1.575c-.041.043-.1.076-.091.151Z" transform="translate(-192.488 -25.675)" fill="#ea353a"/>
    <path id="Path_10715" data-name="Path 10715" d="M327.22,604.52a1.081,1.081,0,0,1,.876.516c.1.141.166.141.26.013l.013-.011c.313-.3.27-.45-.073-.733a1.585,1.585,0,0,0-1.2-.3,1.681,1.681,0,0,0-.618.18c-.046.023-.107.077-.151.026s0-.119.028-.172a1.558,1.558,0,0,1,1.613-1.031,3.905,3.905,0,0,1,1.3.294,1.347,1.347,0,0,1,.87,1.276c.055.78.148,1.558.229,2.336.1.935.195,1.869.3,2.8a.519.519,0,0,0,.4.464,1.123,1.123,0,0,0,.163.031c.067.008.121.035.132.106s-.03.1-.08.136c-.271.176-.539.354-.809.531-.1.067-.2.137-.306.2a.211.211,0,0,1-.248-.007,1.74,1.74,0,0,1-.755-1.144,7.913,7.913,0,0,1-.195-1.351.177.177,0,0,0-.139-.181q-1.182-.365-2.364-.737a.172.172,0,0,0-.218.059,2.684,2.684,0,0,1-.238.258c-.085.082-.06.134.037.17a2.729,2.729,0,0,1,.564.279,1.7,1.7,0,0,1,.244.2c.195.189.195.2.428.047.116-.074.195-.065.252.063a.121.121,0,0,1,.012.1.118.118,0,0,1-.064.073c-.461.291-.919.587-1.377.881a.192.192,0,0,1-.241-.02,4.067,4.067,0,0,0-1.14-.643,1.568,1.568,0,0,0-1.1-.024c-.034.013-.073.048-.1,0a.1.1,0,0,1,0-.079,1.462,1.462,0,0,1,1.156-1.042,1.664,1.664,0,0,1,.658.067.223.223,0,0,0,.25-.074q.79-.879,1.583-1.755a.219.219,0,0,0,.035-.291,1.151,1.151,0,0,0-1.321-.327c-.026.019-.054.039-.08.059-.053.045-.1.142-.171.1s-.007-.126.006-.187a1.314,1.314,0,0,1,.569-.82A1.67,1.67,0,0,1,327.22,604.52Zm1.7,2.8c-.085-.664-.162-1.286-.244-1.913-.007-.056.019-.146-.052-.162s-.1.065-.137.109c-.225.241-.447.484-.67.726-.195.21-.389.417-.578.629-.044.049-.14.127,0,.173.515.168,1.032.331,1.549.495C328.862,607.4,328.916,607.376,328.916,607.318Z" transform="translate(-310.765 -545.873)" fill="#e93a3e"/>
    <path id="Path_10716" data-name="Path 10716" d="M433.21,627.494a.914.914,0,0,1,.165-1.089,1.951,1.951,0,0,1,1.085-.617,1.484,1.484,0,0,1,.947.252,9.367,9.367,0,0,0,1.148.6,1.179,1.179,0,0,0,.734.025.637.637,0,0,0,.449-.642c0-.676,0-1.352-.024-2.028-.019-.6-.019-1.206-.038-1.809a1.547,1.547,0,0,1,.378-1.132,4.679,4.679,0,0,1,.906-.909,3.457,3.457,0,0,1,.735-.3c.071-.026.125.012.183.05a3.25,3.25,0,0,0,.521.327.46.46,0,0,0,.584-.143c.031-.038.05-.1.114-.075s.07.078.084.134a1,1,0,0,1-.593,1.141.4.4,0,0,0-.274.438c.034,1.527.052,3.055.075,4.582,0,.078.012.157.012.235,0,.117-.053.167-.175.166s-.149-.046-.15-.161c-.008-.755-.021-1.51-.034-2.265,0-.244-.007-.249-.241-.244-.177,0-.354.017-.531.02-.117,0-.153.06-.15.171.012.377.01.755.029,1.132a1.3,1.3,0,0,1-.669,1.216,6.541,6.541,0,0,1-2.273.95,2.423,2.423,0,0,1-1.434-.162l-.707-.29a.53.53,0,0,0-.746.258Zm5.85-5.548h.027v.792c0,.113.046.15.15.148.21-.006.42-.01.632-.007.114,0,.158-.046.155-.162-.008-.366-.014-.732-.012-1.1,0-.126-.041-.184-.163-.2a1.087,1.087,0,0,1-.663-.318c-.023-.025-.053-.049-.088-.035s-.036.065-.036.1Z" transform="translate(-409.684 -561.034)" fill="#e93a3e"/>
    <path id="Path_10717" data-name="Path 10717" d="M532.365,611.753a1.121,1.121,0,0,0-.4.062c-.035.012-.082.026-.111-.007s0-.074.015-.109a1.094,1.094,0,0,1,.839-.693,1.48,1.48,0,0,1,1.145.12.165.165,0,0,0,.132.029.168.168,0,0,0,.11-.08,1.872,1.872,0,0,1,.653-.561,1.328,1.328,0,0,1,.629-.127.414.414,0,0,1,.17.061c.084.046.11.091.016.157a.435.435,0,0,0-.2.559c.162.489.269,1,.4,1.5.034.131.072.26.105.4.025.1.079.116.173.083.13-.045.267-.072.4-.111.113-.033.174,0,.2.123.069.289.147.576.228.863.027.1.007.151-.091.176-.139.035-.277.079-.418.107-.123.025-.156.09-.126.2l.263.99c.1.386.211.769.3,1.157.04.168.1.281.292.283a2.38,2.38,0,0,1,.243.049c.152.017.132.082.056.17a1.179,1.179,0,0,1-1.022.377,1.591,1.591,0,0,1-.532-.123.174.174,0,0,0-.236.071,1.776,1.776,0,0,1-1.39.715.736.736,0,0,1-.487-.261c-.069-.062,0-.1.05-.119a1.675,1.675,0,0,0,.37-.189.946.946,0,0,0,.3-1.052c-.112-.495-.258-.978-.38-1.469-.031-.123-.087-.151-.2-.131a.577.577,0,0,0-.51.567c0,.1-.056.091-.1.063a.7.7,0,0,1-.38-.48,2.225,2.225,0,0,1-.057-.417.9.9,0,0,1,.618-.835c.268-.115.28-.111.2-.4a9.206,9.206,0,0,0-.308-1.1A.892.892,0,0,0,532.365,611.753Zm4.111,4.849c-.04-.153-.085-.334-.132-.513-.126-.472-.253-.943-.378-1.415l-.292-1.142c-.129-.495-.262-.99-.389-1.484q-.109-.416-.217-.831c-.026-.1-.085-.128-.145-.041a1.039,1.039,0,0,0-.21.451,2.505,2.505,0,0,0,.139.961c.231.911.478,1.816.708,2.726a2.408,2.408,0,0,0,.745,1.286.677.677,0,0,0,.106.08c.038.023.085.031.064-.076Z" transform="translate(-498.816 -552.521)" fill="#e93a3e"/>
    <path id="Path_10718" data-name="Path 10718" d="M448.68,639.132a.928.928,0,0,1,.709-.978,1.2,1.2,0,0,1,.21-.047c.13-.009.175-.072.185-.2a1.188,1.188,0,0,1,.659-.99,2.766,2.766,0,0,1,.744-.282c.035-.007.078-.037.108.005a.094.094,0,0,1-.012.11.887.887,0,0,0-.114.52c.013.867.028,1.735.039,2.6a1.107,1.107,0,0,1-.229.756,1.376,1.376,0,0,1-1.038.483c-.1,0-.124-.032-.116-.132.039-.512,0-1.024,0-1.536,0-.112-.065-.153-.172-.159a.632.632,0,0,0-.6.4c-.034.07-.034.2-.126.2s-.09-.129-.127-.2A1.819,1.819,0,0,1,448.68,639.132Z" transform="translate(-423.747 -576.16)" fill="#e93a3e"/>
    <path id="Path_10719" data-name="Path 10719" d="M444.783,622.268a3.076,3.076,0,0,1-1.011-.207,1.091,1.091,0,0,0-1.159.209.258.258,0,0,1-.055.038c-.036.02-.069.075-.115.038s-.016-.083,0-.127a1.888,1.888,0,0,1,1.085-1.306,2.015,2.015,0,0,1,1.538-.046,7.957,7.957,0,0,0,.828.245.885.885,0,0,0,.617-.129c.043-.022.084-.079.132-.038s.016.106-.006.156a1.838,1.838,0,0,1-1.035.99A1.89,1.89,0,0,1,444.783,622.268Z" transform="translate(-418.094 -561.847)" fill="#e93a3e"/>
    <path id="Path_10720" data-name="Path 10720" d="M597.283,658.337a1.39,1.39,0,0,1-.741,1.058,1.643,1.643,0,0,1-1.68.037c-.175-.092-.177-.136-.033-.276a4.369,4.369,0,0,0,.824-1.076.179.179,0,0,1,.267-.1,2.035,2.035,0,0,0,1.173.123C597.247,658.087,597.293,658.139,597.283,658.337Z" transform="translate(-555.58 -595.382)" fill="#e93a3e"/>
    <path id="Path_10721" data-name="Path 10721" d="M517.292,678.867a1.693,1.693,0,0,1-1.022-.425c-.109-.091-.084-.148.015-.218a5.614,5.614,0,0,0,.663-.5c.145-.138.279-.287.414-.436a.159.159,0,0,1,.253-.029,2.22,2.22,0,0,0,1.11.355c.205.023.216.057.161.258A1.579,1.579,0,0,1,517.292,678.867Z" transform="translate(-484.695 -612.727)" fill="#e93a3e"/>
    <path id="Path_10722" data-name="Path 10722" d="M405.764,677.1a1.61,1.61,0,0,1-1.435-.772c-.113-.169-.1-.2.1-.258a4.858,4.858,0,0,0,.762-.281c.162-.085.32-.179.473-.279a.167.167,0,0,1,.138-.044.169.169,0,0,1,.121.08,2.19,2.19,0,0,0,.956.672c.208.083.219.127.084.316A1.357,1.357,0,0,1,405.764,677.1Z" transform="translate(-383.647 -611.162)" fill="#e93a3e"/>
    <path id="Path_10723" data-name="Path 10723" d="M216.662,50.641c-.012-.075.05-.109.09-.151.516-.541,1.035-1.081,1.6-1.575s1.137-.979,1.737-1.43c.707-.527,1.437-1.015,2.188-1.474.454-.277.926-.522,1.386-.785.431-.245.884-.446,1.33-.654.549-.254,1.124-.452,1.69-.674.463-.178.939-.311,1.409-.462.452-.145.921-.238,1.376-.37.527-.153,1.071-.218,1.6-.331.473-.1.963-.114,1.442-.188.344-.053.694-.034,1.036-.112a2.15,2.15,0,0,1,.342-.016,20.156,20.156,0,0,1,2.06-.031c.766.04,1.531.1,2.294.185.829.1,1.649.239,2.464.415.652.14,1.3.315,1.936.5.468.138.926.318,1.388.483.5.178.979.4,1.47.588.259.1.506.247.761.365.285.133.56.287.843.424.34.165.665.363.989.56.365.222.717.466,1.084.684.316.187.6.425.9.634.381.266.748.552,1.111.849.389.316.762.644,1.131.981.389.361.779.727,1.156,1.11.318.328.6.693.92,1.018.26.267.5.558.728.846a7.583,7.583,0,0,1,.75,1.02c.123.217.3.4.439.609.222.334.434.674.644,1.015.143.232.281.467.43.693a7.972,7.972,0,0,1,.416.783c.234.462.487.915.689,1.391.27.638.555,1.27.779,1.927.155.443.319.885.446,1.336.117.42.235.838.334,1.264.12.513.233,1.026.334,1.543.08.406.128.818.195,1.228.079.5.105,1.014.16,1.522.019.173.029.348.036.521.03.765.074,1.533.031,2.3-.035.626-.09,1.253-.142,1.88-.055.65-.176,1.287-.259,1.933-.054.421-.182.83-.269,1.247-.146.709-.356,1.4-.568,2.088-.188.611-.422,1.205-.657,1.8-.253.638-.538,1.262-.838,1.88-.224.46-.491.9-.733,1.351-.348.65-.76,1.259-1.168,1.868-.292.439-.625.856-.953,1.273q-.573.729-1.191,1.418a14.318,14.318,0,0,1-1.265,1.287c-.126.109-.217.27-.342.359-.187.134-.344.3-.52.44-.487.4-.958.814-1.46,1.194-.25.19-.512.37-.773.548-.306.21-.612.42-.926.617-.368.231-.746.443-1.117.671-.511.315-1.06.557-1.587.841a7.991,7.991,0,0,1-.757.319c-.591.244-1.178.495-1.785.706q-.845.286-1.708.517a18.432,18.432,0,0,1-1.934.447c-.511.081-1.02.179-1.538.23-.7.069-1.405.137-2.113.169-.537.024-1.071.034-1.611.014-.435-.016-.876-.013-1.307-.062-.57-.072-1.145-.121-1.72-.22-.555-.092-1.11-.181-1.66-.3s-1.117-.266-1.673-.414c-.254-.068-.5-.181-.751-.249a14.938,14.938,0,0,1-1.906-.7c-.672-.278-1.328-.594-1.976-.926-.628-.325-1.221-.7-1.826-1.067-.327-.2-.639-.416-.963-.618-.359-.226-.681-.513-1.02-.774-.267-.208-.544-.4-.792-.632-.142-.132-.309-.229-.444-.376-.243-.266-.529-.495-.787-.747-.365-.359-.722-.726-1.079-1.094a18.428,18.428,0,0,1-1.423-1.666c-.287-.374-.584-.742-.85-1.131-.219-.321-.436-.642-.642-.972-.132-.213-.261-.43-.4-.636a8.513,8.513,0,0,1-.429-.775c-.16-.3-.34-.58-.475-.885-.172-.388-.389-.755-.532-1.155-.127-.346-.28-.684-.42-1.025-.158-.383-.276-.781-.424-1.166-.166-.434-.275-.885-.408-1.328-.178-.594-.31-1.2-.44-1.812-.12-.559-.207-1.124-.292-1.689-.067-.442-.1-.891-.14-1.337a30.418,30.418,0,0,1-.057-3.511c.014-.559.086-1.118.14-1.676.054-.537.167-1.063.222-1.6a8.065,8.065,0,0,1,.169-.837c.1-.433.184-.866.311-1.287.121-.4.226-.806.35-1.2.195-.625.408-1.246.656-1.853.188-.46.389-.911.6-1.363.195-.427.414-.839.622-1.258s.476-.814.717-1.221.517-.821.791-1.22c.292-.418.6-.818.9-1.223.341-.456.726-.872,1.091-1.306.1-.12.166-.282.341-.323,0,.076-.059.117-.1.166-.167.187-.338.372-.5.564-.451.533-.885,1.08-1.3,1.644-.46.626-.887,1.278-1.288,1.945-.344.574-.657,1.17-.96,1.77-.389.776-.728,1.575-1.041,2.384-.266.686-.487,1.385-.691,2.093q-.207.721-.37,1.453c-.149.668-.266,1.344-.359,2.024a26.07,26.07,0,0,0,.073,7.785q.2,1.29.535,2.554a26.03,26.03,0,0,0,.978,2.952c.241.6.5,1.2.785,1.781A26.157,26.157,0,0,0,214.3,83a25.66,25.66,0,0,0,9.611,8.482,24.538,24.538,0,0,0,2.321,1.038q1.089.415,2.205.739.957.279,1.934.464c.647.125,1.3.233,1.946.307.634.072,1.265.135,1.9.153a26.437,26.437,0,0,0,3.552-.1c.809-.084,1.612-.21,2.412-.367A26.155,26.155,0,0,0,243,92.982c.665-.21,1.316-.463,1.96-.733.7-.3,1.38-.612,2.044-.967a25.962,25.962,0,0,0,2.707-1.667,24.992,24.992,0,0,0,2.552-2.046,27.166,27.166,0,0,0,2.126-2.182,26.566,26.566,0,0,0,1.887-2.459c.435-.637.829-1.3,1.207-1.974s.715-1.358,1.024-2.06a24.363,24.363,0,0,0,.96-2.512c.159-.5.322-1.005.447-1.517.209-.862.389-1.73.524-2.61a26.006,26.006,0,0,0,.278-3.022c.023-.693.014-1.4-.016-2.1-.036-.879-.125-1.751-.246-2.621a23.771,23.771,0,0,0-.48-2.464,26.9,26.9,0,0,0-.8-2.608c-.233-.644-.487-1.28-.767-1.9a24.968,24.968,0,0,0-1.4-2.637c-.372-.613-.763-1.211-1.182-1.792a26.22,26.22,0,0,0-2.686-3.167,25.343,25.343,0,0,0-6.436-4.712,24.341,24.341,0,0,0-3.854-1.583,24.74,24.74,0,0,0-3.781-.881,25.533,25.533,0,0,0-2.955-.283,24.3,24.3,0,0,0-3.071.087c-.871.082-1.733.209-2.594.369a24.876,24.876,0,0,0-3.315.878c-.5.168-1,.369-1.488.572a25.769,25.769,0,0,0-2.677,1.3,23.005,23.005,0,0,0-2,1.259,26.776,26.776,0,0,0-2.2,1.7c-.562.484-1.1.99-1.618,1.527A2.524,2.524,0,0,1,216.662,50.641Z" transform="translate(-208.048 -40.723)" fill="#e7797c"/>
    <path id="Path_10724" data-name="Path 10724" d="M222.39,79.954A24.3,24.3,0,0,1,270.949,78.4a24.233,24.233,0,0,1-6.939,18.843,23.345,23.345,0,0,1-17.692,7.408A24.515,24.515,0,0,1,222.39,79.954Zm44.791,2.206c.156-.011.292-.017.432-.033a2.031,2.031,0,0,0,.227-.052.507.507,0,0,0,.389-.77,5.947,5.947,0,0,0-.322-.646,1.335,1.335,0,0,1-.01-1.392,4.306,4.306,0,0,0,.351-.723c.1-.3.048-.525-.211-.642a2.484,2.484,0,0,0-1.108-.148c-.493.011-.98.1-1.47.155a20.341,20.341,0,0,0-3.348.612,4.211,4.211,0,0,0-1.594.8,1.454,1.454,0,0,1-1.1.322c-.511-.042-.994-.224-1.5-.3a8.82,8.82,0,0,0-1.589-.1,14.88,14.88,0,0,0-1.541.119c-.779.1-1.542.248-2.306.407a.166.166,0,0,0-.124.062.171.171,0,0,0-.035.136c0,.121.048.173.164.185.065.006.127.039.195.05.937.17,1.872.35,2.822.433a9.917,9.917,0,0,0,3.474-.3,1.648,1.648,0,0,1,1.614.308,2.671,2.671,0,0,0,.584.382,8.921,8.921,0,0,0,2.385.7c.61.114,1.224.2,1.84.269A15.406,15.406,0,0,0,267.181,82.16Zm-41.077-4.4a2.419,2.419,0,0,0-.526.071.505.505,0,0,0-.406.751,4.86,4.86,0,0,0,.318.648,1.336,1.336,0,0,1,.006,1.448,3.482,3.482,0,0,0-.342.713.492.492,0,0,0,.389.685,3.128,3.128,0,0,0,1.023.081c.789-.052,1.573-.172,2.357-.281a15.729,15.729,0,0,0,2.356-.485,4.139,4.139,0,0,0,1.557-.759,1.6,1.6,0,0,1,1.5-.321,10.417,10.417,0,0,0,3.007.347,23.214,23.214,0,0,0,3.579-.513c.122-.025.13-.093.131-.19s-.013-.172-.132-.193c-.283-.048-.564-.107-.846-.165a16.712,16.712,0,0,0-3.032-.359,9.2,9.2,0,0,0-2.592.336,1.778,1.778,0,0,1-1.221-.046,2.184,2.184,0,0,1-.469-.306,4.15,4.15,0,0,0-1.493-.709,14.228,14.228,0,0,0-1.489-.34c-.66-.121-1.324-.209-1.988-.288A10.039,10.039,0,0,0,226.1,77.756Zm36.155-.464a18.344,18.344,0,0,0,1.991-.149c.779-.1,1.549-.2,2.318-.332a2.978,2.978,0,0,0,1.155-.406.48.48,0,0,0,.149-.759A5.654,5.654,0,0,0,267.31,75,1.329,1.329,0,0,1,267,73.709a3.658,3.658,0,0,0,.154-.862.448.448,0,0,0-.479-.5,2.671,2.671,0,0,0-.853.118,15.021,15.021,0,0,0-1.627.626,19.584,19.584,0,0,0-2.966,1.421,4,4,0,0,0-1.275,1.112,1.584,1.584,0,0,1-.647.564,2.72,2.72,0,0,1-1.168.187,8.988,8.988,0,0,0-2.96.559,24.834,24.834,0,0,0-2.92,1.3.188.188,0,0,0-.125.249c.033.134.121.139.227.132.681-.044,1.37-.093,2.052-.178a15.1,15.1,0,0,0,1.99-.381,9.357,9.357,0,0,0,2.225-.955,1.641,1.641,0,0,1,1.557-.177A5.032,5.032,0,0,0,262.258,77.292ZM254.176,59.9c.011-.571-.195-.792-.613-.731a3.038,3.038,0,0,0-.536.111,1.376,1.376,0,0,1-1.577-.368,2.8,2.8,0,0,0-.547-.485.457.457,0,0,0-.736.186,3.594,3.594,0,0,0-.415,1.326c-.1.728-.206,1.458-.292,2.19a16.574,16.574,0,0,0-.144,2.426,4.05,4.05,0,0,0,.313,1.577,1.661,1.661,0,0,1,.161.684,2.331,2.331,0,0,1-.352,1.13,9.329,9.329,0,0,0-.79,1.834,14.111,14.111,0,0,0-.5,2.6c-.063.6-.1,1.211-.153,1.817-.012.124.009.208.135.248s.189-.02.243-.131a25.11,25.11,0,0,0,1.311-3.061,10.4,10.4,0,0,0,.5-2.3c.032-.332.013-.664.03-1a1.816,1.816,0,0,1,.793-1.518,2.322,2.322,0,0,0,.517-.495,8.446,8.446,0,0,0,.9-1.424c.364-.714.673-1.453.973-2.2.155-.386.315-.769.462-1.157A4.8,4.8,0,0,0,254.176,59.9Zm9.069,34.119a.865.865,0,0,0-.105-.352,3.471,3.471,0,0,0-.522-.654c-.407-.4-.87-.73-1.314-1.089a19.918,19.918,0,0,0-2.7-1.9,4.113,4.113,0,0,0-1.667-.584,1.479,1.479,0,0,1-.681-.239,2.7,2.7,0,0,1-.809-.99,8.9,8.9,0,0,0-1.715-2.094,24.5,24.5,0,0,0-2.814-2.142.16.16,0,0,0-.242.036.17.17,0,0,0-.028.25c.413.606.815,1.218,1.255,1.805a12.273,12.273,0,0,0,2.015,2.167c.428.35.913.615,1.363.928a1.614,1.614,0,0,1,.75,1.233,3.356,3.356,0,0,0,.283,1.089,10.63,10.63,0,0,0,1.02,1.771c.6.874,1.248,1.707,1.9,2.537a3.447,3.447,0,0,0,.973.883c.334.192.572.1.742-.249.147-.3.195-.641.321-.953a1.2,1.2,0,0,1,.754-.724,7.154,7.154,0,0,0,.907-.319.474.474,0,0,0,.312-.408ZM259.1,62.253a.478.478,0,0,0-.432-.562c-.318-.056-.641-.028-.961-.061a1.212,1.212,0,0,1-.952-.588c-.152-.241-.3-.485-.465-.718a.478.478,0,0,0-.8-.079,2.673,2.673,0,0,0-.434.574,11.835,11.835,0,0,0-.7,1.527,24.455,24.455,0,0,0-1.107,3.014,5.04,5.04,0,0,0-.195,2.134,1.536,1.536,0,0,1-.4,1.276c-.292.337-.6.661-.884,1.008a8.808,8.808,0,0,0-.84,1.273,16.379,16.379,0,0,0-.9,1.95c-.231.578-.412,1.174-.626,1.758-.033.089-.057.168.053.23s.186.082.284-.036c.5-.6,1.014-1.188,1.484-1.819A13.728,13.728,0,0,0,252.561,71a13.465,13.465,0,0,0,.642-1.822,1.575,1.575,0,0,1,.911-1.057,5.444,5.444,0,0,0,2.022-1.549,20.155,20.155,0,0,0,1.362-1.677,20.035,20.035,0,0,0,1.229-1.72,2.36,2.36,0,0,0,.379-.915ZM231.162,77.3h.051a4.591,4.591,0,0,0,1.946-.344,1.428,1.428,0,0,1,1.05-.083,3.555,3.555,0,0,1,.773.347,9.115,9.115,0,0,0,2.911,1.049,18.371,18.371,0,0,0,2.09.277c.365.027.73.048,1.095.077.136.011.148-.09.175-.18a.142.142,0,0,0,0-.114.138.138,0,0,0-.083-.077c-.27-.13-.532-.274-.8-.4a16.757,16.757,0,0,0-3.172-1.209,8.887,8.887,0,0,0-1.405-.235c-.353-.027-.708-.012-1.062-.051a1.594,1.594,0,0,1-1.2-.63,3.635,3.635,0,0,0-.758-.8,13.955,13.955,0,0,0-2.959-1.583c-.584-.249-1.162-.495-1.752-.72a3.465,3.465,0,0,0-1.21-.274c-.487,0-.667.217-.584.7.043.248.1.495.155.742a1.251,1.251,0,0,1-.263,1.145,9.319,9.319,0,0,0-.628.719.47.47,0,0,0,.13.736,2.951,2.951,0,0,0,1.148.415c.428.084.864.133,1.3.2a24.184,24.184,0,0,0,3.057.293ZM246,70.027c0,.209-.01.418,0,.625a19.348,19.348,0,0,0,.292,2.375q.1.53.195,1.061a.181.181,0,0,0,.069.122.175.175,0,0,0,.134.035c.091,0,.165-.011.186-.122.078-.42.165-.838.236-1.26.092-.554.173-1.111.224-1.671a12.3,12.3,0,0,0-.009-2.326c-.054-.558-.229-1.089-.318-1.64a1.638,1.638,0,0,1,.355-1.354,3.952,3.952,0,0,0,.681-1.36,15.828,15.828,0,0,0,.539-2.622c.086-.641.154-1.287.236-1.926a4.024,4.024,0,0,0-.032-1.445c-.085-.352-.274-.594-.731-.416-.284.113-.542.279-.817.412a1.15,1.15,0,0,1-.963.051c-.336-.133-.631-.349-.973-.474a.471.471,0,0,0-.673.31,2.362,2.362,0,0,0-.1.7,14.01,14.01,0,0,0,.206,2.282,18.353,18.353,0,0,0,.492,2.755,4.618,4.618,0,0,0,.827,1.786,1.491,1.491,0,0,1,.26.468,2.281,2.281,0,0,1-.04,1.348A8.406,8.406,0,0,0,246,70.027Zm17.236-4.164c.013-.18-.132-.3-.3-.384a2.941,2.941,0,0,0-.689-.24,1.332,1.332,0,0,1-1.041-.974,6.661,6.661,0,0,0-.252-.784.457.457,0,0,0-.657-.283,2.4,2.4,0,0,0-.785.612,13.416,13.416,0,0,0-.914,1.135,20.366,20.366,0,0,0-2.086,3.082,3.944,3.944,0,0,0-.482,1.529,1.474,1.474,0,0,1-.122.455,1.909,1.909,0,0,1-.883.907,9.724,9.724,0,0,0-2.643,2.308,29.141,29.141,0,0,0-1.752,2.456.147.147,0,0,0,.026.219.178.178,0,0,0,.262.032,23.109,23.109,0,0,0,2.8-2.13,9.668,9.668,0,0,0,1.337-1.5c.266-.375.473-.787.747-1.156a1.6,1.6,0,0,1,1.184-.693,2.6,2.6,0,0,0,.522-.1,6.7,6.7,0,0,0,1.709-.845,29.541,29.541,0,0,0,2.433-1.811,7.275,7.275,0,0,0,1.238-1.119A1.157,1.157,0,0,0,263.236,65.863Zm3.262,21.7c.517.033.726-.2.639-.711-.036-.216-.077-.432-.133-.643a1.345,1.345,0,0,1,.379-1.385,3.743,3.743,0,0,0,.5-.584.463.463,0,0,0-.15-.729,3.085,3.085,0,0,0-1.231-.428c-.864-.139-1.729-.262-2.6-.355a12.839,12.839,0,0,0-2.372-.081,3.573,3.573,0,0,0-1.283.317,1.5,1.5,0,0,1-.761.133,2.938,2.938,0,0,1-1.212-.478,8.022,8.022,0,0,0-1.7-.714,14.383,14.383,0,0,0-2.2-.43c-.681-.084-1.356-.135-2.035-.183-.107-.007-.178.019-.207.141a.18.18,0,0,0,0,.145.175.175,0,0,0,.107.095,25.27,25.27,0,0,0,2.886,1.287,9.6,9.6,0,0,0,2.391.548c.348.03.7.022,1.046.044a1.73,1.73,0,0,1,1.446.82,1.872,1.872,0,0,0,.321.361,8.709,8.709,0,0,0,2.227,1.385c.75.358,1.522.668,2.292.983A5.37,5.37,0,0,0,266.5,87.56ZM247.39,89.89a12.08,12.08,0,0,0-.056-1.23c-.054-.532-.128-1.062-.217-1.588-.071-.422-.16-.839-.238-1.259a.132.132,0,0,0-.125-.115c-.166-.029-.232.013-.264.191-.1.542-.195,1.089-.285,1.628a18.66,18.66,0,0,0-.209,1.929,10.4,10.4,0,0,0,.351,3.127,1.605,1.605,0,0,1-.311,1.478,4.1,4.1,0,0,0-.729,1.484,15.9,15.9,0,0,0-.487,2.375c-.087.6-.149,1.206-.232,1.808a6.852,6.852,0,0,0-.053,1.332,1.97,1.97,0,0,0,.09.48.445.445,0,0,0,.6.341,2.4,2.4,0,0,0,.663-.307,1.4,1.4,0,0,1,1.168-.212,3.08,3.08,0,0,1,.551.274,2.4,2.4,0,0,0,.575.256.416.416,0,0,0,.538-.271,2.08,2.08,0,0,0,.14-.809,15.867,15.867,0,0,0-.213-2.251,16.286,16.286,0,0,0-.695-3.4,2.71,2.71,0,0,0-.481-.935,1.9,1.9,0,0,1-.4-1.858A8.368,8.368,0,0,0,247.39,89.89Zm-20.521-2.339a3.485,3.485,0,0,0,1.178-.262c.691-.27,1.373-.562,2.056-.853a15.389,15.389,0,0,0,1.981-.992,4.322,4.322,0,0,0,1.427-1.241,1.448,1.448,0,0,1,.389-.383,2.1,2.1,0,0,1,1.226-.3,9.342,9.342,0,0,0,3.212-.609,27.838,27.838,0,0,0,2.783-1.231.185.185,0,0,0,.12-.1.19.19,0,0,0,0-.161c-.043-.137-.125-.136-.229-.13a26.33,26.33,0,0,0-2.644.27,11.434,11.434,0,0,0-2.4.643c-.527.209-1,.537-1.518.758a1.533,1.533,0,0,1-1.055.074c-.281-.082-.54-.232-.83-.292a7.594,7.594,0,0,0-1.9-.113,35.762,35.762,0,0,0-3.644.429,3.317,3.317,0,0,0-1.319.431.485.485,0,0,0-.136.792,6.377,6.377,0,0,0,.487.551,1.333,1.333,0,0,1,.364,1.326c-.07.259-.114.527-.163.792a.485.485,0,0,0,.085.408.468.468,0,0,0,.367.186A.891.891,0,0,0,226.869,87.552ZM259.6,73.538a4.173,4.173,0,0,0,.923-.119,14.713,14.713,0,0,0,2.41-.8c.568-.235,1.134-.478,1.7-.717a4.672,4.672,0,0,0,1.362-.792c.349-.323.422-.579.03-.907a4.123,4.123,0,0,0-.584-.391,1.317,1.317,0,0,1-.725-1.216,7.231,7.231,0,0,0-.031-.725c-.049-.451-.312-.627-.732-.495a3.4,3.4,0,0,0-.766.362,14.988,14.988,0,0,0-1.29.948,21.68,21.68,0,0,0-2.466,2.1,4.58,4.58,0,0,0-1.08,1.6,1.493,1.493,0,0,1-.779.834,4.453,4.453,0,0,1-.8.284,8,8,0,0,0-1.758.742,14.512,14.512,0,0,0-2.267,1.611c-.4.335-.779.684-1.174,1.021-.1.08-.044.151-.007.223s.076.13.182.094a24.96,24.96,0,0,0,3.088-1.227,9.644,9.644,0,0,0,2.072-1.359c.292-.257.549-.555.863-.792a1.589,1.589,0,0,1,1.3-.328C259.241,73.523,259.42,73.523,259.6,73.538Zm-29.442-7.614a.433.433,0,0,0,.029.148,2.029,2.029,0,0,0,.482.719,9.825,9.825,0,0,0,1.285,1.089,20.871,20.871,0,0,0,2.871,2.032,4.219,4.219,0,0,0,1.654.574,1.425,1.425,0,0,1,.912.437,2.978,2.978,0,0,1,.435.573,9.252,9.252,0,0,0,1.449,1.927,13.978,13.978,0,0,0,1.238,1.1c.641.51,1.314.974,1.988,1.435a.131.131,0,0,0,.179,0c.142-.112.156-.17.053-.323l-.681-1a16.437,16.437,0,0,0-1.769-2.21,9.161,9.161,0,0,0-1.96-1.523,1.731,1.731,0,0,1-.962-1.477,1.981,1.981,0,0,0-.106-.495A8.767,8.767,0,0,0,236,66.582c-.568-.83-1.19-1.622-1.81-2.414a3.378,3.378,0,0,0-1.035-.931.447.447,0,0,0-.681.238,3.72,3.72,0,0,0-.239.7,1.36,1.36,0,0,1-1.071,1.089,2.834,2.834,0,0,0-.7.252.494.494,0,0,0-.307.41ZM249.31,95.745a16.681,16.681,0,0,0,.135,1.872,26,26,0,0,0,.445,2.969,2.3,2.3,0,0,0,.309.76.443.443,0,0,0,.681.16,1.585,1.585,0,0,0,.251-.192c.183-.164.359-.335.541-.495a1.086,1.086,0,0,1,.793-.283,4.4,4.4,0,0,1,.619.118,2.571,2.571,0,0,0,.635.1.446.446,0,0,0,.457-.423,1.81,1.81,0,0,0-.018-.487,7.571,7.571,0,0,0-.573-1.773,23.327,23.327,0,0,0-1.487-3.257,3.834,3.834,0,0,0-1.043-1.3,1.9,1.9,0,0,1-.836-1.668,9.536,9.536,0,0,0-.167-1.829,13.331,13.331,0,0,0-.723-2.328c-.155-.378-.321-.752-.487-1.124-.15-.332-.311-.659-.469-.99-.045-.1-.114-.108-.207-.067s-.181.039-.156.186a3.913,3.913,0,0,1,.045.555,17.8,17.8,0,0,0,.195,1.979,12.869,12.869,0,0,0,.292,1.47,11.553,11.553,0,0,0,.4,1.247c.178.456.444.867.643,1.312a1.663,1.663,0,0,1,.195,1.042,6.467,6.467,0,0,1-.23.684A5.185,5.185,0,0,0,249.31,95.745ZM229.273,67.351a.487.487,0,0,0-.54.495c-.026.274-.03.551-.045.826a1.262,1.262,0,0,1-.584,1.059,6.2,6.2,0,0,0-.744.5.483.483,0,0,0-.051.8.961.961,0,0,0,.122.115,4.847,4.847,0,0,0,1.215.716c.718.307,1.433.621,2.159.907a16.169,16.169,0,0,0,1.6.547,4.316,4.316,0,0,0,1.87.193,1.7,1.7,0,0,1,1.527.472c.166.157.345.3.507.463a9.455,9.455,0,0,0,2.808,1.8c.8.365,1.625.654,2.452.941.12.041.178.028.241-.083s.069-.171-.033-.257c-.358-.3-.7-.619-1.062-.921a17.426,17.426,0,0,0-1.79-1.338,10.343,10.343,0,0,0-2.793-1.225,1.594,1.594,0,0,1-1.1-1,3.173,3.173,0,0,0-.207-.459,6.167,6.167,0,0,0-1.151-1.4,25.221,25.221,0,0,0-2.174-1.809,10.386,10.386,0,0,0-1.612-1.124A1.815,1.815,0,0,0,229.273,67.351Zm23.735,25.665c.019.225.026.451.062.672a11.869,11.869,0,0,0,.681,2.34c.2.535.421,1.064.643,1.59a8.993,8.993,0,0,0,.695,1.494,1.923,1.923,0,0,0,.558.658.421.421,0,0,0,.522-.045,2.287,2.287,0,0,0,.487-.678,1.364,1.364,0,0,1,1.288-.792,5.705,5.705,0,0,0,.744-.054.459.459,0,0,0,.427-.594,2.525,2.525,0,0,0-.292-.73,10.965,10.965,0,0,0-.882-1.287A25.469,25.469,0,0,0,256,93.174a5.346,5.346,0,0,0-1.57-1.258,3.085,3.085,0,0,1-.636-.322,2.049,2.049,0,0,1-.666-1.12,9.6,9.6,0,0,0-.634-1.717,13.661,13.661,0,0,0-1.285-2.026c-.459-.609-.957-1.182-1.442-1.766a.169.169,0,0,0-.107-.081.166.166,0,0,0-.131.024c-.168.081-.124.169-.078.309.186.57.381,1.137.6,1.7A15.917,15.917,0,0,0,251.024,89a9.324,9.324,0,0,0,1.46,1.914,1.821,1.821,0,0,1,.564,1.663A2.622,2.622,0,0,0,253.008,93.017Zm-8.935-29.009c-.012-.27-.012-.541-.037-.811-.062-.673-.137-1.343-.233-2.012-.084-.579-.142-1.161-.274-1.731a2.309,2.309,0,0,0-.37-.9.435.435,0,0,0-.655-.115,3.117,3.117,0,0,0-.576.508,1.348,1.348,0,0,1-1.408.4,4.782,4.782,0,0,0-.747-.152.451.451,0,0,0-.55.437,1.912,1.912,0,0,0,.033.6,8.57,8.57,0,0,0,.57,1.682,27.086,27.086,0,0,0,1.24,2.8,5.349,5.349,0,0,0,1.492,1.892,1.4,1.4,0,0,1,.532.833,6.2,6.2,0,0,1,.1,1.228,9.058,9.058,0,0,0,.4,2.252,13.982,13.982,0,0,0,.553,1.514q.406.961.876,1.894c.06.121.138.121.245.1s.136-.1.128-.2c-.039-.5-.067-1.01-.116-1.514-.055-.571-.131-1.14-.24-1.7A11.744,11.744,0,0,0,244.5,69.1c-.2-.533-.515-1.009-.737-1.532a1.608,1.608,0,0,1-.055-1.247c.062-.162.135-.322.186-.488A6.408,6.408,0,0,0,244.073,64.008ZM230.156,93.921a.505.505,0,0,0,.311.484,4.7,4.7,0,0,0,.767.268,1.273,1.273,0,0,1,.935.891,5,5,0,0,0,.3.891.45.45,0,0,0,.653.23,1.531,1.531,0,0,0,.187-.108,3.277,3.277,0,0,0,.681-.614c.389-.441.728-.921,1.086-1.385a19.348,19.348,0,0,0,1.67-2.453,4.468,4.468,0,0,0,.612-1.682,1.9,1.9,0,0,1,.15-.619,2.1,2.1,0,0,1,.937-.9,9.457,9.457,0,0,0,2.419-2.09,28.345,28.345,0,0,0,1.864-2.564c.076-.113.049-.176-.035-.257s-.151-.106-.257-.025c-.181.138-.378.255-.565.385a21.3,21.3,0,0,0-2.263,1.768,10.837,10.837,0,0,0-1.956,2.5,1.542,1.542,0,0,1-1.214.786,4.074,4.074,0,0,0-1.5.495,12.965,12.965,0,0,0-1.786,1.166c-.618.464-1.224.945-1.831,1.425a4.333,4.333,0,0,0-1.052,1.116.8.8,0,0,0-.121.294Zm15.211-8.041c0-.073.009-.146.016-.22a.125.125,0,0,0-.1-.138c-.208-.084-.226-.077-.322.136-.03.066-.065.131-.1.2-.365.763-.718,1.531-1.012,2.327a14.487,14.487,0,0,0-.465,1.526,9.152,9.152,0,0,0-.231,2.11,1.825,1.825,0,0,1-.759,1.6,3.757,3.757,0,0,0-.989,1.147,17.9,17.9,0,0,0-1.274,2.626c-.224.542-.446,1.089-.653,1.636a4.184,4.184,0,0,0-.281,1.244.935.935,0,0,0,.019.3c.064.249.257.363.574.333.292-.028.574-.121.861-.177a1.22,1.22,0,0,1,1.11.3,7.39,7.39,0,0,0,.7.625.456.456,0,0,0,.713-.137,3.481,3.481,0,0,0,.44-1.3c.082-.452.128-.924.195-1.385a20.137,20.137,0,0,0,.249-3.246,4.165,4.165,0,0,0-.32-1.66,1.627,1.627,0,0,1-.112-1.04,2.487,2.487,0,0,1,.286-.7,8.788,8.788,0,0,0,.866-2.057,14.94,14.94,0,0,0,.433-2.367C245.277,87,245.3,86.435,245.367,85.88Zm-5-19a2.938,2.938,0,0,0,0-.413,9.36,9.36,0,0,0-.444-1.814q-.248-.721-.535-1.428c-.292-.727-.577-1.46-.925-2.163a2.691,2.691,0,0,0-.6-.825.417.417,0,0,0-.635-.014,2.239,2.239,0,0,0-.487.693,1.353,1.353,0,0,1-1.207.755,2.667,2.667,0,0,0-.939.088.4.4,0,0,0-.292.347,1.5,1.5,0,0,0,.226.832,10.827,10.827,0,0,0,1.047,1.537,23.074,23.074,0,0,0,1.994,2.438,4.441,4.441,0,0,0,1.586,1.169,1.752,1.752,0,0,1,1.083,1.23c.116.376.214.757.354,1.124a10.952,10.952,0,0,0,1.3,2.347c.538.773,1.157,1.479,1.762,2.2a.147.147,0,0,0,.1.069.145.145,0,0,0,.117-.032c.083-.056.165-.1.114-.238-.151-.4-.283-.816-.428-1.223a16.514,16.514,0,0,0-1.141-2.578,9.211,9.211,0,0,0-1.454-1.921,1.884,1.884,0,0,1-.634-1.28c-.016-.287.08-.573.037-.895ZM233.9,86.358a6.236,6.236,0,0,0-1.6.267,20.528,20.528,0,0,0-2.461.908q-.651.276-1.3.558a4.218,4.218,0,0,0-1.184.736.5.5,0,0,0,.008.847,3.3,3.3,0,0,0,.608.409,1.315,1.315,0,0,1,.715,1.153c.007.135,0,.27.011.4a2.116,2.116,0,0,0,.089.633.421.421,0,0,0,.394.278,1.133,1.133,0,0,0,.525-.131,6.265,6.265,0,0,0,1.265-.8,28.79,28.79,0,0,0,2.822-2.327,5.368,5.368,0,0,0,1.05-1.319c.092-.178.164-.368.246-.552a1.754,1.754,0,0,1,1.265-.95,9.337,9.337,0,0,0,2.794-1.294,23.728,23.728,0,0,0,2.6-2.089c.086-.077.14-.145.059-.27a.182.182,0,0,0-.112-.1.178.178,0,0,0-.15.02,2.589,2.589,0,0,1-.25.09,20.094,20.094,0,0,0-2.906,1.188,9.044,9.044,0,0,0-1.834,1.217c-.235.207-.458.426-.681.641a1.727,1.727,0,0,1-1.608.523A2.874,2.874,0,0,0,233.9,86.358Zm.374,11.343a.425.425,0,0,0,.322.449,3.225,3.225,0,0,0,.924.082,1.345,1.345,0,0,1,1.222.782,2.025,2.025,0,0,0,.523.711.385.385,0,0,0,.543-.024,2.129,2.129,0,0,0,.4-.45,8.972,8.972,0,0,0,.715-1.463c.331-.779.653-1.562.93-2.362a9.994,9.994,0,0,0,.477-1.823,3.36,3.36,0,0,0,.007-1.059,1.649,1.649,0,0,1,.308-1.34,5.713,5.713,0,0,1,.426-.495,8.9,8.9,0,0,0,1.564-2.231,16.932,16.932,0,0,0,.753-1.726c.195-.519.368-1.046.563-1.566.054-.143,0-.216-.117-.285s-.172-.012-.238.067c-.4.487-.825.957-1.21,1.46a16.053,16.053,0,0,0-1.273,1.894,10.3,10.3,0,0,0-.888,2.25,1.684,1.684,0,0,1-.981,1.2,3.485,3.485,0,0,0-.64.317,8.526,8.526,0,0,0-1.706,1.62q-.611.713-1.161,1.476a16.815,16.815,0,0,0-1.114,1.575A2.245,2.245,0,0,0,234.279,97.7Zm12.4-21.39a3.661,3.661,0,1,0,3.6,3.66,3.651,3.651,0,0,0-3.6-3.66Zm17.457,16.28c.35.045.523-.142.584-.517a6.163,6.163,0,0,0,.031-.758,1.311,1.311,0,0,1,.672-1.154,4.1,4.1,0,0,0,.648-.431.544.544,0,0,0,.043-.886,2.144,2.144,0,0,0-.362-.3,3.908,3.908,0,0,0-.729-.427c-.344-.152-.694-.287-1.035-.444-.507-.235-1.023-.446-1.543-.642a13.416,13.416,0,0,0-2.108-.633,4.361,4.361,0,0,0-1.351-.027,1.549,1.549,0,0,1-.808-.11,3.092,3.092,0,0,1-.847-.629,9.49,9.49,0,0,0-1.114-.941,11.2,11.2,0,0,0-1.665-.945c-.389-.175-.774-.355-1.168-.509-.519-.2-1.048-.372-1.569-.567a.171.171,0,0,0-.142-.016.174.174,0,0,0-.105.1c-.063.107-.127.208-.013.315s.265.236.4.35c.342.3.681.585,1.026.878s.714.564,1.084.826c.328.234.681.426,1.033.629a6.119,6.119,0,0,0,1.034.495c.363.13.739.222,1.1.347a1.659,1.659,0,0,1,1.133,1.064,2.843,2.843,0,0,0,.349.684,7.112,7.112,0,0,0,1.184,1.307,26.491,26.491,0,0,0,2.065,1.682,10.17,10.17,0,0,0,1.567,1.081A1.276,1.276,0,0,0,264.139,92.592Z" transform="translate(-219.48 -52.359)" fill="#ea353a"/>
    <path id="Path_10725" data-name="Path 10725" d="M534.035,341.686a1.255,1.255,0,0,1-.605-.178,9.977,9.977,0,0,1-1.567-1.081,26.5,26.5,0,0,1-2.065-1.682,7.112,7.112,0,0,1-1.184-1.307,2.846,2.846,0,0,1-.349-.684,1.667,1.667,0,0,0-1.133-1.064c-.364-.126-.74-.218-1.1-.347a6.117,6.117,0,0,1-1.034-.495c-.349-.2-.7-.4-1.033-.629-.37-.262-.738-.528-1.084-.826s-.681-.584-1.026-.878c-.134-.115-.27-.23-.4-.35s-.051-.208.013-.315a.174.174,0,0,1,.105-.1.171.171,0,0,1,.142.016c.521.2,1.05.367,1.569.567.4.153.779.334,1.168.509a11.2,11.2,0,0,1,1.665.947,9.5,9.5,0,0,1,1.117.947,3.048,3.048,0,0,0,.847.629,1.549,1.549,0,0,0,.808.11,4.362,4.362,0,0,1,1.351.027,13.412,13.412,0,0,1,2.108.633c.521.2,1.037.408,1.544.642.342.157.692.292,1.036.444a3.909,3.909,0,0,1,.728.424,2.149,2.149,0,0,1,.362.3.544.544,0,0,1-.043.886,4.1,4.1,0,0,1-.648.431,1.311,1.311,0,0,0-.672,1.154,6.164,6.164,0,0,1-.031.758C534.558,341.545,534.388,341.731,534.035,341.686Zm-.019-.059c.3.009.412-.079.487-.315a4.36,4.36,0,0,0,.1-1.072,1.088,1.088,0,0,1,.13-.465,1.465,1.465,0,0,1,.572-.594,3.193,3.193,0,0,0,.72-.507.387.387,0,0,0,.028-.558,2.769,2.769,0,0,0-1.053-.771c-.323-.167-.671-.288-1-.438-.656-.3-1.318-.576-2-.817a9.781,9.781,0,0,0-2.015-.548,3.007,3.007,0,0,0-.942,0,1.58,1.58,0,0,1-1.194-.2,4.613,4.613,0,0,1-.749-.637,7.333,7.333,0,0,0-1.429-1.118,13.666,13.666,0,0,0-1.778-.9c-.709-.3-1.437-.546-2.157-.815-.089-.033-.166-.039-.226.066s-.019.155.051.217c.321.284.634.578.962.852a18.462,18.462,0,0,0,1.62,1.244,11.63,11.63,0,0,0,1.4.8,12.734,12.734,0,0,0,1.625.581,1.719,1.719,0,0,1,1.182,1.155,2.878,2.878,0,0,0,.552.914,12.948,12.948,0,0,0,1.922,1.832c.455.365.918.72,1.384,1.072a8.873,8.873,0,0,0,1.2.816A1.665,1.665,0,0,0,534.016,341.627Z" transform="translate(-489.376 -301.454)" fill="#e7797c"/>
    <path id="Path_10726" data-name="Path 10726" d="M449.05,284.319a2.514,2.514,0,1,1,2.487-2.533A2.473,2.473,0,0,1,449.05,284.319Z" transform="translate(-421.831 -254.193)" fill="#ea353a"/>
  </g>
</svg>
