<svg xmlns="http://www.w3.org/2000/svg" width="143.416" height="127.693" viewBox="0 0 143.416 127.693">
  <g id="Badminton_Association_of_India" data-name="Badminton Association of India" transform="translate(-0.001 0.002)">
    <path id="Path_10727" data-name="Path 10727" d="M348.07,90.637c-1.045,1.392-1.635,3.089-2.98,4.5.108-1.966.574-3.7.8-5.458,1.394-11.1,4.076-21.945,6.7-32.787a79.89,79.89,0,0,1,7.592-20.226,22.064,22.064,0,0,1,4.111-5.386,5.127,5.127,0,0,1,3.835-1.662,5.244,5.244,0,0,1,4.025,3.52,13.876,13.876,0,0,1,.069,6.222,65.011,65.011,0,0,1-4.072,13.43A200.465,200.465,0,0,1,357.05,75.239q-1.4,2.549-2.786,5.11c-.106.2-.3.384-.2.654v-.022c-.2.047-.356.123-.192.364v-.012c-.225-.022-.249.1-.2.276a.614.614,0,0,0-.161.078A19.2,19.2,0,0,0,348.07,90.637Z" transform="translate(-303.986 -29.61)" fill="#f37920"/>
    <path id="Path_10728" data-name="Path 10728" d="M472.24,266.336a5.591,5.591,0,0,1,1.122-1.527c.188-.249.5-.423.509-.787a26.1,26.1,0,0,0,4.5-3.217,19.387,19.387,0,0,0,4.528-7.015c5.229-5.492,10.411-11.038,15.891-16.275a82.412,82.412,0,0,1,16.776-12.906,20.142,20.142,0,0,1,6.69-2.453c1.791-.274,3.579-.08,4.579,1.666a5.189,5.189,0,0,1,.5,4.722,18.621,18.621,0,0,1-3.833,5.683,76.494,76.494,0,0,1-10.116,8.671A211.128,211.128,0,0,1,493.7,255.265c-5.8,3.383-11.772,6.445-17.784,9.431a15.842,15.842,0,0,1-3.629,1.676Z" transform="translate(-405.146 -182.717)" fill="#01974a"/>
    <path id="Path_10729" data-name="Path 10729" d="M428.65,108.081c3.052-6.7,5.8-13.554,9.327-20.032a78.543,78.543,0,0,1,9.714-14.677,21.259,21.259,0,0,1,5.294-4.509c1.5-.861,3.209-1.382,4.742-.3a5.144,5.144,0,0,1,2.359,4.922,23.651,23.651,0,0,1-2.547,8.154,110.18,110.18,0,0,1-12.878,19.437c-2.173,2.694-4.4,5.339-6.582,8.029A19.137,19.137,0,0,0,428.65,108.081Z" transform="translate(-370.466 -60.117)" fill="#f37820"/>
    <path id="Path_10730" data-name="Path 10730" d="M508.13,168.621c2.506-3.814,4.906-7.706,7.541-11.425,4.362-6.132,8.994-12.06,14.883-16.872a20.046,20.046,0,0,1,5.519-3.271c4.5-1.715,6.791,2.279,6.222,5.327a19.358,19.358,0,0,1-3.391,7.434,106.812,106.812,0,0,1-15.977,17.72q-5.314,4.867-10.821,9.521A19.622,19.622,0,0,0,508.13,168.621Z" transform="translate(-433.699 -114.765)" fill="#01974a"/>
    <path id="Path_10731" data-name="Path 10731" d="M284.753,441.363c-5.638,0-9.844-2.657-13.362-6.623-3.054-3.44-4.517-7.41-3.561-12.048a22.043,22.043,0,0,1,3.908-8.941c1.216-1.617,1.188-1.635,2.827-.409q12.346,9.262,24.7,18.513c.613.46.687.715.2,1.353a20.2,20.2,0,0,1-12.338,7.972A15.3,15.3,0,0,1,284.753,441.363Z" transform="translate(-242.288 -334.214)" fill="#2e3191"/>
    <path id="Path_10732" data-name="Path 10732" d="M388,269.247a19.622,19.622,0,0,1,3.978,8.436,19.066,19.066,0,0,1-.648,8.779,19.546,19.546,0,0,1-4.528,7.015,26.676,26.676,0,0,1-4.5,3.217,21.726,21.726,0,0,1-6.555,1.623,17.584,17.584,0,0,1-18.272-20.932c.065-.323.123-.646.186-.969a19.144,19.144,0,0,1,5.454-8.965.617.617,0,0,1,.161-.078c.1-.063.2-.127.2-.276v.012c.2-.045.394-.1.192-.364v.023c.11.2.241.106.358.016a18.989,18.989,0,0,1,7.751-3.432,17.694,17.694,0,0,1,16.247,5.893Zm-22.044,24.39h0c.02.268.176.36.425.333a.1.1,0,0,1,.115.059c.035.352.3.319.54.321h0c.1.446.444.66.771.392.677-.556,1.2-.335,1.746.147v.527c.2.66.638.581,1.12.349.335.055.632.409,1.006-.067.7-.9,1.327-.789,1.776.292.149.362.374.313.613.339.384.043.309-.262.329-.48.031-.321.051-.644.073-.967h.258c.088.47-.11.973.078,1.451.644-.225.644-.225.9-.625a.892.892,0,0,1,1.588-.092c.311.507.648.376,1.04.343.552.139,1.273.26,1.372-.421.137-.944.66-1.049,1.386-1.04l.133.153c-.014.288.125.423.409.4a.5.5,0,0,0,.472-.509h.012c.28-.041.668.106.689-.392l.294-.176.274-.057-.188-.1c-.127-.431-.409-.879.119-1.249l1.314-.014h0c.022.133.01.313.2.28.061-.01.1-.174.145-.268l.4-.349c.554.029.818-.39,1.1-.75.2-.276.1-.5-.288-.484l.012.01c.037-.781.084-1.537,1.226-1.186.184.057.2-.149.237-.288l.341-.67.016-.278c.5-.264.7-.525.219-1.059a.9.9,0,0,1,.642-1.541c.648-.031.711-.358.724-.834l.031-.274c.307-.386.452-.689-.1-1.063-.754-.509-.613-1.351.282-1.682.409-.149.521-.37.474-.715-.053-.395-.409-.247-.65-.284-.572-.086-1.186.117-1.8-.2.129-.1.172-.155.215-.155.564.01,1.13.027,1.695.045.223,0,.511.135.556-.235a.552.552,0,0,0-.321-.648c-1.122-.583-1.171-1.022-.184-1.84.3-.251.164-.472.121-.709-.057-.307-.311-.2-.505-.176-.466.094-.928.2-1.394.309v-.3c.374-.088.75-.164,1.118-.264.231-.061.6.014.585-.37-.014-.352-.2-.525-.613-.572-.953-.11-1.227-.912-.613-1.645.112-.135.274-.229.274-.431h.157l.076.041-.076-.041c0-.27,0-.54-.386-.521v.014c.012-.423,0-.836-.554-.914l-.319-.182c-.8-.174-1.282-.581-1.108-1.482l-.012.01c.1-.039.29-.068.294-.115.025-.223-.168-.184-.307-.2a.549.549,0,0,1-.311-.362.5.5,0,0,0-.534-.552c-.46-.722-.959.07-1.431-.039-.043-.362-.309-.321-.556-.307h0a8.533,8.533,0,0,1,.1-1.053c.063-.294-.031-.382-.294-.38l.012.01a1.571,1.571,0,0,0-1.449-.916c-.088.01-.2-.012-.262.033-1.188.848-1.511.748-1.84-.648-.076-.319-.317-.313-.507-.409-.349-.19-.358.161-.476.331l-.264-.031c-.014-.2.243-.466-.176-.556-.274-.059-.458-.1-.683.182-.719.891-1.335.8-1.791-.28-.149-.352-.376-.335-.623-.36-.38-.041-.311.272-.333.493-.035.354-.055.709-.082,1.065h-.254c0-.327.012-.654,0-.981-.01-.231.17-.568-.294-.591a.53.53,0,0,0-.591.395c-.433,1-1.143,1.092-1.768.225a.538.538,0,0,0-.654-.262c-.409.09-.292.38-.251.636.076.458.323.91.012,1.474-.115-.519-.186-.957-.319-1.376-.057-.184.049-.562-.333-.5-.272.043-.613.078-.578.523a.871.871,0,0,1-.685,1.008c-.56.157-.9-.155-1.186-.576-.029-.135-.047-.3-.237-.264-.225.047-.284.239-.3.446a.092.092,0,0,1-.115.045c-.431-.016-.86-.027-.948.548l-.176.151c-.145.024-.376.055-.3.231.321.715-.192,1.022-.613,1.39a.364.364,0,0,1-.374-.147c0-.237-.027-.491-.315-.5-.239-.014-.182.227-.2.382l-.335.266a.494.494,0,0,0-.556.538c-.223.309-.46.587-.131,1,.264.329.1.681-.133.981-.433.55-.967.288-1.48.18-.722.282-.877,1.022-1.241,1.582-.076.119.178.178.321.2l.155.164q.074.668.151,1.341a.1.1,0,0,1-.082.082c-.409.053-1-.5-1.159.356v.02c-.668.182-.421.656-.343,1.075.022.309-.241.6.2.914.863.613.754,1.347-.227,1.748a.629.629,0,0,0-.431.56c-.088.423.29.354.476.487l-.012.219c-.219.035-.491-.031-.482.347a.566.566,0,0,0,.39.591c.983.45,1.085,1.165.227,1.752-.331.225-.288.454-.3.732-.346.294.112.6,0,.9a.319.319,0,0,0,.347.366l.041.031-.01.049c.184.8.7.421,1.132.313a.115.115,0,0,1,.063.068c-.215.409.137.793.049,1.2a.54.54,0,0,1-.358.321c-.137.022-.329.018-.3.2.035.268.155.5.489.489v-.012c0,.325-.119.719.419.744.2.343.48.374.885.3a.873.873,0,0,1,.987,1.208.861.861,0,0,0,.2,1.2c.2.842.566,1.085,1.075.742a.587.587,0,0,1,.536-.251,1.464,1.464,0,0,0,.942.546.294.294,0,0,1,.1.376c-.366.027-.145.239-.123.39a.114.114,0,0,1-.047.145l-.2.1Z" transform="translate(-313.571 -215.391)" fill="#2f3292"/>
    <path id="Path_10733" data-name="Path 10733" d="M333.839,395.049c-.127.172-.231.317-.337.458-1.006,1.333-2.044,2.647-3,4.008-.356.5-.574.47-1.022.129q-13.146-9.836-26.322-19.623c-.409-.3-.556-.474-.172-.948,1.047-1.3,2.044-2.641,3.019-4,.335-.472.548-.435.971-.119q13.182,9.865,26.383,19.7C333.509,394.771,333.673,394.906,333.839,395.049Z" transform="translate(-270.307 -304.176)" fill="#2e3192"/>
    <path id="Path_10734" data-name="Path 10734" d="M539.106,553.322a63.276,63.276,0,0,1-9.147,8.789,66.025,66.025,0,0,1-20.8,11.335c-.718.235-.953.1-1.212-.57-1.022-2.612-2.089-5.2-3.166-7.794-.2-.5-.225-.709.409-.785a91.557,91.557,0,0,0,33.727-11.038.483.483,0,0,1,.084-.029Z" transform="translate(-430.935 -446.198)" fill="#2e3192"/>
    <path id="Path_10735" data-name="Path 10735" d="M637.4,453.42l.7.033c.18.233.36.237.542,0,3.458.5,6.316,1.862,7.637,5.392a2.161,2.161,0,0,1,.068.348c-.258.219-.133.468-.088.736.476,2.8.527,5.552-1.067,8.087a1.388,1.388,0,0,0-.084.517h0a1,1,0,0,0-1.073,1.118,8.525,8.525,0,0,1-4.146,2.1c-.2-.255-.493-.2-.746-.165a48.362,48.362,0,0,1-7.475.351c-.513,0-.752-.119-.752-.7q.024-8.55,0-17.1c0-.495.155-.711.668-.683a37.959,37.959,0,0,1,5.347.166A.409.409,0,0,0,637.4,453.42Zm-1.778,15.11a1.022,1.022,0,0,0,.315.141,5.049,5.049,0,0,0,5.666-4.293,9.675,9.675,0,0,0,.109-2.4c-.225-3.71-2.328-5.537-6.059-5.276-.362.178-.237.515-.237.793q-.012,5.11,0,10.22C635.411,467.992,635.307,468.317,635.618,468.53Z" transform="translate(-531.382 -366.79)" fill="#2e3192"/>
    <path id="Path_10736" data-name="Path 10736" d="M543.512,471.886l-4.665-8.79c.033-.769.554-1.682-.654-2.073-.217-.069-.256-.313-.174-.533s.18-.409-.016-.574a3.105,3.105,0,0,1-.959-1.748.3.3,0,0,0-.317-.251c-.158,0-.364.057-.329.2.123.529-.115,1.173.472,1.562.016.593.035,1.184.053,1.776-.354.272-.2.66-.2,1-.012,2.835-.018,5.67,0,8.508,0,.63-.176.948-.863.916-.8-.037-1.611-.028-2.416,0-.5.016-.682-.163-.68-.67q.014-8.552,0-17.1c0-.566.2-.724.742-.705a16.368,16.368,0,0,0,2.592-.014c1.065-.135,1.472.623,1.934,1.265a29.945,29.945,0,0,1,1.682,3.408,20.335,20.335,0,0,1,1.063,2.044c.325.818,1.163,1.457.975,2.467a.282.282,0,0,0,.094.239c1.169.67,1.126,2.022,1.707,3.019.143.243.067.409-.059.652a.679.679,0,0,0,.446,1.051c.5.155.683-.2.666-.675a4.79,4.79,0,0,0-.037-.891c-.906-3.931-.631-7.929-.685-11.909,0-.529.221-.662.7-.65.865.025,1.731.031,2.6,0,.613-.023.842.233.84.846q-.018,8.458,0,16.923c0,.562-.2.719-.738.707C546.018,471.865,544.765,471.884,543.512,471.886Z" transform="translate(-453.295 -366.753)" fill="#2e3192"/>
    <path id="Path_10737" data-name="Path 10737" d="M189.962,283.543c-2.529,1.151-4.894,2.267-7.189,3.52-5.979,3.271-11.549,7.077-16.054,12.265a29.993,29.993,0,0,0-4.436,6.694c-.153.319-.235.55-.7.384-2.531-.889-5.078-1.738-7.618-2.6a3.268,3.268,0,0,1-.362-.186,32.714,32.714,0,0,1,5.4-6.337c5.537-5.071,12.089-8.35,19.112-10.791a92.355,92.355,0,0,1,10.96-2.982A1.288,1.288,0,0,1,189.962,283.543Z" transform="translate(-151.639 -231.561)" fill="#2e3192"/>
    <path id="Path_10738" data-name="Path 10738" d="M774.15,454.382q1.891,6.2,3.782,12.41c.5,1.656.973,3.318,1.457,4.977a5.916,5.916,0,0,1-2.473.17c-2.438.031-2.453.012-2.89-2.365-.068-.36-.123-.644-.548-.673-1.308,0-2.621.078-3.918-.018-.906-.068-1.384.2-1.492,1.094-.517.172-.409.681-.48,1.034-.135.689-.409,1-1.163.957-1.294-.069-2.6-.021-3.884-.022l5.429-17.205c.156-.025.311-.09.338-.247.168-1.022.881-1.087,1.709-1.022.47.041.946,0,1.431,0C772.427,453.5,773.533,453.2,774.15,454.382Zm-3.17,3.2c-.049.2-.106.388-.145.585-.372,1.9-.726,3.808-1.116,5.705-.409,2.044-.431,2.044,1.69,2.044a3.91,3.91,0,0,1,.537,0c.625.08.752-.145.591-.748C771.875,462.689,771.452,460.16,770.98,457.585Z" transform="translate(-636.105 -366.816)" fill="#2f3192"/>
    <path id="Path_10739" data-name="Path 10739" d="M489.31,461.632c0,2.894-.021,5.787.014,8.679,0,.634-.092.9-.818.863-1.249-.068-2.5-.039-3.757,0-.505.012-.732-.053-.73-.658q.037-8.9,0-17.8c0-.527.17-.648.664-.636,1.31.033,2.625.041,3.935,0,.57-.018.7.172.689.709C489.3,455.738,489.31,458.68,489.31,461.632Z" transform="translate(-414.517 -365.719)" fill="#2e3191"/>
    <path id="Path_10740" data-name="Path 10740" d="M730.914,461.664c0,2.9-.018,5.8.014,8.7,0,.613-.143.818-.781.793-1.284-.053-2.569-.037-3.853,0-.507.014-.656-.135-.654-.652q.028-8.873,0-17.745c0-.552.141-.719.7-.7,1.284.041,2.572.051,3.853,0,.613-.025.742.172.736.748C730.9,455.75,730.914,458.708,730.914,461.664Z" transform="translate(-606.748 -365.7)" fill="#2e3191"/>
    <path id="Path_10741" data-name="Path 10741" d="M156.083,475c-.846.364-1.686.75-2.545,1.083-.331.127-.72.654-1.034-.147-.274-.7-.037-.92.568-1.128a16.812,16.812,0,0,0,3.031-1.361l-2.776.443a7.972,7.972,0,0,0-.791.145c-.4.11-.648.07-.805-.4s.094-.566.409-.724c.953-.489,1.9-.993,2.843-1.492l.249-.178a.321.321,0,0,0-.39-.037c-1.01.26-2.044.464-3.025.8-.767.257-.648-.354-.832-.687-.274-.495.108-.533.429-.613,1.84-.429,3.667-.838,5.49-1.3.613-.153.652.266.732.613.088.393.636.838-.129,1.182-.912.409-1.8.881-2.852,1.4a16.678,16.678,0,0,0,3.08-.419c.491-.078.75.027.8.517.074.674.644,1.045.963,1.568.215.356.231.523-.164.752q-2.479,1.431-4.918,2.937c-.511.319-.6-.029-.769-.341s-.531-.593.067-.91c.869-.46,1.69-1.008,2.533-1.517.119-.068.362-.115.282-.257C156.41,474.73,156.228,474.953,156.083,475Z" transform="translate(-149.484 -379.48)" fill="#313393"/>
    <path id="Path_10742" data-name="Path 10742" d="M176.532,504.962a5.363,5.363,0,0,1-1.556,1.253c-.055-.121-.043-.292-.225-.315-.029,0-.1.063-.1.092.016.182.192.172.307.237a12.442,12.442,0,0,1-2.146,1.975c-.519.437-.589-.253-.852-.431-.354-.239-.2-.464.068-.7,1.116-.942,2.22-1.9,3.328-2.862.219-.188.566-.409.147-.673-.28-.182-.38-.844-.991-.358-1.022.818-2.108,1.562-3.187,2.308-.239.166-.48.671-.869.186-.309-.382-.666-.724-.186-1.29a15.153,15.153,0,0,0,1.226-1.864,1.034,1.034,0,0,0,.286-.967c-.818.593-1.58,1.114-2.3,1.695-.409.325-.6.262-.9-.147s-.307-.6.123-.9c1.494-1.036,2.958-2.118,4.446-3.164.2-.139.444-.6.7-.129.2.358.848.591.4,1.2-.425.574-.805,1.182-1.192,1.784a1.8,1.8,0,0,0-.44.959,11.417,11.417,0,0,0,2.249-1.49c.409-.29.707-.319.887.157a9.956,9.956,0,0,0,2.114,2.764c.409.474.294.7-.114,1.057-.57.495-.681-.014-.9-.337,0-.133.063-.325-.127-.354S176.563,504.836,176.532,504.962Zm-.041-.907c-.074-.078-.114-.164-.172-.176a.249.249,0,0,0-.215.061c-.067.123,0,.2.137.215C176.311,504.157,176.383,504.1,176.491,504.055Zm-3.968-1.094-.114.063c.018.02.043.059.057.055a.462.462,0,0,0,.121-.055Z" transform="translate(-163.392 -402.822)" fill="#2f3192"/>
    <path id="Path_10743" data-name="Path 10743" d="M543.105,465.771c.017.466-.161.83-.666.675a.679.679,0,0,1-.446-1.051c.127-.233.2-.409.059-.652-.58-1-.538-2.349-1.707-3.019a.283.283,0,0,1-.094-.239c.188-1.01-.65-1.66-.975-2.467a20.333,20.333,0,0,0-1.063-2.044,31.363,31.363,0,0,0-1.682-3.408c-.462-.642-.869-1.4-1.934-1.265a16.37,16.37,0,0,1-2.592.014c-.527-.018-.742.139-.742.705q.024,8.552,0,17.1c0,.507.182.687.681.671.805-.026,1.613-.035,2.416,0,.687.033.867-.286.863-.916-.021-2.837-.014-5.672,0-8.508,0-.339-.143-.728.2-1,.276.149.182.423.184.638.024,3.166.024,6.337.061,9.495,0,.495-.174.613-.623.595-1.165-.025-2.33-.031-3.493,0-.492.012-.668-.106-.666-.64q.029-8.914,0-17.825c0-.435.07-.648.576-.636q2.06.049,4.121,0a.71.71,0,0,1,.725.485c2.06,4.025,4.28,7.972,6.022,12.154.08.194.041.525.423.431-.047.241-.486.329-.282.664C542.666,466.027,542.895,465.859,543.105,465.771Z" transform="translate(-451.807 -365.658)" fill="#2f3292"/>
    <path id="Path_10744" data-name="Path 10744" d="M214.51,549.972c-.656.732-1.265,1.361-1.809,2.044-.341.425-.558.433-.981.078s-.278-.581.012-.906c1.192-1.333,2.357-2.69,3.549-4.023.176-.2.317-.732.722-.3.284.3.908.429.6,1.112-.329.73-.572,1.5-.844,2.249-.076.2-.254.409,0,.76.581-.652,1.149-1.28,1.7-1.915.258-.3.442-.632.891-.174.335.341.529.523.11.977-1.226,1.335-2.4,2.729-3.612,4.088-.164.182-.313.634-.677.247-.268-.286-.818-.409-.531-1.049.333-.728.554-1.508.818-2.267A1.063,1.063,0,0,0,214.51,549.972Zm.227-.268c-.131.092-.337.237-.168.362.2.147.225-.133.3-.258v-.2Zm.713,1.388c-.1.18.041.17.082.223a1.908,1.908,0,0,0,.147-.2c.08-.127-.072-.112-.108-.168Z" transform="translate(-197.668 -441.002)" fill="#2f3192"/>
    <path id="Path_10745" data-name="Path 10745" d="M145.516,412.6c.061-2.044.061-2.044,2.044-1.783,1.447.19,2.892.382,4.344.55.362.043.552.127.464.546-.119.552-.149,1.124-.3,1.668a1.693,1.693,0,0,1-2.968.8c-.192-.186-.249-.442-.585-.119a1.7,1.7,0,0,1-2.081.127A1.721,1.721,0,0,1,145.516,412.6Zm2.972-.16c-.331-.423-.873-.237-1.316-.343-.376-.09-.458.147-.427.462.057.566.462.727.932.732s.732-.315.812-.852Zm1.635.029c-.364-.031-.713-.131-.673.37a.746.746,0,0,0,.818.758c.5.016.818-.247.8-.662,0-.709-.687-.264-.938-.468Z" transform="translate(-145.204 -332.798)" fill="#313393"/>
    <path id="Path_10746" data-name="Path 10746" d="M148.781,452.04a3.138,3.138,0,0,1-3.066-3.358c.047-.307.268-.278.452-.319,1.856-.423,3.716-.818,5.564-1.267.478-.117.54.1.632.456C153.071,450.362,151.794,451.972,148.781,452.04Zm0-1.353a4.7,4.7,0,0,0,1.678-.409,1.326,1.326,0,0,0,.877-.942c.094-.486.078-.818-.613-.625-.916.262-1.862.409-2.786.652-.233.059-.63-.014-.664.307a.923.923,0,0,0,.519.781,1.743,1.743,0,0,0,.985.237Z" transform="translate(-145.344 -361.733)" fill="#313393"/>
    <path id="Path_10747" data-name="Path 10747" d="M452.215,623.634a4.325,4.325,0,0,1,.435-2.081,2.035,2.035,0,0,1,3.585-.231,4.879,4.879,0,0,1,.278,4.792,1.936,1.936,0,0,1-1.856,1.177,2.022,2.022,0,0,1-1.882-1.151A5.131,5.131,0,0,1,452.215,623.634Zm1.378,0a4.156,4.156,0,0,0,.28,1.744.843.843,0,0,0,.805.591.758.758,0,0,0,.736-.554,4.483,4.483,0,0,0-.182-3.287.73.73,0,0,0-.718-.435.787.787,0,0,0-.736.544,3.355,3.355,0,0,0-.18,1.4Z" transform="translate(-389.211 -499.601)" fill="#313393"/>
    <path id="Path_10748" data-name="Path 10748" d="M393.333,622.847a5.2,5.2,0,0,1,.785-2.89,2.042,2.042,0,0,1,3.663.339,4.9,4.9,0,0,1-.458,4.622,1.975,1.975,0,0,1-2.073.943,2.056,2.056,0,0,1-1.682-1.431A3.882,3.882,0,0,1,393.333,622.847Zm3.418-.638c0-.372.012-.552,0-.73-.041-.519-.123-1.061-.746-1.161-.691-.111-.908.427-1.075.956a5.475,5.475,0,0,0-.192,2.465.874.874,0,0,0,.707.818.864.864,0,0,0,.961-.628A4.676,4.676,0,0,0,396.751,622.209Z" transform="translate(-342.362 -498.501)" fill="#313393"/>
    <path id="Path_10749" data-name="Path 10749" d="M295.045,596.827a5.9,5.9,0,0,1-1.227,3.084,2.154,2.154,0,0,1-2.526.84,2.076,2.076,0,0,1-1.419-2.249,5.7,5.7,0,0,1,1.186-3.315,2.13,2.13,0,0,1,2.563-.936A2.359,2.359,0,0,1,295.045,596.827Zm-1.282-.364a.955.955,0,0,0-.531-.946.83.83,0,0,0-1.01.345,4.906,4.906,0,0,0-1.022,2.8.8.8,0,0,0,.509.859.821.821,0,0,0,1.01-.344A5.439,5.439,0,0,0,293.763,596.463Z" transform="translate(-260.055 -478.724)" fill="#303292"/>
    <path id="Path_10750" data-name="Path 10750" d="M200.989,533.12a2.044,2.044,0,0,1,1.932,2.688,4.964,4.964,0,0,1-3.336,3.34,1.938,1.938,0,0,1-2.107-.613,1.985,1.985,0,0,1-.448-2.073C197.54,534.81,199.552,533.112,200.989,533.12Zm.746,2.134a.787.787,0,0,0-1.11-.75,4.406,4.406,0,0,0-2.324,2.341.771.771,0,0,0,.7,1.071C199.83,537.954,201.729,536.106,201.735,535.254Z" transform="translate(-186.094 -430.199)" fill="#2f3292"/>
    <path id="Path_10751" data-name="Path 10751" d="M586.457,465.789c-.2.088-.439.255-.613-.033-.2-.335.235-.423.282-.664a22.735,22.735,0,0,1-.642-5.744c-.022-2.181.02-4.36-.022-6.541-.012-.646.184-.818.8-.783,1.133.047,2.269.029,3.4,0,.429,0,.64.057.638.572q-.027,8.959-.01,17.917c0,.3.059.6-.421.6-1.374-.018-2.747,0-4.121,0a.337.337,0,0,1-.372-.3c1.253,0,2.506-.02,3.759,0,.529.012.74-.145.738-.707q-.025-8.463,0-16.923c0-.613-.219-.869-.84-.846-.865.031-1.731.024-2.6,0-.478-.012-.707.121-.7.65.053,3.98-.221,7.972.685,11.909A4.8,4.8,0,0,1,586.457,465.789Z" transform="translate(-495.159 -365.676)" fill="#2a2c8f"/>
    <path id="Path_10752" data-name="Path 10752" d="M150.81,431.971c.127.5-.112.693-.572.8-1.827.409-3.647.869-5.476,1.278-.2.045-.666.37-.648-.2.012-.372-.335-.946.386-1.087.442-.088.807-.125.805-.793,0-.7-.364-.732-.863-.832-.7-.139-.337-.734-.345-1.106-.01-.5.4-.2.595-.155,1.8.38,3.6.818,5.409,1.165C150.7,431.147,150.959,431.384,150.81,431.971Zm-2.009-.01-.012-.141c-.683-.086-1.368-.168-2.044-.264-.311-.043-.431.078-.409.386.012.239.067.409.356.36Z" transform="translate(-144.01 -347.947)" fill="#313393"/>
    <path id="Path_10753" data-name="Path 10753" d="M235.65,574.209c1.6-1.537,3.177-3.027,4.732-4.536.378-.368.585-.012.828.147s.691.264.487.785c-.724,1.858-1.419,3.727-2.13,5.591-.08.2-.168.552-.46.274s-1.065-.255-.7-.9c.409-.722.045-.985-.495-1.28-.2-.115-.386-.192-.531.037C236.776,575.29,236.277,574.583,235.65,574.209Zm4.423-2.778-.264.294c-.374.409-.734.842-1.124,1.243-.237.243-.258.4.045.613s.446.1.564-.2c.2-.517.433-1.022.65-1.537.145-.117.219-.251.11-.431l.129-.018c-.016,0-.035-.018-.045-.014A.554.554,0,0,0,240.073,571.431Z" transform="translate(-216.917 -459.152)" fill="#2f3192"/>
    <path id="Path_10754" data-name="Path 10754" d="M345.505,617.86c-.76-.094-1.449-.086-1.292-1.145.078-.515-.5-.362-.8-.476-.345-.133-.538,0-.662.356-.094.268-.088.648-.613.583-.916-.115-.989-.2-.583-1.059q1.171-2.453,2.33-4.92c.153-.323.3-.613.724-.395.323.168.906-.07.9.613C345.5,613.555,345.505,615.689,345.505,617.86Zm-1.292-4.378-.159-.014c-.161.409-.327.818-.483,1.226-.059.157-.182.349.018.468a.863.863,0,0,0,.5.112c.241-.029.174-.268.172-.423C344.262,614.391,344.234,613.935,344.213,613.482Z" transform="translate(-300.984 -491.942)" fill="#2f3192"/>
    <path id="Path_10755" data-name="Path 10755" d="M421.938,622.038l-.039.021c-.043.274-.149.572.264.664l.779,2.236.2-.014c0-1.075.024-2.148-.01-3.221-.018-.558.239-.613.7-.613s.6.153.576.625c-.1,1.84-.149,3.679-.229,5.536-.01.239.1.624-.319.6-.372-.026-.883.2-1.073-.358-.27-.818-.521-1.635-.781-2.453.3-.409.2-.677-.292-.791l.022-.067a1,1,0,0,0,.063-.685.29.29,0,0,0-.327-.223c-.159,0-.331.069-.317.229.063.7-.28,1.4,0,2.093l-.057,1.772c-.542.067-.7-.17-.718-.709-.051-1.431.157-2.839.188-4.258.026-1.2,0-1.2,1.163-.95v.047l-.043.012A.409.409,0,0,0,421.938,622.038Z" transform="translate(-363.887 -500.203)" fill="#303292"/>
    <path id="Path_10756" data-name="Path 10756" d="M313.82,607.174a4.627,4.627,0,0,1,1.394-3.111,2.568,2.568,0,0,1,2.584-.552c.577.155.765.437.523,1.036-.145.36-.18.583-.636.313a1.2,1.2,0,0,0-1.6.358,2.862,2.862,0,0,0-.734,2.482,1.282,1.282,0,0,0,1,1.134c.378.088.748.053.523.681-.19.533-.335.818-.981.638A2.909,2.909,0,0,1,313.82,607.174Z" transform="translate(-279.108 -486.1)" fill="#313393"/>
    <path id="Path_10757" data-name="Path 10757" d="M273.708,587.162c.345.151.409-.219.6-.341a1.854,1.854,0,0,1,2.414.356c.409.474-.016.807-.188,1.106-.2.36-.36-.09-.521-.2-.286-.186-.562-.37-.891-.123a.779.779,0,0,0-.249.963c.172.474.409.93.55,1.413a2.025,2.025,0,0,1-1.8,2.616c-1.46,0-1.962-.84-1.243-2.114.429.286.7,1.083,1.372.644.707-.462.239-1.094-.033-1.58a3.668,3.668,0,0,1,0-2.758Z" transform="translate(-245.885 -472.688)" fill="#2f3292"/>
    <path id="Path_10758" data-name="Path 10758" d="M260.894,581.287a1.163,1.163,0,0,1-.229-.139c-.325-.323-.593-.881-1.161-.536s-.376.944-.176,1.445a2.428,2.428,0,0,1-.253,2.76,1.934,1.934,0,0,1-3.021-.2c-.393-.6.3-.871.358-1.335.1.012.166,0,.19.029.337.392.613,1.022,1.263.674s.317-.942.145-1.431a2.522,2.522,0,0,1,.409-2.831,1.739,1.739,0,0,1,2.723.215c.456.6-.358.879-.255,1.366Z" transform="translate(-233.055 -466.827)" fill="#303292"/>
    <path id="Path_10759" data-name="Path 10759" d="M478.928,625.2c.125.4-.039.613-.613.662s-.689-.168-.732-.675c-.157-1.809-.345-3.616-.55-5.421-.047-.409.028-.614.478-.626a15.019,15.019,0,0,0,1.6-.157c.485-.072.818-.119.877.576.055.662-.294.656-.722.691s-.9-.074-.793.693c.086.613.278.859.881.668s.671.151.752.63c.09.542-.178.63-.587.613-.752-.045-.9.331-.752.983C478.856,624.231,478.856,624.652,478.928,625.2Z" transform="translate(-408.949 -498.477)" fill="#313393"/>
    <path id="Path_10760" data-name="Path 10760" d="M365.508,619.985q.343-2.116.691-4.231c.07-.423.178-.818-.487-.856-.554-.025-.327-.436-.286-.732s.029-.613.511-.507c.818.162,1.635.29,2.467.4.4.051.534.2.384.58-.112.28.1.846-.523.687-.654-.172-.658.268-.724.672-.225,1.382-.46,2.762-.662,4.145-.069.474-.331.5-.687.393C365.888,620.445,365.418,620.563,365.508,619.985Z" transform="translate(-320.102 -494.257)" fill="#313393"/>
    <path id="Path_10761" data-name="Path 10761" d="M636.009,452.312a.408.408,0,0,1-.46.2,37.976,37.976,0,0,0-5.347-.166c-.513-.029-.671.188-.668.683q.014,8.55,0,17.1c0,.576.239.7.752.695a48.347,48.347,0,0,0,7.475-.351c.254-.041.544-.09.746.166a12.553,12.553,0,0,1-3.614.439c-1.7.043-3.406.016-5.11.053-.47,0-.614-.131-.614-.613q.025-8.963,0-17.927c0-.266-.057-.57.366-.56a62.775,62.775,0,0,1,6.353.145C635.944,452.19,635.975,452.269,636.009,452.312Z" transform="translate(-529.995 -365.683)" fill="#313393"/>
    <path id="Path_10762" data-name="Path 10762" d="M380.73,622.965c.327-1.973.652-3.851.938-5.736.07-.464.282-.558.658-.419.3.112.848-.082.73.613q-.491,2.862-.926,5.736c-.092.613-.476.388-.8.339S380.549,623.464,380.73,622.965Z" transform="translate(-332.309 -496.735)" fill="#313393"/>
    <path id="Path_10763" data-name="Path 10763" d="M334.876,607.57c-.061.182-.1.292-.135.409-.525,1.795-1.063,3.587-1.562,5.391-.135.484-.352.55-.758.349-.3-.149-.818-.047-.613-.7.558-1.815,1.075-3.645,1.607-5.47.076-.26.127-.574.509-.409C334.241,607.261,334.688,607.188,334.876,607.57Z" transform="translate(-293.382 -489.052)" fill="#313393"/>
    <path id="Path_10764" data-name="Path 10764" d="M551.017,477.423c-.586-.388-.349-1.032-.472-1.562-.035-.151.172-.2.329-.2a.3.3,0,0,1,.317.251,3.1,3.1,0,0,0,.959,1.748c.2.166.088.378.016.574s-.043.464.174.534c1.208.39.687,1.3.654,2.073a14.16,14.16,0,0,1-1.482-3.113C551.393,477.362,551.377,477.362,551.017,477.423Z" transform="translate(-467.441 -384.481)" fill="#2f3292"/>
    <path id="Path_10765" data-name="Path 10765" d="M700.338,491.019a1.394,1.394,0,0,1,.084-.517c1.594-2.534,1.543-5.284,1.067-8.086-.045-.268-.17-.517.088-.736C702.47,484.965,702.488,488.135,700.338,491.019Z" transform="translate(-586.617 -389.274)" fill="#313393"/>
    <path id="Path_10766" data-name="Path 10766" d="M420.374,621.012c-1.155-.247-1.136-.245-1.163.95-.031,1.419-.239,2.831-.188,4.258.018.539.176.777.717.709.068.65-.409.3-.66.346-.276.051-.435-.07-.423-.395q.119-2.972.219-5.948c0-.243.092-.454.348-.38C419.618,620.667,420.242,620.25,420.374,621.012Z" transform="translate(-362.515 -499.747)" fill="#2a2c8f"/>
    <path id="Path_10767" data-name="Path 10767" d="M816.05,529c.425.029.48.313.548.672.442,2.377.452,2.4,2.891,2.365a5.758,5.758,0,0,0,2.473-.17c.2.3.2.491-.229.489-1.451,0-2.9-.016-4.352,0-.423,0-.474-.266-.554-.55Q816.434,530.414,816.05,529Z" transform="translate(-678.677 -426.921)" fill="#313393"/>
    <path id="Path_10768" data-name="Path 10768" d="M795.2,453.2c-.613-1.183-1.723-.883-2.725-.9-.474,0-.951.033-1.431,0-.818-.072-1.541-.012-1.709,1.022-.026.157-.182.223-.337.247.409-1.566.409-1.566,2-1.566.887,0,1.782.068,2.657-.018C794.64,451.877,795.193,452.155,795.2,453.2Z" transform="translate(-657.156 -365.631)" fill="#313393"/>
    <path id="Path_10769" data-name="Path 10769" d="M762.366,536.259c1.3,0,2.6-.047,3.884.022.764.043,1.022-.268,1.163-.957.069-.354-.037-.862.48-1.034-.378,2.277-.378,2.277-2.633,2.277h-2.508C762.579,536.561,762.227,536.708,762.366,536.259Z" transform="translate(-635.942 -431.13)" fill="#313393"/>
    <path id="Path_10770" data-name="Path 10770" d="M423.8,634.089c-.284-.7.059-1.394,0-2.093-.014-.159.157-.227.317-.229a.291.291,0,0,1,.327.223,1,1,0,0,1-.063.685c-.131-.127-.278-.523-.376.016C423.912,633.153,424.156,633.664,423.8,634.089Z" transform="translate(-366.513 -508.678)" fill="#2a2c8f"/>
    <path id="Path_10771" data-name="Path 10771" d="M695.12,528.448a1,1,0,0,1,1.073-1.118A3.3,3.3,0,0,1,695.12,528.448Z" transform="translate(-582.467 -425.592)" fill="#313393"/>
    <path id="Path_10772" data-name="Path 10772" d="M427,636.55c.5.114.6.378.292.791C427.186,637.077,427.088,636.814,427,636.55Z" transform="translate(-369.153 -512.487)" fill="#2a2c8f"/>
    <path id="Path_10773" data-name="Path 10773" d="M666.6,453.249c-.182.233-.362.229-.542,0A.452.452,0,0,1,666.6,453.249Z" transform="translate(-559.347 -366.582)" fill="#313393"/>
    <path id="Path_10774" data-name="Path 10774" d="M427.885,626.414c-.409-.092-.307-.39-.264-.664A1.092,1.092,0,0,1,427.885,626.414Z" transform="translate(-369.612 -503.894)" fill="#2a2c8f"/>
    <path id="Path_10775" data-name="Path 10775" d="M208.29,528.118c.031-.127,0-.331.2-.3s.121.221.127.354Z" transform="translate(-195.15 -425.978)" fill="#2e3191"/>
    <path id="Path_10776" data-name="Path 10776" d="M427.014,623.661a.409.409,0,0,1-.231-.511C426.967,623.269,426.975,623.471,427.014,623.661Z" transform="translate(-368.963 -501.826)" fill="#2a2c8f"/>
    <path id="Path_10777" data-name="Path 10777" d="M672.7,552.955c.072-.021.192-.074.2-.057.065.1-.026.129-.1.158Z" transform="translate(-564.629 -445.932)" fill="#2e3192"/>
    <path id="Path_10778" data-name="Path 10778" d="M471.891,438.727a.573.573,0,0,1-.094.08l-.057-.035.1-.082Z" transform="translate(-404.748 -355.071)" fill="#01974a"/>
    <path id="Path_10779" data-name="Path 10779" d="M387.99,280.86c.2.262.014.319-.192.364C387.638,280.983,387.785,280.907,387.99,280.86Z" transform="translate(-337.91 -229.503)" fill="#fefefe"/>
    <path id="Path_10780" data-name="Path 10780" d="M387.249,282.57c.012.149-.1.2-.2.276C387,282.67,387.02,282.547,387.249,282.57Z" transform="translate(-337.35 -230.861)" fill="#fefefe"/>
    <path id="Path_10781" data-name="Path 10781" d="M390.656,314.294c-.726,0-1.249.1-1.386,1.041-.1.681-.818.56-1.372.421a5.089,5.089,0,0,0-.286-1.66c-1-3.538-2.557-6.93-2.747-10.674-.01-.2-.166-.2-.319-.2l-.409-.016c-.476,0-.358.409-.4.652a25.469,25.469,0,0,1-1.615,5.813c-.1-.039-.239-.112-.294.035a.366.366,0,0,0,.147.392.108.108,0,0,1-.106.1c-.28-.3-.2-.613-.139-.989.08-.489.525-.989.067-1.506a24.435,24.435,0,0,1,1.39-4.035c.041-.2.409-.419.117-.578-.188-.1-.253.243-.321.427L382,305.358c-.529.114-.542.513-.517.932h0c-.57.053-.554.478-.562.889h0c-.394,0-.38.272-.364.548h0c-.393,0-.382.27-.366.544h0c-.395,0-.38.274-.362.548h0c-.249,0-.525.139-.717-.145l.18-.409a1.222,1.222,0,0,0,.673-1.286h0c.589-.08.558-.519.546-.946.294-.789,1.047-1.314,1.331-2.191-.495.088-.634.46-.875.7a28.6,28.6,0,0,1-4,3.536.383.383,0,0,1-.38-.2c0-.3.237-.462.409-.668a28.412,28.412,0,0,1,4.681-4.456l.215-.133c.127-.094.409-.176.3-.331-.186-.255-.309.067-.456.157l-.2.125-2.23,1.374c-.309-.286-.325-.035-.354.194a1.291,1.291,0,0,1-.705.38c-.325-.348-.335-.065-.362.182a1.432,1.432,0,0,1-.717.348,1.113,1.113,0,0,0-1.431.713l-.354.184a.684.684,0,0,0-.421-.419,30.611,30.611,0,0,1,6.876-3.884,35.719,35.719,0,0,1-5.576,1.386c-.254-.292-.593-.131-.9-.174h0c.36-.39.9-.37,1.327-.595.278-.147.76.041.83-.47,1.312-.474,2.743-.4,4.068-.865a33.888,33.888,0,0,1-6.228-.1c-.386-.5-.818-.38-1.261-.09a1.829,1.829,0,0,1-.885-.035c0-.129,0-.26-.01-.388.507-.4,1.079-.1,1.619-.145a19.449,19.449,0,0,1,3.859-.055,19.954,19.954,0,0,0,2.935.155.425.425,0,0,0-.274-.237c-3.009-.394-5.8-1.572-8.663-2.465a17.66,17.66,0,0,0-3.411-.987c-.078-.419-.325-.893.343-1.075-.17.433-.2.775.409.883.5.086.973.284,1.466.4,3.271.754,6.609,1.251,9.716,2.619l.356.165c.09.051.192.121.264,0,.014-.027-.076-.11-.119-.168l-.354-.192a30.593,30.593,0,0,1-5.335-3.185c.024-.11.051-.221.076-.331.452-.17.779.5,1.253.184,1.227.517,2.3,1.349,3.5,1.964-1.075-1.188-2.183-2.316-3.144-3.573-.033-.39.127-.589.534-.546a23.22,23.22,0,0,1,4.194,4.6,1.624,1.624,0,0,0,.231.161c.123-.131.072-.239-.071-.323a30.2,30.2,0,0,1-2.383-4.076c.292-.628-.487-1.022-.352-1.617.319.074.333.593.756.511h0c-.037.282-.057.554.35.56h0c-.018.264-.039.529.335.558.844,1.226,1.194,2.692,2,3.937a.818.818,0,0,0-.045-.523c-1.227-2.9-1.5-6.042-2.3-9.051-.043-.16-.11-.4.119-.45s.188.217.276.335c.223.3.186.66.309.981a24.824,24.824,0,0,1,1.979,7.154c.033.474.143.944.219,1.417l.27-.027a39.26,39.26,0,0,1,.106-8.585l.352-.035c.176.063.17.221.184.366a25.956,25.956,0,0,1,0,6.578c-.092.558-.131,1.126-.2,1.688l.233.045a28.575,28.575,0,0,1,1.547-5.854c.219.082.437-.323.654,0a.311.311,0,0,1-.043.117l-.09.691a4.78,4.78,0,0,1-.472,2.249c-.358.983-.754,1.952-1.135,2.927l.233.119a36.692,36.692,0,0,1,4.213-7.154.646.646,0,0,0,.38.4,33.3,33.3,0,0,1-3.408,6.163A57.389,57.389,0,0,1,391.682,293q-.084.548-.17,1.1a23.667,23.667,0,0,1-4.107,3.994l-.527.329-.282.239c-.1.039-.249.072-.151.2s.2.035.288-.045l.319-.241.531-.364,1.572-.938a1.222,1.222,0,0,0,1.421-.756,1.36,1.36,0,0,1,.715-.356c.409.386.971-.556,1.331.17a31.277,31.277,0,0,1-5.805,3.15,39.07,39.07,0,0,1,6.993-1.676c.382.229.031.466,0,.7l-.323.121a.888.888,0,0,0-1.29.409,13.9,13.9,0,0,1-4.44.871c-.818.035-.648.529-.679.887-.039.46.462.335.713.376a24.662,24.662,0,0,1,5.478,1.543l-.172.307a3.509,3.509,0,0,1-1.539-.235c-.327-.125-.664-.255-.969.055a25.484,25.484,0,0,1-3.32-1.212c-.145-.037-.3-.294-.421-.094s.143.231.282.29a39.083,39.083,0,0,1,6.378,3.857c-.427.491-.871-.325-1.3.014a30.038,30.038,0,0,1-5.11-2.988,50.356,50.356,0,0,1,4.744,5.151h-.9a30.522,30.522,0,0,1-4.268-4.209A44.626,44.626,0,0,1,389,308.207c-.237.119-.2.344-.2.552l-.321.059a31.258,31.258,0,0,1-3.083-5.771,2.027,2.027,0,0,0,.139.838,31.375,31.375,0,0,1,1.263,4.565c.425,2.177.883,4.348,1.349,6.516.047.215-.055.613.368.583.343-.031.546-.184.593-.613C389.2,313.988,389.83,313.755,390.656,314.294Zm-4.313-16.226c.115-.106.339-.231.178-.378s-.233.119-.341.2l-.192.231a.245.245,0,0,0,.356-.057Zm-3.792,4.988c.131-.061.276-.2.178-.3-.178-.159-.268.063-.36.186a.371.371,0,0,0-.117.123c-.2.2-.5.37-.444.769a.869.869,0,0,0,.576-.585Zm-1.163-4.618c.078.057.135.2.255.1s0-.184-.067-.262c-.2-.194-.364-.45-.74-.476C380.834,298.22,381.143,298.3,381.388,298.438Zm4.166,2.116a1.341,1.341,0,0,0-1.314-1.308,1.376,1.376,0,0,0-1.286,1.251,1.3,1.3,0,1,0,2.6.057Zm1.126,3.168c0-.568-.362-.785-.689-1.022a1.552,1.552,0,0,0,.679,1.022ZM382,298.98c.09-.063.219-.082.127-.2a.9.9,0,0,0-.262-.221c-.027-.014-.184.047-.094.166a3.309,3.309,0,0,0,.219.26Zm4.935,3.71c.1-.061.1-.108.027-.141a.288.288,0,0,0-.151-.031c-.025,0-.041.068-.059.1Z" transform="translate(-323.132 -235.183)" fill="#303292"/>
    <path id="Path_10782" data-name="Path 10782" d="M375.472,356.711c-2.091.462-4.182.92-6.269,1.392-.258.059-.642-.043-.679.409h-.217c.121-.3-.337-.6,0-.9.335.493.769.172,1.126.092,1.907-.429,3.726-1.151,5.582-1.754.56-.184,1.137-.319,1.707-.474-.07.511-.552.323-.83.47-.427.225-.967.2-1.327.595-.176.041-.384-.086-.55.1a.382.382,0,0,0,.552-.1C374.89,356.58,375.219,356.418,375.472,356.711Z" transform="translate(-322.358 -288.87)" fill="#313393"/>
    <path id="Path_10783" data-name="Path 10783" d="M407.127,289.141c-1.092-2.15-2.189-4.293-3.271-6.451-.2-.4-.386-.652-.836-.331.088-.575.517-.564.948-.548-.106.681.347,1.161.656,1.666.936,1.537,1.93,3.042,2.9,4.558-.423.082-.437-.437-.756-.511a.372.372,0,0,0-.178-.36l-.076-.039.074.041a.372.372,0,0,0,.18.358C406.64,288.119,407.419,288.513,407.127,289.141Z" transform="translate(-350.075 -230.255)" fill="#2e3192"/>
    <path id="Path_10784" data-name="Path 10784" d="M482.657,361.965c-2.657-.926-5.466-1.216-8.177-1.891a2.106,2.106,0,0,1-.39-.182c.3-.311.642-.18.969-.055a4.293,4.293,0,0,0,1.656.268c.065.012.016-.01-.035-.026-.1-.031-.113,0-.037.063a.375.375,0,0,0,.143.061s.029-.041-.072-.1a.354.354,0,0,1,.055-.341l5.928,1.926Z" transform="translate(-406.617 -292.228)" fill="#2a2c8f"/>
    <path id="Path_10785" data-name="Path 10785" d="M417.9,391.84c.613.409.883.2,1.09-.484.632-2.085.934-4.235,1.4-6.353.051-.231.129-.456.192-.683.458.517.012,1.022-.067,1.506-.059.372-.141.689.139.989a49.777,49.777,0,0,1-1.635,5.374C418.534,392.431,418.1,392.5,417.9,391.84Z" transform="translate(-361.913 -311.815)" fill="#313393"/>
    <path id="Path_10786" data-name="Path 10786" d="M477.45,312.868c.5-.249.922-.691,1.547-.646.012.074.02.145.037.217h.078l-.084-.188c.055-.041.11-.084.166-.123.021.043.041.086.063.127l-.047-.157a27.611,27.611,0,0,1,3.544-1.966,3.187,3.187,0,0,1,.718-.362c.511-.155.446-.442.231-.789.56.078.566.491.554.914a3.249,3.249,0,0,0-1.744.758c-1.271.76-2.5,1.588-3.724,2.392C478.421,312.318,477.851,313.26,477.45,312.868Z" transform="translate(-409.291 -251.875)" fill="#2a2c8f"/>
    <path id="Path_10787" data-name="Path 10787" d="M453.1,284.244q.977-3.017,1.958-6.034l.264.031c-.587,1.883-.928,3.82-1.351,5.74-.022.1-.143.178-.217.266C453.537,283.921,453.319,284.326,453.1,284.244Z" transform="translate(-389.918 -227.395)" fill="#2a2c8f"/>
    <path id="Path_10788" data-name="Path 10788" d="M406.764,389.085q-1.459,2.291-2.913,4.583c-.151.237-.444.427-.331.781-.243,0-.5.031-.54-.321a3.97,3.97,0,0,0,1.226-1.672c.648-1.155,1.227-2.342,1.84-3.516C406.238,389.224,406.514,389.085,406.764,389.085Z" transform="translate(-350.043 -315.491)" fill="#2e3191"/>
    <path id="Path_10789" data-name="Path 10789" d="M392.006,385.352a34.1,34.1,0,0,1-3.146,2.976c-.642.626-.638.7.255,1.022-.509.344-.863.1-1.075-.742a18.568,18.568,0,0,0,2.862-2.8c.217-.237.364-.556.716-.646A.382.382,0,0,0,392.006,385.352Z" transform="translate(-338.157 -312.483)" fill="#181b86"/>
    <path id="Path_10790" data-name="Path 10790" d="M487.286,377.207a59.837,59.837,0,0,0-5.356-2.929c.431-.339.875.476,1.3-.014l4.07,2.657Z" transform="translate(-412.855 -303.758)" fill="#2a2c8f"/>
    <path id="Path_10791" data-name="Path 10791" d="M472.943,282.7c-.5-.409-.828-.3-1.128.288-.595,1.167-1.259,2.3-1.895,3.446a.646.646,0,0,1-.38-.4c.709-1.118,1.4-2.249,2.142-3.346.3-.435.192-.672-.188-.907A1.57,1.57,0,0,1,472.943,282.7Z" transform="translate(-402.998 -230.235)" fill="#2a2c8f"/>
    <path id="Path_10792" data-name="Path 10792" d="M375.824,376.02c.4.262.679-.078.953-.235,1.169-.675,2.316-1.394,3.475-2.1a.685.685,0,0,1,.421.419c-1.316.689-2.635,1.374-3.943,2.077-.223.119-.658.108-.48.578C375.706,376.74,375.829,376.345,375.824,376.02Z" transform="translate(-328.431 -303.358)" fill="#2a2c8f"/>
    <path id="Path_10793" data-name="Path 10793" d="M489.77,332.818l3.769-.818v.294l-3.763,1.226C489.8,333.29,490.152,333.053,489.77,332.818Z" transform="translate(-419.092 -270.19)" fill="#2a2c8f"/>
    <path id="Path_10794" data-name="Path 10794" d="M373.609,348.453a24.645,24.645,0,0,1-3.939-.2l.012-.219,3.917.027C373.6,348.194,373.607,348.324,373.609,348.453Z" transform="translate(-323.542 -282.943)" fill="#181b86"/>
    <path id="Path_10795" data-name="Path 10795" d="M492.41,399.517c.282-.223.3.137.446.2.2.1.26.536.593.347.241-.137.491-.339.356-.7.39-.012.5.2.288.484-.274.36-.546.779-1.1.75C493.117,400.071,492.4,399.987,492.41,399.517Z" transform="translate(-421.192 -323.787)" fill="#2a2c8f"/>
    <path id="Path_10796" data-name="Path 10796" d="M405.61,414.469c.341.139.613.29.993-.069.613-.57,1.214-.288,1.523.613-.544-.482-1.069-.7-1.746-.147C406.053,415.129,405.71,414.915,405.61,414.469Z" transform="translate(-352.135 -335.511)" fill="#2e3191"/>
    <path id="Path_10797" data-name="Path 10797" d="M443.136,280.854a10.6,10.6,0,0,1-.035,2.668l-.352.035q.067-1.351.133-2.706Z" transform="translate(-381.684 -229.495)" fill="#181b86"/>
    <path id="Path_10798" data-name="Path 10798" d="M498.108,393.285a.783.783,0,0,1-.125-1.116.918.918,0,0,1,1.163-.386,1.472,1.472,0,0,0,.427.029c-.031.139-.053.345-.237.288C498.192,391.748,498.145,392.5,498.108,393.285Z" transform="translate(-425.484 -317.692)" fill="#2a2c8f"/>
    <path id="Path_10799" data-name="Path 10799" d="M375.547,306.37c-.11.327-.6.644-.029.991l-.025.249c-.648-.4-.777.039-.867.538-.143-.018-.4-.078-.321-.2C374.67,307.39,374.825,306.652,375.547,306.37Z" transform="translate(-327.22 -249.799)" fill="#303292"/>
    <path id="Path_10800" data-name="Path 10800" d="M441.642,408.793l-.092-2.418c.288-.186.352,0,.368.231a9.358,9.358,0,0,1-.018,2.191Z" transform="translate(-380.729 -329.301)" fill="#181b86"/>
    <path id="Path_10801" data-name="Path 10801" d="M500.693,302.312a.853.853,0,0,1-1.29-.256.815.815,0,0,1,.182-1.226C499.411,301.731,499.9,302.138,500.693,302.312Z" transform="translate(-426.599 -245.391)" fill="#2a2c8f"/>
    <path id="Path_10802" data-name="Path 10802" d="M398.624,285.25c.278,1.2.108,1.5-.914,1.621.423-.364.936-.674.613-1.39C398.248,285.305,398.479,285.275,398.624,285.25Z" transform="translate(-345.85 -232.996)" fill="#2e3192"/>
    <path id="Path_10803" data-name="Path 10803" d="M485.831,287.651c-.628-.409-.145-.955-.2-1.431.264,0,.358.086.294.38A8.531,8.531,0,0,0,485.831,287.651Z" transform="translate(-415.699 -233.768)" fill="#2a2c8f"/>
    <path id="Path_10804" data-name="Path 10804" d="M372.489,322.337c-.282.458-.818.086-1.159.356C371.5,321.838,372.08,322.39,372.489,322.337Z" transform="translate(-324.863 -262.401)" fill="#303292"/>
    <path id="Path_10805" data-name="Path 10805" d="M376.69,315.87a.813.813,0,0,1,.151,1.341Z" transform="translate(-329.127 -257.357)" fill="#303292"/>
    <path id="Path_10806" data-name="Path 10806" d="M478.523,413.155c.106-.341-.294-.57-.2-.908.3-.127.309.161.364.3a.344.344,0,0,0,.532.217C479.191,413.261,478.8,413.114,478.523,413.155Z" transform="translate(-409.971 -334.009)" fill="#2a2c8f"/>
    <path id="Path_10807" data-name="Path 10807" d="M370.65,372.44c.356.18.84-.1,1.133.313C371.347,372.861,370.834,373.243,370.65,372.44Z" transform="translate(-324.322 -302.363)" fill="#2a2c8f"/>
    <path id="Path_10808" data-name="Path 10808" d="M485.18,405.752a.787.787,0,0,1,1.314-.014Z" transform="translate(-415.441 -328.578)" fill="#2a2c8f"/>
    <path id="Path_10809" data-name="Path 10809" d="M395.92,404.282a.755.755,0,0,1,.942.546A1.5,1.5,0,0,1,395.92,404.282Z" transform="translate(-344.426 -327.673)" fill="#181b86"/>
    <path id="Path_10810" data-name="Path 10810" d="M474.995,416.952c.335.292.587-.086.883-.112a.5.5,0,0,1-.472.509C475.118,417.376,474.979,417.241,474.995,416.952Z" transform="translate(-407.336 -337.688)" fill="#303292"/>
    <path id="Path_10811" data-name="Path 10811" d="M376.225,374.3a.806.806,0,0,1,.049,1.2C376.362,375.093,376.011,374.709,376.225,374.3Z" transform="translate(-328.701 -303.843)" fill="#2a2c8f"/>
    <path id="Path_10812" data-name="Path 10812" d="M389.488,293.861c-.2-.012-.3-.292-.538-.178a.495.495,0,0,1,.556-.54C389.259,293.375,389.756,293.628,389.488,293.861Z" transform="translate(-338.879 -239.273)" fill="#2a2c8f"/>
    <path id="Path_10813" data-name="Path 10813" d="M373.8,381.72l.184.7c-.333,0-.454-.221-.489-.489C373.474,381.738,373.666,381.742,373.8,381.72Z" transform="translate(-326.587 -309.746)" fill="#2a2c8f"/>
    <path id="Path_10814" data-name="Path 10814" d="M393.843,290.492c-.172-.049-.317-.221-.523-.123.027-.155-.031-.4.2-.382C393.817,290,393.845,290.255,393.843,290.492Z" transform="translate(-342.358 -236.765)" fill="#2e3192"/>
    <path id="Path_10815" data-name="Path 10815" d="M496.54,295.415c-.2-.182.139-.362,0-.542a.5.5,0,0,1,.534.552C496.9,295.286,496.718,295.44,496.54,295.415Z" transform="translate(-424.426 -240.651)" fill="#2a2c8f"/>
    <path id="Path_10816" data-name="Path 10816" d="M408.777,279.67l-.537.182c.016-.2.076-.4.3-.446C408.731,279.365,408.749,279.535,408.777,279.67Z" transform="translate(-354.228 -228.341)" fill="#2e3192"/>
    <path id="Path_10817" data-name="Path 10817" d="M487.626,293.462a.642.642,0,0,1-.556-.307C487.317,293.141,487.583,293.1,487.626,293.462Z" transform="translate(-416.944 -239.278)" fill="#2a2c8f"/>
    <path id="Path_10818" data-name="Path 10818" d="M510.939,313.888l-.229-.521c.386-.018.388.251.386.521Z" transform="translate(-435.752 -255.364)" fill="#2a2c8f"/>
    <path id="Path_10819" data-name="Path 10819" d="M491.58,407.07l.354.012c-.047.094-.084.258-.145.268C491.59,407.383,491.6,407.2,491.58,407.07Z" transform="translate(-420.532 -329.915)" fill="#2a2c8f"/>
    <path id="Path_10820" data-name="Path 10820" d="M500.952,299.663l-.012-.313c.139.014.331-.025.307.2C501.242,299.6,501.054,299.624,500.952,299.663Z" transform="translate(-427.979 -244.214)" fill="#2a2c8f"/>
    <path id="Path_10821" data-name="Path 10821" d="M368.79,370.26h.217l.131.358a.319.319,0,0,1-.347-.358Z" transform="translate(-322.84 -300.629)" fill="#2a2c8f"/>
    <path id="Path_10822" data-name="Path 10822" d="M400.192,408.91a.357.357,0,0,1-.123.39C400.049,409.149,399.828,408.928,400.192,408.91Z" transform="translate(-347.66 -331.379)" fill="#181b86"/>
    <path id="Path_10823" data-name="Path 10823" d="M400.34,412.4l.425.333C400.516,412.76,400.36,412.668,400.34,412.4Z" transform="translate(-347.943 -334.155)" fill="#2e3191"/>
    <path id="Path_10824" data-name="Path 10824" d="M399.384,411.53l.022.18-.227-.08Z" transform="translate(-347.02 -333.463)" fill="#181b86"/>
    <path id="Path_10825" data-name="Path 10825" d="M484.18,413.4a.446.446,0,0,1,.086-.155l.188.1Z" transform="translate(-414.645 -334.823)" fill="#2a2c8f"/>
    <path id="Path_10826" data-name="Path 10826" d="M512.6,315.92l.076.041Z" transform="translate(-437.256 -257.397)" fill="#2a2c8f"/>
    <path id="Path_10827" data-name="Path 10827" d="M653.088,469.46l-.031,11.831c-.311-.2-.2-.538-.2-.818q-.012-5.11,0-10.22C652.851,469.979,652.726,469.638,653.088,469.46Z" transform="translate(-548.821 -379.551)" fill="#181b86"/>
    <path id="Path_10828" data-name="Path 10828" d="M170.18,478.147a.321.321,0,0,1,.39.037l-.249.178Z" transform="translate(-164.83 -386.423)" fill="#fefefe"/>
    <path id="Path_10829" data-name="Path 10829" d="M176.29,496.33c.151-.045.327-.268.444-.057.08.143-.164.19-.282.257Z" transform="translate(-169.691 -400.813)" fill="#fefefe"/>
    <path id="Path_10830" data-name="Path 10830" d="M206.487,524.159c-.108.047-.18.1-.249.1-.131,0-.2-.092-.137-.215a.249.249,0,0,1,.215-.061C206.373,524,206.414,524.081,206.487,524.159Z" transform="translate(-193.388 -422.926)" fill="#2e3191"/>
    <path id="Path_10831" data-name="Path 10831" d="M199.417,534.218c-.115-.065-.29-.055-.307-.237,0-.029.067-.1.1-.092.182.022.17.2.225.315Z" transform="translate(-187.846 -430.811)" fill="#2e3191"/>
    <path id="Path_10832" data-name="Path 10832" d="M188.234,519.51l.063.063a.461.461,0,0,1-.121.055c-.014,0-.039-.035-.057-.055Z" transform="translate(-179.103 -419.371)" fill="#fefefe"/>
    <path id="Path_10833" data-name="Path 10833" d="M230.863,567.633l.121-.143c.037.055.188.041.108.167-.043.07-.1.133-.147.2C230.9,567.8,230.763,567.813,230.863,567.633Z" transform="translate(-213.08 -457.543)" fill="#fefefe"/>
    <path id="Path_10834" data-name="Path 10834" d="M226.739,561.5c-.074.125-.1.409-.3.257-.17-.125.037-.27.168-.362A.588.588,0,0,0,226.739,561.5Z" transform="translate(-209.539 -452.698)" fill="#fefefe"/>
    <path id="Path_10835" data-name="Path 10835" d="M227.51,560.994l.137-.1v.2A.586.586,0,0,1,227.51,560.994Z" transform="translate(-210.441 -452.292)" fill="#fefefe"/>
    <path id="Path_10836" data-name="Path 10836" d="M256,579.123l.256-.294-.012-.018a.3.3,0,0,1-.108.433Z" transform="translate(-233.107 -466.549)" fill="#f6f6fa"/>
    <path id="Path_10837" data-name="Path 10837" d="M257.242,578.709a.572.572,0,0,1,.074-.049.351.351,0,0,1,.045.014l-.131.018Z" transform="translate(-234.086 -466.43)" fill="#f6f6fa"/>
    <path id="Path_10838" data-name="Path 10838" d="M380.17,311.469l.025-.249c1.885,1.186,3.943,2.044,5.891,3.117-.474.321-.8-.354-1.253-.184l-.041-.076-.035.035.076.041c-.024.11-.051.221-.076.331Z" transform="translate(-331.896 -253.657)" fill="#2a2c8f"/>
    <path id="Path_10839" data-name="Path 10839" d="M396.189,301.491a56.834,56.834,0,0,1-3.769-4.315c.059-.067.129-.123.2-.037,1.269,1.372,2.751,2.516,4.088,3.806C396.316,300.9,396.157,301.1,396.189,301.491Z" transform="translate(-341.642 -242.42)" fill="#2a2c8f"/>
    <path id="Path_10840" data-name="Path 10840" d="M466.683,394.259l-3.013-4.609.321-.059h0l.178.178c.039.174.073.352.3.145a.1.1,0,0,1,.041.135c-.092.2.021.19.157.153A12.382,12.382,0,0,1,466.683,394.259Z" transform="translate(-398.327 -316.008)" fill="#2a2c8f"/>
    <path id="Path_10841" data-name="Path 10841" d="M478.57,301.9a25.961,25.961,0,0,1,3.066-2.672c.143.09.086.186,0,.274L478.4,303Q478.486,302.453,478.57,301.9Z" transform="translate(-410.046 -244.118)" fill="#2a2c8f"/>
    <path id="Path_10842" data-name="Path 10842" d="M476.679,385.19c.656.717,1.321,1.431,1.963,2.154.12.137.429.262.186.542l-3.048-2.694Z" transform="translate(-407.962 -312.507)" fill="#2a2c8f"/>
    <path id="Path_10843" data-name="Path 10843" d="M440.7,365.446a16.062,16.062,0,0,1,.343-3.046l.409.016q-.012.965-.029,1.936c-.325-.115-.382.043-.388.335S441.187,365.362,440.7,365.446Z" transform="translate(-380.04 -294.376)" fill="#181b86"/>
    <path id="Path_10844" data-name="Path 10844" d="M402.751,371.112l-1.431.713A1.114,1.114,0,0,1,402.751,371.112Z" transform="translate(-348.722 -301.258)" fill="#2a2c8f"/>
    <path id="Path_10845" data-name="Path 10845" d="M467,330.526a4.752,4.752,0,0,1,1.421-.756A1.222,1.222,0,0,1,467,330.526Z" transform="translate(-400.977 -268.415)" fill="#2a2c8f"/>
    <path id="Path_10846" data-name="Path 10846" d="M418.86,382a3.691,3.691,0,0,1,.672-1.286A1.234,1.234,0,0,1,418.86,382Z" transform="translate(-362.677 -308.943)" fill="#2e3191"/>
    <path id="Path_10847" data-name="Path 10847" d="M483.2,339.516l-1.29.409A.9.9,0,0,1,483.2,339.516Z" transform="translate(-412.839 -276.07)" fill="#2a2c8f"/>
    <path id="Path_10848" data-name="Path 10848" d="M394.531,349.386l-1.261-.09C393.714,349.006,394.145,348.889,394.531,349.386Z" transform="translate(-342.318 -283.751)" fill="#181b86"/>
    <path id="Path_10849" data-name="Path 10849" d="M452.159,360.942a1.551,1.551,0,0,1-.689-1.022C451.8,360.157,452.155,360.374,452.159,360.942Z" transform="translate(-388.621 -292.402)" fill="#f6f6fa"/>
    <path id="Path_10850" data-name="Path 10850" d="M465.461,386.89c.112.276.476.468.282.846l-.315-.117-.178-.178h0C465.254,387.233,465.223,387.009,465.461,386.89Z" transform="translate(-399.584 -313.86)" fill="#2a2c8f"/>
    <path id="Path_10851" data-name="Path 10851" d="M429.946,372.92a2.479,2.479,0,0,1-.517.932C429.4,373.433,429.409,373.034,429.946,372.92Z" transform="translate(-371.077 -302.745)" fill="#2e3191"/>
    <path id="Path_10852" data-name="Path 10852" d="M422.11,377.026a2.539,2.539,0,0,1,.546-.946C422.668,376.507,422.7,376.947,422.11,377.026Z" transform="translate(-365.263 -305.259)" fill="#2e3191"/>
    <path id="Path_10853" data-name="Path 10853" d="M427.282,377.44a2.074,2.074,0,0,1-.562.889C426.728,377.918,426.712,377.493,427.282,377.44Z" transform="translate(-368.93 -306.341)" fill="#2e3191"/>
    <path id="Path_10854" data-name="Path 10854" d="M431.612,361.9a.869.869,0,0,1-.576.585c-.053-.409.243-.558.444-.769Z" transform="translate(-372.359 -293.835)" fill="#f6f6fa"/>
    <path id="Path_10855" data-name="Path 10855" d="M426.852,336.58c-.235-.141-.544-.221-.552-.64.376.026.54.282.74.476Z" transform="translate(-368.596 -273.324)" fill="#f7f6fa"/>
    <path id="Path_10856" data-name="Path 10856" d="M425.309,381.75a1.022,1.022,0,0,1-.364.548C424.929,382.022,424.915,381.752,425.309,381.75Z" transform="translate(-367.513 -309.77)" fill="#2e3191"/>
    <path id="Path_10857" data-name="Path 10857" d="M455.74,308.31c.2.262.241.5-.09.691Z" transform="translate(-391.947 -251.342)" fill="#2a2c8f"/>
    <path id="Path_10858" data-name="Path 10858" d="M424.979,312.24a1.022,1.022,0,0,1,.35.56C424.922,312.8,424.943,312.522,424.979,312.24Z" transform="translate(-367.531 -254.469)" fill="#2e3192"/>
    <path id="Path_10859" data-name="Path 10859" d="M423.553,384.39l-.366.544C423.171,384.66,423.16,384.388,423.553,384.39Z" transform="translate(-366.115 -311.871)" fill="#2e3191"/>
    <path id="Path_10860" data-name="Path 10860" d="M426.7,314.94a.986.986,0,0,1,.335.558C426.659,315.469,426.68,315.2,426.7,314.94Z" transform="translate(-368.906 -256.617)" fill="#2e3192"/>
    <path id="Path_10861" data-name="Path 10861" d="M421.8,387l-.362.548C421.423,387.276,421.409,387,421.8,387Z" transform="translate(-364.725 -313.947)" fill="#2e3191"/>
    <path id="Path_10862" data-name="Path 10862" d="M456.565,337.392l-.531.364-.174-.164.5-.372Z" transform="translate(-392.114 -274.343)" fill="#f6f6fa"/>
    <path id="Path_10863" data-name="Path 10863" d="M436.82,362.1c.067-.184.133-.531.321-.427.288.159-.076.376-.116.578Z" transform="translate(-376.966 -293.784)" fill="#f7f6fa"/>
    <path id="Path_10864" data-name="Path 10864" d="M431.419,393.764l-.147.427a.366.366,0,0,1-.147-.392C431.18,393.641,431.315,393.715,431.419,393.764Z" transform="translate(-372.426 -319.28)" fill="#313393"/>
    <path id="Path_10865" data-name="Path 10865" d="M412.192,368.129l-.362.182C411.865,368.063,411.865,367.781,412.192,368.129Z" transform="translate(-357.084 -298.804)" fill="#2a2c8f"/>
    <path id="Path_10866" data-name="Path 10866" d="M417.4,365.476l-.354.194C417.079,365.431,417.095,365.18,417.4,365.476Z" transform="translate(-361.237 -296.716)" fill="#2a2c8f"/>
    <path id="Path_10867" data-name="Path 10867" d="M455.874,354.2c-.139-.059-.409-.061-.282-.29s.276.057.421.094Z" transform="translate(-391.874 -287.549)" fill="#f7f6fa"/>
    <path id="Path_10868" data-name="Path 10868" d="M430.922,340.1a3.3,3.3,0,0,1-.229-.249c-.09-.119.068-.18.094-.166a.9.9,0,0,1,.262.221C431.143,340.015,431.012,340.034,430.922,340.1Z" transform="translate(-372.069 -276.3)" fill="#f7f6fa"/>
    <path id="Path_10869" data-name="Path 10869" d="M430.72,357.579c.147-.09.27-.409.456-.157.114.155-.172.237-.3.331Z" transform="translate(-372.113 -290.34)" fill="#f6f6fa"/>
    <path id="Path_10870" data-name="Path 10870" d="M455.344,359.2l-.184-.067c.018-.037.035-.1.059-.1a.288.288,0,0,1,.151.031C455.448,359.091,455.448,359.138,455.344,359.2Z" transform="translate(-391.557 -291.692)" fill="#f7f6fa"/>
    <path id="Path_10871" data-name="Path 10871" d="M433.8,360.18c.092-.123.182-.345.36-.186.1.086-.047.235-.178.3Z" transform="translate(-374.563 -292.417)" fill="#f6f6fa"/>
    <path id="Path_10872" data-name="Path 10872" d="M452.44,335.421c.108-.092.153-.384.341-.2s-.063.272-.178.378Z" transform="translate(-389.393 -272.703)" fill="#f7f6fa"/>
    <path id="Path_10873" data-name="Path 10873" d="M451.856,336.608a.245.245,0,0,1-.356.063l.192-.231Z" transform="translate(-388.645 -273.722)" fill="#f7f6fa"/>
    <path id="Path_10874" data-name="Path 10874" d="M434.149,337.63c.143.084.2.192.072.323a1.6,1.6,0,0,1-.231-.161Z" transform="translate(-374.714 -274.669)" fill="#f6f6fa"/>
    <path id="Path_10875" data-name="Path 10875" d="M454.48,339.279l.282-.239.174.164-.319.237Z" transform="translate(-391.016 -275.791)" fill="#f6f6fa"/>
    <path id="Path_10876" data-name="Path 10876" d="M453.928,340.379c-.088.08-.2.157-.288.045s.055-.172.151-.2Z" transform="translate(-390.327 -276.729)" fill="#f6f6fa"/>
    <path id="Path_10877" data-name="Path 10877" d="M428.346,343.12l-.356-.166.147-.2.354.192Z" transform="translate(-369.941 -278.742)" fill="#f6f6fa"/>
    <path id="Path_10878" data-name="Path 10878" d="M429.138,338.27c.063.078.188.155.067.262s-.178-.041-.256-.1Z" transform="translate(-370.704 -275.178)" fill="#f7f6fa"/>
    <path id="Path_10879" data-name="Path 10879" d="M429.72,358.685l.2-.125.157.174-.215.133Z" transform="translate(-371.317 -291.321)" fill="#f6f6fa"/>
    <path id="Path_10880" data-name="Path 10880" d="M433.23,361.243a.37.37,0,0,1,.116-.123l.182.11-.166.2Z" transform="translate(-374.11 -293.357)" fill="#f6f6fa"/>
    <path id="Path_10881" data-name="Path 10881" d="M429.875,343.71c.043.057.133.141.119.168-.071.127-.174.057-.264,0Z" transform="translate(-371.325 -279.506)" fill="#f6f6fa"/>
    <path id="Path_10882" data-name="Path 10882" d="M462.229,348.34l-.509-.088v-.507l1.245-.027c.3.264.573.362.726-.139h.722c.045.26.123.427.37.137h1.588c.065.172.2.2.372.219a.368.368,0,0,1-.427.345,11.955,11.955,0,0,1-3.16-.178C462.838,348.146,462.462,347.966,462.229,348.34Z" transform="translate(-396.776 -282.585)" fill="#2e3191"/>
    <path id="Path_10883" data-name="Path 10883" d="M468.749,348.523a11.95,11.95,0,0,0,3.16.178.368.368,0,0,0,.427-.345c0-.07,0-.137,0-.2.309,0,.648-.155.9.159v.556a16.093,16.093,0,0,1-4.487,0C468.747,348.75,468.749,348.637,468.749,348.523Z" transform="translate(-402.368 -283.009)" fill="#313393"/>
    <path id="Path_10884" data-name="Path 10884" d="M490.69,349.509v-.556a11.722,11.722,0,0,0,2.126-.01c.172-.018.47-.088.476.219,0,.239-.247.2-.409.2A8.932,8.932,0,0,1,490.69,349.509Z" transform="translate(-419.824 -283.653)" fill="#181b86"/>
    <path id="Path_10885" data-name="Path 10885" d="M465.146,350.107v.339c-.311-.014-.638.125-.926-.1C464.451,349.975,464.827,350.154,465.146,350.107Z" transform="translate(-398.765 -284.593)" fill="#181b86"/>
    <path id="Path_10886" data-name="Path 10886" d="M459.057,348.39v.507h-.531c-.051-.166-.1-.329-.155-.495Z" transform="translate(-394.111 -283.229)" fill="#181b86"/>
    <path id="Path_10887" data-name="Path 10887" d="M468.546,347.426c-.153.5-.425.409-.726.139C468.014,347.271,468.3,347.43,468.546,347.426Z" transform="translate(-401.629 -282.431)" fill="#181b86"/>
    <path id="Path_10888" data-name="Path 10888" d="M457.244,348.479c.051.166.1.329.155.495-.2,0-.409-.063-.439-.276C456.935,348.546,457.086,348.473,457.244,348.479Z" transform="translate(-392.987 -283.3)" fill="#303292"/>
    <path id="Path_10889" data-name="Path 10889" d="M475.27,347.62c-.247.29-.325.123-.37-.137C475.053,347.45,475.2,347.426,475.27,347.62Z" transform="translate(-407.262 -282.49)" fill="#181b86"/>
    <path id="Path_10890" data-name="Path 10890" d="M484.862,348.234v.2c-.157-.014-.307-.047-.372-.219Z" transform="translate(-414.891 -283.094)" fill="#181b86"/>
    <path id="Path_10891" data-name="Path 10891" d="M504.99,349.323l-.065.112c-.018-.018-.057-.043-.055-.057a.576.576,0,0,1,.057-.119Z" transform="translate(-431.105 -283.922)" fill="#181b86"/>
    <path id="Path_10892" data-name="Path 10892" d="M440.45,372.9c.487-.084.331-.474.337-.758s.063-.45.388-.335l-.014-.01.162.2.018.356a2.249,2.249,0,0,0,0,1.979c-.427,1.106.155,2.314-.337,3.414-.5-.284.157-1.065-.544-1.263-.031-.464-.059-.93-.09-1.4a.733.733,0,0,0,0-1.155Z" transform="translate(-379.79 -301.831)" fill="#2e3191"/>
    <path id="Path_10893" data-name="Path 10893" d="M440.651,394.86c.7.2.047.979.544,1.263-.153.194.26.746-.394.613A4.667,4.667,0,0,1,440.651,394.86Z" transform="translate(-379.986 -320.2)" fill="#181b86"/>
    <path id="Path_10894" data-name="Path 10894" d="M444.207,376.639a2.248,2.248,0,0,1,0-1.979,7.549,7.549,0,0,1,0,1.979Z" transform="translate(-382.661 -304.13)" fill="#181b86"/>
    <path id="Path_10895" data-name="Path 10895" d="M444.372,372.124l-.161-.2C444.318,371.947,444.4,372,444.372,372.124Z" transform="translate(-382.845 -301.95)" fill="#181b86"/>
    <path id="Path_10896" data-name="Path 10896" d="M466.12,390.46l.315.117-.02.029C466.194,390.812,466.159,390.634,466.12,390.46Z" transform="translate(-400.277 -316.7)" fill="#303292"/>
    <path id="Path_10897" data-name="Path 10897" d="M467.8,391.983c-.137.037-.249.047-.157-.153C467.687,391.881,467.746,391.932,467.8,391.983Z" transform="translate(-401.459 -317.79)" fill="#303292"/>
    <path id="Path_10898" data-name="Path 10898" d="M490.64,398.292l.2-.012-.012.2C490.68,398.5,490.623,398.427,490.64,398.292Z" transform="translate(-419.782 -322.921)" fill="#2a2c8f"/>
    <path id="Path_10899" data-name="Path 10899" d="M491.511,399.21h.2a1.406,1.406,0,0,1-.01.2C491.542,399.431,491.488,399.359,491.511,399.21Z" transform="translate(-420.473 -323.661)" fill="#2a2c8f"/>
    <path id="Path_10900" data-name="Path 10900" d="M439.836,382.38a.731.731,0,0,1,0,1.155A1.351,1.351,0,0,1,439.836,382.38Z" transform="translate(-379.262 -310.271)" fill="#181b86"/>
    <path id="Path_10901" data-name="Path 10901" d="M494.15,298.246c.051-.2.129-.366.372-.184C494.471,298.27,494.4,298.43,494.15,298.246Z" transform="translate(-422.577 -243.126)" fill="#2a2c8f"/>
    <path id="Path_10902" data-name="Path 10902" d="M485.051,324.889l.084.188h-.078c-.016-.072-.025-.143-.037-.217Z" transform="translate(-415.313 -264.509)" fill="#303292"/>
    <path id="Path_10903" data-name="Path 10903" d="M495.87,297.614l-.01-.2.2.01C496.093,297.586,496.009,297.627,495.87,297.614Z" transform="translate(-423.937 -242.67)" fill="#2a2c8f"/>
    <path id="Path_10904" data-name="Path 10904" d="M486,324.22l.047.157c-.023-.041-.043-.084-.063-.127Z" transform="translate(-416.077 -264)" fill="#303292"/>
    <path id="Path_10905" data-name="Path 10905" d="M391.721,296.742c-.151.027-.2-.057-.19-.19l.2-.012Z" transform="translate(-340.933 -241.978)" fill="#2a2c8f"/>
    <path id="Path_10906" data-name="Path 10906" d="M397.322,360.626a.382.382,0,0,1-.552.1c.166-.19.374-.063.55-.1Z" transform="translate(-345.102 -292.959)" fill="#303292"/>
    <path id="Path_10907" data-name="Path 10907" d="M420.682,308.388a.372.372,0,0,1-.18-.358h0A.372.372,0,0,1,420.682,308.388Z" transform="translate(-363.982 -251.119)" fill="#303292"/>
    <path id="Path_10908" data-name="Path 10908" d="M420.224,307.841l-.073-.041.076.039Z" transform="translate(-363.703 -250.936)" fill="#303292"/>
    <path id="Path_10909" data-name="Path 10909" d="M486.511,361.561c-.014.025-.035.068-.043.065a.378.378,0,0,1-.143-.061c-.076-.066-.059-.094.037-.063C486.413,361.518,486.462,361.541,486.511,361.561Z" transform="translate(-416.314 -293.651)" fill="#303292"/>
    <path id="Path_10910" data-name="Path 10910" d="M258.684,295.674l-.074-.041.033-.033Z" transform="translate(-205.747 -235.178)" fill="#303292"/>
    <path id="Path_10911" data-name="Path 10911" d="M465.25,389.59l.178.178Z" transform="translate(-399.584 -316.008)" fill="#303292"/>
  </g>
</svg>
