<svg xmlns="http://www.w3.org/2000/svg" width="61.291" height="55.493" viewBox="0 0 61.291 55.493">
  <g id="Badminton_Association_of_India" data-name="Badminton Association of India" transform="translate(0 0)">
    <path id="Path_10727" data-name="Path 10727" d="M346.364,56.13a17.5,17.5,0,0,1-1.274,1.954c.046-.855.245-1.606.341-2.372a131.467,131.467,0,0,1,2.862-14.249,35.09,35.09,0,0,1,3.244-8.79,9.576,9.576,0,0,1,1.757-2.341,2.174,2.174,0,0,1,1.639-.722,2.253,2.253,0,0,1,1.72,1.53,6.129,6.129,0,0,1,.03,2.7,28.609,28.609,0,0,1-1.74,5.836,87.725,87.725,0,0,1-4.741,9.757q-.6,1.108-1.191,2.221c-.045.089-.13.167-.087.284v-.01c-.087.02-.152.053-.082.158v-.005c-.1-.01-.107.044-.087.12a.261.261,0,0,0-.069.034A8.37,8.37,0,0,0,346.364,56.13Z" transform="translate(-327.524 -29.609)" fill="#f37920"/>
    <path id="Path_10728" data-name="Path 10728" d="M472.24,241.3a2.428,2.428,0,0,1,.48-.664c.08-.108.213-.184.217-.342a11.161,11.161,0,0,0,1.922-1.4,8.442,8.442,0,0,0,1.935-3.049c2.235-2.387,4.449-4.8,6.791-7.073a35.3,35.3,0,0,1,7.17-5.609,8.518,8.518,0,0,1,2.859-1.066,1.719,1.719,0,0,1,1.957.724,2.288,2.288,0,0,1,.214,2.052,8.1,8.1,0,0,1-1.638,2.47,32.844,32.844,0,0,1-4.323,3.768,90.009,90.009,0,0,1-8.412,5.375c-2.48,1.47-5.031,2.8-7.6,4.1a6.717,6.717,0,0,1-1.551.728Z" transform="translate(-443.566 -204.958)" fill="#01974a"/>
    <path id="Path_10729" data-name="Path 10729" d="M428.65,85.392c1.3-2.913,2.477-5.89,3.986-8.706a34.187,34.187,0,0,1,4.151-6.378,9.127,9.127,0,0,1,2.263-1.96,1.785,1.785,0,0,1,2.027-.129,2.248,2.248,0,0,1,1.008,2.139A10.4,10.4,0,0,1,441,73.9a47.955,47.955,0,0,1-5.5,8.447c-.929,1.171-1.883,2.32-2.813,3.489A8.052,8.052,0,0,0,428.65,85.392Z" transform="translate(-403.784 -64.548)" fill="#f37820"/>
    <path id="Path_10730" data-name="Path 10730" d="M508.13,150.539c1.071-1.658,2.1-3.349,3.223-4.965a36.306,36.306,0,0,1,6.361-7.332,8.538,8.538,0,0,1,2.359-1.421c1.922-.745,2.9.99,2.659,2.315a8.481,8.481,0,0,1-1.449,3.231,46.162,46.162,0,0,1-6.828,7.7q-2.271,2.115-4.625,4.138A8.59,8.59,0,0,0,508.13,150.539Z" transform="translate(-476.321 -127.134)" fill="#01974a"/>
    <path id="Path_10731" data-name="Path 10731" d="M274.9,425.029a7.368,7.368,0,0,1-5.711-2.878,5.869,5.869,0,0,1-1.522-5.236,9.661,9.661,0,0,1,1.67-3.886c.52-.7.508-.711,1.208-.178q5.276,4.025,10.558,8.046c.262.2.294.311.087.588a8.622,8.622,0,0,1-5.273,3.464A6.434,6.434,0,0,1,274.9,425.029Z" transform="translate(-256.748 -378.463)" fill="#2e3191"/>
    <path id="Path_10732" data-name="Path 10732" d="M370.328,265.784a8.591,8.591,0,0,1,1.7,3.666,8.42,8.42,0,0,1-.277,3.815,8.511,8.511,0,0,1-1.935,3.049,11.4,11.4,0,0,1-1.922,1.4,9.159,9.159,0,0,1-2.8.705,7.6,7.6,0,0,1-7.809-9.1c.028-.14.052-.281.079-.421a8.345,8.345,0,0,1,2.331-3.9.261.261,0,0,1,.069-.034c.045-.027.087-.055.087-.12v.005c.087-.02.169-.044.082-.158v.01c.047.089.1.046.153.007a8.05,8.05,0,0,1,3.313-1.491,7.493,7.493,0,0,1,6.943,2.561Zm-9.421,10.6h0c.009.116.075.156.182.145a.041.041,0,0,1,.049.026c.015.153.127.139.231.139h0c.043.194.19.287.329.171.289-.242.514-.146.746.064v.229c.087.287.273.252.479.152.143.024.27.178.43-.029.3-.389.567-.343.759.127.064.157.16.136.262.147.164.019.132-.114.141-.209.013-.139.022-.28.031-.42h.11c.038.2-.047.423.033.631.275-.1.275-.1.383-.272a.378.378,0,0,1,.679-.04c.133.22.277.163.445.149.236.06.544.113.586-.183.059-.41.282-.456.592-.452l.057.067c-.006.125.053.184.175.172a.215.215,0,0,0,.2-.221h.005c.12-.018.286.046.294-.171l.126-.076.117-.025-.08-.043c-.054-.187-.175-.382.051-.543l.562-.006h0c.01.058,0,.136.087.122.026,0,.042-.076.062-.116l.17-.152c.237.012.349-.17.47-.326.087-.12.044-.216-.123-.211l.005,0c.016-.339.036-.668.524-.515.079.025.087-.065.1-.125l.146-.291.007-.121c.216-.115.3-.228.093-.46a.4.4,0,0,1-.086-.429.384.384,0,0,1,.36-.241c.277-.013.3-.155.309-.362l.013-.119c.131-.168.193-.3-.044-.462-.322-.221-.262-.587.121-.731a.257.257,0,0,0,.2-.311c-.023-.171-.175-.108-.278-.124-.245-.037-.507.051-.77-.089.055-.042.073-.068.092-.068.241,0,.483.012.724.02.1,0,.218.059.238-.1a.241.241,0,0,0-.137-.282c-.48-.253-.5-.444-.079-.8.128-.109.07-.205.052-.308-.024-.133-.133-.089-.216-.076-.2.041-.4.089-.6.134v-.131c.16-.038.321-.071.478-.115.1-.027.257.006.25-.161s-.087-.228-.262-.249c-.407-.048-.524-.4-.262-.715.048-.059.117-.1.117-.187h.067l.032.018-.032-.018c0-.117,0-.235-.165-.227v.006c.005-.184,0-.363-.237-.4l-.136-.079c-.341-.076-.548-.252-.474-.644l-.005,0c.044-.017.124-.029.126-.05.01-.1-.072-.08-.131-.089a.238.238,0,0,1-.133-.157.218.218,0,0,0-.058-.175.21.21,0,0,0-.17-.065c-.2-.314-.41.03-.612-.017-.018-.157-.132-.139-.238-.133h0a3.778,3.778,0,0,1,.041-.458c.027-.128-.013-.166-.126-.165l.005,0a.671.671,0,0,0-.619-.4c-.038,0-.087-.005-.112.014-.508.369-.646.325-.786-.282-.032-.139-.135-.136-.217-.178-.149-.083-.153.07-.2.144l-.113-.013c-.006-.089.1-.2-.075-.242-.117-.026-.2-.042-.292.079-.307.387-.57.348-.765-.122-.064-.153-.161-.146-.266-.156-.162-.018-.133.118-.142.214-.015.154-.024.308-.035.463h-.108c0-.142.005-.284,0-.426,0-.1.073-.247-.126-.257a.226.226,0,0,0-.252.171c-.185.433-.488.474-.756.1a.228.228,0,0,0-.28-.114c-.175.039-.125.165-.107.276.032.2.138.4.005.64-.049-.226-.079-.416-.136-.6-.024-.08.021-.244-.142-.218-.116.019-.262.034-.247.227a.378.378,0,0,1-.293.438c-.239.068-.385-.067-.507-.25-.012-.059-.02-.132-.1-.115s-.121.1-.128.194a.039.039,0,0,1-.049.02c-.184-.007-.368-.012-.405.238l-.075.066c-.062.011-.161.024-.128.1.137.311-.082.444-.262.6a.154.154,0,0,1-.16-.064c0-.1-.011-.213-.135-.219-.1-.006-.078.1-.087.166l-.143.115a.209.209,0,0,0-.174.059.217.217,0,0,0-.063.175c-.1.134-.2.255-.056.434.113.143.045.3-.057.426-.185.239-.413.125-.632.078-.308.123-.375.444-.53.688-.032.052.076.077.137.089l.066.071q.031.29.065.583a.044.044,0,0,1-.035.036c-.175.023-.427-.217-.5.155v.009c-.286.079-.18.285-.147.467.01.134-.1.262.087.4.369.266.322.585-.1.759a.273.273,0,0,0-.184.243c-.038.184.124.154.2.211l-.005.1c-.093.015-.21-.013-.206.151a.246.246,0,0,0,.167.257c.42.2.464.506.1.761-.142.1-.123.2-.13.318-.148.128.048.26,0,.389a.14.14,0,0,0,.036.117.135.135,0,0,0,.113.042l.017.013,0,.021c.079.349.3.183.484.136a.05.05,0,0,1,.027.029c-.092.178.059.345.021.52a.232.232,0,0,1-.153.139c-.059.01-.141.008-.13.089.015.116.066.216.209.212v-.005c0,.141-.051.313.179.323.087.149.205.163.378.131a.378.378,0,0,1,.422.525.378.378,0,0,0,.087.523c.087.366.242.472.46.322a.249.249,0,0,1,.229-.109c.118.108.225.235.4.237a.129.129,0,0,1,.042.163c-.156.012-.062.1-.052.17a.05.05,0,0,1-.02.063l-.087.044Z" transform="translate(-338.519 -242.378)" fill="#2f3292"/>
    <path id="Path_10733" data-name="Path 10733" d="M316.04,383.554c-.054.075-.1.138-.144.2-.43.579-.874,1.15-1.284,1.742-.152.218-.246.2-.437.056q-5.618-4.275-11.249-8.528c-.175-.131-.238-.206-.073-.412.447-.565.874-1.148,1.29-1.738.143-.205.234-.189.415-.052q5.634,4.287,11.275,8.562C315.9,383.433,315.97,383.492,316.04,383.554Z" transform="translate(-288.89 -344.062)" fill="#2e3192"/>
    <path id="Path_10734" data-name="Path 10734" d="M519.379,553.27a27.243,27.243,0,0,1-3.909,3.82,28.079,28.079,0,0,1-8.888,4.926c-.307.1-.407.042-.518-.248-.437-1.135-.893-2.262-1.353-3.387-.087-.216-.1-.308.175-.341a38.678,38.678,0,0,0,14.414-4.8.205.205,0,0,1,.036-.013Z" transform="translate(-473.151 -506.715)" fill="#2e3192"/>
    <path id="Path_10735" data-name="Path 10735" d="M633.682,453.42l.3.014c.077.1.154.1.232,0a3.661,3.661,0,0,1,3.264,2.343.955.955,0,0,1,.029.151c-.11.1-.057.2-.038.32a4.857,4.857,0,0,1-.456,3.514.613.613,0,0,0-.036.225h0a.433.433,0,0,0-.459.486,3.622,3.622,0,0,1-1.772.912c-.087-.111-.211-.089-.319-.072a20.325,20.325,0,0,1-3.195.153c-.219,0-.322-.051-.322-.3q.011-3.716,0-7.432c0-.215.066-.309.286-.3a15.962,15.962,0,0,1,2.285.072A.174.174,0,0,0,633.682,453.42Zm-.76,6.566a.434.434,0,0,0,.135.061,2.164,2.164,0,0,0,2.422-1.866,4.274,4.274,0,0,0,.046-1.045,2.173,2.173,0,0,0-2.589-2.293c-.155.077-.1.224-.1.345q-.005,2.221,0,4.442C632.834,459.753,632.789,459.894,632.922,459.987Z" transform="translate(-588.375 -415.772)" fill="#2e3192"/>
    <path id="Path_10736" data-name="Path 10736" d="M537.355,461.418l-1.994-3.82c.014-.334.237-.731-.279-.9-.093-.03-.109-.136-.074-.232s.077-.178-.007-.25a1.356,1.356,0,0,1-.41-.76.129.129,0,0,0-.135-.109c-.067,0-.156.025-.141.089.052.23-.049.51.2.679.007.258.015.514.023.772-.151.118-.087.287-.087.434-.005,1.232-.008,2.464,0,3.7,0,.274-.075.412-.369.4-.343-.016-.688-.012-1.033,0-.213.007-.292-.071-.291-.291q.006-3.717,0-7.433c0-.246.087-.314.317-.306a6.885,6.885,0,0,0,1.108-.006c.455-.059.629.271.826.55a13.1,13.1,0,0,1,.719,1.481,8.908,8.908,0,0,1,.454.888c.139.355.5.633.417,1.072a.124.124,0,0,0,.04.1c.5.291.481.879.729,1.312.061.106.029.178-.025.283a.3.3,0,0,0,.19.457c.216.068.292-.089.285-.293a2.107,2.107,0,0,0-.016-.387,24.615,24.615,0,0,1-.293-5.175c0-.23.094-.288.3-.282.37.011.74.013,1.109,0,.262-.01.36.1.359.368q-.008,3.676,0,7.354c0,.244-.087.313-.315.307C538.426,461.409,537.89,461.417,537.355,461.418Z" transform="translate(-498.799 -415.729)" fill="#2e3192"/>
    <path id="Path_10737" data-name="Path 10737" d="M169.14,283.488c-1.081.5-2.091.985-3.072,1.53a24.287,24.287,0,0,0-6.861,5.33,13.055,13.055,0,0,0-1.9,2.909c-.066.139-.1.239-.3.167-1.081-.386-2.17-.755-3.256-1.131a1.39,1.39,0,0,1-.155-.081,14.158,14.158,0,0,1,2.31-2.754,22.856,22.856,0,0,1,8.168-4.689,38.953,38.953,0,0,1,4.684-1.3A.542.542,0,0,1,169.14,283.488Z" transform="translate(-152.762 -260.897)" fill="#2e3192"/>
    <path id="Path_10738" data-name="Path 10738" d="M767.5,453.856l1.616,5.393c.214.72.416,1.442.623,2.163a2.487,2.487,0,0,1-1.057.074c-1.042.013-1.048.005-1.235-1.028-.029-.156-.052-.28-.234-.292-.559,0-1.12.034-1.675-.008-.387-.029-.591.089-.638.475-.221.075-.175.3-.205.449-.057.3-.175.434-.5.416-.553-.03-1.109-.009-1.66-.01l2.32-7.477c.066-.011.133-.039.144-.108.072-.444.377-.473.73-.444.2.018.4,0,.612,0C766.766,453.472,767.238,453.342,767.5,453.856Zm-1.355,1.392c-.021.089-.045.169-.062.254-.159.827-.31,1.655-.477,2.479-.175.888-.184.888.722.888a1.649,1.649,0,0,1,.23,0c.267.035.322-.063.253-.325C766.53,457.466,766.349,456.367,766.147,455.248Z" transform="translate(-708.506 -415.801)" fill="#2f3192"/>
    <path id="Path_10739" data-name="Path 10739" d="M486.281,456.228c0,1.258-.009,2.515.006,3.772,0,.275-.039.392-.349.375-.534-.029-1.07-.017-1.606,0-.216.005-.313-.023-.312-.286q.016-3.868,0-7.737c0-.229.073-.282.284-.276.56.014,1.122.018,1.682,0,.244-.008.3.075.294.308C486.275,453.666,486.281,454.945,486.281,456.228Z" transform="translate(-454.317 -414.546)" fill="#2e3191"/>
    <path id="Path_10740" data-name="Path 10740" d="M727.894,456.228c0,1.26-.008,2.519.006,3.779,0,.266-.061.355-.334.345-.549-.023-1.1-.016-1.647,0-.217.006-.28-.059-.28-.283q.012-3.856,0-7.712c0-.24.06-.313.3-.306.549.018,1.1.022,1.647,0,.262-.011.317.075.315.325C727.888,453.658,727.894,454.943,727.894,456.228Z" transform="translate(-674.83 -414.524)" fill="#2e3191"/>
    <path id="Path_10741" data-name="Path 10741" d="M153.11,471.816c-.362.158-.721.326-1.088.471-.142.055-.308.284-.442-.064-.117-.3-.016-.4.243-.49a7.124,7.124,0,0,0,1.3-.592l-1.186.193a3.346,3.346,0,0,0-.338.063c-.17.048-.277.03-.344-.173s.04-.246.175-.315c.407-.212.811-.432,1.215-.648l.107-.077a.135.135,0,0,0-.167-.016c-.432.113-.874.2-1.293.346-.328.112-.277-.154-.356-.3-.117-.215.046-.232.183-.266.786-.187,1.567-.364,2.346-.564.262-.067.279.115.313.266.038.171.272.364-.055.513-.39.178-.769.383-1.219.61a7.014,7.014,0,0,0,1.316-.182c.21-.034.321.012.343.225.031.293.275.454.411.681.092.155.1.227-.07.327q-1.06.622-2.1,1.277c-.218.139-.257-.012-.328-.148s-.227-.258.029-.4c.371-.2.722-.438,1.082-.659.051-.029.155-.05.121-.112C153.25,471.7,153.172,471.8,153.11,471.816Z" transform="translate(-150.29 -430.306)" fill="#313393"/>
    <path id="Path_10742" data-name="Path 10742" d="M171.86,501.427a2.3,2.3,0,0,1-.665.545c-.024-.052-.018-.127-.1-.137-.012,0-.042.028-.041.04.007.079.082.075.131.1a5.352,5.352,0,0,1-.917.858c-.222.19-.252-.11-.364-.187-.151-.1-.087-.2.029-.3.477-.41.949-.826,1.422-1.244.093-.082.242-.178.063-.292-.12-.079-.162-.367-.424-.155-.437.355-.9.679-1.362,1-.1.072-.205.291-.371.081-.132-.166-.285-.315-.079-.561a6.6,6.6,0,0,0,.524-.81.454.454,0,0,0,.122-.42c-.349.258-.675.484-.984.736-.175.141-.255.114-.384-.064s-.131-.259.052-.389c.639-.45,1.264-.92,1.9-1.375.087-.06.19-.26.3-.056.087.155.363.257.17.521-.182.25-.344.513-.509.776a.788.788,0,0,0-.188.417,4.874,4.874,0,0,0,.961-.648c.175-.126.3-.139.379.068a4.319,4.319,0,0,0,.9,1.2c.175.206.126.3-.049.459-.244.215-.291-.006-.384-.147,0-.058.027-.141-.054-.154S171.873,501.372,171.86,501.427Zm-.017-.394c-.031-.034-.049-.071-.073-.076a.105.105,0,0,0-.092.027c-.029.053,0,.089.059.093C171.765,501.077,171.8,501.053,171.842,501.032Zm-1.7-.475-.049.028c.008.009.018.026.024.024a.2.2,0,0,0,.052-.024Z" transform="translate(-166.244 -457.038)" fill="#2f3192"/>
    <path id="Path_10743" data-name="Path 10743" d="M536.11,457.983c.007.2-.069.361-.285.293a.3.3,0,0,1-.191-.457.254.254,0,0,0,.025-.283c-.248-.434-.23-1.021-.729-1.312a.124.124,0,0,1-.04-.1c.08-.439-.278-.721-.417-1.072a8.909,8.909,0,0,0-.454-.888,13.735,13.735,0,0,0-.719-1.481c-.2-.279-.371-.608-.826-.55a6.878,6.878,0,0,1-1.108.006c-.225-.008-.317.06-.317.306q.011,3.717,0,7.433c0,.22.078.3.291.291.344-.012.689-.015,1.033,0,.293.014.37-.124.369-.4-.009-1.233-.006-2.465,0-3.7,0-.147-.061-.316.087-.434.118.065.078.184.079.277.01,1.376.01,2.754.026,4.126,0,.215-.074.266-.266.258-.5-.011-1-.013-1.493,0-.21.005-.286-.046-.285-.278q.012-3.874,0-7.746c0-.189.03-.282.246-.276q.88.021,1.761,0a.3.3,0,0,1,.31.211c.88,1.749,1.829,3.464,2.574,5.282.034.084.017.228.181.187-.02.1-.208.143-.121.289C535.923,458.094,536.02,458.022,536.11,457.983Z" transform="translate(-497.093 -414.476)" fill="#2f3292"/>
    <path id="Path_10744" data-name="Path 10744" d="M212.761,548.121c-.28.318-.541.592-.773.888-.146.185-.238.188-.419.034s-.119-.252.005-.394c.509-.579,1.007-1.169,1.517-1.748.075-.089.135-.318.308-.132.121.131.388.187.256.483-.141.317-.245.652-.361.977-.032.089-.108.178,0,.33.248-.283.491-.556.729-.832.11-.129.189-.275.381-.076.143.148.226.227.047.425-.524.58-1.027,1.186-1.544,1.777-.07.079-.134.275-.289.107-.114-.124-.349-.178-.227-.456.142-.316.237-.656.349-.985A.469.469,0,0,0,212.761,548.121Zm.1-.116c-.056.04-.144.1-.072.157s.1-.058.128-.112v-.089Zm.3.6c-.043.078.017.074.035.1a.827.827,0,0,0,.063-.089c.034-.055-.031-.049-.046-.073Z" transform="translate(-205.564 -500.765)" fill="#2f3192"/>
    <path id="Path_10745" data-name="Path 10745" d="M145.514,411.521c.026-.888.026-.888.874-.775.618.083,1.236.166,1.856.239.155.019.236.055.2.237-.051.24-.064.489-.127.725a.72.72,0,0,1-1.268.347c-.082-.081-.107-.192-.25-.052a.718.718,0,0,1-.889.055A.751.751,0,0,1,145.514,411.521Zm1.27-.069c-.142-.184-.373-.1-.563-.149-.161-.039-.2.064-.183.2.024.246.2.316.4.318s.313-.137.347-.37Zm.7.012c-.156-.013-.3-.057-.287.161a.321.321,0,0,0,.349.33c.214.007.349-.107.342-.288,0-.308-.294-.115-.4-.2Z" transform="translate(-145.381 -376.842)" fill="#313393"/>
    <path id="Path_10746" data-name="Path 10746" d="M147.009,449.226a1.355,1.355,0,0,1-1.31-1.46c.02-.133.114-.121.193-.139.793-.184,1.588-.355,2.378-.551.2-.051.231.042.27.2C148.843,448.5,148.3,449.2,147.009,449.226Zm0-.588a1.982,1.982,0,0,0,.717-.178.572.572,0,0,0,.375-.41c.04-.211.033-.355-.262-.272-.391.114-.8.178-1.191.283-.1.026-.269-.006-.284.133a.4.4,0,0,0,.222.339.735.735,0,0,0,.421.1Z" transform="translate(-145.541 -409.98)" fill="#313393"/>
    <path id="Path_10747" data-name="Path 10747" d="M452.213,621.779a1.907,1.907,0,0,1,.186-.9.863.863,0,0,1,1.532-.1,2.152,2.152,0,0,1,.119,2.082.827.827,0,0,1-.793.512.863.863,0,0,1-.8-.5A2.261,2.261,0,0,1,452.213,621.779Zm.589,0a1.834,1.834,0,0,0,.12.758.361.361,0,0,0,.344.257.325.325,0,0,0,.315-.241,1.979,1.979,0,0,0-.078-1.428.311.311,0,0,0-.307-.189.337.337,0,0,0-.315.236,1.482,1.482,0,0,0-.077.609Z" transform="translate(-425.288 -567.877)" fill="#313393"/>
    <path id="Path_10748" data-name="Path 10748" d="M393.329,620.656a2.288,2.288,0,0,1,.335-1.256.867.867,0,0,1,1.565.147,2.158,2.158,0,0,1-.2,2.008.839.839,0,0,1-.886.41.883.883,0,0,1-.719-.622A1.713,1.713,0,0,1,393.329,620.656Zm1.461-.277c0-.162.005-.24,0-.317-.017-.226-.052-.461-.319-.5-.3-.048-.388.186-.459.416a2.416,2.416,0,0,0-.082,1.071.378.378,0,0,0,.3.355.369.369,0,0,0,.411-.273A2.062,2.062,0,0,0,394.789,620.379Z" transform="translate(-371.546 -566.617)" fill="#313393"/>
    <path id="Path_10749" data-name="Path 10749" d="M292.082,595.292a2.59,2.59,0,0,1-.524,1.34.912.912,0,0,1-1.08.365.9.9,0,0,1-.606-.977,2.5,2.5,0,0,1,.507-1.441.9.9,0,0,1,1.1-.407A1.028,1.028,0,0,1,292.082,595.292Zm-.548-.158a.416.416,0,0,0-.227-.411.352.352,0,0,0-.432.15,2.154,2.154,0,0,0-.437,1.215.35.35,0,0,0,.649.224A2.387,2.387,0,0,0,291.535,595.134Z" transform="translate(-277.129 -543.967)" fill="#303292"/>
    <path id="Path_10750" data-name="Path 10750" d="M198.652,533.12a.869.869,0,0,1,.706.37.9.9,0,0,1,.12.8,2.14,2.14,0,0,1-1.426,1.452.82.82,0,0,1-.9-.267.873.873,0,0,1-.191-.9A2.2,2.2,0,0,1,198.652,533.12Zm.319.927a.344.344,0,0,0-.148-.3.332.332,0,0,0-.327-.028,1.9,1.9,0,0,0-.993,1.017.34.34,0,0,0,.027.313.328.328,0,0,0,.271.152C198.157,535.221,198.968,534.418,198.971,534.047Z" transform="translate(-192.287 -488.392)" fill="#2f3292"/>
    <path id="Path_10751" data-name="Path 10751" d="M585.84,458c-.087.038-.188.111-.262-.014-.087-.146.1-.184.12-.289a10.038,10.038,0,0,1-.274-2.5c-.01-.948.009-1.895-.01-2.843-.005-.281.079-.355.342-.34.484.02.97.012,1.455,0,.183,0,.273.025.273.249q-.011,3.894,0,7.786c0,.13.025.261-.18.259-.587-.008-1.174,0-1.761,0a.142.142,0,0,1-.107-.032.147.147,0,0,1-.052-.1c.536,0,1.071-.009,1.607,0,.226.005.316-.063.315-.307q-.011-3.678,0-7.354c0-.267-.094-.378-.359-.368-.37.013-.74.011-1.109,0-.2-.005-.3.052-.3.282a24.63,24.63,0,0,0,.293,5.175A2.113,2.113,0,0,1,585.84,458Z" transform="translate(-546.823 -414.496)" fill="#2a2c8f"/>
    <path id="Path_10752" data-name="Path 10752" d="M146.917,430.707c.054.219-.048.3-.245.346-.781.178-1.558.378-2.34.555-.087.02-.285.161-.277-.089.005-.162-.143-.411.165-.473.189-.038.345-.054.344-.345,0-.306-.155-.318-.369-.362-.3-.06-.144-.319-.148-.481,0-.218.17-.089.254-.068.771.165,1.538.355,2.311.506C146.868,430.349,146.98,430.452,146.917,430.707Zm-.859,0-.005-.061c-.292-.037-.584-.073-.874-.115-.133-.019-.184.034-.175.168.005.1.029.178.152.156Z" transform="translate(-144.011 -394.192)" fill="#313393"/>
    <path id="Path_10753" data-name="Path 10753" d="M235.65,571.553c.686-.668,1.358-1.316,2.022-1.971.162-.16.25-.005.354.064s.3.115.208.341c-.309.807-.606,1.619-.91,2.43-.034.089-.072.24-.2.119s-.455-.111-.3-.389c.175-.314.019-.428-.211-.556-.087-.05-.165-.083-.227.016C236.131,572.023,235.918,571.716,235.65,571.553Zm1.89-1.207-.113.128c-.16.178-.314.366-.48.54-.1.106-.11.172.019.266s.19.043.241-.089c.087-.225.185-.444.278-.668a.132.132,0,0,0,.047-.187l.055-.008c-.007,0-.015-.008-.019-.006A.242.242,0,0,0,237.54,570.346Z" transform="translate(-227.645 -521.551)" fill="#2f3192"/>
    <path id="Path_10754" data-name="Path 10754" d="M343.106,613.827c-.325-.041-.619-.037-.552-.5.033-.224-.215-.157-.343-.207-.148-.058-.23,0-.283.155-.04.116-.038.282-.262.253-.391-.05-.423-.089-.249-.46q.5-1.066,1-2.138c.066-.14.13-.267.309-.171.138.073.387-.03.386.266C343.1,611.956,343.106,612.884,343.106,613.827Zm-.552-1.9-.068-.006c-.069.178-.14.355-.206.533-.025.068-.078.152.008.2a.364.364,0,0,0,.216.049c.1-.012.074-.116.073-.184C342.575,612.32,342.563,612.122,342.554,611.924Z" transform="translate(-324.08 -559.105)" fill="#2f3192"/>
    <path id="Path_10755" data-name="Path 10755" d="M421.046,621.513l-.017.009c-.018.119-.064.249.113.289l.333.972.087-.006c0-.467.01-.934,0-1.4-.008-.243.1-.266.3-.266s.257.067.246.272c-.042.8-.064,1.6-.1,2.406,0,.1.043.271-.136.259-.159-.012-.377.089-.459-.155-.115-.355-.223-.711-.334-1.066.13-.178.087-.294-.125-.344l.01-.029a.443.443,0,0,0,.027-.3.124.124,0,0,0-.14-.1c-.068,0-.142.03-.135.1.027.3-.12.607,0,.91l-.024.77c-.232.029-.3-.074-.307-.308-.022-.622.067-1.234.08-1.85.011-.52,0-.521.5-.413v.02l-.018.005A.178.178,0,0,0,421.046,621.513Z" transform="translate(-396.238 -568.565)" fill="#303292"/>
    <path id="Path_10756" data-name="Path 10756" d="M313.82,605.031a2.027,2.027,0,0,1,.6-1.352,1.084,1.084,0,0,1,1.1-.24c.246.068.327.19.224.45-.062.156-.077.253-.272.136a.509.509,0,0,0-.683.156,1.258,1.258,0,0,0-.314,1.078.554.554,0,0,0,.426.493c.162.038.32.023.224.3-.081.232-.143.355-.419.277A1.263,1.263,0,0,1,313.82,605.031Z" transform="translate(-298.986 -552.414)" fill="#313393"/>
    <path id="Path_10757" data-name="Path 10757" d="M272.765,586.8c.148.066.175-.1.258-.148a.783.783,0,0,1,1.032.155c.175.206-.007.351-.08.481-.087.156-.154-.039-.223-.089-.122-.081-.24-.161-.381-.053a.342.342,0,0,0-.107.418c.073.206.175.4.235.614a.878.878,0,0,1-.768,1.137c-.624,0-.839-.365-.531-.919.183.124.3.471.586.28s.1-.475-.014-.687a1.619,1.619,0,0,1,0-1.2Z" transform="translate(-260.875 -537.054)" fill="#2f3292"/>
    <path id="Path_10758" data-name="Path 10758" d="M258.054,580.084a.5.5,0,0,1-.1-.06c-.139-.14-.253-.383-.5-.233s-.161.41-.075.628a1.069,1.069,0,0,1-.108,1.2.818.818,0,0,1-1.291-.089c-.168-.26.128-.378.153-.58.041.005.071,0,.081.012.144.171.262.444.54.293s.135-.409.062-.622A1.11,1.11,0,0,1,257,579.4a.736.736,0,0,1,1.164.093c.195.259-.153.382-.109.593Z" transform="translate(-246.157 -530.341)" fill="#303292"/>
    <path id="Path_10759" data-name="Path 10759" d="M477.836,621.659c.053.172-.017.267-.262.288s-.294-.073-.313-.293c-.067-.786-.148-1.572-.235-2.356-.02-.178.012-.267.2-.272a6.315,6.315,0,0,0,.683-.068c.207-.031.349-.052.375.25s-.126.285-.308.3-.384-.032-.339.3c.037.266.119.373.377.29s.287.066.321.274c.038.235-.076.274-.251.267-.321-.02-.383.144-.321.427C477.805,621.24,477.805,621.423,477.836,621.659Z" transform="translate(-447.93 -566.589)" fill="#313393"/>
    <path id="Path_10760" data-name="Path 10760" d="M365.415,616.4q.147-.919.3-1.839c.03-.184.076-.355-.208-.372-.237-.011-.14-.189-.122-.318s.012-.266.218-.22c.349.07.7.126,1.054.172.169.022.228.089.164.252-.048.122.042.368-.224.3s-.281.116-.309.292c-.1.6-.2,1.2-.283,1.8-.03.206-.141.216-.293.171C365.578,616.6,365.377,616.647,365.415,616.4Z" transform="translate(-346.011 -561.757)" fill="#313393"/>
    <path id="Path_10761" data-name="Path 10761" d="M632.091,452.151a.174.174,0,0,1-.2.089,15.966,15.966,0,0,0-2.285-.072c-.219-.012-.287.082-.286.3q.006,3.716,0,7.432c0,.251.1.3.321.3a20.326,20.326,0,0,0,3.195-.153c.108-.018.232-.039.319.072a5.281,5.281,0,0,1-1.544.191c-.728.019-1.455.007-2.184.023-.2,0-.262-.057-.262-.266q.011-3.9,0-7.791c0-.115-.024-.248.156-.243a26.386,26.386,0,0,1,2.715.063C632.063,452.1,632.077,452.133,632.091,452.151Z" transform="translate(-586.785 -414.503)" fill="#313393"/>
    <path id="Path_10762" data-name="Path 10762" d="M380.707,619.452c.14-.857.279-1.674.4-2.493.03-.2.121-.242.281-.182.13.049.363-.036.312.266q-.21,1.244-.4,2.493c-.039.267-.2.169-.341.148S380.629,619.669,380.707,619.452Z" transform="translate(-360.014 -564.594)" fill="#313393"/>
    <path id="Path_10763" data-name="Path 10763" d="M333.093,607.3c-.026.079-.044.127-.058.178-.225.78-.454,1.559-.667,2.343-.058.21-.15.239-.324.152-.129-.065-.349-.02-.262-.3.238-.789.459-1.584.687-2.377.032-.113.054-.25.218-.178C332.821,607.167,333.012,607.135,333.093,607.3Z" transform="translate(-315.36 -555.795)" fill="#313393"/>
    <path id="Path_10764" data-name="Path 10764" d="M550.744,476.424c-.251-.169-.149-.449-.2-.679-.015-.066.073-.089.141-.089a.129.129,0,0,1,.135.109,1.352,1.352,0,0,0,.41.76c.087.072.038.164.007.25s-.018.2.074.232c.516.17.294.567.28.9a6.2,6.2,0,0,1-.633-1.353C550.905,476.4,550.9,476.4,550.744,476.424Z" transform="translate(-515.027 -436.033)" fill="#2f3292"/>
    <path id="Path_10765" data-name="Path 10765" d="M700.337,485.739a.616.616,0,0,1,.036-.225,4.857,4.857,0,0,0,.456-3.514c-.019-.116-.073-.225.038-.32A4.5,4.5,0,0,1,700.337,485.739Z" transform="translate(-651.737 -441.521)" fill="#313393"/>
    <path id="Path_10766" data-name="Path 10766" d="M419.391,620.744c-.494-.107-.486-.107-.5.413-.013.617-.1,1.23-.08,1.85.008.234.075.338.307.308.029.283-.175.131-.282.15s-.186-.03-.181-.172q.051-1.292.094-2.585c0-.106.039-.2.148-.165C419.068,620.593,419.334,620.412,419.391,620.744Z" transform="translate(-394.664 -568.044)" fill="#2a2c8f"/>
    <path id="Path_10767" data-name="Path 10767" d="M816.05,529c.182.012.205.136.234.292.189,1.033.193,1.041,1.235,1.028a2.422,2.422,0,0,0,1.057-.074c.087.129.087.213-.1.212-.62,0-1.241-.007-1.86,0-.181,0-.2-.116-.237-.239Q816.214,529.615,816.05,529Z" transform="translate(-757.342 -484.638)" fill="#313393"/>
    <path id="Path_10768" data-name="Path 10768" d="M791.65,452.5c-.262-.514-.736-.384-1.164-.39-.2,0-.406.014-.612,0-.349-.031-.659-.005-.73.444-.011.068-.078.1-.144.108.175-.68.175-.68.853-.68.379,0,.762.029,1.136-.008C791.41,451.926,791.647,452.046,791.65,452.5Z" transform="translate(-732.655 -414.444)" fill="#313393"/>
    <path id="Path_10769" data-name="Path 10769" d="M762.348,535.145c.555,0,1.111-.02,1.66.01.327.019.437-.116.5-.416.03-.154-.016-.375.205-.449-.162.99-.162.99-1.125.99h-1.072C762.439,535.277,762.289,535.341,762.348,535.145Z" transform="translate(-708.319 -489.458)" fill="#313393"/>
    <path id="Path_10770" data-name="Path 10770" d="M423.731,632.774c-.121-.3.025-.606,0-.91-.006-.069.067-.1.135-.1a.124.124,0,0,1,.14.1.443.443,0,0,1-.027.3c-.056-.055-.119-.227-.161.007C423.78,632.367,423.884,632.589,423.731,632.774Z" transform="translate(-399.25 -578.273)" fill="#2a2c8f"/>
    <path id="Path_10771" data-name="Path 10771" d="M695.12,527.816a.432.432,0,0,1,.459-.486A1.426,1.426,0,0,1,695.12,527.816Z" transform="translate(-646.976 -483.116)" fill="#313393"/>
    <path id="Path_10772" data-name="Path 10772" d="M427,636.55c.214.05.255.164.125.344C427.079,636.779,427.038,636.665,427,636.55Z" transform="translate(-402.279 -582.634)" fill="#2a2c8f"/>
    <path id="Path_10773" data-name="Path 10773" d="M666.292,453.2c-.078.1-.155.1-.232,0A.191.191,0,0,1,666.292,453.2Z" transform="translate(-620.455 -415.534)" fill="#313393"/>
    <path id="Path_10774" data-name="Path 10774" d="M427.709,626.039c-.175-.04-.131-.17-.113-.289A.479.479,0,0,1,427.709,626.039Z" transform="translate(-402.805 -572.793)" fill="#2a2c8f"/>
    <path id="Path_10775" data-name="Path 10775" d="M208.29,527.947c.013-.055,0-.144.087-.131s.052.1.054.154Z" transform="translate(-202.675 -483.558)" fill="#2e3191"/>
    <path id="Path_10776" data-name="Path 10776" d="M426.869,623.372a.179.179,0,0,1-.1-.222C426.849,623.2,426.852,623.289,426.869,623.372Z" transform="translate(-402.06 -570.424)" fill="#2a2c8f"/>
    <path id="Path_10777" data-name="Path 10777" d="M672.7,552.921c.031-.009.082-.032.087-.025.028.044-.011.056-.044.068Z" transform="translate(-626.515 -506.41)" fill="#2e3192"/>
    <path id="Path_10778" data-name="Path 10778" d="M471.8,438.706a.246.246,0,0,1-.04.035l-.024-.015.044-.036Z" transform="translate(-443.11 -402.35)" fill="#01974a"/>
    <path id="Path_10779" data-name="Path 10779" d="M387.841,280.86c.087.114.006.139-.082.158C387.691,280.913,387.754,280.88,387.841,280.86Z" transform="translate(-366.439 -258.541)" fill="#fefefe"/>
    <path id="Path_10780" data-name="Path 10780" d="M387.121,282.568c.005.065-.041.089-.087.12C387.015,282.612,387.023,282.558,387.121,282.568Z" transform="translate(-365.796 -260.096)" fill="#fefefe"/>
    <path id="Path_10781" data-name="Path 10781" d="M378.344,299.426c-.31,0-.534.042-.592.452-.042.3-.349.243-.586.183a2.245,2.245,0,0,0-.122-.721,21.528,21.528,0,0,1-1.174-4.639c0-.089-.071-.089-.136-.089l-.175-.007c-.2,0-.153.178-.169.283a11.215,11.215,0,0,1-.69,2.526c-.045-.017-.1-.049-.126.015a.16.16,0,0,0,.063.171.047.047,0,0,1-.045.044c-.12-.131-.087-.266-.059-.43.034-.212.224-.43.029-.655a10.739,10.739,0,0,1,.594-1.754c.017-.089.175-.182.05-.251-.08-.045-.108.106-.137.186l-.421.8c-.226.05-.231.223-.221.405h0c-.244.023-.237.208-.24.386h0c-.169,0-.162.118-.155.238h0c-.168,0-.163.117-.156.236h0c-.169,0-.163.119-.155.238h0c-.107,0-.225.06-.307-.063l.077-.178a.533.533,0,0,0,.287-.559h0c.252-.035.238-.226.233-.411.126-.343.447-.571.569-.952-.211.038-.271.2-.374.306a12.288,12.288,0,0,1-1.71,1.537.163.163,0,0,1-.162-.089c0-.131.1-.2.175-.29a12.234,12.234,0,0,1,2-1.937l.092-.058c.054-.041.175-.076.128-.144-.08-.111-.132.029-.195.068l-.087.054-.953.6c-.132-.124-.139-.015-.151.084a.549.549,0,0,1-.3.165c-.139-.151-.143-.028-.155.079a.608.608,0,0,1-.307.151.474.474,0,0,0-.612.31l-.151.08a.3.3,0,0,0-.18-.182,13.024,13.024,0,0,1,2.939-1.688,15.056,15.056,0,0,1-2.383.6c-.108-.127-.253-.057-.383-.076h0c.154-.17.384-.161.567-.258.119-.064.325.018.355-.2.561-.206,1.172-.173,1.738-.376a14.242,14.242,0,0,1-2.662-.044c-.165-.216-.349-.165-.539-.039a.769.769,0,0,1-.378-.015c0-.056,0-.113,0-.169.217-.172.461-.043.692-.063a8.176,8.176,0,0,1,1.649-.024,8.385,8.385,0,0,0,1.254.068.183.183,0,0,0-.117-.1,22.055,22.055,0,0,1-3.7-1.071,7.452,7.452,0,0,0-1.458-.429c-.033-.182-.139-.388.147-.467-.072.188-.087.337.175.384.212.037.416.123.626.173a22.475,22.475,0,0,1,4.152,1.138l.152.072c.038.022.082.052.113,0,.006-.012-.032-.048-.051-.073l-.151-.083a13.031,13.031,0,0,1-2.28-1.384c.01-.048.022-.1.032-.144.193-.074.333.219.535.08.524.225.981.586,1.5.854-.459-.516-.933-1.006-1.344-1.553-.014-.17.054-.256.228-.237a10.033,10.033,0,0,1,1.793,2,.691.691,0,0,0,.1.07c.052-.057.031-.1-.031-.14a13.181,13.181,0,0,1-1.019-1.771c.125-.273-.208-.444-.15-.7.136.032.142.258.323.222h0c-.016.123-.024.241.149.243h0c-.008.115-.017.23.143.243.361.533.51,1.17.856,1.711a.362.362,0,0,0-.019-.227,28.947,28.947,0,0,1-.981-3.933c-.018-.069-.047-.173.051-.2s.08.094.118.146c.1.131.079.287.132.426a10.931,10.931,0,0,1,.846,3.109c.014.206.061.41.093.616l.115-.012a17.347,17.347,0,0,1,.045-3.731l.15-.015c.075.028.073.1.079.159a11.468,11.468,0,0,1,0,2.859c-.039.243-.056.49-.087.734l.1.02a12.588,12.588,0,0,1,.661-2.544c.094.036.187-.14.28,0a.137.137,0,0,1-.018.051l-.038.3a2.107,2.107,0,0,1-.2.977c-.153.427-.322.848-.485,1.272l.1.052a16.011,16.011,0,0,1,1.8-3.109.279.279,0,0,0,.162.172,14.546,14.546,0,0,1-1.456,2.678,24.683,24.683,0,0,1,2.14-1.988q-.036.238-.072.478a10.2,10.2,0,0,1-1.755,1.736l-.225.143-.121.1c-.041.017-.107.031-.065.089s.087.015.123-.02l.136-.1.227-.158.672-.408a.52.52,0,0,0,.607-.329.578.578,0,0,1,.306-.155c.175.168.415-.242.569.074a13.3,13.3,0,0,1-2.481,1.369,16.468,16.468,0,0,1,2.989-.728c.163.1.013.2,0,.3l-.138.052a.377.377,0,0,0-.551.178,5.854,5.854,0,0,1-1.9.378c-.349.015-.277.23-.29.386-.017.2.2.146.3.163a10.4,10.4,0,0,1,2.341.671l-.073.133a1.477,1.477,0,0,1-.658-.1c-.14-.054-.284-.111-.414.024a10.779,10.779,0,0,1-1.419-.527c-.062-.016-.128-.128-.18-.041s.061.1.121.126a16.653,16.653,0,0,1,2.726,1.676c-.183.213-.372-.141-.556.006a12.789,12.789,0,0,1-2.184-1.3,21.747,21.747,0,0,1,2.028,2.239h-.384a13.153,13.153,0,0,1-1.824-1.829,19.507,19.507,0,0,1,.994,1.979c-.1.052-.087.149-.087.24l-.137.026a13.665,13.665,0,0,1-1.317-2.508.894.894,0,0,0,.059.364,13.818,13.818,0,0,1,.54,1.984c.182.946.377,1.889.577,2.832.02.093-.024.267.157.253.147-.013.233-.08.253-.266C377.724,299.293,377.991,299.192,378.344,299.426Zm-1.843-7.052c.049-.046.145-.1.076-.164s-.1.052-.146.089l-.082.1a.1.1,0,0,0,.081.021A.1.1,0,0,0,376.5,292.375Zm-1.62,2.167c.056-.027.118-.089.076-.129-.076-.069-.114.028-.154.081a.16.16,0,0,0-.05.053c-.087.089-.212.161-.19.334a.375.375,0,0,0,.246-.254Zm-.5-2.007c.033.025.058.089.109.043s0-.08-.029-.114c-.087-.084-.156-.2-.316-.207C374.147,292.44,374.278,292.474,374.383,292.535Zm1.78.919a.578.578,0,0,0-.562-.569.593.593,0,0,0-.549.544.556.556,0,1,0,1.111.025Zm.481,1.377c0-.247-.155-.341-.294-.444a.675.675,0,0,0,.29.444Zm-2-2.061c.038-.028.093-.036.054-.089a.386.386,0,0,0-.112-.1c-.011-.006-.079.02-.04.072a1.438,1.438,0,0,0,.094.113Zm2.109,1.612c.045-.027.045-.047.011-.061a.121.121,0,0,0-.065-.013c-.01,0-.018.029-.025.045Z" transform="translate(-349.487 -265.045)" fill="#303292"/>
    <path id="Path_10782" data-name="Path 10782" d="M371.3,356.015c-.894.2-1.787.4-2.679.6-.11.026-.274-.019-.29.178h-.093c.052-.129-.144-.261,0-.389.143.214.328.075.481.04.815-.187,1.593-.5,2.386-.762.239-.08.486-.139.729-.206-.03.222-.236.14-.355.2-.183.1-.413.089-.567.259-.075.018-.164-.037-.235.045a.161.161,0,0,0,.127.03.163.163,0,0,0,.108-.075C371.048,355.958,371.189,355.888,371.3,356.015Z" transform="translate(-348.598 -326.532)" fill="#313393"/>
    <path id="Path_10783" data-name="Path 10783" d="M404.775,284.993c-.466-.934-.936-1.865-1.4-2.8-.087-.172-.165-.283-.357-.144.038-.25.221-.245.405-.238-.045.3.148.5.28.724.4.668.825,1.322,1.24,1.981-.181.036-.187-.19-.323-.222a.162.162,0,0,0-.076-.156l-.032-.017.031.018a.162.162,0,0,0,.077.155C404.567,284.549,404.9,284.72,404.775,284.993Z" transform="translate(-380.393 -259.402)" fill="#2e3192"/>
    <path id="Path_10784" data-name="Path 10784" d="M477.751,360.685c-1.136-.4-2.336-.529-3.494-.822a.9.9,0,0,1-.167-.079c.13-.135.274-.078.414-.024a1.807,1.807,0,0,0,.708.116c.028.005.007,0-.015-.012-.041-.013-.048,0-.016.028a.159.159,0,0,0,.061.027s.012-.018-.031-.042a.156.156,0,0,1,.024-.148l2.533.837Z" transform="translate(-445.255 -330.378)" fill="#2a2c8f"/>
    <path id="Path_10785" data-name="Path 10785" d="M417.9,387.588c.262.178.377.089.466-.211.27-.906.4-1.841.6-2.761.022-.1.055-.2.082-.3.2.225.005.444-.029.655-.025.162-.06.3.059.43a21.908,21.908,0,0,1-.7,2.335C418.171,387.845,417.987,387.875,417.9,387.588Z" transform="translate(-393.974 -352.81)" fill="#313393"/>
    <path id="Path_10786" data-name="Path 10786" d="M477.45,310.67c.214-.108.394-.3.661-.281.005.032.009.063.016.094h.033l-.036-.082.071-.053c.009.019.017.037.027.055l-.02-.068a11.742,11.742,0,0,1,1.515-.855,1.354,1.354,0,0,1,.307-.157c.218-.068.19-.192.1-.343.239.034.242.213.237.4a1.377,1.377,0,0,0-.745.33c-.543.33-1.068.69-1.592,1.039C477.865,310.431,477.621,310.84,477.45,310.67Z" transform="translate(-448.321 -284.163)" fill="#2a2c8f"/>
    <path id="Path_10787" data-name="Path 10787" d="M453.1,280.832q.418-1.311.837-2.622l.113.013c-.251.818-.4,1.66-.577,2.494-.01.044-.061.077-.093.116C453.287,280.692,453.193,280.868,453.1,280.832Z" transform="translate(-426.099 -256.126)" fill="#2a2c8f"/>
    <path id="Path_10788" data-name="Path 10788" d="M404.6,389q-.624,1-1.245,1.992c-.065.1-.19.186-.142.339-.1,0-.216.013-.231-.139a1.724,1.724,0,0,0,.524-.727c.277-.5.524-1.018.786-1.528C404.372,389.063,404.49,389,404.6,389Z" transform="translate(-380.357 -357.02)" fill="#2e3191"/>
    <path id="Path_10789" data-name="Path 10789" d="M389.735,385.243a14.677,14.677,0,0,1-1.344,1.293c-.274.272-.273.3.109.444-.217.149-.369.044-.46-.322a8,8,0,0,0,1.223-1.218c.093-.1.156-.242.306-.281A.162.162,0,0,0,389.735,385.243Z" transform="translate(-366.722 -353.576)" fill="#181b86"/>
    <path id="Path_10790" data-name="Path 10790" d="M484.219,375.5a25.45,25.45,0,0,0-2.289-1.273c.184-.147.374.207.556-.006l1.739,1.155Z" transform="translate(-452.41 -343.582)" fill="#2a2c8f"/>
    <path id="Path_10791" data-name="Path 10791" d="M470.995,282.178c-.216-.178-.354-.13-.482.125-.254.507-.538,1-.81,1.5a.279.279,0,0,1-.162-.172c.3-.486.6-.977.916-1.454.128-.189.082-.292-.08-.394A.67.67,0,0,1,470.995,282.178Z" transform="translate(-441.102 -259.379)" fill="#2a2c8f"/>
    <path id="Path_10792" data-name="Path 10792" d="M375.819,374.7c.17.114.29-.034.407-.1.5-.293.99-.606,1.485-.911a.3.3,0,0,1,.18.182c-.563.3-1.126.6-1.685.9-.1.052-.281.047-.205.251C375.769,375.015,375.821,374.844,375.819,374.7Z" transform="translate(-355.565 -343.124)" fill="#2a2c8f"/>
    <path id="Path_10793" data-name="Path 10793" d="M489.77,332.355l1.611-.355v.128l-1.608.533C489.783,332.56,489.933,332.457,489.77,332.355Z" transform="translate(-459.565 -305.138)" fill="#2a2c8f"/>
    <path id="Path_10794" data-name="Path 10794" d="M371.353,348.214a10.358,10.358,0,0,1-1.683-.089l.005-.1,1.674.012C371.351,348.1,371.352,348.158,371.353,348.214Z" transform="translate(-349.957 -319.744)" fill="#181b86"/>
    <path id="Path_10795" data-name="Path 10795" d="M492.41,399.433c.121-.1.127.06.19.089.087.044.111.233.253.151.1-.06.21-.147.152-.3.167-.005.214.089.123.211-.117.156-.233.338-.47.326C492.712,399.673,492.406,399.637,492.41,399.433Z" transform="translate(-461.974 -366.521)" fill="#2a2c8f"/>
    <path id="Path_10796" data-name="Path 10796" d="M405.61,414.263c.146.06.262.126.424-.03.262-.248.519-.125.651.266-.232-.21-.457-.306-.746-.064C405.8,414.55,405.653,414.456,405.61,414.263Z" transform="translate(-382.757 -379.948)" fill="#2e3191"/>
    <path id="Path_10797" data-name="Path 10797" d="M442.915,280.852a4.68,4.68,0,0,1-.015,1.159l-.15.015q.029-.587.057-1.176Z" transform="translate(-416.653 -258.532)" fill="#181b86"/>
    <path id="Path_10798" data-name="Path 10798" d="M497.934,392.393a.344.344,0,0,1-.053-.485.389.389,0,0,1,.5-.168.619.619,0,0,0,.183.012c-.013.06-.023.15-.1.125C497.97,391.725,497.95,392.053,497.934,392.393Z" transform="translate(-466.898 -359.541)" fill="#2a2c8f"/>
    <path id="Path_10799" data-name="Path 10799" d="M374.829,306.37c-.047.142-.255.28-.012.431l-.01.108c-.277-.173-.332.017-.37.234-.061-.008-.169-.034-.137-.089C374.454,306.813,374.52,306.493,374.829,306.37Z" transform="translate(-354.176 -281.785)" fill="#303292"/>
    <path id="Path_10800" data-name="Path 10800" d="M441.589,407.382l-.039-1.051c.123-.081.15,0,.157.1a4.136,4.136,0,0,1-.008.952Z" transform="translate(-415.558 -372.836)" fill="#181b86"/>
    <path id="Path_10801" data-name="Path 10801" d="M499.841,301.474a.4.4,0,0,1-.474-.644C499.294,301.222,499.5,301.4,499.841,301.474Z" transform="translate(-468.177 -276.737)" fill="#2a2c8f"/>
    <path id="Path_10802" data-name="Path 10802" d="M398.1,285.25c.119.521.046.652-.391.7.181-.158.4-.293.262-.6C397.94,285.274,398.038,285.261,398.1,285.25Z" transform="translate(-375.547 -262.541)" fill="#2e3192"/>
    <path id="Path_10803" data-name="Path 10803" d="M485.644,286.842c-.268-.178-.062-.415-.087-.622.113,0,.153.037.126.165A3.761,3.761,0,0,0,485.644,286.842Z" transform="translate(-455.673 -263.425)" fill="#2a2c8f"/>
    <path id="Path_10804" data-name="Path 10804" d="M371.825,322.265c-.121.2-.349.037-.5.155C371.4,322.048,371.651,322.288,371.825,322.265Z" transform="translate(-351.472 -296.217)" fill="#303292"/>
    <path id="Path_10805" data-name="Path 10805" d="M376.69,315.87a.356.356,0,0,1,.065.583Z" transform="translate(-356.364 -290.441)" fill="#303292"/>
    <path id="Path_10806" data-name="Path 10806" d="M478.4,412.624c.045-.148-.126-.248-.087-.394.129-.055.132.07.155.13.049.12.119.143.227.094C478.684,412.67,478.518,412.606,478.4,412.624Z" transform="translate(-449.102 -378.228)" fill="#2a2c8f"/>
    <path id="Path_10807" data-name="Path 10807" d="M370.65,372.44c.152.078.359-.045.484.136C370.948,372.623,370.729,372.789,370.65,372.44Z" transform="translate(-350.851 -341.986)" fill="#2a2c8f"/>
    <path id="Path_10808" data-name="Path 10808" d="M485.18,405.548a.333.333,0,0,1,.562-.006Z" transform="translate(-455.376 -372.009)" fill="#2a2c8f"/>
    <path id="Path_10809" data-name="Path 10809" d="M395.92,404.265c.209-.052.326.057.4.237A.638.638,0,0,1,395.92,404.265Z" transform="translate(-373.914 -370.971)" fill="#181b86"/>
    <path id="Path_10810" data-name="Path 10810" d="M474.994,416.889c.143.127.251-.037.377-.049a.215.215,0,0,1-.2.221C475.047,417.073,474.987,417.014,474.994,416.889Z" transform="translate(-446.08 -382.441)" fill="#303292"/>
    <path id="Path_10811" data-name="Path 10811" d="M376.185,374.3a.354.354,0,0,1,.021.52C376.243,374.645,376.093,374.478,376.185,374.3Z" transform="translate(-355.875 -343.68)" fill="#2a2c8f"/>
    <path id="Path_10812" data-name="Path 10812" d="M389.179,293.453c-.087-.005-.128-.127-.23-.077a.217.217,0,0,1,.063-.176.209.209,0,0,1,.174-.059C389.081,293.242,389.293,293.352,389.179,293.453Z" transform="translate(-367.551 -269.73)" fill="#2a2c8f"/>
    <path id="Path_10813" data-name="Path 10813" d="M373.629,381.72l.079.3c-.142,0-.194-.1-.209-.212C373.488,381.728,373.57,381.73,373.629,381.72Z" transform="translate(-353.45 -350.441)" fill="#2a2c8f"/>
    <path id="Path_10814" data-name="Path 10814" d="M393.544,290.207c-.073-.021-.135-.1-.224-.053.011-.068-.013-.172.087-.166C393.532,289.993,393.544,290.1,393.544,290.207Z" transform="translate(-371.541 -266.857)" fill="#2e3192"/>
    <path id="Path_10815" data-name="Path 10815" d="M496.5,295.108c-.087-.079.06-.157,0-.235a.21.21,0,0,1,.17.065.218.218,0,0,1,.058.175C496.656,295.052,496.578,295.119,496.5,295.108Z" transform="translate(-465.683 -271.308)" fill="#2a2c8f"/>
    <path id="Path_10816" data-name="Path 10816" d="M408.47,279.517l-.23.079c.007-.089.032-.173.128-.194S408.457,279.458,408.47,279.517Z" transform="translate(-385.157 -257.21)" fill="#2e3192"/>
    <path id="Path_10817" data-name="Path 10817" d="M487.308,293.283a.274.274,0,0,1-.238-.133C487.176,293.144,487.289,293.126,487.308,293.283Z" transform="translate(-457.101 -269.735)" fill="#2a2c8f"/>
    <path id="Path_10818" data-name="Path 10818" d="M510.808,313.593l-.1-.227c.165-.008.166.109.165.227Z" transform="translate(-478.676 -288.159)" fill="#2a2c8f"/>
    <path id="Path_10819" data-name="Path 10819" d="M491.58,407.07l.151.005c-.02.041-.036.112-.062.116C491.584,407.206,491.59,407.128,491.58,407.07Z" transform="translate(-461.217 -373.539)" fill="#2a2c8f"/>
    <path id="Path_10820" data-name="Path 10820" d="M500.945,299.486l-.005-.136c.059.006.142-.011.131.089C501.069,299.457,500.989,299.469,500.945,299.486Z" transform="translate(-469.759 -275.388)" fill="#2a2c8f"/>
    <path id="Path_10821" data-name="Path 10821" d="M368.789,370.26h.093l.056.155a.135.135,0,0,1-.111-.041.14.14,0,0,1-.037-.114Z" transform="translate(-349.151 -339.999)" fill="#2a2c8f"/>
    <path id="Path_10822" data-name="Path 10822" d="M400.073,408.91a.157.157,0,0,1-.052.17C400.012,409.014,399.918,408.918,400.073,408.91Z" transform="translate(-377.623 -375.216)" fill="#181b86"/>
    <path id="Path_10823" data-name="Path 10823" d="M400.34,412.4l.182.145C400.415,412.556,400.349,412.516,400.34,412.4Z" transform="translate(-377.948 -378.396)" fill="#2e3191"/>
    <path id="Path_10824" data-name="Path 10824" d="M399.267,411.53l.01.078-.1-.035Z" transform="translate(-376.889 -377.603)" fill="#181b86"/>
    <path id="Path_10825" data-name="Path 10825" d="M484.18,413.307a.2.2,0,0,1,.037-.068l.08.043Z" transform="translate(-454.463 -379.161)" fill="#2a2c8f"/>
    <path id="Path_10826" data-name="Path 10826" d="M512.6,315.92l.032.018Z" transform="translate(-480.401 -290.486)" fill="#2a2c8f"/>
    <path id="Path_10827" data-name="Path 10827" d="M652.94,469.46l-.013,5.142c-.133-.089-.087-.234-.087-.355q-.005-2.221,0-4.442C652.839,469.686,652.786,469.537,652.94,469.46Z" transform="translate(-608.381 -430.387)" fill="#181b86"/>
    <path id="Path_10828" data-name="Path 10828" d="M170.18,478.119a.135.135,0,0,1,.167.016l-.107.077Z" transform="translate(-167.894 -438.257)" fill="#fefefe"/>
    <path id="Path_10829" data-name="Path 10829" d="M176.29,496.248c.065-.02.14-.116.19-.025.034.062-.07.083-.121.112Z" transform="translate(-173.47 -454.737)" fill="#fefefe"/>
    <path id="Path_10830" data-name="Path 10830" d="M206.251,524.057c-.046.021-.077.044-.107.044-.056,0-.087-.04-.059-.093a.105.105,0,0,1,.092-.027C206.2,523.986,206.22,524.023,206.251,524.057Z" transform="translate(-200.653 -480.063)" fill="#2e3191"/>
    <path id="Path_10831" data-name="Path 10831" d="M199.241,534.032c-.049-.028-.124-.024-.131-.1,0-.013.029-.042.041-.04.078.01.073.089.1.137Z" transform="translate(-194.297 -489.093)" fill="#2e3191"/>
    <path id="Path_10832" data-name="Path 10832" d="M188.169,519.51l.027.028a.2.2,0,0,1-.052.024c-.006,0-.017-.015-.024-.024Z" transform="translate(-184.267 -475.991)" fill="#fefefe"/>
    <path id="Path_10833" data-name="Path 10833" d="M230.843,567.552l.052-.062c.016.024.08.018.046.073-.018.03-.042.058-.063.089C230.86,567.624,230.8,567.63,230.843,567.552Z" transform="translate(-223.243 -519.709)" fill="#fefefe"/>
    <path id="Path_10834" data-name="Path 10834" d="M226.531,561.445c-.031.054-.042.178-.128.112s.016-.117.072-.157A.253.253,0,0,0,226.531,561.445Z" transform="translate(-219.181 -514.16)" fill="#fefefe"/>
    <path id="Path_10835" data-name="Path 10835" d="M227.51,560.935l.059-.045v.089A.251.251,0,0,1,227.51,560.935Z" transform="translate(-220.216 -513.695)" fill="#fefefe"/>
    <path id="Path_10836" data-name="Path 10836" d="M256,578.946l.109-.128-.005-.008a.133.133,0,0,1,.018.1.131.131,0,0,1-.064.084Z" transform="translate(-246.217 -530.023)" fill="#f6f6fa"/>
    <path id="Path_10837" data-name="Path 10837" d="M257.235,578.681a.244.244,0,0,1,.031-.021.15.15,0,0,1,.019.006l-.056.008Z" transform="translate(-247.339 -529.887)" fill="#f6f6fa"/>
    <path id="Path_10838" data-name="Path 10838" d="M380.17,311.328l.01-.108c.805.515,1.685.888,2.518,1.355-.2.139-.342-.154-.536-.08l-.017-.033-.015.015.032.018c-.01.048-.022.1-.032.144Z" transform="translate(-359.54 -286.204)" fill="#2a2c8f"/>
    <path id="Path_10839" data-name="Path 10839" d="M394.031,299.006a24.586,24.586,0,0,1-1.611-1.875c.025-.029.055-.053.087-.016.543.6,1.176,1.094,1.747,1.654C394.085,298.75,394.017,298.836,394.031,299.006Z" transform="translate(-370.719 -273.334)" fill="#2a2c8f"/>
    <path id="Path_10840" data-name="Path 10840" d="M464.958,391.619l-1.288-2,.137-.026h0l.076.077c.017.076.031.153.127.063a.045.045,0,0,1,.017.059c-.039.089.009.083.067.067A5.418,5.418,0,0,1,464.958,391.619Z" transform="translate(-435.745 -357.612)" fill="#2a2c8f"/>
    <path id="Path_10841" data-name="Path 10841" d="M478.472,300.391a11.155,11.155,0,0,1,1.31-1.161c.061.039.037.081,0,.119l-1.383,1.52Q478.437,300.631,478.472,300.391Z" transform="translate(-449.188 -275.279)" fill="#2a2c8f"/>
    <path id="Path_10842" data-name="Path 10842" d="M476.164,385.19c.28.312.564.622.839.936.052.059.183.114.079.235l-1.3-1.171Z" transform="translate(-446.797 -353.603)" fill="#2a2c8f"/>
    <path id="Path_10843" data-name="Path 10843" d="M440.691,363.724a7.1,7.1,0,0,1,.147-1.324l.175.007q-.005.419-.012.841c-.139-.05-.163.019-.166.146S440.9,363.687,440.691,363.724Z" transform="translate(-414.768 -332.837)" fill="#181b86"/>
    <path id="Path_10844" data-name="Path 10844" d="M401.931,371.077l-.611.31A.475.475,0,0,1,401.931,371.077Z" transform="translate(-378.842 -340.719)" fill="#2a2c8f"/>
    <path id="Path_10845" data-name="Path 10845" d="M467,330.1a2.02,2.02,0,0,1,.607-.329A.52.52,0,0,1,467,330.1Z" transform="translate(-438.784 -303.106)" fill="#2a2c8f"/>
    <path id="Path_10846" data-name="Path 10846" d="M418.86,381.269a1.614,1.614,0,0,1,.287-.559A.538.538,0,0,1,418.86,381.269Z" transform="translate(-394.85 -349.521)" fill="#2e3191"/>
    <path id="Path_10847" data-name="Path 10847" d="M482.461,339.445l-.551.178A.381.381,0,0,1,482.461,339.445Z" transform="translate(-452.392 -311.873)" fill="#2a2c8f"/>
    <path id="Path_10848" data-name="Path 10848" d="M393.809,349.194l-.539-.039C393.46,349.028,393.644,348.978,393.809,349.194Z" transform="translate(-371.495 -320.67)" fill="#181b86"/>
    <path id="Path_10849" data-name="Path 10849" d="M451.764,360.364a.675.675,0,0,1-.294-.444C451.61,360.023,451.763,360.117,451.764,360.364Z" transform="translate(-424.611 -330.578)" fill="#f6f6fa"/>
    <path id="Path_10850" data-name="Path 10850" d="M465.34,386.89c.048.12.2.2.121.368l-.135-.051-.076-.077h0C465.252,387.039,465.239,386.942,465.34,386.89Z" transform="translate(-437.187 -355.152)" fill="#2a2c8f"/>
    <path id="Path_10851" data-name="Path 10851" d="M429.644,372.92a1.082,1.082,0,0,1-.221.405C429.409,373.143,429.414,372.97,429.644,372.92Z" transform="translate(-404.486 -342.423)" fill="#2e3191"/>
    <path id="Path_10852" data-name="Path 10852" d="M422.11,376.491a1.108,1.108,0,0,1,.233-.411C422.348,376.266,422.362,376.457,422.11,376.491Z" transform="translate(-397.816 -345.302)" fill="#2e3191"/>
    <path id="Path_10853" data-name="Path 10853" d="M426.96,377.44a.9.9,0,0,1-.24.386C426.723,377.648,426.717,377.463,426.96,377.44Z" transform="translate(-402.023 -346.541)" fill="#2e3191"/>
    <path id="Path_10854" data-name="Path 10854" d="M431.278,361.8a.375.375,0,0,1-.246.254c-.023-.178.1-.243.19-.334Z" transform="translate(-405.956 -332.218)" fill="#f6f6fa"/>
    <path id="Path_10855" data-name="Path 10855" d="M426.536,336.218c-.1-.061-.232-.1-.236-.278.161.012.231.123.316.207Z" transform="translate(-401.64 -308.728)" fill="#f7f6fa"/>
    <path id="Path_10856" data-name="Path 10856" d="M425.1,381.75a.445.445,0,0,1-.156.238C424.935,381.868,424.929,381.751,425.1,381.75Z" transform="translate(-400.398 -350.468)" fill="#2e3191"/>
    <path id="Path_10857" data-name="Path 10857" d="M455.688,308.31c.087.114.1.218-.038.3Z" transform="translate(-428.426 -283.552)" fill="#2a2c8f"/>
    <path id="Path_10858" data-name="Path 10858" d="M424.969,312.24a.445.445,0,0,1,.149.243C424.944,312.485,424.953,312.363,424.969,312.24Z" transform="translate(-400.418 -287.133)" fill="#2e3192"/>
    <path id="Path_10859" data-name="Path 10859" d="M423.34,384.39l-.156.236C423.176,384.507,423.172,384.389,423.34,384.39Z" transform="translate(-398.793 -352.874)" fill="#2e3191"/>
    <path id="Path_10860" data-name="Path 10860" d="M426.693,314.94a.43.43,0,0,1,.143.242C426.677,315.17,426.685,315.055,426.693,314.94Z" transform="translate(-401.996 -289.593)" fill="#2e3192"/>
    <path id="Path_10861" data-name="Path 10861" d="M421.592,387l-.155.238C421.429,387.12,421.423,387,421.592,387Z" transform="translate(-397.199 -355.252)" fill="#2e3191"/>
    <path id="Path_10862" data-name="Path 10862" d="M456.161,337.295l-.227.158-.074-.071.214-.162Z" transform="translate(-428.617 -309.894)" fill="#f6f6fa"/>
    <path id="Path_10863" data-name="Path 10863" d="M436.82,361.85c.029-.08.057-.231.137-.186.123.069-.032.163-.05.251Z" transform="translate(-411.241 -332.16)" fill="#f7f6fa"/>
    <path id="Path_10864" data-name="Path 10864" d="M431.244,393.729l-.063.186a.16.16,0,0,1-.063-.171C431.142,393.676,431.2,393.708,431.244,393.729Z" transform="translate(-406.033 -361.36)" fill="#313393"/>
    <path id="Path_10865" data-name="Path 10865" d="M411.985,368.037l-.155.079C411.845,368.008,411.845,367.886,411.985,368.037Z" transform="translate(-388.434 -337.909)" fill="#2a2c8f"/>
    <path id="Path_10866" data-name="Path 10866" d="M417.2,365.4l-.151.084C417.062,365.38,417.069,365.271,417.2,365.4Z" transform="translate(-393.198 -335.517)" fill="#2a2c8f"/>
    <path id="Path_10867" data-name="Path 10867" d="M455.693,353.984c-.059-.026-.175-.027-.121-.126s.118.025.18.041Z" transform="translate(-428.342 -325.019)" fill="#f7f6fa"/>
    <path id="Path_10868" data-name="Path 10868" d="M430.775,339.861a1.433,1.433,0,0,1-.1-.108c-.038-.052.029-.078.04-.072a.387.387,0,0,1,.112.1C430.869,339.826,430.814,339.834,430.775,339.861Z" transform="translate(-405.624 -312.136)" fill="#f7f6fa"/>
    <path id="Path_10869" data-name="Path 10869" d="M430.72,357.436c.063-.039.115-.178.195-.068.049.068-.073.1-.128.144Z" transform="translate(-405.674 -328.215)" fill="#f6f6fa"/>
    <path id="Path_10870" data-name="Path 10870" d="M455.239,359.1l-.079-.029c.008-.016.015-.044.025-.045a.122.122,0,0,1,.065.013C455.283,359.054,455.283,359.075,455.239,359.1Z" transform="translate(-427.979 -329.764)" fill="#f7f6fa"/>
    <path id="Path_10871" data-name="Path 10871" d="M433.8,360.044c.039-.053.078-.15.154-.081.042.037-.02.1-.076.129Z" transform="translate(-408.485 -330.595)" fill="#f6f6fa"/>
    <path id="Path_10872" data-name="Path 10872" d="M452.44,335.273c.046-.04.066-.167.146-.089s-.027.118-.076.164Z" transform="translate(-425.496 -308.017)" fill="#f7f6fa"/>
    <path id="Path_10873" data-name="Path 10873" d="M451.652,336.513a.1.1,0,0,1-.07.048.1.1,0,0,1-.082-.02l.082-.1Z" transform="translate(-424.638 -309.184)" fill="#f7f6fa"/>
    <path id="Path_10874" data-name="Path 10874" d="M434.058,337.63c.061.036.087.083.031.14a.683.683,0,0,1-.1-.07Z" transform="translate(-408.658 -310.268)" fill="#f6f6fa"/>
    <path id="Path_10875" data-name="Path 10875" d="M454.48,339.144l.121-.1.074.071-.136.1Z" transform="translate(-427.358 -311.552)" fill="#f6f6fa"/>
    <path id="Path_10876" data-name="Path 10876" d="M453.748,340.289c-.038.035-.087.068-.123.02s.024-.075.065-.089Z" transform="translate(-426.567 -312.628)" fill="#f6f6fa"/>
    <path id="Path_10877" data-name="Path 10877" d="M428.142,342.911l-.152-.072.063-.089.151.083Z" transform="translate(-403.182 -314.933)" fill="#f6f6fa"/>
    <path id="Path_10878" data-name="Path 10878" d="M429.03,338.27c.027.034.08.068.029.114s-.076-.018-.109-.043Z" transform="translate(-404.058 -310.851)" fill="#f7f6fa"/>
    <path id="Path_10879" data-name="Path 10879" d="M429.72,358.614l.087-.054.067.076-.092.058Z" transform="translate(-404.761 -329.339)" fill="#f6f6fa"/>
    <path id="Path_10880" data-name="Path 10880" d="M433.23,361.173a.159.159,0,0,1,.05-.053l.078.048-.071.089Z" transform="translate(-407.964 -331.671)" fill="#f6f6fa"/>
    <path id="Path_10881" data-name="Path 10881" d="M429.792,343.71c.018.025.057.061.051.073-.031.055-.074.025-.113,0Z" transform="translate(-404.77 -315.808)" fill="#f6f6fa"/>
    <path id="Path_10882" data-name="Path 10882" d="M461.937,347.91l-.217-.038v-.22l.532-.012c.128.115.245.157.31-.06h.308c.019.113.052.186.158.06h.679c.028.075.087.089.159.1a.161.161,0,0,1-.058.117.155.155,0,0,1-.124.033,5.026,5.026,0,0,1-1.351-.077C462.2,347.826,462.037,347.748,461.937,347.91Z" transform="translate(-433.965 -319.334)" fill="#2e3191"/>
    <path id="Path_10883" data-name="Path 10883" d="M468.749,348.291a5.024,5.024,0,0,0,1.351.077.155.155,0,0,0,.124-.033.161.161,0,0,0,.058-.117c0-.03,0-.06,0-.089.132,0,.277-.068.386.069v.242a6.764,6.764,0,0,1-1.917,0C468.748,348.389,468.749,348.341,468.749,348.291Z" transform="translate(-440.38 -319.819)" fill="#313393"/>
    <path id="Path_10884" data-name="Path 10884" d="M490.69,349.178v-.242a4.924,4.924,0,0,0,.909,0c.073-.008.2-.038.2.1,0,.1-.106.089-.175.089A3.756,3.756,0,0,1,490.69,349.178Z" transform="translate(-460.405 -320.558)" fill="#181b86"/>
    <path id="Path_10885" data-name="Path 10885" d="M464.616,350.106v.147c-.133-.006-.273.054-.4-.043C464.319,350.048,464.479,350.126,464.616,350.106Z" transform="translate(-436.247 -321.634)" fill="#181b86"/>
    <path id="Path_10886" data-name="Path 10886" d="M458.663,348.39v.22h-.227c-.022-.072-.045-.143-.066-.215Z" transform="translate(-430.908 -320.072)" fill="#181b86"/>
    <path id="Path_10887" data-name="Path 10887" d="M468.13,347.4c-.066.218-.182.178-.31.06C467.9,347.336,468.024,347.406,468.13,347.4Z" transform="translate(-439.533 -319.158)" fill="#181b86"/>
    <path id="Path_10888" data-name="Path 10888" d="M457.08,348.478c.022.072.045.143.066.215-.087,0-.175-.028-.188-.12C456.948,348.508,457.012,348.476,457.08,348.478Z" transform="translate(-429.619 -320.152)" fill="#303292"/>
    <path id="Path_10889" data-name="Path 10889" d="M475.058,347.53c-.106.126-.139.053-.158-.06C474.965,347.456,475.029,347.446,475.058,347.53Z" transform="translate(-445.994 -319.225)" fill="#181b86"/>
    <path id="Path_10890" data-name="Path 10890" d="M484.649,348.226v.089c-.067-.006-.131-.02-.159-.1Z" transform="translate(-454.746 -319.917)" fill="#181b86"/>
    <path id="Path_10891" data-name="Path 10891" d="M504.921,349.287l-.028.049c-.008-.008-.024-.019-.023-.025a.252.252,0,0,1,.024-.052Z" transform="translate(-473.346 -320.865)" fill="#181b86"/>
    <path id="Path_10892" data-name="Path 10892" d="M440.4,372.262c.208-.036.142-.206.144-.33s.027-.2.166-.146l-.006,0,.069.089.008.155a.992.992,0,0,0,0,.86c-.183.481.066,1.006-.144,1.484-.212-.123.067-.463-.232-.549-.013-.2-.025-.4-.038-.607a.322.322,0,0,0,0-.5Z" transform="translate(-414.481 -341.376)" fill="#2e3191"/>
    <path id="Path_10893" data-name="Path 10893" d="M440.631,394.86c.3.089.02.426.232.549-.065.084.111.324-.169.266A2.062,2.062,0,0,1,440.631,394.86Z" transform="translate(-414.705 -362.414)" fill="#181b86"/>
    <path id="Path_10894" data-name="Path 10894" d="M444.076,375.52a.992.992,0,0,1,0-.86,3.336,3.336,0,0,1,0,.86Z" transform="translate(-417.773 -344.008)" fill="#181b86"/>
    <path id="Path_10895" data-name="Path 10895" d="M444.279,372.009l-.069-.089C444.256,371.932,444.291,371.953,444.279,372.009Z" transform="translate(-417.985 -341.512)" fill="#181b86"/>
    <path id="Path_10896" data-name="Path 10896" d="M466.12,390.46l.134.051-.009.012C466.151,390.613,466.137,390.535,466.12,390.46Z" transform="translate(-437.981 -358.405)" fill="#303292"/>
    <path id="Path_10897" data-name="Path 10897" d="M467.688,391.9c-.059.016-.107.02-.067-.067C467.641,391.852,467.666,391.874,467.688,391.9Z" transform="translate(-439.338 -359.653)" fill="#303292"/>
    <path id="Path_10898" data-name="Path 10898" d="M490.638,398.285l.087-.005-.005.089C490.655,398.377,490.631,398.344,490.638,398.285Z" transform="translate(-460.356 -365.53)" fill="#2a2c8f"/>
    <path id="Path_10899" data-name="Path 10899" d="M491.508,399.21h.087a.628.628,0,0,1,0,.089C491.521,399.306,491.5,399.275,491.508,399.21Z" transform="translate(-461.149 -366.377)" fill="#2a2c8f"/>
    <path id="Path_10900" data-name="Path 10900" d="M439.761,382.38a.321.321,0,0,1,0,.5A.6.6,0,0,1,439.761,382.38Z" transform="translate(-413.875 -351.043)" fill="#181b86"/>
    <path id="Path_10901" data-name="Path 10901" d="M494.15,298.1c.022-.089.055-.159.159-.08C494.287,298.108,494.255,298.177,494.15,298.1Z" transform="translate(-463.562 -274.142)" fill="#2a2c8f"/>
    <path id="Path_10902" data-name="Path 10902" d="M485.033,324.872l.036.082h-.033c-.007-.031-.01-.062-.016-.094Z" transform="translate(-455.23 -298.632)" fill="#303292"/>
    <path id="Path_10903" data-name="Path 10903" d="M495.864,297.5l0-.089.087,0C495.96,297.486,495.924,297.5,495.864,297.5Z" transform="translate(-465.123 -273.621)" fill="#2a2c8f"/>
    <path id="Path_10904" data-name="Path 10904" d="M485.987,324.22l.02.068c-.01-.018-.018-.036-.027-.055Z" transform="translate(-456.106 -298.049)" fill="#303292"/>
    <path id="Path_10905" data-name="Path 10905" d="M391.611,296.628c-.065.012-.087-.025-.081-.083l.087-.005Z" transform="translate(-369.906 -272.828)" fill="#2a2c8f"/>
    <path id="Path_10906" data-name="Path 10906" d="M397.006,360.622a.164.164,0,0,1-.108.075.162.162,0,0,1-.127-.03c.071-.083.16-.028.235-.045Z" transform="translate(-374.689 -331.215)" fill="#303292"/>
    <path id="Path_10907" data-name="Path 10907" d="M420.578,308.185a.163.163,0,0,1-.077-.155h0A.163.163,0,0,1,420.578,308.185Z" transform="translate(-396.347 -283.297)" fill="#303292"/>
    <path id="Path_10908" data-name="Path 10908" d="M420.181,307.818l-.031-.018.032.017Z" transform="translate(-396.027 -283.088)" fill="#303292"/>
    <path id="Path_10909" data-name="Path 10909" d="M486.377,361.521c-.006.011-.015.029-.018.028a.16.16,0,0,1-.061-.027c-.032-.029-.025-.041.016-.028C486.335,361.5,486.356,361.512,486.377,361.521Z" transform="translate(-456.378 -332.008)" fill="#303292"/>
    <path id="Path_10910" data-name="Path 10910" d="M258.641,295.632l-.031-.018.014-.014Z" transform="translate(-236.018 -269.341)" fill="#303292"/>
    <path id="Path_10911" data-name="Path 10911" d="M465.25,389.59l.076.077Z" transform="translate(-437.187 -357.612)" fill="#303292"/>
  </g>
</svg>
