<svg id="Ball_Badminton" data-name="Ball Badminton" xmlns="http://www.w3.org/2000/svg" width="45.197" height="49.483" viewBox="0 0 45.197 49.483">
  <path id="Path_10912" data-name="Path 10912" d="M223.894,106.93c.887-.43,1.269-1.337,1.827-2.061a2.831,2.831,0,0,1,2.332-1.286,23.532,23.532,0,0,0,3.367-.536.39.39,0,0,0,.269-.2c.049-.167-.1-.254-.226-.347-.631-.468-1.265-.932-1.879-1.421a11.381,11.381,0,0,1-4.559-8.686,13.511,13.511,0,0,1,1.582-6.876,13.508,13.508,0,0,0,2-6.3,7.129,7.129,0,0,0-1.977-4.884c-.985-1.091-1-1.066-.193-2.275a2.981,2.981,0,0,0,.716-1.353h.542l-.034.371c-.347.5-.672,1.017-1.05,1.491a.739.739,0,0,0,.075,1.153,7.825,7.825,0,0,1,2.26,6.87,13.384,13.384,0,0,1-1.446,4.135,19.168,19.168,0,0,0-1.232,2.753c-1.8,5.268-.515,9.882,3.748,13.4a33.287,33.287,0,0,0,3.818,2.583l-.213.171a3.131,3.131,0,0,0-2.231-.207c-1.29.255-2.6.423-4.121.663a9.573,9.573,0,0,1,1.047.664c.273.236.8.2.8.738a.705.705,0,0,1-.239.006c-.77-.278-1.43-1.323-2.16-1-.705.316-1.122,1.3-1.666,1.984a5.16,5.16,0,0,1-.343.424c-.308.314-.279.529.112.767.669.4,1.31.849,1.964,1.278v.353a22.381,22.381,0,0,0-2.213,3.415c-.26.39.119.469.323.59a44.565,44.565,0,0,0,18.227,6.285c8.873.911,17.131-1.235,24.989-5.315.475-.247.527-.441.222-.882-.732-1.047-1.422-2.124-2.129-3.189l-.339-.32c.568-.34,1.138-.677,1.706-1.018,1.247-.751,1.246-.752.372-1.866-.224-.287-.45-.572-.674-.858-1.171-1.5-1.17-1.5-2.813-.67l-.234-.2c.434-.406,1.066-.524,1.528-1.1l-5.283-.906-.223-.2a20.926,20.926,0,0,0,4.666-3.584,9.764,9.764,0,0,0,2.571-8.878A15.48,15.48,0,0,0,265.125,85c-2.564-3.9-2.181-9.218.967-11.517.3-.223.26-.431.045-.676a11.194,11.194,0,0,0-1.562-1.759c-.347-.258-.756-.145-1.135-.145q-9.005-.007-18.01,0c-.371,0-.786.147-1.11-.188h20.793a11.067,11.067,0,0,0,1.475,1.936c.266.353.469.623,0,.983-2.934,2.263-3.384,6.162-1.846,9.715a18.721,18.721,0,0,0,1.215,2.136c2.516,4.2,3.335,9.244-.04,13.494a15.191,15.191,0,0,1-3.535,3.257c-.274.181-.537.379-.9.636a7.966,7.966,0,0,0,2.488.556,4.1,4.1,0,0,1,3.353,2.056,4.988,4.988,0,0,0,1.767,2v1.1c-2.549.888-2.662,1.185-1.26,3.33a1.409,1.409,0,0,0,.156.223c.384.4.427,1.106,1.1,1.227v1.1a13.244,13.244,0,0,0-3.21,1.384A45.568,45.568,0,0,1,251.052,120a41.642,41.642,0,0,1-21.952-3.959c-1.773-.827-3.4-1.928-5.21-2.676v-.92c.087-.016.209,0,.253-.052a20.175,20.175,0,0,0,1.854-2.98.345.345,0,0,0,.051-.265.34.34,0,0,0-.154-.22c-.648-.4-1.156-1.068-2-1.08Z" transform="translate(-223.89 -70.707)" fill="#363230"/>
  <path id="Path_10913" data-name="Path 10913" d="M283.974,70.683c.324.335.738.188,1.11.188q9.005.011,18.01,0c.379,0,.781-.113,1.136.145l-36.92.035.034-.371Z" transform="translate(-263.543 -70.68)" fill="#865646"/>
  <path id="Path_10914" data-name="Path 10914" d="M244.359,74.545l36.92-.035a11.278,11.278,0,0,1,1.562,1.759c.218.244.26.453-.045.676-3.15,2.3-3.532,7.613-.968,11.517a15.48,15.48,0,0,1,2.35,5.613,9.773,9.773,0,0,1-2.571,8.878,20.874,20.874,0,0,1-4.666,3.584,48.68,48.68,0,0,1-6.306,2.807l-.38-.244-.363-.407c.347-.371.71-.738,1.051-1.119a.347.347,0,0,0,.042-.491.339.339,0,0,0-.547-.017c-.388.378-.76.771-1.139,1.158l-.463-.306c.268-.4.541-.806.8-1.213.134-.21.267-.467.01-.65-.3-.214-.5.022-.656.265-.266.407-.526.818-.788,1.226-.163-.041-.307-.208-.5-.076l-.237-.243c.246-.447.5-.89.733-1.343a.379.379,0,0,0-.115-.552.364.364,0,0,0-.521.194,4.343,4.343,0,0,0-.726,1.528c-.255-.158-.646-.026-.805-.39.2-.441.41-.873.607-1.316a.384.384,0,0,0-.143-.55c-.244-.132-.417.022-.509.217-.232.488-.434.992-.65,1.488l-.5-.08c.108-.47.226-.939.319-1.412.05-.252.016-.506-.3-.547-.254-.033-.376.147-.426.372-.111.5-.213,1-.318,1.506h-.559c0-.365.022-.732,0-1.1-.023-.329.154-.853-.384-.847-.471,0-.324.492-.336.8-.016.4.008.794.015,1.187l-.386.088c-.183-.483-.363-.971-.551-1.451-.1-.265-.232-.544-.581-.392-.3.129-.213.4-.131.634.162.459.337.912.508,1.368l-.5.106c-.31-.441-.615-.89-.934-1.328-.142-.195-.311-.42-.588-.237s-.179.424-.045.641c.253.413.521.818.781,1.227a.75.75,0,0,1-.584.275,5.036,5.036,0,0,0-.916-1.235c-.154-.2-.362-.385-.607-.187-.3.24-.11.487.068.706.269.327.545.649.818.971a.469.469,0,0,1-.428.255c-.26-.253-.5-.52-.781-.756-.235-.2-.5-.6-.823-.278-.355.353.082.578.292.794.228.24.486.451.731.674l-.394.3c-.282-.226-.559-.461-.85-.675-.233-.171-.5-.467-.776-.143-.295.353.077.536.3.716s.489.353.735.524c-.071.2-.266.368-.2.618-.312-.1-.626-.206-.936-.313-1.9-.656-3.681-1.6-5.532-2.373a33.749,33.749,0,0,1-3.818-2.582c-4.263-3.516-5.553-8.132-3.748-13.4a19.163,19.163,0,0,1,1.232-2.753,13.384,13.384,0,0,0,1.445-4.135,7.828,7.828,0,0,0-2.26-6.87c-.395-.421-.423-.718-.075-1.153C243.687,75.563,244.011,75.045,244.359,74.545Zm9.6,11.588h0a.212.212,0,0,0,.03.316,6.068,6.068,0,0,0,5.566,2.181,4.24,4.24,0,0,1,2.133.151,1.467,1.467,0,0,1,.816,2.4c-.861,1.291-1.714,2.587-2.57,3.882-.587.365-1.348.453-1.812.989-.912,1.059-1.77,2.16-2.624,3.265-.487.63-.036,1.111.382,1.492s1.056.678,1.438.12c1.192-1.745,3.052-3.107,3.18-5.491.89-1.3,1.822-2.567,2.657-3.9.454-.726.7-.63,1.207-.048a32.775,32.775,0,0,0,3.335,3.68c.042,2.442,1.766,4,3.013,5.787.368.529,1.083.2,1.562-.14.41-.292.775-.77.383-1.246-1.345-1.634-2.137-3.818-4.348-4.606l-3.557-4.152c-.624-.725-.566-1.235.248-1.735a2.386,2.386,0,0,1,1.638-.372,7.218,7.218,0,0,0,8.087-5.886c.55-2.938-.976-5.4-3.549-5.7-4.868-.552-9.043,5.382-7.109,9.426a2.946,2.946,0,0,1-.124,2.484c-.152.361-.347.418-.665.1a2.8,2.8,0,0,1-.738-2.849c1.61-3.42-1.143-8.765-5.615-9.478a4.149,4.149,0,0,0-4.814,3.181,6.824,6.824,0,0,0,1.548,6.073C253.739,86.165,253.84,86.223,253.963,86.133Zm9.956,14.889a2.125,2.125,0,0,0,2.147-1.941,2.147,2.147,0,0,0-4.292,0A2.114,2.114,0,0,0,263.919,101.022Z" transform="translate(-240.591 -74.172)" fill="#eb1e24"/>
  <path id="Path_10915" data-name="Path 10915" d="M233.179,457.516c-.653-.429-1.295-.877-1.964-1.278-.39-.235-.42-.453-.112-.767a5.163,5.163,0,0,0,.34-.424c.544-.688.96-1.668,1.666-1.984.73-.327,1.388.722,2.16,1a.706.706,0,0,0,.239-.006l.017-.021c-.092.32.2.314.351.4,6.383,3.626,13.152,5.554,20.519,4.716a34.693,34.693,0,0,0,14.449-5.107c1.642-.828,1.641-.828,2.812.67.224.287.45.572.674.858.874,1.114.875,1.115-.372,1.866-.568.341-1.138.678-1.706,1.018-.191.088-.388.161-.572.259a40.047,40.047,0,0,1-15.574,4.791c-.3.025-.68-.13-.882.265l.026-.013a32.894,32.894,0,0,1-4.116-.192l-1.316-.132-.662-.052a1.407,1.407,0,0,0-.781-.137l-.475-.047-.613-.136-.332-.046-.57-.132-.335-.052-.57-.144a.2.2,0,0,0-.174-.029l-2.148-.638A48.72,48.72,0,0,1,233.179,457.516Zm10.108,3.5a4.02,4.02,0,0,0,1.586.346c.017-.094.035-.187.051-.281l-1.244-.279c-.006-.427-.011-.854-.018-1.281,0-.209-.078-.358-.314-.338-.207.019-.217.194-.2.338C243.2,460.015,242.984,460.539,243.288,461.012Zm-4.474-1.627c.328.088.7.106.842.591.369-1.7.369-1.7-.694-2.069-.925-.385-.925-.385-.923.637v.448C238.05,459.626,238.332,459.711,238.814,459.385Zm27.443.169c.679-.465.889-1.076.424-1.315a1.7,1.7,0,0,0-1.822.347c-.3.23-.658.759-.291,1.2.475.574,1.032.2,1.54-.042.068-.033.1-.132.155-.2Zm-17.874,1.259c-.325,1.13.363,1.183,1.128,1.16.418-.012.934.049.949-.56.03-1.2-.272-1.425-1.475-1.517C248.094,459.829,248.422,460.438,248.383,460.812Zm8.117.129c.375.281.237.815.664.836.607.029.347-.731.76-.952.016.242.024.453.045.664a.194.194,0,0,0,.079.156.187.187,0,0,0,.17.027.385.385,0,0,0,.206-.156,2.924,2.924,0,0,0-.134-1.725c-.764-.171-.725.529-.965.933-.023.04-.1.048-.18.088-.049-.105-.1-.206-.141-.311-.126-.3-.183-.651-.657-.576-.528.088-.334.485-.365.781a4.019,4.019,0,0,0,0,.73c.014.189-.071.474.273.448.246-.019.237-.23.244-.411C256.5,461.315,256.5,461.165,256.5,460.941Zm-2.213-.882c-.594-.118-1.01.088-.835.849.094.4-.423,1.127.526,1.143,1.012.017,1.6-.341,1.6-1.046,0-.837-.552-.978-1.293-.945Zm6.289.274c.156.137.267.232.377.33.219.194.391.5.755.37.421-.146.225-.52.224-.782,0-.334.174-.923-.161-.956-.581-.056-.162.653-.468.948-.1-.078-.221-.16-.332-.251-.247-.2-.424-.595-.811-.454-.434.156-.222.587-.211.874.012.308-.252.877.222.892s.122-.627.4-.972ZM251,462.049c.057-.02.132-.023.165-.062a.867.867,0,0,1,1.5,0,.36.36,0,0,0,.322.026c.146-.059.1-.224.04-.311-.385-.518-.371-1.47-1.057-1.571-.738-.109-.651.873-1.023,1.3a1.03,1.03,0,0,0-.154.327C250.716,461.951,250.824,462.026,251,462.049Zm-8.161-1.169c-.268-.584-.5-1.07-.714-1.561-.149-.337-.278-.7-.742-.647a4.312,4.312,0,0,0-.941,1.5c.29.514.544-.088.8-.035.336.064.746.045.934.431C242.282,460.786,242.427,460.89,242.835,460.88Zm25.032-2.668a4.864,4.864,0,0,0,.83.39c.386.088.677-.071.629-.519-.037-.353.255-.93-.2-1.009-.425-.074-.242.509-.333.8a.192.192,0,0,1-.072.083c-.472.048-.758-.678-1.246-.274-.347.287-.115.746-.154,1.126-.016.157-.061.4.226.384.167-.011.245-.148.255-.321S267.835,458.518,267.867,458.212Zm-20.8,3.334c-1.075-.32-1.074-.32-1.242-1.541a.691.691,0,0,0-.087-.34c-.134-.143-.386-.185-.4.056-.029.57-.27,1.28.112,1.676A1.373,1.373,0,0,0,247.063,461.546Zm12.388-.993c-.116-.244.224-.844-.243-.844-.563,0-.226.618-.311.96a.642.642,0,0,0,0,.273c.043.211-.125.556.245.577s.292-.3.306-.536C259.458,460.861,259.45,460.738,259.45,460.553Zm3.179-1.513c.486.353.388.823.4,1.265.006.152.018.316.219.317.076,0,.211-.055.218-.1a5.524,5.524,0,0,0,.138-1.458c-.019-.165-.525-.122-.977-.024Z" transform="translate(-230.287 -419.268)" fill="#faeb07"/>
  <path id="Path_10916" data-name="Path 10916" d="M272.348,509.094c.707,1.065,1.4,2.141,2.129,3.189.3.435.253.632-.222.882-7.857,4.08-16.115,6.226-24.989,5.315a44.564,44.564,0,0,1-18.227-6.285c-.2-.121-.587-.2-.323-.59a22.253,22.253,0,0,1,2.213-3.415,39.042,39.042,0,0,0,11.582,4.963l.882.207.554.139.338.051.567.138.469.051a.9.9,0,0,0,.614.133l.5.049a1.955,1.955,0,0,0,.944.143,27.359,27.359,0,0,0,4.9.209c.242-.005.547.131.718-.192l-.026.013a1.312,1.312,0,0,0,.852.188,39.584,39.584,0,0,0,12.362-3.25C269.583,510.395,270.964,509.739,272.348,509.094Zm-36.477,3c.386.011.729.353,1.236.187a1.724,1.724,0,0,0-1.256-.613c-.16-.088-.438-.206-.467-.017a4.483,4.483,0,0,0,.026,1.814c.039.149.252.361.434-.012A1.3,1.3,0,0,0,235.871,512.094Zm10.441,4.541c-.021-.5-.834-.956-.06-1.531.167-.125.006-.484-.184-.648a2.735,2.735,0,0,0-1.533-.441c-.151-.021-.207.1-.207.229q0,.964.006,1.926a.238.238,0,0,0,.206.256.209.209,0,0,0,.168-.03.216.216,0,0,0,.092-.147c.194-1.33.514-.386.79-.043.146.182.188.466.488.486.309.088.678.307.928.063.554-.54.954-.467,1.328.171a.3.3,0,0,0,.388.131c.174-.088.081-.257.029-.4q-.317-.852-.628-1.707c-.087-.23-.155-.473-.457-.488-.328-.018-.337.279-.456.475-.324.548-.247,1.323-.9,1.695Zm8.787-.642a4.338,4.338,0,0,0,.294.409c.27.289.31.977.827.8.488-.163.21-.758.2-1.147-.01-.435.3-1.2-.225-1.245s-.046.794-.375,1.182c-.077-.083-.155-.163-.23-.247-.284-.318-.329-1.052-.852-.9-.5.147-.233.794-.23,1.21s-.248,1.188.218,1.2C255.26,517.27,254.84,516.5,255.1,515.993Zm-2.13-1.218a1.144,1.144,0,0,0-1.17,1.235c-.014.852.474,1.417,1.22,1.381.794-.038,1.088-.547,1.1-1.286C254.137,515.266,253.708,514.778,252.968,514.776Zm5.717,2.254a1.336,1.336,0,0,0,1.409-1.433c0-.678-.279-1.121-1-1.147a1.279,1.279,0,0,0-.941.381,1.324,1.324,0,0,0-.38.954C257.777,516.458,257.978,517.009,258.685,517.03Zm6.31-2.482c.469.165.51.929,1.068.759.5-.154.285-.686.272-1.043-.015-.394.216-1.126-.16-1.128-.633,0-.174.741-.362,1.108-.02.039-.087.05-.155.088-.132-.159-.26-.328-.4-.482-.174-.187-.279-.519-.633-.383s-.194.464-.227.716a1.1,1.1,0,0,0,0,.365c.087.392-.211,1.113.174,1.125.628.015.151-.753.429-1.127Zm-21.2.464c-.26-.561-1.073-.146-1.227-.819.353-.227.658.017.97.042.123.011.246.011.288-.135a.221.221,0,0,0-.025-.178.214.214,0,0,0-.148-.1c-.438-.107-.88-.2-1.323-.279a.2.2,0,0,0-.172.036.21.21,0,0,0-.082.158c0,.7-.292,1.522.131,2.045a1.965,1.965,0,0,0,1.728.38c-.174-.5-.581-.364-.862-.489-.207-.088-.536-.088-.484-.428.06-.4.36-.194.571-.176s.4.185.639-.06Zm23.017-1.181v.856c0,.23.12.341.347.265a2.533,2.533,0,0,0,1.388-.794,1.226,1.226,0,0,0,.158-1.451c-.31-.47-.747-.161-1.15-.109-.8.1-.815.649-.74,1.233Zm-27.208.176c.183.394-.3,1.01.406,1.226.443.134.932.469,1.354.1a1.215,1.215,0,0,0,.118-1.512,1.55,1.55,0,0,0-1.649-.842c-.418.037-.087.674-.226,1.031Zm-.368-1.166a4.6,4.6,0,0,0-1.5-.564c-.234-.075-.282.1-.327.3-.331,1.494.213,2.178,1.806,2.243-.027-.389-.382-.311-.592-.441-.236-.142-.752-.094-.637-.478.139-.466.531-.05.812-.041.111,0,.245.046.268-.146-.181-.506-1-.169-1.111-.814.426-.252.805.327,1.287-.055Zm30.756.836c.442.028.491-.236.626-.431a.943.943,0,0,1,1.041-.481c.221.065.415.143.558-.024.187-.217-.067-.378-.161-.548a5.828,5.828,0,0,0-.337-.536c-.417-.6-.684-.588-.987.1-.26.6-.472,1.229-.738,1.925Zm-7.9.5c-.556.116-1.363-.412-1.6.562a6.314,6.314,0,0,0-.017,1.543c0,.181.015.392.26.392s.26-.209.25-.392c-.019-.4.023-.727.536-.741.193-.005.494-.039.434-.323-.063-.308-.336-.116-.521-.1-.165.013-.365.13-.422-.151-.049-.244.114-.3.3-.353C261.581,514.517,261.908,514.566,262.09,514.173Zm-13.463.7c.945.026.8.633.8,1.147,0,.275,0,.551.008.825.007.2.087.362.318.345.213-.015.191-.2.2-.34.01-.244-.017-.491.012-.733.048-.388-.26-.993.535-.971.045,0,.125-.126.134-.2a.21.21,0,0,0-.052-.169.2.2,0,0,0-.161-.068,3.043,3.043,0,0,0-1.791.16Zm15.39-.055c-.209-.307.234-1.018-.281-1.037s-.174.68-.279,1.048a.166.166,0,0,0,0,.088c.12.364-.253,1.059.252,1.054s.167-.717.309-1.158Zm5.226-1.864a3.949,3.949,0,0,0,.005.546c.025.182-.128.493.184.506s.331-.284.331-.536c0-.364.008-.73,0-1.094,0-.168.045-.415-.206-.423-.275-.01-.309.23-.311.454,0,.182,0,.358,0,.543Zm-18.3,3.076c.161.383-.247,1.091.3,1.128.352.024.174-.733.161-1.122s.288-1.106-.248-1.137C250.789,514.879,251.079,515.629,250.945,516.026Z" transform="translate(-230.042 -469.588)" fill="#f8e909"/>
  <path id="Path_10917" data-name="Path 10917" d="M264.608,442.051c0-.539-.528-.5-.8-.738a9.565,9.565,0,0,0-1.047-.664c1.524-.24,2.831-.408,4.121-.663a3.131,3.131,0,0,1,2.231.207,14.714,14.714,0,0,0,2.9,1.455c2.882,1.151,5.78,2.265,8.683,3.367.694.265,1.143,1.211,1.655,1.184.541-.028.981-.933,1.678-1.2,1.55-.589,3.084-1.219,4.626-1.825a41.219,41.219,0,0,0,7.3-3.345l5.279.908c-.462.578-1.1.7-1.528,1.1-1.015.529-2.016,1.083-3.046,1.579a32.34,32.34,0,0,1-17.484,3.386,36,36,0,0,1-13.8-4.56c-.221-.122-.419-.481-.762-.219Z" transform="translate(-259.387 -407.26)" fill="#47c3ee"/>
  <path id="Path_10918" data-name="Path 10918" d="M284.077,462.77c.343-.265.541.1.762.219a35.966,35.966,0,0,0,13.792,4.56,32.33,32.33,0,0,0,17.488-3.389c1.03-.5,2.031-1.052,3.046-1.579l.234.2a34.718,34.718,0,0,1-14.452,5.107c-7.367.838-14.137-1.09-20.519-4.716C284.282,463.084,283.985,463.09,284.077,462.77Z" transform="translate(-278.839 -428.003)" fill="#444239"/>
  <path id="Path_10919" data-name="Path 10919" d="M362.817,437.685a41.222,41.222,0,0,1-7.3,3.345c-1.543.606-3.077,1.235-4.626,1.825-.694.265-1.137,1.17-1.678,1.2-.513.026-.96-.919-1.655-1.184-2.906-1.1-5.8-2.215-8.683-3.367a14.521,14.521,0,0,1-2.9-1.455l.213-.171c1.851.776,3.632,1.718,5.532,2.373.311.108.624.209.934.312.05.009.1.02.156.033q2.1.813,4.2,1.635c.786.309,1.519,1.14,2.178,1.139.707,0,1.459-.814,2.256-1.171,1.288-.576,2.674-.9,3.914-1.6h-.006a.479.479,0,0,0,.462-.176h0l.481-.137a48.683,48.683,0,0,0,6.306-2.807Z" transform="translate(-326.245 -405.117)" fill="#444239"/>
  <path id="Path_10920" data-name="Path 10920" d="M528.677,515.149c-1.388.645-2.764,1.3-4.153,1.934a39.582,39.582,0,0,1-12.362,3.25,1.313,1.313,0,0,1-.852-.188c.2-.4.587-.242.882-.265a40.048,40.048,0,0,0,15.574-4.791c.184-.1.381-.177.572-.259Z" transform="translate(-486.372 -475.643)" fill="#4c4a3d"/>
  <path id="Path_10921" data-name="Path 10921" d="M268.762,509.466A39.041,39.041,0,0,1,257.18,504.5v-.353a48.707,48.707,0,0,0,9.978,4.5l2.148.638A.812.812,0,0,0,268.762,509.466Z" transform="translate(-254.292 -465.905)" fill="#4c4a3d"/>
  <path id="Path_10922" data-name="Path 10922" d="M356.453,109.308a.2.2,0,0,1-.305-.068,6.824,6.824,0,0,1-1.548-6.073,4.151,4.151,0,0,1,4.814-3.181c4.473.713,7.226,6.058,5.616,9.478a2.8,2.8,0,0,0,.738,2.849c.32.317.513.259.665-.1a2.94,2.94,0,0,0,.124-2.484c-1.931-4.044,2.245-9.978,7.112-9.426,2.573.292,4.1,2.757,3.549,5.7a7.217,7.217,0,0,1-8.087,5.886,2.385,2.385,0,0,0-1.638.372c-.814.5-.872,1.009-.248,1.735q1.783,2.073,3.557,4.152l-.607.2a32.437,32.437,0,0,1-3.335-3.68c-.5-.582-.753-.678-1.207.048-.835,1.333-1.767,2.6-2.657,3.9a.523.523,0,0,0-.564-.377c.856-1.293,1.709-2.59,2.57-3.882a1.467,1.467,0,0,0-.816-2.4,4.27,4.27,0,0,0-2.133-.151,6.076,6.076,0,0,1-5.566-2.181.212.212,0,0,1-.03-.316,1.08,1.08,0,0,1,1.475.761,1.226,1.226,0,0,0,1.372.9l.58.019-.167.212a2.588,2.588,0,0,0,1.546.148l-.057-.176,1.011-.181c.228.124.36-.016.482-.182a2.215,2.215,0,0,0,.8-.588.4.4,0,0,0,.338-.365l.58-.773c.449-.068.6-.724.3-1.294l.06-.764.322.094a1.762,1.762,0,0,0-.39-1.35c-.406-.377-.894-.646-.4-1.373.26-.379-.154-.379-.434-.271l-.672-1.049c.156-.211.278-.569-.087-.495-.9.181-.836-.5-1.145-.978-.2-.312-.62-.971-1.291-.553l-.632-.218.063-.322a4.526,4.526,0,0,1-1.4-.167c-.129-.04-.039.19-.05.3l-.954.217c-.167-.088-.24-.373-.489-.278s-.129.274-.069.434l-.743.553c-.128-.11-.252-.311-.434-.141-.158.146-.029.332.026.5l-.495.926c-.134-.088-.371-.326-.4-.06a7.312,7.312,0,0,1-.239,1.041c-.062.236.182.141.314.137l-.026.932-.22-.158a1.122,1.122,0,0,0,.181,1.323.99.99,0,0,1,.478,1.377c-.141.353.087.421.383.289l.711,1.039A.825.825,0,0,0,356.453,109.308Zm19.7-2.506a2.722,2.722,0,0,0,.347-1.323c.59-.153.764-.491.244-.882-.473-.353-.56-.626-.159-1.094.26-.3.211-.541-.272-.383q-.238-.391-.477-.781c.087-.137.276-.252.13-.441-.189-.247-.347.018-.521.055l-.722-.574c.233-.522-.03-.454-.393-.38-.233.048-.484.427-.752-.039-.341-.593-.851-.461-1.309-.14-.347.245-.629.478-1.113.226-.306-.16-.285.153-.2.371l-1.1.634c-.147-.067-.292-.235-.457-.054-.123.135-.038.272.036.4l-.947.913c-.133-.119-.434-.244-.4-.046.179.9-.473,1.159-.986,1.576-.129.106-.614.538.1.634a3.84,3.84,0,0,0-.237,1.311c-.623.117-.772.41-.318.911.311.341.588.64.174,1.136-.3.353-.117.506.3.373l.547.741c0,.219.156.3.32.368a2.184,2.184,0,0,0,.908.523c.213.284.627.122.849.424.485.659,1.041.566,1.6.094.265-.224.47-.347.841-.1.291.195.425-.037.26-.353l1.128-.7c.14.14.3.317.5.14.174-.154-.029-.306-.081-.456l.939-.851c.223.123.626.159.442-.154-.423-.713.151-.812.482-1.053a1.6,1.6,0,0,0,.7-.754c.242-.69-.312-.107-.392-.274Z" transform="translate(-343.082 -97.347)" fill="#fde108"/>
  <path id="Path_10923" data-name="Path 10923" d="M425.962,449.591h0a.38.38,0,0,0-.462.176h.006l-12.549-.005c-.053-.012-.106-.024-.156-.033-.06-.251.134-.414.206-.618a.917.917,0,0,0,.593-.422l.394-.3a1.216,1.216,0,0,0,.579-.437A.468.468,0,0,0,415,447.7l.372-.066a.94.94,0,0,0,.813.306h6.589c.293,0,.626.054.739-.353.188-.132.332.035.5.076l.63.375.463.306.594.469.363.407C426.029,449.339,426,449.464,425.962,449.591Z" transform="translate(-396.4 -414.283)" fill="#f9b58b"/>
  <path id="Path_10924" data-name="Path 10924" d="M397.982,307.46a.522.522,0,0,1,.564.377c-.128,2.382-1.988,3.745-3.18,5.491-.382.559-1.023.258-1.438-.12s-.868-.862-.382-1.492c.854-1.106,1.712-2.211,2.624-3.265C396.633,307.913,397.394,307.825,397.982,307.46Z" transform="translate(-378.634 -286.569)" fill="#2b2525"/>
  <path id="Path_10925" data-name="Path 10925" d="M536.35,306.585l.607-.2c2.211.788,3,2.972,4.348,4.606.391.476.026.954-.384,1.246-.478.341-1.193.666-1.562.14C538.116,310.586,536.392,309.027,536.35,306.585Z" transform="translate(-509.239 -285.584)" fill="#2b2525"/>
  <path id="Path_10926" data-name="Path 10926" d="M450.741,436.4c-.114.4-.446.353-.739.353h-6.589a.947.947,0,0,1-.813-.306l.269-.192a.747.747,0,0,0,.583-.275c.25-.137.582-.049.788-.3l.5-.106.757-.161.386-.088.709-.043h.559l.728.081.5.08.694.16c.16.364.55.232.805.39.232-.025.37.3.628.176Z" transform="translate(-423.623 -403.111)" fill="#fdede2"/>
  <path id="Path_10927" data-name="Path 10927" d="M470.17,333.264a2.111,2.111,0,0,1-2.145-1.936,2.167,2.167,0,0,1,2.1-2.1,2.024,2.024,0,1,1,.041,4.038Zm-.013-3.378a1.547,1.547,0,0,0-1.655,1.541,1.687,1.687,0,0,0,3.349-.138,1.562,1.562,0,0,0-1.695-1.406Z" transform="translate(-446.842 -306.414)" fill="#444239"/>
  <path id="Path_10928" data-name="Path 10928" d="M443.636,423.005c-.206.254-.538.167-.788.3-.26-.409-.526-.814-.781-1.227-.134-.218-.223-.465.045-.641s.446.042.588.237C443.021,422.115,443.326,422.562,443.636,423.005Z" transform="translate(-423.019 -390.433)" fill="#fde108"/>
  <path id="Path_10929" data-name="Path 10929" d="M461.83,417.346l-.757.161c-.174-.456-.347-.91-.507-1.368-.082-.233-.166-.506.131-.634.347-.153.478.129.581.392C461.468,416.378,461.647,416.863,461.83,417.346Z" transform="translate(-439.961 -385.041)" fill="#fde108"/>
  <path id="Path_10930" data-name="Path 10930" d="M555.333,443.768l-.594-.469c.379-.387.751-.781,1.139-1.158a.339.339,0,0,1,.548.017.347.347,0,0,1-.043.491C556.043,443.03,555.685,443.4,555.333,443.768Z" transform="translate(-526.034 -409.247)" fill="#fde108"/>
  <path id="Path_10931" data-name="Path 10931" d="M542.77,433.016l-.63-.375c.26-.409.521-.82.788-1.226.157-.24.355-.476.656-.265.26.184.124.441-.01.65C543.311,432.209,543.038,432.612,542.77,433.016Z" transform="translate(-514.527 -399.271)" fill="#fde108"/>
  <path id="Path_10932" data-name="Path 10932" d="M527.088,425.108c-.26.124-.4-.2-.628-.176a4.312,4.312,0,0,1,.726-1.528.359.359,0,0,1,.521-.194.374.374,0,0,1,.115.552C527.586,424.218,527.334,424.661,527.088,425.108Z" transform="translate(-500.207 -392.056)" fill="#fde108"/>
  <path id="Path_10933" data-name="Path 10933" d="M495.728,415.9l-.728-.081c.106-.5.207-1,.318-1.506.05-.225.174-.4.426-.372.318.041.353.295.3.547C495.954,414.961,495.836,415.43,495.728,415.9Z" transform="translate(-471.477 -383.651)" fill="#fde108"/>
  <path id="Path_10934" data-name="Path 10934" d="M509.874,419.109l-.694-.16c.215-.5.417-1,.65-1.488.093-.195.266-.353.509-.217a.385.385,0,0,1,.143.55C510.284,418.235,510.076,418.676,509.874,419.109Z" transform="translate(-484.427 -386.62)" fill="#fde108"/>
  <path id="Path_10935" data-name="Path 10935" d="M427.962,430.892l-.269.192-.372.066c-.273-.323-.549-.645-.818-.971-.178-.217-.37-.464-.068-.706.249-.2.457-.009.607.187A4.829,4.829,0,0,1,427.962,430.892Z" transform="translate(-408.716 -397.741)" fill="#fde108"/>
  <path id="Path_10936" data-name="Path 10936" d="M480.81,415.232l-.709.043c-.007-.4-.031-.794-.015-1.187.012-.307-.135-.794.336-.8.539-.006.361.518.384.847C480.832,414.5,480.811,414.867,480.81,415.232Z" transform="translate(-457.846 -383.061)" fill="#faeb07"/>
  <path id="Path_10937" data-name="Path 10937" d="M403.887,450.66a.917.917,0,0,1-.594.422c-.246-.176-.5-.333-.735-.523s-.593-.364-.3-.716c.272-.324.542-.028.776.143C403.328,450.2,403.6,450.434,403.887,450.66Z" transform="translate(-386.683 -416.256)" fill="#fde108"/>
  <path id="Path_10938" data-name="Path 10938" d="M415.117,440.317a1.217,1.217,0,0,1-.579.437c-.245-.222-.5-.433-.731-.673-.209-.22-.646-.441-.292-.794.327-.326.588.074.823.278C414.612,439.8,414.859,440.064,415.117,440.317Z" transform="translate(-396.941 -406.652)" fill="#fde108"/>
  <path id="Path_10939" data-name="Path 10939" d="M564.6,466.921c.034-.127.068-.254.1-.381l.38.244Z" transform="translate(-535.038 -431.613)" fill="#ed763f"/>
  <path id="Path_10940" data-name="Path 10940" d="M431.579,532.015c.039-.374-.289-.983.6-.917,1.205.088,1.507.312,1.475,1.517-.016.609-.531.548-.949.56C431.942,533.2,431.254,533.146,431.579,532.015Z" transform="translate(-413.483 -490.471)" fill="#4c4a3d"/>
  <path id="Path_10941" data-name="Path 10941" d="M520.382,530.81v.529c-.007.181,0,.393-.244.411-.347.026-.26-.259-.273-.448a4.036,4.036,0,0,1,0-.73c.031-.3-.163-.7.365-.781.474-.075.531.274.657.576.043.1.093.206.141.311.081-.036.156-.044.18-.088.24-.4.2-1.1.965-.933a2.924,2.924,0,0,1,.134,1.725.385.385,0,0,1-.206.156.187.187,0,0,1-.17-.027.194.194,0,0,1-.079-.156c-.021-.211-.03-.422-.045-.663-.41.221-.154.981-.76.952C520.617,531.621,520.755,531.087,520.382,530.81Z" transform="translate(-494.17 -489.138)" fill="#4c4a3d"/>
  <path id="Path_10942" data-name="Path 10942" d="M491.062,532.673c.737-.032,1.293.109,1.29.945,0,.706-.587,1.059-1.6,1.046-.948-.016-.434-.738-.526-1.143C490.052,532.761,490.467,532.553,491.062,532.673Zm-.307,1.043c.026.243-.1.625.412.559.364-.047.625-.2.636-.618s-.182-.6-.586-.63c-.542-.045-.456.327-.462.686Z" transform="translate(-467.065 -491.882)" fill="#444239"/>
  <path id="Path_10943" data-name="Path 10943" d="M565.645,525.326c-.28.346.077.986-.405.971s-.21-.584-.222-.892c-.011-.288-.22-.718.211-.874.387-.14.564.254.811.454.111.088.229.176.332.251.305-.295-.114-1,.468-.948.339.034.161.623.161.956,0,.265.2.635-.224.782-.364.126-.536-.176-.755-.37Z" transform="translate(-535.359 -484.262)" fill="#444239"/>
  <path id="Path_10944" data-name="Path 10944" d="M460.124,535.594c-.174-.023-.28-.1-.209-.3a1.03,1.03,0,0,1,.154-.327c.372-.428.285-1.412,1.023-1.3.686.1.672,1.053,1.057,1.571.065.088.106.252-.04.311a.36.36,0,0,1-.322-.026.867.867,0,0,0-1.5,0C460.256,535.571,460.181,535.573,460.124,535.594Z" transform="translate(-439.416 -492.812)" fill="#444239"/>
  <path id="Path_10945" data-name="Path 10945" d="M343.235,519.42c-.408.01-.553-.094-.66-.314-.188-.386-.6-.367-.935-.431-.26-.049-.512.55-.8.035a4.361,4.361,0,0,1,.941-1.5c.464-.051.593.31.742.647C342.74,518.35,342.967,518.836,343.235,519.42Z" transform="translate(-330.688 -477.808)" fill="#444239"/>
  <path id="Path_10946" data-name="Path 10946" d="M390.67,562.495a.806.806,0,0,1,.549-.177.2.2,0,0,1,.174.029.691.691,0,0,0,.572.146l.335.052a.711.711,0,0,0,.57.132l.332.046a.776.776,0,0,0,.612.133l.475.047a1.029,1.029,0,0,0,.781.137l.662.052a2.308,2.308,0,0,0,1.315.134,32.894,32.894,0,0,0,4.116.192c-.174.324-.476.187-.718.192a27.37,27.37,0,0,1-4.9-.209,1.331,1.331,0,0,0-.944-.143l-.5-.049a.794.794,0,0,0-.614-.133l-.469-.051a.706.706,0,0,0-.567-.138l-.337-.051a.707.707,0,0,0-.554-.139Z" transform="translate(-376.199 -518.934)" fill="#444239"/>
  <path id="Path_10947" data-name="Path 10947" d="M619.048,512.157c-.051.068-.087.168-.155.2-.508.243-1.065.618-1.54.042-.367-.441-.013-.971.291-1.2a1.7,1.7,0,0,1,1.822-.347c.465.239.255.851-.424,1.316-.19-.127-.039-.256,0-.381.074-.239.143-.513-.13-.633a.793.793,0,0,0-.881.265.524.524,0,0,0-.174.646c.166.316.427.216.7.142C618.7,512.164,618.858,511.859,619.048,512.157Z" transform="translate(-583.071 -471.881)" fill="#4c4a3d"/>
  <path id="Path_10948" data-name="Path 10948" d="M650.861,500.242c-.03.306-.052.484-.063.661s-.087.31-.255.321c-.286.02-.241-.227-.226-.384.039-.38-.191-.839.154-1.126.488-.4.774.321,1.246.273a.192.192,0,0,0,.072-.083c.091-.292-.092-.875.333-.8.453.079.16.656.2,1.009.048.447-.243.61-.629.519A4.553,4.553,0,0,1,650.861,500.242Z" transform="translate(-613.282 -461.298)" fill="#444239"/>
  <path id="Path_10949" data-name="Path 10949" d="M319.653,508.61c1.065.365,1.065.365.694,2.069-.142-.485-.514-.5-.842-.591A1.01,1.01,0,0,1,319.653,508.61Z" transform="translate(-310.98 -469.971)" fill="#4c4a3d"/>
  <path id="Path_10950" data-name="Path 10950" d="M397.962,529.2a1.371,1.371,0,0,1-1.617-.151c-.382-.394-.141-1.1-.112-1.676.012-.241.26-.2.4-.056a.638.638,0,0,1,.087.34C396.888,528.882,396.887,528.882,397.962,529.2Z" transform="translate(-381.186 -486.924)" fill="#363230"/>
  <path id="Path_10951" data-name="Path 10951" d="M314.147,506.161a1.008,1.008,0,0,0-.147,1.478c-.482.326-.764.242-.775-.393V506.8C313.222,505.777,313.222,505.777,314.147,506.161Z" transform="translate(-305.474 -467.523)" fill="#444239"/>
  <path id="Path_10952" data-name="Path 10952" d="M553.959,529.874c0,.185.006.308,0,.429-.014.232.051.557-.306.536s-.2-.366-.245-.577a.64.64,0,0,1,0-.273c.087-.34-.252-.96.311-.96C554.184,529.027,553.844,529.631,553.959,529.874Z" transform="translate(-524.796 -488.589)" fill="#4c4a3d"/>
  <path id="Path_10953" data-name="Path 10953" d="M596.66,520.553c.452-.1.954-.141.979.024a5.53,5.53,0,0,1-.138,1.458c-.007.045-.142.1-.218.1-.2,0-.213-.165-.219-.317C597.048,521.376,597.146,520.9,596.66,520.553Z" transform="translate(-564.316 -480.781)" fill="#363230"/>
  <path id="Path_10954" data-name="Path 10954" d="M371.974,524.843c-.3-.473-.087-1-.14-1.495-.017-.144-.007-.319.2-.338.236-.02.311.129.314.338.007.427.012.854.018,1.281Z" transform="translate(-358.974 -483.1)" fill="#363230"/>
  <path id="Path_10955" data-name="Path 10955" d="M373.72,541.594l.393-.214,1.244.279c-.017.094-.034.187-.051.281A4.021,4.021,0,0,1,373.72,541.594Z" transform="translate(-360.72 -499.85)" fill="#4c4a3d"/>
  <path id="Path_10956" data-name="Path 10956" d="M450.325,571.344a2.338,2.338,0,0,1-1.315-.134Z" transform="translate(-429.477 -527.048)" fill="#4c4a3d"/>
  <path id="Path_10957" data-name="Path 10957" d="M433.161,569.115a1.026,1.026,0,0,1-.781-.137A1.408,1.408,0,0,1,433.161,569.115Z" transform="translate(-414.29 -525.005)" fill="#4c4a3d"/>
  <path id="Path_10958" data-name="Path 10958" d="M420.442,567.163a.773.773,0,0,1-.612-.133Z" transform="translate(-402.829 -523.237)" fill="#4c4a3d"/>
  <path id="Path_10959" data-name="Path 10959" d="M410,565.142a.711.711,0,0,1-.57-.132Z" transform="translate(-393.331 -521.395)" fill="#4c4a3d"/>
  <path id="Path_10960" data-name="Path 10960" d="M399.552,562.906a.7.7,0,0,1-.572-.146Z" transform="translate(-383.788 -519.344)" fill="#4c4a3d"/>
  <path id="Path_10961" data-name="Path 10961" d="M505.661,584.47c-.26.5.162,1.277-.372,1.264-.465-.01-.214-.775-.218-1.194s-.272-1.059.23-1.21c.521-.153.568.581.852.9.075.088.153.164.23.247.329-.389-.141-1.223.375-1.182s.214.81.225,1.245c.01.385.287.979-.2,1.147-.521.176-.557-.514-.827-.8A4.338,4.338,0,0,1,505.661,584.47Z" transform="translate(-480.605 -538.066)" fill="#4c4a3d"/>
  <path id="Path_10962" data-name="Path 10962" d="M475.8,582.83c.74,0,1.169.491,1.152,1.323-.014.738-.308,1.248-1.1,1.286-.746.036-1.234-.529-1.22-1.381A1.141,1.141,0,0,1,475.8,582.83Zm.621,1.4c0-.529-.113-.921-.607-.93s-.646.39-.648.814.132.814.634.829C476.318,584.963,476.4,584.562,476.418,584.23Z" transform="translate(-452.871 -537.643)" fill="#444239"/>
  <path id="Path_10963" data-name="Path 10963" d="M544.39,581.753c-.709-.021-.91-.572-.913-1.241a1.323,1.323,0,0,1,.38-.954,1.279,1.279,0,0,1,.94-.381c.723.023,1,.466,1,1.147A1.332,1.332,0,0,1,544.39,581.753Zm.876-1.388c-.009-.363-.087-.706-.521-.706-.541,0-.724.394-.735.86-.01.387.116.788.586.76.516-.03.683-.429.672-.914Z" transform="translate(-515.748 -534.311)" fill="#444239"/>
  <path id="Path_10964" data-name="Path 10964" d="M408.979,581.482c.651-.371.57-1.147.9-1.695.12-.2.128-.492.456-.475.3.015.374.258.457.488q.312.853.628,1.707c.052.141.144.308-.029.4a.3.3,0,0,1-.388-.131c-.374-.638-.774-.711-1.328-.171-.251.244-.62.028-.928-.063Z" transform="translate(-392.71 -534.435)" fill="#4c4a3d"/>
  <path id="Path_10965" data-name="Path 10965" d="M620.154,565.634c-.278.374.2,1.142-.421,1.124-.389-.011-.092-.733-.174-1.125a1.1,1.1,0,0,1,0-.365c.033-.252-.129-.579.227-.716s.458.2.633.383c.144.154.271.323.4.482.066-.035.135-.047.155-.088.192-.367-.271-1.111.362-1.108.376,0,.145.733.16,1.128.014.357.232.888-.272,1.043C620.664,566.563,620.624,565.8,620.154,565.634Z" transform="translate(-585.2 -520.675)" fill="#4c4a3d"/>
  <path id="Path_10966" data-name="Path 10966" d="M390.546,576.814l-.229.058c-.3-.02-.343-.3-.488-.486-.276-.342-.6-1.286-.79.043a.216.216,0,0,1-.092.147.209.209,0,0,1-.168.03.238.238,0,0,1-.206-.256q-.01-.962-.006-1.926c0-.13.056-.251.206-.229a2.707,2.707,0,0,1,1.533.441c.19.163.351.522.184.648C389.712,575.859,390.525,576.311,390.546,576.814Zm-.594-1.775c-.109-.3-.4-.281-.649-.319-.2-.033-.237.149-.213.292.059.371.37.314.619.326C389.869,575.345,389.979,575.251,389.951,575.039Z" transform="translate(-374.277 -529.767)" fill="#444239"/>
  <path id="Path_10967" data-name="Path 10967" d="M363.243,570.34c-.241.245-.438.088-.636.064s-.511-.223-.571.176c-.052.343.277.336.484.428.28.124.686-.012.862.489a1.965,1.965,0,0,1-1.728-.38c-.423-.523-.134-1.349-.131-2.045a.21.21,0,0,1,.082-.158.2.2,0,0,1,.172-.036c.443.082.885.176,1.323.279a.214.214,0,0,1,.148.1.221.221,0,0,1,.025.178c-.043.146-.165.146-.288.135-.312-.026-.617-.269-.97-.042C362.168,570.194,362.986,569.779,363.243,570.34Z" transform="translate(-349.491 -524.917)" fill="#4c4a3d"/>
  <path id="Path_10968" data-name="Path 10968" d="M647.369,557.83c-.075-.584-.058-1.131.744-1.235.4-.052.841-.361,1.151.109a1.226,1.226,0,0,1-.158,1.451,2.551,2.551,0,0,1-1.388.794c-.226.077-.341-.034-.347-.265C647.364,558.411,647.369,558.136,647.369,557.83Zm.525.029c.213.06-.289.59.268.5a.827.827,0,0,0,.718-.9c0-.307-.094-.529-.462-.515C647.842,556.972,647.865,557.378,647.894,557.859Z" transform="translate(-610.599 -513.588)" fill="#4c4a3d"/>
  <path id="Path_10969" data-name="Path 10969" d="M334.09,563.392c.14-.353-.192-.994.226-1.031a1.545,1.545,0,0,1,1.649.842,1.214,1.214,0,0,1-.118,1.512c-.422.371-.91.036-1.354-.1C333.785,564.4,334.273,563.786,334.09,563.392Zm.561.088c-.028.452-.081.882.507.91.468.024.434-.329.443-.627.014-.495-.207-.868-.714-.871-.442,0-.16.425-.236.592Z" transform="translate(-324.528 -518.972)" fill="#444239"/>
  <path id="Path_10970" data-name="Path 10970" d="M309.6,554.934c-.482.382-.861-.2-1.284.059.107.645.929.308,1.111.814-.023.191-.157.149-.268.146-.281-.01-.673-.425-.812.041-.115.385.4.336.637.478.21.126.565.049.592.441-1.593-.064-2.137-.749-1.806-2.243.045-.2.093-.371.327-.3A4.568,4.568,0,0,1,309.6,554.934Z" transform="translate(-300.409 -511.68)" fill="#444239"/>
  <path id="Path_10971" data-name="Path 10971" d="M684.32,545c.266-.7.478-1.323.744-1.924.3-.685.57-.7.987-.1a5.842,5.842,0,0,1,.338.536c.094.17.347.331.161.548-.143.167-.337.088-.558.024a.938.938,0,0,0-1.041.481C684.813,544.761,684.762,545.024,684.32,545Z" transform="translate(-644.37 -500.907)" fill="#4c4a3d"/>
  <path id="Path_10972" data-name="Path 10972" d="M575.774,575.544c-.182.4-.509.349-.781.434-.186.058-.347.11-.3.353.056.281.26.164.422.151.187-.014.459-.206.521.1.059.284-.242.318-.434.323-.514.014-.555.341-.536.741.009.183,0,.392-.25.392s-.26-.211-.26-.392a6.319,6.319,0,0,1,.017-1.543C574.411,575.128,575.218,575.656,575.774,575.544Z" transform="translate(-543.726 -530.959)" fill="#4c4a3d"/>
  <path id="Path_10973" data-name="Path 10973" d="M438.08,581.56a3.068,3.068,0,0,1,1.791-.162.2.2,0,0,1,.161.067.211.211,0,0,1,.052.169c-.01.075-.087.2-.134.2-.792-.021-.488.583-.535.971-.03.242,0,.489-.012.733-.006.143.016.325-.2.34-.234.017-.311-.143-.318-.345-.01-.274-.006-.55-.008-.825C438.876,582.192,439.027,581.585,438.08,581.56Z" transform="translate(-419.496 -536.283)" fill="#4c4a3d"/>
  <path id="Path_10974" data-name="Path 10974" d="M285.1,546.809a1.3,1.3,0,0,1-.027,1.359c-.181.373-.395.161-.434.012a4.483,4.483,0,0,1-.026-1.814c.029-.19.307-.073.467.017C285.083,546.525,285.092,546.667,285.1,546.809Z" transform="translate(-279.269 -504.303)" fill="#444239"/>
  <path id="Path_10975" data-name="Path 10975" d="M609.337,572.521c-.141.441.193,1.147-.309,1.155s-.132-.69-.252-1.053a.168.168,0,0,1,0-.088c.1-.368-.229-1.068.279-1.048S609.124,572.214,609.337,572.521Z" transform="translate(-575.363 -527.299)" fill="#4c4a3d"/>
  <path id="Path_10976" data-name="Path 10976" d="M675.533,551.748V551.2c0-.223.036-.463.311-.454.251.008.2.255.206.423.01.364,0,.73,0,1.094,0,.251-.02.548-.331.536s-.159-.324-.184-.506A3.93,3.93,0,0,1,675.533,551.748Z" transform="translate(-636.333 -508.39)" fill="#4c4a3d"/>
  <path id="Path_10977" data-name="Path 10977" d="M464.8,585.306c.134-.4-.154-1.153.21-1.131.536.032.231.738.248,1.137s.192,1.147-.16,1.122C464.557,586.4,464.96,585.691,464.8,585.306Z" transform="translate(-443.897 -538.869)" fill="#2b2525"/>
  <path id="Path_10978" data-name="Path 10978" d="M290.85,548.036c-.007-.142-.014-.284-.02-.426a1.714,1.714,0,0,1,1.256.613C291.579,548.385,291.236,548.048,290.85,548.036Z" transform="translate(-285.022 -505.53)" fill="#865646"/>
  <path id="Path_10979" data-name="Path 10979" d="M435.93,572.9a1.331,1.331,0,0,1,.944.143A1.955,1.955,0,0,1,435.93,572.9Z" transform="translate(-417.532 -528.573)" fill="#4c4a3d"/>
  <path id="Path_10980" data-name="Path 10980" d="M400.83,566.695a.711.711,0,0,1,.554.138Z" transform="translate(-385.478 -522.927)" fill="#4c4a3d"/>
  <path id="Path_10981" data-name="Path 10981" d="M411.11,568.824a.723.723,0,0,1,.567.138Z" transform="translate(-394.866 -524.865)" fill="#4c4a3d"/>
  <path id="Path_10982" data-name="Path 10982" d="M423.06,570.912a.792.792,0,0,1,.614.133A.9.9,0,0,1,423.06,570.912Z" transform="translate(-405.779 -526.769)" fill="#4c4a3d"/>
  <path id="Path_10983" data-name="Path 10983" d="M414.76,472.78l12.549.005c-1.24.694-2.626,1.022-3.914,1.6-.8.353-1.551,1.171-2.256,1.171-.659,0-1.388-.83-2.178-1.139Q416.863,473.593,414.76,472.78Z" transform="translate(-398.199 -437.303)" fill="#ed763f"/>
  <path id="Path_10984" data-name="Path 10984" d="M559.32,470.877a.372.372,0,0,1,.462-.176A.488.488,0,0,1,559.32,470.877Z" transform="translate(-530.216 -435.392)" fill="#ed763f"/>
  <path id="Path_10985" data-name="Path 10985" d="M493.979,116.661c-.164-.071-.321-.149-.32-.368.276-.207.758-.293.322-.834-.387-.478-.612-.238-.868.093-.417.133-.6-.018-.3-.373.413-.5.135-.794-.174-1.136-.455-.5-.305-.794.318-.911,1-.634,1-.634.237-1.311-.713-.1-.228-.529-.1-.634.513-.416,1.164-.676.986-1.576-.039-.2.266-.073.4.046.55.628.694-.193,1.012-.324.4-.165.153-.41-.065-.589-.074-.129-.159-.265-.036-.4.166-.176.31-.013.457.054.095.213.2.568.467.272.24-.265.986-.217.644-.909-.082-.219-.1-.529.2-.371.484.252.763.019,1.113-.226.458-.321.968-.453,1.309.14.268.466.521.088.752.039.364-.073.626-.142.393.38-.377.131-.537.289-.227.7.428.565.667.183.948-.125.174-.037.329-.3.521-.055.146.191-.047.307-.129.441-.26.209-.848.216-.423.824.356.509.617.317.9-.043.482-.158.529.082.272.383-.4.469-.314.737.159,1.094.521.394.347.732-.244.882-.427.357-1.373.574-.347,1.323.076.168.634-.416.392.274a1.6,1.6,0,0,1-.7.754c-.331.242-.905.341-.482,1.053.185.312-.219.276-.442.154-.51-.6-.688.142-.994.281-.362.164-.225.4.055.569.052.15.253.3.081.456-.2.176-.361,0-.5-.145-.134-.325-.363-.433-.584-.137-.2.265-.884.219-.54.837.166.319.031.551-.26.353-.371-.248-.576-.125-.841.1-.559.471-1.117.565-1.6-.094-.222-.3-.637-.14-.849-.424.515-.353.023-.567-.141-.756C494.377,116,494.233,116.565,493.979,116.661Zm7.462-6.449c-.246-.265-.507-.689-.637-.651-.4.116-.885.325-.948.806-.029.224.282.662.556.577a4.09,4.09,0,0,0,1.026-.732Zm-1-1.1c-.143-.291-.318-.673-.583-.649a1.069,1.069,0,0,0-.922.745.576.576,0,0,0,.515.622c.405-.045.678-.439.988-.717Zm-3.731,1.114c-.284-.282-.4-.731-.717-.618-.354.131-.852.312-.84.806.005.227.246.665.58.539a4.233,4.233,0,0,0,.974-.727Zm1.3,4.412c-.248-.223-.347-.693-.661-.575-.36.131-.826.353-.868.8-.017.193.267.652.59.554a1.726,1.726,0,0,0,.934-.783Zm2.373-.015c-.24-.193-.338-.658-.639-.584a1.26,1.26,0,0,0-.923.794c-.049.176.3.641.576.587a1.786,1.786,0,0,0,.981-.8Zm-3.314-4.724a1.806,1.806,0,0,0,.945-.787c.1-.245-.26-.637-.507-.629a1.066,1.066,0,0,0-.931.724C496.486,109.474,496.819,109.707,497.068,109.9Zm2,.329c-.276-.281-.392-.722-.705-.626-.369.112-.841.326-.855.794-.007.216.252.666.576.551a4.14,4.14,0,0,0,.985-.723Zm3.393,1.242c-.439-.486-.6-1.179-1.236-.524-.215.222-.723.308-.3.812.711.847.866-.311,1.541-.291Zm-7.217-.209c-.276-.144-.347-.641-.671-.529-.363.126-.844.333-.862.8-.009.222.26.667.583.55a1.71,1.71,0,0,0,.951-.828Zm1.431.874c.26-.311.781-.411.868-.839.035-.169-.3-.648-.581-.58a1.075,1.075,0,0,0-.9.783c-.031.226.247.533.613.633Zm-1.514,1.116c.375-.208.809-.408.942-.8.074-.214-.291-.631-.537-.612a1.132,1.132,0,0,0-.934.746C494.544,112.827,494.88,113.086,495.155,113.252Zm5.727-.84c-.213-.213-.338-.652-.621-.6a1.164,1.164,0,0,0-.92.77c-.061.229.289.664.541.612a1.885,1.885,0,0,0,1-.783Zm-6.16,1.137c-.208-.229-.347-.666-.631-.595a1.172,1.172,0,0,0-.9.794c-.042.2.274.654.573.582a1.743,1.743,0,0,0,.955-.785Zm4.092-.663c-.347.228-.8.4-.906.816-.056.221.293.664.545.618a1.263,1.263,0,0,0,.932-.778c.056-.2-.273-.514-.574-.659Zm-.279-4.1c.329-.246.781-.415.9-.813a.54.54,0,0,0-.539-.586,1.034,1.034,0,0,0-.9.719c-.069.241.259.491.537.677Zm-3.834,6.7c.323-.248.805-.4.884-.826.038-.208-.295-.661-.563-.593a1.229,1.229,0,0,0-.915.786c-.05.186.256.521.591.629Zm3.653-3.976c.228.195.356.674.618.571.364-.144.858-.353.9-.83.016-.186-.268-.639-.585-.541a1.526,1.526,0,0,0-.936.8Zm-2.465,5.477c.315.648.654.882,1.247.332.311-.29.427-.5.087-.794-.731-.617-.875.363-1.337.459Zm5.938-3.509c-.294-.165-.347-.665-.694-.546-.367.128-.822.363-.868.81-.017.187.274.654.586.554a1.882,1.882,0,0,0,.973-.821Zm-5.451-.579c-.26.294-.77.409-.83.847-.028.2.281.658.58.573a1.167,1.167,0,0,0,.893-.794C497.051,113.327,496.751,112.995,496.375,112.9Zm1.19.341c.331-.253.781-.423.9-.82.043-.147-.286-.7-.635-.581s-.825.336-.847.794c-.01.221.259.516.581.6Zm-1.616,1.885c-.347.249-.806.42-.932.821-.059.188.3.656.559.611a1.145,1.145,0,0,0,.922-.765c.059-.247-.278-.506-.548-.672Zm2.987.6c-.253-.193-.363-.671-.649-.558-.364.144-.858.353-.875.842-.005.176.271.64.6.521A1.657,1.657,0,0,0,498.937,115.723Z" transform="translate(-469.08 -103.695)" fill="#fdede2"/>
  <path id="Path_10986" data-name="Path 10986" d="M363.448,115.217a1.226,1.226,0,0,1-1.372-.9,1.08,1.08,0,0,0-1.475-.761h0a.825.825,0,0,1,.226-.549c.574-.14.221-.461.066-.618-.2-.207-.215-.882-.781-.418-.3.131-.521.067-.383-.289a.991.991,0,0,0-.478-1.377c-.377-.257-.365-.84-.181-1.323l.22.158c.137.5.405.418.718.176.174-.135.5-.265.2-.509-.272-.221-.189-1.041-.888-.6-.132,0-.376.1-.314-.137a7.553,7.553,0,0,0,.239-1.041c.029-.265.265-.026.4.06.366.373.607-.054.763-.214.3-.314-.112-.489-.272-.706-.056-.166-.184-.353-.026-.5.184-.17.309.031.434.141.2.4.325.888.933.411.636-.5-.058-.66-.19-.964-.061-.16-.174-.343.069-.434s.322.191.488.278c.131.28.2.706.644.441.2-.12.741-.188.308-.658.011-.106-.079-.335.05-.3a4.526,4.526,0,0,0,1.4.167l-.062.322c-.88.256-.142.611-.034.894.184.48.489.394.831.132.539-.41.024-.569-.166-.808.671-.421,1.091.241,1.291.553.309.481.246,1.158,1.145.978.369-.074.247.284.087.495-.449.108-.325.365-.1.561s.183.882.774.488c.279-.108.694-.109.434.271-.495.727-.007,1,.4,1.373a1.748,1.748,0,0,1,.39,1.35l-.322-.094c-.116-.353-.241-.641-.679-.314-.247.184-.579.338-.214.664.226.2.2,1.04.833.414.3.57.153,1.226-.3,1.294-.291-.547-.551-.058-.732.073-.389.282-.006.486.152.7a.4.4,0,0,1-.338.365c-.227-.424-.467-.78-.992-.338s.087.627.192.926c-.122.166-.254.305-.482.183-.169-.235-.2-.733-.655-.462-.183.109-.8.121-.356.642l.057.176a2.59,2.59,0,0,1-1.546-.148l.167-.212c.607-.146.314-.477.1-.706-.181-.2-.18-.706-.694-.458C362.589,114.483,363.148,114.84,363.448,115.217Zm-1.871-4.25c-.229.245-.722.256-.607.618s.271.864.749.872c.232,0,.694-.191.6-.521A1.592,1.592,0,0,0,361.578,110.967Zm1.208-.823c-.207.288-.719.333-.619.613.132.367.287.926.826.892.182-.011.665-.139.542-.529A1.831,1.831,0,0,0,362.785,110.144Zm1.5-3.024c-.272.134-.694.259-.681.5a1.145,1.145,0,0,0,.681.977c.26.088.762-.246.711-.491A1.661,1.661,0,0,0,364.289,107.121Zm2.578,6.264c-.22-.37-.363-.851-.756-.963-.207-.059-.748.214-.678.529.082.358.3.849.742.914C366.407,113.9,366.7,113.655,366.867,113.385Zm-4.228-.922c-.26.176-.712.253-.671.549a1.128,1.128,0,0,0,.718.961c.2.051.69-.208.651-.5A1.637,1.637,0,0,0,362.639,112.463Zm-.907-3.772c-.153.265-.671.259-.573.59.1.362.283.869.749.9.222.016.689-.194.614-.511A1.4,1.4,0,0,0,361.732,108.691Zm3.6,1.436c.287-.158.722-.248.651-.553-.087-.371-.285-.855-.728-.914-.213-.029-.674.192-.623.5A1.444,1.444,0,0,0,365.336,110.127Zm-.4,4.6c.26-.231.744-.284.647-.6-.11-.36-.29-.868-.766-.888-.219-.009-.672.176-.593.519A1.569,1.569,0,0,0,364.937,114.726Zm1.347-4.631c-.227.2-.7.243-.614.595.087.371.286.852.728.9.226.024.7-.237.633-.521A1.5,1.5,0,0,0,366.284,110.095Zm-2.987-2.924c.286-.187.738-.271.665-.566-.091-.371-.292-.858-.744-.915-.228-.028-.669.2-.616.5a1.542,1.542,0,0,0,.694.975Zm-.515.2c-.26-.311-.36-.823-.795-.89-.2-.03-.689.195-.614.518.087.373.3.85.736.912a.741.741,0,0,0,.673-.543Zm.226.523c-.192.231-.667.251-.621.573a1.172,1.172,0,0,0,.694.953c.2.06.744-.215.672-.548a1.534,1.534,0,0,0-.744-.979Zm4.272.869c-.286-.3-.328-.856-.8-.882-.23-.013-.681.2-.6.517.1.365.272.864.744.891A.73.73,0,0,0,367.28,108.759Zm-2.468,1.537c-.287-.236-.315-.794-.767-.845-.242-.028-.711.24-.648.5.087.377.312.858.747.941.19.036.559-.183.666-.6Zm3.527-.031c-.331-.318-.373-.888-.848-.9-.23,0-.717.194-.585.566.122.341.275.866.781.83a.891.891,0,0,0,.649-.5Zm-.95,1.261c-.331.247-.808.341-.724.628.106.369.308.87.76.923.2.024.69-.207.607-.542a3.8,3.8,0,0,0-.646-1.009Zm-2.757,1.085c-.308-.245-.331-.8-.79-.865-.247-.034-.688.2-.64.48a1.046,1.046,0,0,0,.718.926c.256.048.533-.192.711-.542Zm-3.773-5.4c-.33.147-.763.271-.725.54a1.138,1.138,0,0,0,.716.948c.206.057.659-.17.639-.483A1.734,1.734,0,0,0,360.859,107.212Zm5,4.607c-.285-.265-.342-.8-.8-.859-.243-.032-.685.192-.62.5.078.374.282.851.719.919.22.034.541-.194.7-.557Zm-4.521-1.421c-.308-.251-.315-.846-.81-.836-.213,0-.694.187-.587.525s.274.864.76.874a.666.666,0,0,0,.636-.563Zm4.147-4.067c-.279.19-.728.273-.634.58.109.361.292.861.757.889.217.013.669-.191.591-.529a1.386,1.386,0,0,0-.714-.94Z" transform="translate(-347.227 -101.596)" fill="#fdede2"/>
  <path id="Path_10987" data-name="Path 10987" d="M406,212.5c-.3-.378-.859-.734-.012-1.147.516-.251.515.258.694.458.21.231.5.563-.1.706Z" transform="translate(-389.774 -198.88)" fill="#ee332f"/>
  <path id="Path_10988" data-name="Path 10988" d="M415.516,110.438c.19.239.7.4.166.808-.343.265-.647.348-.831-.132-.108-.282-.846-.638.034-.894Z" transform="translate(-397.923 -106.731)" fill="#ee332f"/>
  <path id="Path_10989" data-name="Path 10989" d="M462.732,176.45c-.633.626-.607-.212-.833-.414-.364-.326-.033-.48.214-.664.434-.326.562-.034.679.314Z" transform="translate(-441.1 -166.006)" fill="#ee332f"/>
  <path id="Path_10990" data-name="Path 10990" d="M363,144.3c.7-.441.616.376.888.6.3.244-.022.374-.2.509-.313.244-.581.321-.718-.176Z" transform="translate(-350.902 -137.688)" fill="#ee332f"/>
  <path id="Path_10991" data-name="Path 10991" d="M378.183,112.26c.132.3.826.466.19.964-.607.476-.735-.012-.933-.411Z" transform="translate(-364.117 -108.591)" fill="#ee332f"/>
  <path id="Path_10992" data-name="Path 10992" d="M445.728,211.593c-.108-.3-.725-.477-.192-.926s.764-.088.992.338A2.245,2.245,0,0,1,445.728,211.593Z" transform="translate(-426.11 -198.128)" fill="#ee332f"/>
  <path id="Path_10993" data-name="Path 10993" d="M517.527,127.9c.218.176.468.424.065.589-.32.131-.462.952-1.012.324Z" transform="translate(-491.184 -122.851)" fill="#ee332f"/>
  <path id="Path_10994" data-name="Path 10994" d="M585.227,116.893c-.281.308-.521.69-.948.125-.311-.41-.151-.568.226-.7Z" transform="translate(-552.859 -112.293)" fill="#ee332f"/>
  <path id="Path_10995" data-name="Path 10995" d="M595.867,128.011c-.283.36-.544.552-.9.043-.424-.608.163-.618.423-.824Z" transform="translate(-562.634 -122.241)" fill="#ee332f"/>
  <path id="Path_10996" data-name="Path 10996" d="M500.85,201.32c.26-.331.482-.571.868-.093.434.541-.046.626-.322.834Z" transform="translate(-476.819 -189.463)" fill="#ee332f"/>
  <path id="Path_10997" data-name="Path 10997" d="M600.214,164.173c-1.028-.749-.082-.966.347-1.323A2.721,2.721,0,0,1,600.214,164.173Z" transform="translate(-567.14 -154.718)" fill="#ee332f"/>
  <path id="Path_10998" data-name="Path 10998" d="M561.233,213.845c-.347-.618.347-.576.54-.837.221-.3.45-.188.584.137Z" transform="translate(-531.875 -200.292)" fill="#ee332f"/>
  <path id="Path_10999" data-name="Path 10999" d="M577.188,201.639c-.28-.167-.417-.4-.056-.569.306-.139.484-.882.994-.281Z" transform="translate(-546.284 -189.098)" fill="#ee332f"/>
  <path id="Path_11000" data-name="Path 11000" d="M499.149,162.78c.763.677.763.677-.237,1.311A3.926,3.926,0,0,1,499.149,162.78Z" transform="translate(-475.038 -154.654)" fill="#ee332f"/>
  <path id="Path_11001" data-name="Path 11001" d="M372.44,186.585c.562-.468.577.211.781.418.155.161.508.481-.066.618Z" transform="translate(-359.551 -176.212)" fill="#ee332f"/>
  <path id="Path_11002" data-name="Path 11002" d="M453.246,136.7c-.591.4-.546-.29-.774-.488s-.347-.454.1-.561Z" transform="translate(-432.454 -129.918)" fill="#ee332f"/>
  <path id="Path_11003" data-name="Path 11003" d="M393.332,108c.434.47-.107.538-.308.658-.446.265-.513-.161-.644-.441Z" transform="translate(-377.761 -104.707)" fill="#ee332f"/>
  <path id="Path_11004" data-name="Path 11004" d="M431.124,219.951c-.442-.521.174-.529.356-.642.454-.271.486.228.655.462Z" transform="translate(-413 -206.124)" fill="#ee332f"/>
  <path id="Path_11005" data-name="Path 11005" d="M510.85,213.6c.254-.1.4-.657.766-.233.164.189.657.4.141.756A2.184,2.184,0,0,1,510.85,213.6Z" transform="translate(-485.952 -200.639)" fill="#ee332f"/>
  <path id="Path_11006" data-name="Path 11006" d="M533.461,116.75c.342.692-.4.641-.644.909-.265.3-.372-.059-.467-.272Z" transform="translate(-505.586 -112.685)" fill="#ee332f"/>
  <path id="Path_11007" data-name="Path 11007" d="M367.51,122.57c.161.214.574.388.272.706-.154.161-.4.588-.763.214Q367.265,123.028,367.51,122.57Z" transform="translate(-354.601 -117.992)" fill="#ee332f"/>
  <path id="Path_11008" data-name="Path 11008" d="M459.725,201.9c-.158-.214-.541-.417-.152-.7.181-.131.442-.618.732-.073Z" transform="translate(-438.969 -189.383)" fill="#ee332f"/>
  <path id="Path_11009" data-name="Path 11009" d="M475.171,336.678a1.562,1.562,0,0,1,1.695,1.4,1.687,1.687,0,0,1-3.349.138A1.547,1.547,0,0,1,475.171,336.678Z" transform="translate(-451.856 -313.208)" fill="#faeb07"/>
  <path id="Path_11010" data-name="Path 11010" d="M496.9,537.683c0-.359-.079-.731.462-.685.4.034.6.224.586.63s-.272.567-.636.618C496.8,538.308,496.922,537.926,496.9,537.683Z" transform="translate(-473.206 -495.852)" fill="#f8e909"/>
  <path id="Path_11011" data-name="Path 11011" d="M625.4,516.241c-.19-.3-.347.008-.5.05-.271.074-.533.176-.7-.142a.534.534,0,0,1,.174-.646.788.788,0,0,1,.881-.265c.273.119.2.393.13.633-.039.125-.19.254,0,.381Z" transform="translate(-589.427 -475.966)" fill="#f8e909"/>
  <path id="Path_11012" data-name="Path 11012" d="M482.01,589.089c-.014.332-.1.73-.626.714-.5-.015-.636-.409-.634-.829s.151-.822.648-.814S482.012,588.559,482.01,589.089Z" transform="translate(-458.463 -542.501)" fill="#f8e909"/>
  <path id="Path_11013" data-name="Path 11013" d="M550.883,585.356c.01.485-.156.882-.672.914-.469.028-.6-.372-.586-.76.011-.467.194-.861.735-.86C550.8,584.651,550.872,584.993,550.883,585.356Z" transform="translate(-521.362 -539.302)" fill="#f8e909"/>
  <path id="Path_11014" data-name="Path 11014" d="M395.393,580.45c.028.212-.087.306-.244.3-.248-.012-.56.044-.619-.326-.023-.143.009-.325.213-.292C394.992,580.169,395.284,580.151,395.393,580.45Z" transform="translate(-379.719 -535.178)" fill="#f8e909"/>
  <path id="Path_11015" data-name="Path 11015" d="M653.6,562.975c-.029-.481-.051-.887.521-.916.369-.018.462.208.462.515a.826.826,0,0,1-.718.9C653.307,563.565,653.809,563.035,653.6,562.975Z" transform="translate(-616.301 -518.704)" fill="#f8e909"/>
  <path id="Path_11016" data-name="Path 11016" d="M340.351,569.088c.076-.167-.207-.59.236-.589.508,0,.728.376.714.871-.009.3.024.651-.443.627C340.271,569.967,340.323,569.54,340.351,569.088Z" transform="translate(-330.228 -524.577)" fill="#f8e909"/>
  <path id="Path_11017" data-name="Path 11017" d="M580.124,137.787a4.146,4.146,0,0,1-1.028.732c-.274.088-.586-.353-.556-.577.062-.482.547-.69.947-.806C579.619,137.1,579.879,137.525,580.124,137.787Z" transform="translate(-547.766 -131.27)" fill="#ee332f"/>
  <path id="Path_11018" data-name="Path 11018" d="M569.321,125.358c-.31.279-.583.672-.991.717a.576.576,0,0,1-.515-.622,1.077,1.077,0,0,1,.922-.745C569,124.685,569.178,125.067,569.321,125.358Z" transform="translate(-537.967 -119.941)" fill="#ee332f"/>
  <path id="Path_11019" data-name="Path 11019" d="M525.874,138.169a4.312,4.312,0,0,1-.976.731c-.335.126-.575-.312-.58-.539-.012-.493.486-.674.84-.806C525.472,137.438,525.591,137.886,525.874,138.169Z" transform="translate(-498.251 -131.637)" fill="#ee332f"/>
  <path id="Path_11020" data-name="Path 11020" d="M541.167,188.584a1.725,1.725,0,0,1-.935.783c-.323.1-.607-.361-.59-.554.038-.449.5-.673.868-.8C540.825,187.891,540.919,188.36,541.167,188.584Z" transform="translate(-512.245 -177.64)" fill="#ee332f"/>
  <path id="Path_11021" data-name="Path 11021" d="M568.084,188.41a1.767,1.767,0,0,1-.987.794c-.279.055-.625-.415-.576-.587a1.275,1.275,0,0,1,.923-.794C567.746,187.752,567.845,188.217,568.084,188.41Z" transform="translate(-536.789 -177.481)" fill="#ee332f"/>
  <path id="Path_11022" data-name="Path 11022" d="M541.109,126.365c-.249-.189-.581-.422-.493-.692a1.066,1.066,0,0,1,.931-.724c.246-.008.607.384.507.629A1.838,1.838,0,0,1,541.109,126.365Z" transform="translate(-513.122 -120.16)" fill="#ee332f"/>
  <path id="Path_11023" data-name="Path 11023" d="M553.039,138.113a4.183,4.183,0,0,1-.984.723c-.325.115-.583-.335-.576-.551.014-.472.486-.686.855-.794C552.646,137.391,552.763,137.832,553.039,138.113Z" transform="translate(-523.055 -131.583)" fill="#ee332f"/>
  <path id="Path_11024" data-name="Path 11024" d="M590.654,150.589c-.675-.019-.832,1.138-1.54.288-.419-.5.087-.589.3-.812C590.052,149.41,590.215,150.1,590.654,150.589Z" transform="translate(-557.278 -142.817)" fill="#ee332f"/>
  <path id="Path_11025" data-name="Path 11025" d="M509.2,150.754a1.709,1.709,0,0,1-.954.823c-.321.117-.592-.327-.583-.55.018-.471.5-.678.862-.8C508.846,150.113,508.919,150.611,509.2,150.754Z" transform="translate(-483.036 -143.191)" fill="#ee332f"/>
  <path id="Path_11026" data-name="Path 11026" d="M535.4,151.579c-.365-.1-.644-.407-.613-.636.061-.441.521-.691.9-.783.285-.069.616.41.581.58C536.175,151.168,535.657,151.268,535.4,151.579Z" transform="translate(-507.807 -143.142)" fill="#ee332f"/>
  <path id="Path_11027" data-name="Path 11027" d="M518.724,164.406c-.275-.162-.607-.422-.528-.666a1.131,1.131,0,0,1,.934-.746c.246-.019.607.4.537.612C519.533,163.994,519.1,164.194,518.724,164.406Z" transform="translate(-492.649 -154.848)" fill="#ee332f"/>
  <path id="Path_11028" data-name="Path 11028" d="M574.108,163.165a1.856,1.856,0,0,1-1,.779c-.252.052-.6-.383-.541-.612a1.159,1.159,0,0,1,.92-.77C573.769,162.513,573.9,162.95,574.108,163.165Z" transform="translate(-542.307 -154.451)" fill="#ee332f"/>
  <path id="Path_11029" data-name="Path 11029" d="M503.212,176.1a1.717,1.717,0,0,1-.959.782c-.3.071-.614-.378-.573-.582a1.179,1.179,0,0,1,.9-.794C502.863,175.438,503.007,175.876,503.212,176.1Z" transform="translate(-477.575 -166.253)" fill="#ee332f"/>
  <path id="Path_11030" data-name="Path 11030" d="M556.934,174.82c.3.145.631.461.571.651a1.263,1.263,0,0,1-.932.778c-.252.051-.6-.393-.545-.618C556.131,175.223,556.588,175.048,556.934,174.82Z" transform="translate(-527.204 -165.632)" fill="#ee332f"/>
  <path id="Path_11031" data-name="Path 11031" d="M557.539,113.874c-.278-.185-.607-.436-.541-.68a1.034,1.034,0,0,1,.9-.719.544.544,0,0,1,.539.586C558.32,113.459,557.867,113.628,557.539,113.874Z" transform="translate(-528.088 -108.786)" fill="#ee332f"/>
  <path id="Path_11032" data-name="Path 11032" d="M512.824,189.538c-.335-.108-.641-.441-.594-.633a1.229,1.229,0,0,1,.915-.786c.268-.068.6.385.563.593C513.629,189.142,513.147,189.29,512.824,189.538Z" transform="translate(-487.207 -177.751)" fill="#ee332f"/>
  <path id="Path_11033" data-name="Path 11033" d="M561.23,150.8a1.526,1.526,0,0,1,.934-.8c.317-.1.6.353.585.541-.042.476-.536.686-.9.83C561.586,151.472,561.458,150.993,561.23,150.8Z" transform="translate(-531.96 -142.987)" fill="#ee332f"/>
  <path id="Path_11034" data-name="Path 11034" d="M532.82,214.46c.462-.1.607-1.076,1.332-.458.342.29.226.5-.087.794C533.474,215.346,533.135,215.107,532.82,214.46Z" transform="translate(-506.015 -201.171)" fill="#ee332f"/>
  <path id="Path_11035" data-name="Path 11035" d="M584.892,175.693a1.873,1.873,0,0,1-.968.818c-.311.1-.607-.367-.586-.554.042-.447.5-.682.868-.81C584.544,175.03,584.6,175.528,584.892,175.693Z" transform="translate(-552.149 -165.914)" fill="#ee332f"/>
  <path id="Path_11036" data-name="Path 11036" d="M529.712,175c.376.1.676.432.642.622a1.155,1.155,0,0,1-.893.794c-.3.088-.607-.371-.58-.573C528.942,175.4,529.454,175.289,529.712,175Z" transform="translate(-502.417 -165.796)" fill="#ee332f"/>
  <path id="Path_11037" data-name="Path 11037" d="M546.068,164.166c-.323-.088-.592-.381-.581-.607.022-.457.5-.674.847-.794s.679.433.635.581C546.853,163.741,546.4,163.918,546.068,164.166Z" transform="translate(-517.583 -154.625)" fill="#ee332f"/>
  <path id="Path_11038" data-name="Path 11038" d="M523.694,200.18c.271.166.607.421.548.668a1.139,1.139,0,0,1-.922.765c-.26.044-.618-.424-.559-.611C522.888,200.6,523.348,200.429,523.694,200.18Z" transform="translate(-496.824 -188.754)" fill="#ee332f"/>
  <path id="Path_11039" data-name="Path 11039" d="M551.963,201.069a1.657,1.657,0,0,1-.928.806c-.325.118-.6-.341-.6-.521.016-.488.511-.7.875-.842C551.6,200.4,551.709,200.878,551.963,201.069Z" transform="translate(-522.106 -189.041)" fill="#ee332f"/>
  <path id="Path_11040" data-name="Path 11040" d="M382.691,176.89a1.593,1.593,0,0,1,.739.971c.1.331-.369.529-.6.521-.478-.008-.638-.514-.749-.872S382.461,177.135,382.691,176.89Z" transform="translate(-368.34 -167.519)" fill="#ee332f"/>
  <path id="Path_11041" data-name="Path 11041" d="M396.552,167.56a1.831,1.831,0,0,1,.75.98c.123.386-.36.514-.542.529-.539.034-.694-.529-.826-.892C395.833,167.893,396.345,167.848,396.552,167.56Z" transform="translate(-380.994 -159.012)" fill="#ee332f"/>
  <path id="Path_11042" data-name="Path 11042" d="M413.357,133.29a1.661,1.661,0,0,1,.711.989c.05.244-.455.581-.711.491a1.145,1.145,0,0,1-.681-.977C412.661,133.549,413.086,133.424,413.357,133.29Z" transform="translate(-396.296 -127.766)" fill="#ee332f"/>
  <path id="Path_11043" data-name="Path 11043" d="M435.06,194.238c-.173.27-.46.512-.694.478-.445-.065-.66-.556-.742-.914-.07-.313.471-.586.678-.529C434.7,193.388,434.841,193.868,435.06,194.238Z" transform="translate(-415.421 -182.45)" fill="#ee332f"/>
  <path id="Path_11044" data-name="Path 11044" d="M394.391,193.84a1.631,1.631,0,0,1,.694,1.008c.039.293-.449.552-.651.5a1.128,1.128,0,0,1-.718-.961C393.68,194.093,394.134,194.019,394.391,193.84Z" transform="translate(-378.98 -182.974)" fill="#ee332f"/>
  <path id="Path_11045" data-name="Path 11045" d="M384.9,151.09a1.4,1.4,0,0,1,.79.981c.075.317-.392.529-.614.511-.466-.033-.644-.54-.749-.9C384.226,151.347,384.744,151.358,384.9,151.09Z" transform="translate(-370.392 -143.995)" fill="#ee332f"/>
  <path id="Path_11046" data-name="Path 11046" d="M425.189,152.181a1.444,1.444,0,0,1-.7-.963c-.051-.312.41-.534.623-.5.442.059.641.544.728.914C425.911,151.933,425.476,152.023,425.189,152.181Z" transform="translate(-407.08 -143.65)" fill="#ee332f"/>
  <path id="Path_11047" data-name="Path 11047" d="M420.408,204.095a1.569,1.569,0,0,1-.712-.971c-.078-.341.375-.529.594-.519.476.02.656.529.766.888C421.152,203.811,420.668,203.864,420.408,204.095Z" transform="translate(-402.698 -190.965)" fill="#ee332f"/>
  <path id="Path_11048" data-name="Path 11048" d="M436.948,167a1.5,1.5,0,0,1,.746.971c.071.283-.407.544-.633.521-.442-.047-.638-.529-.728-.9C436.248,167.24,436.72,167.2,436.948,167Z" transform="translate(-417.891 -158.502)" fill="#ee332f"/>
  <path id="Path_11049" data-name="Path 11049" d="M401.738,118.509a1.544,1.544,0,0,1-.694-.978c-.053-.3.388-.529.616-.5.452.056.653.544.744.915C402.476,118.238,402.024,118.322,401.738,118.509Z" transform="translate(-385.669 -112.937)" fill="#ee332f"/>
  <path id="Path_11050" data-name="Path 11050" d="M388.248,126.823a.738.738,0,0,1-.673.54c-.434-.063-.65-.539-.736-.912-.075-.323.414-.548.614-.518C387.887,126,387.991,126.512,388.248,126.823Z" transform="translate(-372.694 -121.055)" fill="#ee332f"/>
  <path id="Path_11051" data-name="Path 11051" d="M399.2,142a1.533,1.533,0,0,1,.746.978c.072.333-.473.608-.672.548a1.165,1.165,0,0,1-.694-.953C398.537,142.249,399.013,142.229,399.2,142Z" transform="translate(-383.424 -135.707)" fill="#ee332f"/>
  <path id="Path_11052" data-name="Path 11052" d="M440.128,142.728a.724.724,0,0,1-.659.525c-.471-.027-.647-.529-.744-.891-.087-.314.368-.529.6-.517C439.8,141.872,439.839,142.432,440.128,142.728Z" transform="translate(-420.075 -135.565)" fill="#ee332f"/>
  <path id="Path_11053" data-name="Path 11053" d="M411.574,160.527a.73.73,0,0,1-.668.6c-.434-.082-.656-.564-.747-.941-.063-.265.406-.529.648-.5C411.259,159.736,411.287,160.292,411.574,160.527Z" transform="translate(-393.992 -151.828)" fill="#ee332f"/>
  <path id="Path_11054" data-name="Path 11054" d="M451.838,159.657a.893.893,0,0,1-.654.5c-.5.036-.656-.489-.781-.83-.133-.372.355-.571.585-.566C451.465,158.769,451.507,159.339,451.838,159.657Z" transform="translate(-430.729 -150.988)" fill="#ee332f"/>
  <path id="Path_11055" data-name="Path 11055" d="M448.489,183.22a3.687,3.687,0,0,1,.641,1.009c.087.334-.407.566-.607.542-.452-.053-.654-.554-.76-.923C447.681,183.561,448.159,183.465,448.489,183.22Z" transform="translate(-428.33 -173.291)" fill="#ee332f"/>
  <path id="Path_11056" data-name="Path 11056" d="M409.353,186.552c-.178.353-.455.589-.713.542a1.046,1.046,0,0,1-.718-.926c-.048-.277.393-.514.64-.48C409.022,185.748,409.045,186.307,409.353,186.552Z" transform="translate(-391.951 -175.537)" fill="#ee332f"/>
  <path id="Path_11057" data-name="Path 11057" d="M373.341,134.33a1.729,1.729,0,0,1,.63,1c.019.313-.434.541-.639.484a1.138,1.138,0,0,1-.716-.948C372.577,134.6,373.01,134.477,373.341,134.33Z" transform="translate(-359.709 -128.714)" fill="#ee332f"/>
  <path id="Path_11058" data-name="Path 11058" d="M423.627,177.637c-.155.363-.476.59-.694.557-.434-.068-.641-.545-.719-.919-.064-.3.377-.529.62-.5C423.285,176.836,423.342,177.371,423.627,177.637Z" transform="translate(-405 -167.414)" fill="#ee332f"/>
  <path id="Path_11059" data-name="Path 11059" d="M371.607,161.8a.666.666,0,0,1-.637.563c-.486-.011-.648-.519-.76-.874-.107-.338.375-.521.587-.525C371.292,160.949,371.3,161.545,371.607,161.8Z" transform="translate(-357.5 -152.993)" fill="#ee332f"/>
  <path id="Path_11060" data-name="Path 11060" d="M427.45,124.35a1.386,1.386,0,0,1,.713.94c.078.338-.374.543-.591.529-.464-.028-.647-.529-.757-.889C426.722,124.623,427.167,124.54,427.45,124.35Z" transform="translate(-409.197 -119.615)" fill="#ee332f"/>
</svg>
