<svg id="calendar-2-fill_1_" data-name="calendar-2-fill (1)" xmlns="http://www.w3.org/2000/svg" width="37.333" height="37.333" viewBox="0 0 37.333 37.333">
  <path id="Path_6922" data-name="Path 6922" d="M0,0H37.333V37.333H0Z" fill="none"/>
  <path id="Path_6923" data-name="Path 6923" d="M25.333,4.111h6.222a1.556,1.556,0,0,1,1.556,1.556V30.556a1.556,1.556,0,0,1-1.556,1.556h-28A1.556,1.556,0,0,1,2,30.556V5.667A1.556,1.556,0,0,1,3.556,4.111H9.778V1h3.111V4.111h9.333V1h3.111ZM5.111,13.444V29H30V13.444Zm3.111,3.111h3.111v3.111H8.222Zm7.778,0h3.111v3.111H16Zm7.778,0h3.111v3.111H23.778Z" transform="translate(1.111 0.556)"/>
</svg>
