<svg xmlns="http://www.w3.org/2000/svg" width="19.422" height="19.422" viewBox="0 0 19.422 19.422">
  <g id="calendar-2-fill_1_" data-name="calendar-2-fill (1)" transform="translate(0)">
    <path id="Path_6922" data-name="Path 6922" d="M0,0H19.422V19.422H0Z" transform="translate(0)" fill="none"/>
    <path id="Path_6923" data-name="Path 6923" d="M14.139,2.619h3.237a.809.809,0,0,1,.809.809V16.376a.809.809,0,0,1-.809.809H2.809A.809.809,0,0,1,2,16.376V3.428a.809.809,0,0,1,.809-.809H6.046V1H7.665V2.619H12.52V1h1.619ZM3.619,7.474v8.093H16.567V7.474ZM5.237,9.093H6.856v1.619H5.237Zm4.046,0H10.9v1.619H9.283Zm4.046,0h1.619v1.619H13.33Z" transform="translate(-0.381 -0.191)"/>
  </g>
</svg>
