<svg width="54" height="54" viewBox="0 0 54 54" fill="none" xmlns="http://www.w3.org/2000/svg">
<circle cx="27" cy="27" r="23.5" stroke="white" stroke-width="7"/>
<path d="M37.9988 32.4022V36.724C37.9989 37.0334 37.8817 37.3314 37.6707 37.5578C37.4598 37.7842 37.1708 37.9221 36.8622 37.9438C36.3281 37.9804 35.8918 38 35.5545 38C24.7543 38 16 29.2452 16 18.4444C16 18.1071 16.0183 17.6708 16.0562 17.1367C16.0779 16.828 16.2158 16.539 16.4422 16.3281C16.6686 16.1171 16.9665 15.9999 17.2759 16H21.5975C21.7491 15.9998 21.8953 16.056 22.0078 16.1577C22.1203 16.2593 22.1909 16.3992 22.2061 16.55C22.2342 16.8311 22.2599 17.0548 22.2843 17.2247C22.5272 18.9198 23.0249 20.5685 23.7607 22.1148C23.8768 22.3592 23.801 22.6513 23.581 22.8078L20.9436 24.6924C22.5562 28.4501 25.5506 31.4447 29.308 33.0573L31.1902 30.4247C31.2671 30.3171 31.3793 30.24 31.5073 30.2067C31.6353 30.1734 31.7709 30.1861 31.8905 30.2426C33.4365 30.9769 35.0846 31.4735 36.7791 31.7153C36.9489 31.7398 37.1726 31.7667 37.4513 31.7936C37.6019 31.809 37.7414 31.8798 37.8428 31.9923C37.9442 32.1047 37.999 32.2508 37.9988 32.4022Z" fill="#1F90C4"/>
</svg>
