<svg width="54" height="54" viewBox="0 0 54 54" fill="none" xmlns="http://www.w3.org/2000/svg">
<circle cx="27" cy="27" r="27" fill="#F8F9FE"/>
<path d="M36 31.42V34.956C36.0001 35.2092 35.9042 35.453 35.7316 35.6382C35.559 35.8234 35.3226 35.9363 35.07 35.954C34.633 35.984 34.276 36 34 36C25.163 36 18 28.837 18 20C18 19.724 18.015 19.367 18.046 18.93C18.0637 18.6774 18.1766 18.441 18.3618 18.2684C18.547 18.0958 18.7908 17.9999 19.044 18H22.58C22.704 17.9999 22.8237 18.0459 22.9157 18.129C23.0078 18.2122 23.0656 18.3266 23.078 18.45C23.101 18.68 23.122 18.863 23.142 19.002C23.3407 20.3889 23.748 21.7378 24.35 23.003C24.445 23.203 24.383 23.442 24.203 23.57L22.045 25.112C23.3645 28.1865 25.8145 30.6365 28.889 31.956L30.429 29.802C30.4919 29.714 30.5838 29.6509 30.6885 29.6237C30.7932 29.5964 30.9042 29.6068 31.002 29.653C32.267 30.2539 33.6156 30.6601 35.002 30.858C35.141 30.878 35.324 30.9 35.552 30.922C35.6752 30.9346 35.7894 30.9926 35.8724 31.0846C35.9553 31.1766 36.0002 31.2961 36 31.42Z" fill="#228FBF"/>
</svg>
