<svg xmlns="http://www.w3.org/2000/svg" width="53.204" height="54.986" viewBox="0 0 53.204 54.986">
  <g id="layer1" transform="translate(-72.506 -75.639)">
    <g id="g17396" transform="translate(72.506 75.639)">
      <path id="path1002" d="M98.308,82.971,96.186,111.25l-.5,1.449a4.478,4.478,0,0,1-.514.257c-.018-.018-.569-.294-.569-.294l-.385-.422L87.29,93.988l-1.885.531,2.123,19.005-.294.532-.4.183-.734-.073-.734-.459L76.8,102.573l-1.266.716,2.77,6.053,1.8,4.311.4,1.981.488,2.958,1.475,1.133,1.853,2.054,1.742,3.063,2.091,5.247,2.752,1.247,5.063.881,3.815.073,3.815-.073,5.063-.881,2.752-1.247,2.091-5.247,1.743-3.063,1.853-2.054,1.474-1.133.488-2.958.4-1.981,1.8-4.311,2.77-6.053-1.266-.716L114.2,113.708l-.734.459-.734.073-.4-.183-.294-.532,2.123-19.005-1.885-.531L105.34,112.24l-.385.422s-.55.275-.569.294a4.481,4.481,0,0,1-.514-.257l-.5-1.449-2.121-28.279-1.474.084Z" transform="translate(-73.193 -77.305)" fill="#d8a648"/>
      <path id="path1734" d="M100.379,93.332l-.712,4.719-1.2,15.781-.752,2.4-.726.557-.675.13-.558.039-.921-.376-.748-.5-4.877-12.836-1.73-3.608.091.908.314,3.073,1.493,13.365-.49.5-.578.569-1.062.053-1.024-.371-5.974-7.765-2.033-2.256,1.15,2.755,3.185,7.227.568,3.067,3.735-1.1,3.228-.623,5.063-.7,5.246-.037Zm.013,24.986,5.246.037,5.063.7,3.229.623,3.735,1.1.568-3.067,3.185-7.227,1.15-2.755-2.032,2.256-5.974,7.765-1.023.371-1.062-.053-.578-.569-.49-.5,1.493-13.365.314-3.073.091-.908-1.73,3.608L106.7,116.085l-.748.5-.921.376-.558-.039-.675-.13-.726-.557-.752-2.4-1.2-15.781-.737-4.719Z" transform="translate(-73.803 -79.659)" fill="#ff501e"/>
      <path id="path2100" d="M90.406,94.732a2.045,2.045,0,1,1,0-.063" transform="translate(-75.644 -79.512)" fill="#d8a648"/>
      <path id="path2100-2" d="M76.6,106.169a2.044,2.044,0,1,1,0-.063" transform="translate(-72.506 -82.111)" fill="#d8a648"/>
      <path id="path2100-4" d="M4.089,2.045a2.044,2.044,0,1,0,0,.063" transform="translate(42.531 17.264) rotate(180)" fill="#d8a648"/>
      <path id="path2100-2-1" d="M4.089,2.045a2.045,2.045,0,1,0,0,.063" transform="translate(53.204 26.103) rotate(180)" fill="#d8a648"/>
      <path id="path2100-2-3" d="M109.072,78.707a3.067,3.067,0,1,1,0-.095" transform="translate(-79.42 -75.639)" fill="#d8a648"/>
      <path id="path2443" d="M113.94,142.638c0,.789-4.4,1.431-9.855,1.437s-9.923-.625-10.007-1.415,4.246-1.44,9.7-1.459,9.988.6,10.157,1.392" transform="translate(-77.407 -90.534)" fill="#fff"/>
      <path id="path9680" d="M88.493,131.044l3.079,6.914,2.4-.705,5.335-.85h6.751l5.335.85,2.4.705,3.079-6.914-3.06-.9-6.794-1.082H98.348l-6.794,1.082Z" transform="translate(-76.138 -87.777)" fill="#06038d"/>
      <path id="text16009" d="M34.011,55.263a2.2,2.2,0,0,0-1.706.687,3.094,3.094,0,0,0,0,3.738,2.2,2.2,0,0,0,1.706.687,1.916,1.916,0,0,0,1.965-1.315l-1.115-.5a.857.857,0,0,1-.857.768c-.65,0-1.042-.561-1.042-1.514S33.353,56.3,34,56.3a.857.857,0,0,1,.857.761l1.115-.495A1.911,1.911,0,0,0,34.011,55.263Zm-8.074.089-1.8,4.934H25.36l.355-1.027h1.81l.355,1.027h1.263l-1.8-4.934Zm3.782,0v4.934H30.96V55.351Zm6.885,0v4.934h1.241V58.513h1.928v-1H37.845v-1.13h2.186V55.351Zm-9.995,1.285h.015l.584,1.706H26.025Z" transform="translate(-5.485 -12.555)" fill="#fff"/>
    </g>
  </g>
</svg>
