<svg xmlns="http://www.w3.org/2000/svg" width="29.974" height="32.683" viewBox="0 0 29.974 32.683">
  <g id="Chess" transform="translate(0 0)">
    <path id="Path_127" data-name="Path 127" d="M45.325,90.66a3.018,3.018,0,0,1-2.884.287,2.91,2.91,0,0,0-1.808.443c-.8.4-.993.4-1.468-.361a2.228,2.228,0,0,0-.541-.541.92.92,0,0,1-.018-1.635c.573-.429,1.163-.836,1.755-1.238a3,3,0,0,0,1.377-1.557c.133-.4.69-.7,1.113-.941a15.853,15.853,0,0,1,2.019-.921.879.879,0,0,0,.668-1.082,11.693,11.693,0,0,1-.014-1.584A3.869,3.869,0,0,1,48.2,83.352a1.774,1.774,0,0,0,.546.654,8.79,8.79,0,0,1,4.476,7.412,17.223,17.223,0,0,1-.886,7.443,1.094,1.094,0,0,1-1.212.847c-2.717-.04-5.438-.023-8.154.014-.594,0-.838-.16-.915-.771A7.408,7.408,0,0,1,43,94.463C43.685,93.2,44.5,92.01,45.325,90.66Z" transform="translate(-38.117 -74.948)" fill="#c8c8c8"/>
    <path id="Path_128" data-name="Path 128" d="M131.2,68.823c.147-.384.177-.734.365-.918,2.459-2.428,2.732-5.5,2.538-8.717-.016-.265-.08-.528-.137-.9H132V55.634l1.3-.072c-.688-1.934-2.223-2.826-3.935-3.623,1.3-1.547,2.935-1.538,4.522-1.233l1.367-2.45c-.918-1.1-1-2.042-.165-2.8a1.719,1.719,0,0,1,2.427.128c.721.791.59,1.738-.31,2.666l1.4,2.444c1.523-.276,3.182-.332,4.508,1.228-1.675.795-3.212,1.7-3.948,3.605.583,0,.775.274.718.833-.06.6-.014,1.219-.014,1.869l-1.406.088c-.709,3.356-.45,6.5,1.65,9.332a7.245,7.245,0,0,1,.562,1.177Z" transform="translate(-113.186 -45.014)" fill="#c8c8c8"/>
    <path id="Path_129" data-name="Path 129" d="M141.374,185.643c1.45.166,1.808.582,1.81,2.075v2.554H129.41c0-1.224-.062-2.473.025-3.713.05-.7.652-.912,1.2-.883a6.549,6.549,0,0,1-.567-1.5,1.483,1.483,0,0,1,1.656-1.813c2.824,0,5.649.009,8.475-.011.76,0,1.448.07,1.764.9a1.854,1.854,0,0,1-.461,2.2A1,1,0,0,0,141.374,185.643Z" transform="translate(-113.21 -157.594)" fill="#c8c8c8"/>
    <path id="Path_130" data-name="Path 130" d="M61.12,190.116c.934.18,1.168.86,1.113,1.774-.053.88-.011,1.763-.011,2.7H48.4a31.994,31.994,0,0,1,.044-3.5c.046-.424.589-.791.906-1.184l.168.1a8.155,8.155,0,0,1-.168-.844,1.277,1.277,0,0,1,1.3-1.539q4.593-.016,9.184,0a1.283,1.283,0,0,1,1.384,1.406A8.936,8.936,0,0,1,61.12,190.116Z" transform="translate(-46.552 -161.91)" fill="#c8c8c8"/>
  </g>
</svg>
