<svg xmlns="http://www.w3.org/2000/svg" width="37.508" height="31.169" viewBox="0 0 37.508 31.169">
  <g id="Council" transform="translate(0.002 0.071)">
    <path id="Path_134" data-name="Path 134" d="M73.026,168.679c.246-.8.472-1.627.747-2.427s.491-1.489-.344-2.153c-.208-.161-.14-.9.035-1.263a1.49,1.49,0,0,1,.982-.776c.785-.085,1.7-.322,2.092.837.209.607.249,1.069-.267,1.474a1.107,1.107,0,0,0-.357,1.449c.361.99.6,2.022.966,3.29.732-1.336,1.366-2.414,1.931-3.53.542-1.085,1.008-2.207,1.5-3.3a5.611,5.611,0,0,1,4.893,4.878c.225,2.744.05,5.521.05,8.337H64.682c0-2.868-.212-5.72.063-8.53a5.5,5.5,0,0,1,4.751-4.688l3.242,6.5Z" transform="translate(-56.195 -144.395)" fill="#fcb316"/>
    <path id="Path_135" data-name="Path 135" d="M88.336,67.836a7.7,7.7,0,0,1-7.8-7.677,7.779,7.779,0,1,1,7.8,7.677Zm-6.242-8.691a6.226,6.226,0,0,0,2.329,5.8,5.886,5.886,0,0,0,6.744.674,6.022,6.022,0,0,0,3.362-5.034,4.389,4.389,0,0,1-3.972-3.343c-2.1,3.248-5.039,3.955-8.463,1.9Z" transform="translate(-69.563 -52.35)" fill="#fcb316"/>
    <path id="Path_136" data-name="Path 136" d="M12.374,152.143c0-1.223-.071-2.327.021-3.417a2.114,2.114,0,0,1,1.951-2.092,25.259,25.259,0,0,1,5.392.016c1.915.264,2.453,2.133,1.222,3.605a.3.3,0,0,0-.068.085c-.674,1.856-2.155,1.931-3.81,1.83C15.575,152.067,14.062,152.143,12.374,152.143Z" transform="translate(-12.35 -131.403)" fill="#fcb316"/>
    <path id="Path_137" data-name="Path 137" d="M196.814,151.8h-6.921a.966.966,0,0,1-.322-.026,9.827,9.827,0,0,1-2.062-3.581,2.555,2.555,0,0,1,2.665-2.054,26.975,26.975,0,0,1,4.416.095,2.351,2.351,0,0,1,2.226,2.575C196.833,149.758,196.814,150.712,196.814,151.8Z" transform="translate(-159.318 -131.065)" fill="#fcb316"/>
    <path id="Path_138" data-name="Path 138" d="M28.346,100.678a3.073,3.073,0,0,1-3.058,3.138,3.113,3.113,0,1,1,3.058-3.138Z" transform="translate(-20.57 -90.381)" fill="#fcb316"/>
    <path id="Path_139" data-name="Path 139" d="M197.048,100.7a3.074,3.074,0,1,1,.879,2.2A3.085,3.085,0,0,1,197.048,100.7Z" transform="translate(-167.323 -90.385)" fill="#fcb316"/>
  </g>
</svg>
