<svg xmlns="http://www.w3.org/2000/svg" width="66.942" height="68.086" viewBox="0 0 66.942 68.086">
  <g id="Cycling_Federation" data-name="Cycling Federation" transform="translate(0)">
    <path id="Path_11063" data-name="Path 11063" d="M243.136,54.212c.13-.174.253-.316.357.023a2.482,2.482,0,0,0,.162.339l-.015.031.035.015.009.017c0,.051.013.086.067.094h0c.679.389.848-.232,1.128-.628a1.783,1.783,0,0,1,.3.623.529.529,0,0,0,.876.071c.034,0,.049-.02.044-.055l.05-.093c.1-.116.2-.225.322-.358.238.363.136,1,.821.935.293-.029.37-.224.467-.433.051.01.07-.012.058-.063l.048-.085c.351-.116.276.2.309.348.066.295.179.478.506.528a.453.453,0,0,0,.5-.189c.122-.161.21-.384.456-.411a.052.052,0,0,0,.016.066c.066.392-.01.858.591.922.456.048.526-.361.759-.58l.008-.008c.262.073.147.311.183.472.054.248.1.438.4.528a.5.5,0,0,0,.63-.182.857.857,0,0,1,.149-.153c.063-.049.114-.154.209-.116s.071.146.086.232c.048.239-.042.523.261.672.278.136.526.2.754-.089a.827.827,0,0,1,.4-.282c.176.368-.1.991.57,1.078.329.042.468-.2.65-.386h0c.089,0,.168-.086.262-.027,0,.058.006.116.009.174.027.254-.087.517.175.745.487.425.768-.1,1.141-.232.165.348-.136.812.375,1.063s.684-.3,1.076-.332a1.844,1.844,0,0,1-.029.557c-.014.138-.1.328.133.39l.106.073.06.044a.314.314,0,0,0,.528,0l.074-.046.342-.194c.324.128.06.369.081.548.024.215-.022.393.214.542a.534.534,0,0,0,.657.008.778.778,0,0,1,.469-.193,1.178,1.178,0,0,1-.056.551.5.5,0,0,0,.236.58c.269.213.472.046.7-.061.1-.046.237-.116.315-.077.114.055.032.205.03.314a.445.445,0,0,1-.024.171c-.167.36.078.539.315.7s.415,0,.57-.177a.5.5,0,0,0,.333-.108l.035.023h.041a3.451,3.451,0,0,1-.114.592c-.106.287.021.445.2.638.209.217.379.1.577.024a.815.815,0,0,1,.5-.116c-.035.133-.062.258-.1.377-.082.261-.176.487.083.746s.476.15.729.065c.1-.035.228-.133.321-.056.122.1.006.239-.023.357a1.11,1.11,0,0,1-.074.2.45.45,0,0,0,.114.544.442.442,0,0,0,.551.164,4.774,4.774,0,0,1,.57-.165h0a.371.371,0,0,0,.019.082l-.014.093c-.133.26-.354.513-.228.826.256.661.817.216,1.225.281-.022.409-.5.674-.147,1.144s.744-.028,1.091.144a2.169,2.169,0,0,1-.254.592c-.092.223.061.665.277.724a1.085,1.085,0,0,0,.589-.029c.213-.065.286.01.228.232-.1.282-.546.5-.152.875.052.306.228.3.5.278.14-.013.57-.309.468.253a2.809,2.809,0,0,0-.281.374.566.566,0,0,0,.419.728c.228.012.54-.116.646.051.129.2-.24.348-.272.58a.539.539,0,0,0-.02.5.523.523,0,0,0,.4.3c.219.031.5-.155.656.154v.007a.865.865,0,0,0-.332.423.04.04,0,0,0-.027.02.041.041,0,0,0,0,.034c-.25.162-.086.313.014.464h0c0,.26.146.348.387.331a3.321,3.321,0,0,1,.342.014c.234.007.282.1.128.283a1.964,1.964,0,0,1-.169.194.47.47,0,0,0-.154.6.518.518,0,0,0,.534.391.6.6,0,0,1,.443.125l-.193.327h-.022v.023c-.054-.008-.074.016-.067.068h-.022V77l-.051.057h-.025l-.008.026c-.051-.014-.073.006-.064.058a.371.371,0,0,0,.054.437c0,.124,0,.253.171.264h0l.086.041.177.023c.157.109.4-.014.519.195-.122.116-.244.232-.368.348a.509.509,0,0,0-.2.51c.062.425.342.458.648.524.114.023.4-.064.25.256-.228.209-.6.291-.517.738.051.262.131.455.429.5a1.794,1.794,0,0,1,.413.18c-.129.348-.633.418-.527.957.114.568.638.322.873.614-.038.14-.186.18-.285.27-.165.152-.426.205-.367.556a.616.616,0,0,0,.507.58c.133.037.263.094.395.142v.146c-.735.3-.89.517-.67.981.151.319.5.348.828.478-.318.324-.943.364-.773,1.01.1.384.456.367.722.5a.188.188,0,0,1-.009.232c-.237.13-.589.126-.664.451-.08.348-.046.675.39.812.179.055.483.168.1.408-.6.21-.76.58-.437.972a.6.6,0,0,0,.058.063c.148.129.456.182.446.348-.013.224-.323.213-.505.3a.58.58,0,0,0-.1.919c.152.125.349.194.464.378-.228.3-.776.126-.849.7s.485.56.642.9a.614.614,0,0,1-.419.182.5.5,0,0,0-.48.45.569.569,0,0,0,.26.616c.114.1.435.129.237.425-.216-.06-.365.1-.54.172a.478.478,0,0,0-.32.353.487.487,0,0,0,.14.459,4.3,4.3,0,0,0,.375.332l.1.078h0c-.13.166-.33.133-.5.18-.228.063-.426.107-.5.42a.589.589,0,0,0,.206.639c.1.1.316.176.253.348-.051.14-.256.061-.388.1-.2.063-.432.013-.532.322a.648.648,0,0,0,.2.761c.095.088.243.161.208.348-.1.016-.194.032-.291.046s-.228.026-.342.043a.533.533,0,0,0-.3.8c.063.218.275.316.386.494-.114.209-.3.107-.456.116a.594.594,0,0,0-.491.993.8.8,0,0,1,.267.43l-.291.055h-.428c-.508.205-.536.594-.082,1.107.162.538-.26.261-.4.261-.257,0-.448,0-.6.275a.536.536,0,0,0,.063.666c.088.116.26.261.156.412-.081.116-.265.026-.4,0a.569.569,0,0,0-.642.28c-.177.254-.063.42.047.622a.857.857,0,0,1,.184.43,1.06,1.06,0,0,1-.545,0,.521.521,0,0,0-.59.3.448.448,0,0,0,.086.58c.159.5.155.509-.355.4a.525.525,0,0,0-.6.183.542.542,0,0,0-.05.635c.071.158.2.3.149.516a2.526,2.526,0,0,0-.265-.056c-.275-.028-.537-.232-.816.093s-.095.551,0,.826c.032.092.084.232.044.284-.1.135-.228-.01-.342-.032-.254-.048-.477-.177-.737.084s-.167.476-.082.735c.037.116.154.255.044.357s-.241-.021-.356-.055c-.242-.07-.446-.176-.7.055-.329.3-.149.563-.041.85l.034.182c-.035.1-.121.116-.21.116l-.143-.051-.123-.061h-.018c-.216-.13-.434-.268-.6.067v-.009c-.643.28.086.768-.184,1.115a3.975,3.975,0,0,1-.407-.168.516.516,0,0,0-.653.022.551.551,0,0,0-.179.638c.032.168.054.338.08.507-.2-.087-.392-.167-.584-.261a.505.505,0,0,0-.586.1.436.436,0,0,0-.168.525,4.719,4.719,0,0,1,.076.6,4.362,4.362,0,0,1-.439-.22c-.219-.146-.4-.27-.69-.08a.538.538,0,0,0-.213.7c.032.116.068.283-.055.362s-.228-.075-.337-.123a.281.281,0,0,1-.07-.049.542.542,0,0,0-.666-.056c-.253.131-.228.325-.228.545a.981.981,0,0,1-.059.551,2.4,2.4,0,0,1-.412-.275c-.288-.3-.55-.144-.8.035-.228.164-.1.433-.114.651s-.075.325-.3.209h0a.161.161,0,0,0-.151-.116h.007a.427.427,0,0,0-.244-.221.418.418,0,0,0-.326.021.553.553,0,0,0-.407.527c-.017.176.162.44-.145.543l-.107-.06c-.046-.053-.088-.11-.138-.16a.591.591,0,0,0-.71-.19c-.316.125-.324.348-.324.61,0,.142-.013.284-.018.426-.206.021-.286-.155-.406-.269-.379-.36-.535-.361-.961,0-.151.232-.014.539-.276.892-.143-.195-.262-.371-.395-.536-.089-.109-.188-.238-.348-.088-.719-.051-.428.666-.751,1.032l-.5-.6V120.2l-.019.017a.2.2,0,0,0-.276-.007.384.384,0,0,0-.318.116l-.017.007c-.3.193-.088.6-.353.847a5.044,5.044,0,0,1-.359-.433c-.152-.232-.324-.232-.581-.189-.351.058-.353.309-.439.548-.047.13-.007.44-.319.266-.047-.053-.121-.1-.133-.16-.072-.332-.272-.413-.587-.4-.351.015-.432.232-.488.515-.025.125-.064.248-.1.371l-.148.015h0l-.074-.1h0c-.179-.3-.26-.674-.773-.6-.355.051-.375.277-.456.513-.145.071-.032.266-.16.348-.216-.088-.283-.3-.366-.486-.145-.324-.42-.21-.655-.232s-.26.161-.342.313c-.088.172-.062.435-.335.471l-.187-.383a.5.5,0,0,0-.5-.361.516.516,0,0,0-.549.357,1.8,1.8,0,0,1-.237.4c-.095.126-.114-.039-.164-.065-.066-.274-.1-.58-.4-.7-.641-.251-.733.377-.987.706-.332-.208-.181-.7-.617-.812s-.641.05-.76.438c-.177.289-.291.29-.406-.056-.07-.209-.074-.464-.384-.557-.468-.147-.64.116-.8.464-.171.224-.285.232-.342-.081-.065-.369-.17-.665-.655-.66-.326,0-.37.263-.538.411-.073.064-.147.188-.216.184-.141-.007-.12-.168-.137-.273-.064-.393-.217-.68-.676-.63-.408-.037-.412.5-.778.572a4.5,4.5,0,0,1-.127-.553.367.367,0,0,0-.456-.375c-.114-.092-.228-.142-.331.013l-.019.017-.228.187c-.106.086-.153.3-.3.262-.177-.048-.124-.273-.135-.409-.022-.306-.114-.5-.435-.58-.483-.123-.61.3-.87.523a.546.546,0,0,1-.173-.5c.019-.305-.149-.422-.387-.538-.354-.173-.525.092-.72.281s-.3.142-.35-.116a2.288,2.288,0,0,1,0-.348c.04-.3-.2-.334-.376-.437s-.342-.116-.469.087a1.145,1.145,0,0,0-.421.348h0c-.278-.106-.114-.348-.137-.519-.024-.232-.033-.427-.293-.56a.5.5,0,0,0-.643.077.717.717,0,0,1-.456.248c0-.162.01-.318,0-.471s.073-.321-.089-.44h0a.067.067,0,0,0-.026-.058.064.064,0,0,0-.062-.008.074.074,0,0,0-.074-.027c-.221-.3-.431-.144-.656,0-.133.087-.285.3-.428.184-.114-.09-.059-.331,0-.494.1-.306-.074-.426-.289-.58-.355-.251-.54.03-.77.2a.392.392,0,0,0-.267.131l-.074-.057a.065.065,0,0,0-.009-.072c.094-.14.055-.309.091-.457a.515.515,0,0,0-.246-.609c-.244-.186-.413-.074-.617.028-.133.066-.272.26-.41.14-.114-.094-.031-.3.009-.445a.5.5,0,0,0-.18-.6.526.526,0,0,0-.657-.041.794.794,0,0,1-.438.159.652.652,0,0,1,.042-.5.507.507,0,0,0-.216-.654.4.4,0,0,0-.6.028c-.167-.015-.287.161-.475.116.011-.129.022-.251.032-.374.1-.232.243-.436.007-.7a.517.517,0,0,0-.735-.139,2.356,2.356,0,0,1-.483.145v-.13a.422.422,0,0,0,.09-.324.512.512,0,0,0-.023-.7.535.535,0,0,0-.684-.116l-.4.143-.088-.014-.007-.008v-.089l.021-.084c.135-.327.416-.622.063-1.007-.266-.289-.494-.162-.75-.039l-.173.026c-.124,0-.162-.081-.161-.194h0c.058-.01.059-.05.048-.1l.024-.1a.533.533,0,0,0,.086-.7.56.56,0,0,0-.722-.225c-.125.043-.3.147-.39.013-.075-.116.05-.264.114-.39.141-.268.245-.53-.09-.738-.022-.087-.059-.155-.163-.145a.385.385,0,0,0-.327-.022c-.161.035-.37.138-.471,0s.084-.283.159-.418a.528.528,0,0,0,.015-.632.464.464,0,0,0-.6-.232,1.614,1.614,0,0,1-.467.008c0-.414.554-.629.228-1.126-.314-.474-.744-.106-1.112-.246.135-.217.245-.418.378-.6a.284.284,0,0,0-.046-.448c-.135-.655-.706-.152-1.027-.413.051-.082.108-.174.167-.264s.131-.186.186-.284a.555.555,0,0,0-.36-.762c-.2-.008-.395-.021-.592-.022-.146,0-.108-.092-.1-.175l.114-.148-.007.006a.084.084,0,0,0,.063-.03.087.087,0,0,0,.019-.068h0c.089-.03.16-.075.152-.187l.009-.021.051-.066h.024v-.024c.08-.014.079-.055.036-.11a.246.246,0,0,0-.076-.223.1.1,0,0,0-.047-.132l-.01-.026c-.062-.4-.38-.175-.577-.244-.1-.036-.253.01-.307-.1s.088-.191.149-.28a.568.568,0,0,1,.1-.138c.277-.195.186-.43.1-.684s-.283-.28-.507-.282a.676.676,0,0,1-.44-.116c.114-.354.658-.434.493-.991-.173-.58-.718-.259-.988-.545l.2-.269c.176-.155.456-.213.368-.58a.6.6,0,0,0-.584-.538c-.121-.014-.323.015-.351-.158-.022-.133.159-.18.244-.27a.823.823,0,0,0,.067-.106.353.353,0,0,0,.226-.182.364.364,0,0,0,.017-.293c-.055-.226-.08-.451-.376-.5a4.779,4.779,0,0,1-.613-.189c.228-.18.4-.306.559-.438.12-.1.277-.19.1-.371.04-.621-.517-.553-.86-.756.145-.26.448-.312.615-.524l.033-.006-.008-.03a.777.777,0,0,0-.024-.549c-.114-.324-.439-.269-.672-.38-.209-.085-.108-.181-.011-.277.322-.164.714-.255.584-.788-.046-.187-.086-.311-.277-.376a1.18,1.18,0,0,1-.522-.267c.194-.329.763-.244.742-.832s-.542-.464-.764-.747c.009-.145.167-.138.228-.232.22-.116.514-.13.521-.515a.6.6,0,0,0-.366-.639c-.129-.059-.366-.066-.342-.251.016-.16.244-.167.382-.219a.519.519,0,0,0,.4-.557.472.472,0,0,0-.276-.509,1.319,1.319,0,0,1-.477-.341h0l.132-.077h.023l.013-.017c.273-.1.619-.07.711-.464a.574.574,0,0,0-.322-.737c-.132-.066-.342-.1-.282-.348a3.213,3.213,0,0,1,.486-.14c.306-.042.314-.275.355-.5a.4.4,0,0,0-.035-.313.388.388,0,0,0-.25-.187q0-.073-.072-.059l-.01-.026h-.027v-.03l-.023.012-.1-.072c-.192-.449.243-.282.372-.338.238-.1.392-.194.444-.483a.521.521,0,0,0-.238-.58.944.944,0,0,1-.366-.363l.671-.226a.547.547,0,0,0,.289-.366.556.556,0,0,0-.095-.459c-.139-.168-.363-.259-.465-.494l.586-.176c.257.066.309-.124.373-.3a.469.469,0,0,0-.052-.554c-.152-.151-.364-.262-.431-.508a3.215,3.215,0,0,1,.522-.089.4.4,0,0,0,.448-.289c.09-.264.148-.477-.114-.688-.1-.078-.27-.239-.212-.38s.277-.079.419-.13a.105.105,0,0,1,.042,0c.287.037.387-.145.476-.382a.416.416,0,0,0-.177-.58.96.96,0,0,0-.063-.116c-.072-.1-.219-.187-.139-.316.062-.1.2-.049.313-.015a.4.4,0,0,0,.4-.068.573.573,0,0,0,.237-.854c-.1-.169-.378-.274-.238-.553h.679a.542.542,0,0,0,.29-.819c-.106-.166-.228-.321-.342-.481.178-.155.387-.065.57-.05a.574.574,0,0,0,.581-.329c.148-.227.041-.4-.073-.587-.087-.145-.221-.268-.228-.455.342-.15.748.274,1.086-.2.355-.492-.228-.742-.183-1.166.217.034.423.077.632.093a.537.537,0,0,0,.465-.238.557.557,0,0,0,.051-.526c-.086-.181-.191-.348-.287-.527h0a.088.088,0,0,0,.009-.082l.164-.013c.279.021.546.281.835.072a.639.639,0,0,0,.146-.928c-.059-.108-.293-.295.047-.372l.084.016c.248.05.467.267.754.056.541-.4.083-.812.033-1.235.388-.074.728.374,1.13-.007.431-.407-.106-.767.017-1.153.214.074.411.151.613.209.365.106.708-.36.6-.8-.036-.147-.18-.328-.05-.441s.292.044.428.1c.219.093.391.158.617-.031a.618.618,0,0,0,.184-.7c-.031-.144-.127-.288-.031-.47a3.6,3.6,0,0,1,.441.182.486.486,0,0,0,.618-.023.535.535,0,0,0,.208-.593c-.026-.184-.164-.379-.014-.572.135.075.271.146.4.225a.507.507,0,0,0,.652.016.53.53,0,0,0,.208-.629.744.744,0,0,1,0-.517c.206.116.389.22.57.327.143.084.279.155.4-.032.463-.116.374-.457.314-.788-.024-.326.092-.356.35-.195.211.132.4.488.707.138.561-.19.213-.709.37-1.094.4.223.755.781,1.255.215.217-.289-.05-.661.157-.951l.145.079a1.375,1.375,0,0,0,.44.394c.2.15.342.087.407-.151.422-.183.279-.654.471-.956a4.863,4.863,0,0,1,.374.348.5.5,0,0,0,.647.107.509.509,0,0,0,.318-.542c0-.139-.033-.332.082-.4.147-.086.22.116.331.194a.853.853,0,0,0,.114.053c.228.434.508.175.776.055.217-.151.132-.39.168-.594a.049.049,0,0,0,.022-.033.049.049,0,0,0-.01-.039c.133-.348.267-.1.365.014.192.216.351.434.7.306.253-.092.423-.2.382-.5.043-.145.088-.289.135-.444.261.065.319.357.537.448a.518.518,0,0,0,.822-.2c.064-.2.1-.409.157-.63.26.089.335.327.485.488a.517.517,0,0,0,.476.142.525.525,0,0,0,.378-.327c.074-.195.147-.39.237-.629.352.3.491.972,1.128.614.055.015.091,0,.1-.061h0c.2-.2.152-.523.35-.747.314.189.278.761.825.724s.491-.554.739-.856a2.26,2.26,0,0,1,.366.545c.213.312.507.289.684-.049.078-.153.151-.31.228-.464a1.046,1.046,0,0,1,.1-.125c.1.19.206.361.287.542a.342.342,0,0,0,.363.232c.18,0,.228-.128.3-.254s.048-.4.253-.413c.228-.016.2.275.324.4.094.088.082.3.287.259a.3.3,0,0,0,.252.008c.135-.021.163-.126.183-.239h0a.072.072,0,0,0,.056-.034.074.074,0,0,0,.006-.066l.007-.024C243.105,54.319,243.151,54.283,243.136,54.212Zm14.706,59.317c.052.009.081-.015.088-.068h0a2.833,2.833,0,0,0,.828-.58,1.531,1.531,0,0,0,.542-.374,11.37,11.37,0,0,0,1.711-1.386.6.6,0,0,0,.342-.328,8.3,8.3,0,0,0,1.507-1.419.362.362,0,0,0,.205-.217,9.014,9.014,0,0,0,1.354-1.508c.192-.086.206-.312.342-.444a5.334,5.334,0,0,0,1.016-1.3,7.8,7.8,0,0,0,.879-1.315,13.641,13.641,0,0,0,1.185-1.978,20,20,0,0,0,1.685-3.656,17.378,17.378,0,0,0,.882-2.683,1.043,1.043,0,0,0,.131-.448c.013-.057.025-.116.037-.169a11.121,11.121,0,0,0,.436-2l.006-.032c.071-.061.055-.144.049-.223a5.391,5.391,0,0,0,.191-1.392,5.959,5.959,0,0,0,.176-1.728,14.032,14.032,0,0,0,.114-3.214,4.636,4.636,0,0,0-.114-1.406,1.4,1.4,0,0,0-.034-.6,10.685,10.685,0,0,0-.3-2.2,4.331,4.331,0,0,0-.2-1.188A22.016,22.016,0,0,0,269.72,77.5h0a.637.637,0,0,0-.172-.418c-.122-.058-.016-.232-.144-.289a4.844,4.844,0,0,0-.553-1.48,24.112,24.112,0,0,0-2.465-4.414c-.025-.031-.049-.064-.073-.1a.908.908,0,0,0-.332-.48A17.79,17.79,0,0,0,263.9,67.68a4.427,4.427,0,0,0-.858-.936l-.1-.1a.529.529,0,0,0-.245-.253V66.38c0-.055-.024-.081-.079-.079h-.01a.483.483,0,0,0-.251-.245l-.011-.017c0-.052-.018-.077-.071-.07l-.021-.013a4,4,0,0,0-.9-.831,10.819,10.819,0,0,0-1.359-1.133,13.841,13.841,0,0,0-2.078-1.515,14.819,14.819,0,0,0-1.623-1.016,19.019,19.019,0,0,0-3.494-1.706,7.339,7.339,0,0,0-1.608-.615,19.85,19.85,0,0,0-3.6-1,5.583,5.583,0,0,0-1.274-.209,14.169,14.169,0,0,0-2.738-.332l-.59-.014a11.863,11.863,0,0,0-2.751,0l-.678.014a14.787,14.787,0,0,0-2.738.336,3.852,3.852,0,0,0-1.1.19,2.707,2.707,0,0,0-.826.161,14.9,14.9,0,0,0-2.869.855,5.536,5.536,0,0,0-1.441.537,17.807,17.807,0,0,0-3.594,1.733,21.083,21.083,0,0,0-3.25,2.13,2.975,2.975,0,0,0-.793.64.291.291,0,0,0-.21.155,1.615,1.615,0,0,0-.541.464l-.067.055c-.044-.022-.049,0-.047.038a.053.053,0,0,0-.047.053,6.148,6.148,0,0,0-1.1.994.082.082,0,0,0-.062.023.085.085,0,0,0-.026.062.51.51,0,0,0-.257.26,8.557,8.557,0,0,0-1.29,1.384,1.421,1.421,0,0,0-.431.5.251.251,0,0,0-.169.2h.006a.08.08,0,0,0-.062.03.083.083,0,0,0-.017.067h0a5.958,5.958,0,0,0-.913,1.14l-.023.008v.024l-.03.006.01.026a23.538,23.538,0,0,0-2.088,3.217,20.8,20.8,0,0,0-1.685,3.48,21,21,0,0,0-1.079,3.154,12.158,12.158,0,0,0-.5,2.069,3.35,3.35,0,0,0-.2,1.111.269.269,0,0,0-.052.275l-.024.086a10.015,10.015,0,0,0-.25,2l-.015.335a7.858,7.858,0,0,0-.144,1.542,30.6,30.6,0,0,0,.079,3.378,8.839,8.839,0,0,0,.241,1.878,4.8,4.8,0,0,0,.186,1.3,12.209,12.209,0,0,0,.488,2.194,2.3,2.3,0,0,0,.2.76,10.739,10.739,0,0,0,.673,2.075.8.8,0,0,0,.169.445,9.759,9.759,0,0,0,.723,1.748,8.964,8.964,0,0,0,.811,1.645c-.018.049,0,.077.047.092a10.835,10.835,0,0,0,.995,1.725,4.088,4.088,0,0,0,.675,1.028,2.558,2.558,0,0,0,.5.717,19.982,19.982,0,0,0,2.888,3.424c0,.022.007.034.029.034a20.748,20.748,0,0,0,3.576,3.132.712.712,0,0,0,.342.259.079.079,0,0,0,.033.056.077.077,0,0,0,.064.011l.019.008a5.985,5.985,0,0,0,1.1.76l.021.019a.479.479,0,0,0,.31.19,6.533,6.533,0,0,0,1.357.789,8.578,8.578,0,0,0,1.859.964,7.5,7.5,0,0,0,1.558.7h0c.013.056.049.065.1.051l.147.037a13.969,13.969,0,0,0,2.491.879,1.357,1.357,0,0,0,.608.155,9.819,9.819,0,0,0,1.963.441h0c.07.1.165.082.261.063a4.423,4.423,0,0,0,1.191.2c.114.026.219.06.33.074a29.032,29.032,0,0,0,6.16.174,14.034,14.034,0,0,0,2.51-.329,2.985,2.985,0,0,0,1-.179,11.734,11.734,0,0,0,2.224-.524h0a.391.391,0,0,0,.332-.093,4.472,4.472,0,0,0,1.119-.348,5.957,5.957,0,0,0,1.383-.509.6.6,0,0,0,.419-.172,9.791,9.791,0,0,0,1.705-.742,17.745,17.745,0,0,0,2.738-1.529.341.341,0,0,0,.262-.158h0a.114.114,0,0,0,.114-.086h.031l.017-.027c.071.012.106-.037.14-.088Z" transform="translate(-208.13 -53.91)" fill="#d9251c"/>
    <path id="Path_11064" data-name="Path 11064" d="M310.311,161.446l-.011.022a.259.259,0,0,0-.208.167l-.022.007c-1.093.777-2.205,1.523-3.35,2.219-1.161.587-2.328,1.16-3.536,1.641l-1.336.472a.113.113,0,0,0-.135.055h-.031c-.355.092-.713.174-1.065.276-1.061.309-2.155.454-3.231.686l-.494.043-.135.036a.251.251,0,0,0-.289.017c-1.079.093-2.162.1-3.244.123h-.171l-2.316-.171-.549-.05c-1.331-.248-2.657-.517-3.966-.867l-1.534-.512q-1.825-.757-3.6-1.639h0c0-.05-.027-.071-.076-.059-1.141-.664-2.244-1.4-3.326-2.166l-2.376-2.052c-.257-.392-.672-.629-.95-1l-.673-.739-1.135-1.392a.164.164,0,0,0-.131-.166l-1.393-2.046a.2.2,0,0,0-.107-.206l-.773-1.392c-.549-1.14-1.051-2.3-1.527-3.473q-.273-.879-.546-1.756c-.106-.444-.221-.886-.316-1.333-.17-.812-.326-1.624-.488-2.436a1.091,1.091,0,0,0-.039-.478c0-.108.04-.219-.039-.316.046-.077,0-.138-.032-.2a2.481,2.481,0,0,0,.01-.348,28.883,28.883,0,0,1,.029-5.3.08.08,0,0,0-.006-.116.463.463,0,0,0,.052-.317q.089-.652.177-1.307c.274-1.16.5-2.33.833-3.474l.557-1.624c.51-1.21,1.051-2.4,1.654-3.57l.389-.688.668-1.07a1.607,1.607,0,0,0,.348-.516,1.1,1.1,0,0,0,.355-.509h0a.733.733,0,0,0,.283-.348l.047-.1,1.711-2.039,1.705-1.7h0a41.716,41.716,0,0,1,3.412-2.609l1.548-.941a.24.24,0,0,0,.192-.116,16.353,16.353,0,0,0,1.673-.841l.089-.027.114-.05a13.6,13.6,0,0,0,1.441-.615l.17-.037h.015a.3.3,0,0,0,.252-.116,6.9,6.9,0,0,0,1.169-.372l1.883-.519,1.886-.36c.132,0,.272.037.388-.064a1.038,1.038,0,0,0,.593-.1,16.46,16.46,0,0,0,2.472-.161h1.109c1.355.146,2.717.216,4.067.421l.021.019.026-.008c.079.1.189.063.291.066a4.06,4.06,0,0,0,1.011.194l1.81.5c1.146.4,2.281.838,3.4,1.319l1.715.876a.142.142,0,0,0,.155.081l1.554.963a36.563,36.563,0,0,1,3.088,2.424,27.328,27.328,0,0,1,4.282,4.894c.1.142.206.271.311.406a10.485,10.485,0,0,0,.837,1.355.748.748,0,0,0,.228.4q.763,1.636,1.529,3.271l.674,1.911a14.953,14.953,0,0,0,.48,1.74c.2,1.16.444,2.3.577,3.47q.068.868.135,1.74.007.87.013,1.74-.048.957-.1,1.914l-.017.116c-.1.152-.049.321-.057.485-.008.138-.016.276-.025.414-.266,1.342-.487,2.695-.835,4.019l-.54,1.732-1.523,3.48a4.578,4.578,0,0,0-.519.935,3.5,3.5,0,0,0-.467.784,17.775,17.775,0,0,0-1.118,1.7h0c-.518.548-.953,1.16-1.421,1.753l-.067.086-.095.124.006-.014a21.033,21.033,0,0,0-1.483,1.572c-.1,0-.14.073-.161.161l-1.6,1.378-.114.108a.113.113,0,0,0-.093.018A.116.116,0,0,0,310.311,161.446Zm-9.745-28.072h0l-.094.088h0a.087.087,0,0,0-.064.026.09.09,0,0,0-.026.065h0a7.171,7.171,0,0,0-.114,2.262c0,.208.205.068.3.015.391-.232.776-.473,1.161-.712h.026v-.026l.078-.053a9.079,9.079,0,0,0,1.483-.864,3.035,3.035,0,0,0,.872-.515c.176-.024.183-.153.087-.239a1.9,1.9,0,0,1-.514-1.076,2.723,2.723,0,0,1,2.966-3.207,3.4,3.4,0,0,1,1.546.833l.058.055h0c.133.232.283.464.4.705.1.206.228.189.375.1.444-.269.884-.544,1.327-.812a7.577,7.577,0,0,0,1.168-.7.172.172,0,0,0,.175-.1h0a.082.082,0,0,0,.067-.015.085.085,0,0,0,.033-.061h0a5.144,5.144,0,0,0,1.2-.7.532.532,0,0,0,.325-.176.168.168,0,0,0,.132-.032.173.173,0,0,0,.067-.12h0a.969.969,0,0,0,.242-.067c.787-.464,1.564-.935,2.358-1.38.292-.164.342-.3.154-.6a28.718,28.718,0,0,0-3.045-4.106c-.778-.865-.778-.865-1.547.042a8.166,8.166,0,0,0-1.159,1.208,1.447,1.447,0,0,0-.5.5,8.706,8.706,0,0,0-1.232,1.247c-.114.072-.24.138-.271.292A13,13,0,0,0,306.867,127a8.883,8.883,0,0,0-1.341,1.329q-1.255,1.16-2.4,2.436a7.122,7.122,0,0,0-1.075,1.119.473.473,0,0,0-.293.3,6.4,6.4,0,0,0-1.1,1.09.087.087,0,0,0-.07.024.09.09,0,0,0-.027.07Zm-.589-14.328.081.067a3.073,3.073,0,0,0,.745.641,2.721,2.721,0,0,0,.792.606,7.731,7.731,0,0,0,1.7,1.082c.145.085.289.172.433.255a.173.173,0,0,0,.159.03.177.177,0,0,0,.116-.116q.513-.934,1.027-1.863a14.761,14.761,0,0,0,1-1.74c.878-1.26.844-1.422-.4-1.931a.337.337,0,0,0-.084-.012.313.313,0,0,0-.3-.15,8.662,8.662,0,0,0-1.929-.862,13.568,13.568,0,0,0-2.053-.738c-.517-.164-.516-.167-.632.389a4.854,4.854,0,0,0-.228.928.621.621,0,0,0-.1.385v.021a.117.117,0,0,0-.047.145l-.016.093a8.954,8.954,0,0,0-.435,1.553l-.022.116c-.041.328-.432.7.1.96a.035.035,0,0,0,0,.031.034.034,0,0,0,.025.018c0,.058.024.085.08.085Zm-10.616,29.53.007-.008a.115.115,0,0,0-.114.116q-.042,0-.038.042a.115.115,0,0,0-.114.116v-.006l-.094.094a.241.241,0,0,0-.16.167,1.251,1.251,0,0,0-.205.216q-.965,1.719-1.92,3.444c-.669,1.131-1.356,2.25-1.939,3.434l.011.022.021-.014c-.074,0-.1.045-.114.116-.692,1.1-1.314,2.242-1.921,3.394a.028.028,0,0,0-.022.015.029.029,0,0,0,0,.027,12.711,12.711,0,0,0-.963,1.675,5.049,5.049,0,0,0-.55.969l-.051.093a.249.249,0,0,0-.114.195,1.539,1.539,0,0,0-.293.493c-.1.132-.062.194.092.2a10.337,10.337,0,0,0,1.872.978h0l.114.061a5.627,5.627,0,0,0,1.255.535,10.183,10.183,0,0,0,1.767.661c.885.276.889.263,1.07-.7l.029-.089c.1-.063.074-.162.073-.255a9.1,9.1,0,0,0,.352-1.392,11.254,11.254,0,0,0,.456-1.728l.763-2.836a.226.226,0,0,0,.05-.21.909.909,0,0,0,.114-.44,11.887,11.887,0,0,0,.456-1.706v-.006c.071-.05.064-.116.054-.195v-.007a5.849,5.849,0,0,0,.342-1.3l.019-.152c.422-1.2.692-2.436,1-3.674a7.707,7.707,0,0,0,.354-1.385,9.354,9.354,0,0,0,.413-1.565l.023-.02-.008-.028a2.471,2.471,0,0,0,.214-1.086c-.015-.242.149-.623-.089-.7-.18-.051-.416.284-.545.53a4.711,4.711,0,0,0-.7.793l-.035.068a.036.036,0,0,0-.032.007.037.037,0,0,0-.014.03,4,4,0,0,0-.729.812l-.059.078Zm20.391,12.736a.08.08,0,0,0,.068-.025.083.083,0,0,0,.021-.071l-.021.012.016.016a8.129,8.129,0,0,0,1.843-1.536c.09-.066.178-.135.269-.2.333-.232.342-.447.023-.737-.464-.42-.878-.9-1.329-1.335a12.12,12.12,0,0,0-1.283-1.23,3.983,3.983,0,0,0-.813-.861l-.946-.977-.76-.762c-.095-.107-.182-.218-.284-.318-.5-.492-.342-.437-.862-.022-.471.379-.932.771-1.438,1.191a19.123,19.123,0,0,1,.015-2.148,2.326,2.326,0,0,0-1.011-2.364c-.32-.225-.479-.641-.874-.785a2.256,2.256,0,0,0-.684-.762c-.524-.545-1.045-1.092-1.571-1.634a.272.272,0,0,0-.176-.093c-.087.008-.074.106-.078.174-.055,1.044-.114,2.1-.163,3.147-.007.142-.023.3.149.368a1.5,1.5,0,0,0,.358.662,12.729,12.729,0,0,0,.988,1.74,1.027,1.027,0,0,0,.228.426,9.807,9.807,0,0,0,.756,1.306c.611,1.186,1.272,2.341,1.97,3.474a6.51,6.51,0,0,0,.718,1.247v.012c-.018.11.064.161.127.224a.349.349,0,0,0,.157.26c.55,1.123,1.209,2.183,1.818,3.271.074.131.163.177.31.081a8.061,8.061,0,0,0,1.338-.9,3.363,3.363,0,0,0,.967-.7l.024-.007c.068-.022.138-.044.143-.136Zm-40.268-14.893h0a.352.352,0,0,0,.286-.079,5.472,5.472,0,0,0,1.207-.341,1.028,1.028,0,0,0,.61-.172h.032c.1,0,.2.01.277-.079v.007a.43.43,0,0,0,.363-.109l.316-.059,1.96-.534v-.006a.339.339,0,0,0,.274-.1c.246.019.463-.137.694-.15.456-.026.54-.262.451-.65l-.01-1.836-.051-.766c0-.356,0-.712.013-1.068,0-.181-.068-.256-.25-.252-.462.013-.925.015-1.388.022h-5.134c-.483,0-.964-.008-1.445-.02-.161,0-.277.013-.261.226a10.4,10.4,0,0,0,.072,1.372,2.12,2.12,0,0,0,.065.776,6.7,6.7,0,0,0,.2,1.458,5.4,5.4,0,0,0,.206,1.307c0,.013-.011.028-.007.039a.411.411,0,0,0,.035.066v-.01a.437.437,0,0,0,.092.348h0c.141,1.116.13.97,1.015.706.011,0,.019-.02.03-.03a.369.369,0,0,0,.267-.057c.035.039.063.039.079-.014ZM284.69,152a.238.238,0,0,0-.248.072h-.008a6.386,6.386,0,0,1-1.8.067l-.114-.014c-.141-.081-.283-.13-.417.014a2.638,2.638,0,0,0-.609.609,2.394,2.394,0,0,0-.511.512l-1.1,1.118-.608.621a11.009,11.009,0,0,0-1.109,1.137c-.778.775-1.553,1.554-2.335,2.326-.675.666-.684.662.074,1.242.01.008.027.007.041.01a8.5,8.5,0,0,0,1.388,1.216h0a1.088,1.088,0,0,0,.432.338,16.9,16.9,0,0,0,2.423,1.728c.245.165.327-.031.416-.188q.913-1.624,1.825-3.255a2.957,2.957,0,0,0,.382-.71,2.544,2.544,0,0,0,.443-.777,14.372,14.372,0,0,0,1.027-1.8,1.049,1.049,0,0,0,.243-.432,12.29,12.29,0,0,0,.947-1.68c.806-1.254,1.483-2.58,2.236-3.869l-.081-.068-1.564,1.148-.1.066-.035-.008-.014.036-.021.012a.843.843,0,0,0-.441.232h0a.852.852,0,0,0-.467.2l-.021-.01-.015.017a.257.257,0,0,0-.228.078Zm1.369-10.957.114-.086a.044.044,0,0,0,.034-.008.045.045,0,0,0,.018-.031l1.348-.592-.018-.067h-3.047c-.55-.007-1.1-.01-1.648-.022-.18,0-.251.066-.248.253.013.616.014,1.232.019,1.848.046.172-.214.556.2.464a7.6,7.6,0,0,0,1.671-.477l.176-.026c.063.009.121.007.156-.058.178-.049.38-.021.524-.174.047,0,.064-.031.05-.078l.114-.289.032-.016-.008-.032a.425.425,0,0,0,.163-.252.91.91,0,0,0,.342-.364Zm15.091.58h0c-.153.059-.177.158-.03.232a1.686,1.686,0,0,0,.4.085,12.608,12.608,0,0,0,1.705.464c.214.07.432.126.64.211.348.14.538.1.476-.348a3.554,3.554,0,0,1,0-.516c.01-1.037.01-1.037-1.027-.962a2.858,2.858,0,0,0-2.046.716c-.075.008-.123.041-.125.117Zm3.126,4.86c-.038-.135-.152-.158-.264-.183a3.058,3.058,0,0,0-.866-.509.1.1,0,0,0-.042-.072.093.093,0,0,0-.081-.012,13.153,13.153,0,0,0-1.412-.812,13.525,13.525,0,0,0-1.188-.741c-.243-.164-.326-.082-.35.166-.049.517-.091,1.035-.139,1.552a.349.349,0,0,0,.211.384,7.5,7.5,0,0,0,1.4,1.353l.013-.02-.018.014c-.016.116.074.182.143.248.834.812,1.6,1.705,2.485,2.459.114.009.1-.078.1-.143q.012-1.3.022-2.591l-.006-.012a2.25,2.25,0,0,0-.008-1.081ZM291.5,121.132v-.348l.01-1.044c.007-.361.031-.723.014-1.082-.015-.293.058-.418.374-.4.456.03.913.007,1.369.019.2,0,.317-.034.309-.282-.021-.58-.018-1.16-.025-1.733s0-1.16,0-1.734c.006-.332.009-.664.019-1,0-.162-.013-.291-.218-.284a3.477,3.477,0,0,0-1.013.046l-.139.014-.508.014a.438.438,0,0,0-.342.058,20.073,20.073,0,0,0-4.026.655c-.139.034-.228.1-.181.275.31,1.152.57,2.32.947,3.451l.019.153a15.129,15.129,0,0,0,.5,1.82,10.468,10.468,0,0,0,.4,1.572c.041.182.073.367.124.546.3,1.035.491,2.1.869,3.11l.026.1c-.062.073-.027.131.03.184q.147.589.293,1.18l.983,3.821.165-.019c0-1.339.009-2.678-.006-4.017a2.279,2.279,0,0,0-.058-1v-.262c.079-.039.072-.116.072-.186q0-1.69-.008-3.378c0-.089,0-.172,0-.259Zm-8.864,17.726a3.1,3.1,0,0,0,.009.867c.084.21.266.116.4.116q1.9.012,3.8,0a4.325,4.325,0,0,0,1.06-.035h.018c.2-.271-.08-.338-.205-.415a17.6,17.6,0,0,1-1.639-.977,3.916,3.916,0,0,0-1.729-.726,9.577,9.577,0,0,0-1.54-.4c-.228-.152-.192.053-.192.162C282.616,137.915,282.628,138.387,282.636,138.858Zm27.271-3.451.276-.059a10.918,10.918,0,0,0,1.664-.476l.176-.034a.815.815,0,0,0,.467-.137,4.126,4.126,0,0,0,1.069-.289c1.149-.274,2.3-.553,3.422-.934a5.669,5.669,0,0,0,1.286-.348.306.306,0,0,0,.276-.077h0c.164-.036.326-.079.492-.106s.205-.138.164-.28a17.8,17.8,0,0,0-1-2.818,6.656,6.656,0,0,0-.616-1.427,5.05,5.05,0,0,0-.589-1.16c-.228-.538-.228-.539-.708-.251-.426.253-.85.509-1.275.764a4.9,4.9,0,0,0-1.046.632.975.975,0,0,0-.418.222c-1.15.648-2.3,1.292-3.409,2.015a5.929,5.929,0,0,0-1.1.638c-.162.125-.082.284-.059.436v.18a5.433,5.433,0,0,1-.1.548,2.737,2.737,0,0,1-2.158,2.009l-.629.028a.5.5,0,0,0-.4-.088c-.206-.131-.481-.089-.667-.273-.154-.146-.3-.336-.545-.189-.9.55-1.848,1-2.707,1.617a5.727,5.727,0,0,0-1.377.835.038.038,0,0,0-.035,0,.039.039,0,0,0-.017.031l-.023.01a5.48,5.48,0,0,0-.062,1.276c-.029.281.1.317.33.254.6-.165,1.208-.312,1.809-.484a2.144,2.144,0,0,0,1.013-.355,5.635,5.635,0,0,0,1.605-.377,10.166,10.166,0,0,0,1.725-.491l1.435-.291c.114.017.2,0,.21-.142l.029.007.017-.023A8.582,8.582,0,0,0,309.906,135.407Zm-11.715,25.5a6.071,6.071,0,0,0-1.119-.144.649.649,0,0,0-.391-.045l-1.905-.612-.582-.326c-.056-.074-.143-.138-.216-.085-.114.088-.067.232-.047.348v4.869l-.021,1.645c0,.135-.008.268.186.263a9.995,9.995,0,0,0,2.153-.154l.228-.014a8.871,8.871,0,0,0,2.186-.316,4.241,4.241,0,0,0,1.141-.22l.114-.041h.007c.183-.049.491.036.4-.329-.228-.928-.44-1.87-.753-2.784a8.614,8.614,0,0,0-.372-1.443c.009-.464-.2-.683-.67-.616a2.182,2.182,0,0,1-.337-.007Zm13.66-20.657H310.14a4.09,4.09,0,0,1-.508-.023c-.421-.072-.5.146-.478.513.051,1.006.084,2.011.114,3.016,0,.187.025.332.241.386.78.195,1.558.4,2.339.6a10.437,10.437,0,0,0,1.483.393,20.462,20.462,0,0,0,2.44.664l.026.021h.033c.9.258,1.792.519,2.69.774.849.242.937.177,1.019-.747a.2.2,0,0,0-.007-.043,20.867,20.867,0,0,0,.518-3.474.041.041,0,0,0,.021-.027.041.041,0,0,0-.006-.034,9.387,9.387,0,0,0,.122-1.762c-.006-.193-.07-.283-.278-.281-1.549.013-3.1.016-4.649.023h-3.422Zm-26.42-15.274h-.008a6.86,6.86,0,0,0,.788,1.38.43.43,0,0,0,.179.336c.114.216.211.438.336.645.535.875.953,1.821,1.562,2.651a7.564,7.564,0,0,0,1.011,1.219q.946,1.16,1.892,2.33c.05.061.1.107.177.071.1-.049.052-.151.06-.232a8.827,8.827,0,0,0-.593-3.554,8.265,8.265,0,0,0-.362-1.392c-.306-1.234-.591-2.474-.983-3.684a9.419,9.419,0,0,0-.372-1.445,15.167,15.167,0,0,0-.489-1.82c-.245-1.181-.6-2.333-.913-3.5a11.989,11.989,0,0,0-.472-1.718c-.2-.536-.193-1.123-.419-1.65-.043-.159.024-.437-.275-.356a11.956,11.956,0,0,0-2.223.781,7.109,7.109,0,0,0-1.526.645,5,5,0,0,0-1.129.57,3.621,3.621,0,0,0-.752.382c-.125.07-.2.139-.1.3.218.348.422.709.632,1.063.342.614.666,1.232,1.012,1.841.667,1.169,1.344,2.334,2.016,3.5a13.378,13.378,0,0,0,.873,1.525A.1.1,0,0,0,285.432,124.981Zm-10.961,3.5a11.516,11.516,0,0,0,1.5.884c.254.133.472.5.792.28s.635-.412.935-.641a11.435,11.435,0,0,1,4.315-.522.781.781,0,0,0-.287-.394q-2.948-3-5.9-5.984c-.268-.271-.505-.76-.828-.744-.349.016-.564.515-.83.812a6.084,6.084,0,0,0-.775.938,21.161,21.161,0,0,0-2.21,3.149c-.1.161-.1.287.081.39q1.5.85,2.982,1.708C274.29,128.453,274.387,128.453,274.47,128.482Zm19.079,31.572a1.05,1.05,0,0,0-.488-1.23l-.526-.768a11.031,11.031,0,0,1-.684-1.856,16.652,16.652,0,0,1-.325-4.561c.026-.754,0-1.508,0-2.263l-.08-.016-.938,3.655a10.341,10.341,0,0,0-.372,1.481,12.1,12.1,0,0,0-.456,1.7v.007l-.032.116-.017.089a.138.138,0,0,0-.043.164l-.045.179a5.724,5.724,0,0,0-.35,1.312v.031l-.048.137a8.683,8.683,0,0,0-.384,1.527,11.545,11.545,0,0,0-.487,1.776l-.422,1.564c-.2.716-.4,1.43-.585,2.149-.2.782-.187.79.662.892a2.855,2.855,0,0,0,.994.191c.1.116.242.086.372.087h-.008a8.6,8.6,0,0,0,2.06.254l.023.019.026-.013a9.422,9.422,0,0,0,1.986.15c.192,0,.192-.116.189-.259l-.023-1.65v-3.48Q293.549,160.749,293.549,160.053ZM309.3,144.935l.007.266q.04,1.811.08,3.622a.208.208,0,0,0,.08.188v.007c.018.094.091.088.16.09a22.034,22.034,0,0,0,2.109,1.239c1.141.725,2.31,1.418,3.508,2.049a1.68,1.68,0,0,0,.607.371c.149.1.3.2.456.295.456.269.456.267.619-.288h.033l.025-.022a6.628,6.628,0,0,0,.865-1.728,7.426,7.426,0,0,0,.692-1.74,8.738,8.738,0,0,0,.57-1.614c.163-.527.148-.55-.425-.639a7.78,7.78,0,0,0-1.425-.378,12.841,12.841,0,0,0-1.974-.528,4.671,4.671,0,0,0-1.2-.322c-1.322-.45-2.68-.77-4.03-1.112a.036.036,0,0,0-.024-.025.035.035,0,0,0-.033.007.3.3,0,0,0-.283-.068c-.152.026-.47-.379-.421.168C309.3,144.822,309.3,144.878,309.3,144.935Zm5.373,11.458c.062.014.073-.022.068-.073l.047-.081a16.506,16.506,0,0,0,1.627-2.371c.1-.174.091-.3-.09-.386a8.3,8.3,0,0,0-1.047-.574.369.369,0,0,0-.309-.172,6.5,6.5,0,0,0-1.385-.821c0-.022-.011-.031-.032-.028-.024-.088-.094-.1-.168-.1-.8-.477-1.587-.96-2.389-1.426a2.852,2.852,0,0,0-.74-.4,2.327,2.327,0,0,0-.608-.385c-.144-.088-.242-.031-.206.116.089.379-.164.539-.392.737a3.145,3.145,0,0,0-.631.573l-1.815,1.479c-.24.195-.1.307.087.411a11.64,11.64,0,0,0,1.671,1.67c1.035,1.208,2.181,2.3,3.32,3.409.228.247.464.488.684.745.139.165.244.143.374,0a6.852,6.852,0,0,0,.832-.956A8.234,8.234,0,0,0,314.671,156.393Zm-15.276-.162-.161,2.778a2.2,2.2,0,0,0-.013.7,1.391,1.391,0,0,0,0,.383c.284,1.029.493,2.08.84,3.091a.3.3,0,0,0,.067.259.324.324,0,0,0,.066.274c.079.314.159.629.237.943a1.122,1.122,0,0,0,.114.452c.237.842.237.842,1.051.509l.186-.048.019.071.065-.108h.041l.033-.027a.15.15,0,0,0,.173-.065,15.134,15.134,0,0,0,2.917-1.19,10.1,10.1,0,0,0,1.449-.706c.319-.155.324-.32.078-.541a12.562,12.562,0,0,0-.893-1.583,6.156,6.156,0,0,0-.643-1.118,1.789,1.789,0,0,0-.357-.621c-.16-.3-.306-.611-.481-.9a26.426,26.426,0,0,0-1.407-2.39c-.6-1.257-1.334-2.436-2.042-3.637L299.779,151l-.114.027q-.134,2.471-.265,4.942Zm2.693-11.536a.085.085,0,0,0,.04.055.082.082,0,0,0,.067.007l.163.1a.942.942,0,0,0,.433.255l.505.309c.228.142.467.275.691.426.244.165.342.132.342-.189-.01-.752-.009-1.508.007-2.257.006-.264-.087-.378-.342-.365L303.86,143c-.736-.212-1.472-.427-2.208-.637-1.04-.3-1.11-.254-1.385.834-.014.057-.031.116-.04.169a.3.3,0,0,0,.155.361c.57.316,1.141.645,1.711.969Zm-18-1.827a.263.263,0,0,0-.249.075,4.478,4.478,0,0,0-1.032.273c-.206-.027-.187.122-.188.252,0,.3-.013.608,0,.912a1.059,1.059,0,0,0,1.6,1.025,3.9,3.9,0,0,0,.468-.293.323.323,0,0,0,.261-.188c.362-.384.191-.878.228-1.317.114-1.191.083-1.195-1.056-.745Zm17.567-11.222s.025-.013.023-.014a8.978,8.978,0,0,0,1.491-1.457.18.18,0,0,0,.148-.155,16.612,16.612,0,0,0,1.462-1.467,2.326,2.326,0,0,0,.691-.812,5.212,5.212,0,0,1-2.161,0,2.515,2.515,0,0,0-1.027-.175,2.936,2.936,0,0,0-.951-.183c-.1-.01-.2-.01-.253.106a4.531,4.531,0,0,0-.5.94.406.406,0,0,0-.176.348c-.114.116-.073.273-.074.412q-.009,1.74-.008,3.472c0,.1-.041.209.049.283.07.056.139,0,.184-.05a7.948,7.948,0,0,0,1.108-1.225Zm8.39-8.542a9.658,9.658,0,0,0,1.573-1.5c.164-.157.325-.319.5-.464s.144-.283-.008-.43a27.09,27.09,0,0,0-4.75-3.7c-.161-.1-.286-.093-.387.09q-.705,1.276-1.416,2.552c-.41.552-.674,1.191-1.032,1.774-.331.537-.329.538.246.753a.619.619,0,0,0,.124.02,7.492,7.492,0,0,0,1.833.659,1.88,1.88,0,0,0,.668.2c.008.052.016.1.023.155l-.57,3.185,1.718-1.691a9.529,9.529,0,0,0,1.48-1.6Zm-16.113-8.571v.521c0,.955.006,1.909-.024,2.863-.009.322.1.38.386.383q2.325.022,4.65.077c.266.006.41-.073.4-.358a11.7,11.7,0,0,0,.4-1.553c.235-.63.342-1.3.548-1.936.136-.421.013-.558-.379-.558a7.763,7.763,0,0,0-1.618-.326,9.319,9.319,0,0,0-1.994-.256,2.762,2.762,0,0,0-.913-.08,5.55,5.55,0,0,0-1.255-.049c-.171-.008-.213.092-.209.246C293.921,113.844,293.924,114.188,293.93,114.533Zm-24.544,32.33-.139.05h-.024c-.206.048-.414.09-.621.142-.13.031-.238.067-.185.26a11.537,11.537,0,0,0,.7,2.078,5.532,5.532,0,0,0,.538,1.372l.057.137.013.034a.094.094,0,0,0,.01.073.091.091,0,0,0,.06.043h0a8.418,8.418,0,0,0,.71,1.547c.353.709.359.705,1.016.256.022-.015.031-.046.047-.071a2.782,2.782,0,0,0,.816-.457l.114-.057h.009c1.437-.833,2.877-1.663,4.311-2.5.114-.065.317-.1.281-.274-.03-.148-.181-.217-.342-.277-.64-.238-.67-.32-.684-1.038-.022-1.007-.062-2.013-.095-3.016-.137-.109-.271-.02-.4.015-1.006.275-2.01.556-3.014.834a14.053,14.053,0,0,0-1.711.487A8.1,8.1,0,0,0,269.386,146.863Zm50.144-12.786a.54.54,0,0,0-.114-.409v-.032c-.027-.169.027-.416-.284-.324-.751.224-1.524.369-2.26.65a12.147,12.147,0,0,0-1.6.42c-1.2.31-2.41.6-3.591.988a11.121,11.121,0,0,0-1.533.411c-1.306.324-1.1.073-1.012,1.337v.261l.013,1.474a2.691,2.691,0,0,0,0,.348c.089.748-.063.63.684.632q4.261.01,8.522.008h1.534c.17,0,.306-.016.308-.248a8.7,8.7,0,0,0-.114-1.8,2.425,2.425,0,0,0-.055-.687,9.955,9.955,0,0,0-.283-1.923A5.861,5.861,0,0,0,319.53,134.077Zm-46.795-6.126a7.369,7.369,0,0,0-1.711-.945c-.088-.232-.187-.157-.27,0a8.994,8.994,0,0,0-.7,1.42,8.51,8.51,0,0,0-.748,1.747,10.872,10.872,0,0,0-.718,2.009c-.242.84-.241.843.63.958a7.234,7.234,0,0,0,1.318.363q2.481.7,4.96,1.382c.285.08.308-.082.3-.3a18.38,18.38,0,0,1,0-3.11l.19-.665c.1-.174.194-.348.3-.522.09-.152.078-.252-.092-.348-.645-.357-1.282-.728-1.923-1.1a40.807,40.807,0,0,1-1.527-.894Zm-4.021,5.5c-.348-.232-.511-.109-.541.283a6.211,6.211,0,0,0-.25,1.282,10.806,10.806,0,0,0-.318,2.1l-.026.328a16.658,16.658,0,0,0-.153,1.89c-.049.4.082.513.477.509,2.389-.019,4.777-.01,7.165-.012.926,0,.926,0,.746-.972q0-.873-.013-1.747c-.006-.516-.015-1.034-.014-1.55,0-.15-.043-.249-.193-.288l-3.036-.788a12.292,12.292,0,0,0-1.718-.476,15.08,15.08,0,0,0-2.124-.56Zm14.094-12.237a1.32,1.32,0,0,0-.322-.573,3.8,3.8,0,0,0-.527-.907,9.375,9.375,0,0,0-.851-1.508.265.265,0,0,0-.149-.242,4.08,4.08,0,0,0-.43-.834c-.081-.16-.171-.186-.334-.085a17.616,17.616,0,0,0-2.523,1.79,4.57,4.57,0,0,0-1.044.879,11.876,11.876,0,0,0-1.245,1.093c-.121.109-.114.211.008.326.825.8,1.58,1.672,2.445,2.436.09.107.173.22.271.32,1.053,1.073,2.1,2.152,3.168,3.21a8.149,8.149,0,0,0,1.405,1.339.775.775,0,0,0,.456.065q1.514.031,3.03.053h.844a10.682,10.682,0,0,0-.771-1.31.039.039,0,0,0,0-.03.038.038,0,0,0-.02-.021q-.685-1.356-1.5-2.638c-.593-1.146-1.219-2.272-1.907-3.364Zm-5.3,35.016a.251.251,0,0,0,.164-.164,14.241,14.241,0,0,0,1.545-1.572.178.178,0,0,0,.168-.168,12.493,12.493,0,0,0,1.369-1.392c.268-.254.537-.506.8-.763.2-.191.14-.3-.106-.384a9.214,9.214,0,0,1-1.736-.792c-.611-.356-1.234-.7-1.851-1.044a.375.375,0,0,0-.525-.116l-3.087,1.856a11.6,11.6,0,0,0-1.732,1.024,11.947,11.947,0,0,0-1.3.723c-.193.1-.121.232-.043.358a15.687,15.687,0,0,0,1.671,2.436,9.9,9.9,0,0,0,1.415,1.74c.645.921.641.918,1.424.123.1-.1.228-.166.286-.3A13.95,13.95,0,0,0,277.509,156.231Zm5.964-20.764c-.3,0-.617-.043-.77.312a2.09,2.09,0,0,0-.086.9c0,.129.1.168.194.195.7.194,1.393.384,2.089.58.219.06.269-.019.175-.215a6.966,6.966,0,0,1-.406-1.276.5.5,0,0,0-.478-.416c-.24-.019-.48-.048-.718-.073Zm16.9-7.618c.206-.2.342-.338.314-.554,0-.026-.144-.071-.187-.046-.227.137-.09.341-.127.6Z" transform="translate(-260.34 -105.978)" fill="#d9251c"/>
  </g>
</svg>
