<svg xmlns="http://www.w3.org/2000/svg" width="50.273" height="48" viewBox="0 0 50.273 48">
  <g id="All_India_Sports_Council_of_the_Deaf" data-name="All India Sports Council of the Deaf" transform="translate(0 0)">
    <path id="Path_6938" data-name="Path 6938" d="M297.234,125.91a14.462,14.462,0,0,1-3.44,9.193,13.57,13.57,0,0,1-7.531,4.637,12.887,12.887,0,0,1-3.681.311,13.372,13.372,0,0,1-8.284-3.433,14.366,14.366,0,0,1-4.507-7.581,14.764,14.764,0,0,1-.363-4.565,15.383,15.383,0,0,1,1.643-5.842,11.967,11.967,0,0,1,.818-1.347,13.828,13.828,0,0,1,8-5.767,12.865,12.865,0,0,1,4.448-.408,13.42,13.42,0,0,1,7.843,3.29,14.414,14.414,0,0,1,4.513,7.162A16.1,16.1,0,0,1,297.234,125.91Zm-21.809,3.561a1.709,1.709,0,0,1-.314.24q-1.883.872-3.776,1.725c-.144.065-.174.119-.1.272a13.816,13.816,0,0,0,5.021,5.77,12.9,12.9,0,0,0,8.87,1.961,12.6,12.6,0,0,0,3.243-.9,13.476,13.476,0,0,0,6.027-5.069,14.076,14.076,0,0,0,2.252-6.246,14.517,14.517,0,0,0-.092-3.971,14.072,14.072,0,0,0-2.364-5.886,13.359,13.359,0,0,0-5.883-4.79,12.559,12.559,0,0,0-7.658-.724A13.251,13.251,0,0,0,272,118.021c-.048.077-.086.159-.135.248.079.026.133.045.188.061l4.114,1.174c.177.05.375.185.523.142s.266-.264.4-.4a8.484,8.484,0,0,1,13.072.759.221.221,0,0,0,.289.1c1.245-.392,2.493-.775,3.741-1.159.31-.1.311-.092.331-.411,0-.008.013-.015.031-.035.089.155.176.306.262.457s.075.2-.09.26l-3.073,1.186-.964.375.112.2a9.354,9.354,0,0,1,.957,6.715c-.03.13-.006.188.114.24.331.142.656.3.984.449l2.65,1.206a.689.689,0,0,1,.139.116l-.036.055-4.114-1.029c-1.5,3.512-3.992,5.684-7.81,5.857S277.189,132.819,275.425,129.471Zm.464-.266c.036.081.059.142.087.2a8.02,8.02,0,0,0,1.515,2.19,7.991,7.991,0,0,0,11.915-.3,8.47,8.47,0,0,0,1.517-2.524c.044-.113.052-.2-.056-.273a.89.89,0,0,0-.222-.126c-.708-.2-1.416-.4-2.127-.595-2.026-.549-4.038-1.152-6.1-1.551a.6.6,0,0,0-.349.039q-2.35,1.108-4.7,2.232Zm.163-8.636c-.054-.032-.092-.06-.133-.078l-4.08-1.853c-.133-.061-.188-.023-.254.1a14.6,14.6,0,0,0-.856,11.734c.1.279.213.552.32.83.084-.059.145-.1.209-.142q1.522-1.01,3.043-2.023a4.813,4.813,0,0,0,.386-.328,1.2,1.2,0,0,1,.2-.148c.131-.071.2-.133.148-.313a9.389,9.389,0,0,1,.9-7.572C275.977,120.707,276.013,120.641,276.052,120.569Zm1.147-.74c.089.034.119.048.151.057q1.959.585,3.919,1.167a5.772,5.772,0,0,0,.7.142.177.177,0,0,0,.149-.071c.1-.223.19-.453.287-.692-.3-.2-.593-.4-.9-.6-.143-.09-.159-.189-.07-.316q.64-.9,1.292-1.814a15.493,15.493,0,0,1,2.116,1.743c-.1.213-.2.392-.273.582-.209.516-.411,1.035-.616,1.552-.04.1-.006.152.1.176.288.071.572.153.862.206a.728.728,0,0,0,.383-.04c1.382-.547,2.762-1.1,4.141-1.656.181-.071.2-.147.07-.3-.16-.187-.319-.375-.494-.547a7.888,7.888,0,0,0-6.738-2.335,7.743,7.743,0,0,0-4.184,1.888c-.3.258-.573.547-.889.853Zm13.1,1.259a1.189,1.189,0,0,1-.157.094c-.179.071-.366.116-.537.2q-2.741,1.347-5.476,2.7c-.081.04-.2.071-.158.191a.324.324,0,0,0,.167.165q2.867,1.253,5.738,2.5c.466.2.93.411,1.416.626a8.893,8.893,0,0,0-.993-6.474Zm-8.848,2.709a1.728,1.728,0,0,0-.158-.071c-.432-.172-.86-.355-1.3-.507a.8.8,0,0,1-.529-.46,3.019,3.019,0,0,0-.285-.506.751.751,0,0,0-.255-.245c-.53-.279-1.067-.545-1.6-.813-.268-.135-.538-.267-.8-.4a8.72,8.72,0,0,0-1.4,4.189,8.869,8.869,0,0,0,.4,3.241,59.162,59.162,0,0,0,5.937-4.429Z" transform="translate(-258.175 -104.227)" fill="#cb2e27"/>
    <path id="Path_6939" data-name="Path 6939" d="M479.283,543.939c-.07-.009-.139-.016-.2-.028a.781.781,0,0,1-.661-.6c-.117-.431-.209-.869-.311-1.3a.182.182,0,0,1,.149-.25,1.375,1.375,0,0,1,.152-.034c.256-.033.29-.009.349.242.085.367.165.735.256,1.1a.369.369,0,0,0,.448.317c.271-.045.376-.208.312-.5-.082-.367-.17-.733-.254-1.1-.048-.209-.02-.255.19-.314.312-.087.374-.051.447.264q.122.524.243,1.049a.808.808,0,0,1-.357.949.65.65,0,0,0-.064.057c.385-.028.759-.048,1.133-.085a1.614,1.614,0,0,1,.748.2c1.962.756,3.918,1.525,5.883,2.269.748.284,1.515.518,2.273.773a.517.517,0,0,0,.188.03c.683-.041,1.365-.088,2.049-.127a.241.241,0,0,1,.185.056c.076.106-.022.164-.1.221-.528.4-1.059.786-1.582,1.188-.471.363-.933.74-1.4,1.1a.986.986,0,0,1-.3.158,14.458,14.458,0,0,1-2.65.556.829.829,0,0,1-.324-.04,9.97,9.97,0,0,1-2.939-1.5c-1-.714-1.99-1.449-2.981-2.178a2.429,2.429,0,0,0-1.625-.517,3.54,3.54,0,0,0-1.286.41c-.076.037-.153.071-.264.125A3.415,3.415,0,0,1,479.283,543.939Z" transform="translate(-451.293 -504.076)" fill="#cb2e27"/>
    <path id="Path_6940" data-name="Path 6940" d="M254.945,576.079c-.209-.119-.387-.206-.55-.316a1.17,1.17,0,0,0-.837-.142,6.422,6.422,0,0,0-3.144,1.366c-.767.567-1.51,1.158-2.28,1.714-.367.265-.775.473-1.162.709a1.58,1.58,0,0,1-.681.18c-.478.055-.953.133-1.429.2a.488.488,0,0,1-.219-.021,14.135,14.135,0,0,1-4.215-2.359,5.932,5.932,0,0,1-.623-.689c-.1-.108-.194-.213-.326-.363.219.03.392.047.563.079a10.7,10.7,0,0,0,2.274.06,1.833,1.833,0,0,0,.469-.119,38.6,38.6,0,0,0,3.785-1.56,17.936,17.936,0,0,1,3.411-1.2,8.478,8.478,0,0,1,2.123-.2.7.7,0,0,1,.279.071,5.594,5.594,0,0,1,2.079,1.591A2.8,2.8,0,0,1,254.945,576.079Z" transform="translate(-230.356 -533.786)" fill="#cb2e27"/>
    <path id="Path_6941" data-name="Path 6941" d="M162.73,534.29c.345.034.667.057.987.1a21.335,21.335,0,0,1,4.578,1.082,10.7,10.7,0,0,1,3.156,1.692,4.918,4.918,0,0,1,1.408,1.73c.027.057.047.117.08.2-.453.094-.887.194-1.325.271-.593.1-1.186.208-1.787.268a2.919,2.919,0,0,1-.822-.092,7.79,7.79,0,0,1-2.542-.869,5.887,5.887,0,0,1-.871-.7,15.688,15.688,0,0,1-2.1-2.116,3.928,3.928,0,0,1-.721-1.362C162.759,534.439,162.749,534.382,162.73,534.29Z" transform="translate(-158.958 -497.441)" fill="#cb2e27"/>
    <path id="Path_6942" data-name="Path 6942" d="M640.094,538.053a.218.218,0,0,1-.015.061,17.464,17.464,0,0,1-2.821,3.508,11.283,11.283,0,0,1-.888.709,4.174,4.174,0,0,1-1.651.615c-.554.123-1.112.242-1.674.311a2.89,2.89,0,0,1-.819-.092c-.718-.126-1.436-.262-2.153-.4-.061-.011-.123-.027-.193-.043a.815.815,0,0,1,.349-.616.459.459,0,0,0,.149-.213.8.8,0,0,1,.609-.567.29.29,0,0,0,.172-.092,4.359,4.359,0,0,1,1.729-1.469,15.442,15.442,0,0,1,3.584-1.268c.4-.1.809-.206,1.22-.278.341-.059.69-.077,1.036-.1.418-.033.844-.055,1.266-.08A.6.6,0,0,1,640.094,538.053Z" transform="translate(-593.531 -500.925)" fill="#cb2e27"/>
    <path id="Path_6943" data-name="Path 6943" d="M117.691,416.56l1.1.75a31.171,31.171,0,0,1,3.292,2.522,9.275,9.275,0,0,1,1.912,2.233,2.67,2.67,0,0,1,.422,1.276,4.232,4.232,0,0,1-.126.864c-.008.045-.093.1-.147.108-.369.041-.738.071-1.109.1a.58.58,0,0,1-.235-.045,7.76,7.76,0,0,1-3.3-2.489,7.935,7.935,0,0,1-1.743-3.707,12.562,12.562,0,0,1-.092-1.461A.683.683,0,0,1,117.691,416.56Z" transform="translate(-117.031 -388.06)" fill="#cb2e27"/>
    <path id="Path_6944" data-name="Path 6944" d="M342.05,624.968a5.563,5.563,0,0,1,.592-.206,3.309,3.309,0,0,0,1.444-.835,14.689,14.689,0,0,1,2.864-2.029,3.9,3.9,0,0,1,1.665-.518,2.156,2.156,0,0,1,.552.046,1.136,1.136,0,0,1,.87.77,2.364,2.364,0,0,1-.517,2.641,5.335,5.335,0,0,1-.815.741,1.77,1.77,0,0,1-.7.22c-.989.162-1.98.326-2.973.446a2.781,2.781,0,0,1-.921-.125,4.945,4.945,0,0,1-1.5-.557,2.9,2.9,0,0,1-.461-.395A.774.774,0,0,1,342.05,624.968Z" transform="translate(-325.773 -578.353)" fill="#cb2e27"/>
    <path id="Path_6945" data-name="Path 6945" d="M731.819,419.31a15.5,15.5,0,0,1-1.446,4.243,9.388,9.388,0,0,1-3,3.266,1.2,1.2,0,0,1-.447.121c-.4.071-.8.13-1.2.213a.936.936,0,0,1-.479-.084.459.459,0,0,1-.378-.537c.017-.317-.013-.638-.009-.954a.468.468,0,0,1,.09-.222,17.514,17.514,0,0,1,3.836-4.236A12.868,12.868,0,0,1,731.6,419.4C731.661,419.371,731.725,419.348,731.819,419.31Z" transform="translate(-681.891 -390.615)" fill="#cb2e27"/>
    <path id="Path_6946" data-name="Path 6946" d="M488.263,626.113a1.479,1.479,0,0,1-.685.652,5.206,5.206,0,0,1-1.668.466,11.7,11.7,0,0,1-1.239.167,4.5,4.5,0,0,1-.965-.1,6.608,6.608,0,0,1-2.483-.922,1.37,1.37,0,0,1-.365-.343,3.157,3.157,0,0,1-.67-1.915,1.534,1.534,0,0,1,1.368-1.586,5.326,5.326,0,0,1,.745-.032.574.574,0,0,1,.244.079,27,27,0,0,1,2.895,1.828,19.515,19.515,0,0,0,2.753,1.653A.613.613,0,0,1,488.263,626.113Z" transform="translate(-454.277 -579.398)" fill="#cb2e27"/>
    <path id="Path_6947" data-name="Path 6947" d="M111.163,292.925a4.808,4.808,0,0,1-1.921-2.174,7.054,7.054,0,0,1-.572-2.427,18.1,18.1,0,0,1,.392-4.583,1.132,1.132,0,0,1,.172-.291c.192.338.356.613.51.895A16.436,16.436,0,0,1,111.5,289a12.061,12.061,0,0,1,.229,3.182.293.293,0,0,1-.059.157C111.509,292.53,111.342,292.718,111.163,292.925Z" transform="translate(-108.64 -264.389)" fill="#cb2e27"/>
    <path id="Path_6948" data-name="Path 6948" d="M788.723,287c.085.522.173,1,.239,1.482a17.461,17.461,0,0,1,.179,2.875,8.264,8.264,0,0,1-.527,2.941,3.245,3.245,0,0,1-1.813,1.922c-.081.033-.164.057-.248.084-.038.012-.078.018-.158.038-.07-.307-.148-.606-.195-.91a9.037,9.037,0,0,1,.5-4.311,20.672,20.672,0,0,1,1.953-4.038C788.662,287.065,788.675,287.053,788.723,287Z" transform="translate(-738.872 -267.687)" fill="#cb2e27"/>
    <path id="Path_6949" data-name="Path 6949" d="M220.042,477.79c.38.2.725.377,1.068.56a23.976,23.976,0,0,1,4.031,2.568,9.261,9.261,0,0,1,2.289,2.635,5.807,5.807,0,0,1,.628,1.8c-.07-.031-.13-.056-.188-.084a26.707,26.707,0,0,1-3.9-2.421,12.741,12.741,0,0,1-2.5-2.564c-.447-.554-.83-1.161-1.226-1.756A1.169,1.169,0,0,1,220.042,477.79Z" transform="translate(-212.271 -444.948)" fill="#cb2e27"/>
    <path id="Path_6950" data-name="Path 6950" d="M611.67,481a.431.431,0,0,1-.061.45c-.749,1.021-1.472,2.061-2.232,3.071a5.758,5.758,0,0,1-.842.789,19.344,19.344,0,0,1-4.6,3.032c-.057.027-.114.052-.22.1.057-.238.1-.436.151-.63a6.622,6.622,0,0,1,1.419-2.528,13.1,13.1,0,0,1,3.462-2.758c.913-.523,1.859-.986,2.789-1.474A1.308,1.308,0,0,1,611.67,481Z" transform="translate(-569.195 -447.93)" fill="#cb2e27"/>
    <path id="Path_6951" data-name="Path 6951" d="M264.87,20.171a3.476,3.476,0,0,1,2.052-.441,3.194,3.194,0,0,1-.177.412,3.271,3.271,0,0,1-1.034.984,10.94,10.94,0,0,1-2.144,1.126c-.043.017-.086.033-.13.048a.277.277,0,0,1-.049-.013,6.115,6.115,0,0,1,1.191-1.806l-.016-.046c-.119.019-.239.03-.355.06a1.475,1.475,0,0,0-.692.484.287.287,0,0,0-.057.142,4.375,4.375,0,0,1-1.609,2.672,14.207,14.207,0,0,1-1.461,1.023,8.86,8.86,0,0,1,1.343-2.777A11.334,11.334,0,0,1,259.72,23c.07-.386.139-.736.189-1.089a.959.959,0,0,1,.308-.567,10.87,10.87,0,0,1,2.63-1.835.669.669,0,0,1,.089-.028l-.953,2.192.038.025,1.1-.685-.322-.026a2.227,2.227,0,0,1,.912-1.793,10.715,10.715,0,0,1,1.293-.68c.239-.118.5-.194.739-.309a.27.27,0,0,1,.342.078c.036.041,0,.173-.032.25a5.036,5.036,0,0,1-.962,1.313q-.124.139-.248.284Z" transform="translate(-249.184 -17.927)" fill="#cb2e27"/>
    <path id="Path_6952" data-name="Path 6952" d="M582.724,22.559l-.244-.064a.739.739,0,0,0,.073.179,3.938,3.938,0,0,0,1.266.873c-.317-.864-.875-1.6-1.2-2.514a7.5,7.5,0,0,1,2.5,1.735,3.612,3.612,0,0,1,.66,1.648c-.119.134-.234.1-.378.026-.434-.237-.877-.457-1.317-.681a.307.307,0,0,0-.182-.037l1.281,2.519a2,2,0,0,1-1.147-.425,4.68,4.68,0,0,1-1.855-3.029.508.508,0,0,0-.324-.446c-.256-.117-.5-.257-.767-.394l.985,1.654-.042.063a2.388,2.388,0,0,1-.279-.02,4.774,4.774,0,0,1-2.2-1.115,3.224,3.224,0,0,1-1-1.313.321.321,0,0,1-.01-.046.562.562,0,0,1,.509-.063c.364.094.722.213,1.083.321l.19.054c-.051-.177-.031-.355-.234-.425a.512.512,0,0,1-.191-.2,2.2,2.2,0,0,1-.371-1.035c-.01-.089-.008-.187.121-.142a8.058,8.058,0,0,1,1.789.811,2.97,2.97,0,0,1,1.059,1.435C582.576,22.127,582.643,22.331,582.724,22.559Z" transform="translate(-545.771 -19.312)" fill="#cb2e27"/>
    <path id="Path_6953" data-name="Path 6953" d="M173.457,61.6a1.156,1.156,0,0,1-.035.229,12.6,12.6,0,0,1-1.969,3.5,4.247,4.247,0,0,1-1.073.945.633.633,0,0,1-.082.034c-.082-.248-.158-.5-.248-.733a.26.26,0,0,0-.144-.152c-.112-.025-.129.077-.152.169-.229.881-.424,1.773-.7,2.639a5.134,5.134,0,0,1-2,2.729c-.056.038-.114.071-.217.142.017-.349.024-.652.049-.953a7.3,7.3,0,0,1,.734-2.761,4.944,4.944,0,0,1,2.089-2.142.577.577,0,0,0,.223-.227A7.022,7.022,0,0,1,172,62.643c.425-.323.865-.631,1.3-.944C173.337,61.668,173.383,61.645,173.457,61.6Z" transform="translate(-162.772 -58.271)" fill="#cb2e27"/>
    <path id="Path_6954" data-name="Path 6954" d="M167.114,382.994c-.307-.122-.567-.216-.819-.328a9.61,9.61,0,0,1-3.369-2.566.536.536,0,0,1-.083-.134c-.2-.462-.391-.932-.611-1.387a4.853,4.853,0,0,1-.337-1.525c-.047-.355-.079-.709-.124-1.123.109.04.193.047.24.093.942.925,1.883,1.849,2.816,2.788.349.355.672.733.993,1.113a6.793,6.793,0,0,1,.831,1.565,11.739,11.739,0,0,1,.432,1.152A1.652,1.652,0,0,1,167.114,382.994Z" transform="translate(-158.065 -350.311)" fill="#cb2e27"/>
    <path id="Path_6955" data-name="Path 6955" d="M700.34,386.938c.07-.245.126-.453.194-.657a9.9,9.9,0,0,1,2.126-3.491,32.365,32.365,0,0,1,2.9-2.72.377.377,0,0,1,.065-.03c0,.179.009.346,0,.512a6.573,6.573,0,0,1-1.411,3.822,7.687,7.687,0,0,1-2.729,2.086c-.279.135-.573.254-.861.378C700.545,386.87,700.463,386.894,700.34,386.938Z" transform="translate(-659.077 -354.129)" fill="#cb2e27"/>
    <path id="Path_6956" data-name="Path 6956" d="M129.2,183.632a1.943,1.943,0,0,1-.531-1.212c-.05-.645-.027-1.3-.07-1.941a4.591,4.591,0,0,1,.542-2.039,11.453,11.453,0,0,1,1.186-2.2.255.255,0,0,1,.186-.1.2.2,0,0,1,.209.172,8.034,8.034,0,0,1-1,6.537C129.548,183.1,129.381,183.356,129.2,183.632Z" transform="translate(-127.203 -164.686)" fill="#cb2e27"/>
    <path id="Path_6957" data-name="Path 6957" d="M148.913,274.91a.719.719,0,0,1,.07.077A14.935,14.935,0,0,1,150.6,277.6a5.554,5.554,0,0,1,.274,1.053,15.891,15.891,0,0,1,.367,3.368c0,.224-.023.447-.036.671a.623.623,0,0,1-.038.1c-.087-.043-.209-.06-.249-.128-.615-1.027-1.247-2.045-1.819-3.1a5.11,5.11,0,0,1-.233-4.609C148.877,274.938,148.894,274.928,148.913,274.91Z" transform="translate(-145.655 -256.454)" fill="#cb2e27"/>
    <path id="Path_6958" data-name="Path 6958" d="M750.959,284.506a9.662,9.662,0,0,1,2.272-7.946c.07.323.139.6.2.89a6.86,6.86,0,0,1-.634,4.46,4.986,4.986,0,0,1-.4.577q-.633.911-1.266,1.819C751.082,284.372,751.025,284.429,750.959,284.506Z" transform="translate(-706.049 -257.987)" fill="#cb2e27"/>
    <path id="Path_6959" data-name="Path 6959" d="M779.733,180.28a2.457,2.457,0,0,1,.907.893,8.98,8.98,0,0,1,.862,2.173,7.1,7.1,0,0,1,.012,3.767.893.893,0,0,1-.39.62c-.215-.348-.425-.686-.633-1.024a1.858,1.858,0,0,0-.129-.213,3.766,3.766,0,0,1-.706-2.141c-.073-.764-.134-1.54-.135-2.31a14.408,14.408,0,0,1,.167-1.615A.983.983,0,0,1,779.733,180.28Z" transform="translate(-732.736 -168.535)" fill="#cb2e27"/>
    <path id="Path_6960" data-name="Path 6960" d="M746.552,205.961a8.208,8.208,0,0,1-.74-1.731,7.449,7.449,0,0,1-.186-3.115c.1-.7.229-1.4.353-2.105a.2.2,0,0,1,.109-.142c.087-.018.189-.043.248.089a7.346,7.346,0,0,0,.352.689c.074.127.191.227.275.348a1.654,1.654,0,0,1,.2.35,5.217,5.217,0,0,1,.294,2.429,10.465,10.465,0,0,1-.4,2.162A3.754,3.754,0,0,1,746.552,205.961Z" transform="translate(-701.129 -185.791)" fill="#cb2e27"/>
    <path id="Path_6961" data-name="Path 6961" d="M168.254,204.083c-.088-.258-.168-.483-.242-.709a8.8,8.8,0,0,1-.509-2.96,4.839,4.839,0,0,1,1.356-3.278,1.312,1.312,0,0,1,.1-.087c.082.371.167.718.233,1.068a11.546,11.546,0,0,1,.209,2.919,4.929,4.929,0,0,1-.934,2.8C168.413,203.913,168.344,203.982,168.254,204.083Z" transform="translate(-163.396 -184.116)" fill="#cb2e27"/>
    <path id="Path_6962" data-name="Path 6962" d="M734.381,121.447a2.7,2.7,0,0,1-1.139-.766,7.747,7.747,0,0,1-.952-1.473,6.3,6.3,0,0,1-.549-1.9c-.106-.512-.187-1.03-.279-1.545a.565.565,0,0,1,0-.079,2.057,2.057,0,0,1,1.166.6,4.646,4.646,0,0,1,1.052,1.669,10.216,10.216,0,0,1,.711,3.351A1.344,1.344,0,0,1,734.381,121.447Z" transform="translate(-688.028 -108.516)" fill="#cb2e27"/>
    <path id="Path_6963" data-name="Path 6963" d="M716.37,133.12a9.384,9.384,0,0,1,1.116,1.285,3.329,3.329,0,0,1,.527,1.474,6.346,6.346,0,0,1,.125,2c-.041.29-.115.576-.168.865-.025.142-.1.155-.209.114a1.141,1.141,0,0,1-.566-.528,5.689,5.689,0,0,1-.633-1.788,11.161,11.161,0,0,1-.252-2.916C716.312,133.47,716.346,133.31,716.37,133.12Z" transform="translate(-673.922 -124.719)" fill="#cb2e27"/>
    <path id="Path_6964" data-name="Path 6964" d="M195.58,137.6c-.139-.52-.287-.986-.373-1.464a1.92,1.92,0,0,1,.095-.638,7.363,7.363,0,0,1,1.84-3.629.544.544,0,0,1,.056-.049c.011.018.026.031.026.045a14.781,14.781,0,0,1-.313,3.671,3.385,3.385,0,0,1-.921,1.752C195.876,137.39,195.742,137.475,195.58,137.6Z" transform="translate(-189.162 -123.511)" fill="#cb2e27"/>
    <path id="Path_6965" data-name="Path 6965" d="M681.149,62.83c.586.488,1.186.964,1.755,1.469a5.284,5.284,0,0,1,1.2,1.505c0,.01.011.02.017.03a1.333,1.333,0,0,1,.139,1.3,3.594,3.594,0,0,0-.139.5.235.235,0,0,1-.06-.033,17.278,17.278,0,0,1-2.436-2.969,3.4,3.4,0,0,1-.532-1.315,3.64,3.64,0,0,1,0-.463Z" transform="translate(-641.165 -59.414)" fill="#cb2e27"/>
    <path id="Path_6966" data-name="Path 6966" d="M352.29,16.217a.93.93,0,0,1,.274-.665,2.5,2.5,0,0,1,1.267-.659,7.689,7.689,0,0,1,3.224-.13.236.236,0,0,1,.1.026c.049.036.113.075.13.128.028.083-.008.147-.1.191-.614.292-1.222.595-1.837.886a.8.8,0,0,1-.287.048C354.145,16.1,353.231,16.158,352.29,16.217Z" transform="translate(-335.299 -14.65)" fill="#cb2e27"/>
    <path id="Path_6967" data-name="Path 6967" d="M230.16,94.512c.173-.88.338-1.733.511-2.584a.879.879,0,0,1,.139-.264q.356-.567.717-1.128a.415.415,0,0,1,.086-.108c.271-.208.545-.413.817-.618l.07.032c-.062.474-.1.953-.191,1.418a7.749,7.749,0,0,1-1.222,2.808.371.371,0,0,1-.15.136C230.694,94.309,230.45,94.4,230.16,94.512Z" transform="translate(-221.686 -84.48)" fill="#cb2e27"/>
    <path id="Path_6968" data-name="Path 6968" d="M524.772,17.281c-.312,0-.595.012-.877,0a7.9,7.9,0,0,1-2.789-.6c-.349-.151-.679-.331-1.022-.488-.139-.063-.13-.177-.1-.279.012-.046.109-.092.171-.1a10.429,10.429,0,0,1,2.479,0,3.632,3.632,0,0,1,1.563.489,1.191,1.191,0,0,1,.558.78A1.514,1.514,0,0,1,524.772,17.281Z" transform="translate(-491.279 -15.66)" fill="#cb2e27"/>
    <path id="Path_6969" data-name="Path 6969" d="M365.654,525.22a1.092,1.092,0,0,1,1.116.142.331.331,0,0,1,.046.53c-.086.089-.16.044-.245-.015a1.644,1.644,0,0,0-.357-.207c-.056-.021-.139.037-.213.058a.508.508,0,0,0,.07.2c.093.1.209.187.311.284a.636.636,0,0,1,.232.722.733.733,0,0,1-.66.521,1.3,1.3,0,0,1-.946-.284.358.358,0,0,1-.036-.541c.091-.095.169-.043.259.018a2.262,2.262,0,0,0,.463.259c.066.026.17-.049.256-.079a1.286,1.286,0,0,0-.1-.238.773.773,0,0,0-.169-.15.719.719,0,0,1-.279-.956l-.544-.25c-.036.056-.077.111-.111.169q-.345.594-.687,1.189c-.052.09-.113.193-.227.138a2.114,2.114,0,0,1-.392-.265c-.015-.013.03-.117.061-.171.214-.377.432-.753.649-1.129.038-.066.073-.133.12-.218-.125-.064-.239-.128-.358-.183a.185.185,0,0,1-.1-.284c.089-.191.193-.262.325-.2.455.219.912.437,1.36.672C365.567,524.992,365.594,525.117,365.654,525.22Z" transform="translate(-345.667 -488.121)" fill="#cb2e27"/>
    <path id="Path_6970" data-name="Path 6970" d="M681.5,97.929a2.944,2.944,0,0,1-1.021-.693,3.9,3.9,0,0,1-1.012-2.17,16.254,16.254,0,0,1-.158-1.816,5.312,5.312,0,0,1,1.628,2.056A10.528,10.528,0,0,1,681.5,97.929Z" transform="translate(-639.514 -87.676)" fill="#cb2e27"/>
    <path id="Path_6971" data-name="Path 6971" d="M214.331,343.289c.315-.041.628-.089.945-.119.082-.008.221.013.243.062a.962.962,0,0,1,.057.386c0,.032-.093.084-.147.092q-1.007.142-2.017.263a.246.246,0,0,1-.3-.228.45.45,0,0,1,.243-.592,10.8,10.8,0,0,0,.913-.664c-.177.02-.354.039-.532.061s-.379.049-.569.071-.238-.034-.268-.236.012-.3.193-.321c.483-.065.966-.123,1.448-.186.167-.021.333-.048.5-.066.209-.023.287.04.333.243.08.355.041.452-.257.65l-.807.54Z" transform="translate(-205.622 -318.608)" fill="#cb2e27"/>
    <path id="Path_6972" data-name="Path 6972" d="M526.689,533.135c.128.309.256.617.382.926.077.187.052.247-.13.326-.246.108-.334.089-.414-.1q-.349-.829-.691-1.661c-.084-.207-.034-.294.161-.388a.621.621,0,0,1,.777.116,4.889,4.889,0,0,0,.78.577c-.108-.262-.224-.522-.321-.789-.033-.09-.06-.26-.022-.284a1.193,1.193,0,0,1,.414-.142c.031-.006.1.077.119.132q.358.843.706,1.692c.076.185.026.277-.152.364a.564.564,0,0,1-.687-.089c-.283-.25-.588-.475-.884-.709Z" transform="translate(-496.705 -495.05)" fill="#cb2e27"/>
    <path id="Path_6973" data-name="Path 6973" d="M304.466,494.7a1.378,1.378,0,0,1,1.087.764.684.684,0,0,1,0,.648,1.613,1.613,0,0,1-1.192.959,1.322,1.322,0,0,1-1.34-.928.775.775,0,0,1,.007-.313A1.613,1.613,0,0,1,304.466,494.7Zm.026.584a1.11,1.11,0,0,0-.837.73.413.413,0,0,0,.063.246.473.473,0,0,0,.653.181,2.446,2.446,0,0,0,.492-.437.355.355,0,0,0,.077-.438A.516.516,0,0,0,304.492,495.284Z" transform="translate(-289.454 -460.658)" fill="#cb2e27"/>
    <path id="Path_6974" data-name="Path 6974" d="M459.731,547.87c.018.927-.637,1.276-1.42,1.192-.745-.079-.954-.606-.936-1.251a1.1,1.1,0,0,1,1.342-1.118C459.416,546.751,459.724,547.127,459.731,547.87Zm-.651.044c-.015-.1-.025-.213-.044-.313a.4.4,0,0,0-.31-.362.53.53,0,0,0-.558.142,1,1,0,0,0,.038,1.042.423.423,0,0,0,.18.1c.416.109.68-.125.694-.606Z" transform="translate(-433.055 -508.959)" fill="#cb2e27"/>
    <path id="Path_6975" data-name="Path 6975" d="M628.074,470.024a1.244,1.244,0,0,1-1.527,1.1,1.794,1.794,0,0,1-.907-.689.882.882,0,0,1-.134-.773,1.191,1.191,0,0,1,.69-.794,1.161,1.161,0,0,1,1.04.074,1.645,1.645,0,0,1,.66.613A3.526,3.526,0,0,1,628.074,470.024Zm-1.116.549a.461.461,0,0,0,.411-.657,1.173,1.173,0,0,0-.745-.537.467.467,0,0,0-.524.575,1.264,1.264,0,0,0,.861.618Z" transform="translate(-589.428 -436.574)" fill="#cb2e27"/>
    <path id="Path_6976" data-name="Path 6976" d="M221.048,375.791a1.081,1.081,0,0,1-1.046-.728,5.915,5.915,0,0,1-.209-.709c-.046-.185.008-.264.192-.306q.931-.218,1.864-.429c.232-.052.308,0,.369.226.052.194.106.387.147.582a.968.968,0,0,1-.675,1.219A5.886,5.886,0,0,1,221.048,375.791Zm-.617-1.223c.036.315.162.508.386.551a1.038,1.038,0,0,0,.859-.181.484.484,0,0,0,.112-.606.138.138,0,0,0-.112-.046c-.412.089-.822.186-1.243.282Z" transform="translate(-212.027 -348.146)" fill="#cb2e27"/>
    <path id="Path_6977" data-name="Path 6977" d="M692.888,317.964c-.009.147-.016.294-.028.441a.219.219,0,0,1-.253.223c-.441-.021-.881-.038-1.321-.057-.215-.009-.43-.014-.643-.03s-.27-.082-.259-.29a6.382,6.382,0,0,1,.064-.756.952.952,0,0,1,.837-.83,1.781,1.781,0,0,1,.955.08.948.948,0,0,1,.641.9c.006.106,0,.213,0,.318Zm-.571.045c.089-.425-.08-.681-.479-.729a1.992,1.992,0,0,0-.418,0,.5.5,0,0,0-.358.18.522.522,0,0,0-.119.388.163.163,0,0,0,.113.108c.416.024.835.039,1.261.055Z" transform="translate(-649.815 -295.22)" fill="#cb2e27"/>
    <path id="Path_6978" data-name="Path 6978" d="M675.058,386.882c.05-.161.095-.3.139-.44.013-.044.022-.09.038-.16l-.6-.163c-.2-.055-.246-.118-.2-.312.065-.27.144-.333.357-.278q.958.251,1.916.506c.18.048.221.134.168.332-.063.24-.14.3-.326.255-.209-.052-.418-.1-.623-.162-.1-.028-.139-.007-.162.09-.04.152-.093.3-.147.474.25.071.482.132.713.2.209.059.231.1.175.316-.07.26-.139.32-.335.269-.65-.17-1.3-.345-1.953-.513-.151-.039-.194-.123-.16-.272.07-.323.139-.368.457-.284Z" transform="translate(-634.617 -359.212)" fill="#cb2e27"/>
    <path id="Path_6979" data-name="Path 6979" d="M331.719,513.376c-.058.3-.1.581-.169.86-.047.206-.129.237-.314.142a1.944,1.944,0,0,1-.191-.12.222.222,0,0,1-.1-.271c.052-.186.088-.377.121-.567a.3.3,0,0,0-.021-.187c-.047-.084-.119-.134-.2-.018-.107.153-.225.3-.329.455a.206.206,0,0,1-.312.071c-.055-.033-.111-.064-.163-.1-.147-.107-.158-.173-.051-.319q.544-.745,1.091-1.489c.131-.179.22-.2.412-.077.169.1.338.206.5.316.26.174.494.375.433.737C332.374,513.131,332.122,513.321,331.719,513.376Zm-.513-.643a1.55,1.55,0,0,0,.376.1c.063,0,.152-.084.183-.151.021-.045-.024-.146-.07-.191-.168-.168-.2-.161-.344.028C331.311,512.578,331.274,512.636,331.207,512.733Z" transform="translate(-314.489 -476.433)" fill="#cb2e27"/>
    <path id="Path_6980" data-name="Path 6980" d="M237.717,423.242c.441-.026.678.177.7.5a.263.263,0,0,1-.085.179q-.795.7-1.6,1.386c-.139.118-.209.1-.307-.061a1.7,1.7,0,0,1-.094-.189.219.219,0,0,1,.066-.3c.038-.028.07-.065.108-.088a.2.2,0,0,0,.07-.331,1.1,1.1,0,0,1-.079-.157c-.135-.279-.135-.279-.429-.239a.393.393,0,0,1-.442-.391c.008-.148.128-.165.241-.175l.882-.071Zm-.232.614-.017-.045-.548.046.167.335Z" transform="translate(-226.768 -394.265)" fill="#cb2e27"/>
    <path id="Path_6981" data-name="Path 6981" d="M689.937,258.406c-.027.033-.082.1-.14.169a.213.213,0,0,1-.093.047.249.249,0,0,0-.194.377.061.061,0,0,1,0,.017c.059.381.059.381.428.443.185.03.349.355.235.5a.292.292,0,0,1-.238.08c-.516-.075-1.03-.166-1.545-.252-.183-.03-.365-.063-.549-.089a.244.244,0,0,1-.243-.231.473.473,0,0,0-.013-.051c-.084-.377-.07-.407.266-.574.536-.267,1.077-.525,1.609-.8C689.767,257.886,689.9,257.841,689.937,258.406Zm-.914.922-.07-.362-.488.234.006.041Z" transform="translate(-647.173 -240.687)" fill="#cb2e27"/>
    <path id="Path_6982" data-name="Path 6982" d="M216.788,234.942c-.43.04-.353-.13-.266-.425.051-.174.179-.193.325-.2.294-.013.294-.016.377-.3l0-.017c.1-.335.1-.335-.194-.523a.377.377,0,0,1,.01-.567.229.229,0,0,1,.192.009c.619.38,1.237.764,1.848,1.159a.286.286,0,0,1,.084.238c-.076.44-.1.467-.532.5C218.032,234.868,217.425,234.9,216.788,234.942Zm1.469-.689.009-.045-.462-.284-.093.355Z" transform="translate(-208.936 -217.416)" fill="#cb2e27"/>
    <path id="Path_6983" data-name="Path 6983" d="M685.64,361.757c.045-.213.082-.4.126-.587s.109-.219.343-.167c.181.04.224.1.186.284-.063.3-.129.61-.2.913-.042.182-.119.24-.3.208q-.985-.172-1.966-.355a.2.2,0,0,1-.175-.27c.066-.323.129-.646.2-.967.036-.16.127-.2.327-.156.14.03.239.094.2.266-.035.155-.065.311-.1.465-.021.1.006.155.109.147s.234.134.279-.071c.029-.132.05-.267.084-.4s.15-.177.349-.123c.123.033.216.09.168.25-.031.107-.042.22-.07.327-.036.123.014.174.128.189C685.424,361.723,685.521,361.739,685.64,361.757Z" transform="translate(-643.55 -336.108)" fill="#cb2e27"/>
    <path id="Path_6984" data-name="Path 6984" d="M691.591,291.837c-.011-.172-.017-.325-.032-.477s.058-.213.2-.223c.241-.018.312.016.33.177s.028.316.044.5l.472-.024c-.015-.2-.029-.39-.043-.575s.039-.26.262-.279c.194-.017.264.046.279.239.022.311.052.622.07.933.01.186-.057.251-.243.264l-1.941.133c-.188.013-.271-.048-.29-.242-.034-.328-.056-.657-.079-.986-.012-.165.11-.194.229-.2s.284-.039.305.164a3.768,3.768,0,0,1,.032.44c0,.167.062.226.22.187A1.853,1.853,0,0,1,691.591,291.837Z" transform="translate(-650.034 -271.341)" fill="#cb2e27"/>
    <path id="Path_6985" data-name="Path 6985" d="M279.385,474.06c-.149.114-.289.226-.432.333-.167.123-.279.084-.45-.155-.113-.156-.1-.208.074-.343q.705-.544,1.409-1.089c.241-.185.31-.18.513.041a4.555,4.555,0,0,1,.4.463.732.732,0,0,1-.5,1.193.934.934,0,0,1-.853-.289Zm.432-.333c.1.142.2.249.352.194a.49.49,0,0,0,.268-.216c.063-.138-.07-.226-.172-.326Z" transform="translate(-266.589 -440.195)" fill="#cb2e27"/>
    <path id="Path_6986" data-name="Path 6986" d="M263.274,455.16a.994.994,0,0,1,.886.872c0,.149-.279.374-.412.315-.046-.02-.075-.093-.1-.147a2.5,2.5,0,0,0-.151-.367.217.217,0,0,0-.206-.062.256.256,0,0,0-.087.2,2.124,2.124,0,0,0,.057.365.751.751,0,0,1-1.057.8,1.138,1.138,0,0,1-.667-.869c-.035-.181.227-.442.4-.389.059.019.1.124.132.2a2.088,2.088,0,0,0,.156.4.335.335,0,0,0,.279.106c.131-.019.114-.157.1-.263-.016-.128-.053-.255-.06-.383A.708.708,0,0,1,263.274,455.16Z" transform="translate(-250.872 -423.922)" fill="#cb2e27"/>
    <path id="Path_6987" data-name="Path 6987" d="M430.13,548a1.138,1.138,0,0,1-1.073-.537,1.455,1.455,0,0,1,.271-1.542,1.217,1.217,0,0,1,1.411-.137.34.34,0,0,1,.191.481c-.048.172-.157.213-.3.1a.69.69,0,0,0-.488-.191.487.487,0,0,0-.135.028.825.825,0,0,0-.284,1.1.593.593,0,0,0,.6.145c.017,0,.033-.012.049-.015.119-.024.262-.149.34.048a.379.379,0,0,1-.229.457A3.146,3.146,0,0,1,430.13,548Z" transform="translate(-406.604 -507.967)" fill="#cb2e27"/>
    <path id="Path_6988" data-name="Path 6988" d="M560,521.173a1.048,1.048,0,0,1,.877-.993c.323-.071.439-.03.573.213.1.174.045.264-.147.279a1.39,1.39,0,0,0-.373.057.381.381,0,0,0-.25.536,1.782,1.782,0,0,0,.367.54.517.517,0,0,0,.767-.116,1.549,1.549,0,0,1,.118-.173.228.228,0,0,1,.174-.059.381.381,0,0,1,.172.5,1.192,1.192,0,0,1-1.65.365A1.546,1.546,0,0,1,560,521.173Z" transform="translate(-528.524 -484.303)" fill="#cb2e27"/>
    <path id="Path_6989" data-name="Path 6989" d="M681.062,238.8c.447-.057.447-.057.323-.472-.082-.274-.02-.365.258-.395a.2.2,0,0,1,.246.163c.04.153.09.3.139.477.223-.052.441-.1.658-.154s.279,0,.341.252c.058.232.03.284-.191.342q-.92.229-1.841.452c-.247.06-.319.016-.393-.235s-.146-.521-.228-.78c-.052-.163.012-.245.158-.291.209-.065.319-.031.37.125C680.958,238.46,681.01,238.634,681.062,238.8Z" transform="translate(-640.487 -222.099)" fill="#cb2e27"/>
    <path id="Path_6990" data-name="Path 6990" d="M645.061,447.533c.209.122.394.233.582.336a.192.192,0,0,1,.082.306.567.567,0,0,1-.147.192.273.273,0,0,1-.227.037c-.59-.326-1.173-.664-1.756-1a.2.2,0,0,1-.07-.328c.173-.257.344-.517.522-.771.11-.157.209-.152.418-.01.139.1.129.2.035.325s-.169.253-.253.38a.242.242,0,0,0-.011.053l.349.208c.1-.147.193-.284.291-.425s.213-.157.4-.026c.146.1.154.168.043.335Z" transform="translate(-606.175 -415.586)" fill="#cb2e27"/>
    <path id="Path_6991" data-name="Path 6991" d="M663.011,411.508l1.2.5c.118.048.236.1.354.142a.194.194,0,0,1,.121.269c-.08.293-.209.36-.479.249-.424-.173-.847-.35-1.271-.523-.063-.026-.129-.044-.2-.071-.06.122-.113.233-.168.342-.084.165-.169.179-.393.071-.161-.078-.183-.138-.1-.3.2-.408.391-.815.589-1.22.088-.179.182-.2.4-.082.152.079.172.153.087.332C663.11,411.3,663.066,411.389,663.011,411.508Z" transform="translate(-623.437 -382.711)" fill="#cb2e27"/>
    <path id="Path_6992" data-name="Path 6992" d="M213.354,267.4l1.33.192.635.093c.179.025.238.1.209.291-.039.273-.1.341-.291.313-.5-.074-1.008-.145-1.512-.224-.129-.02-.194.016-.209.153a2.933,2.933,0,0,1-.064.365c-.037.156-.132.193-.349.142-.13-.029-.232-.079-.2-.248.054-.289.1-.58.154-.868C213.1,267.432,213.154,267.4,213.354,267.4Z" transform="translate(-205.627 -249.475)" fill="#cb2e27"/>
    <path id="Path_6993" data-name="Path 6993" d="M211.885,291.709c-.014.174-.027.325-.038.477-.013.186-.082.251-.266.242-.241-.013-.3-.071-.292-.266.017-.264.032-.529.053-.793.02-.244.1-.307.334-.291q.961.067,1.923.126c.214.013.252.067.234.348-.014.22-.07.269-.279.257C213.012,291.772,212.462,291.741,211.885,291.709Z" transform="translate(-204.13 -271.474)" fill="#cb2e27"/>
    <path id="Path_6994" data-name="Path 6994" d="M596.12,504.628c.162-.118.31-.23.461-.337s.246-.06.381.13c.094.132.058.222-.064.309-.241.174-.476.355-.718.532-.161.116-.25.1-.379-.04q-.617-.7-1.227-1.4c-.134-.153-.126-.213.024-.35.243-.216.325-.208.541.039C595.463,503.88,595.788,504.248,596.12,504.628Z" transform="translate(-560.6 -468.664)" fill="#cb2e27"/>
    <path id="Path_6995" data-name="Path 6995" d="M232.917,403.924c-.057.059-.1.142-.161.158-.659.218-1.321.426-1.983.638a.186.186,0,0,1-.153,0,.19.19,0,0,1-.1-.117c-.029-.071-.057-.142-.081-.213a.176.176,0,0,1,0-.155.17.17,0,0,1,.123-.091c.662-.213,1.325-.425,1.987-.625a.236.236,0,0,1,.205.071A1.567,1.567,0,0,1,232.917,403.924Z" transform="translate(-221.928 -375.939)" fill="#cb2e27"/>
    <path id="Path_6996" data-name="Path 6996" d="M214.051,328.324c0,.2-.054.265-.252.274l-2,.1c-.185.009-.249-.064-.265-.306-.014-.213.05-.3.235-.31q1.017-.05,2.034-.1C213.979,327.975,214.046,328.069,214.051,328.324Z" transform="translate(-204.358 -305.763)" fill="#cb2e27"/>
    <path id="Path_6997" data-name="Path 6997" d="M581.851,511.89a.8.8,0,0,1,.139.11c.412.517.819,1.035,1.229,1.554a.175.175,0,0,1-.034.274,1.412,1.412,0,0,1-.139.1c-.188.117-.241.11-.38-.065q-.578-.728-1.151-1.459c-.125-.158-.117-.228.046-.345C581.649,512,581.747,511.95,581.851,511.89Z" transform="translate(-548.458 -476.629)" fill="#cb2e27"/>
    <path id="Path_6998" data-name="Path 6998" d="M546.555,377.561c.233-.249.252-.252.523-.114.086.044.176.084.289.138a.624.624,0,0,1,.526-.593c.3-.087.513.181.8.231.066-.223.2-.362.474-.284l-.934,2.04a.276.276,0,0,0,.062.036.522.522,0,0,1,.289.846,1.553,1.553,0,0,1-.729.523c-.07.027-.174-.036-.275-.062.229-.154.434-.274.619-.421a.4.4,0,0,0,.085-.552c-.1-.142-.191-.136-.288,0-.3.425-.582.868-.915,1.266a15.072,15.072,0,0,1-1.263,1.356,16.561,16.561,0,0,1-1.4,1.135c-.076.057-.238-.006-.361-.013l-.009-.062.294-.263c-.058-.076-.109-.153-.17-.22-.1-.1-.078-.182.03-.262a2.628,2.628,0,0,0,.269-.223c.091-.088.205-.174.116-.329a.314.314,0,0,0-.406-.136,1.334,1.334,0,0,0-.133.071.527.527,0,0,1,.079.1c.018.045.047.108.03.142-.076.159-.237.129-.367.13a.23.23,0,0,1-.167-.15.207.207,0,0,0-.155-.184c-.182-.071-.363-.15-.558-.23l.084-.236c.209.091.4.186.6.256a.354.354,0,0,0,.25-.018.836.836,0,0,1,.829-.053.446.446,0,0,1,.124.756c-.083.09-.179.167-.269.252.034.118.087.12.173.047q.3-.255.609-.5c.1-.077.2-.142.316-.225l-1.3-1.3c.279-.165.356-.159.538.032.083.088.155.188.254.308.036-.092.052-.123.06-.155a.554.554,0,0,1,.95-.312c.14.121.284.242.444.378l.4-.452c-.222-.287-.676-.339-.646-.83-.24.035-.467.063-.691.1s-.218.04-.265-.218c.257-.034.514-.071.771-.1.144-.017.289-.028.434-.031.126,0,.27-.016.334.128.075.169-.1.191-.2.3l.458.358c.179-.234.344-.451.509-.667.075-.1.049-.158-.057-.218-.425-.243-.845-.493-1.266-.74-.054-.032-.106-.067-.163-.1.273-.213.273-.213.54-.054l1.185.695.279-.531Zm1.976-.019c-.17-.083-.339-.169-.51-.247-.089-.041-.215-.094-.258.023s-.087.355-.025.4a2.431,2.431,0,0,0,.567.28l.209-.374a.431.431,0,0,0,.017-.083Zm-2.635,3.923.409-.406-.031-.047-.8.079Zm.209-.652c.006-.016.013-.031.02-.047-.086-.076-.172-.152-.258-.227-.22-.189-.337-.15-.4.142a1.283,1.283,0,0,0-.01.194Z" transform="translate(-512.626 -351.228)" fill="#cb2e27"/>
    <path id="Path_6999" data-name="Path 6999" d="M349.315,150.435l-.427.346,1.233,1.577a.344.344,0,0,1-.512-.091l-.361-.455-.47.445.078.106c.091.123.062.213-.083.238a1.185,1.185,0,0,1-.311.024c-.092-.01-.216-.033-.259-.1s.022-.175.046-.308a.531.531,0,0,0-.155-.014c-.107.016-.209.062-.319.074a.428.428,0,0,1-.451-.264.348.348,0,0,1,.048-.411.421.421,0,0,1,.5-.142,1.761,1.761,0,0,1,.411.284,3.362,3.362,0,0,1,.268.277c.15-.142.3-.278.43-.421a.144.144,0,0,0,0-.133c-.113-.156-.236-.3-.361-.464-.117.086-.229.157-.33.245-.213.184-.259.189-.529.015.146-.126.279-.252.426-.367a10.558,10.558,0,0,1,1.019-.79,12.528,12.528,0,0,1,2.641-1.327c.188-.061.369-.142.553-.213.287-.111.3-.107.528.159l-.294.142.734,1.857c-.349.022-.392-.009-.507-.313-.1-.273-.209-.545-.32-.834-.16.065-.3.111-.435.178a.24.24,0,0,0-.145.16.245.245,0,0,0,.04.213,1.871,1.871,0,0,0,.317.342,1.264,1.264,0,0,0,.209.132l.209.13-.135.28c-.279-.225-.552-.425-.8-.652a.824.824,0,0,1-.2-.383.4.4,0,0,1,.237-.5c.109-.054.225-.093.339-.137.241-.094.243-.1.091-.355l-1.545.613c.1.415.544.675.294,1.158l.738.223c.242.072.236.071.153.367-.46-.179-.918-.355-1.371-.539-.1-.042-.2-.142-.145-.263.027-.061.139-.081.219-.117a.739.739,0,0,1,.105-.027c-.1-.184-.193-.355-.291-.524a.077.077,0,0,0-.074-.023c-.241.123-.478.251-.732.386l1.1,1.684c-.288.091-.374.062-.526-.171l-.732-1.12C349.42,150.575,349.373,150.515,349.315,150.435Zm-1.289,1.5a1.483,1.483,0,0,0-.193-.2c-.037-.026-.1-.011-.155-.013,0,.054-.026.12,0,.16C347.752,152.022,347.87,152.025,348.025,151.938Z" transform="translate(-330.636 -139.008)" fill="#cb2e27"/>
    <path id="Path_7000" data-name="Path 7000" d="M609.295,275.514l.135.164c-.108.1-.213.187-.314.284a.8.8,0,0,0-.244.738.328.328,0,0,0,.082.189.83.83,0,0,0,.223.1,1.11,1.11,0,0,0,.054-.217.568.568,0,0,0-.036-.208c-.108-.323.047-.54.4-.694a.326.326,0,0,1,.472.313c.007.123.01.248.028.37.006.037.055.071.085.1.03-.039.089-.079.087-.116-.015-.448-.04-.9-.058-1.347-.006-.15-.091-.163-.209-.148q-.7.087-1.395.166c-.063.008-.126.008-.19.011.018-.252.086-.327.307-.355l1.243-.142a1.847,1.847,0,0,0,.186-.04c-.063-.239-.036-.436.25-.5.022.163.044.328.074.554a1.97,1.97,0,0,0,.365-.271.349.349,0,0,0,.061-.288c-.022-.064-.154-.087-.236-.131-.05-.027-.1-.058-.145-.087a.459.459,0,0,1,.089-.129.4.4,0,0,1,.5.054.5.5,0,0,1,.074.573.886.886,0,0,1-.545.41c-.116.038-.134.085-.124.213.04.535.056,1.072.08,1.608.006.147.006.295.015.442.007.106.036.213-.083.284-.022.013-.031.061-.036.094q-.035.272-.065.544c-.03.273-.038.284-.317.344-.007-.009-.019-.018-.019-.027-.007-.261-.006-.267-.264-.3-.448-.057-.9-.106-1.347-.16-.049-.006-.1-.014-.153-.022.133-.291.175-.307.457-.27.447.059.895.106,1.3.152a1.369,1.369,0,0,0,.209-.355,2.107,2.107,0,0,0,.008-.425c-.119,0-.216,0-.311,0-.13.007-.192-.043-.194-.183,0-.177-.022-.355-.028-.53,0-.109-.058-.146-.157-.138a.124.124,0,0,0-.109.047.129.129,0,0,0-.022.118c.019.128.049.255.07.383a.552.552,0,0,1-.432.575.469.469,0,0,1-.524-.386,1.247,1.247,0,0,1,.031-.536A1.611,1.611,0,0,1,609.295,275.514Z" transform="translate(-573.474 -255.398)" fill="#cb2e27"/>
    <path id="Path_7001" data-name="Path 7001" d="M464.026,456.36c.527.026,1.026.028,1.517.084a.9.9,0,0,1,.719.627,2.082,2.082,0,0,1,.021,1.489,1.058,1.058,0,0,1-1.073.742c-.365.006-.731-.016-1.1-.018-.14,0-.123-.091-.121-.179q.017-1.195.034-2.389C464.028,456.61,464.026,456.506,464.026,456.36Zm.526.518v1.815c0,.1.042.133.135.132.174,0,.349,0,.521,0a.5.5,0,0,0,.542-.445,3.884,3.884,0,0,0,.03-.96.545.545,0,0,0-.55-.536,6.406,6.406,0,0,0-.681-.006Z" transform="translate(-439.21 -425.037)" fill="#cb2e27"/>
    <path id="Path_7002" data-name="Path 7002" d="M505.55,144.225c.039-.157.07-.291.11-.439-.357-.1-.692-.221-1.036-.289-.253-.05-.356-.179-.354-.467l2.446.709c.063-.38.179-.534.464-.583a.608.608,0,0,1,.518.155c.185.166.349.358.521.54a.279.279,0,0,1,.007.376c-.153-.175-.292-.355-.455-.512a.856.856,0,0,0-.344-.191.368.368,0,0,0-.4.213c-.045.1-.038.182.079.2.252.044.267.23.273.448-.047-.01-.084-.014-.119-.026-.27-.087-.27-.088-.36.178l-.483,1.438c-.017.054-.038.106-.059.163-.274-.235-.279-.258-.18-.567.139-.425.283-.847.425-1.271.016-.049.029-.1.046-.164l-.639-.271c-.165.67-.319,1.3-.474,1.935-.375-.167-.273-.455-.2-.69a1.8,1.8,0,0,1-.567-.114.94.94,0,0,1-.34-.425.479.479,0,0,1,.349-.7A.63.63,0,0,1,505.55,144.225Zm-.651.021c-.166.065-.245.162-.221.316s.188.223.378.2Zm.231-.053.175.542a.26.26,0,0,0,.177-.333C505.451,144.243,505.314,144.2,505.13,144.193Z" transform="translate(-476.68 -133.926)" fill="#cb2e27"/>
    <path id="Path_7003" data-name="Path 7003" d="M548.937,162.421a1.663,1.663,0,0,1,.272.163.488.488,0,0,1,.128.213.171.171,0,0,1-.047.153.2.2,0,0,1-.158-.017c-.079-.036-.146-.1-.223-.136-.112-.058-.225-.077-.3.055a.212.212,0,0,0,.086.316.515.515,0,0,0,.295.08,1.916,1.916,0,0,0,.656-.15c.148-.079.235-.278.364-.443-.14-.106-.25-.213-.379-.294-.224-.142-.245-.174-.181-.492.124.071.246.137.359.213a4.93,4.93,0,0,0,.644.45,6.365,6.365,0,0,1,1.162.894c.234.182.233.213.11.528l-.379-.315c-.306.213-.379.733-.913.633.035.349.07.673.1,1.013l-.265.057c-.019-.2-.045-.384-.053-.567-.012-.312-.024-.625-.011-.937a.313.313,0,0,1,.159-.213c.031-.018.13.071.19.119.029.023.04.071.079.142l.434-.508-.767-.534-1.093,1.627c-.2-.235-.213-.328-.054-.564l.24-.359c-.662.012-.926-.131-1.062-.561-.082-.259-.014-.413.252-.588a2.051,2.051,0,0,1-.07-.447.373.373,0,0,1,.384-.393.471.471,0,0,1,.438.406.412.412,0,0,1-.307.433C549.007,162.4,548.986,162.407,548.937,162.421Zm-.011-.573a1.078,1.078,0,0,0-.116.233c-.005.026.091.1.1.1a.467.467,0,0,0,.151-.157C549.07,162,549,161.934,548.925,161.848Z" transform="translate(-517.634 -151.142)" fill="#cb2e27"/>
    <path id="Path_7004" data-name="Path 7004" d="M424.1,137.109c-.385-.115-.384-.115-.414-.464-.008-.088-.025-.174-.043-.289a.748.748,0,0,1-.845.071,1.114,1.114,0,0,1-.47-.6c.13-.066.257-.121.374-.192a.188.188,0,0,0,.1-.252c-.049-.118-.114-.182-.253-.15-.266.062-.533.114-.823.175.128.666.255,1.315.38,1.966-.289-.015-.377-.092-.429-.365-.1-.507-.2-1.014-.294-1.525a1,1,0,0,1-.367.011c-.09-.033-.149-.155-.247-.267l.558-.111a.564.564,0,0,0-.409-.477c-.167-.035-.257.035-.268.207a.48.48,0,0,1,0,.123.234.234,0,0,1-.089.128c-.029.013-.1-.023-.128-.057a.452.452,0,0,1-.089-.437.441.441,0,0,1,.328-.3.573.573,0,0,1,.592.213,1.467,1.467,0,0,1,.256.416c.062.166.2.169.268.1.125-.122.267-.094.4-.109.512-.062,1.026-.108,1.539-.153.287-.026.3-.011.445.289l-.316.059C423.938,135.79,424.019,136.441,424.1,137.109Zm-1.074-1.895c.035.074.07.136.093.2a.375.375,0,0,1-.149.5c-.033.023-.07.041-.1.063-.114.071-.121.152,0,.223a.239.239,0,0,0,.193.033,1.6,1.6,0,0,0,.47-.307c.065-.071.031-.253.015-.382-.053-.429-.058-.425-.479-.355a.209.209,0,0,0-.034.022Z" transform="translate(-398.587 -125.809)" fill="#cb2e27"/>
    <path id="Path_7005" data-name="Path 7005" d="M377.005,434.431c-.084-.036-.158-.071-.234-.1-.155-.055-.271-.1-.255-.331.02-.294-.515-.589-.786-.466a.228.228,0,0,0-.128.156.232.232,0,0,0,.045.2,2.273,2.273,0,0,0,.289.3c.149.142.312.265.452.414a.831.831,0,0,1,.148,1.035.792.792,0,0,1-.951.407,2.729,2.729,0,0,1-.819-.406.92.92,0,0,1-.244-1.14c.139.05.279.1.413.159.035.016.059.094.059.142a.671.671,0,0,0,.649.756.4.4,0,0,0,.408-.2.317.317,0,0,0-.108-.393c-.19-.181-.393-.349-.583-.531a.831.831,0,0,1-.3-.82.76.76,0,0,1,.955-.571,1.7,1.7,0,0,1,.809.425A.805.805,0,0,1,377.005,434.431Z" transform="translate(-355.893 -403.352)" fill="#cb2e27"/>
    <path id="Path_7006" data-name="Path 7006" d="M313.312,391.743l-.037-.014c-.453-.314-.457-.316-.3-.847a.223.223,0,0,0-.093-.294c-.22-.153-.431-.32-.637-.492a.209.209,0,0,0-.3-.016c-.449.311-.453.306-.886-.076.041-.031.078-.063.119-.088.784-.486,1.565-.966,2.344-1.459a.2.2,0,0,1,.275.021c.341.274.343.271.227.694q-.345,1.25-.688,2.5C313.331,391.692,313.323,391.715,313.312,391.743Zm-.792-2.029.651.5c.114-.384.219-.734.323-1.084l-.036-.027Z" transform="translate(-296.944 -361.907)" fill="#cb2e27"/>
    <path id="Path_7007" data-name="Path 7007" d="M418.566,450.189l-.532.063a.656.656,0,0,0-.376-.491.666.666,0,0,0-.526-.01.682.682,0,0,0-.374.376,1.873,1.873,0,0,0-.1,1.076.641.641,0,0,0,.558.532.607.607,0,0,0,.667-.368l.086-.169.488.213a1.06,1.06,0,0,1-.873.806,1.282,1.282,0,0,1-1.53-1.333,1.607,1.607,0,0,1,.568-1.415,1.349,1.349,0,0,1,1.633.06A.922.922,0,0,1,418.566,450.189Z" transform="translate(-394.614 -418.405)" fill="#cb2e27"/>
    <path id="Path_7008" data-name="Path 7008" d="M603.576,242.168a1.8,1.8,0,0,0,.3-.1.172.172,0,0,0,.042-.152c-.07-.25-.147-.5-.223-.743-.087-.284-.087-.284.168-.5.094.3.186.6.279.891l.431,1.4c.09.291.091.291-.158.525-.118-.376-.233-.74-.353-1.122l-.473.155a.446.446,0,0,1,.154.567.675.675,0,0,1-.6.382,2.482,2.482,0,0,1-.466-.067l.144-.317c.18.018.345.041.51.045a.188.188,0,0,0,.153-.079.246.246,0,0,0-.033-.191.332.332,0,0,0-.458-.153l-.628.2c-.094-.425.25-.413.509-.506l-.73-.5c.04-.1.079-.191.125-.3l.332.248c.139-.347.305-.66.743-.51C603.6,241.437,603.68,241.737,603.576,242.168Zm-.349.121a.474.474,0,0,0,.053-.571.215.215,0,0,0-.133-.107.212.212,0,0,0-.168.025.183.183,0,0,0-.062.284,3.43,3.43,0,0,0,.307.369Z" transform="translate(-567.725 -224.652)" fill="#cb2e27"/>
    <path id="Path_7009" data-name="Path 7009" d="M350.518,416.463l-.458-.323,1.611-2.4.462.323Z" transform="translate(-333.224 -385.44)" fill="#cb2e27"/>
    <path id="Path_7010" data-name="Path 7010" d="M299.9,241.944c-.234.278-.234.277-.529.171-.191-.071-.381-.142-.575-.2-.054-.017-.156-.019-.168,0a.306.306,0,0,0-.029.225,3.646,3.646,0,0,0,.271.406l-.222.17v-.043c-.08-.013-.174-.058-.236-.03s-.15.142-.139.2a.446.446,0,0,0,.18.252.489.489,0,0,0,.5-.021,2.453,2.453,0,0,0,.279-.178c.084-.061.161-.131.255-.209l.132.2a2.043,2.043,0,0,1-1,.533.59.59,0,0,1-.558-.169.457.457,0,0,1-.137-.41.451.451,0,0,1,.265-.339l.154-.079c-.07-.213-.155-.42.059-.626l-.319-.113c-.04.119-.077.223-.111.328-.121.369-.249.735-.358,1.108a1.766,1.766,0,0,0-.053.442c0,.031.07.082.114.094.467.118.934.231,1.4.346.07.016.135.035.222.058-.114.142-.193.308-.438.232.039.116.07.208.1.3a.965.965,0,0,1-.32,1.154,3.426,3.426,0,0,1-.558.348.351.351,0,0,1-.285.014c-.046-.025-.03-.17-.048-.309-.12-.014-.279-.038-.444-.048-.024,0-.07.058-.076.1a1.106,1.106,0,0,0-.02.213c-.013.268-.048.307-.341.355.026-.308.048-.613.079-.916.064-.629.159-1.252.255-1.877a20.5,20.5,0,0,1,.6-2.075c.021-.079.051-.157.076-.235.07-.222.113-.247.382-.222l-.059.278.839.286Zm-1.642,3.8a.812.812,0,0,0,.481-.769,2.426,2.426,0,0,0-.22-.659.32.32,0,0,0-.188-.152c-.238-.071-.483-.116-.723-.184-.125-.036-.172.011-.187.126-.035.267-.074.534-.105.8-.02.167-.029.335-.043.5C297.618,245.517,298.03,245.338,298.255,245.742Z" transform="translate(-283.744 -225.024)" fill="#cb2e27"/>
    <path id="Path_7011" data-name="Path 7011" d="M297.786,333.425a.688.688,0,0,1-.209-.851c.13-.291.234-.34.662-.306a1.722,1.722,0,0,0,.033-.308.266.266,0,0,0-.37-.271c-.324.083-.324.083-.264.421.022.123,0,.158-.234.32-.054-.2-.107-.4-.159-.593a1.176,1.176,0,0,0-.047-.188c-.1-.218-.024-.367.181-.487l.1.284,1.729-.447c-.022.33-.042.355-.315.425l-.425.107.07.388c.458-.019.694.132.715.516a1,1,0,0,1-.152.525,3.09,3.09,0,0,1-.418.463c-.053-.071-.091-.118-.136-.178.082-.078.164-.151.241-.229a.557.557,0,0,0,.185-.457.33.33,0,0,0-.13-.25.319.319,0,0,0-.273-.055.187.187,0,0,0-.123.313c.133.206.139.3.014.418-.082.082-.154.077-.2-.034-.036-.081-.059-.167-.1-.246a.257.257,0,0,0-.344-.111c-.1.06-.119.19-.033.324a1,1,0,0,0,.074.1C298.047,333.24,298.042,333.265,297.786,333.425Z" transform="translate(-284.005 -308.567)" fill="#cb2e27"/>
    <path id="Path_7012" data-name="Path 7012" d="M287.624,307.721l-.034-.42a1.4,1.4,0,0,1-.312.031.535.535,0,0,1-.433-.7,3.3,3.3,0,0,1,.273-.645c.089-.172.1-.165.331-.142a1.486,1.486,0,0,0-.076.135,5.061,5.061,0,0,0-.251.6.376.376,0,0,0,.049.289.364.364,0,0,0,.241.162c.1.016.18,0,.183-.142.006-.259.018-.267.289-.37,0,.035.01.071.012.1.01.284.009.278.295.267.48-.019.962-.033,1.443-.047a.263.263,0,0,1,.063.014c-.089.3-.113.313-.389.32-.418.011-.837.025-1.252.035-.085,0-.165.015-.139.123C287.971,307.571,287.817,307.642,287.624,307.721Z" transform="translate(-274.396 -285.188)" fill="#cb2e27"/>
    <path id="Path_7013" data-name="Path 7013" d="M305.85,285.689a.612.612,0,0,1,.536-.61.517.517,0,0,1,.473.513.612.612,0,0,1-.575.608A.46.46,0,0,1,305.85,285.689Zm.239-.113a3.03,3.03,0,0,0,.241.341.19.19,0,0,0,.163-.016,2.774,2.774,0,0,0,.054-.366.029.029,0,0,0,0-.017c-.047-.111-.111-.24-.243-.2C306.222,285.346,306.173,285.47,306.089,285.575Z" transform="translate(-292.097 -265.902)" fill="#cb2e27"/>
  </g>
</svg>
