<svg id="delete-bin-5-fill" xmlns="http://www.w3.org/2000/svg" width="17.357" height="17.357" viewBox="0 0 17.357 17.357">
  <path id="Path_1371" data-name="Path 1371" d="M0,0H17.357V17.357H0Z" transform="translate(0 0)" fill="none"/>
  <path id="Path_1372" data-name="Path 1372" d="M3.446,6.339H15.018v9.4a.723.723,0,0,1-.723.723H4.17a.723.723,0,0,1-.723-.723Zm2.17-2.17V2.723A.723.723,0,0,1,6.339,2h5.786a.723.723,0,0,1,.723.723V4.17h3.616V5.616H2V4.17Zm1.446-.723V4.17H11.4V3.446Zm0,5.786v4.339H8.509V9.232Zm2.893,0v4.339H11.4V9.232Z" transform="translate(-0.554 -0.554)" fill="#f32a0a"/>
</svg>
