<svg id="Equestrian_Federation_of_India" data-name="Equestrian Federation of India" xmlns="http://www.w3.org/2000/svg" width="65.446" height="63.469" viewBox="0 0 65.446 63.469">
  <path id="Path_11065" data-name="Path 11065" d="M265.326,517.326h-7.491a14.07,14.07,0,0,0-2.78-.528,33.7,33.7,0,0,1-15.4-7.333,13.965,13.965,0,0,0-2.017-1.709v.006c-.264-.668-.826-.948-1.262-1.392a.215.215,0,0,0-.17-.188l.01.007a1.308,1.308,0,0,0-.491-.559,6.712,6.712,0,0,1-.852-1.3,9.494,9.494,0,0,0,1.133-.008,1.481,1.481,0,0,1,1.457.69,17.317,17.317,0,0,0,1.942,2.051,32.142,32.142,0,0,0,26.37,8.424,31.529,31.529,0,0,0,20.016-10.749c.155-.174.278-.4.536-.4.581.009,1.164,0,1.824,0a2.768,2.768,0,0,1-.178.328c-.46.556-.906,1.131-1.39,1.657a33.5,33.5,0,0,1-19.256,10.58A5.773,5.773,0,0,0,265.326,517.326Z" transform="translate(-228.327 -453.857)" fill="#3c9454"/>
  <path id="Path_11066" data-name="Path 11066" d="M302.233,511.219a.786.786,0,0,0,.112-.041,1.006,1.006,0,0,0,.224-.033,26.785,26.785,0,0,0,9.466-5.924,3.173,3.173,0,0,1,2.727-.71,30.78,30.78,0,0,1-45.432.04c1.185-.172,2.184-.211,2.959.775a10.254,10.254,0,0,0,1.979,1.731,28.731,28.731,0,0,0,9.062,4.7,29.454,29.454,0,0,0,14.2.818A18.915,18.915,0,0,0,302.233,511.219Z" transform="translate(-258.926 -453.985)" fill="#d16e37"/>
  <path id="Path_11067" data-name="Path 11067" d="M448.725,426.516c-.018-.139-.036-.279-.053-.419-.056-.993.382-1.937.307-2.977-.336.17-.147.76-.579.684a21.023,21.023,0,0,1,2.129-6.793c.429-.841.855-1.683,1.333-2.62a3.88,3.88,0,0,1,.306,1.638,3.231,3.231,0,0,0,.259,1.537,2.012,2.012,0,0,1-.285,2.23c-.324.456-.631.932-.946,1.4v.01a6.213,6.213,0,0,0-.672,1.036,27.8,27.8,0,0,0-1.513,3.9C448.961,426.282,449.027,426.617,448.725,426.516Z" transform="translate(-417.933 -374.18)" fill="#1e1e1e"/>
  <path id="Path_11068" data-name="Path 11068" d="M516.725,67.541c.025.353.048.706.073,1.058a2.875,2.875,0,0,0,.077.929c.013.188.026.376.039.57l.034.3c.016.514.036,1.025.044,1.541,0,.15.2.386-.084.437a.47.47,0,0,1-.475-.305,1.865,1.865,0,0,1-.074-.547.985.985,0,0,0-.055-.578c-.007-.12-.065-.166-.159-.165l-.156-.072-.9-.342a.313.313,0,0,0-.361-.114c-.283.122-.539-.607-.836-.039l-.8.615a.753.753,0,0,0-.5-.171c-.224-.183-.573-.039-.715-.414a1.775,1.775,0,0,0-.224-.714c-.126-.42-.063-.987-.528-1.156a10.066,10.066,0,0,0-1.1-.263c-.189-.047-.309.009-.323.262a2.687,2.687,0,0,0-.171.77c-.137.327-.112.866-.63.7l-.048-.032h-.054c-.09-.279.072-.528.071-.8.234-.995.494-1.982.694-2.988.089-.447.224-.57.6-.475.843.228,1.693.4,2.54.6l.5.534.124.57c0,.535-.236,1-.622,1.082-.8.17-.569.665-.372,1.209a2.27,2.27,0,0,1,.1.342c.093.494.235.61.616.248.916-.868,1.878-1.667,2.8-2.527C516.151,67.3,516.422,67.225,516.725,67.541Zm-4.785.385a.642.642,0,0,0,.7-.556.594.594,0,0,0-.477-.746,15.1,15.1,0,0,0-1.736-.384c-.521-.076-.295.534-.437.809-.078.149-.174.418.125.483Zm4.178.268-1.481,1.31,1.648.643C516.228,69.469,516.178,68.892,516.118,68.194Z" transform="translate(-471.546 -65.056)" fill="#1e1e1e"/>
  <path id="Path_11069" data-name="Path 11069" d="M484.289,341.714l.058.114a2.2,2.2,0,0,0,.537.831c.723.857,1.681,1.3,2.465,2.075a.211.211,0,0,0,.224.016c.133-.09,0-.213-.025-.288-.093-.256-.224-.494-.336-.738l.092-.108a3.333,3.333,0,0,1,.874,1.891c.021.133.1.3-.006.4-.128.125-.257-.013-.371-.089-.271-.181-.537-.374-.806-.562l-.136-.022.05.139c.007.114.055.281.013.322-.128.129-.194-.072-.269-.145a12.965,12.965,0,0,0-3.163-2.516c-.347-.394-.929-.326-1.21-.9-.052-.106-.448.046-.682.048-.415,0-.829-.017-1.244-.027a5.891,5.891,0,0,1-2.577-2.409l-.243-.529c-.1-.284-.207-.57-.311-.85l-.112-.4a25.643,25.643,0,0,1-.374-3.17,1.239,1.239,0,0,0-.068-.845v-.027a.327.327,0,0,0,.1-.332c.235-.456.2-.091.211.1a13.409,13.409,0,0,0,.791,3.7c.928,2.528,3.115,5.073,5.726,3.948-.035.546-.5.442-.728.684-.124.041-.365-.058-.328.187.026.179.224.036.336-.014a1.679,1.679,0,0,0,.824-.449C483.825,341.718,484.047,341.46,484.289,341.714Z" transform="translate(-443.035 -302.393)" fill="#1e1e1e"/>
  <path id="Path_11070" data-name="Path 11070" d="M456.852,193.686a21.553,21.553,0,0,1-.26-4.94c.017-1.3-.342-1.773-1.409-2.017-.19-.043-.407-.011-.5-.288l.009-.007h.055l.049-.031.384-.043.694.071h0l.6.551.1.177q.121.424.243.845l.054.843c-.007.283,0,.57-.024.847-.189,2.848,1.008,4.071,3.11,4.76a7.877,7.877,0,0,0,3.585.187c.4-.056.871.09,1.218-.317a6.286,6.286,0,0,0,1.359-.4l-.007.046h.038l-.186.22-.505.332-.3.185c-.579.2-1.085.612-1.667.835-.821.314-1.681.4-2.493.747l-.35.055c-.252-.114-.482.042-.72.089h-.36l-.236-.007-.475-.05a1.673,1.673,0,0,0-.717-.24c-.044-.128-.141-.142-.236-.162l-.207-.191q-.38-.9-.761-1.8Z" transform="translate(-423.509 -172.13)" fill="#d16e37"/>
  <path id="Path_11071" data-name="Path 11071" d="M531.7,223.471l-.841-.067h-.02c.053-.319.277-.182.426-.219a5.634,5.634,0,0,0,2.353-.858.246.246,0,0,0,.112-.025c.07.019.121-.006.143-.092l.007.013a1.324,1.324,0,0,0,.865-.728l.076-.093a1.715,1.715,0,0,0,.473-1.068c.016-.095.032-.189.048-.284l.018-.042s-.037-.019-.037-.021l.163.09c.19,1-.475,1.586-.881,2.344a2.15,2.15,0,0,0,2.2-1.646c.258-1.984-.847-2.918-2.138-3.667.393-.193.715.158,1.071.1a.942.942,0,0,1,.462.3.967.967,0,0,0,.56.684l.3.5c.017.095.01.21.131.212v-.01c-.08.1-.033.2.007.294a3.281,3.281,0,0,0,1.277,3.017h0a1.453,1.453,0,0,0,.483.59l.1.114,2.025,2.453a.07.07,0,0,0,0,.085c-.024.31-.385.606-.024.93-.309-.154-.43.7-.8.215a2.113,2.113,0,0,0-.307-.9,1.509,1.509,0,0,0-.4-.807l-.1-.154a3.851,3.851,0,0,0-2.037-1.709l-.039-.035h-.057a.275.275,0,0,0-.249-.164l-.268-.228c0-.3.193-.579.084-.981a3.866,3.866,0,0,0-.694.825l-.319.2c-.156.077-.35.1-.383.36h0l-.162.121c-.174-.027-.285.114-.413.215h-.118l-.585.076c-.181-.228-.4-.064-.606-.088l-.112-.007a.378.378,0,0,0-.35.087l-1.315.067Z" transform="translate(-491.136 -199.322)" fill="#d16e37"/>
  <path id="Path_11072" data-name="Path 11072" d="M303.418,328.809a2.352,2.352,0,0,0,2.882.892h.034l.024-.027c1.383-.431,1.814-2.219.885-3.667l-.912-1.186c.918.082,1.774.161,2.631.228.243.022.224.182.177.393-.185.85-.336,1.709-.545,2.551-.659,2.666-1.793,3.408-4.027,2.657a.076.076,0,0,0-.08-.047,6,6,0,0,1-1.586-2.26C303.159,328.362,303.227,328.685,303.418,328.809Z" transform="translate(-288.735 -294.815)" fill="#3c9454"/>
  <path id="Path_11073" data-name="Path 11073" d="M602.529,314.729c.235.99.886,1.755,1.142,2.925-.243-.161-.371-.32-.538-.255.214-.32-.107-.486-.191-.627a35.645,35.645,0,0,1-2.29-4.758c-.471-1.481-1-2.945-1.344-4.477-.121-.535-.311-.857-.767-.933.021-.093.041-.186.062-.279.242-.2.286-.622.594-.744l.246,1.167a6.274,6.274,0,0,0,.784,2.2c.19-.975.355-1.823.521-2.661l.2.009a14.4,14.4,0,0,0,.148,3.16,17.179,17.179,0,0,0,1.244,4.831Z" transform="translate(-551.251 -277.767)" fill="#1e1e1e"/>
  <path id="Path_11074" data-name="Path 11074" d="M205.4,204.011c-.848-.483-1.69-.984-2.548-1.44-.3-.16-.336-.291-.152-.61.359-.624.672-1.285,1.032-1.908a1.174,1.174,0,0,1,1.4-.66,1.234,1.234,0,0,1,1.021,1.267c0,.355.195.289.363.291h1.733a.7.7,0,0,1-.383.59,5.55,5.55,0,0,0-1.421.06c-.365-.073-.727-.138-.846.456-.574.911-.574.911.268,1.346.2.1.4.2.595.306.112.062.314.063.217.316-.073.189-.156.4-.392.31C205.991,204.223,205.691,204.119,205.4,204.011Zm-.547-4.006a.7.7,0,0,0-.645.417c-.241.432-.457.884-.708,1.306-.182.3-.1.408.156.551.838.469.832.484,1.344-.456.129-.238.267-.469.383-.715C205.654,200.516,205.419,200.032,204.849,200.006Z" transform="translate(-199.657 -183.635)" fill="#1e1e1e"/>
  <path id="Path_11075" data-name="Path 11075" d="M194.246,401.9c.06.317.287.653-.085.922-.037.026-.04.179-.016.255a2.246,2.246,0,0,1-.946,2.7,4.174,4.174,0,0,1-1.635.373,4.114,4.114,0,0,1-1.151-.517,2.241,2.241,0,0,1,.148-3.631,2.324,2.324,0,0,1,2.817.042c.331.252.522.2.723-.145Zm-2.272,3.584a1.889,1.889,0,0,0,1.179-.507,1.493,1.493,0,0,0,.515-1.213c-.008-.171.017-.494-.3-.265-.436.316-.463-.288-.392-.4.462-.709-.134-.676-.385-.787a1.743,1.743,0,0,0-1.863.354,1.582,1.582,0,0,0-.02,2.4A1.735,1.735,0,0,0,191.973,405.481Z" transform="translate(-188.092 -362.794)" fill="#1e1e1e"/>
  <path id="Path_11076" data-name="Path 11076" d="M700.3,227.168a2.416,2.416,0,0,1-1-2.962,4.52,4.52,0,0,1,1.156-1.284.061.061,0,0,0,.08-.031.694.694,0,0,0,.611-.041l1.169.052a2.642,2.642,0,0,1,1.569,1.994c0,.189,0,.378-.008.57a2.525,2.525,0,0,1-.96,1.469,2.9,2.9,0,0,1-2,.444l-.028-.015-.029.008Zm2.419-3.228a1.755,1.755,0,0,0-2.317-.047,1.572,1.572,0,0,0,.059,2.578,1.747,1.747,0,0,0,2.084-.089,1.655,1.655,0,0,0,.448-2.1A.5.5,0,0,0,702.722,223.94Z" transform="translate(-640.592 -204.463)" fill="#1e1e1e"/>
  <path id="Path_11077" data-name="Path 11077" d="M420.556,63.186c.531-.033,1.063-.083,1.594-.093a1.994,1.994,0,0,1,1.616.751,2.264,2.264,0,0,1-.711,3.446c-.035.023-.071.047-.105.072-.112-.056-.195.013-.285.065-.631.068-1.265.1-1.89.219-.429.08-.548-.114-.585-.584-.074-.943-.19-1.883-.295-2.823S419.791,63.31,420.556,63.186Zm.8,3.822c.465-.071.763-.095,1.053-.163a1.472,1.472,0,0,0,1.218-1.624,1.545,1.545,0,0,0-1.4-1.531c-.432-.026-.868.072-1.3.077-.336,0-.454.131-.391.548a16.459,16.459,0,0,1,.2,1.9C420.76,66.9,420.946,67.2,421.359,67.009Z" transform="translate(-392.578 -62.906)" fill="#1e1e1e"/>
  <path id="Path_11078" data-name="Path 11078" d="M469.346,64.791a6.936,6.936,0,0,0,.083-1.406c.032-.5.081-.99.093-1.481.009-.378.145-.464.443-.441.908.069,1.816.1,2.724.15.165.009.374-.067.372.286,0,.386-.224.32-.412.31-.651-.034-1.306-.032-1.953-.124-.512-.074-.56.219-.6.709-.046.584.271.442.518.467.276.028.551.041.828.06.173.013.381-.036.381.293,0,.385-.237.3-.426.289-.336-.018-.672-.054-1.008-.067-.612-.026-.3.57-.384.877s-.069.607.336.616c.869.021,1.738.072,2.606.114a.589.589,0,0,1-.028.624l-2.254-.114-.476-.018c-.286-.008-.578-.175-.853.056l-.008-.017Q469.337,65.377,469.346,64.791Z" transform="translate(-436.518 -61.46)" fill="#1e1e1e"/>
  <path id="Path_11079" data-name="Path 11079" d="M711.306,396.356a2.673,2.673,0,0,1-1.724-1.184,3,3,0,0,1-.04-1.93,9.011,9.011,0,0,0,.342-1.045c.1-.5.3-.532.672-.419.877.27,1.767.484,2.652.721l.818.238c.112.1.3.062.285.358a3.536,3.536,0,0,1-2.293,3.276Zm.348-.621c.973.014,1.466-.561,1.852-1.989.1-.383.028-.489-.273-.57-.81-.208-1.612-.456-2.42-.684-.142-.04-.351-.164-.412.084-.172.706-.627,1.38-.288,2.165A1.711,1.711,0,0,0,711.655,395.735Z" transform="translate(-649.692 -354.098)" fill="#1e1e1e"/>
  <path id="Path_11080" data-name="Path 11080" d="M627.739,128.472a4.862,4.862,0,0,1,1.511-1.6,2.629,2.629,0,0,1,2.14.153,3.191,3.191,0,0,1,1.082,1.424l-.01,1.139a2.832,2.832,0,0,1-2.026,1.763l-.23.028-.249-.007-.224-.027-.357-.07-.224-.106a4.688,4.688,0,0,1-1.4-1.462A4.728,4.728,0,0,1,627.739,128.472Zm4.011.486a1.529,1.529,0,0,0-1.579-1.616,1.883,1.883,0,0,0-1.744,1.823,1.651,1.651,0,0,0,2.869,1.023A1.725,1.725,0,0,0,631.75,128.958Z" transform="translate(-577.15 -119.283)" fill="#1e1e1e"/>
  <path id="Path_11081" data-name="Path 11081" d="M179.75,277.282a4.479,4.479,0,0,1,.9-1.734c.186-.2.319-.3.547-.057.3.318-.02.4-.127.525a2.458,2.458,0,0,0-.694,1.6c-.008.381.077.726.432.825.336.092.528-.161.645-.48.134-.368.224-.757.344-1.139.266-.873.784-1.36,1.439-1.344.679.016,1.061.4,1.336,1.354-.016.332-.031.664-.048,1a6.107,6.107,0,0,1-.9,1.655c-.224.3-.383.235-.59.036-.3-.285.007-.4.12-.523a2.789,2.789,0,0,0,.8-1.69c.044-.557-.112-1.009-.6-1.148-.458-.131-.759.174-.925.663-.12.351-.194.723-.311,1.074-.207.617-.486,1.146-1.12,1.2s-.987-.368-1.232-.988Z" transform="translate(-179.383 -250.981)" fill="#1e1e1e"/>
  <path id="Path_11082" data-name="Path 11082" d="M375.674,71.388c-.027-.1-.055-.21-.082-.316a7.344,7.344,0,0,0-.453-1.54c-.029-.091-.057-.181-.086-.271-.073-.32.034-.456.3-.52.613-.145,1.218-.329,1.826-.5.319-.089.64-.17.955-.271.206-.066.283.059.336.26.078.285-.092.293-.247.342a4.754,4.754,0,0,0-1.175.39c-.362-.065-.683.157-1.029.216-.188.033-.244.137-.2.392.112.594.308.926.867.647a5.712,5.712,0,0,1,.729-.255l.214-.041.176.083c.093.305.112.545-.253.594a3.461,3.461,0,0,0-.622.208c-.751.1-.744.056-.475.911.041.133.085.264.129.4,0,.095.011.173.112.155a.367.367,0,0,0,.355-.032c.725-.195,1.45-.385,2.174-.588.2-.056.391-.141.458.207.077.4-.214.312-.369.376a6.614,6.614,0,0,1-.736.228c-.289.07-.579.136-.867.208-.481.121-1.027.476-1.421.308-.426-.182-.354-1.025-.587-1.541A.3.3,0,0,0,375.674,71.388Z" transform="translate(-352.784 -67.214)" fill="#1e1e1e"/>
  <path id="Path_11083" data-name="Path 11083" d="M720.113,351.868c.381.252.791.1,1.189.125.285.161.9-.162.706.695l-.347.035a7.731,7.731,0,0,0-1.9-.186,4.526,4.526,0,0,0-1.309-.124c-.213-.038-.426-.077-.639-.114-.1-.015-.207-.007-.224-.162a.291.291,0,0,1,.131-.289c.1-.069.206-.137.308-.208l3.032-2.094c-1.03-.1-1.87-.21-2.714-.253-.456-.024-.577-.2-.357-.684l2.725.244a3.7,3.7,0,0,0,1.191.124l.235.017c.336.108.257.319.094.55h0a9.278,9.278,0,0,0-1.688,1.15l-.2.124a3.452,3.452,0,0,0-1.253,1.049Z" transform="translate(-656.955 -315.895)" fill="#1e1e1e"/>
  <path id="Path_11084" data-name="Path 11084" d="M274.707,117.722a5.58,5.58,0,0,0-1.376-.268c.627.768,1.164,1.413,1.681,2.076.093.114.375.228.129.49-.192.2-.356.21-.555-.038-.769-.957-1.555-1.892-2.334-2.838-.078-.1-.219-.19-.141-.342a.312.312,0,0,1,.374-.142c.995.189,1.993.362,2.985.579.224.05.518.228.636-.008.148-.3-.192-.456-.336-.668a9.144,9.144,0,0,1-1.281-1.733c.38-.351.662-.157.91.228.545.684,1.094,1.35,1.63,2.036.224.287.707.591.6.875-.17.456-.634-.008-.968.079l-.058.011a10.8,10.8,0,0,0-1.9-.337Z" transform="translate(-261.376 -108.587)" fill="#1e1e1e"/>
  <path id="Path_11085" data-name="Path 11085" d="M377.354,159.882a4.472,4.472,0,0,0,2.186,1.709c.178.064.391.131.4.349.016.267-.245.262-.4.327-.5.21-1,.391-1.545.6A2.972,2.972,0,0,0,376.545,160h0a1.717,1.717,0,0,0-.964-.541.093.093,0,0,0-.1-.028,1.261,1.261,0,0,0-.715-.289,14.161,14.161,0,0,0-2.887-.153,2.307,2.307,0,0,1-2.129-.972l.007-.286c.2-.047.183-.456.448-.378a.1.1,0,0,0,.047.087c.112.28.112.655.455.73l.031.024.035-.017a.558.558,0,0,0,.527.123l.491.073a5.155,5.155,0,0,0,1.653.009h.242l.052.023.053-.021.372.008.355.007.233.018,1.415.5.351.234.13.114.24.178v.006a.745.745,0,0,0,.472.437Z" transform="translate(-348.095 -146.42)" fill="#d16e37"/>
  <path id="Path_11086" data-name="Path 11086" d="M658.014,160.045c-.307-.322-.306-.537.084-.816.932-.669,1.83-1.4,2.746-2.1.123-.095.241-.3.418-.165.206.152.1.378.062.576-.232,1.161-.467,2.321-.721,3.572a24.26,24.26,0,0,0,2.169-1.584c.147-.107.3-.362.51-.077.133.178.245.3,0,.485-1.035.785-2.06,1.6-3.1,2.37-.292.22-.4.03-.355-.327.024-.211.052-.419.077-.63a2.918,2.918,0,0,0,.179-.893,13.143,13.143,0,0,0,.432-2.317l-2.2,1.769C658.226,159.971,658.153,160.1,658.014,160.045Z" transform="translate(-603.866 -146.041)" fill="#1e1e1e"/>
  <path id="Path_11087" data-name="Path 11087" d="M180.417,317.622c.236-.1.473-.2.641.142q-.015.924-.031,1.849v.858c.015.577-.213.729-.686.706-1.2-.057-2.4-.04-3.6-.051l-.112-.01-.137-.072-.022-.711v-.289l.012-1.422.128-.991.506.041.04.51-.047,1.851c-.128.577.188.456.448.411l.593.016c.09.021.129-.018.106-.13l.009-.854.122-.707.238-.015a.328.328,0,0,1,.289.3v.733c-.149.58.018.824.527.735a1.269,1.269,0,0,1,.464,0c.443.089.56-.154.468-.624v-.7a2.206,2.206,0,0,0,.019-.861Z" transform="translate(-176.47 -288.353)" fill="#1e1e1e"/>
  <path id="Path_11088" data-name="Path 11088" d="M203.44,440.019c.364-.275.58-.129.779.308.234.517.534.993.81,1.481a.757.757,0,0,0,1.213-.052c.086-.162-.02-.263-.08-.374-.148-.28-.3-.553-.456-.831-.083-.153-.224-.31.019-.449.167-.095.32-.195.448.077.112.246.288.456.385.714.195.506.438.526.838.29.79-.466.8-.436.319-1.306-.262-.473-.519-.95-.776-1.426-.082-.15-.233-.309,0-.456.162-.107.319-.179.456.073.487.89,1.008,1.756,1.465,2.668.295.589-.383.349-.457.653-.98.507-1.974,1-2.95,1.532-.287.156-.448.134-.615-.206A26.443,26.443,0,0,1,203.44,440.019Z" transform="translate(-200.418 -395.011)" fill="#1e1e1e"/>
  <path id="Path_11089" data-name="Path 11089" d="M562.545,309.13a1.327,1.327,0,0,0,.112.162c.2.228.5.4.587.684.1.335-.317.381-.456.627a1.374,1.374,0,0,0-.187.852,5.258,5.258,0,0,0,.986,2.62c.888,1.241,1.969,2.267,2.8,3.576a9.344,9.344,0,0,1,1.069,2.12,1.22,1.22,0,0,1,.013.931l-.388-.89-.121-.288a3.893,3.893,0,0,0-.573-1.228,27.324,27.324,0,0,0-3.946-4.685.1.1,0,0,0-.072-.08c-.3-.379-.58-.776-.9-1.131a.48.48,0,0,1-.018-.745,4.064,4.064,0,0,0,.843-2.585Z" transform="translate(-518.174 -280.859)" fill="#1e1e1e"/>
  <path id="Path_11090" data-name="Path 11090" d="M676.866,446.836c1.145.374,1.778-.352,2.291-1.455.169-.365.253-.594-.028-.894a2.9,2.9,0,0,1-.336-.5c-.149-.247.034-.415.142-.549.159-.2.241.052.315.16q1.194,1.726,2.376,3.466c.28.412.065.6-.257.664a2.878,2.878,0,0,1-.649-.008l-.112-.01-.607-.039-.594-.033a.349.349,0,0,0-.351-.026,3.79,3.79,0,0,0-1.188-.087c-.325-.039-.651-.087-.977-.114s-.179-.238-.125-.418Zm3.962.272c-.9-1.8-1.095-1.815-1.841-.261-.009.018,0,.046,0,.126Z" transform="translate(-620.643 -399.857)" fill="#1e1e1e"/>
  <path id="Path_11091" data-name="Path 11091" d="M523.205,192.643q-.016,1.212-.029,2.422c-.361.517-.224,1.308-.687,1.77l-.369.369c-.757.259-.762.259-.718-.678.025-.535.07-1.07.105-1.6a5.2,5.2,0,0,1,1.539-3.483l.13.63c0,.1.01.19.015.286Z" transform="translate(-482.743 -176.631)" fill="#1e1e1e"/>
  <path id="Path_11092" data-name="Path 11092" d="M247.75,155.658l4.448,1.267a.545.545,0,0,1-.646.456l-.455-.122a.552.552,0,0,0-.836.194,3.318,3.318,0,0,1-.475.529c-.52.491-.975.982-.36,1.8.208.279-.047.419-.185.551-.224.211-.257-.073-.319-.216-.547-1.253-1.072-2.524-1.638-3.76-.189-.415.045-.537.224-.731Zm.314.771c.2.67.342,1.367.744,1.625.224.142.593-.57.905-.881a2.175,2.175,0,0,0,.177-.262Z" transform="translate(-239.287 -144.901)" fill="#1e1e1e"/>
  <path id="Path_11093" data-name="Path 11093" d="M179.884,361.542l-1.762.24c-.18.025-.35.068-.391-.255s.132-.328.314-.353c.961-.133,1.919-.317,2.884-.394,1.2-.092,2.041,1.5,1.515,2.808a1,1,0,0,1-.687.622c-1.08.3-2.189.353-3.282.546-.218.039-.273-.108-.3-.318-.041-.3.141-.291.294-.314q1.175-.183,2.353-.36l.232-.033c.448-.048.88-.114.908-.828a1.407,1.407,0,0,0-.763-1.465.772.772,0,0,0-.627.03.454.454,0,0,0-.4.05Z" transform="translate(-177.584 -326.675)" fill="#1e1e1e"/>
  <path id="Path_11094" data-name="Path 11094" d="M600.212,429.021c.593.107.691.311.448.929a1.931,1.931,0,0,0,.124,1.545q.069.355.137.712c-.029.1-.059.194-.09.292l-.381.1-.711.011-.205-.06a3.284,3.284,0,0,1-.029-2.757c.05-.018.112-.044.066-.114-.012-.022-.089.009-.136.017a2.864,2.864,0,0,0-.034,3.009.145.145,0,0,0,.01.088c-.012.048-.025.1-.038.144l-.348-.051a13.854,13.854,0,0,0-.408-1.7c-.285-.9-.137-1.367.56-1.823.295-.193.6-.355.905-.532l.064.3Z" transform="translate(-551.199 -386.975)" fill="#1e1e1e"/>
  <path id="Path_11095" data-name="Path 11095" d="M361.037,193.145c.953-.114,1.969.286,2.876-.556a4.314,4.314,0,0,1-1.933-1.606,1.822,1.822,0,0,0-1.6-.6,14.133,14.133,0,0,1-2.793.148c.378-.3.8-.153,1.135-.359a.651.651,0,0,0,.536-.132l.528-.056.12-.016.465-.043a.8.8,0,0,0,.606-.032.752.752,0,0,0,.586,0,1.7,1.7,0,0,0,.717.114.056.056,0,0,0,.069.031c.336,1.546.824,2.074,2.129,2.227.295.034.464.448.941.175-.44.661-.968.657-1.367.937-.774.054-1.463.563-2.241.6l.037-.256C361.462,193.766,361.315,193.32,361.037,193.145Z" transform="translate(-337.297 -175.258)" fill="#d16e37"/>
  <path id="Path_11096" data-name="Path 11096" d="M337.145,81.058c-.271-.456-.185-.692.278-.869.9-.342,1.776-.768,2.662-1.159.259.342.285.57-.16.729-.531.187-1.043.448-1.563.678-.691.308-.672.3-.306,1.033.133.263.252.3.473.186.357-.194.727-.359,1.091-.535l.007-.007a.382.382,0,0,1,.336.4c.009.256-.224.216-.346.284a5.715,5.715,0,0,1-.821.375c-.291.1-.309.228-.171.547a3.874,3.874,0,0,1,.59,1.564l-.46.131-.437-.8c-.083-.228-.1-.513-.357-.578A6.408,6.408,0,0,0,337.145,81.058Z" transform="translate(-319.007 -77.028)" fill="#1e1e1e"/>
  <path id="Path_11097" data-name="Path 11097" d="M390.94,348.375a21.391,21.391,0,0,1,6.527-8.095c-.655.69-1.32,1.367-1.965,2.072a17.552,17.552,0,0,0-3.625,5.733c-.077.206-.12.6-.372.076C391.423,348,391.129,348.223,390.94,348.375Z" transform="translate(-366.911 -308.514)" fill="#1e1e1e"/>
  <path id="Path_11098" data-name="Path 11098" d="M260.571,309.35c.858.16,1.716.321,2.577.48.1.017.212-.013.266.114.583,1.32,1.361,2.565,1.172,4.308-.287-.492-.524-.911-.77-1.317a9.216,9.216,0,0,0-3.209-3.285.279.279,0,0,1-.153-.271Z" transform="translate(-251.044 -281.108)" fill="#3c9454"/>
  <path id="Path_11099" data-name="Path 11099" d="M712.8,268.927c-.273.047-.547.084-.818.145-.2.044-.291-.057-.342-.273-.071-.293.105-.31.26-.342,1.263-.285,2.526-.562,3.789-.852.482-.114.283.456.466.641l.107.424c.017.786.418,1.462.448,2.243l-.458.125a10.747,10.747,0,0,1-.6-2.279c-.089-.358-.18-.49-.528-.412-.784.178-.792.146-.576,1.065.037.158.068.32.112.476.049.182.053.328-.149.353-.149.019-.323.124-.394-.144a4.1,4.1,0,0,1-.14-.613c-.081-.731-.381-.962-.948-.632Z" transform="translate(-651.668 -244.104)" fill="#1e1e1e"/>
  <path id="Path_11100" data-name="Path 11100" d="M189.732,235.67c-.261-.1-.52-.216-.784-.305-1.179-.392-1.189-.394-1.7.906-.12.305-.245.376-.5.259-.3-.139-.1-.342-.052-.508.112-.375.235-.745.354-1.118l.1-.3c.2-.527.394-1.061.605-1.583.1-.239.089-.643.5-.456s.068.443.059.665a1.8,1.8,0,0,1-.033.2l-.056.166c-.359.76-.359.762.324.982.149.048.3.077.454.114l1.6.532a2.065,2.065,0,0,0,.813.27l.032.018c.16.508.057.719-.416.548-.224-.081-.448-.126-.672-.187Z" transform="translate(-185.456 -213.03)" fill="#1e1e1e"/>
  <path id="Path_11101" data-name="Path 11101" d="M515.644,338.159a1.122,1.122,0,0,0-.224-.57,45.017,45.017,0,0,0-2.41-4.759,1.642,1.642,0,0,1,1.12.84,13.282,13.282,0,0,0,1.249,2.218l.1.156a10.769,10.769,0,0,0,2.082,2.585c-.279.063-.468.114-.66.147-.314.06-.579.588-.81.42S515.786,338.517,515.644,338.159Z" transform="translate(-475.304 -301.913)" fill="#1e1e1e"/>
  <path id="Path_11102" data-name="Path 11102" d="M594.074,90.62c-.092.52-.308.534-.684.326-1.18-.654-1.185-.636-1.911.651-.3.53-.632,1.037-.9,1.6-.178.378-.383.4-.672.27l-.023-.041h-.029c-.007-.1-.012-.2-.018-.294.068-.114.137-.228.206-.349a20.865,20.865,0,0,0,1.315-2.322c.327-.322.271-.54-.12-.693-.234-.091-.46-.214-.69-.324a.278.278,0,0,0-.267-.16l-.034-.024a.371.371,0,0,1-.1-.371c.124-.164.251-.318.458-.18a32.263,32.263,0,0,0,3.232,1.75Z" transform="translate(-543.526 -85.553)" fill="#1e1e1e"/>
  <path id="Path_11103" data-name="Path 11103" d="M590.778,469.824a.881.881,0,0,1-.753.918,4.189,4.189,0,0,1-2.5-.145c-.635-.218-.8-.911-1.042-1.523l-.065-.169c-.045-.194-.091-.387-.135-.58.361-.03.579.3.773.549a2.765,2.765,0,0,0,1.913,1.016A12.2,12.2,0,0,0,590.778,469.824Z" transform="translate(-540.365 -421.969)" fill="#1e1e1e"/>
  <path id="Path_11104" data-name="Path 11104" d="M472.206,169.048l-.215-.015-.336-.59a.066.066,0,0,0-.031-.077c-.367-1.242-.614-2.589-1.876-3.043a.271.271,0,0,1-.14-.193c-.007-.144.112-.164.2-.2a1.286,1.286,0,0,1,1.1.089C472.11,165.62,472.633,167.243,472.206,169.048Z" transform="translate(-436.764 -153.065)" fill="#d16e37"/>
  <path id="Path_11105" data-name="Path 11105" d="M583.317,199.763l-.3-.5c-.164-.375-.008-.77-.053-1.152h0c.318-.2.336-.6.458-.941a5.138,5.138,0,0,0,.472-1.184l.131-.3c.593.843.346,1.814.279,2.75a5.5,5.5,0,0,1-.18.817c-.253.2-.144.911-.686.71v.01Z" transform="translate(-537.403 -180.397)" fill="#1e1e1e"/>
  <path id="Path_11106" data-name="Path 11106" d="M502.277,205.861c.052-.1.1-.207.154-.311h.224a5.571,5.571,0,0,0-.348,1.863,15.613,15.613,0,0,0-.245,2.02c-.132,1.132-.03.911-.807.643a2.413,2.413,0,0,0-1.254-.3A6.262,6.262,0,0,0,502.277,205.861Z" transform="translate(-463.752 -189.134)" fill="#1e1e1e"/>
  <path id="Path_11107" data-name="Path 11107" d="M722.323,332.515h-1.89c-.185,0-.357.031-.364-.3-.006-.3.127-.35.336-.353q1.951-.03,3.9-.073c.179,0,.3.027.3.3,0,.3-.123.342-.336.342-.65-.009-1.3,0-1.95,0Z" transform="translate(-659.164 -300.991)" fill="#1e1e1e"/>
  <path id="Path_11108" data-name="Path 11108" d="M523.8,306.6l-.148-.077c.059-.132.28-.1.241-.328-.049-.281-.2-.082-.309-.095a2.036,2.036,0,0,1-.38-.114c-.05-.28-.543-.329-.286-.777.006-.009-.03-.063-.055-.083-.352-.3-.353-.3.053-.551.21-.132.42-.257.631-.386.412-.252.483-.208.654.382a.475.475,0,0,0,.081.157c.636-.31.425.515.672.719l-.012.49c-.232.051-.464.12-.7.148-.183.022-.254.093-.186.311v.257Z" transform="translate(-483.826 -276.405)" fill="#1e1e1e"/>
  <path id="Path_11109" data-name="Path 11109" d="M226.883,181.706c.989.684,1.981,1.351,2.962,2.051.145.1.5.1.327.494s-.4.2-.634.044c-1.064-.709-2.134-1.406-3.2-2.108C226.293,181.648,226.495,181.526,226.883,181.706Z" transform="translate(-220.744 -167.937)" fill="#1e1e1e"/>
  <path id="Path_11110" data-name="Path 11110" d="M612.786,110.028a.329.329,0,0,1,.008.476q-1.086,1.508-2.148,3.044c-.174.252-.327.3-.546.1-.3-.271,0-.416.1-.555.672-.983,1.353-1.952,2.037-2.92.082-.114.137-.311.322-.228Z" transform="translate(-561.402 -104.404)" fill="#1e1e1e"/>
  <path id="Path_11111" data-name="Path 11111" d="M645.906,432.04a1.035,1.035,0,0,1-.622-1.253,15.92,15.92,0,0,1,.858-2.657l.235.041.156.427a6.767,6.767,0,0,1-.121,1.4,6.187,6.187,0,0,0-.448,1.984C645.925,431.977,645.907,432,645.906,432.04Z" transform="translate(-592.733 -386.355)" fill="#1e1e1e"/>
  <path id="Path_11112" data-name="Path 11112" d="M574.348,186.968c-.069-.114.015-.2.047-.293a4.288,4.288,0,0,0,1.615-3.261c.021-.216-.1-.693.347-.393a.246.246,0,0,0,.145.228q-.119.442-.241.885a1.047,1.047,0,0,0-.2.518l-.472,1.2c-.121.3-.369.554-.279.947h0c-.274-.01-.19.534-.5.468A.942.942,0,0,0,574.348,186.968Z" transform="translate(-529.746 -169.087)" fill="#1e1e1e"/>
  <path id="Path_11113" data-name="Path 11113" d="M487.64,211.754c.143-.911.362-1.13,1.089-1.156a2.544,2.544,0,0,1,1.449.392,8.352,8.352,0,0,1-2.309.816Z" transform="translate(-452.776 -193.605)" fill="#d16e37"/>
  <path id="Path_11114" data-name="Path 11114" d="M614.341,473.75c-.416-.01-.83-.022-1.246-.03-.167,0-.326-.009-.3-.293l.5-.089a2.315,2.315,0,0,0,1.054-.4l.233.034c.475.309.995.122,1.5.219A3.7,3.7,0,0,1,614.341,473.75Z" transform="translate(-563.907 -426.06)" fill="#1e1e1e"/>
  <path id="Path_11115" data-name="Path 11115" d="M514.7,300.27c.241.072.352.2.036.322-.592.237-1.194.433-1.84.662.244-.741.672-1.025,1.223-.911a1.071,1.071,0,0,0,.346-.033Z" transform="translate(-475.206 -273.062)" fill="#1e1e1e"/>
  <path id="Path_11116" data-name="Path 11116" d="M358.742,218.988c.4.161.808-.08,1.254-.018-.112.312-.364.26-.536.366l-1.066-.038a.074.074,0,0,0-.1-.019l-.009-.218Z" transform="translate(-337.919 -201.015)" fill="#d16e37"/>
  <path id="Path_11117" data-name="Path 11117" d="M535.58,324.593a3.719,3.719,0,0,1,.821.017c.261.06-.054.152-.021.243-.267.009-.533.149-.8,0C535.581,324.764,535.58,324.679,535.58,324.593Z" transform="translate(-495.345 -294.601)" fill="#3c9454"/>
  <path id="Path_11118" data-name="Path 11118" d="M618.27,306.772c0-.13.006-.26.009-.39a.048.048,0,0,0,.024-.027.049.049,0,0,0,0-.037c.04-.067.078-.188.121-.19.121-.006.092.146.122.236-.026.139-.05.279-.076.418Z" transform="translate(-568.771 -278.253)" fill="#3c9454"/>
  <path id="Path_11119" data-name="Path 11119" d="M601.876,474.558c-.171.287-.278.264-.706-.153.166-.1.292.074.441.089Z" transform="translate(-553.586 -427.329)" fill="#3c9454"/>
  <path id="Path_11120" data-name="Path 11120" d="M371.956,264.84a.307.307,0,0,1,.112-.3C372.249,264.757,372.1,264.794,371.956,264.84Z" transform="translate(-350.049 -241.403)" fill="#ececec"/>
  <path id="Path_11121" data-name="Path 11121" d="M217.11,336.128v-.288c.078.011.167.029.166.146S217.188,336.117,217.11,336.128Z" transform="translate(-212.557 -304.58)" fill="#ececec"/>
  <path id="Path_11122" data-name="Path 11122" d="M475.762,338.027v.027l-.1.032V338Z" transform="translate(-442.139 -306.493)" fill="#ececec"/>
  <path id="Path_11123" data-name="Path 11123" d="M538.53,273.42l.12.007C538.607,273.523,538.567,273.517,538.53,273.42Z" transform="translate(-497.965 -249.271)" fill="#f6ebda"/>
  <path id="Path_11124" data-name="Path 11124" d="M191.6,342.11c.022.114-.017.15-.106.13Z" transform="translate(-189.807 -310.135)" fill="#ececec"/>
  <path id="Path_11125" data-name="Path 11125" d="M566.14,272.29h.118C566.218,272.357,566.179,272.358,566.14,272.29Z" transform="translate(-522.481 -248.27)" fill="#ececec"/>
  <path id="Path_11126" data-name="Path 11126" d="M377.33,190.149l-.12.016C377.244,190.086,377.283,190.07,377.33,190.149Z" transform="translate(-354.719 -175.441)" fill="#f6ebda"/>
  <path id="Path_11127" data-name="Path 11127" d="M449,520.752l-.049-.032.048.033Z" transform="translate(-418.421 -468.396)" fill="#ececec"/>
  <path id="Path_11128" data-name="Path 11128" d="M571,241.92c0,.064-.012.128-.018.193l-.162-.09C570.881,241.989,570.941,241.954,571,241.92Z" transform="translate(-526.637 -221.36)" fill="#f6ebda"/>
  <path id="Path_11129" data-name="Path 11129" d="M376.246,282.165c-1.355,1.044-2.643,2.2-3.914,3.38a.733.733,0,0,1-.672.3,30.263,30.263,0,0,1,3.585-4.8A2.321,2.321,0,0,1,376.246,282.165Z" transform="translate(-349.791 -256.032)" fill="#3c9454"/>
  <path id="Path_11130" data-name="Path 11130" d="M302.35,354.73a.365.365,0,0,1,.022.134C302.277,354.838,302.277,354.838,302.35,354.73Z" transform="translate(-288.2 -321.317)" fill="#3c9454"/>
  <path id="Path_11131" data-name="Path 11131" d="M412.831,203.507l-.331-.023.463-.491a16.446,16.446,0,0,1,5.062-2.675c.255-.083.672-.291.745.024.1.422-.365.456-.616.554-.769.293-1.551.538-2.327.8A9.715,9.715,0,0,0,412.831,203.507Z" transform="translate(-386.055 -184.37)" fill="#d16e37"/>
  <path id="Path_11132" data-name="Path 11132" d="M433.1,215.259a12.827,12.827,0,0,1,3.087-1.929c.18-.074.455-.349.566-.018.1.308-.2.491-.411.591-.774.361-1.554.709-2.339,1.033C433.726,215.05,433.487,215.307,433.1,215.259Z" transform="translate(-404.347 -195.87)" fill="#d16e37"/>
  <path id="Path_11133" data-name="Path 11133" d="M567.6,437.619l-.05-.139.136.022C567.66,437.539,567.631,437.579,567.6,437.619Z" transform="translate(-523.733 -394.64)" fill="#ececec"/>
  <path id="Path_11134" data-name="Path 11134" d="M454.76,186.435c.021-.076.053-.1.1-.03l-.049.031Z" transform="translate(-423.58 -172.132)" fill="#f6ebda"/>
  <path id="Path_11135" data-name="Path 11135" d="M586.27,231.44l.131.212C586.28,231.65,586.287,231.535,586.27,231.44Z" transform="translate(-540.356 -212.074)" fill="#f6ebda"/>
  <path id="Path_11136" data-name="Path 11136" d="M554.622,272.137c-.043.076-.082.073-.112-.007Z" transform="translate(-512.154 -248.128)" fill="#f6ebda"/>
  <path id="Path_11137" data-name="Path 11137" d="M556.6,262.422l.143-.092C556.721,262.417,556.671,262.442,556.6,262.422Z" transform="translate(-514.01 -239.445)" fill="#f6ebda"/>
  <path id="Path_11138" data-name="Path 11138" d="M699.616,433.266c.168.07.318.13.467.194l3.185,1.367c.141.06.336.072.236.365-.078.228-.179.336-.408.237-1.191-.515-2.388-1.013-3.585-1.522-.112-.048-.312-.05-.211-.311C699.37,433.427,699.417,433.218,699.616,433.266Z" transform="translate(-640.698 -390.899)" fill="#1e1e1e"/>
  <path id="Path_11139" data-name="Path 11139" d="M612.918,426.87l-.064.114-.064-.3c.133-.114.241-.3.441-.28C613.229,426.669,613.051,426.747,612.918,426.87Z" transform="translate(-563.905 -384.824)" fill="#3c9454"/>
  <path id="Path_11140" data-name="Path 11140" d="M613.89,413.41c.086.018.187.015.178.171,0,.017-.024.044-.037.044C613.9,413.633,613.9,413.511,613.89,413.41Z" transform="translate(-564.881 -373.312)" fill="#fdfdfd"/>
  <path id="Path_11141" data-name="Path 11141" d="M309.58,260.889a9.844,9.844,0,0,0,4.768-.769C313.7,261.815,310.764,262.252,309.58,260.889Z" transform="translate(-294.666 -237.486)" fill="#3c9454"/>
  <path id="Path_11142" data-name="Path 11142" d="M333.446,241c-.027.164-.055.328-.083.491-.6.708-1.263.5-2.083.169Z" transform="translate(-313.935 -220.545)" fill="#3c9454"/>
  <path id="Path_11143" data-name="Path 11143" d="M583.661,459.837l-.728-.667c-.184-.214-.369-.427-.552-.64a4.61,4.61,0,0,1,1.5,1.253Z" transform="translate(-536.902 -413.291)" fill="#1e1e1e"/>
  <path id="Path_11144" data-name="Path 11144" d="M566.022,416.736c-.55-.306-.55-.306-.592-.966a1.661,1.661,0,0,1,.683.858Z" transform="translate(-521.851 -375.403)" fill="#1e1e1e"/>
  <path id="Path_11145" data-name="Path 11145" d="M593.81,469.628l.224-.048c.158.1.366.144.367.436A.8.8,0,0,1,593.81,469.628Z" transform="translate(-547.051 -423.082)" fill="#3c9454"/>
  <path id="Path_11146" data-name="Path 11146" d="M599.287,473.076c-.121.054-.208.026-.237-.142C599.2,472.808,599.268,472.878,599.287,473.076Z" transform="translate(-551.704 -425.998)" fill="#3c9454"/>
  <path id="Path_11147" data-name="Path 11147" d="M296.814,282.556c-.23.57-.649.1-.955.253a4.526,4.526,0,0,1-2.129-1.7,2.257,2.257,0,0,1-.361-.959c-.028-.238-.016-.542.17-.635.236-.114.266.205.319.386.085.291.266.313.474.3.363-.027.533.163.682.589A2.5,2.5,0,0,0,296.814,282.556Z" transform="translate(-280.262 -254.649)" fill="#3c9454"/>
  <path id="Path_11148" data-name="Path 11148" d="M388.986,104.47l.112.155C388.993,104.644,388.978,104.565,388.986,104.47Z" transform="translate(-365.174 -99.57)" fill="#fdfdfd"/>
  <path id="Path_11149" data-name="Path 11149" d="M449.228,246.317c.053.13.134.174.249.128a.262.262,0,0,0,.09.3c-.058.37-.291.228-.467.216-.232-.011-.464-.049-.7-.076-1.411.043-2.2-1.152-3.056-2.21-.2-.251-.213-.556.053-.712a2.949,2.949,0,0,1,1.77-.633c-.037.181-.075.362-.112.543-.586.717-.589,1.072-.011,1.494v.021A4.576,4.576,0,0,0,449.228,246.317Z" transform="translate(-415.09 -222.599)" fill="#d16e37"/>
  <path id="Path_11150" data-name="Path 11150" d="M404.88,166.49h.1l-.053.021Z" transform="translate(-379.289 -154.524)" fill="#f6ebda"/>
  <path id="Path_11151" data-name="Path 11151" d="M430.15,173.21l.13.114Z" transform="translate(-401.728 -160.478)" fill="#f6ebda"/>
  <path id="Path_11152" data-name="Path 11152" d="M537.549,402.487l-.129-.014.044-.123Z" transform="translate(-496.979 -363.512)" fill="#1e1e1e"/>
  <path id="Path_11153" data-name="Path 11153" d="M528,321.12a2.032,2.032,0,0,0,.38.114c.112.013.26-.187.309.095.039.228-.182.2-.241.328-.178.011-.344,0-.392-.268-.018-.072-.036-.144-.055-.215Z" transform="translate(-488.615 -291.537)" fill="#3c9454"/>
  <path id="Path_11154" data-name="Path 11154" d="M526.655,321.57c.019.072.037.144.055.215-.085.013-.183.044-.224-.08C526.477,321.69,526.592,321.619,526.655,321.57Z" transform="translate(-487.27 -291.935)" fill="#1e1e1e"/>
  <path id="Path_11155" data-name="Path 11155" d="M607,436.218c.047-.008.123-.039.136-.017.041.073-.016.1-.066.114a.516.516,0,0,1-.07-.1Z" transform="translate(-558.763 -393.5)" fill="#f6ebda"/>
  <path id="Path_11156" data-name="Path 11156" d="M509.451,237.938c.154-.122.212.028.283.141.158,1.147-.092,1.6-1.045,1.709a4.353,4.353,0,0,1-2.158-.016,1.04,1.04,0,0,1-.6-.378,11.034,11.034,0,0,0,2.431-.559c.178-.091.389-.106.511-.324h0A.918.918,0,0,0,509.451,237.938Z" transform="translate(-469.017 -217.791)" fill="#d16e37"/>
  <path id="Path_11157" data-name="Path 11157" d="M528.63,183.009a3.07,3.07,0,0,1,.8-.911.266.266,0,0,1,.421.03.419.419,0,0,1,.112.439c-.089.215-.236.067-.36.049-.4-.06-.56.368-.821.581Z" transform="translate(-489.174 -168.274)" fill="#1e1e1e"/>
  <path id="Path_11158" data-name="Path 11158" d="M522.459,190.79l.155.182-.709,1.495h-.224A4.6,4.6,0,0,1,522.459,190.79Z" transform="translate(-483.003 -176.055)" fill="#3c9454"/>
  <path id="Path_11159" data-name="Path 11159" d="M583.3,208.62h.18c-.119.342-.141.744-.459.942C582.929,209.174,583.176,208.923,583.3,208.62Z" transform="translate(-537.451 -191.854)" fill="#3c9454"/>
  <path id="Path_11160" data-name="Path 11160" d="M348.633,273.85c.207.3-.021.632.063.94a2.267,2.267,0,0,1-1.31.581c-.124,0-.307.077-.346-.147s.112-.253.255-.3A2.735,2.735,0,0,0,348.633,273.85Z" transform="translate(-327.924 -249.652)" fill="#3c9454"/>
  <path id="Path_11161" data-name="Path 11161" d="M500.387,196.588a1.768,1.768,0,0,0-.956-.427c0-.051-.007-.1-.011-.153l.344-.218h.816a6.663,6.663,0,0,1,.417.57c.069.114.207.253.112.42-.129.242-.263-.09-.4-.022h-.053l-.189-.128A.089.089,0,0,0,500.387,196.588Z" transform="translate(-463.237 -180.486)" fill="#d16e37"/>
  <path id="Path_11162" data-name="Path 11162" d="M508.8,203.2l.189.128Z" transform="translate(-471.566 -187.051)" fill="#f6ebda"/>
  <path id="Path_11163" data-name="Path 11163" d="M370.81,173.23a15.288,15.288,0,0,1,2.129.365c.192.033.384.06.577.09h0c-.328.36-.8.277-1.16.548l-.472-.163a.861.861,0,0,0-.56-.311l-.019.021-.141-.1C371.055,173.523,370.85,173.473,370.81,173.23Z" transform="translate(-349.036 -160.496)" fill="#d16e37"/>
  <path id="Path_11164" data-name="Path 11164" d="M374.05,177.12l.141.1Z" transform="translate(-351.913 -163.943)" fill="#f6ebda"/>
  <path id="Path_11165" data-name="Path 11165" d="M474.85,264.552l.048.03-.046-.032Z" transform="translate(-441.419 -241.412)" fill="#fdfdfd"/>
</svg>
