<svg xmlns="http://www.w3.org/2000/svg" width="65.699" height="67.071" viewBox="0 0 65.699 67.071">
  <g id="Fencing_Association_of_India" data-name="Fencing Association of India" transform="translate(0 0)">
    <path id="Path_11166" data-name="Path 11166" d="M224.662,86.982l-.081.085a.605.605,0,0,0-.588.243,27.529,27.529,0,0,1-4.644,3.82,16.509,16.509,0,0,1-3.6,2.085c-.205.068-.235.228-.222.417h0a1.313,1.313,0,0,0-.646.1c-.718.321-1.451.62-2.176.93a11.621,11.621,0,0,0-1.454.437,6.457,6.457,0,0,1-1.726.557,24.863,24.863,0,0,1-2.83.613,39.346,39.346,0,0,1-5.007.5,27.976,27.976,0,0,1-4.679-.276,21.218,21.218,0,0,1-3.778-.73,30.286,30.286,0,0,1-4.036-1.336c-.79-.391-1.627-.678-2.424-1.065-.466-.226-.886-.7-1.5-.555h0c.006-.1.03-.232-.072-.285-.449-.227-.82-.607-1.242-.827a21.627,21.627,0,0,1-3.832-2.747.7.7,0,0,0-.593-.215h0a.567.567,0,0,0-.35-.669.838.838,0,0,1-.4-.313,10,10,0,0,0-1.36-1.375c-.389-.427-.793-.85-1.153-1.293s-.768-.9-1.1-1.4c-.443-.659-.945-1.279-1.356-1.957-.6-1-1.095-2.064-1.743-3.031a16.661,16.661,0,0,1-1.364-2.908,28.188,28.188,0,0,1-1.417-4.608,22.263,22.263,0,0,1-.671-4.108,27.007,27.007,0,0,1-.146-5.431c.173-1.052.177-2.128.3-3.191a22.821,22.821,0,0,1,.994-4.527c.369-1.127.751-2.263,1.23-3.365.531-1.227,1.128-2.418,1.7-3.62a33.145,33.145,0,0,1,2.032-3.105,15.333,15.333,0,0,1,1.68-2.113c.484-.534.98-1.083,1.461-1.621a28.931,28.931,0,0,1,3.461-3.115,25.393,25.393,0,0,1,2.986-2.009c.219-.131.455-.254.454-.57h0a1.2,1.2,0,0,0,1.333-.736h0a.918.918,0,0,0,.635-.134,22.833,22.833,0,0,1,2.073-.968,48.86,48.86,0,0,1,6-1.786,25.2,25.2,0,0,1,4.225-.6,30.225,30.225,0,0,1,9.045.7,16.121,16.121,0,0,1,2.35.625c.861.359,1.787.487,2.635.9.6.3,1.25.521,1.86.834a3,3,0,0,0,1.571.521h0c-.047.191.069.274.205.368.421.29.9.474,1.326.759.75.5,1.522.966,2.24,1.515.867.664,1.736,1.328,2.576,2.025a4.6,4.6,0,0,1,1.2,1.235c.205.393.342.357.626.265h0a.606.606,0,0,0,.129.469c.328.433.768.751,1.082,1.2.476.684,1.041,1.3,1.55,1.964.124.162.263.119.41.128h0c-.093.7.513,1.053.79,1.552.549.982,1.191,1.913,1.743,2.9.082.144.109.343.331.349h0c-.14.586.271.972.477,1.444A42.019,42.019,0,0,1,232.7,54.3a28.839,28.839,0,0,1,.662,2.912,2.843,2.843,0,0,0,.507,1.5v9.174a2.454,2.454,0,0,0-.4,1.345c-.217,1.318-.563,2.606-.892,3.894-.153.6-.464,1.147-.628,1.741a8.4,8.4,0,0,1-1.187,2.753,1.669,1.669,0,0,0-.266.6,3.057,3.057,0,0,1-.594,1.245,1.227,1.227,0,0,0-.326,1.042h0c-.214-.05-.281.088-.37.255a28.912,28.912,0,0,1-2.1,3.055,13.534,13.534,0,0,1-2.273,2.606.589.589,0,0,0-.182.554Zm-41.535,2.9c.076.333.35.368.615.417.171.445.6.583.956.78a5.328,5.328,0,0,0,2.12.991l.1.1c.022.176.13.25.288.313.45.194.873.463,1.333.618a12.256,12.256,0,0,0,3.289,1.058c.218.463.712.361,1.066.471a16.834,16.834,0,0,0,3.082.625c1.435.164,2.853.417,4.3.448a25.849,25.849,0,0,0,4.172-.208,32.484,32.484,0,0,0,3.518-.5c.526-.132,1.044-.321,1.569-.417a14.9,14.9,0,0,0,3.178-1.042,26.987,26.987,0,0,0,3.186-1.471c.8-.46,1.6-.9,2.394-1.371a.751.751,0,0,0,.41-.5,1.1,1.1,0,0,0,1.025-.73c.376-.071.726-.178.82-.625l.1-.1a3.961,3.961,0,0,0,2.039-1.681c.462-.174.707-.67,1.095-.87.54-.277.622-.77.865-1.2a.553.553,0,0,0,.5-.27c.287-.4.595-.786.905-1.169a.749.749,0,0,0,.232-.544,1,1,0,0,0,.425-.263,6.935,6.935,0,0,0,.669-1.014,11.319,11.319,0,0,0,1.112-1.708c.341-.665.693-1.342,1.083-1.963a18.647,18.647,0,0,0,.958-2.15c.357-.764.562-1.638.845-2.451a34.564,34.564,0,0,0,1.116-4.312,18.289,18.289,0,0,0,.338-4.378c-.028-.748.178-1.483.1-2.227-.13-1.165-.181-2.337-.269-3.5a14.98,14.98,0,0,0-.439-2.584,29.466,29.466,0,0,0-.988-3.492c-.368-.938-.718-1.891-1.056-2.843-.14-.391-.438-.652-.572-1.018a7.462,7.462,0,0,0-.718-1.55c-.525-.812-.952-1.694-1.516-2.476-.308-.417-.451-1.036-1.071-1.172-.137-.4-.253-.807-.726-.933a.719.719,0,0,0-.205-.453,26.061,26.061,0,0,0-2-2.3c-.506-.481-1.077-.89-1.555-1.406-.118-.128-.285-.089-.433-.115-.009-.323-.237-.471-.465-.635-.885-.625-1.777-1.251-2.645-1.9a6.029,6.029,0,0,0-1.813-.9c.01-.236-.144-.313-.328-.4-.493-.225-.968-.493-1.467-.7a2.94,2.94,0,0,0-1.476-.477.579.579,0,0,0-.421-.409,26.066,26.066,0,0,0-3.036-.988c-1.291-.254-2.543-.672-3.863-.812-1.3-.138-2.595-.281-3.9-.373a44.782,44.782,0,0,0-6.945.526.3.3,0,0,0-.148.035c-.707.521-1.6.343-2.374.669-.943.4-1.968.585-2.912,1-1.012.445-2,.938-3.035,1.331-.694.263-1.157.874-1.845,1.123-.035.013-.034.127-.049.195-.211.036-.434.054-.513.313a2.212,2.212,0,0,0-1.64,1.147,4.779,4.779,0,0,0-1.935,1.331.933.933,0,0,0-.117.334.743.743,0,0,0-.615.292c-.615.655-1.277,1.251-1.9,1.9a2.323,2.323,0,0,0-.655,1.042l-.1.1a1.721,1.721,0,0,0-1.025,1.251c-.083.017-.214.006-.241.055-.325.591-.992.916-1.194,1.6a2.125,2.125,0,0,1-.241.513c-.507.806-1.013,1.612-1.445,2.462a6.565,6.565,0,0,0-.983,2.449.822.822,0,0,0-.565.741c-.154.978-.6,1.861-.843,2.815-.33,1.275-.664,2.557-.891,3.845a23.313,23.313,0,0,0-.35,4.17c.007,1.316,0,2.63.087,3.946a28.739,28.739,0,0,0,.366,3.084,47.246,47.246,0,0,0,1.4,5.221,6.256,6.256,0,0,0,.591,1.573,15.434,15.434,0,0,1,.718,1.408,7.216,7.216,0,0,0,1.108,2.116,1.538,1.538,0,0,1,.4.715c.174.7.82,1.065,1.128,1.668.03.058.151.068.231.1-.087.357.308.5.345.812a.486.486,0,0,0,.582.436l.1.1c.034.289.027.614.291.793a6.019,6.019,0,0,1,1.268,1.319c.548.694,1.23,1.251,1.833,1.889A8.49,8.49,0,0,0,181.5,88.87c.385.243.63.794,1.208.7C182.753,89.807,182.92,89.871,183.127,89.881Z" transform="translate(-168.176 -29.919)" fill="#188526"/>
    <path id="Path_11167" data-name="Path 11167" d="M765.37,404.984a1.23,1.23,0,0,1,.326-1.042,3.057,3.057,0,0,0,.593-1.245,1.671,1.671,0,0,1,.266-.6,8.406,8.406,0,0,0,1.187-2.753c.164-.593.476-1.138.628-1.741.329-1.291.675-2.576.892-3.894a2.454,2.454,0,0,1,.4-1.345v.73c-.2.95-.393,1.9-.615,2.849a32.5,32.5,0,0,1-3.557,8.893A1.48,1.48,0,0,1,765.37,404.984Z" transform="translate(-703.966 -354.401)" fill="#2d7c38"/>
    <path id="Path_11168" data-name="Path 11168" d="M779.4,216.6a2.857,2.857,0,0,1-.508-1.5,28.818,28.818,0,0,0-.662-2.912,41.321,41.321,0,0,0-1.526-4.358c-.205-.472-.615-.858-.477-1.444a26.356,26.356,0,0,1,1.948,4.763,30.75,30.75,0,0,1,1.155,4.975c0,.024.047.042.073.063Z" transform="translate(-713.702 -187.808)" fill="#2d7c38"/>
    <path id="Path_11169" data-name="Path 11169" d="M183.165,71.27c0,.313-.235.439-.454.57a25.392,25.392,0,0,0-2.983,2.014,28.77,28.77,0,0,0-3.461,3.115c-.481.538-.977,1.087-1.461,1.621a15.334,15.334,0,0,0-1.68,2.113,32.739,32.739,0,0,0-2.032,3.105c-.574,1.2-1.168,2.4-1.7,3.62-.477,1.1-.859,2.238-1.23,3.365a22.823,22.823,0,0,0-.994,4.527c-.121,1.063-.125,2.139-.3,3.191a27.008,27.008,0,0,0,.146,5.431,22.05,22.05,0,0,0,.672,4.108,28.286,28.286,0,0,0,1.417,4.608,16.962,16.962,0,0,0,1.364,2.908c.643.967,1.134,2.036,1.743,3.031.41.678.913,1.3,1.356,1.957.332.494.728.938,1.1,1.4s.765.865,1.153,1.293a10.121,10.121,0,0,1,1.36,1.375.838.838,0,0,0,.4.313.567.567,0,0,1,.363.665,25.151,25.151,0,0,1-3.5-3.557,33.274,33.274,0,0,1-6.5-12.183,35.819,35.819,0,0,1-1.291-7.447,31.873,31.873,0,0,1,.235-6.642,33.588,33.588,0,0,1,15.778-24.237C182.827,71.433,183,71.355,183.165,71.27Z" transform="translate(-166.578 -66.783)" fill="#2d7c38"/>
    <path id="Path_11170" data-name="Path 11170" d="M333.41,631.142c.615-.147,1.031.328,1.5.555.8.388,1.634.674,2.424,1.065a30.3,30.3,0,0,0,4.036,1.336,20.328,20.328,0,0,0,3.778.73,27.962,27.962,0,0,0,4.679.276,39.317,39.317,0,0,0,5.007-.5,24.884,24.884,0,0,0,2.832-.608,6.454,6.454,0,0,0,1.726-.557,11.63,11.63,0,0,1,1.454-.437c.726-.313,1.456-.609,2.176-.93a1.313,1.313,0,0,1,.646-.1,26.13,26.13,0,0,1-5.3,2.085,32.572,32.572,0,0,1-24.846-2.815A.583.583,0,0,1,333.41,631.142Z" transform="translate(-316.307 -568.266)" fill="#2d7c38"/>
    <path id="Path_11171" data-name="Path 11171" d="M371.717,32.073a3.021,3.021,0,0,1-1.571-.521c-.61-.313-1.256-.532-1.86-.834-.848-.417-1.773-.546-2.635-.9a16.668,16.668,0,0,0-2.35-.625,30.218,30.218,0,0,0-9.045-.7,25.2,25.2,0,0,0-4.225.6,48.862,48.862,0,0,0-6,1.793,22.329,22.329,0,0,0-2.073.968.919.919,0,0,1-.635.134,26.239,26.239,0,0,1,5.346-2.26,32.526,32.526,0,0,1,24.879,2.231A1.369,1.369,0,0,1,371.717,32.073Z" transform="translate(-323.415 -28.224)" fill="#2d7c38"/>
    <path id="Path_11172" data-name="Path 11172" d="M628.488,582.8c-.012-.186.015-.346.222-.417a16.136,16.136,0,0,0,3.6-2.085,27.538,27.538,0,0,0,4.644-3.82.605.605,0,0,1,.588-.243,29.963,29.963,0,0,1-6.129,4.973A18.166,18.166,0,0,1,628.488,582.8Z" transform="translate(-581.134 -519.098)" fill="#2d7c38"/>
    <path id="Path_11173" data-name="Path 11173" d="M645.857,71.3c-.284.092-.425.128-.626-.265a4.537,4.537,0,0,0-1.212-1.236c-.841-.7-1.709-1.361-2.576-2.025-.718-.548-1.49-1.016-2.24-1.515-.429-.285-.9-.469-1.325-.759-.137-.094-.253-.177-.2-.368a27.048,27.048,0,0,1,4.643,2.966A25.593,25.593,0,0,1,645.857,71.3Z" transform="translate(-589.369 -61.283)" fill="#2d7c38"/>
    <path id="Path_11174" data-name="Path 11174" d="M717.456,519.806a.589.589,0,0,1,.182-.568,13.439,13.439,0,0,0,2.273-2.606,28.922,28.922,0,0,0,2.1-3.055c.089-.168.156-.305.37-.255a26,26,0,0,1-2.826,4.16A17.608,17.608,0,0,1,717.456,519.806Z" transform="translate(-660.97 -462.742)" fill="#2d7c38"/>
    <path id="Path_11175" data-name="Path 11175" d="M277.46,592.278a.7.7,0,0,1,.593.215,21.689,21.689,0,0,0,3.832,2.747c.426.22.793.6,1.242.827.1.052.078.181.072.285a27.282,27.282,0,0,1-4.511-3A8.608,8.608,0,0,1,277.46,592.278Z" transform="translate(-266.093 -533.471)" fill="#2d7c38"/>
    <path id="Path_11176" data-name="Path 11176" d="M751.309,165.157c-.222-.006-.249-.208-.331-.349-.557-.983-1.2-1.914-1.743-2.9-.279-.5-.884-.854-.79-1.552A25.2,25.2,0,0,1,751.309,165.157Z" transform="translate(-688.787 -146.585)" fill="#2d7c38"/>
    <path id="Path_11177" data-name="Path 11177" d="M720.686,128.035c-.146-.009-.285.033-.41-.128-.513-.661-1.074-1.28-1.55-1.964-.314-.453-.754-.771-1.082-1.2a.606.606,0,0,1-.129-.469,23.831,23.831,0,0,1,3.171,3.765Z" transform="translate(-661.03 -114.258)" fill="#2d7c38"/>
    <path id="Path_11178" data-name="Path 11178" d="M329.7,64.25a1.2,1.2,0,0,1-1.333.736A5.254,5.254,0,0,1,329.7,64.25Z" transform="translate(-311.784 -60.494)" fill="#2d7c38"/>
    <path id="Path_11179" data-name="Path 11179" d="M733.236,162.26c.62.136.768.752,1.071,1.172.564.782.991,1.668,1.516,2.476a7.67,7.67,0,0,1,.718,1.55c.134.367.432.625.572,1.018.34.952.688,1.9,1.056,2.843a29.478,29.478,0,0,1,.988,3.492,14.974,14.974,0,0,1,.439,2.584c.087,1.168.138,2.339.269,3.5.083.743-.123,1.478-.1,2.227a18.3,18.3,0,0,1-.338,4.378,34.59,34.59,0,0,1-1.116,4.312c-.283.813-.488,1.687-.845,2.451a18.64,18.64,0,0,1-.958,2.15c-.39.625-.741,1.3-1.083,1.963a11.318,11.318,0,0,1-1.1,1.713,6.988,6.988,0,0,1-.669,1.014,1,1,0,0,1-.425.263l-.042-.038a.945.945,0,0,1,.085-.185,32.553,32.553,0,0,0,2.953-33.936,39.433,39.433,0,0,0-3.022-4.926Z" transform="translate(-675.104 -148.287)" fill="#2d7c38"/>
    <path id="Path_11180" data-name="Path 11180" d="M184.643,259.64c-.079-.032-.2-.042-.23-.1-.308-.6-.957-.973-1.128-1.668a1.538,1.538,0,0,0-.4-.715,7.214,7.214,0,0,1-1.108-2.116,15.792,15.792,0,0,0-.718-1.408,6.4,6.4,0,0,1-.592-1.573,46.3,46.3,0,0,1-1.4-5.221,28.747,28.747,0,0,1-.367-3.078c-.084-1.316-.08-2.63-.087-3.946a23.309,23.309,0,0,1,.35-4.17c.227-1.287.561-2.57.891-3.845.246-.95.689-1.833.843-2.815a.815.815,0,0,1,.565-.741l.039.033a.666.666,0,0,1-.03.152,31.5,31.5,0,0,0-2.422,10.435,32.434,32.434,0,0,0,.168,5.865,32.764,32.764,0,0,0,3.007,10.329,40.873,40.873,0,0,0,2.657,4.55Z" transform="translate(-177.382 -207.389)" fill="#2d7c38"/>
    <path id="Path_11181" data-name="Path 11181" d="M327.39,44.077c.015-.068.014-.182.049-.195.688-.249,1.151-.86,1.845-1.123,1.031-.391,2.024-.886,3.035-1.331.944-.417,1.969-.6,2.912-1,.773-.326,1.667-.149,2.374-.669a.3.3,0,0,1,.148-.035A44.781,44.781,0,0,1,344.7,39.2c1.3.092,2.6.236,3.9.373,1.319.14,2.572.558,3.863.812a26.058,26.058,0,0,1,3.036.988.579.579,0,0,1,.421.409l-.025.03a1.866,1.866,0,0,1-.242-.062,31.117,31.117,0,0,0-16.473-1.929,31.811,31.811,0,0,0-6.774,1.819,38.432,38.432,0,0,0-4.979,2.477Z" transform="translate(-310.904 -38.023)" fill="#2d7c38"/>
    <path id="Path_11182" data-name="Path 11182" d="M424.3,606.088a.773.773,0,0,1-.41.5c-.789.472-1.6.911-2.394,1.371a27.2,27.2,0,0,1-3.186,1.471,14.705,14.705,0,0,1-3.178,1.042c-.526.091-1.044.279-1.569.417a32.631,32.631,0,0,1-3.518.5,25.849,25.849,0,0,1-4.172.208c-1.444-.032-2.87-.285-4.3-.448a16.838,16.838,0,0,1-3.082-.625c-.354-.111-.848-.008-1.066-.471l.026-.031a2.153,2.153,0,0,1,.3.048,28.817,28.817,0,0,0,6.036,1.195,32.073,32.073,0,0,0,6.534-.078,31.655,31.655,0,0,0,7.025-1.637,33.083,33.083,0,0,0,6.927-3.5Z" transform="translate(-373.764 -545.815)" fill="#2d7c38"/>
    <path id="Path_11183" data-name="Path 11183" d="M253.671,548.261c-.577.095-.82-.457-1.208-.7a8.491,8.491,0,0,1-1.651-1.346c-.6-.641-1.285-1.195-1.833-1.889a5.926,5.926,0,0,0-1.268-1.319c-.264-.179-.257-.5-.291-.793l.028-.025c.806.909,1.582,1.845,2.436,2.71a44.453,44.453,0,0,0,3.822,3.324Z" transform="translate(-239.132 -488.612)" fill="#2d7c38"/>
    <path id="Path_11184" data-name="Path 11184" d="M204.41,167.412a6.565,6.565,0,0,1,.983-2.449c.433-.851.938-1.656,1.445-2.462a2.122,2.122,0,0,0,.241-.513c.205-.687.869-1.012,1.194-1.6.027-.049.158-.039.241-.055l.04.038a37.088,37.088,0,0,0-4.106,7.078Z" transform="translate(-200.532 -146.559)" fill="#2d7c38"/>
    <path id="Path_11185" data-name="Path 11185" d="M637.174,79.37a6.028,6.028,0,0,1,1.814.9c.868.647,1.76,1.271,2.645,1.9.229.164.456.313.465.635l-.031.032a42.209,42.209,0,0,0-4.937-3.415Z" transform="translate(-588.891 -74.038)" fill="#2d7c38"/>
    <path id="Path_11186" data-name="Path 11186" d="M685.276,112.3c.148.026.315-.014.433.115.478.516,1.049.926,1.555,1.406a26.081,26.081,0,0,1,2,2.3.655.655,0,0,1,.205.453l-.037.035a43.241,43.241,0,0,0-4.194-4.274Z" transform="translate(-632.07 -103.535)" fill="#2d7c38"/>
    <path id="Path_11187" data-name="Path 11187" d="M354.369,627.031a12.258,12.258,0,0,1-3.289-1.058c-.46-.155-.884-.424-1.333-.618-.158-.068-.267-.142-.288-.313L349.5,625a50.4,50.4,0,0,0,4.9,2Z" transform="translate(-330.712 -562.789)" fill="#2d7c38"/>
    <path id="Path_11188" data-name="Path 11188" d="M255.41,119.55a2.284,2.284,0,0,1,.656-1.042c.624-.642,1.29-1.242,1.9-1.9a.754.754,0,0,1,.615-.292l.032.032c-1.1,1.036-2.169,2.1-3.178,3.225Z" transform="translate(-246.303 -107.135)" fill="#2d7c38"/>
    <path id="Path_11189" data-name="Path 11189" d="M605.435,64.178a2.94,2.94,0,0,1,1.476.477c.5.208.974.474,1.467.7.185.083.338.164.328.4l-.044.05-3.252-1.6Z" transform="translate(-560.423 -60.422)" fill="#2d7c38"/>
    <path id="Path_11190" data-name="Path 11190" d="M321.476,608.826a5.335,5.335,0,0,1-2.12-.991c-.357-.2-.785-.335-.956-.78l.039-.045,3.053,1.8Z" transform="translate(-302.836 -546.675)" fill="#2d7c38"/>
    <path id="Path_11191" data-name="Path 11191" d="M699.756,556.129c-.243.428-.325.922-.865,1.2-.388.2-.633.7-1.095.87l-.076-.073,2-2.035A.46.46,0,0,1,699.756,556.129Z" transform="translate(-643.27 -501.063)" fill="#2d7c38"/>
    <path id="Path_11192" data-name="Path 11192" d="M286.39,101.995a.936.936,0,0,1,.117-.334,4.779,4.779,0,0,1,1.935-1.331l.036.038-2.056,1.66Z" transform="translate(-274.108 -92.813)" fill="#2d7c38"/>
    <path id="Path_11193" data-name="Path 11193" d="M718.87,537.126a.757.757,0,0,1-.232.544c-.308.383-.615.767-.905,1.169a.553.553,0,0,1-.5.27.468.468,0,0,0-.04-.039l1.64-1.981Z" transform="translate(-660.744 -484.043)" fill="#2d7c38"/>
    <path id="Path_11194" data-name="Path 11194" d="M680.42,575.683a3.945,3.945,0,0,1-2.039,1.681l-.022-.025,1.985-1.729Z" transform="translate(-625.895 -518.548)" fill="#2d7c38"/>
    <path id="Path_11195" data-name="Path 11195" d="M306.41,90.477a2.2,2.2,0,0,1,1.64-1.147c.013.015.027.028.039.043l-1.64,1.147Z" transform="translate(-292.075 -82.96)" fill="#2d7c38"/>
    <path id="Path_11196" data-name="Path 11196" d="M238.231,530.42a.483.483,0,0,1-.582-.436c-.042-.32-.433-.456-.346-.812l.036-.032.923,1.251Z" transform="translate(-230.04 -476.922)" fill="#2d7c38"/>
    <path id="Path_11197" data-name="Path 11197" d="M244.45,149.581a1.714,1.714,0,0,1,1.025-1.251l.028.029q-.505.625-1.013,1.261Z" transform="translate(-236.467 -135.81)" fill="#2d7c38"/>
    <path id="Path_11198" data-name="Path 11198" d="M660.3,599.109a1.113,1.113,0,0,1-1.025.73l-.035-.039,1.025-.73Z" transform="translate(-608.735 -539.562)" fill="#2d7c38"/>
    <path id="Path_11199" data-name="Path 11199" d="M726.237,153.31c.473.126.588.538.726.933l-.032.027a5.146,5.146,0,0,1-.731-.925Z" transform="translate(-668.831 -140.27)" fill="#2d7c38"/>
    <path id="Path_11200" data-name="Path 11200" d="M670.112,593.112c-.093.451-.443.559-.82.631l-.032-.038a3.635,3.635,0,0,1,.82-.625Z" transform="translate(-617.728 -534.197)" fill="#2d7c38"/>
    <path id="Path_11201" data-name="Path 11201" d="M313.015,603.472c-.263-.05-.537-.086-.615-.417.012-.016.026-.03.038-.045a1.6,1.6,0,0,1,.615.417Z" transform="translate(-297.451 -543.092)" fill="#2d7c38"/>
    <path id="Path_11202" data-name="Path 11202" d="M322.4,86.633c.078-.261.3-.278.513-.313l.033.038a1.192,1.192,0,0,1-.505.32C322.427,86.661,322.413,86.647,322.4,86.633Z" transform="translate(-306.426 -80.264)" fill="#2d7c38"/>
    <path id="Path_11203" data-name="Path 11203" d="M308.83,600.438c-.205-.01-.374-.074-.41-.313l.034-.035a.769.769,0,0,1,.416.3A.4.4,0,0,0,308.83,600.438Z" transform="translate(-293.879 -540.476)" fill="#2d7c38"/>
    <path id="Path_11204" data-name="Path 11204" d="M246.567,541.248l-.1-.1.033-.033.092.114Z" transform="translate(-238.28 -487.644)" fill="#2d7c38"/>
    <path id="Path_11205" data-name="Path 11205" d="M254.45,147.414l.1-.1.027.024-.1.1Z" transform="translate(-245.442 -134.896)" fill="#2d7c38"/>
    <path id="Path_11206" data-name="Path 11206" d="M677.412,592.225l-.1.1-.03-.029.111-.095Z" transform="translate(-624.926 -533.409)" fill="#2d7c38"/>
    <path id="Path_11207" data-name="Path 11207" d="M348.552,624.365l-.1-.1.015-.019.13.073Z" transform="translate(-329.805 -562.117)" fill="#2d7c38"/>
    <path id="Path_11208" data-name="Path 11208" d="M197.665,102.713l-.13-.073-3.053-1.8a1.6,1.6,0,0,0-.615-.417.769.769,0,0,0-.416-.3,44.48,44.48,0,0,1-3.822-3.324c-.854-.865-1.63-1.8-2.436-2.71l-.092-.114-.923-1.251a40.865,40.865,0,0,1-2.657-4.55,32.763,32.763,0,0,1-3.007-10.329,32.435,32.435,0,0,1-.168-5.865,31.5,31.5,0,0,1,2.422-10.435.666.666,0,0,0,.03-.152,37.085,37.085,0,0,1,4.106-7.078q.507-.625,1.013-1.261l.1-.1c1.012-1.125,2.083-2.189,3.178-3.225l2.056-1.66,1.64-1.147a1.193,1.193,0,0,0,.505-.32,38.163,38.163,0,0,1,4.979-2.477,31.812,31.812,0,0,1,6.774-1.819,31.117,31.117,0,0,1,16.476,1.938,1.872,1.872,0,0,0,.242.062l3.252,1.6a42.2,42.2,0,0,1,4.937,3.415,43.234,43.234,0,0,1,4.194,4.274,5.151,5.151,0,0,0,.731.925A39.437,39.437,0,0,1,240,59.429a32.551,32.551,0,0,1-2.953,33.935.947.947,0,0,0-.085.185l-1.64,1.981-2,2.035-1.983,1.73-.111.095a3.637,3.637,0,0,0-.82.625l-1.025.73a33.343,33.343,0,0,1-6.927,3.5,31.656,31.656,0,0,1-7.025,1.637,32.067,32.067,0,0,1-6.534.078,28.81,28.81,0,0,1-6.036-1.195,2.172,2.172,0,0,0-.3-.048A50.429,50.429,0,0,1,197.665,102.713ZM183.8,61.878l-.132.333-.052.133-.061.18-.059.1a2,2,0,0,1-.064.248,30.5,30.5,0,0,0-1.979,9.278,31.307,31.307,0,0,0,1.066,10.173,30.772,30.772,0,0,0,11.088,16.459,29.3,29.3,0,0,0,9.478,4.872,28.587,28.587,0,0,0,7.469,1.26,22.865,22.865,0,0,0,2.45,0c.153,0,.308.017.457.006a25.927,25.927,0,0,0,4.5-.625,6.367,6.367,0,0,0,1.415-.4.216.216,0,0,0,.085-.02,1.345,1.345,0,0,0,1.047-.29.146.146,0,0,0,.08-.023,9.85,9.85,0,0,0,2.094-.619,26.567,26.567,0,0,0,3.882-1.825A30.507,30.507,0,0,0,238.5,89.035a19.964,19.964,0,0,0,1.791-4h-.005a12.87,12.87,0,0,0,.873-2.518,30.445,30.445,0,0,0,1.15-7.4V73.03a1.744,1.744,0,0,0,.014-.208,32.645,32.645,0,0,0-.858-6.189,25.927,25.927,0,0,0-1.913-5.49c0-.082,0-.163-.09-.208-.075-.192-.137-.391-.228-.575a31.242,31.242,0,0,0-4.93-7.306,13.447,13.447,0,0,0-2.216-2.141h0a17.123,17.123,0,0,0-3.28-2.606h0a23.223,23.223,0,0,0-4.05-2.341,28.962,28.962,0,0,0-9.417-2.7,27.356,27.356,0,0,0-4.641-.174c-1.2.072-2.394.171-3.578.357a3.288,3.288,0,0,0-1.6.406l-.191.01c-.036-.078-.075-.109-.121-.006h0a5.231,5.231,0,0,0-1.339.3,30.072,30.072,0,0,0-16.092,10.921,14.629,14.629,0,0,0-1.64,2.431h0a23.446,23.446,0,0,0-2.282,4.29Z" transform="translate(-178.879 -40.502)" fill="#f6f8f0"/>
    <path id="Path_11209" data-name="Path 11209" d="M251.38,72.309c.087.043.091.123.09.208-.221.308-.031.568.129.793a1.625,1.625,0,0,1,.257.558,21.434,21.434,0,0,0,.809,2.539,23.706,23.706,0,0,1,1.05,4.548c.147.811.183,1.643.25,2.467a23.818,23.818,0,0,1-.007,4.25c-.108,1.1-.251,2.189-.45,3.274s-.478,2.145-.741,3.213A8.105,8.105,0,0,0,252.2,96.4h.005c-.559,0-.338.48-.47.752-.624,1.3-1.222,2.612-1.925,3.865-.5.9-1.151,1.722-1.729,2.578a24.818,24.818,0,0,1-2.607,3.081c-.655.7-1.369,1.346-2.076,1.994-.8.73-1.678,1.324-2.511,1.989-.7.559-1.524.938-2.273,1.435a9.248,9.248,0,0,1-1.379.8,24.732,24.732,0,0,1-3.793,1.519,1.67,1.67,0,0,0-.936.513.146.146,0,0,1-.08.023c-.371.013-.781-.118-1.047.29a.216.216,0,0,1-.085.02,3.216,3.216,0,0,0-1.063.1,28.469,28.469,0,0,1-6.039.721,29.268,29.268,0,0,1-3.869-.208,20.638,20.638,0,0,1-2.414-.353c-.972-.208-1.921-.531-2.887-.778a25.545,25.545,0,0,1-2.768-.973,21.432,21.432,0,0,1-2.382-1.135c-.742-.4-1.461-.839-2.17-1.295-.564-.362-1.067-.875-1.612-1.189a22.156,22.156,0,0,1-1.8-1.375,23.126,23.126,0,0,1-2.909-2.83,10.939,10.939,0,0,1-1.164-1.367,21.588,21.588,0,0,1-1.794-2.613c-.273-.548-.718-1.05-1-1.614a39.44,39.44,0,0,1-2.288-5.223c-.285-.862-.536-1.73-.738-2.606a22.64,22.64,0,0,1-.609-3.758c-.046-.769-.215-1.537-.221-2.314a33.235,33.235,0,0,1,.19-4.459,37.176,37.176,0,0,1,1-5.221,11.2,11.2,0,0,0,.768-2.772c.393-.146.471-.547.572-.861a21.533,21.533,0,0,1,1.8-3.594,1.1,1.1,0,0,0,.164-.677h0c.266.05.41-.1.527-.313a23.615,23.615,0,0,1,3.771-4.8,20.877,20.877,0,0,1,2.965-2.679c1-.73,2-1.459,3.06-2.1.912-.548,1.856-1.033,2.8-1.5a21.623,21.623,0,0,1,2.87-1.17,8.033,8.033,0,0,1,2.434-.693.591.591,0,0,0,.644-.394h0l.121.006.191-.01c.084.132.193.093.316.066a31.428,31.428,0,0,1,6.085-.663c.879-.017,1.759.152,2.64.185a30.129,30.129,0,0,1,4.6.783c.506.1.951.367,1.443.458a8.4,8.4,0,0,1,1.623.5,31.318,31.318,0,0,1,3.1,1.387,21.065,21.065,0,0,1,2.419,1.385c.3.218.6.537,1.043.383h0a1.042,1.042,0,0,0,.513.776,6.9,6.9,0,0,1,2.107,1.555.637.637,0,0,0,.665.274h0a.469.469,0,0,0,.213.529,16.14,16.14,0,0,1,2.171,2.2,23.291,23.291,0,0,1,2.171,2.843c.421.66.831,1.331,1.272,1.981a21.085,21.085,0,0,1,1.151,2.226C251.075,72.229,251.177,72.341,251.38,72.309ZM244.9,64.82l-.1-.112h0c-.122-.433-.308-.8-.82-.834h0l-.089-.116-.226-.174a.583.583,0,0,0-.589-.569c-.034-.033-.068-.068-.1-.1l-.1-.1c-.011-.406-.271-.516-.615-.53-.063-.121-.1-.293-.194-.352-.572-.34-1.009-.878-1.592-1.179-.471-.244-.775-.807-1.393-.759a2.475,2.475,0,0,0-1.163-.854,4.528,4.528,0,0,0-2.12-.912,4.416,4.416,0,0,0-2.358-.938,4.391,4.391,0,0,0-2.012-.777,27.631,27.631,0,0,0-3.691-.706,38.163,38.163,0,0,0-5.013-.27,1.114,1.114,0,0,0-.674.195l-.395.014a1.629,1.629,0,0,0-1.648.2h-.1a2.69,2.69,0,0,0-1.743.078c-1.133.278-2.263.567-3.383.922a29.221,29.221,0,0,0-3.517,1.355,27.649,27.649,0,0,0-4.141,2.423c-.315.221-.867.263-.87.841-.446-.021-.658.269-.82.633-.205.015-.373.076-.41.313a.484.484,0,0,0-.506.423.414.414,0,0,0-.332.1,28.857,28.857,0,0,0-2.644,2.759c-.252.353-.639.62-.718,1.092-.291-.008-.3.208-.314.417-.5.057-.465.514-.609.834a2.708,2.708,0,0,0-1.128,1.772.379.379,0,0,0-.28.208c-.436.816-.935,1.6-1.3,2.451a40.144,40.144,0,0,0-1.834,5.034,35.65,35.65,0,0,0-.855,4.618,32,32,0,0,0-.122,3.892,33.029,33.029,0,0,0,.293,3.767c.089.988.384,1.926.559,2.893a11.766,11.766,0,0,0,.591,2.064c.513,1.346,1.043,2.687,1.629,4.005a31.494,31.494,0,0,0,1.882,3.291,22.12,22.12,0,0,0,1.333,1.813c.183.242.205.591.513.748a2.361,2.361,0,0,1,.85.812,12.7,12.7,0,0,0,2.255,2.293,27.425,27.425,0,0,0,3.921,2.941c.524.313,1.041.647,1.573.938a22.7,22.7,0,0,0,5.077,2.175c1.025.272,2.037.614,3.068.843a24.092,24.092,0,0,0,4.647.538,27.187,27.187,0,0,0,6.981-.578c1.208-.286,2.416-.561,3.6-.938a23.131,23.131,0,0,0,3.531-1.459c.862-.445,1.686-.956,2.537-1.408.46-.245.844-.6,1.316-.834.369-.183.923-.417,1.019-.994a4.146,4.146,0,0,0,1.912-1.362c.727-.7,1.463-1.4,2.136-2.171.526-.6.963-1.28,1.538-1.831a.668.668,0,0,0,.141-.483.461.461,0,0,0,.589-.463.9.9,0,0,1,.189-.417c.463-.713.923-1.429,1.359-2.158.315-.526.559-1.092.832-1.642a24.516,24.516,0,0,0,1.592-4,27.259,27.259,0,0,0,1.038-4.5c.133-1.13.318-2.254.339-3.4a37.78,37.78,0,0,0-.286-5.38,36.733,36.733,0,0,0-.811-4,20.368,20.368,0,0,0-1.575-4.295c-.532-1.075-1.015-2.177-1.645-3.2-.172-.278-.28-.674-.68-.769a1.671,1.671,0,0,0-.839-1.236,2.855,2.855,0,0,0-1.36-1.639h0c.082-.34-.054-.478-.389-.435h0c.022-.313-.027-.568-.433-.5h.009l-.109-.116.008.008L245,64.924l.007.007-.1-.118Z" transform="translate(-190.797 -51.858)" fill="#e26727"/>
    <path id="Path_11210" data-name="Path 11210" d="M193.394,240.255a11.2,11.2,0,0,1-.768,2.772,37.179,37.179,0,0,0-1,5.221,33.412,33.412,0,0,0-.19,4.459c.006.778.175,1.545.221,2.314a22.645,22.645,0,0,0,.609,3.758c.205.877.453,1.745.738,2.606a39.44,39.44,0,0,0,2.288,5.223c.282.564.729,1.065,1,1.614a21.581,21.581,0,0,0,1.794,2.613,10.933,10.933,0,0,0,1.164,1.366,22.812,22.812,0,0,0,2.907,2.821,22.1,22.1,0,0,0,1.8,1.375c.544.313,1.048.828,1.612,1.189.709.456,1.428.9,2.17,1.295a21.423,21.423,0,0,0,2.382,1.138,24.858,24.858,0,0,0,2.768.973c.951.243,1.915.564,2.887.778a20.641,20.641,0,0,0,2.414.353,27.915,27.915,0,0,0,3.869.208,28.473,28.473,0,0,0,6.039-.721,3.215,3.215,0,0,1,1.063-.1,6.365,6.365,0,0,1-1.415.4,26.236,26.236,0,0,1-4.5.625,4.172,4.172,0,0,1-.457-.006,6.815,6.815,0,0,0-2.45,0,28.588,28.588,0,0,1-7.469-1.264,29.3,29.3,0,0,1-9.478-4.87A30.772,30.772,0,0,1,192.3,259.94a31.315,31.315,0,0,1-1.066-10.173,30.5,30.5,0,0,1,1.979-9.278,2,2,0,0,0,.064-.248l.077-.021Z" transform="translate(-188.664 -218.121)" fill="#c37044"/>
    <path id="Path_11211" data-name="Path 11211" d="M573.44,473.966a1.669,1.669,0,0,1,.936-.513,24.362,24.362,0,0,0,3.793-1.519,9.253,9.253,0,0,0,1.377-.8c.748-.492,1.573-.877,2.273-1.435.832-.665,1.715-1.259,2.511-1.989.707-.648,1.421-1.3,2.076-1.994a24.3,24.3,0,0,0,2.607-3.081c.578-.856,1.23-1.677,1.729-2.578.7-1.251,1.3-2.568,1.925-3.865.131-.272-.089-.756.47-.752a19.967,19.967,0,0,1-1.791,4,30.642,30.642,0,0,1-11.933,12.077,26.568,26.568,0,0,1-3.882,1.825A9.582,9.582,0,0,1,573.44,473.966Z" transform="translate(-531.731 -410.905)" fill="#c37044"/>
    <path id="Path_11212" data-name="Path 11212" d="M256.474,60.37a.594.594,0,0,1-.644.394,8,8,0,0,0-2.434.693,21.626,21.626,0,0,0-2.87,1.17c-.947.471-1.89.956-2.8,1.5-1.064.639-2.065,1.366-3.06,2.1a20.872,20.872,0,0,0-2.965,2.679,23.558,23.558,0,0,0-3.772,4.8c-.113.215-.261.365-.527.313a14.144,14.144,0,0,1,1.64-2.431,30.075,30.075,0,0,1,16.095-10.923A5.143,5.143,0,0,1,256.474,60.37Z" transform="translate(-230.14 -57.019)" fill="#c37044"/>
    <path id="Path_11213" data-name="Path 11213" d="M449.754,57.988c-.446.154-.741-.165-1.043-.383a22.305,22.305,0,0,0-2.419-1.385,31,31,0,0,0-3.1-1.387,8.4,8.4,0,0,0-1.623-.5c-.492-.091-.937-.36-1.443-.458a30.153,30.153,0,0,0-4.6-.783c-.881-.032-1.761-.2-2.64-.185a31.429,31.429,0,0,0-6.1.665c-.123.027-.232.067-.316-.066a3.287,3.287,0,0,1,1.6-.406c1.184-.186,2.378-.285,3.578-.357a27.36,27.36,0,0,1,4.641.174,28.962,28.962,0,0,1,9.417,2.7A21.742,21.742,0,0,1,449.754,57.988Z" transform="translate(-399.827 -50.159)" fill="#c37044"/>
    <path id="Path_11214" data-name="Path 11214" d="M758.281,250.252a8.1,8.1,0,0,1,.566-2.239c.263-1.067.542-2.133.741-3.213s.342-2.178.45-3.274a23.841,23.841,0,0,0,.007-4.25c-.067-.825-.1-1.656-.25-2.467a23.72,23.72,0,0,0-1.05-4.548,21.443,21.443,0,0,1-.809-2.539,1.626,1.626,0,0,0-.257-.558c-.16-.225-.351-.486-.129-.793a25.923,25.923,0,0,1,1.913,5.49,32.6,32.6,0,0,1,.858,6.189,1.7,1.7,0,0,1-.014.208,4.639,4.639,0,0,0,0,2.085,30.446,30.446,0,0,1-1.15,7.4A13.019,13.019,0,0,1,758.281,250.252Z" transform="translate(-696.877 -205.714)" fill="#c37044"/>
    <path id="Path_11215" data-name="Path 11215" d="M692.843,138.273c-.2.032-.307-.079-.395-.25A21.1,21.1,0,0,0,691.3,135.8c-.441-.649-.851-1.321-1.272-1.981a23.292,23.292,0,0,0-2.171-2.843,16.2,16.2,0,0,0-2.171-2.2.469.469,0,0,1-.213-.529,13.455,13.455,0,0,1,2.216,2.141,31.248,31.248,0,0,1,4.93,7.307C692.706,137.882,692.768,138.081,692.843,138.273Z" transform="translate(-632.26 -117.823)" fill="#c37044"/>
    <path id="Path_11216" data-name="Path 11216" d="M214.763,191.33a1.1,1.1,0,0,1-.164.677,21.371,21.371,0,0,0-1.8,3.594c-.1.313-.179.715-.572.861l-.038-.038a.15.15,0,0,0-.017-.075l.061-.18.052-.133.132-.333.065-.083A23.375,23.375,0,0,1,214.763,191.33Z" transform="translate(-207.496 -174.327)" fill="#c37044"/>
    <path id="Path_11217" data-name="Path 11217" d="M656.854,105.885a.637.637,0,0,1-.665-.274,6.9,6.9,0,0,0-2.107-1.555,1.053,1.053,0,0,1-.513-.776,17.124,17.124,0,0,1,3.284,2.605Z" transform="translate(-603.646 -95.456)" fill="#c37044"/>
    <path id="Path_11218" data-name="Path 11218" d="M475.55,645.146a6.812,6.812,0,0,1,2.45,0A22.879,22.879,0,0,1,475.55,645.146Z" transform="translate(-443.876 -580.736)" fill="#ae5e37"/>
    <path id="Path_11219" data-name="Path 11219" d="M784.261,342.445a4.638,4.638,0,0,1,0-2.085Z" transform="translate(-720.833 -307.821)" fill="#ae5e37"/>
    <path id="Path_11220" data-name="Path 11220" d="M562.45,633.581c.266-.408.676-.277,1.047-.29A1.333,1.333,0,0,1,562.45,633.581Z" transform="translate(-521.867 -570.207)" fill="#c37044"/>
    <path id="Path_11221" data-name="Path 11221" d="M211.649,239.48a.15.15,0,0,1,.017.075l-.077.021Z" transform="translate(-206.976 -217.458)" fill="#e5e5e5"/>
    <path id="Path_11222" data-name="Path 11222" d="M212.822,236.47l-.052.133Z" transform="translate(-208.035 -214.761)" fill="#e5e5e5"/>
    <path id="Path_11223" data-name="Path 11223" d="M423.551,59.842l-.121-.006C423.476,59.733,423.515,59.764,423.551,59.842Z" transform="translate(-397.099 -56.482)" fill="#c37044"/>
    <path id="Path_11224" data-name="Path 11224" d="M214.635,232.48l-.065.083Z" transform="translate(-209.65 -211.187)" fill="#e5e5e5"/>
    <path id="Path_11225" data-name="Path 11225" d="M248.654,240.332c-.1.576-.65.811-1.019.994-.473.236-.856.591-1.316.834-.851.452-1.675.963-2.537,1.408a23.13,23.13,0,0,1-3.531,1.459c-1.181.378-2.39.654-3.6.938a27.187,27.187,0,0,1-6.981.578,24.093,24.093,0,0,1-4.647-.531c-1.031-.229-2.045-.571-3.068-.843A22.7,22.7,0,0,1,216.88,243c-.532-.292-1.049-.625-1.573-.938a26.618,26.618,0,0,1-3.917-2.949,12.632,12.632,0,0,1-2.255-2.293,2.361,2.361,0,0,0-.85-.812c-.316-.157-.332-.507-.513-.748a20.567,20.567,0,0,1-1.333-1.813,31.49,31.49,0,0,1-1.882-3.291c-.586-1.318-1.117-2.659-1.629-4.005a11.769,11.769,0,0,1-.592-2.064c-.174-.966-.47-1.9-.559-2.893a33.033,33.033,0,0,1-.293-3.767,32,32,0,0,1,.122-3.892,35.641,35.641,0,0,1,.855-4.618,40.141,40.141,0,0,1,1.837-5.041c.369-.853.868-1.635,1.3-2.451a.379.379,0,0,1,.28-.208l.043.038c-.205.376-.415.751-.615,1.129a23.418,23.418,0,0,0-1.783,4.05h.005a5.983,5.983,0,0,0-.476,1.3,25.133,25.133,0,0,0-1.14,5.595l-.03.305a2.442,2.442,0,0,0-.083.944l-.027.2c-.146.341-.018.7-.086,1.052a2.953,2.953,0,0,0,0,1.668,14.911,14.911,0,0,0,.189,2.2l.039.407c.037.411.046.828.115,1.233a30.058,30.058,0,0,0,3.075,9.257,13.614,13.614,0,0,0,1.759,2.83l.049.124a1.549,1.549,0,0,0,.425.612l.083.123a.36.36,0,0,0,.034.1,28.143,28.143,0,0,0,6.643,6.561,11.148,11.148,0,0,0,1.822,1.177V242.1a4.962,4.962,0,0,0,1.446.827h0a23.1,23.1,0,0,0,5.854,2.36l.194.052a25.906,25.906,0,0,0,6.319,1,27.869,27.869,0,0,0,6.55-.506,29.054,29.054,0,0,0,8.419-3.011,42.422,42.422,0,0,0,3.917-2.528Z" transform="translate(-197.904 -183.177)" fill="#c37044"/>
    <path id="Path_11226" data-name="Path 11226" d="M717.947,192.22c.4.095.513.491.68.769.63,1.02,1.113,2.121,1.645,3.2a20.37,20.37,0,0,1,1.575,4.295,36.511,36.511,0,0,1,.811,4,37.772,37.772,0,0,1,.286,5.38,34.116,34.116,0,0,1-.339,3.4,27.257,27.257,0,0,1-1.039,4.5,24.51,24.51,0,0,1-1.585,4c-.274.549-.513,1.115-.832,1.642-.438.73-.9,1.445-1.359,2.158a.9.9,0,0,0-.189.417.46.46,0,0,1-.589.463l-.062-.052.508-.834.016-.027a8.094,8.094,0,0,0,1.025-1.605.475.475,0,0,0,.174-.294,17.64,17.64,0,0,0,1.538-3.023l.1-.208a26.007,26.007,0,0,0,1.575-4.809c.01-.069.022-.138.032-.208a2.1,2.1,0,0,0,.18-.834l.028-.209a12.056,12.056,0,0,0,.4-2.38,25.588,25.588,0,0,0,.1-5.692,21.638,21.638,0,0,0-.582-3.817c-.014-.067-.028-.133-.041-.2.069-.219-.063-.407-.1-.6a22.005,22.005,0,0,0-1.073-3.649,36.141,36.141,0,0,0-2.916-5.741Z" transform="translate(-660.529 -175.124)" fill="#c37044"/>
    <path id="Path_11227" data-name="Path 11227" d="M317.33,71.876c0-.579.557-.625.871-.841a27.647,27.647,0,0,1,4.141-2.423,29.222,29.222,0,0,1,3.517-1.355c1.118-.354,2.248-.643,3.383-.922a2.689,2.689,0,0,1,1.743-.078l.005.038a.328.328,0,0,0-.34.06l-.278.048a2.047,2.047,0,0,0-.929.173.159.159,0,0,0-.1.022,3.951,3.951,0,0,0-1.345.287.128.128,0,0,0-.091.02.306.306,0,0,0-.308.081l-.2.042c-.083-.022-.159-.023-.205.072l-.1.028a.209.209,0,0,0-.222.053v.005a.388.388,0,0,0-.41.222l-.4.033a.209.209,0,0,0-.232.056l-.29.1-.2.055-.112.059h0a3.687,3.687,0,0,0-1.115.417l-.205.053-.078.068-.016.01a.593.593,0,0,0-.435.181.111.111,0,0,0-.081.028,3.649,3.649,0,0,0-1.056.486l-.69.35-.116.076v-.008a1.364,1.364,0,0,0-.594.335l-.115.025c-.068-.02-.084.024-.094.077h0l-.12.09V69.9a.594.594,0,0,0-.392.229l-.1.032a5.03,5.03,0,0,0-1.043.689l-.094.048-.083.06-.116.079a1.77,1.77,0,0,0-.651.458.062.062,0,0,0-.066.054l-.334.235-.266.126Z" transform="translate(-301.876 -62.183)" fill="#c37044"/>
    <path id="Path_11228" data-name="Path 11228" d="M471.4,63.621a1.114,1.114,0,0,1,.677-.195,38.166,38.166,0,0,1,5.031.272,27.633,27.633,0,0,1,3.691.706,4.462,4.462,0,0,1,2.012.777l-.033.041c-.889-.219-1.737-.592-2.646-.73l-.2-.045a14.439,14.439,0,0,0-3.287-.579l-.194-.051c-.522-.054-1.044-.142-1.567-.155C473.717,63.625,472.56,63.631,471.4,63.621Z" transform="translate(-440.151 -59.754)" fill="#c37044"/>
    <path id="Path_11229" data-name="Path 11229" d="M674.09,138.234l.225.174c-.014.074.029.1.089.116h0a3.818,3.818,0,0,0,.82.834h0l.1.112-.007-.006.1.118-.007-.007.111.112-.008-.008.109.116h-.009a1.1,1.1,0,0,0,.433.5h0a1.014,1.014,0,0,0,.388.435h0l.506.754c-.192.091-.259-.067-.368-.174a8.892,8.892,0,0,0-1.391-1.327,2.358,2.358,0,0,1-.395-.373c-.192-.195-.464-.509-.791-.134a5.164,5.164,0,0,1-.85-.834c.445.079.737.035.42-.521-.018-.034.048-.118.075-.178Z" transform="translate(-621.219 -126.503)" fill="#faf6f1"/>
    <path id="Path_11230" data-name="Path 11230" d="M667.1,519.944a.668.668,0,0,1-.141.483c-.58.55-1.017,1.229-1.538,1.831-.673.768-1.41,1.472-2.136,2.171a4.109,4.109,0,0,1-1.912,1.362l-.035-.041c.245-.208.491-.417.735-.631a24.128,24.128,0,0,0,3.4-3.4h0a21.507,21.507,0,0,0,1.572-1.835Z" transform="translate(-610.62 -468.636)" fill="#c37044"/>
    <path id="Path_11231" data-name="Path 11231" d="M457.13,65.32c1.16.009,2.321,0,3.485.035.524.014,1.046.1,1.567.155a.294.294,0,0,1-.258.136,10.742,10.742,0,0,1-3.651-.1h-.41l-1.128.1h-.615c-.205-.036-.446.091-.62-.122.393-.2.85.026,1.239-.193Z" transform="translate(-425.881 -61.453)" fill="#faf6f1"/>
    <path id="Path_11232" data-name="Path 11232" d="M264.41,138.285c.081-.471.467-.738.718-1.091a28.861,28.861,0,0,1,2.644-2.759.459.459,0,0,1,.332-.1l.071.073a17.291,17.291,0,0,0-1.695,1.71l-.109.1-.1.1a.679.679,0,0,0-.308.323.83.83,0,0,0-.345.393l-.079.089a2.553,2.553,0,0,0-.615.746h0l-.344.378-.121.087A.621.621,0,0,1,264.41,138.285Z" transform="translate(-254.381 -123.269)" fill="#c37044"/>
    <path id="Path_11233" data-name="Path 11233" d="M445.615,67.3c.174.208.41.085.62.122,0,.57-.5.569-.831.754l-.578.042c0-.263-.237-.388-.335-.593v-.173l.278-.048.128.027c.029.05.05.139.086.146.108.019.1-.081.119-.156a.284.284,0,0,1,.007-.077l-.005-.038h.1Z" transform="translate(-416 -63.226)" fill="#f8f7f6"/>
    <path id="Path_11234" data-name="Path 11234" d="M605.278,89.32a4.528,4.528,0,0,1,2.12.912c.415.234.906.387,1.163.854l-.038.045-1.135-.6-.042-.014c-.651-.482-1.429-.72-2.106-1.153C605.252,89.348,605.265,89.334,605.278,89.32Z" transform="translate(-560.271 -82.951)" fill="#c37044"/>
    <path id="Path_11235" data-name="Path 11235" d="M637.262,106.235c.615-.048.923.515,1.393.759.583.3,1.02.834,1.592,1.179.1.059.131.231.194.352l-.043.051-3.178-2.293Z" transform="translate(-588.972 -98.1)" fill="#c37044"/>
    <path id="Path_11236" data-name="Path 11236" d="M582.361,80.28a4.417,4.417,0,0,1,2.358.938c-.013.014-.026.028-.038.043l-2.351-.944Z" transform="translate(-539.709 -74.853)" fill="#c37044"/>
    <path id="Path_11237" data-name="Path 11237" d="M244.39,186.042a2.734,2.734,0,0,1,1.128-1.772l.049.044c-.041.1-.081.192-.121.288a.646.646,0,0,0-.244.393h0c-.346.3-.478.751-.775,1.083Z" transform="translate(-236.413 -168.003)" fill="#c37044"/>
    <path id="Path_11238" data-name="Path 11238" d="M705.737,165.394l-.508-.754a2.848,2.848,0,0,1,1.36,1.639l-.066.067a7.268,7.268,0,0,0-.787-.944Z" transform="translate(-650.01 -150.419)" fill="#c37044"/>
    <path id="Path_11239" data-name="Path 11239" d="M451.87,64.529h-.41a1.639,1.639,0,0,1,1.649-.193C452.72,64.555,452.263,64.33,451.87,64.529Z" transform="translate(-422.255 -60.456)" fill="#c37044"/>
    <path id="Path_11240" data-name="Path 11240" d="M717.926,180.36a1.685,1.685,0,0,1,.839,1.236l-.042.035-.862-1.205Z" transform="translate(-661.346 -164.501)" fill="#c37044"/>
    <path id="Path_11241" data-name="Path 11241" d="M309.38,121.823c.158-.363.37-.653.815-.632l.035.038a.518.518,0,0,1-.014.091l-.115.1v-.007a.455.455,0,0,0-.3.223l-.216.177-.173.055Z" transform="translate(-294.741 -111.499)" fill="#c37044"/>
    <path id="Path_11242" data-name="Path 11242" d="M686.18,144.374a3.818,3.818,0,0,1-.82-.834C685.871,143.574,686.058,143.941,686.18,144.374Z" transform="translate(-632.177 -131.519)" fill="#c37044"/>
    <path id="Path_11243" data-name="Path 11243" d="M255.41,177.124c.144-.324.11-.781.609-.834l.042.038-.036.175-.566.669Z" transform="translate(-246.303 -160.855)" fill="#c37044"/>
    <path id="Path_11244" data-name="Path 11244" d="M668.29,128.23c.341.014.6.124.615.53l-.04.038a2.117,2.117,0,0,1-.615-.516Z" transform="translate(-616.821 -117.805)" fill="#c37044"/>
    <path id="Path_11245" data-name="Path 11245" d="M676.926,135.887l-.443-.305h-.011c-.054-.075-.109-.151-.162-.228l.03-.033A.579.579,0,0,1,676.926,135.887Z" transform="translate(-624.055 -124.156)" fill="#c37044"/>
    <path id="Path_11246" data-name="Path 11246" d="M697.653,156.033a1.1,1.1,0,0,1-.433-.5C697.626,155.467,697.674,155.718,697.653,156.033Z" transform="translate(-642.821 -142.252)" fill="#c37044"/>
    <path id="Path_11247" data-name="Path 11247" d="M300.46,130.723a.48.48,0,0,1,.506-.423l.048.053-.335.381h0l-.146.058Z" transform="translate(-286.735 -119.659)" fill="#c37044"/>
    <path id="Path_11248" data-name="Path 11248" d="M701.838,160.8a1.015,1.015,0,0,1-.388-.435C701.784,160.322,701.916,160.462,701.838,160.8Z" transform="translate(-646.618 -146.585)" fill="#c37044"/>
    <path id="Path_11249" data-name="Path 11249" d="M261.35,172.666c.014-.209.023-.422.314-.417l.049.051-.041.167-.1.112-.185.123Z" transform="translate(-251.634 -157.235)" fill="#c37044"/>
    <path id="Path_11250" data-name="Path 11250" d="M305.4,127.613c.035-.24.205-.3.41-.313l.037.043a.965.965,0,0,1-.4.326Z" transform="translate(-291.169 -116.972)" fill="#c37044"/>
    <path id="Path_11251" data-name="Path 11251" d="M674.295,133.31l.1.1-.035.034-.1-.1Z" transform="translate(-622.215 -122.355)" fill="#c37044"/>
    <path id="Path_11252" data-name="Path 11252" d="M696.359,154.666l-.109-.116Z" transform="translate(-641.951 -141.381)" fill="#c37044"/>
    <path id="Path_11253" data-name="Path 11253" d="M695.361,153.672l-.111-.112Z" transform="translate(-641.053 -140.494)" fill="#c37044"/>
    <path id="Path_11254" data-name="Path 11254" d="M694.422,152.618l-.1-.118Z" transform="translate(-640.219 -139.545)" fill="#c37044"/>
    <path id="Path_11255" data-name="Path 11255" d="M693.482,151.6l-.1-.112Z" transform="translate(-639.375 -138.64)" fill="#c37044"/>
    <path id="Path_11256" data-name="Path 11256" d="M684.587,142.546c-.06-.014-.1-.042-.089-.116Z" transform="translate(-631.402 -130.525)" fill="#c37044"/>
    <path id="Path_11257" data-name="Path 11257" d="M675.33,134.32c.033.034.067.069.1.1l-.03.033-.1-.1Z" transform="translate(-623.149 -123.26)" fill="#c37044"/>
    <path id="Path_11258" data-name="Path 11258" d="M415.43,546.158a.272.272,0,0,1,.361-.112,9.214,9.214,0,0,0,2.034.382c.522.132,1.056.222,1.589.3.3.045.615.122.866-.149a.225.225,0,0,1,.41.075c.118.323.345.313.615.313.957-.008,1.912,0,2.87-.006.141,0,.308.061.427-.078-.015-.036-.018-.079-.039-.092-.123-.07-.356-.016-.342-.232.011-.181.223-.1.338-.158.182-.095.359-.052.4.166.043.249.178.34.389.288.731-.181,1.53-.028,2.206-.5a.825.825,0,0,1,.583-.095,3.474,3.474,0,0,0,2.386-.456,4.2,4.2,0,0,1,1.255-.344,4.261,4.261,0,0,0,1.566-.57,1.35,1.35,0,0,1,.733-.264c.559-.015.929-.489,1.346-.817.073-.057.1-.162.224-.171a4.693,4.693,0,0,0,2.762-1.378,2.473,2.473,0,0,1,.718-.465c1.054-.417,1.684-1.395,2.6-1.988.049-.031.039-.158.056-.241h0c.231-.192.866.006.608-.677-.037-.1.241-.136.378-.194.271-.115.639-.147.5-.614-.033-.109.029-.17.137-.132.375.13.549-.148.579-.4.068-.569.4-.543.793-.462a23.934,23.934,0,0,1-3.406,3.4c-.244.208-.49.417-.735.631a42.428,42.428,0,0,1-3.917,2.528,29.056,29.056,0,0,1-8.414,3.01,27.867,27.867,0,0,1-6.549.5A26.011,26.011,0,0,1,415.43,546.158Z" transform="translate(-389.919 -483.999)" fill="#faf6f1"/>
    <path id="Path_11259" data-name="Path 11259" d="M205.71,382.36c.256.063.245.284.3.485.241.9.191,1.847.41,2.747a3.143,3.143,0,0,0,.5,1.273,2.676,2.676,0,0,1,.352,1.284,3.192,3.192,0,0,0,.533,1.505,1.382,1.382,0,0,1,.3.9c-.016.449.343.776.535,1.1.585.983,1,2.054,1.572,3.037.182.313.557.545.445,1a13.741,13.741,0,0,1-1.759-2.83,30.185,30.185,0,0,1-3.075-9.257C205.756,383.188,205.747,382.771,205.71,382.36Z" transform="translate(-201.698 -345.443)" fill="#f8f7f6"/>
    <path id="Path_11260" data-name="Path 11260" d="M261.885,520.77c0,.152,0,.3.205.313l.1.1h0c.049.313.294.457.513.625.034.244.223.276.41.313a.651.651,0,0,0,.308.313.789.789,0,0,0,.615.417v.1c.011.208.158.208.308.208.054.5.423.625.82.73.156.307.329.594.718.625h.1l.1.208.015.3-.009.008a28.326,28.326,0,0,1-6.65-6.56.36.36,0,0,1-.034-.1,1.718,1.718,0,0,1,.629.307.3.3,0,0,0,.084.227.286.286,0,0,0,.224.085c.112.324.148.714.615.73.081.246.1.537.41.625.128.194.254.39.513.417Z" transform="translate(-249.893 -467.284)" fill="#faf6f1"/>
    <path id="Path_11261" data-name="Path 11261" d="M224.593,191.24c.037.383.276.834-.41.927-.1.013-.285.472-.217.566.276.38-.1.555-.173.819h0c-.041-.029-.091-.09-.12-.081a1.083,1.083,0,0,0-.388.869.435.435,0,0,1-.48.625c-.185-.018-.262.175-.267.252-.032.559-.5.948-.525,1.524a1.035,1.035,0,0,1-.594.759,23.419,23.419,0,0,1,1.783-4.05c.2-.378.41-.753.615-1.129C224.115,191.991,224.247,191.536,224.593,191.24Z" transform="translate(-215.798 -174.246)" fill="#f8f7f6"/>
    <path id="Path_11262" data-name="Path 11262" d="M207.326,251.29a2.136,2.136,0,0,1-.46,1.843.5.5,0,0,0-.113.338c.187,1.127-.654,2.056-.583,3.145a2.78,2.78,0,0,1-.263,1.364c-.047.1-.081.183-.2.2a25.131,25.131,0,0,1,1.14-5.595A5.981,5.981,0,0,1,207.326,251.29Z" transform="translate(-201.698 -228.036)" fill="#f8f7f6"/>
    <path id="Path_11263" data-name="Path 11263" d="M358.044,601.558a.637.637,0,0,0,.485.4,7.691,7.691,0,0,1,1.816.73,2.82,2.82,0,0,0,.923.182.958.958,0,0,1,.976.635,23.062,23.062,0,0,1-5.854-2.36,5.544,5.544,0,0,1,1.137.1C357.592,601.538,357.82,601.543,358.044,601.558Z" transform="translate(-336.931 -541.402)" fill="#faf6f1"/>
    <path id="Path_11264" data-name="Path 11264" d="M203.578,331.29a8.126,8.126,0,0,1,.122,2.078c.082.64-.148,1.316.219,1.924.228.379-.072.634-.241.915a14.915,14.915,0,0,1-.189-2.2V332.34C203.56,331.995,203.433,331.631,203.578,331.29Z" transform="translate(-199.706 -299.697)" fill="#f8f7f6"/>
    <path id="Path_11265" data-name="Path 11265" d="M325,580.2c.339-.181.608-.243.513.313a.318.318,0,0,0,.205.313c.308.133.658.219.7.648a11.349,11.349,0,0,1-1.822-1.176l.009-.008C324.749,580.295,324.9,580.342,325,580.2Z" transform="translate(-308.4 -522.542)" fill="#faf6f1"/>
    <path id="Path_11266" data-name="Path 11266" d="M342.35,593.46c.543.166,1.2.133,1.446.827A4.965,4.965,0,0,1,342.35,593.46Z" transform="translate(-324.331 -534.537)" fill="#faf6f1"/>
    <path id="Path_11267" data-name="Path 11267" d="M204.646,320.32c.137.33.292.661-.083.944A2.41,2.41,0,0,1,204.646,320.32Z" transform="translate(-200.664 -289.87)" fill="#f8f7f6"/>
    <path id="Path_11268" data-name="Path 11268" d="M202.457,341.38v1.668A2.952,2.952,0,0,1,202.457,341.38Z" transform="translate(-198.671 -308.735)" fill="#ae5e37"/>
    <path id="Path_11269" data-name="Path 11269" d="M254.45,511.312a.69.69,0,0,1,.421.1c0,.14.007.28.01.417a.631.631,0,0,1-.006.088A1.549,1.549,0,0,1,254.45,511.312Z" transform="translate(-245.442 -460.951)" fill="#faf6f1"/>
    <path id="Path_11270" data-name="Path 11270" d="M714.906,184.081a1.317,1.317,0,0,1-.575-1.2,5.706,5.706,0,0,0-.4-1.531c-.2-.6-.41-1.189-.644-1.772a10.687,10.687,0,0,0-1.579-3.142,2.968,2.968,0,0,1-.307-.693,8.718,8.718,0,0,0-.993-1.428.528.528,0,0,1-.087-.345l.021-.042-.023.042c-.191-.008-.253-.166-.3-.305a.849.849,0,0,0-.571-.637c-.685-.2-.288-.7-.286-1.089a6.893,6.893,0,0,1,.788.944l.862,1.205a36.143,36.143,0,0,1,2.915,5.741,22,22,0,0,1,1.073,3.649C714.843,183.675,714.975,183.862,714.906,184.081Z" transform="translate(-653.436 -156.958)" fill="#faf6f1"/>
    <path id="Path_11271" data-name="Path 11271" d="M765.595,302.209c-.192-.208-.12-.465-.087-.691a4.251,4.251,0,0,0,.143-2.308c.482-.823.175-1.746.3-2.617a9.451,9.451,0,0,0-.1-2.263c-.13-1.215-.308-2.425-.463-3.637a.344.344,0,0,1,.116-.373,21.708,21.708,0,0,1,.582,3.817,25.591,25.591,0,0,1-.1,5.692A11.74,11.74,0,0,1,765.595,302.209Z" transform="translate(-703.996 -262.998)" fill="#faf6f1"/>
    <path id="Path_11272" data-name="Path 11272" d="M748.724,421.139a.219.219,0,0,1-.092-.308c.2-.541.356-1.1.56-1.638a5.316,5.316,0,0,0,.513-1.9,1,1,0,0,1,.589-.966A26.009,26.009,0,0,1,748.724,421.139Z" transform="translate(-688.94 -375.872)" fill="#faf6f1"/>
    <path id="Path_11273" data-name="Path 11273" d="M701.459,514.42a.737.737,0,0,1,.246-.73,3.321,3.321,0,0,0,.718-.985c.2-.45.664-.6.931-.96.02-.028.121,0,.185.007l-.508.834A22.506,22.506,0,0,1,701.459,514.42Z" transform="translate(-646.609 -461.329)" fill="#faf6f1"/>
    <path id="Path_11274" data-name="Path 11274" d="M732.559,467.426a.238.238,0,0,1-.132-.151.242.242,0,0,1,.03-.2,24.754,24.754,0,0,0,1.333-2.534.276.276,0,0,1,.308-.138A17.647,17.647,0,0,1,732.559,467.426Z" transform="translate(-674.41 -418.927)" fill="#faf6f1"/>
    <path id="Path_11275" data-name="Path 11275" d="M721.169,497.86c-.163-.319-.153-.593.2-.776s.385-.73.831-.834A8.092,8.092,0,0,1,721.169,497.86Z" transform="translate(-664.224 -447.461)" fill="#faf6f1"/>
    <path id="Path_11276" data-name="Path 11276" d="M764.394,407.184a.553.553,0,0,1,.18-.834A2.069,2.069,0,0,1,764.394,407.184Z" transform="translate(-703.003 -366.932)" fill="#faf6f1"/>
    <path id="Path_11277" data-name="Path 11277" d="M413.75,73.359a.791.791,0,0,1-1.23.313v-.082l.1-.028.205-.072.205-.042c.154.174.254.139.307-.081a.129.129,0,0,1,.091-.02Z" transform="translate(-387.307 -68.641)" fill="#f8f7f6"/>
    <path id="Path_11278" data-name="Path 11278" d="M384.625,81.3c-.327.264-.606.657-1.115.417A3.686,3.686,0,0,1,384.625,81.3Z" transform="translate(-361.271 -75.767)" fill="#e5e5e5"/>
    <path id="Path_11279" data-name="Path 11279" d="M334.423,104.78c-.131.567-.615.586-1.043.689A5.159,5.159,0,0,1,334.423,104.78Z" transform="translate(-316.28 -96.799)" fill="#faf6f1"/>
    <path id="Path_11280" data-name="Path 11280" d="M431.443,70.409c-.17.535-.575.331-.923.3.088-.168.393-.02.41-.291a.159.159,0,0,1,.1-.022Z" transform="translate(-403.462 -66.001)" fill="#f8f7f6"/>
    <path id="Path_11281" data-name="Path 11281" d="M422.745,70.62c-.018.271-.323.123-.41.291l-.615.007-.32-.011A3.927,3.927,0,0,1,422.745,70.62Z" transform="translate(-395.277 -66.2)" fill="#e5e5e5"/>
    <path id="Path_11282" data-name="Path 11282" d="M366.286,88.61a1.019,1.019,0,0,1-1.056.486A3.647,3.647,0,0,1,366.286,88.61Z" transform="translate(-344.865 -82.315)" fill="#e5e5e5"/>
    <path id="Path_11283" data-name="Path 11283" d="M324.821,113.19c-.043.409-.252.573-.651.458A1.77,1.77,0,0,1,324.821,113.19Z" transform="translate(-308.014 -104.333)" fill="#faf6f1"/>
    <path id="Path_11284" data-name="Path 11284" d="M435.93,68.911l-.41-.009a2.046,2.046,0,0,1,.929-.173V68.9Z" transform="translate(-407.95 -64.504)" fill="#e5e5e5"/>
    <path id="Path_11285" data-name="Path 11285" d="M352.214,97.28c-.055.372-.346.313-.594.335A1.364,1.364,0,0,1,352.214,97.28Z" transform="translate(-332.65 -90.081)" fill="#faf6f1"/>
    <path id="Path_11286" data-name="Path 11286" d="M406.79,76.26c-.012.313-.246.208-.41.222A.394.394,0,0,1,406.79,76.26Z" transform="translate(-381.797 -71.252)" fill="#f8f7f6"/>
    <path id="Path_11287" data-name="Path 11287" d="M417.818,73.5c-.054.22-.155.255-.308.081A.306.306,0,0,1,417.818,73.5Z" transform="translate(-391.786 -68.771)" fill="#e5e5e5"/>
    <path id="Path_11288" data-name="Path 11288" d="M344.982,102.27c-.005.3-.232.208-.392.229A.594.594,0,0,1,344.982,102.27Z" transform="translate(-326.341 -94.551)" fill="#faf6f1"/>
    <path id="Path_11289" data-name="Path 11289" d="M376.755,86.6c-.061.267-.268.175-.435.181a.593.593,0,0,1,.435-.181Z" transform="translate(-354.818 -80.514)" fill="#e5e5e5"/>
    <path id="Path_11290" data-name="Path 11290" d="M320.6,118.1c0,.239-.157.252-.334.235Z" transform="translate(-304.514 -108.731)" fill="#faf6f1"/>
    <path id="Path_11291" data-name="Path 11291" d="M447.58,67.538c0,.026-.005.052-.007.077l-.205.01-.128-.027A.328.328,0,0,1,447.58,67.538Z" transform="translate(-418.468 -63.422)" fill="#e5e5e5"/>
    <path id="Path_11292" data-name="Path 11292" d="M400.452,78.589a.211.211,0,0,1-.232.056A.211.211,0,0,1,400.452,78.589Z" transform="translate(-376.268 -73.326)" fill="#e5e5e5"/>
    <path id="Path_11293" data-name="Path 11293" d="M410.628,75.6v.082l-.218-.028A.2.2,0,0,1,410.628,75.6Z" transform="translate(-385.414 -70.648)" fill="#e5e5e5"/>
    <path id="Path_11294" data-name="Path 11294" d="M413.675,74.635l-.205.072C413.516,74.613,413.592,74.614,413.675,74.635Z" transform="translate(-388.16 -69.786)" fill="#e5e5e5"/>
    <path id="Path_11295" data-name="Path 11295" d="M394.492,80.76l-.112.059Z" transform="translate(-371.027 -75.283)" fill="#e5e5e5"/>
    <path id="Path_11296" data-name="Path 11296" d="M380.8,85.85c-.027.022-.052.045-.078.068C380.749,85.895,380.771,85.872,380.8,85.85Z" transform="translate(-358.767 -79.843)" fill="#e5e5e5"/>
    <path id="Path_11297" data-name="Path 11297" d="M357.486,96.63c-.038.026-.077.051-.116.076C357.409,96.681,357.448,96.656,357.486,96.63Z" transform="translate(-337.811 -89.499)" fill="#faf6f1"/>
    <path id="Path_11298" data-name="Path 11298" d="M349.674,100.691l-.094.077C349.59,100.719,349.607,100.671,349.674,100.691Z" transform="translate(-330.82 -93.132)" fill="#faf6f1"/>
    <path id="Path_11299" data-name="Path 11299" d="M331.733,111.85l-.083.06Z" transform="translate(-314.728 -103.132)" fill="#faf6f1"/>
    <path id="Path_11300" data-name="Path 11300" d="M348.5,101.5l-.119.09Z" transform="translate(-329.743 -93.861)" fill="#faf6f1"/>
    <path id="Path_11301" data-name="Path 11301" d="M558.245,74.866c.072-.417-.09-.6-.505-.708s-.989.027-1.23-.538c.909.143,1.757.516,2.646.73l2.351.944c.677.433,1.455.671,2.106,1.153-.368.454-.708.066-1.058-.035l-.523.114h0c0-.1.005-.215.007-.321.151-.252-.029-.281-.205-.313a6.977,6.977,0,0,0-2.794-1.083c-.245-.045-.41-.08-.467-.339-.231.127.13.476-.247.493Z" transform="translate(-516.536 -68.888)" fill="#faf6f1"/>
    <path id="Path_11302" data-name="Path 11302" d="M525.772,68.219c-.337.321-.691.014-1.036.028a.67.67,0,0,0-.718-.1,1.153,1.153,0,0,0-.82-.208h-.205l-.513-.294A14.439,14.439,0,0,1,525.772,68.219Z" transform="translate(-485.995 -63.531)" fill="#faf6f1"/>
    <path id="Path_11303" data-name="Path 11303" d="M478.91,67.47q-.205.441-.41,0Z" transform="translate(-446.523 -63.379)" fill="#f8f7f6"/>
    <path id="Path_11304" data-name="Path 11304" d="M464.807,68.47c-.014.082-.026.172-.129.186-.135.019-.162-.08-.178-.186Z" transform="translate(-433.959 -64.275)" fill="#f8f7f6"/>
    <path id="Path_11305" data-name="Path 11305" d="M286.451,134.5c0,.122.007.256-.1.334a7.617,7.617,0,0,0-1.2,1.183.616.616,0,0,1-.535.251,17.515,17.515,0,0,1,1.694-1.71Z" transform="translate(-272.51 -123.421)" fill="#faf6f1"/>
    <path id="Path_11306" data-name="Path 11306" d="M270.028,161.16c.088.373-.281.5-.4.758l-.22-.011A2.613,2.613,0,0,1,270.028,161.16Z" transform="translate(-258.868 -147.302)" fill="#faf6f1"/>
    <path id="Path_11307" data-name="Path 11307" d="M266.389,168.3a.634.634,0,0,1-.09.432h-.205c-.016-.02-.035-.039-.053-.057Z" transform="translate(-255.844 -153.698)" fill="#faf6f1"/>
    <path id="Path_11308" data-name="Path 11308" d="M276.555,156.54c0,.239-.066.417-.346.393A.829.829,0,0,1,276.555,156.54Z" transform="translate(-264.971 -143.164)" fill="#faf6f1"/>
    <path id="Path_11309" data-name="Path 11309" d="M264.49,172.183l.041-.167.122-.087c.018.019.037.038.053.057a.207.207,0,0,1-.205.208Z" transform="translate(-254.453 -156.949)" fill="#faf6f1"/>
    <path id="Path_11310" data-name="Path 11310" d="M282.663,152.5l-.1.1Z" transform="translate(-270.67 -139.545)" fill="#faf6f1"/>
    <path id="Path_11311" data-name="Path 11311" d="M448.49,68.46l.2-.01c-.013.075-.011.175-.119.156C448.542,68.6,448.519,68.507,448.49,68.46Z" transform="translate(-419.59 -64.257)" fill="#faf6f1"/>
    <path id="Path_11312" data-name="Path 11312" d="M626.894,102.667c-.271-.423.261-.236.321-.454a3.449,3.449,0,0,0-1.359-.9c-.217-.1-.254-.19-.151-.38l1.135.6,3.178,2.293a2.117,2.117,0,0,0,.615.516l.1.1.1.1c.053.077.108.153.162.228-.455.234-.56-.389-.923-.388-.831,0-.774-1.057-1.46-1.268-.4-.123-.751-.485-1.2-.13Z" transform="translate(-578.588 -93.351)" fill="#faf6f1"/>
    <path id="Path_11313" data-name="Path 11313" d="M255.411,178.825c-.324-.013-.333.512-.7.422.04-.1.08-.192.121-.288l.566-.669.025.024-.009.3Z" transform="translate(-245.675 -162.646)" fill="#faf6f1"/>
    <path id="Path_11314" data-name="Path 11314" d="M303.505,127.15c-.1.5-.482.657-.905.762l.335-.381a.965.965,0,0,0,.4-.326Z" transform="translate(-288.656 -116.837)" fill="#faf6f1"/>
    <path id="Path_11315" data-name="Path 11315" d="M313.836,123.31c.009.222-.143.223-.3.223A.455.455,0,0,1,313.836,123.31Z" transform="translate(-298.474 -113.398)" fill="#faf6f1"/>
    <path id="Path_11316" data-name="Path 11316" d="M316.525,122.43l-.115.1Z" transform="translate(-301.05 -112.609)" fill="#faf6f1"/>
    <path id="Path_11317" data-name="Path 11317" d="M261.446,175.553l.184-.123.009.007c-.007.146-.016.291-.205.313l-.025-.024C261.422,175.67,261.434,175.611,261.446,175.553Z" transform="translate(-251.688 -160.085)" fill="#faf6f1"/>
    <path id="Path_11318" data-name="Path 11318" d="M263.56,174.472l.1-.112.012.016-.1.1Z" transform="translate(-253.618 -159.126)" fill="#faf6f1"/>
    <path id="Path_11319" data-name="Path 11319" d="M597.912,104.8a9.742,9.742,0,0,0-.99-.492c-.343-.127-.149-.313-.081-.469.074-.172.124-.408.425-.208a10.206,10.206,0,0,0,.987.5c-.041.153-.212.3-.019.465Z" transform="translate(-552.628 -95.698)" fill="#f1f1f1"/>
    <path id="Path_11320" data-name="Path 11320" d="M223.63,358.267c-.615-.122-.813-.493-.572-1.077A.974.974,0,0,1,223.63,358.267Z" transform="translate(-217.178 -322.897)" fill="#f8f7f6"/>
    <path id="Path_11321" data-name="Path 11321" d="M216.092,291.541l-.007.515c-.365.236-.525.118-.513-.305.005-.235.108-.464.012-.7a.131.131,0,0,1,.006-.125.127.127,0,0,1,.107-.062.143.143,0,0,1,.114.051.148.148,0,0,1,.031.123C215.79,291.278,215.794,291.481,216.092,291.541Z" transform="translate(-210.549 -263.481)" fill="#f8f7f6"/>
    <path id="Path_11322" data-name="Path 11322" d="M214.527,311.984c-.167.181-.1.443-.218.643-.172-.009-.415-.02-.345-.249.065-.208-.134-.527.191-.636C214.341,311.679,214.479,311.781,214.527,311.984Z" transform="translate(-209.094 -282.17)" fill="#f8f7f6"/>
    <path id="Path_11323" data-name="Path 11323" d="M295.848,550.33a.65.65,0,0,1-.308-.313,1.241,1.241,0,0,0,.277-.208c.083-.11.036-.442.292-.208a.338.338,0,0,1-.026.543A2.51,2.51,0,0,0,295.848,550.33Z" transform="translate(-282.319 -495.176)" fill="#f8f7f6"/>
    <path id="Path_11324" data-name="Path 11324" d="M238.376,430.61c.2.227.043.275-.15.334-.157.048-.318.2-.423-.05a3.908,3.908,0,0,1-.143-.491c.069-.01.16-.18.174-.072C237.888,430.729,238.166,430.582,238.376,430.61Z" transform="translate(-230.373 -388.381)" fill="#f5f6f5"/>
    <path id="Path_11325" data-name="Path 11325" d="M218.4,344.136l-.527.387c-.139-.175.05-.427-.154-.607-.077-.068.027-.223.142-.148C218.041,343.886,218.356,343.811,218.4,344.136Z" transform="translate(-212.451 -310.856)" fill="#f8f7f6"/>
    <path id="Path_11326" data-name="Path 11326" d="M261.855,172.813l.1-.1a.207.207,0,0,0,.205-.209h.205c-.151.383-.158.879-.718.938l.009-.3C261.839,173.1,261.848,172.959,261.855,172.813Z" transform="translate(-251.904 -157.46)" fill="#f8f7f6"/>
    <path id="Path_11327" data-name="Path 11327" d="M463.1,74.511a3.623,3.623,0,0,0-.615.763C462.228,74.566,462.286,74.493,463.1,74.511Z" transform="translate(-432.028 -69.684)" fill="#f8f7f6"/>
    <path id="Path_11328" data-name="Path 11328" d="M244.692,213.868c-.161.032-.187.195-.277.3-.205-.208-.371-.425-.244-.743h0C244.312,213.609,244.769,213.418,244.692,213.868Z" transform="translate(-236.177 -194.114)" fill="#f8f7f6"/>
    <path id="Path_11329" data-name="Path 11329" d="M731.511,221.487a4.044,4.044,0,0,1-.432-.927A.641.641,0,0,1,731.511,221.487Z" transform="translate(-673.21 -200.51)" fill="#faf6f1"/>
    <path id="Path_11330" data-name="Path 11330" d="M681.276,157.779a.184.184,0,0,1-.169.126c-.131-.313-.552.054-.667-.295.271.051.308-.268.506-.33C681.1,157.418,681.326,157.5,681.276,157.779Z" transform="translate(-627.762 -143.827)" fill="#faf6f1"/>
    <path id="Path_11331" data-name="Path 11331" d="M308.36,565.03c-.4-.1-.766-.23-.82-.73C307.954,564.38,308.1,564.769,308.36,565.03Z" transform="translate(-293.089 -508.417)" fill="#f8f7f6"/>
    <path id="Path_11332" data-name="Path 11332" d="M223.709,421.922l-.138.1c-.129,0-.288.043-.232.187.072.183.031.208-.128.2s-.211-.053-.175-.228C223.107,421.832,223.347,421.734,223.709,421.922Z" transform="translate(-217.238 -380.797)" fill="#f8f7f6"/>
    <path id="Path_11333" data-name="Path 11333" d="M537.49,71.985a.67.67,0,0,1,.718.1C537.817,72.418,537.633,72.392,537.49,71.985Z" transform="translate(-499.466 -67.374)" fill="#f8f7f6"/>
    <path id="Path_11334" data-name="Path 11334" d="M634.54,126.209a5.716,5.716,0,0,1,.7-.959A.857.857,0,0,1,634.54,126.209Z" transform="translate(-586.567 -115.135)" fill="#faf6f1"/>
    <path id="Path_11335" data-name="Path 11335" d="M278.834,172.405c.027.064.053.126.079.19-.072.044-.146.084-.214.132-.1.073-.213.134-.308.011a.333.333,0,0,1-.06-.241c.029-.139.16-.08.25-.09S278.75,172.406,278.834,172.405Z" transform="translate(-266.872 -157.373)" fill="#f8f7f6"/>
    <path id="Path_11336" data-name="Path 11336" d="M287.063,545.838c-.218-.169-.463-.313-.513-.625C287.064,545.131,287.041,545.5,287.063,545.838Z" transform="translate(-274.251 -491.309)" fill="#f8f7f6"/>
    <path id="Path_11337" data-name="Path 11337" d="M227.56,415.992c.015-.047.016-.12.048-.138.139-.079.28-.191.453-.1a.146.146,0,0,1,.064.122c-.06.172-.243.14-.368.2a.546.546,0,0,1-.2.019Z" transform="translate(-221.308 -375.325)" fill="#f5f6f5"/>
    <path id="Path_11338" data-name="Path 11338" d="M737.862,464.63c-.042.168-.128.289-.266.3s-.126-.128-.127-.227c0-.135.048-.23.205-.232a.169.169,0,0,1,.127.039A.174.174,0,0,1,737.862,464.63Z" transform="translate(-678.945 -418.994)" fill="#faf6f1"/>
    <path id="Path_11339" data-name="Path 11339" d="M240.53,408.827c.1-.163.257-.159.41-.167.01.195,0,.391-.235.436S240.559,408.939,240.53,408.827Z" transform="translate(-232.949 -369.002)" fill="#f8f7f6"/>
    <path id="Path_11340" data-name="Path 11340" d="M648.27,129.06a1.4,1.4,0,0,1-.344.493c-.074-.124-.231-.237-.1-.4A.321.321,0,0,1,648.27,129.06Z" transform="translate(-598.445 -118.5)" fill="#faf6f1"/>
    <path id="Path_11341" data-name="Path 11341" d="M267.179,180.941l-.2.128c-.144-.048-.236-.128-.168-.3a.2.2,0,0,1,.193-.134C267.2,180.652,267.164,180.814,267.179,180.941Z" transform="translate(-256.516 -164.751)" fill="#f8f7f6"/>
    <path id="Path_11342" data-name="Path 11342" d="M222.134,408.2c.057.145.022.319.144.442-.022.1-.055.208-.19.135-.1-.057-.205-.139-.183-.275A.345.345,0,0,1,222.134,408.2Z" transform="translate(-216.23 -368.589)" fill="#f8f7f6"/>
    <path id="Path_11343" data-name="Path 11343" d="M346.088,580.54c-.039.136-.1.221-.223.195a.191.191,0,0,1-.124-.085.2.2,0,0,1-.026-.15c.016-.1.1-.128.19-.128a.162.162,0,0,1,.129.042.168.168,0,0,1,.054.127Z" transform="translate(-327.347 -522.811)" fill="#f8f7f6"/>
    <path id="Path_11344" data-name="Path 11344" d="M255.056,409.778c-.179-.1-.325.092-.5.054a.426.426,0,0,1,.41-.4C255.1,409.425,255.061,409.647,255.056,409.778Z" transform="translate(-245.54 -369.691)" fill="#f8f7f6"/>
    <path id="Path_11345" data-name="Path 11345" d="M368.043,602.045c-.224-.015-.452-.02-.513-.313C367.866,601.555,367.973,601.768,368.043,602.045Z" transform="translate(-346.929 -541.889)" fill="#f8f7f6"/>
    <path id="Path_11346" data-name="Path 11346" d="M669.767,557.255c-.242.019-.334-.1-.3-.338.01-.071.045-.151.118-.129.244.074.162.294.181.468Z" transform="translate(-617.908 -501.685)" fill="#faf6f1"/>
    <path id="Path_11347" data-name="Path 11347" d="M737.477,235.012c-.015-.2-.032-.4-.047-.6a.294.294,0,0,1,.228.094.3.3,0,0,1,.08.237C737.74,234.92,737.682,235.037,737.477,235.012Z" transform="translate(-678.909 -212.914)" fill="#faf6f1"/>
    <path id="Path_11348" data-name="Path 11348" d="M231.005,241.056c-.016.094,0,.226-.156.189a.187.187,0,0,1-.133-.193c0-.114.052-.218.16-.222C231.017,240.828,231,240.961,231.005,241.056Z" transform="translate(-224.141 -218.667)" fill="#f8f7f6"/>
    <path id="Path_11349" data-name="Path 11349" d="M274.96,531.935c-.314-.088-.329-.378-.41-.625A.609.609,0,0,1,274.96,531.935Z" transform="translate(-263.481 -478.866)" fill="#f8f7f6"/>
    <path id="Path_11350" data-name="Path 11350" d="M668.7,139.6l-.41-.4C668.613,139.011,668.664,139.061,668.7,139.6Z" transform="translate(-616.857 -127.539)" fill="#faf6f1"/>
    <path id="Path_11351" data-name="Path 11351" d="M260.823,416.891a1.017,1.017,0,0,1-.193-.521C261.052,416.405,260.969,416.636,260.823,416.891Z" transform="translate(-250.988 -375.908)" fill="#f8f7f6"/>
    <path id="Path_11352" data-name="Path 11352" d="M437.587,83.83h0l.468.453C437.617,84.343,437.558,84.127,437.587,83.83Z" transform="translate(-409.799 -78.033)" fill="#f8f7f6"/>
    <path id="Path_11353" data-name="Path 11353" d="M246.1,379.33c-.157.116-.344.057-.513.1C245.77,379.135,245.924,379.106,246.1,379.33Z" transform="translate(-237.49 -342.596)" fill="#f8f7f6"/>
    <path id="Path_11354" data-name="Path 11354" d="M324.95,579.508c-.1.145-.255.1-.395.089l-.015-.3A.558.558,0,0,1,324.95,579.508Z" transform="translate(-308.347 -521.853)" fill="#f8f7f6"/>
    <path id="Path_11355" data-name="Path 11355" d="M595.85,93.216l-.36-.088c.024-.146.066-.3.246-.252S595.9,93.071,595.85,93.216Z" transform="translate(-551.52 -86.129)" fill="#faf6f1"/>
    <path id="Path_11356" data-name="Path 11356" d="M241.838,356.25c.039.2.242.363.145.6C241.788,356.686,241.581,356.525,241.838,356.25Z" transform="translate(-234.015 -322.055)" fill="#f8f7f6"/>
    <path id="Path_11357" data-name="Path 11357" d="M219.56,338.73l.528.016C219.906,338.951,219.728,339,219.56,338.73Z" transform="translate(-214.129 -306.361)" fill="#f8f7f6"/>
    <path id="Path_11358" data-name="Path 11358" d="M265.872,521.273a.286.286,0,0,1-.224-.085.3.3,0,0,1-.084-.227C265.87,520.856,265.974,520.957,265.872,521.273Z" transform="translate(-255.416 -469.56)" fill="#f8f7f6"/>
    <path id="Path_11359" data-name="Path 11359" d="M224.01,402.291l-.308.313C223.705,402.394,223.6,402.08,224.01,402.291Z" transform="translate(-217.838 -363.234)" fill="#f1f1f1"/>
    <path id="Path_11360" data-name="Path 11360" d="M220.538,392.2a.336.336,0,0,0,.3.129c-.011.124-.057.277-.185.25C220.444,392.536,220.55,392.338,220.538,392.2Z" transform="translate(-214.991 -354.257)" fill="#f8f7f6"/>
    <path id="Path_11361" data-name="Path 11361" d="M228.5,429.529l.117.39a.38.38,0,0,1-.323-.329C228.287,429.489,228.423,429.524,228.5,429.529Z" transform="translate(-221.969 -387.686)" fill="#f8f7f6"/>
    <path id="Path_11362" data-name="Path 11362" d="M610.664,109.455c-.193-.164-.022-.313.019-.465l.188.056A.575.575,0,0,1,610.664,109.455Z" transform="translate(-565.058 -100.571)" fill="#faf6f1"/>
    <path id="Path_11363" data-name="Path 11363" d="M240.56,373.185l.294-.145c-.005.165-.01.359-.205.386C240.544,373.44,240.572,373.277,240.56,373.185Z" transform="translate(-232.976 -337.095)" fill="#f8f7f6"/>
    <path id="Path_11364" data-name="Path 11364" d="M231,257.644l-.3.226v-.45A.46.46,0,0,1,231,257.644Z" transform="translate(-224.127 -233.527)" fill="#f8f7f6"/>
    <path id="Path_11365" data-name="Path 11365" d="M697.438,168.984a.48.48,0,0,1-.228-.276c.046-.1.131-.186.224-.124C697.6,168.7,697.4,168.849,697.438,168.984Z" transform="translate(-642.813 -153.934)" fill="#faf6f1"/>
    <path id="Path_11366" data-name="Path 11366" d="M490.29,99.5l.216-.291c-.017.131.153.284-.035.391C490.378,99.654,490.329,99.575,490.29,99.5Z" transform="translate(-457.105 -91.81)" fill="#f8f7f6"/>
    <path id="Path_11367" data-name="Path 11367" d="M521.34,624.664a.281.281,0,0,1,.422.015C521.635,624.821,521.524,624.743,521.34,624.664Z" transform="translate(-484.972 -562.409)" fill="#faf6f1"/>
    <path id="Path_11368" data-name="Path 11368" d="M226.222,252.962a.131.131,0,0,1-.044.093.127.127,0,0,1-.1.032.092.092,0,0,1-.1-.13.219.219,0,0,1,.138-.114C226.211,252.828,226.214,252.911,226.222,252.962Z" transform="translate(-219.887 -229.426)" fill="#f8f7f6"/>
    <path id="Path_11369" data-name="Path 11369" d="M610.733,100.743a.587.587,0,0,1-.373-.179l.523-.114C610.836,100.548,610.783,100.646,610.733,100.743Z" transform="translate(-564.866 -92.921)" fill="#f5f6f5"/>
    <path id="Path_11370" data-name="Path 11370" d="M694.5,165.047l-.081-.1c.06-.092.126-.268.243-.137S694.6,164.993,694.5,165.047Z" transform="translate(-640.309 -150.526)" fill="#faf6f1"/>
    <path id="Path_11371" data-name="Path 11371" d="M258.57,512.777c0-.141-.007-.281-.01-.417C258.739,512.491,258.933,512.627,258.57,512.777Z" transform="translate(-249.13 -461.891)" fill="#f8f7f6"/>
    <path id="Path_11372" data-name="Path 11372" d="M608.476,95.45c.175.032.355.061.205.313A.313.313,0,0,1,608.476,95.45Z" transform="translate(-563.174 -88.442)" fill="#f5f6f5"/>
    <path id="Path_11373" data-name="Path 11373" d="M423.843,78.682l-.323.059C423.586,78.481,423.692,78.458,423.843,78.682Z" transform="translate(-397.18 -73.285)" fill="#f8f7f6"/>
    <path id="Path_11374" data-name="Path 11374" d="M527.086,70.46h.205a.313.313,0,0,1-.24.369l-.011-.01Z" transform="translate(-490.087 -66.057)" fill="#f8f7f6"/>
    <path id="Path_11375" data-name="Path 11375" d="M256.41,403.657l.035-.307c.082.019.165.042.166.148C256.612,403.635,256.515,403.652,256.41,403.657Z" transform="translate(-247.201 -364.245)" fill="#f8f7f6"/>
    <path id="Path_11376" data-name="Path 11376" d="M453.612,78.783a.354.354,0,0,1-.054-.323C453.787,78.531,453.793,78.64,453.612,78.783Z" transform="translate(-424.123 -73.223)" fill="#f8f7f6"/>
    <path id="Path_11377" data-name="Path 11377" d="M218.994,386.507l-.085.3c-.086-.023-.167-.058-.15-.169C218.782,386.493,218.889,386.5,218.994,386.507Z" transform="translate(-213.408 -349.155)" fill="#f8f7f6"/>
    <path id="Path_11378" data-name="Path 11378" d="M229.853,397.362l-.322.3C229.512,397.424,229.626,397.332,229.853,397.362Z" transform="translate(-223.076 -358.876)" fill="#f8f7f6"/>
    <path id="Path_11379" data-name="Path 11379" d="M294.1,544.71c-.027-.018-.083-.034-.1-.07a.07.07,0,0,1,.079-.1.154.154,0,0,1,.118.061C294.229,544.664,294.174,544.694,294.1,544.71Z" transform="translate(-280.932 -490.719)" fill="#f8f7f6"/>
    <path id="Path_11380" data-name="Path 11380" d="M448.926,110.061l-.118.088c-.025-.038-.071-.078-.069-.114s.057-.064.088-.095Z" transform="translate(-419.814 -101.421)" fill="#f8f7f6"/>
    <path id="Path_11381" data-name="Path 11381" d="M406.336,94.582a.232.232,0,0,1-.156-.178c.1,0,.153-.245.278-.088C406.551,94.435,406.469,94.535,406.336,94.582Z" transform="translate(-381.617 -87.38)" fill="#f8f7f6"/>
    <path id="Path_11382" data-name="Path 11382" d="M488.652,75.668l-.212-.208C488.549,75.49,488.779,75.389,488.652,75.668Z" transform="translate(-455.444 -70.536)" fill="#f8f7f6"/>
    <path id="Path_11383" data-name="Path 11383" d="M215.571,363.25l.042.221c-.092-.019-.211-.016-.205-.153C215.41,363.293,215.514,363.273,215.571,363.25Z" transform="translate(-210.402 -328.325)" fill="#f8f7f6"/>
    <path id="Path_11384" data-name="Path 11384" d="M224.1,308.914c-.1.028-.18.161-.314.1l.08-.184c.046-.023-.1-.344.127-.082A1.507,1.507,0,0,1,224.1,308.914Z" transform="translate(-217.925 -279.417)" fill="#f1f1f1"/>
    <path id="Path_11385" data-name="Path 11385" d="M222.458,309.095l-.08.183h-.008c-.094-.082-.2-.231-.134-.3C222.33,308.865,222.367,309.076,222.458,309.095Z" transform="translate(-216.513 -279.68)" fill="#f8f7f6"/>
    <path id="Path_11386" data-name="Path 11386" d="M631.763,145.671a.332.332,0,0,1-.283-.231C631.63,145.447,631.779,145.454,631.763,145.671Z" transform="translate(-583.821 -133.221)" fill="#faf6f1"/>
    <path id="Path_11387" data-name="Path 11387" d="M225.409,417.734v.1c-.092-.028-.278.052-.241-.123C225.195,417.594,225.325,417.721,225.409,417.734Z" transform="translate(-219.157 -377.066)" fill="#f8f7f6"/>
    <path id="Path_11388" data-name="Path 11388" d="M288.55,178.48l.308.025C288.732,178.792,288.642,178.62,288.55,178.48Z" transform="translate(-276.046 -162.817)" fill="#f8f7f6"/>
    <path id="Path_11389" data-name="Path 11389" d="M233.625,442.18c.19.032.193.181.2.328C233.606,442.493,233.61,442.339,233.625,442.18Z" transform="translate(-226.746 -399.027)" fill="#f8f7f6"/>
    <path id="Path_11390" data-name="Path 11390" d="M333.742,584.6a.318.318,0,0,1-.205-.313C333.741,584.3,333.743,584.452,333.742,584.6Z" transform="translate(-316.421 -526.323)" fill="#f8f7f6"/>
    <path id="Path_11391" data-name="Path 11391" d="M236.225,352.37l.193.181c-.115,0-.261.094-.323-.076C236.071,352.406,236.166,352.387,236.225,352.37Z" transform="translate(-228.965 -318.579)" fill="#f8f7f6"/>
    <path id="Path_11392" data-name="Path 11392" d="M379.518,127.53c.179.015.19.167.229.294C379.534,127.835,379.514,127.692,379.518,127.53Z" transform="translate(-357.688 -117.178)" fill="#f8f7f6"/>
    <path id="Path_11393" data-name="Path 11393" d="M630.169,139.473a.316.316,0,0,1,.1-.333C630.315,139.277,630.472,139.451,630.169,139.473Z" transform="translate(-582.633 -127.578)" fill="#faf6f1"/>
    <path id="Path_11394" data-name="Path 11394" d="M239.746,345.151l-.186-.056c.01-.067.025-.159.1-.15C239.778,344.958,239.745,345.068,239.746,345.151Z" transform="translate(-232.078 -311.927)" fill="#f8f7f6"/>
    <path id="Path_11395" data-name="Path 11395" d="M655.018,565.711c-.012.028-.018.071-.038.079s-.053-.02-.08-.032c.012-.028.017-.071.038-.079S654.99,565.7,655.018,565.711Z" transform="translate(-604.84 -509.65)" fill="#faf6f1"/>
    <path id="Path_11396" data-name="Path 11396" d="M225.361,268.551l-.065.185c-.067-.022-.176-.016-.137-.13C225.19,268.512,225.287,268.548,225.361,268.551Z" transform="translate(-219.146 -243.49)" fill="#f8f7f6"/>
    <path id="Path_11397" data-name="Path 11397" d="M431.648,87.589c-.087-.058-.068-.145-.056-.229C431.737,87.4,431.8,87.469,431.648,87.589Z" transform="translate(-404.414 -81.195)" fill="#f8f7f6"/>
    <path id="Path_11398" data-name="Path 11398" d="M414.55,88.36l.205.038c-.032.046-.064.13-.1.131C414.552,88.531,414.558,88.435,414.55,88.36Z" transform="translate(-389.129 -82.091)" fill="#f8f7f6"/>
    <path id="Path_11399" data-name="Path 11399" d="M372.108,593.771c-.012.028-.017.071-.038.079s-.052-.02-.08-.031c.012-.028.017-.072.037-.079S372.08,593.759,372.108,593.771Z" transform="translate(-350.932 -534.786)" fill="#f8f7f6"/>
    <path id="Path_11400" data-name="Path 11400" d="M409.061,98.932l-.221-.261C409.038,98.651,409.123,98.727,409.061,98.932Z" transform="translate(-384.005 -91.325)" fill="#f8f7f6"/>
    <path id="Path_11401" data-name="Path 11401" d="M223.62,373.22c.082.008.164.016.205.1C223.652,373.5,223.636,373.358,223.62,373.22Z" transform="translate(-217.772 -337.256)" fill="#f8f7f6"/>
    <path id="Path_11402" data-name="Path 11402" d="M256.754,429.34c.092.208-.042.222-.185.234C256.569,429.444,256.614,429.355,256.754,429.34Z" transform="translate(-247.344 -387.526)" fill="#f8f7f6"/>
    <path id="Path_11403" data-name="Path 11403" d="M252.25,413.5l-.061.192c-.065-.013-.149-.031-.137-.1C252.07,413.47,252.174,413.5,252.25,413.5Z" transform="translate(-243.288 -373.333)" fill="#f8f7f6"/>
    <path id="Path_11404" data-name="Path 11404" d="M501.44,105.64l.223.043C501.55,105.877,501.486,105.806,501.44,105.64Z" transform="translate(-467.112 -97.57)" fill="#f8f7f6"/>
    <path id="Path_11405" data-name="Path 11405" d="M384.36,128.916l.2-.1c0,.078.032.173-.068.208C384.406,129.055,384.39,128.971,384.36,128.916Z" transform="translate(-362.034 -118.333)" fill="#f8f7f6"/>
    <path id="Path_11406" data-name="Path 11406" d="M237.56,390.033l.166-.053.056.056a.337.337,0,0,1-.218.226C237.562,390.191,237.561,390.109,237.56,390.033Z" transform="translate(-230.283 -352.269)" fill="#f8f7f6"/>
    <path id="Path_11407" data-name="Path 11407" d="M232.473,441.34a.182.182,0,0,1,.018.093l-.141-.03Z" transform="translate(-225.607 -398.275)" fill="#f8f7f6"/>
    <path id="Path_11408" data-name="Path 11408" d="M249.73,474.85l.085.065-.062.1Z" transform="translate(-241.206 -428.292)" fill="#f8f7f6"/>
    <path id="Path_11409" data-name="Path 11409" d="M219.458,391.36a.078.078,0,0,1,.024.095l-.141-.029Z" transform="translate(-213.931 -353.505)" fill="#f8f7f6"/>
    <path id="Path_11410" data-name="Path 11410" d="M256.634,424.83a.3.3,0,0,1,.088.262A.24.24,0,0,1,256.634,424.83Z" transform="translate(-247.393 -383.486)" fill="#f8f7f6"/>
    <path id="Path_11411" data-name="Path 11411" d="M640.134,133.776l-.034-.028c.013-.007.027-.02.039-.019s.021.017.033.026Z" transform="translate(-591.557 -122.731)" fill="#faf6f1"/>
    <path id="Path_11412" data-name="Path 11412" d="M238.887,471.03l-.028.033c-.007-.014-.02-.027-.019-.04s.017-.022.027-.033Z" transform="translate(-231.432 -424.834)" fill="#f8f7f6"/>
    <path id="Path_11413" data-name="Path 11413" d="M445.261,77.46v.1l-.121-.052Z" transform="translate(-416.583 -72.327)" fill="#f8f7f6"/>
    <path id="Path_11414" data-name="Path 11414" d="M442.24,81.756l.013-.036a.109.109,0,0,1,.039.016l-.011.035Z" transform="translate(-413.981 -76.143)" fill="#f8f7f6"/>
    <path id="Path_11415" data-name="Path 11415" d="M716.7,193.516V193.5a.59.59,0,0,1,.137.02c.051.02.044.051-.011.045A.607.607,0,0,1,716.7,193.516Z" transform="translate(-660.304 -176.271)" fill="#f5f6f5"/>
    <path id="Path_11416" data-name="Path 11416" d="M243.58,462.9a.128.128,0,0,1,.092.149Z" transform="translate(-235.686 -417.587)" fill="#f8f7f6"/>
    <path id="Path_11417" data-name="Path 11417" d="M294.353,183.43l-.023.041Z" transform="translate(-281.233 -167.251)" fill="#f8f7f6"/>
    <path id="Path_11418" data-name="Path 11418" d="M278.107,181.43H278.1c-.016-.026-.033-.053-.048-.08Z" transform="translate(-266.622 -165.387)" fill="#f8f7f6"/>
    <path id="Path_11419" data-name="Path 11419" d="M283.55,540.961l.023-.041C283.564,540.933,283.557,540.947,283.55,540.961Z" transform="translate(-271.559 -487.474)" fill="#f8f7f6"/>
    <path id="Path_11420" data-name="Path 11420" d="M274.54,181.508h0l.062-.068Z" transform="translate(-263.472 -165.468)" fill="#f8f7f6"/>
    <path id="Path_11421" data-name="Path 11421" d="M229.82,412.68h.028v.089Z" transform="translate(-223.337 -372.602)" fill="#f8f7f6"/>
    <path id="Path_11422" data-name="Path 11422" d="M285.652,544.414l-.1-.1Z" transform="translate(-273.354 -490.511)" fill="#f8f7f6"/>
    <path id="Path_11423" data-name="Path 11423" d="M432.5,77.538h0c.022-.022.042-.045.063-.068Z" transform="translate(-405.239 -72.336)" fill="#f8f7f6"/>
    <path id="Path_11424" data-name="Path 11424" d="M243.012,418.265H243a.833.833,0,0,1,.008-.086Z" transform="translate(-235.166 -377.529)" fill="#f5f6f5"/>
    <path id="Path_11425" data-name="Path 11425" d="M322.643,576.924h-.1C322.574,576.865,322.609,576.865,322.643,576.924Z" transform="translate(-306.552 -519.685)" fill="#f8f7f6"/>
    <path id="Path_11426" data-name="Path 11426" d="M639.206,145.268l-.067-.054c.063-.065.053.027.082.039Z" transform="translate(-590.695 -132.997)" fill="#faf6f1"/>
    <path id="Path_11427" data-name="Path 11427" d="M304.55,561.414v-.1a.46.46,0,0,1,.037.075S304.563,561.4,304.55,561.414Z" transform="translate(-290.406 -505.739)" fill="#f8f7f6"/>
    <path id="Path_11428" data-name="Path 11428" d="M721.43,191.072l.023-.042-.022.042Z" transform="translate(-664.55 -174.058)" fill="#f5f6f5"/>
    <path id="Path_11429" data-name="Path 11429" d="M393.608,533.414l-.108-.114h.122C393.618,533.338,393.613,533.373,393.608,533.414Z" transform="translate(-370.237 -480.648)" fill="#bec0c4"/>
    <path id="Path_11430" data-name="Path 11430" d="M491.512,223.194l2.934-4.991q1.807-3.073,3.612-6.15.084-.159.153-.325l.235-.2a.538.538,0,0,1,.023.377,1.441,1.441,0,0,0-.16.2l-5.207,9.3c-.47.842-.923,1.694-1.382,2.541a11.139,11.139,0,0,0-.9,1.634l-.176.005q-.022-.4-.044-.808l.058-.255A6.01,6.01,0,0,0,491.512,223.194Z" transform="translate(-457.383 -192.421)" fill="#ae5e37"/>
    <path id="Path_11431" data-name="Path 11431" d="M561.133,211.244l-.043-.024Z" transform="translate(-520.647 -192.144)" fill="#e5e5e5"/>
    <path id="Path_11432" data-name="Path 11432" d="M485.938,131.776c.016.287.034.573.05.86-.1,1.644.022,3.286,0,4.93-.048,4.45-.221,8.9-.151,13.353,0,.225.016.449.025.674a8.238,8.238,0,0,0,.039,1.448l-.058.255c-.359.148-.385-.113-.426-.358-.044-.263.083-.547-.094-.793l-.022-2.94c.158-1.885.062-3.778.144-5.664.087-2.006.179-4.011.23-6.018.043-1.733.044-3.465.065-5.2.03-.2.06-.4.09-.6Z" transform="translate(-452.626 -120.94)" fill="#1c1365"/>
    <path id="Path_11433" data-name="Path 11433" d="M239.18,389.8c.038-.007.1-.032.11-.02.037.054-.016.064-.053.076Z" transform="translate(-231.737 -352.087)" fill="#f8f7f6"/>
    <path id="Path_11434" data-name="Path 11434" d="M518.8,90.45h.313c.058.142-.016.263-.029.409C518.853,90.787,518.875,90.586,518.8,90.45Z" transform="translate(-482.692 -83.963)" fill="#f1f1f1"/>
    <path id="Path_11435" data-name="Path 11435" d="M516.182,83.658l.054-.118c.059.077-.027.083-.056.118Z" transform="translate(-480.341 -77.774)" fill="#f1f1f1"/>
    <path id="Path_11436" data-name="Path 11436" d="M255.24,224.99a.34.34,0,0,1-.02-.044l.022-.017a.327.327,0,0,1-.014.067Z" transform="translate(-246.133 -204.424)" fill="#e5e5e5"/>
    <path id="Path_11437" data-name="Path 11437" d="M418.736,229.971a.614.614,0,0,0-.2-.33,14.681,14.681,0,0,0-1.23-2.085,1.7,1.7,0,0,0-.677-1.239,37.98,37.98,0,0,0-1.871-3.351v-.006a3.719,3.719,0,0,0-.161-.378c-1.073-1.924-2.144-3.851-3.227-5.77-.768-1.361-1.553-2.71-2.33-4.066l-.006-.01a.166.166,0,0,0-.1-.181l-.1-.209.066-.124c.386.158.489.562.67.87,1.435,2.434,2.834,4.889,4.256,7.331.527.906,1.088,1.792,1.633,2.687a22.208,22.208,0,0,0,1.2,2.022,1.594,1.594,0,0,0,.6,1.08l.176-.005a3.218,3.218,0,0,0,.2.631c.572,1.033,1.16,2.056,1.751,3.077.052.091.081.243.247.208l.044.028a.048.048,0,0,0-.028.033.049.049,0,0,0,.011.043c-.056.178.075.291.15.417.5.851.994,1.7,1.49,2.548q1.718,2.946,3.438,5.9a.572.572,0,0,0,.774.332,2.941,2.941,0,0,1,2.144.129h0a1.3,1.3,0,0,1-.41.61,7.666,7.666,0,0,0-.966.555c-.2.1-.217.208-.1.4.231.376.437.768.653,1.154.046.1.092.2.139.3-.015.065.023.085.075.095l.078.128a.682.682,0,0,0,.234.389v.009a.168.168,0,0,0,.1.2l.047.1a.8.8,0,0,0,.258.417l.115.208.076.123h-.006a.589.589,0,0,0,.227.388c.1.158.195.313.287.476a.942.942,0,0,1,0,1.042.627.627,0,0,1-.9.138l-.1-.089-.086-.121a8.173,8.173,0,0,0-.82-1.445l-.128-.2c-.41-.928-.961-1.779-1.435-2.672-.123-.23-.274-.242-.5-.131-.473.23-.961.428-1.442.639-.091-.014-.193-.008-.233-.124a3.291,3.291,0,0,1,1.14-1.915.522.522,0,0,0,.122-.779c-1.1-1.934-2.17-3.884-3.259-5.824-.652-1.161-1.317-2.314-1.977-3.47A.182.182,0,0,0,418.736,229.971Zm9.529,15.561c-.035-.05-.086-.117-.129-.188-.39-.654-.712-1.341-1.137-1.981a15.117,15.117,0,0,1-1.1-2.177c-.205-.453-.1-.73.391-.829a.729.729,0,0,0,.529-.364c.127-.232.257-.431-.22-.423a2.876,2.876,0,0,0-1.176.25c-.177.081-.283.127-.443-.021-.291-.27-.4-.124-.521.208s.073.787-.356,1.016c-.04.022-.034.208,0,.291.057.127.174.039.27.024a.848.848,0,0,1,.9.327,4.132,4.132,0,0,1,.27.606c.269.566.784.972.941,1.617.068.283.354.5.5.776s.2.46.589.341c.221-.068.3.254.294.5a.253.253,0,0,0,.275.249C428.258,245.755,428.255,245.648,428.265,245.531Z" transform="translate(-383.996 -193.039)" fill="#2d7c38"/>
    <path id="Path_11438" data-name="Path 11438" d="M375.787,363.619l-.152-.25c0-.141.171-.114.2-.22a3.046,3.046,0,0,1,1.857-.027c.471.173.682,0,.9-.38,1.609-2.778,3.232-5.549,4.845-8.326.116-.2.336-.358.284-.637v-.006a14.144,14.144,0,0,0,1.628-2.806c.271-.137.222-.576.58-.625l.022.938a41.254,41.254,0,0,0-2.159,3.753,3.078,3.078,0,0,1-.191.3,5.23,5.23,0,0,0-.682,1.365.906.906,0,0,0-.23.265c-.513.932-1.047,1.854-1.563,2.785q-.953,1.712-1.886,3.44c-.093.173-.325.383-.07.583a7.692,7.692,0,0,1,1.184,1.473c-.008.261.358.578-.113.768-.451-.2-.914-.376-1.349-.608-.293-.155-.484-.1-.631.168q-1.055,1.922-2.1,3.849a2.469,2.469,0,0,0-.189.242c-.163.272-.337.53-.705.484a.771.771,0,0,1-.652-.625.143.143,0,0,0,.012-.216c.023-.068.044-.137.066-.208.828-1.335,1.58-2.71,2.328-4.1.185-.341.123-.513-.2-.687-.358-.192-.687-.438-1.025-.66Zm-.659,5.483a.224.224,0,0,0-.026.354c.018.018.1,0,.132-.03.167-.173-.061-.22-.108-.326.066-.007.137-.009.15-.095,0-.017-.038-.059-.054-.056-.088.016-.089.088-.1.153Zm3.632-6.015c-.081.054-.123.076-.158.1-.348.3-.656.625-1.178.234a1.245,1.245,0,0,0-.89-.152.283.283,0,0,0-.272.261c-.018.145.06.208.187.265.267.116.513.271.785.378.355.142.423.352.234.684q-.976,1.711-1.943,3.43c-.071.127-.265.242-.151.4s.24-.025.357-.062.186.022.25.112c.08.114.174.115.233-.014.469-1.03,1.2-1.917,1.581-2.991.159-.448.37-.765.909-.715.17.017.475-.065.368-.293A8.169,8.169,0,0,1,378.759,363.087Z" transform="translate(-353.293 -316.761)" fill="#ae5e37"/>
    <path id="Path_11439" data-name="Path 11439" d="M406.52,219.411l.04.023-.04-.024Z" transform="translate(-381.922 -199.48)" fill="#f1f1f1"/>
    <path id="Path_11440" data-name="Path 11440" d="M463.312,378.738a.978.978,0,0,0-.793-1.251,2.643,2.643,0,0,1-1.832-2.228,2.085,2.085,0,0,1,.838-2,3.191,3.191,0,0,1,1.514-.814.562.562,0,0,0,.474-.638c-.009-1.992-.088-3.981-.167-5.972-.074-1.85-.091-3.7-.133-5.555a.457.457,0,0,0,.079-.125c.034-.142.013-.353.221-.328.173.022.074.233.13.345.181.363-.021.782.168,1.14.01.188.029.375.031.563.01,1.078.045,2.155.141,3.232l.039.509c-.037,1.138.081,2.271.1,3.407a23.3,23.3,0,0,1,.119,2.679c-.039.4.112.678.615.821a2.861,2.861,0,0,1,1.7,1.1c.075.114.2.217.117.367s-.214.062-.323.065c-.463.013-.923.022-1.39.018-.39,0-.5.071-.4.538a9.5,9.5,0,0,1,.055,1.812c.01.786-.194,1.549-.257,2.327C464.038,379.168,463.813,379.167,463.312,378.738Zm.083-2.876c-.03-.511-.062-1.022-.087-1.533-.006-.145-.052-.226-.205-.234a1.927,1.927,0,0,0-1.48,1.137,1.685,1.685,0,0,0,1.538,1.868c.156-.013.252-.093.21-.217C463.246,376.53,463.421,376.206,463.4,375.862Z" transform="translate(-430.511 -325.253)" fill="#1c1365"/>
    <path id="Path_11441" data-name="Path 11441" d="M501.49,312.381l.042.022-.041-.023Z" transform="translate(-467.157 -282.758)" fill="#e5e5e5"/>
    <path id="Path_11442" data-name="Path 11442" d="M514.19,382.517l.134-.157c-.03.062-.058.123-.089.186Z" transform="translate(-478.555 -345.443)" fill="#ccd4cd"/>
    <path id="Path_11443" data-name="Path 11443" d="M485.783,329.529a1.594,1.594,0,0,1-.6-1.08q.018-.44.038-.879c.177.246.05.531.094.793.041.245.068.506.426.358Q485.761,329.126,485.783,329.529Z" transform="translate(-452.519 -296.365)" fill="#0c0c0d"/>
    <path id="Path_11444" data-name="Path 11444" d="M505.442,382.5a.182.182,0,0,1,.094.195.5.5,0,0,0-.087.005l-.009-.01Z" transform="translate(-470.702 -345.569)" fill="#bec0c4"/>
    <path id="Path_11445" data-name="Path 11445" d="M505.288,384.33l-.028.039.018-.049Z" transform="translate(-470.54 -347.199)" fill="#bec0c4"/>
    <path id="Path_11446" data-name="Path 11446" d="M561.72,480.5c-.009.117-.006.224-.122.219-.148-.006-.277-.086-.275-.249,0-.246-.073-.568-.294-.5-.391.119-.456-.082-.589-.341s-.428-.493-.5-.776c-.157-.645-.672-1.051-.941-1.617a4.132,4.132,0,0,0-.269-.606.852.852,0,0,0-.9-.327c-.1.015-.212.1-.27-.024-.038-.084-.044-.269,0-.291.428-.229.235-.682.356-1.016s.23-.476.521-.208c.16.148.265.1.443.021a2.878,2.878,0,0,1,1.176-.25c.478-.007.348.191.22.423a.728.728,0,0,1-.529.364c-.5.1-.593.375-.391.829a15.119,15.119,0,0,0,1.1,2.177c.424.643.747,1.33,1.137,1.981A1.631,1.631,0,0,0,561.72,480.5Z" transform="translate(-517.451 -428.012)" fill="#188526"/>
    <path id="Path_11447" data-name="Path 11447" d="M485.326,348.667l-.015,1.544c-.189-.36.013-.779-.168-1.141-.056-.112.043-.323-.13-.345-.205-.025-.188.187-.221.328a.457.457,0,0,1-.079.125l-.037-.51-.022-.938c-.077-.1-.017-.2,0-.3A1.7,1.7,0,0,1,485.326,348.667Z" transform="translate(-452.012 -314.154)" fill="#0c0c0d"/>
    <path id="Path_11448" data-name="Path 11448" d="M589.488,509.32a.222.222,0,0,1,.1.2A.168.168,0,0,1,589.488,509.32Z" transform="translate(-546.128 -459.168)" fill="#bec0c4"/>
    <path id="Path_11449" data-name="Path 11449" d="M589.419,537.11l.086.121-.02.016-.1-.1Z" transform="translate(-546.046 -484.061)" fill="#bec0c4"/>
    <path id="Path_11450" data-name="Path 11450" d="M594.6,518.3l.076.123Z" transform="translate(-550.722 -467.212)" fill="#bec0c4"/>
    <path id="Path_11451" data-name="Path 11451" d="M585.7,503.36l.075.095C585.73,503.445,585.687,503.427,585.7,503.36Z" transform="translate(-542.733 -453.83)" fill="#bec0c4"/>
    <path id="Path_11452" data-name="Path 11452" d="M385.069,472.62a8.2,8.2,0,0,0,.313,1.644c.1.228-.2.313-.368.293-.539-.05-.75.267-.909.715-.382,1.074-1.112,1.961-1.581,2.991-.059.128-.153.127-.233.014-.065-.09-.122-.153-.25-.112s-.246.22-.357.063.08-.276.151-.4q.968-1.717,1.943-3.43c.19-.332.121-.542-.234-.684-.27-.1-.519-.263-.785-.378-.127-.055-.2-.12-.187-.265a.283.283,0,0,1,.272-.261,1.245,1.245,0,0,1,.89.152c.522.391.83.066,1.178-.234C384.946,472.7,384.988,472.674,385.069,472.62Z" transform="translate(-359.602 -426.294)" fill="#e26727"/>
    <path id="Path_11453" data-name="Path 11453" d="M378.642,530.3c.047.1.275.153.108.326-.028.029-.114.048-.132.03a.224.224,0,0,1,.026-.354Z" transform="translate(-356.812 -477.961)" fill="#e26727"/>
    <path id="Path_11454" data-name="Path 11454" d="M379.521,529c.009-.066.01-.14.094-.153.016,0,.057.04.054.056-.012.085-.084.088-.15.095Z" transform="translate(-357.69 -476.662)" fill="#e26727"/>
    <path id="Path_11455" data-name="Path 11455" d="M461.7,569.96h-1.425V571.4h-.615V568h2.25v.477h-1.635v1.014H461.7Z" transform="translate(-429.615 -511.731)"/>
    <path id="Path_11456" data-name="Path 11456" d="M481.008,570.611h-1.372l-.287.793h-.64l1.338-3.4h.553l1.34,3.41H481.3Zm-1.2-.479h1.025l-.513-1.415Z" transform="translate(-446.712 -511.731)"/>
    <path id="Path_11457" data-name="Path 11457" d="M515.085,571.4h-.615V568h.615Z" transform="translate(-478.806 -511.731)"/>
    <path id="Path_11458" data-name="Path 11458" d="M436.045,93.1h-.615V89.69h.615Z" transform="translate(-407.869 -83.282)"/>
    <path id="Path_11459" data-name="Path 11459" d="M451.619,93.1H451l-1.579-2.42V93.1h-.615V89.69h.615l1.584,2.43V89.69h.61Z" transform="translate(-419.877 -83.282)"/>
    <path id="Path_11460" data-name="Path 11460" d="M483.31,93.1v-3.41h1.046a1.689,1.689,0,0,1,.833.2,1.4,1.4,0,0,1,.563.571,1.758,1.758,0,0,1,.2.849v.171a1.743,1.743,0,0,1-.205.852,1.376,1.376,0,0,1-.572.567,1.771,1.771,0,0,1-.85.2Zm.615-2.932v2.459h.4a.941.941,0,0,0,.743-.292,1.232,1.232,0,0,0,.263-.834v-.19a1.268,1.268,0,0,0-.25-.848.908.908,0,0,0-.728-.293Z" transform="translate(-450.84 -83.279)"/>
    <path id="Path_11461" data-name="Path 11461" d="M516.005,93.1h-.615V89.69h.615Z" transform="translate(-479.632 -83.282)"/>
    <path id="Path_11462" data-name="Path 11462" d="M528.418,92.305h-1.372l-.287.794h-.64l1.333-3.41H528l1.341,3.41H528.7Zm-1.2-.477h1.025l-.513-1.415Z" transform="translate(-489.262 -83.282)"/>
  </g>
</svg>
