<svg id="file-list-3-fill_2_" data-name="file-list-3-fill (2)" xmlns="http://www.w3.org/2000/svg" width="34.33" height="34.33" viewBox="0 0 34.33 34.33">
  <path id="Path_6930" data-name="Path 6930" d="M0,0H34.33V34.33H0Z" fill="none"/>
  <path id="Path_6931" data-name="Path 6931" d="M26.317,30.608H6.291A4.291,4.291,0,0,1,2,26.317V3.43A1.43,1.43,0,0,1,3.43,2H23.456a1.43,1.43,0,0,1,1.43,1.43V20.6h5.722v5.722A4.291,4.291,0,0,1,26.317,30.608Zm-1.43-7.152v2.861a1.43,1.43,0,0,0,2.861,0V23.456ZM7.722,9.152v2.861H19.165V9.152Zm0,5.722v2.861H19.165V14.874Zm0,5.722v2.861h7.152V20.6Z" transform="translate(0.861 0.861)"/>
</svg>
