<svg id="Football" xmlns="http://www.w3.org/2000/svg" width="30.623" height="31.17" viewBox="0 0 30.623 31.17">
  <path id="Path_131" data-name="Path 131" d="M13.156,39.7c-.7.116-1.331.214-1.95.348-.114.027-.228.225-.29.368-.588,1.352-1.154,2.705-1.731,4.053A1.6,1.6,0,0,1,7.632,45.5a1.529,1.529,0,0,1-1.417-1.255A1.955,1.955,0,0,1,6.343,43.2c.695-1.689,1.431-3.359,2.144-5.04a1.705,1.705,0,0,1,1.093-.991c1.645-.549,3.313-1.045,4.922-1.682a2.62,2.62,0,0,1,2.647.093,3.383,3.383,0,0,0,4.475-1.315,1.088,1.088,0,0,1,.6-.437q3.42-.781,6.854-1.5a1.548,1.548,0,0,1,1.879,1.214,1.569,1.569,0,0,1-1.08,1.842q-3.413,1.187-6.835,2.351a.824.824,0,0,0-.62.664c-.608,2.364-1.27,4.713-1.887,7.075a7.036,7.036,0,0,0-.146,1.374c-.09,1.662-.153,3.327-.259,4.995a2.324,2.324,0,0,1-.3,1.016q-1.933,3.2-3.918,6.365a1.89,1.89,0,0,1-3.2.122,1.925,1.925,0,0,1-.021-2.261c1.113-1.82,2.244-3.628,3.346-5.46a1.816,1.816,0,0,0,.243-.855,30.817,30.817,0,0,0-.073-3.191q-.969,1.67-1.935,3.343a4.639,4.639,0,0,1-.483.839,3.81,3.81,0,0,1-1.142,1.018c-2.287.964-4.6,1.864-6.894,2.781a1.9,1.9,0,0,1-2.577-1.021A1.939,1.939,0,0,1,4.3,51.933c1.965-.813,3.945-1.579,5.906-2.4a1.3,1.3,0,0,0,.609-.6c.53-1.108,1.068-2.219,1.493-3.369a9.834,9.834,0,0,0,.378-2.06C12.851,42.276,12.992,41.035,13.156,39.7Z" transform="translate(-3.019 -29.003)" fill="#c8c8c8"/>
  <path id="Path_132" data-name="Path 132" d="M210.488,215a3.515,3.515,0,0,1,1.009-2.5,3.4,3.4,0,0,1,2.463-1.015,3.521,3.521,0,0,1-.067,7.042,3.4,3.4,0,0,1-2.423-1.044A3.516,3.516,0,0,1,210.488,215Z" transform="translate(-186.788 -187.385)" fill="#c8c8c8"/>
  <path id="Path_133" data-name="Path 133" d="M114.482,10.593a3.3,3.3,0,1,1,3.242-3.307A3.27,3.27,0,0,1,114.482,10.593Z" transform="translate(-98.878 -4)" fill="#c8c8c8"/>
</svg>
