<svg xmlns="http://www.w3.org/2000/svg" width="18.425" height="28.03" viewBox="0 0 18.425 28.03">
  <path id="Spending" d="M126.606,40.23a.728.728,0,0,1,.447.764c-.012.526,0,1.053,0,1.58,0,.585-.195.778-.774.779h-4.205a5.282,5.282,0,0,1,.434.692c.248.593.478,1.2.7,1.8.058.165.113.232.3.231.95-.011,1.9-.007,2.85,0,.538,0,.734.2.737.734v1.657c0,.528-.207.728-.744.73-.933,0-1.866,0-2.8,0-.165,0-.235.04-.268.217a6.957,6.957,0,0,1-2.341,4.152,8.824,8.824,0,0,1-3.972,1.9c-.4.087-.81.151-1.252.233.083.1.155.18.229.259,2.906,3.148,5.627,6.454,8.344,9.76a.59.59,0,0,1,.134.687.626.626,0,0,1-.631.359q-1.761-.006-3.523,0a.764.764,0,0,1-.618-.311c-1.686-1.989-3.361-3.986-5.07-5.954-1.308-1.505-2.655-2.974-4-4.447a1.355,1.355,0,0,1-.413-1.036c.031-.638.006-1.277.009-1.916a.643.643,0,0,1,.73-.732c1.07-.018,2.142,0,3.21-.066a6.142,6.142,0,0,0,3.364-1.124,3.465,3.465,0,0,0,1.275-1.779c.017-.055.024-.114.04-.195H110.98c-.622,0-.807-.182-.808-.795V46.8c0-.516.206-.719.725-.719h7.644c-.066-.121-.112-.216-.165-.3a3.47,3.47,0,0,0-1.759-1.343,8.887,8.887,0,0,0-3.23-.482H111c-.634,0-.826-.2-.826-.84,0-.7.012-1.4,0-2.1a.747.747,0,0,1,.43-.776Z" transform="translate(-109.412 -39.48)" fill="none" stroke="#d9d9d9" stroke-width="1.5"/>
</svg>
