<svg xmlns="http://www.w3.org/2000/svg" width="55.846" height="55.961" viewBox="0 0 55.846 55.961">
  <g id="gymnastic_federation_of_india" data-name="gymnastic federation of india" transform="translate(0 0)">
    <path id="Path_11575" data-name="Path 11575" d="M83.911,23.19c.8.437.795,1.363,1.173,2.053s.682.933,1.507.534c1.364-.649,2.019-.281,2.23,1.255.2,1.425.771,2,2.2,1.734.992-.173,1.6.194,1.446,1.387-.174,1.359.065,2.348,1.808,2.22,1.081-.076,1.521.451,1.2,1.706-.5,2-.426,2.081,1.5,2.663,1.044.305,1.252.78.842,1.713-.153.347-.2.749-.375,1.089-.44.888-.3,1.387.757,1.592,1.323.277,1.316,1.165.829,2.247-.28.624-1.091,1.235-.716,1.887a4.545,4.545,0,0,0,2.415,1.859v.291c-1.2.3-1.5,1.505-2.2,2.3-.314.347.218.659.423.961,1.095,1.626,1.023,2.011-.57,3.159-.631.458-.941.874-.307,1.734,1.173,1.578,1.064,2.018-.713,2.906a1.354,1.354,0,0,0-.75,2.081c.481,1.1.283,1.751-1.044,1.918a1.492,1.492,0,0,0-1.364,2.2c.583,1.543-.263,1.824-1.429,1.942-.645.062-1.347-.052-1.8.6-.089.16-.269.347-.246.482.242,1.5-.614,1.647-1.746,1.561-.426-.035-1-.2-1.132.51-.263.267-.645.454-.593.929-.638.149-.74.444-.229.9-.017.187-.034.375-.048.562-.573.09-1.214-.25-1.705.288l-.3-.024-.341-.25c-.842-.468-1.006.146-1.245.759-.863,2.209-.887,2.23-2.94,1.183a1.224,1.224,0,0,0-1.947.836c-.368,1.45-1.163,1.245-1.958.621-1.272-1-2.261-.94-3.124.479-.385.631-.829.725-1.327.1a3.494,3.494,0,0,0-.419-.392c-1.443-1.29-1.678-1.273-3.018.229H67.5l-.379-.912-.774-.822A.87.87,0,0,0,64.86,74.2a3.63,3.63,0,0,1-1.443.777l-.784-.749a3.9,3.9,0,0,0-.887-1.762c-.034-.128-.072-.25-.246-.2-.307-.028-.658-.257-.873.18l-.269.121c-.6-.173-1.1.694-1.736.177a.352.352,0,0,0-.022-.279.342.342,0,0,0-.217-.172c-.341-.839,0-2.036-1.187-2.459l-.829.132c-.58-.281-1.333.184-1.838-.437l.072-.562c.8-.454-.321-1.8.924-2.046.392.565.726.149,1.071-.069.177.385.522.347.853.347-.136.465-.836,1.287.341,1.11s.992.593,1.142,1.183l.16.347h.092v.1l1.443.766c.621.42,1.705-.853,2.063.579.075.277.215.694.682.617s.409-.489.508-.784c.474-1.387.928-2.8,1.388-4.2h.774c-.413,1.561-.8,3.121-1.252,4.671-.119.42-.1,1.04.225.895,1.2-.538,1.664.621,2.483.9.426.9.955.586,1.5.135.791,0,1.6-.77,2.387.277.341.461.737-.066.726-.572a34.334,34.334,0,0,0-.14-3.891c-.259-1.966-.341-1.956-2.387-1.8a.675.675,0,0,0-.133.045l-.952-.257.078-.087-.082.087c.14-.274.283-.544.426-.815a1.345,1.345,0,0,1,1.5.08,1.568,1.568,0,0,0-.034.25c0,.028.061.076.1.076l4.256-.024a7.224,7.224,0,0,1,3.895-.905v.732c-.8.347-1.76.236-2.5.808h-1c-.57,0-1.143,0-1.705.031-.5.035-.716.264-.648.853.174,1.439.246,2.892.385,4.338.082.825.256,1.529,1.262.694a.836.836,0,0,1,1.153.083c.44.388.72.215.938-.243l.133-.43h-.119l-.027-.118h.931c.225.461.406.929.948.236.235-.3.532-.662,1.023-.5,1.91.628,1.187-.579.962-1.439a1.017,1.017,0,0,1,.764-.381c.477.538.682,1.966,1.76.565.188-.25.389-.194.607-.066.372.222.8.4,1.057-.066a1.107,1.107,0,0,0-.136-1.21c-.57-.822-1.088-1.679-1.617-2.528-1.2-1.925-1.194-1.925-3.271-1-.215-.347-.593-.277-.917-.347a13.879,13.879,0,0,1,3.472-2.018.992.992,0,0,0,.593.624c-.109.295-.358.527-.068.912.781,1.04,1.48,2.154,2.261,3.2s.8,1.04,1.552.073c.191-.246.645-.3.989-.409s.778.184,1.023-.295c1.32.142,1.562-.017,1.347-.9-.341-1.505.969-1.328,1.705-1.734.235-.51.822-.85.706-1.526.126-.066.372-.149.365-.191-.184-1.04.14-1.665,1.235-1.873.491-.094.382-.544.058-.742a24.782,24.782,0,0,0-4.962-2.33c-.184-.062-.481.229-.723.347-.266-.5.525-1.075-.1-1.561a22.619,22.619,0,0,0,2.316-7.023,1.4,1.4,0,0,0,.239.052.131.131,0,0,0,.078-.09V45.975a2.884,2.884,0,0,1,.73,2.608,4.05,4.05,0,0,0,.171,2.892.592.592,0,0,0-.31.635c-.566.659-.464,1.574-.853,2.3.184.454-.7.673-.256,1.186-1.218,2.143-1.207,2.119.992,3.121a7.916,7.916,0,0,1,1.947.981c.341.288,1.845.524,1.705.083-.477-1.488.952-1.574,1.286-2.386l.031-1.318c.58-.981.307-2.258,1.04-3.2,0,0-.321-.295-.491-.454.15-.347.682-.489.58-.988a4.19,4.19,0,0,1,.188-3.239c0-.028-.116-.139-.177-.208.153-.541-.546-.215-.566-.576.778-.544,1.047-1.186.242-1.9-.4-.347-.273-.614-.058-.978.143-.243.549-.506.16-.853a.94.94,0,0,0-.945-.062c-.948.257-1.886.541-2.831.815a.818.818,0,0,0-.6-.694c1.119-.392,2.237-.791,3.359-1.176.573-.194,1.108-.378.3-.992-.573-.433-.931-.877-.484-1.668.266-.472-.068-.669-.563-.659-.29,0-.682.187-.859-.246.887-.961.876-.95-.113-1.8a1.118,1.118,0,0,1-.495-1.1c.314-1.214-.437-.988-1.112-.891l-.031-.694c.474-1.533-2.125-1.411-1.559-2.993a.62.62,0,0,0-.648.142c-.317.281-.621.572-.928.86a1.01,1.01,0,0,0-.6-.579c.246-.347.512-.694.733-1.04s.252-.867-.314-.808c-1.364.146-1.419-.766-1.524-1.706-.583-.246-.795-1.075-1.562-1.04-.969-.031-1.934.094-2.34-1.238-.2-.659-.57.017-.662.236-.464,1.1-.849,2.237-1.3,3.343-.208.513-.379,1.186-1.286.694.9-1.3.8-2.958,1.582-4.318.269-.468.126-.843-.471-.916.085-.475.416-.905.252-1.429l-.017.017C82.755,23.859,83.485,24.008,83.911,23.19Z" transform="translate(-44.885 -20.613)" fill="#2f1e77"/>
    <path id="Path_11576" data-name="Path 11576" d="M26.257,44.957c.89-.381,1.218-1.439,2.138-1.814.252-.1.242-.51.109-.78a3.6,3.6,0,0,0-.491-.694c-1.05-1.207-.7-2.1.587-2.8.9-.489,1.136-1.127.471-2-.934-1.245-.239-1.973.846-2.33,1.364-.465,1.545-1.214,1.023-2.452-.341-.749-.491-1.425.846-1.446,1.511-.028,2.046-.784,1.92-2.317-.116-1.248.314-1.793,1.555-1.682s2.172-.26,1.879-1.831c-.2-1.04.457-1.144,1.2-1.228.829-.09,1.705.4,2.486-.194.549-.309.252-.832.314-1.262l.068-.472c1.023-.347,2.077.8,3.11,0,.969-.305.938-1.3,1.269-2.015.355-.8.7-.857,1.265-.316-.157,1.45.934.662,1.48.85h0c-.024.388-.307.773,0,1.165-.713,0-.767.482-.6.992a2.2,2.2,0,0,1,.276,1.387h-.723a9.019,9.019,0,0,0-.43-.9c-.164-.277-.181-.728-.566-.77s-.454.347-.559.694c-.222.694-.709.413-1.156.3-.3-.073-.641-.371-.9.035-.211.347.024.635.181.929a24.051,24.051,0,0,1,1.794,3.419c.089.257.416.44,0,.659a.46.46,0,0,1-.614-.2c-.225-.312-.409-.649-.621-.968a13.641,13.641,0,0,0-2.316-3.312,1.565,1.565,0,0,1-.5,1.1,1.513,1.513,0,0,1-1.121.4c-1.224.042-.726.534-.341,1.04.641.832,1.3,1.651,1.951,2.476-.341,0-.682-.437-.972.08l-1.743-1.838c-.532-.565-1.05-1.072-1.129.274-.034.569-.341.742-.846.59-.229-.25-.419-.212-.576.08a.115.115,0,0,1-.184,0c-.958,0-.57,1.172-1.218,1.446A2.318,2.318,0,0,1,33.9,31.3c-.341.125-.164.486-.164.753.119.77-.836.423-.955.947,0,.843.341,1.842-.958,2.081-.2.042-.467.281-.286.534s.5.649.747.635a2.281,2.281,0,0,1,1.187.347,10.451,10.451,0,0,0,3.922,1l.372.4a5.9,5.9,0,0,1-.614,2.632.944.944,0,0,0-.58-.922c.457-.538.573-.843-.276-1.217a25.375,25.375,0,0,0-4.59-1.415c-.593-.135-1.17-.17-.682.732.211.392.321.759-.123.981s-.955.444-.829.95c.157.631.856.454,1.344.569a6.447,6.447,0,0,1,.655.239c-.73.347-1.872-.642-2.309.714l.031-.031-.379.232-.072.118.068-.121h.246c0,.6.7,1.11.031,1.838-.819.9-.256,1.169.709,1.2,1.207.038,2.435-.347,3.622.149a14.023,14.023,0,0,0-1.794.045c-.566.083-1.337-.423-1.657.5-.576.1-1.627.212-1.1.926a1.509,1.509,0,0,1-.038,2.185c-.184.243.1.413.256.572L29.7,50.2l.078.825-2.046-.246c-.048-.17-.133-.3-.341-.277L27,49.9c.5-.694.621-1.564,1.211-2.2.362-.392.058-.694-.239-.95-.573-.506-1.149-1.006-1.726-1.505Z" transform="translate(-26.25 -17.858)" fill="#2f1e77"/>
    <path id="Path_11577" data-name="Path 11577" d="M39.138,132.058l-.815-.1c-.143-.25-.2-.617-.628-.506-.433,0-.706-.16-.566-.694.153-.576.3-1.158.443-1.734h1.289c.13.85.9.666,1.405.9-.419.378-1.023.77.017,1.113.539.18.938.5.89,1.1-.089,1.061.488.8,1.057.607.2.694-.655,1.581.423,2.081l.723-.045c.031.635-.365.78-.829.607a8.152,8.152,0,0,0-2.681-.218l-.14-.434a3.383,3.383,0,0,0,0-2.473h-.02A.5.5,0,0,0,39.138,132.058Z" transform="translate(-33.394 -89.741)" fill="#2f1e77"/>
    <path id="Path_11578" data-name="Path 11578" d="M34.046,121.147c.113-.694-.382-.909-.836-1.169-.208-.447-.58-.083-.859-.18-.829-.475-1.1-1.072-.4-1.883.593.076.866-.756,1.507-.548.743.465-.174,1.71.914,2.011,1.48.031,1.132.94.842,1.821C34.878,120.079,34.432,121.525,34.046,121.147Z" transform="translate(-29.742 -82.108)" fill="#2f1e77"/>
    <path id="Path_11579" data-name="Path 11579" d="M45.152,145.54a8.442,8.442,0,0,1,2.681.218c.464.173.859.028.829-.607.3-.42.522-.347.6.132a11.229,11.229,0,0,1,.065,1.127c-1.245.246-.126,1.592-.924,2.046l-.273-.277L48.082,147c.02-.291.143-.614-.235-.78-.733-.035-1.463-.087-2.2-.1C45.265,146.095,45.009,146.012,45.152,145.54Z" transform="translate(-38.679 -100.099)" fill="#231366"/>
    <path id="Path_11580" data-name="Path 11580" d="M32.831,113.034c-.641-.208-.914.624-1.507.548.733-1.217.6-2.209-.733-2.882l2.046.246c.286.236.624.444.46.912l-.235.347V113Z" transform="translate(-29.11 -77.775)" fill="#231366"/>
    <path id="Path_11581" data-name="Path 11581" d="M152.22,152.722c.136-.714.706-.544,1.132-.51,1.132.087,1.988-.062,1.746-1.561-.024-.142.157-.323.246-.482a7.48,7.48,0,0,0,.055,1c.307,1.564-.385,1.952-1.756,1.574-.092-.156-.191-.16-.29,0Z" transform="translate(-109.259 -103.557)" fill="#231366"/>
    <path id="Path_11582" data-name="Path 11582" d="M144.65,164.662c.5-.538,1.139-.2,1.705-.288C145.987,165.668,145.237,164.665,144.65,164.662Z" transform="translate(-104.27 -112.819)" fill="#231366"/>
    <path id="Path_11583" data-name="Path 11583" d="M38.626,127.61c.375.378.832-1.068,1.173.052a.169.169,0,0,1,.027.173l-.038.042H38.5Z" transform="translate(-34.322 -88.571)" fill="#231366"/>
    <path id="Path_11584" data-name="Path 11584" d="M149.181,161.108c-.512-.454-.409-.749.229-.9C149.546,160.567,149.587,160.893,149.181,161.108Z" transform="translate(-107.041 -110.115)" fill="#231366"/>
    <path id="Path_11585" data-name="Path 11585" d="M142.82,164.46l.341.25C142.946,164.748,142.881,164.609,142.82,164.46Z" transform="translate(-103.064 -112.891)" fill="#231366"/>
    <path id="Path_11586" data-name="Path 11586" d="M155.54,157.362c.1-.156.2-.153.29,0Z" transform="translate(-111.446 -108.179)" fill="#2f1e77"/>
    <path id="Path_11587" data-name="Path 11587" d="M101.5,17.649l.222.239.341.347-.034-.035.341.329c1.023.943,1.466-.43,2.22-.548a1.886,1.886,0,0,1,1.364,2.469c-.484-.114-.655.371-1,.534-.1-.52-.28-.964-.907-.975a2.237,2.237,0,0,1-2.387-.284c-.174-.149-.426.094-.58.284l-.928.295c-.249-.655-.737-1.061-1.166-.347-.467.794-.713.208-1.081.042-.283-.125-.467-.583-.846-.368s-.246.694-.2,1.04q.246,1.842.535,3.68h-.784q-.423-1.935-.842-3.867c-.109-.513-.379-.746-.9-.544l-.624-1.1a2.106,2.106,0,0,1,1.279-1.418,2.193,2.193,0,0,1,2.022.749c.5.555.822.5,1.306.17.2.114.2-.021.2-.166v.021q.682.1.6-.583l-.02.028.341-.316-.027.021h1.265l-.034-.024Z" transform="translate(-71.059 -16.779)" fill="#2f1e77"/>
    <path id="Path_11588" data-name="Path 11588" d="M125.834,20.713a1.87,1.87,0,0,0-1.364-2.469c.471-.669.89-.728,1.333.045.3.531.743.985,1.006,1.529.341.694.8.59,1.337.385.164.524-.167.954-.252,1.429C126.7,22.565,126.431,21.236,125.834,20.713Z" transform="translate(-90.973 -17.043)" fill="#231366"/>
    <path id="Path_11589" data-name="Path 11589" d="M91.82,21.7c.194.375.385.749.576,1.124-.481.628-1,1.016-1.705.3-.29-.392,0-.777,0-1.165A1.142,1.142,0,0,0,91.82,21.7Z" transform="translate(-68.629 -19.64)" fill="#231366"/>
    <path id="Path_11590" data-name="Path 11590" d="M73.16,25.5c-1.023.808-2.077-.347-3.11,0C71.08,24.175,72.124,25.3,73.16,25.5Z" transform="translate(-55.112 -21.706)" fill="#231366"/>
    <path id="Path_11591" data-name="Path 11591" d="M88.111,20.88c-.546-.187-1.637.6-1.48-.85Z" transform="translate(-66.028 -18.549)" fill="#231366"/>
    <path id="Path_11592" data-name="Path 11592" d="M137.082,23.17c-.426.818-1.156.669-1.862.6a1.714,1.714,0,0,1,1.163-.562l.682-.049Z" transform="translate(-98.056 -20.594)" fill="#231366"/>
    <path id="Path_11593" data-name="Path 11593" d="M112.155,16.318H110.89C111.309,15.524,111.729,15.624,112.155,16.318Z" transform="translate(-82.024 -15.76)" fill="#231366"/>
    <path id="Path_11594" data-name="Path 11594" d="M69.229,28.08c-.061.43.235.954-.314,1.262a2.006,2.006,0,0,1,.314-1.262Z" transform="translate(-54.36 -23.807)" fill="#231366"/>
    <path id="Path_11595" data-name="Path 11595" d="M108.9,18.16q.061.694-.6.583Z" transform="translate(-80.317 -17.328)" fill="#231366"/>
    <path id="Path_11596" data-name="Path 11596" d="M139.312,22.8l-.682.049C138.855,22.819,139.049,22.361,139.312,22.8Z" transform="translate(-100.303 -20.235)" fill="#2f1e77"/>
    <path id="Path_11597" data-name="Path 11597" d="M117.341,20.179,117,19.85Z" transform="translate(-86.05 -18.432)" fill="#231366"/>
    <path id="Path_11598" data-name="Path 11598" d="M107.961,19.78c0,.146,0,.281-.2.166a.205.205,0,0,1,.2-.166Z" transform="translate(-79.961 -18.386)" fill="#231366"/>
    <path id="Path_11599" data-name="Path 11599" d="M116.451,19.347,116.11,19Z" transform="translate(-85.464 -17.876)" fill="#231366"/>
    <path id="Path_11600" data-name="Path 11600" d="M114.851,17.617l-.341-.347Z" transform="translate(-84.409 -16.746)" fill="#231366"/>
    <path id="Path_11601" data-name="Path 11601" d="M110.341,17.33l-.341.316Z" transform="translate(-81.438 -16.785)" fill="#231366"/>
    <path id="Path_11602" data-name="Path 11602" d="M43.09,87.5l-.02,1.186a4.112,4.112,0,0,0,.085,2.9c.119.305.321.6.143.954l.1.5a19.936,19.936,0,0,0,7.244,11.316,2.434,2.434,0,0,0,.293,1.529q-1.149,2.754-2.305,5.5L47.19,110.6c1.76-1.259,2.207-3.36,3.049-5.164.31-.662-.863-1-1.364-1.446s-.812.212-1.054.531c-.819,1.092-1.582,2.23-2.367,3.35-.341,0-.682.028-.853-.347a41.675,41.675,0,0,1,3.342-4.446,2.838,2.838,0,0,1-1.262-1.418c-.341-.784-.682-.305-.9-.094-1.146,1.106-2.23,2.285-3.38,3.388a1.2,1.2,0,0,0-.256,1.425c-1.078-.492-.222-1.387-.423-2.081.658-.694,1.3-1.387,1.985-2.036,1.753-1.661,1.76-1.651.791-3.815l-4.751,3.031c-.508-.236-1.276-.052-1.405-.9l.038-.042c2.145-.128,3.676-1.512,5.208-2.774.587-.486-.058-1.269-.321-1.855-.239-.527-.682-.347-1.112-.163a34.129,34.129,0,0,0-3.3,1.387c-.556.291-1.685.218-1.344,1.439-1.088-.3-.171-1.547-.914-2.011l.027-.031c1.664.25,3.025-.8,4.546-1.165.682-.163,1.927-.662,1.446-2.032.024-.305.072-.614-.2-.846-.474-.569-1.023-.139-1.521-.1-.109-.142-.2-.111-.286.028-1.395.5-2.94.5-4.287,1.2l-.02-1.321c1.545.062,2.96-.728,4.57-.576.859.083,1.306-.87,1.207-1.987s-.682-1.117-1.432-1.04c-1.16.132-2.323.534-3.462-.087.321-.926,1.091-.42,1.657-.5a14.024,14.024,0,0,1,1.79-.035c1.289.284,1.63-.479,1.668-1.568V85.478l.041-.038.887.028c-.14.569.181,1.172-.109,1.734-.034.024-.1.052-.1.073A1.288,1.288,0,0,0,43.09,87.5Z" transform="translate(-32.872 -61.275)" fill="#231366"/>
    <path id="Path_11603" data-name="Path 11603" d="M146.166,49.119c-.761.86-1.47,1.769-2.292,2.559-.914.881-.177,1.387.266,2.06.5.749.962.569,1.507.08a19.066,19.066,0,0,1,3.653-2.691l.031.694c-.778,1.183-2.046,1.779-3.1,2.608l-.341.25h0a3.7,3.7,0,0,0-1.971.288,25.367,25.367,0,0,0-3.468-3.8.615.615,0,0,1,.375-.614c.894-.149,1.061,1.762,2.166.836a17.068,17.068,0,0,0,1.678-1.894c.29-.326.6-.635.9-.95A1.01,1.01,0,0,1,146.166,49.119Z" transform="translate(-101.5 -37.172)" fill="#231366"/>
    <path id="Path_11604" data-name="Path 11604" d="M146.975,123.937c-1.16,1.013-1.023,1.672.389,2.369A30.161,30.161,0,0,1,151,128.733c.116.694-.471,1.016-.706,1.526a.7.7,0,0,0-.259-.888c-1.3-.971-2.592-1.959-3.919-2.892-.8-.558-1.269.055-1.705.621a1.031,1.031,0,0,1-.624-.617,21.682,21.682,0,0,0,3.1-4.092C147.5,122.862,146.709,123.434,146.975,123.937Z" transform="translate(-103.704 -85.411)" fill="#231366"/>
    <path id="Path_11605" data-name="Path 11605" d="M164.744,116.223a19.265,19.265,0,0,0-5.927-1.817c-.443-.513.44-.732.256-1.186.256.163.256.548.723.579a30.894,30.894,0,0,1,4.979,1.106Z" transform="translate(-113.522 -79.421)" fill="#231366"/>
    <path id="Path_11606" data-name="Path 11606" d="M148.252,145.42c-.341-1.408-1.906-1.675-2.5-2.844-.136-.274-.651-.475-.341-.818s.682-.132.992.177c.6.617,1.258,1.186,1.811,1.848a1.636,1.636,0,0,0,1.385.735C149.814,145.4,149.572,145.562,148.252,145.42Z" transform="translate(-104.707 -97.946)" fill="#231366"/>
    <path id="Path_11607" data-name="Path 11607" d="M115.933,151.05q.651,2.6,1.293,5.2h-.931l-1.364-5.2Z" transform="translate(-84.686 -104.131)" fill="#231366"/>
    <path id="Path_11608" data-name="Path 11608" d="M145.693,36.3c-.74-.17-.934.42-1.235.895-.525.829-1.074,1.644-1.613,2.462-.027-.347-.136-.621-.535-.652.471-1.311,1.61-2.289,1.821-3.735C144.9,35.222,145.11,36.05,145.693,36.3Z" transform="translate(-102.728 -28.501)" fill="#231366"/>
    <path id="Path_11609" data-name="Path 11609" d="M167.69,105.652l-5.4-.347a.592.592,0,0,1,.31-.635l5.668-.021C168.358,105.163,167.84,105.3,167.69,105.652Z" transform="translate(-115.889 -73.823)" fill="#231366"/>
    <path id="Path_11610" data-name="Path 11610" d="M126.1,146.967c.038,1.626,1.2,2.816,1.6,4.3a1.017,1.017,0,0,0-.764.381,23.457,23.457,0,0,1-1.746-4.311v-.732h0C125.507,146.69,125.886,146.607,126.1,146.967Z" transform="translate(-91.447 -101.231)" fill="#231366"/>
    <path id="Path_11611" data-name="Path 11611" d="M158.057,78.781c.174,1.585,1.023,1.883,2.357,1.287a.818.818,0,0,1,.6.694l-.682.2c-2.193.659-2.418.538-3.011-1.6C157.845,79.543,157.576,78.666,158.057,78.781Z" transform="translate(-112.619 -56.918)" fill="#231366"/>
    <path id="Path_11612" data-name="Path 11612" d="M85.908,147.178c0-.291-.031-.583-.048-.874h1.1c1.023-.732,1.705.347,2.582.458-.143.271-.286.541-.426.815-.778-.347-1.5-1.04-2.438-.406Z" transform="translate(-65.53 -100.866)" fill="#231366"/>
    <path id="Path_11613" data-name="Path 11613" d="M172.773,93.56c-1.2-.187-2.459.884-3.673-.239.989-.721,2.091-.2,3.107-.347C172.227,93.345,172.926,93.019,172.773,93.56Z" transform="translate(-120.382 -66.166)" fill="#231366"/>
    <path id="Path_11614" data-name="Path 11614" d="M93.978,165.228c.034.347.068.694.1,1.058-.542.451-1.071.763-1.5-.135l.529-.95Z" transform="translate(-69.959 -113.374)" fill="#231366"/>
    <path id="Path_11615" data-name="Path 11615" d="M137.12,138.8a2.9,2.9,0,0,1-1.177.864.991.991,0,0,1-.593-.624l1.3-.94Z" transform="translate(-98.142 -95.672)" fill="#231366"/>
    <path id="Path_11616" data-name="Path 11616" d="M96.356,150.727q-.14,1.127-.273,2.258c-.59,0-.433-.617-.713-.874l.034-.6.113-.4-.113-.638Z" transform="translate(-71.797 -103.753)" fill="#231366"/>
    <path id="Path_11617" data-name="Path 11617" d="M159.171,93.449c-.116-1.387.208-2.819-.218-4.217-.123-.4.246-.409.539-.347v4.543a.131.131,0,0,1-.078.09A1.4,1.4,0,0,1,159.171,93.449Z" transform="translate(-113.679 -63.507)" fill="#231366"/>
    <path id="Path_11618" data-name="Path 11618" d="M101.044,148.31c1.432.17,2.913-.312,4.318.3l-4.256.024c-.034,0-.1-.049-.1-.076A1.566,1.566,0,0,1,101.044,148.31Z" transform="translate(-75.514 -102.328)" fill="#231366"/>
    <path id="Path_11619" data-name="Path 11619" d="M67.44,156.7l.16.347Z" transform="translate(-53.392 -107.822)" fill="#231366"/>
    <path id="Path_11620" data-name="Path 11620" d="M118.949,166.83c-.031-.166-.075-.347.133-.43Z" transform="translate(-87.317 -114.158)" fill="#231366"/>
    <path id="Path_11621" data-name="Path 11621" d="M54.642,49.418a18.8,18.8,0,0,0-3.39,4.481c-.191.368-.29.846-.866.763l-.375-.385a3.23,3.23,0,0,1,1.2-1.706c-1.988-1.04-3.676-2.428-5.815-2.9.119-.524,1.074-.177.955-.95,1.439.822,2.892,1.616,4.314,2.466,1.023.61,1.293-.305,1.8-.808.682-.666.068-1.04-.341-1.359a32.212,32.212,0,0,0-4.093-3.1c.648-.274.259-1.446,1.218-1.446-.44.621,0,.919.416,1.269,1.2.992,2.36,2.032,3.53,3.045C53.513,49.391,54.322,48.822,54.642,49.418Z" transform="translate(-38.869 -34.52)" fill="#231366"/>
    <path id="Path_11622" data-name="Path 11622" d="M42.454,82.67a22.638,22.638,0,0,0-5.924-.8c.437-1.356,1.579-.347,2.309-.714,1.313-.045,2.578.482,3.9.3l.041.045-.29,1.134Z" transform="translate(-33.024 -58.46)" fill="#231366"/>
    <path id="Path_11623" data-name="Path 11623" d="M88.6,32.62a7.1,7.1,0,0,1,1.1,2.632l-.546.593a14.3,14.3,0,0,1-1.279-3.218Z" transform="translate(-66.861 -26.773)" fill="#231366"/>
    <path id="Path_11624" data-name="Path 11624" d="M71.411,48.522l-1.531-2c.286-.517.645-.094.972-.08l1.395,1.467a.584.584,0,0,0-.44.167.6.6,0,0,0-.181.44h0A.631.631,0,0,0,71.411,48.522Z" transform="translate(-55 -35.684)" fill="#231366"/>
    <path id="Path_11625" data-name="Path 11625" d="M55.3,79.2l.065-.423a.944.944,0,0,1,.58.922l-.143.853-.133.271v.031c-.385-.2-.225-.94-.859-.895l-.041-.045.28-.274Z" transform="translate(-45.043 -56.925)" fill="#231366"/>
    <path id="Path_11626" data-name="Path 11626" d="M57.886,43.888l-.576.08C57.46,43.677,57.651,43.639,57.886,43.888Z" transform="translate(-46.717 -34.025)" fill="#231366"/>
    <path id="Path_11627" data-name="Path 11627" d="M35.889,83.16a.3.3,0,0,1-.136.229H35.51Z" transform="translate(-32.352 -59.786)" fill="#231366"/>
    <path id="Path_11628" data-name="Path 11628" d="M35.368,83.82l-.068.121.072-.118Z" transform="translate(-32.214 -60.217)" fill="#231366"/>
    <path id="Path_11629" data-name="Path 11629" d="M37.485,114c.068.218-.058.305-.235.347Z" transform="translate(-33.499 -79.93)" fill="#2f1e77"/>
    <path id="Path_11630" data-name="Path 11630" d="M95.136,31.393h.341c.443.038.911.191,1.265-.246a.644.644,0,0,1,.249-.083c.477.694,1,.281,1.507.066.87.049,1.756.132,2.183-.916a3.736,3.736,0,0,0-.038-1.928,12.009,12.009,0,0,1-.051-2.948l.928-.295-.044.617a13.036,13.036,0,0,0,.13,5.2c.74.142,1.964.933,2.135.142.423-1.939,1.323-3.881.778-5.965.628,0,.8.454.907.975.092,1.561-.648,3-.6,4.588.024.905.273,1.481,1.095,1.47,1.5-.017,2.357.895,3.182,1.932l-.31.628a21.82,21.82,0,0,0-6.05-2.493l-.368-.073-.089.035-.068-.066a1.539,1.539,0,0,0-1.705-.156H98.164L97.9,31.9l-.863.059c-.126-.139-.215-.087-.283.062l-.423.062-.416.1-.583.1C95.507,31.934,94.672,31.8,95.136,31.393Z" transform="translate(-71.549 -21.822)" fill="#231366"/>
    <path id="Path_11631" data-name="Path 11631" d="M101.758,37.66l.321,1.165H101.3a1.21,1.21,0,0,1-.31-1.162Z" transform="translate(-75.463 -30.065)" fill="#231366"/>
    <path id="Path_11632" data-name="Path 11632" d="M93.688,67.562c.061,8.2-7.008,15.606-15.374,15.346A15.2,15.2,0,0,1,63.329,67.139,15.448,15.448,0,0,1,78.645,52.06C86.561,52.039,93.886,59.211,93.688,67.562ZM82.731,54.383a1.686,1.686,0,0,1-1.125-.368c-.532-.888-1.1-.843-1.705-.076l-.29-.177c-.723-.818-1.252-.822-2,0-4.457.645-8.13,2.539-10.572,6.589a13.958,13.958,0,0,0-1.1,12.311,2.438,2.438,0,0,0,1.422,2.917,11.065,11.065,0,0,0,6.183,4.789c4.775,1.585,9.389,1.2,13.5-2.237,4.434-3.7,5.631-8.462,4.529-13.914a13.139,13.139,0,0,0-5.088-7.872,3.4,3.4,0,0,0-3.745-1.959Z" transform="translate(-50.683 -39.471)" fill="#2f1e77"/>
    <path id="Path_11633" data-name="Path 11633" d="M153.6,70.557c-.481-.114-.211.749-.733.583a40.279,40.279,0,0,0-2.309-4.671,3.738,3.738,0,0,1,1.971-.288,1.568,1.568,0,0,0-.381,1.319,1.548,1.548,0,0,0,.8,1.108C154.192,69.114,153.653,69.835,153.6,70.557Z" transform="translate(-108.165 -48.694)" fill="#2f1e77"/>
    <path id="Path_11634" data-name="Path 11634" d="M87.167,41.3c-.464.406.372.541.184.891-1.231.3-2.278,1.332-3.676.929l-.682-.049c-.341-.985.341-.759.887-.846.866-.132,2.009.024,1.992-1.425l.546-.593Z" transform="translate(-63.581 -31.731)" fill="#2f1e77"/>
    <path id="Path_11635" data-name="Path 11635" d="M81.993,142.339h-1.1c-.771-.25-1.364-1.02-2.278-.839a2.434,2.434,0,0,1-.293-1.529C79.657,140.577,81.147,140.941,81.993,142.339Z" transform="translate(-60.545 -96.894)" fill="#2f1e77"/>
    <path id="Path_11636" data-name="Path 11636" d="M135.41,48.36l.31-.628c1.426.368,1.364-1.12,2.046-1.692.4.031.508.305.535.652-.2.766-.958,1.325-.795,2.223a.615.615,0,0,0-.375.614Z" transform="translate(-98.182 -35.539)" fill="#2f1e77"/>
    <path id="Path_11637" data-name="Path 11637" d="M70.559,51.605a.605.605,0,0,1,.181-.44.584.584,0,0,1,.44-.167h.447a.938.938,0,0,1,.392.794l-2.312,1.883c-.321-.6-1.129-.028-1.446-.624,1.067.083,1.545-.725,2.084-1.436a.631.631,0,0,1,.2,0l.13.059Z" transform="translate(-53.933 -38.777)" fill="#2f1e77"/>
    <path id="Path_11638" data-name="Path 11638" d="M139.631,136.207l-.471-.694h.031a.343.343,0,0,0,.358-.305l1.183-1.079a1.031,1.031,0,0,0,.624.617c-.559.475-.171,1.183-.341,1.734C140.47,136.655,140.129,136.02,139.631,136.207Z" transform="translate(-100.653 -93.079)" fill="#2f1e77"/>
    <path id="Path_11639" data-name="Path 11639" d="M78.522,50.139a.938.938,0,0,0-.392-.8,2.806,2.806,0,0,1,1.705-.881l.682.049C80.279,49.587,79.167,49.563,78.522,50.139Z" transform="translate(-60.437 -37.12)" fill="#231366"/>
    <path id="Path_11640" data-name="Path 11640" d="M54.29,82.186c.634-.045.474.694.859.895.02.194-.113.236-.256.267L54,83.32C54.1,82.942,54.194,82.564,54.29,82.186Z" transform="translate(-44.536 -59.148)" fill="#2f1e77"/>
    <path id="Path_11641" data-name="Path 11641" d="M55.8,97.686a4.057,4.057,0,0,1-.085-2.9Z" transform="translate(-45.518 -67.382)" fill="#2f1e77"/>
    <path id="Path_11642" data-name="Path 11642" d="M111.16,44.442a1.523,1.523,0,0,1,1.705.156Z" transform="translate(-82.202 -34.374)" fill="#2f1e77"/>
    <path id="Path_11643" data-name="Path 11643" d="M100.14,44.9c.068-.149.157-.2.283-.062Z" transform="translate(-74.94 -34.701)" fill="#2f1e77"/>
    <path id="Path_11644" data-name="Path 11644" d="M56.085,90.828a1.289,1.289,0,0,1-.065-.215c0-.021.061-.049.1-.073Z" transform="translate(-45.867 -64.606)" fill="#2f1e77"/>
    <path id="Path_11645" data-name="Path 11645" d="M139.608,137.26a.343.343,0,0,1-.358.305Z" transform="translate(-100.712 -95.124)" fill="#231366"/>
    <path id="Path_11646" data-name="Path 11646" d="M57.41,84.171l.133-.271Z" transform="translate(-46.783 -60.269)" fill="#2f1e77"/>
    <path id="Path_11647" data-name="Path 11647" d="M56.922,106.386l-.1-.5Z" transform="translate(-46.394 -74.633)" fill="#2f1e77"/>
    <path id="Path_11648" data-name="Path 11648" d="M97.68,45.451l.416-.1Z" transform="translate(-73.319 -35.088)" fill="#2f1e77"/>
    <path id="Path_11649" data-name="Path 11649" d="M103.53,44.824l.259-.024-.126.069Z" transform="translate(-77.174 -34.729)" fill="#2f1e77"/>
    <path id="Path_11650" data-name="Path 11650" d="M116.59,45.33l.368.073Z" transform="translate(-85.78 -35.075)" fill="#2f1e77"/>
    <path id="Path_11651" data-name="Path 11651" d="M54.428,106.526l-.2-.846C54.493,105.912,54.452,106.221,54.428,106.526Z" transform="translate(-44.688 -74.496)" fill="#2f1e77"/>
    <path id="Path_11652" data-name="Path 11652" d="M49.216,105.221l-.286.028C49.012,105.11,49.107,105.086,49.216,105.221Z" transform="translate(-41.195 -74.137)" fill="#2f1e77"/>
    <path id="Path_11653" data-name="Path 11653" d="M156.38,65.68l.341-.25Z" transform="translate(-112 -48.204)" fill="#2f1e77"/>
    <path id="Path_11654" data-name="Path 11654" d="M94.553,155.2c.28.257.123.881.713.874L95,158.7l-.87-.028A16.261,16.261,0,0,1,94.553,155.2Z" transform="translate(-70.98 -106.842)" fill="#2f1e77"/>
    <path id="Path_11655" data-name="Path 11655" d="M95.583,152.31l-.113.4Z" transform="translate(-71.863 -104.954)" fill="#2f1e77"/>
    <path id="Path_11656" data-name="Path 11656" d="M101.282,41h.795l.341.555c-.512.215-1.023.61-1.507-.066Z" transform="translate(-75.448 -32.247)" fill="#2f1e77"/>
    <path id="Path_11657" data-name="Path 11657" d="M97.7,42.644c-.341.437-.822.284-1.265.246A2.145,2.145,0,0,1,97.7,42.644Z" transform="translate(-72.496 -33.312)" fill="#2f1e77"/>
    <path id="Path_11658" data-name="Path 11658" d="M55.816,80l-.266.444Z" transform="translate(-45.557 -57.721)" fill="#2f1e77"/>
    <path id="Path_11659" data-name="Path 11659" d="M113.6,26.83q.065,2.608.13,5.2A12.67,12.67,0,0,1,113.6,26.83Z" transform="translate(-83.672 -22.991)" fill="#2f1e77"/>
    <path id="Path_11660" data-name="Path 11660" d="M111.44,36.368a4.279,4.279,0,0,1-.038-1.928A3.736,3.736,0,0,1,111.44,36.368Z" transform="translate(-82.301 -27.962)" fill="#2f1e77"/>
    <path id="Path_11661" data-name="Path 11661" d="M123.951,60.537,120.2,58.584A3.41,3.41,0,0,1,123.951,60.537Z" transform="translate(-88.159 -43.668)" fill="#231366"/>
    <path id="Path_11662" data-name="Path 11662" d="M70.826,111.45l1.422,2.917A2.438,2.438,0,0,1,70.826,111.45Z" transform="translate(-55.565 -78.265)" fill="#231366"/>
    <path id="Path_11663" data-name="Path 11663" d="M107.182,55.832h-2C105.93,55,106.459,55.006,107.182,55.832Z" transform="translate(-78.261 -41.529)" fill="#231366"/>
    <path id="Path_11664" data-name="Path 11664" d="M113.625,56.47a3.912,3.912,0,0,1-1.705-.076C112.52,55.627,113.093,55.582,113.625,56.47Z" transform="translate(-82.703 -41.921)" fill="#231366"/>
    <path id="Path_11665" data-name="Path 11665" d="M75,52.75l.123.069L75,52.76Z" transform="translate(-58.374 -39.922)" fill="#231366"/>
    <path id="Path_11666" data-name="Path 11666" d="M90.4,81.088c.655.416,1.16-.184,1.4-.489a10.588,10.588,0,0,0,2.575-4.772c.191-1.144.02-1.9-1.405-1.7-.781.108-1.484.1-1.463-1.155,0-1.04.256-1.353,1.262-1.262a25.763,25.763,0,0,0,3.148,0c.624-.024.822.2.808.839-.106,5.2-1.627,9.755-6.913,11.978-3.182,1.339-6.531,1.734-9.747.257a11.525,11.525,0,0,1-6.647-7.154c-2.149-7,1.2-13.74,8.246-15.831a10.136,10.136,0,0,1,9,1.519c1.456,1.04,3.039,1.9,4.007,3.468.276.447,1.146,1.068.379,1.54a1.737,1.737,0,0,1-2.343-.243,16.085,16.085,0,0,0-1.34-1.848c-3.465-3.135-9.478-4.064-13.492.194a10.046,10.046,0,0,0,3.468,16.5,8.6,8.6,0,0,0,1.644.721,8.787,8.787,0,0,0,7.5-2.136c.174-.139.15-.326-.065-.447Z" transform="translate(-56.907 -45.534)" fill="#ed2e25"/>
    <path id="Path_11667" data-name="Path 11667" d="M92.556,82.324V77.24a4.3,4.3,0,0,1,1.191-3.1,4.154,4.154,0,0,1,3.018-1.282c1.524,0,3.1-.222,4.341.988.532.517,1.5,1.235,1.044,1.8-.409.506-1.647.423-2.387-.146a3.209,3.209,0,0,0-3.069-.652,2.375,2.375,0,0,0-1.91,2.6c.041,2.906,0,2.937,2.817,2.965.825,0,1.316.26,1.258,1.12-.051.794-.512,1.134-1.344,1.134-2.473,0-2.473.024-2.469,2.48,0,.87-.041,1.734,0,2.615s-.454,1.214-1.224,1.2-1.337-.2-1.279-1.262c.1-1.786.027-3.582.027-5.375Z" transform="translate(-69.931 -53.047)" fill="#ed2e25"/>
    <path id="Path_11668" data-name="Path 11668" d="M113.815,96.316c-.426.031-.853.049-1.276.09-.921.09-1.276-.347-1.265-1.262.024-2.029-.075-4.064,0-6.09.051-1.266-.276-1.9-1.627-1.713-1.095.153-1.456-.465-1.364-1.477a.96.96,0,0,1,.992-.971c4.488-.465,4.495-.482,4.509,4.058v7.39Z" transform="translate(-80.297 -60.786)" fill="#ed2e25"/>
    <path id="Path_11669" data-name="Path 11669" d="M136.02,50.927l4.966-2.767.484.662-5.16,2.41Z" transform="translate(-89.624 -31.458)" fill="#2f1e77"/>
    <path id="Path_11670" data-name="Path 11670" d="M137.89,73.882l5.614-.742.215.794-5.672.336Z" transform="translate(-90.857 -47.775)" fill="#2f1e77"/>
    <path id="Path_11671" data-name="Path 11671" d="M118.32,118.35l4.652,3.288-.368.735-4.423-3.624Z" transform="translate(-77.869 -77.306)" fill="#2f1e77"/>
  </g>
</svg>
