<svg id="Layer_1" data-name="Layer 1" xmlns="http://www.w3.org/2000/svg" viewBox="0 0 83.72 52.87"><defs><style>.cls-1{isolation:isolate;}</style></defs><g id="Group_42099" data-name="Group 42099"><g id="SATYAMEV_JAYATE_LOGO" data-name="SATYAMEV JAYATE LOGO"><g id="circle9"><circle cx="41.08" cy="26.62" r="0.26"/></g><g id="path11"><path d="M42.66,23.88a2.74,2.74,0,1,0,2.78,2.71h0A2.74,2.74,0,0,0,42.66,23.88Zm2.43,1.84A.2.2,0,0,0,45,26c0,.11.11.19.2.18a.25.25,0,0,0,0,.08,7.07,7.07,0,0,0-1,.11,7.64,7.64,0,0,0-1,.18l0-.1c.16-.05.51-.19.91-.36a8,8,0,0,0,.93-.45.42.42,0,0,0,0,.1Zm-.31-.59a.24.24,0,0,0,.22.38.3.3,0,0,1,0,.08,7.93,7.93,0,0,0-1,.37c-.4.17-.74.34-.88.42a.41.41,0,0,0-.05-.09c.14-.08.44-.31.79-.58a9.88,9.88,0,0,0,.77-.66l.07.08Zm-.46-.49a.25.25,0,0,0,.15.32.33.33,0,0,0,.17,0l0,.07a7.93,7.93,0,0,0-.83.6c-.34.27-.62.52-.74.63l-.07-.07c.11-.12.35-.41.61-.76a7.76,7.76,0,0,0,.57-.84l.09.06Zm-1.21,2a.42.42,0,0,1-.83,0,.41.41,0,0,1,.41-.42h0a.41.41,0,0,1,.42.41Zm.64-2.33a.24.24,0,0,0,.23.26.23.23,0,0,0,.16,0l.07,0a7,7,0,0,0-.64.8c-.26.35-.48.66-.56.8l-.09,0c.08-.15.23-.49.4-.9a8.52,8.52,0,0,0,.33-1Zm-.64-.19c0,.08.07.16.18.19a.21.21,0,0,0,.25-.08l.08,0a9.7,9.7,0,0,0-.41.93c-.16.41-.29.77-.33.93l-.1,0a9.48,9.48,0,0,0,.15-1,8.74,8.74,0,0,0,.07-1Zm-.67,0a.25.25,0,0,0,.33.11.28.28,0,0,0,.12-.12H43a6.85,6.85,0,0,0-.16,1c0,.43-.08.81-.08,1h-.1c0-.17,0-.54-.11-1a8.4,8.4,0,0,0-.19-1Zm-.65.15a.21.21,0,0,0,.26.07.2.2,0,0,0,.17-.2h.09a7.07,7.07,0,0,0,.11,1c.06.43.13.8.17,1l-.1,0c-.05-.16-.18-.51-.35-.91a8,8,0,0,0-.45-.93Zm-.59.32a.26.26,0,0,0,.35-.07.32.32,0,0,0,0-.16l.08,0a7.57,7.57,0,0,0,.37,1c.17.4.33.74.41.88l-.08.05c-.09-.14-.31-.44-.58-.79a9.88,9.88,0,0,0-.66-.77l.08-.07Zm-.48.45a.23.23,0,0,0,.31-.15.25.25,0,0,0,0-.17l.07-.05a7.81,7.81,0,0,0,.6.82,9.25,9.25,0,0,0,.63.75l-.07.07c-.12-.11-.41-.35-.76-.61a9.64,9.64,0,0,0-.84-.58l.06-.08Zm-.36.57a.25.25,0,0,0,.27-.23.24.24,0,0,0-.05-.16l.06-.07a8.17,8.17,0,0,0,.79.64c.35.26.66.48.8.56l0,.09a8.45,8.45,0,0,0-.9-.4,7.84,7.84,0,0,0-1-.35.56.56,0,0,0,0-.08Zm-.19.64c.08,0,.16-.07.19-.18a.21.21,0,0,0-.08-.25l0-.09a8.71,8.71,0,0,0,.94.42c.41.16.76.29.92.33a.36.36,0,0,0,0,.1,9.81,9.81,0,0,0-1-.15,8.76,8.76,0,0,0-1-.08s0-.07,0-.1Zm0,.67a.26.26,0,0,0,.11-.34.2.2,0,0,0-.11-.11v-.09c.34.07.67.12,1,.16s.81.08,1,.08v.1c-.17,0-.54.05-1,.1a8.56,8.56,0,0,0-1,.19s0-.06,0-.09Zm.15.65a.24.24,0,0,0-.12-.43s0-.06,0-.1a7,7,0,0,0,1-.1,8.44,8.44,0,0,0,1-.17.3.3,0,0,0,0,.1c-.16.05-.51.18-.91.35a9.9,9.9,0,0,0-.93.44.16.16,0,0,0,0-.09Zm.38.66-.06-.07a.26.26,0,0,0-.07-.35.29.29,0,0,0-.16,0l0-.09a7.89,7.89,0,0,0,1-.36,7.63,7.63,0,0,0,.88-.42l.06.09c-.15.09-.45.31-.8.58a6.88,6.88,0,0,0-.77.66Zm.4.41a.25.25,0,0,0-.33-.31l-.06-.08a7,7,0,0,0,.83-.6,9.25,9.25,0,0,0,.75-.63.46.46,0,0,0,.07.07c-.11.12-.35.41-.61.76a7.85,7.85,0,0,0-.58.84l-.07,0Zm.56.36a.25.25,0,0,0-.23-.27.25.25,0,0,0-.16,0l-.08-.06a9.73,9.73,0,0,0,.65-.79c.26-.35.48-.66.56-.8l.09.05a8,8,0,0,0-.4.89,8.5,8.5,0,0,0-.35,1Zm.64.19A.19.19,0,0,0,42.1,29a.19.19,0,0,0-.25.08l-.1,0a9.83,9.83,0,0,0,.43-.93c.16-.41.29-.76.33-.92l.1,0a9.32,9.32,0,0,0-.15,1,8.78,8.78,0,0,0-.09,1Zm.67,0a.25.25,0,0,0-.33-.11.25.25,0,0,0-.12.11h-.1a8.51,8.51,0,0,0,.17-1c0-.43.08-.81.08-1h.1c0,.16,0,.54.1,1a8.56,8.56,0,0,0,.19,1ZM43.6,29a.19.19,0,0,0-.25-.08c-.11,0-.19.12-.18.2l-.1,0a8.8,8.8,0,0,0-.1-1c-.06-.44-.13-.8-.17-1l.1,0c.05.16.18.51.35.91a7.9,7.9,0,0,0,.44.93Zm.59-.32a.24.24,0,0,0-.34.07.18.18,0,0,0,0,.16l-.1,0c-.11-.32-.23-.64-.37-1s-.33-.74-.41-.88l.09-.06a8,8,0,0,0,.57.8,9.72,9.72,0,0,0,.66.78s0,0-.06.05Zm.49-.46a.26.26,0,0,0-.32.16.22.22,0,0,0,0,.16l-.09.07a7,7,0,0,0-.6-.83,7.73,7.73,0,0,0-.63-.75.46.46,0,0,0,.07-.07c.12.11.41.35.76.61a9.75,9.75,0,0,0,.84.59.21.21,0,0,1,0,.06Zm.35-.57a.26.26,0,0,0-.27.23.28.28,0,0,0,.05.16l-.06.09c-.26-.23-.52-.45-.79-.65s-.66-.48-.8-.56a.93.93,0,0,0,.05-.1,9,9,0,0,0,.9.39,8,8,0,0,0,1,.34l0,.1Zm.19-.64c-.08,0-.16.07-.19.18a.22.22,0,0,0,.08.26l0,.07a7.72,7.72,0,0,0-.93-.41c-.41-.16-.77-.29-.93-.33l0-.1a9.32,9.32,0,0,0,1,.15,8.59,8.59,0,0,0,1,.07.36.36,0,0,1,0,.11Zm-1-.3a7.59,7.59,0,0,0-1-.07v-.1c.17,0,.54,0,1-.11s.67-.11,1-.19a.34.34,0,0,1,0,.1.25.25,0,0,0-.11.33.23.23,0,0,0,.12.12.22.22,0,0,1,0,.08,8.48,8.48,0,0,0-1-.15Z" transform="translate(-1.62 0)"/></g><g id="path13"><path d="M44.57,2.73c-.1-.06-.23-.33-.53-.33s-.47.37-.53.45.05.14.12.1.15-.33.44-.35.3.22.46.24S44.67,2.79,44.57,2.73Z" transform="translate(-1.62 0)"/></g><g id="path15"><path d="M40.76,2.88c.1,0,.27-.27.45-.33a.37.37,0,0,1,.41.16c.05.07.12.15.18.16s.1-.09.08-.09-.08-.27-.25-.38a.51.51,0,0,0-.45,0,1.81,1.81,0,0,0-.46.32l-.2.16A.4.4,0,0,0,40.76,2.88Z" transform="translate(-1.62 0)"/></g><g id="path17"><path d="M42.58,5.73c-.11,0,0,.2-.15.22s-.08-.2-.14-.18,0,.22,0,.26.18.16.25,0S42.64,5.73,42.58,5.73Z" transform="translate(-1.62 0)"/></g><g id="path19"><path d="M41.68,6.24a.37.37,0,0,0,0,.39c.08.11.18.14.2.11s-.09-.15-.15-.2S41.68,6.24,41.68,6.24Z" transform="translate(-1.62 0)"/></g><g id="path21"><path d="M43.62,6.78a.46.46,0,0,0,.25-.34.56.56,0,0,0,0-.36c-.07,0,0,.24-.11.39S43.43,6.82,43.62,6.78Z" transform="translate(-1.62 0)"/></g><g id="rect23"><rect x="46.53" y="28.32" width="0.15" height="0.16"/></g><g id="rect25"><rect x="46.45" y="28.65" width="0.15" height="0.14"/></g><g id="rect27"><rect x="46.42" y="28.98" width="0.15" height="0.12"/></g><g id="rect29"><rect x="46.29" y="24.79" width="0.15" height="0.14"/></g><g id="rect31"><rect x="46.53" y="24.79" width="0.15" height="0.14"/></g><g id="rect33"><rect x="46.56" y="25.17" width="0.15" height="0.14"/></g><g id="rect35"><rect x="46.07" y="24.46" width="0.15" height="0.14"/></g><g id="rect37"><rect x="46.83" y="25.19" width="0.15" height="0.14"/></g><g id="rect39"><rect x="47.22" y="26.11" width="0.15" height="0.14"/></g><g id="rect41"><rect x="47.51" y="25.52" width="0.15" height="0.14"/></g><g id="rect43"><rect x="47.22" y="25.84" width="0.15" height="0.14"/></g><g id="rect45"><rect x="47.51" y="25.24" width="0.15" height="0.14"/></g><g id="rect47"><rect x="47.18" y="25.22" width="0.15" height="0.14"/></g><g id="rect49"><rect x="46.83" y="24.84" width="0.15" height="0.14"/></g><g id="rect51"><rect x="47.22" y="25.56" width="0.15" height="0.14"/></g><g id="rect53"><rect x="43.5" y="28.92" width="0.15" height="0.1"/></g><g id="rect55"><rect x="43.54" y="29.24" width="0.15" height="0.1"/></g><g id="rect57"><rect x="43.82" y="28.93" width="0.15" height="0.1"/></g><g id="rect59"><rect x="43.23" y="29.26" width="0.15" height="0.1"/></g><g id="rect61"><rect x="43.81" y="29.24" width="0.15" height="0.1"/></g><g id="rect63"><rect x="44.12" y="29.24" width="0.15" height="0.1"/></g><g id="rect65"><rect x="44.34" y="28.88" width="0.15" height="0.1"/></g><g id="rect67"><rect x="44.12" y="28.17" width="0.15" height="0.1"/></g><g id="rect69"><rect x="43.82" y="28.49" width="0.15" height="0.1"/></g><g id="rect71"><rect x="44.12" y="28.49" width="0.15" height="0.1"/></g><g id="rect73"><rect x="44.08" y="28.88" width="0.15" height="0.1"/></g><g id="rect75"><rect x="44.48" y="27.44" width="0.15" height="0.1"/></g><g id="rect77"><rect x="44.71" y="28.17" width="0.15" height="0.1"/></g><g id="rect79"><rect x="44.38" y="28.5" width="0.15" height="0.1"/></g><g id="rect81"><rect x="44.42" y="28.17" width="0.15" height="0.1"/></g><g id="rect83"><rect x="44.43" y="27.84" width="0.15" height="0.1"/></g><g id="rect85"><rect x="44.19" y="24.72" width="0.15" height="0.14"/></g><g id="rect87"><rect x="44.27" y="25.4" width="0.15" height="0.14"/></g><g id="rect89"><rect x="44.19" y="24.39" width="0.15" height="0.14"/></g><g id="rect91"><rect x="43.91" y="24.39" width="0.15" height="0.14"/></g><g id="rect93"><rect x="44.22" y="25.02" width="0.15" height="0.14"/></g><g id="rect95"><rect x="36.68" y="26.15" width="0.15" height="0.1"/></g><g id="rect97"><rect x="36.68" y="25.92" width="0.15" height="0.1"/></g><g id="rect99"><rect x="36.95" y="25.09" width="0.15" height="0.1"/></g><g id="rect101"><rect x="36.91" y="24.7" width="0.15" height="0.1"/></g><g id="rect103"><rect x="36.43" y="25.09" width="0.15" height="0.1"/></g><g id="rect105"><rect x="36.91" y="24.38" width="0.15" height="0.1"/></g><g id="rect107"><rect x="37.39" y="24.38" width="0.15" height="0.1"/></g><g id="rect109"><rect x="36.43" y="25.57" width="0.15" height="0.1"/></g><g id="rect111"><rect x="36.98" y="26.17" width="0.15" height="0.1"/></g><g id="rect113"><rect x="36.68" y="24.38" width="0.15" height="0.1"/></g><g id="rect115"><rect x="37.72" y="24.36" width="0.15" height="0.1"/></g><g id="rect117"><rect x="37.14" y="24.38" width="0.15" height="0.1"/></g><g id="rect119"><rect x="37.14" y="24.7" width="0.15" height="0.1"/></g><g id="rect121"><rect x="36.43" y="25.91" width="0.15" height="0.1"/></g><g id="rect123"><rect x="35.57" y="25.12" width="0.15" height="0.1"/></g><g id="rect125"><rect x="35.61" y="25.92" width="0.15" height="0.1"/></g><g id="rect127"><rect x="36.68" y="24.7" width="0.15" height="0.1"/></g><g id="rect129"><rect x="35.83" y="24.73" width="0.15" height="0.1"/></g><g id="rect131"><rect x="35.83" y="25.57" width="0.15" height="0.1"/></g><g id="rect133"><rect x="35.83" y="25.12" width="0.15" height="0.1"/></g><g id="rect135"><rect x="35.55" y="24.46" width="0.15" height="0.1"/></g><g id="rect137"><rect x="35.27" y="25.12" width="0.15" height="0.1"/></g><g id="rect139"><rect x="35.27" y="24.73" width="0.15" height="0.1"/></g><g id="rect141"><rect x="35.27" y="24.46" width="0.15" height="0.1"/></g><g id="rect143"><rect x="35.54" y="25.57" width="0.15" height="0.1"/></g><g id="rect145"><rect x="35.57" y="24.73" width="0.15" height="0.1"/></g><g id="rect147"><rect x="36.43" y="24.4" width="0.15" height="0.1"/></g><g id="rect149"><rect x="36.42" y="24.73" width="0.15" height="0.1"/></g><g id="rect151"><rect x="36.44" y="26.17" width="0.15" height="0.1"/></g><g id="rect153"><rect x="36.68" y="25.1" width="0.15" height="0.1"/></g><g id="rect155"><rect x="36.67" y="25.57" width="0.15" height="0.1"/></g><g id="rect157"><rect x="36.1" y="25.92" width="0.15" height="0.1"/></g><g id="rect159"><rect x="35.88" y="25.92" width="0.15" height="0.1"/></g><g id="rect161"><rect x="36.08" y="24.41" width="0.15" height="0.1"/></g><g id="rect163"><rect x="36.1" y="25.57" width="0.15" height="0.1"/></g><g id="rect165"><rect x="35.83" y="24.46" width="0.15" height="0.1"/></g><g id="rect167"><rect x="36.1" y="25.1" width="0.15" height="0.1"/></g><g id="rect169"><rect x="36.1" y="24.73" width="0.15" height="0.1"/></g><g id="rect171"><rect x="34.77" y="28.15" width="0.16" height="0.13"/></g><g id="rect173"><rect x="35.05" y="28.48" width="0.16" height="0.13"/></g><g id="rect175"><rect x="34.22" y="28.77" width="0.16" height="0.13"/></g><g id="rect177"><rect x="34.22" y="28.45" width="0.16" height="0.13"/></g><g id="rect179"><rect x="33.93" y="28.43" width="0.16" height="0.13"/></g><g id="rect181"><rect x="34.22" y="29.12" width="0.16" height="0.13"/></g><g id="rect183"><rect x="36.37" y="29.17" width="0.16" height="0.13"/></g><g id="rect185"><rect x="35.85" y="29.17" width="0.16" height="0.13"/></g><g id="rect187"><rect x="36.08" y="29.16" width="0.16" height="0.13"/></g><g id="rect189"><rect x="36.08" y="28.5" width="0.16" height="0.13"/></g><g id="rect191"><rect x="35.85" y="28.85" width="0.16" height="0.13"/></g><g id="rect193"><rect x="35.81" y="28.51" width="0.16" height="0.13"/></g><g id="rect195"><rect x="35.57" y="28.85" width="0.16" height="0.13"/></g><g id="rect197"><rect x="36.08" y="28.84" width="0.16" height="0.13"/></g><g id="rect199"><rect x="34.48" y="28.15" width="0.16" height="0.13"/></g><g id="rect201"><rect x="36.67" y="29.16" width="0.16" height="0.13"/></g><g id="rect203"><rect x="35.57" y="29.17" width="0.16" height="0.13"/></g><g id="rect205"><rect x="36.37" y="28.85" width="0.16" height="0.13"/></g><g id="rect207"><rect x="36.67" y="28.85" width="0.16" height="0.13"/></g><g id="rect209"><rect x="34.8" y="28.45" width="0.16" height="0.13"/></g><g id="rect211"><rect x="34.8" y="29.16" width="0.16" height="0.13"/></g><g id="rect213"><rect x="34.56" y="29.16" width="0.16" height="0.13"/></g><g id="rect215"><rect x="34.77" y="28.84" width="0.16" height="0.13"/></g><g id="rect217"><rect x="34.48" y="28.45" width="0.16" height="0.13"/></g><g id="rect219"><rect x="34.52" y="28.79" width="0.16" height="0.13"/></g><g id="rect221"><rect x="35.07" y="29.16" width="0.16" height="0.13"/></g><g id="rect223"><rect x="35.32" y="28.84" width="0.16" height="0.13"/></g><g id="rect225"><rect x="35.05" y="28.85" width="0.16" height="0.13"/></g><g id="rect227"><rect x="35.32" y="28.48" width="0.16" height="0.13"/></g><g id="rect229"><rect x="35.54" y="28.51" width="0.16" height="0.13"/></g><g id="rect231"><rect x="35.32" y="29.16" width="0.16" height="0.13"/></g><g id="rect233"><rect x="38.13" y="28.48" width="0.16" height="0.13"/></g><g id="rect235"><rect x="37.44" y="27.37" width="0.16" height="0.13"/></g><g id="rect237"><rect x="37.14" y="27.12" width="0.16" height="0.13"/></g><g id="rect239"><rect x="37.18" y="27.44" width="0.16" height="0.13"/></g><g id="rect241"><rect x="37.49" y="27.77" width="0.16" height="0.13"/></g><g id="rect243"><rect x="37.72" y="27.37" width="0.16" height="0.13"/></g><g id="rect245"><rect x="37.44" y="27.12" width="0.16" height="0.13"/></g><g id="rect247"><rect x="37.8" y="27.71" width="0.16" height="0.13"/></g><g id="path249"><path d="M36.09,25.92c0-.06.07-.07.15-.16s0-.23,0-.21-.13.1-.18.21S36.07,26,36.09,25.92Z" transform="translate(-1.62 0)"/></g><g id="path251"><path d="M36.6,26.68c0-.07,0-.38,0-.38s-.09.28-.09.37S36.63,26.75,36.6,26.68Z" transform="translate(-1.62 0)"/></g><g id="path253"><path d="M43.19,1.37h0Z" transform="translate(-1.62 0)"/></g><g id="path255"><path d="M42.6,1.33Z" transform="translate(-1.62 0)"/></g><g id="path257"><path d="M35.78,25.32c0,.08.06.14.1.12s-.05-.08,0-.2,0-.27,0-.2S35.77,25.18,35.78,25.32Z" transform="translate(-1.62 0)"/></g><g id="path259"><path d="M35.67,25s.09,0,.06-.09.05-.09.09-.11,0-.06-.13,0a.13.13,0,0,0,0,.17Z" transform="translate(-1.62 0)"/></g><g id="path261"><path d="M40.65,4.23h0Z" transform="translate(-1.62 0)"/></g><g id="path263"><path d="M36,25.62c0-.11.1-.13.13-.2s0-.18,0-.11-.14.12-.15.2S36,25.69,36,25.62Z" transform="translate(-1.62 0)"/></g><g id="path265"><path d="M35.58,24.65s-.14.09-.1.18.1.11.07,0S35.61,24.68,35.58,24.65Z" transform="translate(-1.62 0)"/></g><g id="path267"><path d="M36.22,26a.21.21,0,0,0-.09.24c0,.1.07.12.09,0a.31.31,0,0,1,.1-.15.19.19,0,0,0,0-.24S36.31,25.88,36.22,26Z" transform="translate(-1.62 0)"/></g><g id="path269"><path d="M36.28,26.28c-.05.13,0,.25.07.25s.06-.15.07-.2,0-.22,0-.22S36.32,26.2,36.28,26.28Z" transform="translate(-1.62 0)"/></g><g id="path271"><path d="M35.44,24.55c-.07,0-.12.15-.09.2s.06,0,.06-.07S35.51,24.55,35.44,24.55Z" transform="translate(-1.62 0)"/></g><g id="path273"><path d="M36.87,26.72c.06,0,.07,0,.05-.07s-.15-.1-.15-.07S36.82,26.7,36.87,26.72Z" transform="translate(-1.62 0)"/></g><g id="path275"><path d="M40.73,4.14a.2.2,0,0,0-.06.07h0Z" transform="translate(-1.62 0)"/></g><g id="path277"><path d="M47.94,26a.11.11,0,0,0-.11.11c0,.06.11,0,.14,0a.07.07,0,0,0,0-.1Z" transform="translate(-1.62 0)"/></g><g id="path279"><path d="M47,25.61a.3.3,0,0,0,.19-.24c0-.08-.1,0-.15-.09s0-.13.11-.19-.16-.08-.35,0-.27.38-.2.34.13-.09.15-.08,0,0,0,.08a.12.12,0,0,0,.1.11s0,0,0-.09a.07.07,0,0,1,.1-.06c.08,0,0,.12-.07.16S46.84,25.68,47,25.61Z" transform="translate(-1.62 0)"/></g><g id="path281"><path d="M37,6.62Z" transform="translate(-1.62 0)"/></g><g id="path283"><path d="M52.72,5.71c-.14-.2-.26-.25-.38-.42s0-.23,0-.49c0-.74-.68-.87-1.1-1s-.46,0-.5-.16A4.64,4.64,0,0,0,50.44,3a2.21,2.21,0,0,0-.7-.63,1.28,1.28,0,0,0-.93-.21,1.76,1.76,0,0,0-.75.37c-.35.3-.32.51-.5.51a3.17,3.17,0,0,0-.81.18c-.27.08-.31,0-.35-.09a1.29,1.29,0,0,0-.15-.48c-.15-.21-.37-.24-.32-.52a1.47,1.47,0,0,0-.07-.83c-.09-.19-.18-.11-.18-.31a1,1,0,0,0-.21-.57,1,1,0,0,0-.82-.18c-.25,0-.29,0-.34-.06a.46.46,0,0,0-.49-.16c-.11,0-.17.16-.32.14S43.38,0,43.14.06s-.18.2-.28.11S42.7,0,42.61,0s-.12.17-.21.17S42.15,0,41.9,0a.75.75,0,0,0-.24.08c-.17.06-.07-.18-.42,0-.09,0-.18.33-.27.3a.46.46,0,0,0-.45-.09c-.14.06-.14.14-.35.14a1.14,1.14,0,0,0-.73,0A.53.53,0,0,0,39.1,1c.07.23,0,.61.1.72a.4.4,0,0,1-.13.47,6.06,6.06,0,0,0-.36.66c-.1.14-.27.06-.4,0a1.58,1.58,0,0,0-.63-.22.77.77,0,0,1-.66-.3A1,1,0,0,0,36.39,2a1,1,0,0,0-.62.14c-.08.06-.23.26-.35.23a.72.72,0,0,0-.43.09,1.55,1.55,0,0,0-.48.44,3.38,3.38,0,0,0-.24.41,1.42,1.42,0,0,1-.25.3c-.11.07-.41.36-.64.37a.85.85,0,0,0-.4.26c-.15.15-.15.48-.19.7s-.33.45-.44.57a1.35,1.35,0,0,0-.35.85c0,.2.07.37.16.4s.17,0,.24.07a.2.2,0,0,1,0,.21s.26.32.37.38.21,0,.25.13a3.68,3.68,0,0,0,.23.44c.09.12.05.14.19.32s.3.28.39.39S34,9,34,9s.3.06.52,0A.72.72,0,0,0,35,8.54c0-.14.11-.24.11-.12a4.21,4.21,0,0,1,.06.55c0,.17-.12.15-.2.29s0,.23-.05.36-.43.39-.45.83c0,.1.15.19,0,.33s-.1.27-.11.71.11.22,0,.32a.7.7,0,0,0,.12.8c.16.19.2.1.11.29s.15.65.28.83.47.3.47.6.48.58.52.61,0,.45.12.61.45.2.36.44a2.46,2.46,0,0,0,0,1,19.34,19.34,0,0,0,.37,2c.06.37-.28.79-.25,1.53s-.16,1.35-.36,1.37-.53-.11-.79,0-.31.55-.33.62-.42.2-.51.46a1,1,0,0,0,.1.7c0,.08-.15.17-.24.22a.53.53,0,0,0-.25.34c0,.09-.14.05-.23.06a.44.44,0,0,0-.27.29,1.67,1.67,0,0,0,0,.32c0,.11-.08.14-.1.21s0,.42,0,.54a4,4,0,0,0,0,.69,1.42,1.42,0,0,0-.24.25.88.88,0,0,0,0,.64c.07.12.35.09.33.21a4.55,4.55,0,0,0,.11,1.22,4.83,4.83,0,0,1,.35.81c.07.17.24.15.31.24a.49.49,0,0,0,.38.14c.28,0,.84.17,1.08.15s.26,0,.22,0a.71.71,0,0,0-.07.95,1.38,1.38,0,0,0,.73.39c.17,0,6.12.17,6.12.17s4.94-.05,5.23-.07a1.42,1.42,0,0,0,.72-.2.9.9,0,0,0,.45-.79c0-.32-.06-.45,0-.46s.49-.13.84-.25a1.91,1.91,0,0,0,.86-.62c0-.08.06-.37.23-.42s.08-.25.12-.32.2-.09.2-.31a4.13,4.13,0,0,1,.11-.86c0-.1.18-.19.26-.24s.08-.61,0-.67-.3-.12-.33-.39,0-.3,0-.45-.15-.18-.13-.3a.52.52,0,0,0-.11-.36c-.09-.07-.2,0-.22-.1a.43.43,0,0,0-.2-.35c-.09-.05,0-.12-.08-.24s-.5-.25-.32-.55a.59.59,0,0,0-.24-.79l-.06,0c-.11,0,0-.25-.14-.39a.91.91,0,0,0-.71-.37,1.56,1.56,0,0,1-.61,0,1,1,0,0,1-.25-.68,3.27,3.27,0,0,0-.38-1.1.72.72,0,0,1,0-.76,4.14,4.14,0,0,0,.28-1.48,7.31,7.31,0,0,1,0-1.55c.42-.07.11-.35.32-.49s-.05-.26.15-.39a.58.58,0,0,0,.31-.42,2,2,0,0,1,.28-.51c.08-.13,0-.29.05-.33s.5-.4.5-.57-.15-.26,0-.38a1.47,1.47,0,0,0,.35-.65c.05-.3-.26-.13,0-.44a.94.94,0,0,0,.2-.81c-.06-.2-.19-.17-.1-.35a.75.75,0,0,0,0-.33.87.87,0,0,0-.2-.46c-.15-.2.09-.06.07-.28s-.23-.42-.28-.55,0-.22-.08-.31a2.47,2.47,0,0,0-.28-.38c-.07-.07-.16-.33.06-.32s.22.34.27.47a.52.52,0,0,0,.32.28.48.48,0,0,0,.42-.06,3.35,3.35,0,0,0,.43-.49c.1-.1.3-.2.35-.35a.91.91,0,0,1,.25-.41c.14-.11.39-.25.48-.33a4.07,4.07,0,0,0,.42-.41A1.46,1.46,0,0,0,53,6.47c.07-.27-.13-.49-.32-.75ZM33.28,27s0-.05,0-.12,0-.13,0-.13,0,.06,0,.13S33.31,27,33.28,27Zm18.21-.68a.4.4,0,0,1,.17.3.39.39,0,0,1-.16.32,1.61,1.61,0,0,1,0-.62Zm-.36,0a5.08,5.08,0,0,1,.06-1.23,6.09,6.09,0,0,1,.13,2,6.91,6.91,0,0,1-.19,1c0,.11,0-1.41,0-1.82Zm-.58-1.6a2.76,2.76,0,0,1,.3,1.05,9.94,9.94,0,0,1,0,1.89,5.83,5.83,0,0,1-.24,1.16,8.49,8.49,0,0,1-.07-1.51c0-.23,0-1.28,0-1.61a4.58,4.58,0,0,1,0-1ZM46.36,4.07c.07-.15.17-.27.54-.53.13-.1.38-.27.52-.19s.34,0,.43.07.11.13.17,0a.9.9,0,0,1,.21-.51A1.1,1.1,0,0,1,49,2.53c.3,0,.72.12.79.43s-.25.4-.2.4a.34.34,0,0,0,.17,0,.29.29,0,0,0,.12-.1c0-.08,0-.17.12-.18s.05.14.05.18a.14.14,0,0,1-.07.1c-.07,0-.09.07,0,0s.11-.14.21-.12.06.32,0,.44-.12.35-.34.3-.44-.12-.47.05a2.55,2.55,0,0,1,0,.36c-.05.18-.12.15-.16,0s-.07-.12-.08,0,0,.2-.12.25-.6.08-.72.35,0,.38-.09.45a.25.25,0,0,1-.35-.07.09.09,0,0,1,0-.06.78.78,0,0,1,.21-.6c.17-.16.11-.26.26-.41s0-.24,0-.23,0,.3-.15.25S47.82,4,47.9,4s0-.38-.09-.38,0,.24,0,.42a.73.73,0,0,1-.26.57c-.27.15-.45,0-.59.1s-.16,0-.15.14,0,.19,0,.23-.52-.26-.36-.45.15,0,.23,0,.1-.27.29-.3a1.09,1.09,0,0,0,.58-.2.43.43,0,0,0,.11-.43c-.09,0,0,.18-.13.25s-.22,0-.4.08-.51.46-.65.42-.14-.14,0-.34ZM49,5.87c.14,0,0-.1.13-.27s.2-.19.33-.16.1.1,0,.29,0,.34-.08.48a.88.88,0,0,1-.61.34.64.64,0,0,0-.45.21c0,.09.21.16.3.19s0,.17-.17.19A.4.4,0,0,1,48,6.82a1.18,1.18,0,0,1,.23-.74c.11-.08.2.11.3.14A.78.78,0,0,0,49,6.16c.07,0,.09-.14,0-.15s-.29,0-.4-.06a1.41,1.41,0,0,1-.26-.5c0-.09-.07-.25.06-.28A2.14,2.14,0,0,0,49,5c.08,0,.2-.28.33-.31s.16,0,.17.17-.05.31-.16.29-.08,0-.19.1a1.05,1.05,0,0,0-.32.42.17.17,0,0,0,.1.23l0,0Zm-.29,4.79c.19,0,.18-.1.19-.19a.61.61,0,0,1,.45-.44.23.23,0,0,1,.24.23.19.19,0,0,1,0,.08c-.09.22-.23.18-.43.4S49,11,49,11.12s-.14.11-.13-.15c0-.09-.27,0-.34,0s-.21-.42-.37-.65-.33-.09-.42-.44.05-.23-.09-.45a1.23,1.23,0,0,1-.23-.4c0-.09-.11-.3.21-.55s.46-.15.5-.08a.41.41,0,0,1,.11.24c0,.15-.3.11-.44.3s-.16.22-.06.27S47.93,9,48,9a.61.61,0,0,0,.47-.13c.14-.08.18-.06.17.09s-.16.32-.36.43A.54.54,0,0,0,48,10c.07.14.15.16.2,0s0-.32.31-.36.2-.22.33-.22.17.19.1.32-.49.33-.49.61.1.28.21.28Zm-.39,1.69a.67.67,0,0,0,0,.46c0,.17,0,.31,0,.19a2.06,2.06,0,0,1-.14-.44c0-.12-.22-.16-.17-.33a5.12,5.12,0,0,1,.22-.47,3.33,3.33,0,0,1,.24-.46c0-.07.19,0,.26.15a.73.73,0,0,1-.12.54c-.13.23-.35.26-.33.36ZM48,14.64a.69.69,0,0,1-.29-.68.7.7,0,0,1,.35-.44c.12-.06.06-.24.12-.23s.13.17.09.32-.16.2-.25.43.17.72,0,.6Zm-.35-.74c.06.07-.21.11-.33-.15s0-.24-.06-.46.38-.58.45-.64.18.24.18.35-.36.4-.39.58a.38.38,0,0,0,.15.32Zm-.67.67c0,.14.12.17.12.22s0,.12-.26-.12c-.08-.07-.11-.2,0-.4a3.11,3.11,0,0,1,.2-.41c.09-.16.12-.14.12-.14s.14.35-.06.46,0,.21-.08.39ZM46.65,14c0,.19,0,.45-.14.4s-.2.26-.3.25-.13-.19-.11-.3.34-.39.37-.44,0-.25-.06-.34.24-.39.29-.39.2.37.13.47A.73.73,0,0,0,46.65,14Zm0,1c-.1,0-.22-.1-.23-.2a.17.17,0,0,1,.11-.18c.1,0,.12.16.18.19s0,.18-.06.19ZM46,13.5c0-.05-.16-.13-.12-.21s.2,0,.27.07a.33.33,0,0,1,0,.44c-.09.06-.18.07-.14-.07a.24.24,0,0,0,0-.23Zm.2,7s.21.51.25.66a3.89,3.89,0,0,1,.09.47c0,.09-.28-.15-.26-.26.09-.41-.18-.83-.08-.87Zm.08,1.25c.05,0,.39-.07.37,0a.57.57,0,0,1-.5.18s.07-.14.14-.18Zm2.56,2.05c.12,0,.27.27.23.38s-.13.19-.21.12,0-.27-.13-.31-.21-.07-.23-.2.23,0,.34,0Zm-.23-.32s.12.05.1.11,0,.11-.1.07a.11.11,0,0,1,0-.15l0,0Zm.95,5.86-.29.05h0s0-.19,0-.23.14-.3.14-.32-.11-.1-.12-.18a1.34,1.34,0,0,1,.12-.3l.25.26s.09.23,0,.22-.11.32-.14.34,0,.14,0,.16ZM49.72,24s-.09-.08,0-.1a.17.17,0,0,1,.12,0c.12.07.26.37,0,.35,0,0,0-.2-.13-.27Zm0-.46c-.07.17,0-.06,0-.13a.45.45,0,0,0-.21-.34c-.07,0-.05.06-.07.09s-.08-.13-.08-.16,0-.06.09,0a.68.68,0,0,1,.21.17.4.4,0,0,1,.11.4Zm-.13-.11c0,.06-.06.2-.09.2s0-.19,0-.26,0-.13.06-.13.06.13.06.19Zm-.21.4c.13.06.21.33.16.39s-.2.08-.2-.12-.09-.17-.16-.21-.1-.12,0-.14a.68.68,0,0,1,.24.08Zm-.06,1.22,0,.74h-.15V26h.14v.17h-.13v.15h.13v.14s-.71,0-.7-.08V26.3h.09v-.15h-.08V26h.08v-.15h-.09a.59.59,0,0,0,0-.13h.11v-.14h-.15v.05c-.08-.16-.23-.15-.37-.22L48,25.31H48v-.14h-.16v.1l-.16-.08-.06-.26h.11v-.14h-.13v0a1.9,1.9,0,0,0-.09-.36.78.78,0,0,1,.5,0h-.13v.14h.16v-.13l.17.06h-.06v.14h.16v-.1a6.28,6.28,0,0,1,.57.31H48.8V25H49v-.11l.35.23Zm-.75-.82c-.13,0-.26,0-.32-.07s-.16-.29-.2-.35-.06-.15,0-.15a.27.27,0,0,1,.26.14c.07.07.31.42.24.43Zm-.63-.07c-.1,0-.28.06-.28-.14s-.2-.26-.2-.37.17-.06.28,0,.33.53.21.54ZM47.45,24c0,.05,0,.2,0,.2h-.19c-.08,0,0-.21-.2-.33s-.24-.24-.19-.24h.27a.7.7,0,0,1,.33.37Zm-.41.54a.16.16,0,0,1-.14.13c-.09,0-.15-.11-.16-.18a.13.13,0,0,1,.11-.15h0a.16.16,0,0,1,.16.15.07.07,0,0,1,0,.05Zm0-1.19c0,.08-.2.11-.25,0s.07-.17,0-.32-.13-.33-.09-.34a.84.84,0,0,1,.32.62Zm-.23.67c0,.09-.08.09-.16.09s-.21,0-.21-.11-.23-.25-.23-.38.11,0,.21,0a.16.16,0,0,1,.14.1C46.69,23.83,46.84,24,46.84,24Zm-.6.83,0,.19h-.08v.14h.07a4.32,4.32,0,0,1,0,.46s-.18.17-.25.17-.09-.35-.21-.6l0,0h0V25h-.1l-.09-.17h.07v-.15h-.14l-.12-.19h0v-.14h-.1a.94.94,0,0,0-.1-.1h1a.78.78,0,0,0,0,.09h-.08v.14h.11a.52.52,0,0,1,0,.17h-.13v.14h.12Zm0,1.9v.17H46.1V27h.11c0,.06,0,.12,0,.17H46.1v.1h.14a1.42,1.42,0,0,0,.21.54H46.4v.1h.13a.54.54,0,0,1,.11.27l-.16.38v0h-.15v.1h.12c0,.08-.06.15-.08.22h-.12V29h.09a.31.31,0,0,0,0,.08c0,.13-.31,0-.32.16s.06.25,0,.25l-1.8,0a2,2,0,0,0,.42-.2v.06h.15v-.1h-.09l.08-.07a7.26,7.26,0,0,0,.83-.92h.08v-.1h0l0-.08.08-.19v.05h.15v-.1h-.14c0-.07,0-.16.08-.24h.1v-.1h-.07A6.22,6.22,0,0,0,46,26.3c0-.06.12.07.16.32h-.11v.1h.12Zm-.63,3.14c-.08-.08-.21-.18-.14-.2s.1,0,.21,0,.28.18.25.28,0,.16-.12.16-.28,0-.22-.07.1-.13,0-.22Zm-.53,0c-.05-.06-.18-.15-.11-.17a.62.62,0,0,1,.27,0,.41.41,0,0,1,.22.23s0,.22-.14.23-.3,0-.26-.07.07-.16,0-.22Zm.14.51c0-.06.13,0,.2,0s.05.07.06.1-.08.09-.16.09-.11-.11-.1-.15Zm.71,0s.12,0,.2,0,.06,0,.07.08-.09.08-.17.08a.11.11,0,0,1-.11-.09.07.07,0,0,1,0-.05Zm.16-.31a.15.15,0,0,0,0-.16c0-.08-.16-.22-.09-.23a.19.19,0,0,1,.17.08c.05.05.19.24.18.34s0,.07-.14.07-.14,0-.11-.1Zm-2-.21c-.07-.07-.23-.19-.17-.2s.12-.07.16,0,.37.29.37.38,0,.18-.15.18-.22-.05-.22-.1S44.18,29.91,44.12,29.85Zm-.47.08c0-.05-.19-.2-.14-.2a.48.48,0,0,0,.2-.07s.22.21.26.25.05.18,0,.21-.36.06-.3,0a.15.15,0,0,0,0-.18Zm-2.6.14s-.23.08-.29.06-.17-.24-.11-.29a2.48,2.48,0,0,1,.4-.26c.06,0,.13,0,.22.05s-.25.08-.28.16a.43.43,0,0,0,.06.27Zm-.56,0a.51.51,0,0,1-.3,0c-.14-.05-.22-.26-.16-.3a3.58,3.58,0,0,1,.78-.33l.13.07c.06,0-.43.2-.5.31s.08.22.05.26ZM39.88,30c.06.05,0,.12-.1.14s-.35-.33-.26-.4a2.14,2.14,0,0,1,.65-.25s.16.09.13.11l-.41.22a.12.12,0,0,0,0,.17Zm-.51.06a.26.26,0,0,1-.28,0c-.11-.09-.16-.3-.11-.35a.84.84,0,0,1,.4-.17c.11,0,.19,0,.19.07s-.24.11-.29.18.16.2.09.25Zm-3.84-1-.05-.07h.11v-.13h-.16v.07s0,0-.07,0,0-.33,0-.4,0,0,0,0,0,0,0,0a1.06,1.06,0,0,0,.75-.42c.07-.12.4,0,.62.16h-.05v.12h.16v-.05h0c.2.16.94,0,1.11.18l0,.05h0v.12h.16v-.05c.22.1.56.12.62.4s-.14.39-.21.41-2.45,0-2.51,0-.28,0-.39-.18l0-.06h.07V29Zm3.22.4c0-.06.17-.18.2-.24a.54.54,0,0,0-.05-.33c0-.05-.18-.31-.26-.33a2.16,2.16,0,0,1-.25-.1c-.13,0,0-.07,0-.07a.49.49,0,0,1,.16.05,1.27,1.27,0,0,1,.36.2,2.14,2.14,0,0,1,.28.39c.06.15-.07.23-.08.34s0,.14-.12.15-.28,0-.25-.05Zm.67-1.24h0a.43.43,0,0,0-.27-.1c-.08,0-.16-.07-.23-.19h0v-.12h-.11c-.13-.29-.2-.68-.1-.7a2.67,2.67,0,0,1,.69,0s0,.06.05.13h-.15v.12h.16v0a1.52,1.52,0,0,0,.24.78l.06.09h-.13v.13h.16v-.08a10.49,10.49,0,0,0,.73,1.1c.1.07,0,.1,0,.1a2.53,2.53,0,0,1-.55,0s0-.1,0-.24h.13v-.13h-.16V29s0,0,0-.06c-.13-.25-.31-.47-.33-.54a.47.47,0,0,0-.06-.15h.07v-.13Zm1.76,1.75a1.14,1.14,0,0,1,.25-.24l.17.06s-.2.11-.09.28-.13.15-.21.15-.15-.18-.12-.24Zm.27.53c0-.05,0-.13.15-.13s.29,0,.29,0a.22.22,0,0,1-.22.19C41.55,30.51,41.38,30.55,41.45,30.41Zm.27-.24c-.08,0-.16-.22-.14-.29a.28.28,0,0,1,.08-.15,1.13,1.13,0,0,0,.32.05c.1,0-.06.09,0,.13s0,.15.08.22-.21.06-.29,0Zm.34.12a1.62,1.62,0,0,1,.44,0s-.07.24-.17.24-.39,0-.39,0a.27.27,0,0,1,.12-.22Zm.54-.16c0,.08-.36.05-.42,0s-.17-.33-.1-.32a3.62,3.62,0,0,0,.46.06c.08,0,0,.19.06.26Zm0,.14H43s-.06.24-.11.25a1.85,1.85,0,0,1-.41,0s.05-.22.11-.23Zm.18-.16c0-.05,0-.26,0-.26s.28,0,.32-.05.13.28,0,.33-.3.05-.35,0Zm0-.53a3,3,0,1,1,2.92-3,3,3,0,0,1-2.92,3h0Zm-3.65-4.87v.1h.12c-.14.11-.3.22-.3.29h-.1v.1h.1a.51.51,0,0,1-.17.34l0,0h-.15v.1h.1a.37.37,0,0,0,0,.23h-.1V26h.15l0,.07c0,.15.07.37-.13.38s-.47-.13-.79-.2v-.09h-.15v.06h-.07v-.05h-.15v.05l-.11,0h0v-.08h-.15v0c-.14-.14-.14-.55-.28-.72a2.28,2.28,0,0,1-.3-.91h.13v-.1h-.15a.15.15,0,0,0,0-.07,10.48,10.48,0,0,1,2.85-.15c.16.11.09.26,0,.37l-.21.17V24.7h-.15Zm-2.55-1a.56.56,0,0,1,.46-.16c.09,0,.07.09,0,.11a.23.23,0,0,0-.18.23c0,.1.06.2-.06.2h-.18C36.43,24.12,36.43,23.87,36.54,23.74Zm-.08-.1a.8.8,0,0,0-.14.38c0,.1-.15.09-.23.1s-.05-.18,0-.3.09-.2.18-.21.26,0,.2,0Zm.72,0a.35.35,0,0,1,.31-.15c.13,0,.09.09,0,.17a.47.47,0,0,0-.19.38s-.31.07-.3,0A.58.58,0,0,1,37.18,23.68Zm1.89-2.83a1.56,1.56,0,0,1,.11-.57c0-.11,0-.23.11-.4s-.09-1.14.1-1.08,0,.57,0,.64a1.69,1.69,0,0,0,0,.45,1.65,1.65,0,0,0,.19.93.81.81,0,0,1,0,.44s-.11.12-.18.24-.07.2-.11.24-.29-.07-.4,0-.17.13-.18,0,0-.13.13-.27a1.09,1.09,0,0,0,.1-.25.72.72,0,0,0,.13-.45Zm-.84-10.67a.58.58,0,0,0-.15.47c0,.16,0,.46-.1.52s0,.3-.09.37-.31-.06-.28-.15.17-.14.19-.28-.12-.25-.26-.44.12-.24.25-.24.28,0,.22-.12-.35-.38-.39-.64.2-.21.26-.22,0,.28.11.3.08.05.16-.09S38,9.59,38,9.31s0-.5,0-.6.14-.28.22-.27,0,.29,0,.4.2.22.24.29a.22.22,0,0,1-.07.3c-.11.08,0,.14-.17.26s.09.37,0,.48ZM38,14.59a.51.51,0,0,1-.31.15c-.23,0-.06-.1,0-.28s-.11-.47.06-.53.25.1.35.2,0,.19-.09.26S38,14.53,38,14.59Zm-.54-.42c-.1.25-.28.25-.37.4s.17.18-.17.34c-.1.06-.23,0-.14-.07a.32.32,0,0,0-.08-.45c-.1-.08-.14-.32,0-.33s.21.28.34.27a.26.26,0,0,0,.22-.31c0-.13-.12-.14-.21-.25s-.07-.17-.14-.23-.13-.24,0-.23.34.26.43.33a.42.42,0,0,1,.13.53Zm0,1a.35.35,0,0,1-.34.06c-.12,0,.12,0,.2-.4,0-.16.31.16.13.34Zm.11-3.2a1,1,0,0,1-.2-.25.19.19,0,0,1,.1-.24c.09,0,.14.13.18.26s.2.2.2.32a.37.37,0,0,1-.26.37.64.64,0,0,1-.52-.08c-.09-.1,0-.18,0-.18s.16.14.3.17.09-.06.17-.12a.17.17,0,0,0,0-.24Zm-.31.88s-.09-.11,0-.16a.26.26,0,0,1,.19,0c.13,0,.15.09.27.07s.18-.21.27-.28.23.08.24.29,0,.18-.2.19,0-.09-.12-.07,0,.21-.08.39-.16.27-.19.13.05-.24-.07-.37-.22-.09-.3-.15Zm.76-1.21a.1.1,0,0,1,.1.11v0c0,.07,0,.16,0,.18s-.09-.06-.12-.07-.11-.24,0-.24Zm0,2.08c0-.1,0-.3,0-.33s-.16-.21,0-.25.08,0,.19.1a.6.6,0,0,1,.07.55c-.08.1-.23,0-.21-.07Zm-.25-5.6c-.09-.15-.6-.1-.82-.48-.08-.14,0-.26,0-.42s-.18-.24-.18-.37.21-.26.21-.26a.05.05,0,0,0,0,0c-.07-.08,0-.37.07-.39s.22.12.39.3.24,0,.29.11,0,.11.18.19.23,0,.31,0a.46.46,0,0,1,.19.5c0,.12-.06.18-.22.28s-.26-.11-.25-.23a.34.34,0,0,0-.21-.28L37.17,7C37,7,37.09,6.66,37,6.62c0,0,0,.18,0,.28a.7.7,0,0,0,.28.52c.23.11.45.14.62.23a.41.41,0,0,1,.22.56h0a.4.4,0,0,1-.48.17c-.07-.05.16-.16.07-.31ZM36,7.94c-.32-.27-.39-.43-.38-.63s.1-.25.21-.19.28.29.38.34,0,.24.06.27.05,0,.08-.05,0-.12,0-.18,0,0,0,0a.25.25,0,0,0,0-.17c0-.1-.11,0-.31-.36a1.08,1.08,0,0,0-.3-.26.36.36,0,0,1-.13-.23c0-.1-.24-.32-.15-.37s.21.18.34.23.16,0,.27,0,0,.25.18.4.27.15.31.25,0,.08,0,.13a.53.53,0,0,1,0,.52c-.14.21-.43.21-.36.25s.28,0,.39.25a.54.54,0,0,1-.19.7c-.21.11-.51,0-.44,0a.63.63,0,0,0,.23-.4c0-.16,0-.25-.28-.47Zm1.24-2.61c.06-.06.08.23.2.24a.37.37,0,0,1,.3.14c.06.08.06.17.17.24s.33.18.36.32-.13.3-.23.4-.06-.17-.26-.3-.55-.14-.64-.33A.66.66,0,0,1,37.23,5.33ZM40,5.59c0-.17,0-.34.09-.32s.13.12.06.31a1,1,0,0,0-.06.33c0,.29-.14.49-.4.48s-.11-.1-.27-.25-.26-.17-.32-.3a.61.61,0,0,1,0-.4c0-.15.23,0,.42-.11s.13-.22.23-.22.15.25.16.37a1.22,1.22,0,0,1,0,.27s.12-.06.1-.16Zm.84,1.29s0,.25-.05.33-.37.11-.41.27,0,.17-.06.27a.25.25,0,0,1-.18.08c-.11,0-.17-.07-.22-.22s-.06-.43-.2-.52a2,2,0,0,1-.47-.61c0-.09,0-.1.05-.09a2.86,2.86,0,0,1,.43.35c.12.11.12-.45.37-.36s.09.33.14.53c.11.44.08-.14.21-.17s.13.22.11.33.23-.26.29-.19Zm.55-1.72A1,1,0,0,1,40.92,5c-.06,0,0-.12.12-.09a2.17,2.17,0,0,0,.5.08,1.65,1.65,0,0,0,.75-.2c.16-.07.24-.11.26-.22s0-.1-.21,0a1.66,1.66,0,0,1-1,.18.67.67,0,0,1-.46-.34c-.07-.1-.07-.21,0-.21s.18.3.34.36a1.26,1.26,0,0,0,.72.06c.15,0,.31-.1.33-.2a.12.12,0,0,0-.07-.15c-.27-.13-.3,0-.48-.15s-.1-.24-.21-.53a.21.21,0,0,1,.09-.27h0c.07,0,.13,0,.14.18s-.06.34,0,.49.23,0,.47.17a1.12,1.12,0,0,0,.44.13c.14,0,.17-.14.34-.16s.11.09.28.13a.46.46,0,0,0,.45-.11c.12-.1.17-.08.2-.2s0-.14,0-.31.37,0,.21.48a.69.69,0,0,1-.38.37,1.07,1.07,0,0,1-.8-.15c-.23-.14-.06.11.19.2.49.16.6.1.74,0s.25-.31.43-.37.14.15,0,.33a.65.65,0,0,1-.55.31,1.26,1.26,0,0,1-.58-.08,1.56,1.56,0,0,1-.52-.32c-.12-.08-.06.07,0,.14A1.1,1.1,0,0,0,43.5,5a1.71,1.71,0,0,0,.81,0c.34-.12.24-.35.49-.5.09-.06.15.06.2.14a.35.35,0,0,1,0,.3c-.06.08-.13,0-.11-.07s-.13-.14-.17,0a1,1,0,0,1-1.09.56,1.14,1.14,0,0,1-.82-.39c-.1-.11-.1-.29-.2-.29s0,.06-.12.21a2,2,0,0,1-.42.39c-.15.12-.27,0-.59.23-.14.08-.4.06-.38-.09s.26-.09.39-.15S41.54,5.17,41.43,5.16Zm-.08-1.28c.15.11,0,.16.2.35a.94.94,0,0,0,.47.2.83.83,0,0,1-.44.06.8.8,0,0,1-.49-.39C41,4,41.22,3.77,41.35,3.88Zm2.23-.4c.07-.08.25-.06.26.15s0,.4-.24.52S43.23,4,43.23,4a.67.67,0,0,0,.3-.13c.13-.11-.05-.33,0-.43Zm1.5,3.85c.21-.17.1-.7,0-.81s.16,0,.28,0,0-.13-.19-.2-.08-.1,0-.16.23,0,.45.26.06.46,0,.64-.09.32-.28.32-.21.21-.28.33a.32.32,0,0,1-.35.18c-.1,0-.1-.1-.06-.12s.1,0,.11,0,0-.16,0-.25a3,3,0,0,0-.21-.33.24.24,0,0,1,0-.28c.09-.07.2.28.29.25s-.17-.38-.05-.47.11.3.13.28,0-.5.07-.43a.79.79,0,0,1,.16.44c0,.21,0,.39,0,.37Zm1.31,4.85c0-.27-.15,0-.21-.3s-.25-.1-.07-.3.25,0,.34.15a1.08,1.08,0,0,1,0,.93c-.19.3,0-.21-.07-.48Zm-.49.21a.26.26,0,0,1,.28.11c.13.22.12.43,0,.47s-.15-.05-.14-.22a.44.44,0,0,0-.15-.36Zm.34-1.08c-.12,0-.08-.1-.11-.16S46,11.05,46,11a.16.16,0,0,1,.06-.18.28.28,0,0,1,.29,0,.31.31,0,0,1,.17.32.32.32,0,0,1-.25.24ZM46,10.47c-.28,0,0,0,0-.16s-.05-.08-.14-.2-.11-.34.14-.36.28.13.34.35a.31.31,0,0,1-.25.37H46Zm-1.25,8.71a6.59,6.59,0,0,0,.39,1.38,5.51,5.51,0,0,1,.08.71c0,.19-.11.13-.11.27s-.06.43,0,.51.37.12.43.34a.37.37,0,0,1,0,.27.45.45,0,0,0,0,.28c0,.09.08,0,.13-.12s.22,0,.27.1a1.07,1.07,0,0,1,.07.39c0,.1-.06.1-.11.08s.06-.3,0-.39a.19.19,0,0,0-.2,0c-.12.06.13.36,0,.39s-.12.05-.17,0,0-.22,0-.25-.12-.05-.14.11,0,.05,0-.12.09-.3,0-.42a.8.8,0,0,1-.18-.27c0-.13,0-.24-.19-.28-.07,0-.33-.07-.3-.21a.24.24,0,0,0-.06-.29c-.08-.07.09-.31,0-.47a2.08,2.08,0,0,1-.3-1c0-.58-.06-1.32-.06-1.32a6,6,0,0,0-.17.94,9,9,0,0,0-.26,1.54.72.72,0,0,1,0,.29,3,3,0,0,1-.15.38.89.89,0,0,0,0,.51c0,.06-.16.1-.17-.1a1,1,0,0,1,.11-.5,1.83,1.83,0,0,0,.16-.26.66.66,0,0,0-.11-.36.83.83,0,0,1,0-.47c.1-.49.36-2.14.4-2.27s0-2,0-2.24-.23-.67-.06-.69c.39,0,.38-.08.45-.15s.36-.44.47-.45.35.08.34.16c-.05.35.28.64.1,1.38-.08.47-.18.93-.3,1.39-.21.66-.35.92-.29,1.25Zm.58,2.54c.07-.06.09.1.13.14s.17.18.14.2a.31.31,0,0,1-.21,0,.3.3,0,0,1-.06-.29Zm-.09,2.13c0-.05-.3-.27-.24-.27s.26,0,.42.12a.66.66,0,0,1,.2.34c0,.08,0,.08-.15.08s-.23,0-.2-.07a.27.27,0,0,0,0-.2Zm-.54-.06c-.12-.1-.27-.24-.21-.25a.48.48,0,0,1,.24,0,.75.75,0,0,1,.25.25c0,.07.17.3.08.3s-.3,0-.32-.08,0-.21,0-.25ZM44,23.21c.05.14-.06.23-.14.18a.77.77,0,0,1,0-.66.13.13,0,0,0-.05-.23c-.06,0-.06-.31.07-.31s.22.42.24.26A2.15,2.15,0,0,0,44,22c0-.18,0-.41,0-.4s.08-.3,0-.32,0-.61,0-.63.06-.44.13-.44.12.47.09.58,0,.11.08.23,0,.27,0,.35,0,.32,0,.54-.15.17,0,.47a2.58,2.58,0,0,0,.08.26c0,.07.11,0,.13-.12a1,1,0,0,1,.14-.3s.13,0,.17,0a.19.19,0,0,1,0,.24c0,.07-.11.11-.17.19s.18,0,.32,0a.26.26,0,0,1,.2.18.44.44,0,0,1,0,.2.71.71,0,0,1-.1.31.1.1,0,0,1-.14,0l0,0c0-.09.13-.21.13-.34a.18.18,0,0,0-.08-.15.27.27,0,0,0-.27,0,.15.15,0,0,0,0,.2.35.35,0,0,1,.12.17c0,.14-.08.15-.22.13s-.1-.2-.08-.4-.13-.13-.22-.29-.13,0,0,.06a.42.42,0,0,1,.1.32.22.22,0,0,1-.16.22s0-.15,0-.28-.15-.2-.21-.14,0,.29,0,.33Zm1,0s-.07,0-.09-.12,0-.16,0-.16A.1.1,0,0,1,45,23C45,23.08,45,23.18,44.94,23.2ZM44,23s.07.1.05.2,0,.12-.05,0S44,23,44,23Zm.1.64a.44.44,0,0,1,.27.09c.23.18.15.29.1.23a.67.67,0,0,0-.41-.22c-.05,0,0-.1,0-.1Zm1.5,0a.63.63,0,0,1,.27,0,1.38,1.38,0,0,1,.32.4c0,.12-.2.09-.27.09s0-.25-.25-.41c0,0-.15-.1-.07-.11Zm.14-.42c0-.06,0-.1,0-.11s.07.1,0,.14-.09,0-.08,0Zm-2.51-.5a.56.56,0,0,1,0,.66,6.87,6.87,0,0,1-1.2,0c-.15,0,0-.23-.07-.35s-.19-.25-.14-.31a.36.36,0,0,0,0-.47,1.49,1.49,0,0,1,0-.63,1.18,1.18,0,0,0,0-.56A3.17,3.17,0,0,1,42,19.31c.13-.25-.2-2.29,0-2.53.05-.06,0-.23.09-.25s.17.14.26.06a.39.39,0,0,1,.33-.07c.11,0,.18.13.24.15s.16-.13.2-.06.06,1.89,0,2a8.79,8.79,0,0,0,.35,1.6.89.89,0,0,1,0,.51,2.64,2.64,0,0,0,0,.28,1.36,1.36,0,0,1-.07.53c-.06.12-.15.39-.25.59a.69.69,0,0,0,.14.57ZM41.55,23c0-.06-.23-.19-.3,0a.36.36,0,0,0,0,.25c0,.05.13.12.15.22s-.18,0-.22-.07a.57.57,0,0,1,0-.18.55.55,0,0,1,0-.38.19.19,0,0,1,.2-.11.29.29,0,0,1,.23.12.39.39,0,0,1,0,.28s0,.13,0,.19-.09.08-.1.08a.08.08,0,0,1-.08-.1,1.42,1.42,0,0,1,0-.16.22.22,0,0,0,0-.16Zm-.11.18a.07.07,0,0,1-.09,0l0,0c0-.05-.05-.15.06-.16s.09.1.07.16Zm-1,.33c.1,0,.35,0,.29,0a.75.75,0,0,0-.25.22s0,.19,0,.22a.45.45,0,0,1-.28,0c-.12,0,.2-.46.28-.47ZM40.34,23a.14.14,0,0,1,.1.18c0,.07,0,.14-.06.14s-.07-.07-.08-.14,0-.18,0-.18Zm.63.49c.06,0,.24.06.09.16a.79.79,0,0,0-.28.32s-.15,0-.15-.08.28-.4.34-.4Zm.08-.69s0,0,0,.11,0,.48-.08.5-.07-.13,0-.24-.06-.25-.09-.33a2.25,2.25,0,0,0-.06-.36c0-.12-.1-.2-.13-.21s-.08.22-.16.29-.14.1-.15.14,0,.09,0,.09a.46.46,0,0,1,.23.06.28.28,0,0,1,.1.27.41.41,0,0,1-.16.29c-.09,0,0-.3,0-.34s-.06-.12-.12-.16a.28.28,0,0,0-.22,0,.15.15,0,0,0-.06.15.36.36,0,0,1,.06.28c0,.1-.24.14-.24-.17,0-.14.06-.28.13-.3s0-.35.07-.58.06-.33.25-.33.15.08.22.08,0-.29,0-.3.12-.23.19-.24.08.1.11.15a1.68,1.68,0,0,1,0,.5s0,.1,0,.1.2-.08.13.08-.08.1-.09.15,0,.13.08.1.1-.15.15-.17.17,0,.18.07,0,.14-.1.15-.2,0-.21,0-.08.12-.13.11ZM40,22.44a1.09,1.09,0,0,1,0,.26c0,.09,0,.21,0,.3s-.1.18-.07.26-.26.17-.29.07,0-.24.15-.23.1-.07,0-.27.07-.17.09-.25,0-.14-.08-.14-.3,0-.27-.07,0-.26.07-.33.08-.09.16,0,.21,0,.29-.11.26-1.15.16-1.07,0,.42-.1.6a.59.59,0,0,1-.12.22c-.16.19-.29.19-.33.16s0-.44.09-.44.1.23.14.23.08-.32,0-.45a1,1,0,0,1,0-.24c0-.31,0-1.05,0-1.09s0-1.46,0-1.54a7.54,7.54,0,0,1-.24-1.58,1.71,1.71,0,0,0-.1-.5.91.91,0,0,1,.16-.87,1,1,0,0,1,.79.13c.14.13.45.41.48.55a2.32,2.32,0,0,1,0,.91,1.32,1.32,0,0,0-.09.3,6.43,6.43,0,0,0,0,1.24c0,.1,0,.2,0,.28a2.64,2.64,0,0,0,.26.81.67.67,0,0,1,.12.58c-.08.05-.1-.26-.17-.31s-.12,0-.11,0a1.79,1.79,0,0,1,.17.6,1.57,1.57,0,0,0,.09.43c0,.22,0,.59-.14.6S41,21.16,41,21a1.18,1.18,0,0,0-.07-.2c0-.07,0-.16-.08-.16s.14.61,0,.72-.18.2-.21.14-.09-.76-.15-.87,0,.78-.09,1-.46.64-.42.81ZM39.32,24c0,.13,0,.14-.21.14s-.2,0-.2-.14a.73.73,0,0,1,.14-.31.34.34,0,0,1,.29-.17c.1,0,.26,0,.26,0s-.08.09-.15.16a.43.43,0,0,0-.13.3Zm0-1.14a.32.32,0,0,0,0,.35c.05.07.09.16.06.2s-.21,0-.28,0a.69.69,0,0,1,.08-.56.26.26,0,0,1,.23-.1.34.34,0,0,1,.2.13c.19.17.07.31.05.32s0-.15-.14-.3-.14-.06-.18,0Zm.12.38s-.1-.06-.08-.12,0-.13,0-.12a.09.09,0,0,1,.09.07.16.16,0,0,1-.05.17Zm-.13-.94c-.07.15-.34.43-.33.51s0,.11,0,.2c0,.26-.09.42-.12.4s.06-.2,0-.39-.27-.14-.32-.1,0,.52-.06.5a.47.47,0,0,1-.11-.41.43.43,0,0,1,.4-.29c.18,0,.19-.12.2-.25S39,22,39.22,22,39.33,22.11,39.27,22.25Zm-.55.86c0,.08,0,.16-.1.11s0-.24,0-.26.08.08.06.15Zm0,.39c.15,0,.2,0,.19.08s-.18.14-.22.22,0,.2-.06.25a1.22,1.22,0,0,1-.33,0c-.14,0-.06-.15,0-.3a.44.44,0,0,1,.43-.27Zm.68-10.35c.07,0,.21.22.13.3s0,.05-.09.25-.3.12-.35,0,.21-.45.31-.5ZM39,13c-.12.07-.14-.21-.1-.34a.75.75,0,0,1,.32-.36c.06,0,.27,0,.2.14A1.92,1.92,0,0,1,39,13Zm3.71-6.93a.2.2,0,0,0,.23,0c.1,0,.09-.09.25-.27s.24-.11.22,0-.21.43-.43.44-.23,0-.25,0-.21.12-.38,0-.36-.4-.32-.56.24-.24.4-.25.13-.14.16-.1a.64.64,0,0,0,.5.21c.22,0,0,.37-.22.39s-.21.08-.16.13Zm-.68.08a.81.81,0,0,0,.5.3,1,1,0,0,0,.66-.09c.21-.16.47-.75.63-.79s.18.84.16,1a.79.79,0,0,1-.52.44c-.13,0-.37,0-.3-.07s.2-.08.21-.16-.1,0-.21,0-.24-.07-.22,0,.1.15,0,.2-.48.09-.54,0,.11-.21.06-.26-.09.08-.21.12-.37,0-.33.06.15.05.22.07.14.06,0,.08a.77.77,0,0,1-.58-.1.59.59,0,0,1-.18-.55c0-.22.07-.71.15-.71s.35.39.49.53Zm2.51-.76c0-.09.12-.1.15-.14s0-.23.09-.29.1-.07.13,0,0,.25,0,.36a.36.36,0,0,1,0,.32c0,.14-.18.17-.35.2a.46.46,0,0,0-.31.31c-.08.21-.2,0-.2,0s-.07-.27,0-.31a1,1,0,0,0,.38-.27c.1-.09,0-.07.06-.18Zm-.32,2.4c.08-.12,0-.52.07-.52a.43.43,0,0,1,.19.29c.09.35-.17,0-.1.18a.48.48,0,0,1,0,.55.82.82,0,0,1-.6.25c-.15,0-.12-.05-.05-.11a.42.42,0,0,0,.06-.34c0-.14-.13-.28-.12-.36S43.93,8,44,8s-.08-.35,0-.38.17.31.23.23Zm.47,1c-.06-.11,0-.28.13-.28a.24.24,0,0,1,.25.22.36.36,0,0,1,0,.1.3.3,0,0,1-.32.22C44.53,9.06,44.81,9,44.71,8.82Zm.49,1.59c-.06-.11,0-.31.26-.28a.32.32,0,0,1,.28.18.77.77,0,0,1,0,.45c0,.1-.17.39-.15.07s-.2-.13-.35-.42ZM44.13,13.1a1,1,0,0,1,0-.63c.13-.12.29.53.51.7s.27.28.22.38-.24.28-.17,0-.48-.39-.55-.45Zm0,2.06c0-.06.15,0,.18,0a.1.1,0,0,1,0,.15.07.07,0,0,1-.05,0c-.09,0-.16-.12-.15-.21Zm-.06-.53c0-.09.15,0,.16,0s.07.2,0,.19-.24-.09-.18-.24Zm.1-.31a1.14,1.14,0,0,1,0-.58c0-.09-.13-.15-.17-.25s.11-.1.25,0a.37.37,0,0,1,.17.26c0,.14,0,.24,0,.26a.84.84,0,0,1,.24.56c0,.15-.12.24-.23.12a2.07,2.07,0,0,1-.27-.37ZM42.8,15c0-.25-.1-.47-.07-.5s.21.07.27.12a.62.62,0,0,1,.27.26c.06.2-.16.14-.16.2s.09.06.19.12,0,.17-.09.19-.41-.31-.41-.39Zm.25,1.1c-.06.06-.15.08-.17,0s0-.37.14-.31.28,0,0,.26Zm-.38-3.35c-.17-.1-.14-.28-.09-.24s.68.43.78.54a.36.36,0,0,1,0,.35c-.2.15-.59-.29-.65-.37s0-.23-.05-.28Zm0,.64s0,0,.06.06h0s.59.39.67.46a.48.48,0,0,1,0,.47c-.08,0-.38-.17-.38-.28S43,14,43,13.92s-.34-.22-.3-.3,0,0,0,0h0a.47.47,0,0,1,0,.17s-.07,0-.23.08-.3.38-.32.54.08.33-.08.27a.61.61,0,0,1-.3-.4c0-.11.24-.12.31-.26s0-.36.14-.38a.84.84,0,0,0,.44-.2Zm1.08,1.06a.41.41,0,0,1,.15.35c0,.13,0,.15-.29.29,0,0-.18,0-.13-.09a1,1,0,0,0,0-.52c0-.17.23-.07.29,0Zm.12-.8c.1.1.07.33,0,.35s-.15-.1-.16-.17-.1-.14-.1-.19.17-.08.26,0Zm-.34,1.7s.08.14,0,.22-.23.18-.25.14.08,0,.07-.14.07-.25.13-.23Zm-1-2.43c0,.19-.44.49-.52.53s0,.23-.11.29-.19,0-.23-.22A.42.42,0,0,1,41.9,13c.17,0,.17-.13.18-.23a.28.28,0,0,1,.21-.24c.1,0,.19.15.16.35Zm-.15,1.79c.08-.07.22-.42.24-.37.09.28-.06.3-.1.48s-.4.32-.41.47,0,.23-.06.27-.26.06-.26-.32S42.19,14.81,42.3,14.71Zm.08.92c.13-.05,0-.19.09-.28a.17.17,0,0,1,.17,0c.08,0,.13.09.09.23s-.11.4-.28.43-.15-.31-.07-.34Zm.8.54c0-.21.49-.33.53-.28s0,.43.06.53c0,.41.16.43.17.51a9.94,9.94,0,0,1-.27,2c-.14.16-.11-.13-.23-.49A5.66,5.66,0,0,1,43.25,17c0-.38-.09-.65-.07-.87ZM43.83,13a.3.3,0,0,1-.22.12c-.15,0,0-.14,0-.23s-.2-.33-.44-.42-.21,0-.44-.2-.06-.3-.21-.38.05-.16-.22-.34h0v.12c0,.27-.11.3-.2.4a.58.58,0,0,0-.25.5c0,.17-.14.25-.3.07s0-.55,0-.67.08-.16.23-.22a.26.26,0,0,0,.12-.31s-.08-.08,0-.14a.49.49,0,0,1,.45-.07c.08-.06.21-.14.23-.09a3.39,3.39,0,0,0,0,.35.61.61,0,0,0,.25.34c.12.08.29.05.45.21s0,.23.1.29a.85.85,0,0,0,.42.22c.16.06.11.35,0,.45ZM41,15.17c0,.12.19.2,0,.2s-.31-.16-.33-.39.21-.32.28-.41,0-.09,0-.15a1.27,1.27,0,0,1,.33-.24c.1,0,.11.42,0,.47a.64.64,0,0,0-.31.53Zm-1-.31c-.11,0-.24-.26-.18-.49s.15-.12.21-.18,0-.13.06-.16a.08.08,0,0,1,.12,0,.1.1,0,0,1,0,.07c0,.19-.2.24-.24.55,0,.11.17.23,0,.23Zm-.06-1.67c-.13,0-.26,0-.26-.11a1.46,1.46,0,0,1,.08-.62c.1-.24.2-.23.2-.23s.24,0,.13.39c-.05.14-.28.26-.24.39s.26,0,.3.11a.81.81,0,0,1-.06.53c-.12.21-.32.33-.33.17s-.12-.24,0-.32S40.13,13.24,39.94,13.19ZM39.83,12c.07.09-.3.16-.31-.32,0-.11.12-.36.23-.39s.25-.3.31-.28a.3.3,0,0,1,.16.3c-.18.37-.36.34-.39.43A.3.3,0,0,0,39.83,12Zm0-1.55c-.05,0-.16.06-.12.31,0,.09-.38-.06-.16-.51a1,1,0,0,1,.54-.53c.13,0,.23.2.26.31S40,10.3,39.85,10.4ZM40.44,12c.1-.08,0-.29.2-.39s.24-.23.34-.33.25.36.21.5-.31.28-.45.43,0,.2,0,.3-.12.18-.25,0-.23-.4-.07-.53Zm.12,1.12c.37-.35.4-.68.5-.61s.17.37.15.56-.59.38-.61.44-.17-.26,0-.39Zm0,1.05c0-.17.26-.2.35-.38s-.08-.3.11-.31a.37.37,0,0,0,.15-.06c.08,0,.14.11.08.19s0,.2,0,.27-.38.15-.39.27-.11.14-.07.29.07.26,0,.22a.54.54,0,0,1-.2-.49Zm.83-2.77a.51.51,0,0,1,0-.53c.09-.14.19-.08.38-.23s.1-.27.15-.37a.41.41,0,0,1,.2-.19.26.26,0,0,1,.38.27.36.36,0,0,1-.15.34c-.06.07-.12.07-.24.1a1.09,1.09,0,0,0-.4.45c0,.1.14.28.09.32a.29.29,0,0,1-.4-.13v0Zm1.46-3.66a.46.46,0,0,1,.37.12c.06.08.14.21.14.21s0-.35.11-.35.21.37.2.52,0,.25-.18.31a.74.74,0,0,1-.68,0c-.13-.08.1-.14.21-.36s-.4-.43-.17-.45Zm.94,2.35c0-.21-.3-.21-.44-.3A.75.75,0,0,1,43,9.24c0-.15-.36-.28.14-.28a.34.34,0,0,1,.37.23,1.51,1.51,0,0,0,.36.47.5.5,0,0,1,.19.64.23.23,0,0,1-.29.15l0,0C43.56,10.33,43.8,10.36,43.76,10.07ZM42.69,8.24s-.06,0-.06-.09,0-.1.06-.1.06,0,.06.1S42.72,8.24,42.69,8.24Zm0,1.66c.07,0,0-.26.09-.26s.45.34.56.44.15.46.38.52.32.24.3.33a.84.84,0,0,1-.32.4.17.17,0,0,1-.24-.1c0-.07,0-.17,0-.31s-.61-.44-.78-.49a.44.44,0,0,1-.2-.42c0-.06.14-.07.21-.11Zm.81,2.35c-.15-.08.06-.18.07-.3s-.07-.32-.24-.33a.76.76,0,0,1-.44-.11.52.52,0,0,1-.24-.38.27.27,0,0,1,.2-.3c.06,0,0,.15.22.19a.38.38,0,0,1,.31.19c.14.15.14.32.34.37s.4.32.25.46-.35.28-.47.21Zm1.31,2.23c0-.07,0-.12.07-.12s.14.2.14.23-.05.11-.13.07a.16.16,0,0,1-.08-.19Zm-.18-1.42s-.09,0,0-.11a.26.26,0,0,0,0-.31,1.35,1.35,0,0,0-.4-.39c-.09,0-.09-.18,0-.24s.13,0,.05-.06a.94.94,0,0,1-.19-.32.16.16,0,0,1,0-.17c.08-.05.2.12.22.14a3.19,3.19,0,0,1,.26.26c0,.08,0,.22,0,.23s.08.15.3.18.19.3.15.43a.7.7,0,0,1-.41.36Zm-.4-2.5c.19.13.17.25.35.55s.39.22.44.35a.39.39,0,0,1,0,.3.3.3,0,0,1-.3.24c-.08,0-.07-.22-.08-.36s-.34-.17-.4-.24-.13-.92,0-.83Zm.46.55c-.07,0,.08-.16.08-.28s-.26-.28-.46-.38-.08-.17,0-.23,0-.36.07-.34a.71.71,0,0,1,.34.25c0,.08.2.14.34.31s.24.24.17.45a.4.4,0,0,1-.5.22ZM45.31,10c-.21,0-.11-.11-.06-.15a.2.2,0,0,0,0-.28.1.1,0,0,0-.05,0c-.17-.1-.25-.2-.13-.29s.24-.07.46.18,0,.55-.24.59ZM45,9.79c0,.09-.18.31-.33.26s0-.1,0-.28-.25-.15-.36-.2a.84.84,0,0,1-.44-.41c-.08-.25.17-.22.17-.22.24,0,.24.13.26.15a.67.67,0,0,0,.34.28c.26.11.42.29.42.42ZM41.88,7.72s0,.22.08.28.11-.21.16-.23,0,.18.06.25.29-.31.37-.3-.17.3-.19.38a.23.23,0,0,0,0,.21c.14.09.22,0,.22.12s-.06,0-.17.1-.12.12-.22.11a.64.64,0,0,1-.3-.11.36.36,0,0,1-.21-.38c0-.21,0-.42.15-.44Zm-.11,1.44A.7.7,0,0,1,42.06,9a1.2,1.2,0,0,1,.33,0c.13,0,.11.48-.13.68s-.47.18-.58.35a.32.32,0,0,0,0,.38c.06.07-.35,0-.39-.24a.51.51,0,0,1,.18-.42s0-.11.06-.2a1.25,1.25,0,0,1,.22-.37ZM41,9.62c-.15.15-.11.23-.14.3s-.25.09-.29-.09a1.26,1.26,0,0,1,.57-1c.1,0,.39,0,.42.08,0,.27-.41.54-.56.69Zm-.26.56c.14,0,.38.07.34.24s-.3.28-.34.4a.37.37,0,0,0,0,.35c.08.08-.17,0-.28-.08a.6.6,0,0,1-.12-.48.65.65,0,0,1,.34-.43Zm-.26-1.31c-.12.38-.31.28-.67.47-.14.08-.12-.15-.08-.26s.27-.27.41-.33.17-.23.25-.22A.33.33,0,0,1,40.49,8.87Zm-1-.07c0,.13-.33-.22-.18-.38s.2-.32.31-.41.21.07.23.27S39.5,8.65,39.48,8.8Zm-.18,5.46c0-.06,0-.32.14-.26s.08.11.1.15,0,.14-.07.25,0,.29,0,.32-.2-.18-.21-.32.08-.09.09-.14Zm2.28,7.17a6.29,6.29,0,0,1,.07,1.06,4.34,4.34,0,0,1-.24-1.34c0-.24,0-.79.12-.87v.46c0,.22,0,.63,0,.69Zm-.23-2.07c-.12.12-.11-.47-.11-.56,0-.4-.12-1.42-.13-1.61a3.31,3.31,0,0,1,0-1c.07-.14,0-.55.38-.56.12,0,.27.29.37.32s-.1.41-.11.52a1.17,1.17,0,0,0,0,.2,1.28,1.28,0,0,0,.07.34c0,.21,0,2-.4,2.39Zm3.84-4.73c-.15,0-.08,0-.08,0a.25.25,0,0,0,.11-.24.59.59,0,0,0-.12-.31c-.05-.12,0-.23,0-.26s.28.2.28.3,0,.46-.25.51Zm.23-1.2c0-.1-.16.05-.27-.08a.18.18,0,0,1,0-.24l.05,0c.15-.06.4.15.45.23s0,.24-.09.28-.19,0-.18-.17Zm.17-.61a.68.68,0,0,0-.27-.39c-.12-.1-.15-.06-.18-.13s.13-.37.24-.37a.15.15,0,0,1,.11.08.36.36,0,0,1,0,.25c0,.05.1.05.2.14a.37.37,0,0,1,.07.33c0,.08-.14.24-.17.09Zm0-1c.05,0,.11-.06.07-.16s-.35-.15-.43-.37a.2.2,0,0,1,.22-.23.41.41,0,0,1,.29.17.35.35,0,0,1,.07.45c-.1.19-.26.19-.22.14ZM46,9.64c-.2,0-.17-.1-.24-.22s-.19-.13-.23-.28A.17.17,0,0,1,45.53,9c.08-.08.18,0,.27,0s.31.21.33.31,0,.31-.19.32Zm-.29-.85c-.15,0-.14-.13-.2-.29s0-.29.08-.3.1.2.17.29.1.29-.05.3ZM41.45,7.66s0,.26,0,.3.1-.14.1-.14.11-.19.16-.2.06.07,0,.16-.21.26-.2.37.09.3,0,.37-.23.07-.4,0-.16-.35-.22-.46-.08-.12-.2-.13-.08-.26-.07-.35.13-.13.13-.13.17.1.18.2.1,0,.16-.11.05.36.12.36.13-.22.25-.2Zm-2.18,1.7c.11,0,.27.15.17.27S39,9.88,39,10s-.26-.09-.08-.33S39.18,9.38,39.27,9.36Zm-.12,1.49c-.13.1-.18.36-.24.27a.61.61,0,0,1,0-.42c0-.25.2-.39.31-.34a.6.6,0,0,1,0,.49Zm-.06-1.93c0,.1-.09.3-.21.24a.35.35,0,0,1,0-.46C39,8.65,39.12,8.83,39.09,8.92Zm0,2.43c.14-.08.21.23.14.36a3.87,3.87,0,0,0-.35.45c-.06.14-.15-.23-.09-.35A1.41,1.41,0,0,1,39.11,11.35Zm-.32-1.69c0,.12,0,.27-.18.34s-.1-.06-.1-.2,0-.29.08-.31.23,0,.2.17Zm-.32.89c-.07,0,0-.26.08-.31s.13.07.13.11S38.58,10.63,38.47,10.55Zm.12.8c-.09.19-.13-.08-.14-.12s-.05-.34,0-.38.25.15.1.5Zm-.15.27c.07,0,.19.21.14.34s-.29-.09-.29-.17S38.39,11.64,38.44,11.62Zm-.14,1c0-.15.1-.19.17-.19s.11,0,.11.17a.51.51,0,0,1-.14.36c-.06,0-.16-.2-.14-.34Zm.33.79c.07,0,.2.1.21.15s.1.23.08.28-.15.11-.29-.06-.17-.28,0-.37Zm.29.83c.09,0,.12.15.1.23s.1.24,0,.24-.15-.08-.19-.18,0-.3.09-.29Zm.16,1.34c0-.09.06-.4.18-.4s.12,1.12,0,1.22,0,1.12,0,1.07A3.56,3.56,0,0,1,39,16.33c0-.12,0-.31,0-.44s.1-.2.12-.29Zm-.39,5a4.1,4.1,0,0,1-.15.78,2,2,0,0,1,0-.8,1.17,1.17,0,0,1,.24-.38c.06,0-.07.23-.11.41Zm-.15,1.22a1.85,1.85,0,0,1,0,.23c0,.11-.12,0-.12-.15s0-.23.12-.24a.75.75,0,0,1,0,.16Zm-.09.55c.13,0,.22-.5.32-.42s-.05.58-.19.62-.4.49-.42.37-.11-.62,0-.67S38.26,22.43,38.45,22.38Zm-.22,1.23c-.3.16-.2.43-.28.42h-.3c-.07,0,0-.17,0-.22a.47.47,0,0,1,.36-.26c.08,0,.22.05.18.07Zm1.3.39s0-.17.09-.34.12-.2.21-.2h.25c.17,0-.06.13-.17.22s0,.3-.11.32a.82.82,0,0,1-.27,0Zm3.69,6.14a.15.15,0,0,0,.05-.18s-.08-.17,0-.18l.17,0c.05,0,.22.3.14.38s-.36.05-.32,0Zm1.18.22c0-.05.17,0,.28,0s.08.06.1.1-.12.09-.23.09-.15-.07-.15-.16Zm.2-.23a.25.25,0,0,0,0-.17c0-.08-.25-.31-.17-.31s.09,0,.17,0,.22.18.23.25,0,.22,0,.24-.25,0-.22,0Zm1.47-4.07s0-.08,0-.08.09,0,.07.06A.12.12,0,0,1,46.07,26.06Zm.4-3c0-.06,0-.12.08-.11s.06.08.07.12a.6.6,0,0,1,0,.26c0,.06-.08.08-.14-.1a.33.33,0,0,1,0-.17Zm.18-.53c0,.05-.08,0-.09,0s.08-.18,0-.29-.1-.26-.06-.26.17.24.17.34S46.71,22.51,46.65,22.56Zm-.19-.14s0,.11-.07.08,0-.27-.07-.36,0-.11.07-.11.08.31.08.39Zm-.34-.19a.93.93,0,0,0,.17.53s0,.1,0,.13,0,0,.05-.05.16,0,.2.07a.35.35,0,0,0-.22.06s-.1.16,0,.22.17.2.09.2-.18,0-.21-.09,0-.19,0-.39-.11-.17-.17-.36-.17-.27-.05-.4.22,0,.22.08ZM46,21.85c0,.1-.37,0-.46-.09a6.27,6.27,0,0,1-.07-1.5c0-.09,0-.48.2-.5s.18.25.22.38a14.06,14.06,0,0,1,.1,1.72Zm-.34-3.41a3.24,3.24,0,0,1-.46,1.12c-.07,0-.1-.27,0-1.29a1.86,1.86,0,0,0,.06-.34c-.08-.33.06-.29.1-.45s-.11-.16,0-.33,0-1.59.24-1.65.24.59.14,1.58a10.47,10.47,0,0,0-.15,1.36Zm.15-3.82c0,.06-.19,0-.19-.16s.13-.35.23-.35.14.19.09.29-.16.16-.12.22Zm1.14.8c0,.05-.29-.2-.13-.35s.24,0,.26.09-.05.19-.13.26Zm.12-2.48a.36.36,0,0,0,0,.36c.1.17,0,.08,0,.08s-.16,0-.2-.39A1,1,0,0,1,47,12.3c.15-.15.23-.47.08-.46s0,.36-.18.39-.27-.15-.27-.38,0-.3,0-.36-.16-.06-.17-.12.07-.14.21,0,.06.07.18,0a.19.19,0,0,1,.28,0l0,0c0,.11-.28.41-.25.52s.19-.36.38-.3,0,.34.12.39a.5.5,0,0,1,0,.56c-.11.24-.28.25-.38.4Zm-.34-6.4c-.08,0-.24-.17-.1-.27A1.18,1.18,0,0,1,46.88,6c.2-.11,0-.19.26-.24a3.5,3.5,0,0,1,.46-.14.83.83,0,0,1,.44.26c.08.06-.16.28-.39.37s-.55,0-.65.11-.25.15,0,.29,0,.07-.1.07-.07-.21-.14-.22Zm-.2-1.07c0-.2.25-.28.3-.31s0-.24.06-.23a1.51,1.51,0,0,0,.52,0c.21-.06.35-.32.37-.21a1.43,1.43,0,0,1-.24.77c-.09.13-.3,0-.44,0s-.24,0-.26.18,0,.2-.1.17a.29.29,0,0,1-.2-.37Zm.58,1.36a.75.75,0,0,1,.54-.27c.11,0,.08.37.16.45s-.08.17-.22.24-.3.09-.33.13.1.27,0,.32a.22.22,0,0,1-.32-.08.88.88,0,0,1,.19-.79Zm0,1.28c0-.09.3-.21.34-.28s0-.13,0-.21.18-.11.27-.16a.41.41,0,0,1,.29,0c.14.09.08.25-.1.42s-.5.27-.47.33a.29.29,0,0,1,0,.3c-.09.13-.14.09-.22,0a.41.41,0,0,1-.07-.4Zm.19,1.43c.07,0,.11.16.11.27s-.24.37-.36.52-.16-.23-.12-.31.22-.49.37-.48Zm.19,1.75c.26.16.31-.27.38-.46s.18-.18.26,0-.06.35-.09.53c-.12.54-.28.19-.25.44s.12.43,0,.43-.3-.26-.28-.41.09-.29,0-.34-.34-.19-.4-.5.19-.79.38-.79.16.1.16.21-.26.41-.31.55a.26.26,0,0,0,.11.34Zm-.57-.9c.1,0,.1.14.05.31a.9.9,0,0,0,0,.43c0,.07-.17,0-.21-.22S46.8,10.35,46.91,10.39Zm1.8-2.63c-.19.08-.28.16-.27.28s.11.15.16.2,0,.09-.18.09-.15-.14-.2-.28-.06-.22.11-.36a3.65,3.65,0,0,0,.58-.6c0-.07-.12-.12,0-.17s.39-.35.47-.3.07.25.07.33a1,1,0,0,1-.22.52,1.32,1.32,0,0,1-.51.3ZM46.4,5.22s.1,0,.05.15a2.81,2.81,0,0,0-.07.71s0,.06,0,.08,0,0-.07.07c-.2.14-.22.38-.19.37a3.58,3.58,0,0,1,.26-.29s.08.07.08.13a1.4,1.4,0,0,1-.07.4c-.08.2-.22.26-.27.48a1.21,1.21,0,0,0,0,.5c.1.23.09.15.09-.06a.61.61,0,0,1,0-.3,2.4,2.4,0,0,1,.16-.27c.08-.12.13-.22.24-.21s.12.36.11.47a1.67,1.67,0,0,1-.08.32c-.07.29-.23.15-.3.45s0,.4.05.4.07-.31.41-.55c0,0,.17,0,.13.24,0,.06-.14,0-.07.13s-.1.18-.14.33-.23.22-.19.25.09.57.15.43.28-.57.42-.57.1.21-.09.51-.24.49-.32.49-.17-.17-.15-.45-.19-.26-.31-.49,0-.44-.13-.81-.23-.36-.27-.62.21-.57.14-.74a.32.32,0,0,1,0-.3.69.69,0,0,0,.18-.4,1.82,1.82,0,0,1,.25-.85ZM44.25.65a.92.92,0,0,1,.63-.11c.25,0,.37.18.33.34s-.25.31-.5.43-.16.14-.11.18.19,0,.27,0c.24.1.31.33.35.34s.13-.08,0-.2S45,1.41,45,1.31s.12-.21.29-.13.05.26.14.39a.68.68,0,0,1,.19.4.64.64,0,0,1-.23.46c-.16.11-.07.14,0,.15s.1-.11.19-.05.12.14.23.28.23.16.25.4a.68.68,0,0,1-.08.42c-.22.36,0,.25.1.37a.22.22,0,0,1,0,.23c0,.2-.15.31,0,.5s.07.19,0,.22,0,.4-.07.44-.22-.16-.2,0,.15.16.11.27-.15.13-.18.08a1.3,1.3,0,0,0-.14-.26s-.13-.12-.07,0a.53.53,0,0,0,.08.17c0,.06,0,.1,0,.26s0,.21-.06.24-.32-.21-.33-.31a.43.43,0,0,0-.07-.28c-.09-.11-.2-.38-.08-.53s.16,0,.2,0,.14,0,.06-.1-.12-.05-.12-.18a.89.89,0,0,1,.19-.63.9.9,0,0,0,.17-.71,3.94,3.94,0,0,0-.35-.55.37.37,0,0,1-.12-.39c0-.25.12-.52,0-.54s-.26-.3-.35-.27a.94.94,0,0,1-.61-.24.29.29,0,0,1,.11-.4l.06,0c.26-.13.34.09.36,0a.16.16,0,0,0-.12-.2.14.14,0,0,0-.09,0c-.15,0-.23,0-.3.16s-.12.28-.2.28-.12-.12-.11-.19A.71.71,0,0,1,44.25.65Zm-.8.31a.89.89,0,0,1,.12-.39A.56.56,0,0,1,44,.33c.16,0,.11.19.09.26a3.63,3.63,0,0,0-.22.5c0,.14-.2.26-.28.23s-.12-.13-.1-.37ZM42,1.4A.25.25,0,0,0,42,1.24a.51.51,0,0,0-.17-.3A.42.42,0,0,1,41.73.6.2.2,0,0,1,41.9.4a.32.32,0,0,1,.28.08.37.37,0,0,1,.1.4,1.5,1.5,0,0,1-.11.34.37.37,0,0,0,0,.15h0a3.42,3.42,0,0,1,.45,0s0-.05,0-.17a.29.29,0,0,0-.05-.2.47.47,0,0,1,0-.47A.26.26,0,0,1,42.7.42c.12.06.11.28.11.29a1.41,1.41,0,0,1,0,.41c-.08.16-.14.14-.1.21h.07l.24,0h0s.06,0,0-.16S43,1,42.92.88a.59.59,0,0,1,0-.39c.06-.13.12-.15.18-.15s.22.06.23.33-.09.25-.13.42a.26.26,0,0,0,0,.26s0,0,0,0l.25.05c1.1.25,1.3.66,1.37.8.16.3.12.67.2.75a.76.76,0,0,1,.23.43c0,.27-.4.39-.49.58s-.1.16-.17.14c-.24-.08-.33-.61-.55-.7s.5-.22.67-.42.06-.11-.3,0-.79.31-1.1.1,0-.72.26-.87a.54.54,0,0,1,.76.08s0,0,0,0c.32.31.32.33.36.32A1.46,1.46,0,0,0,44.26,2c-.38-.13-.73-.09-1.18.54-.25.36.1.47.17.74s-.14.27-.18.33-.07.05-.26.06-.16,0-.26-.08-.36.06-.29-.3.27-.33.12-.74a.84.84,0,0,0-1-.61A.49.49,0,0,0,41.2,2a2.41,2.41,0,0,0-.7.61A1.53,1.53,0,0,0,41,2.3a.59.59,0,0,1,.77,0,.49.49,0,0,1,.06.7.46.46,0,0,1-.07.07c-.3.21-.52.09-.81,0a2.1,2.1,0,0,0-.61-.15c-.17,0,0,.08,0,.08a.5.5,0,0,1,.26.08c.08,0,.18.17.32.23s.47,0,.42.07-.3,0-.47.56c0,.1-.12.11-.19.18a.65.65,0,0,1,0,.13c0,.13-.06.06-.06.18s.16.06.14.32.07.25-.1.2-.13-.25-.28-.2,0,.1.09.14a.25.25,0,0,1,.12.19c0,.23,0,.33,0,.5s0,.2.22.24a.86.86,0,0,1,.46.19.33.33,0,0,1,0,.39c-.07.12-.13,0-.22,0s0-.23-.31-.31A.92.92,0,0,1,40.36,6c-.09-.06-.06-.23-.07-.39s.13-.1.1-.3-.12-.11-.15-.3,0-.22.14-.35.13-.18.13-.18l0-.35c-.24-.27-.58-.38-.61-.77,0-.14.12-.3.3-.45s0-.43.07-.72a2.63,2.63,0,0,1,1.65-.73ZM41.14.56c.07-.13.3-.17.45.08a.59.59,0,0,1,0,.47.35.35,0,0,1-.14.24s-.07,0-.06-.06-.16-.24-.23-.34A.39.39,0,0,1,41.14.56ZM39,3.81c0-.13.09-.22.2-.17a.42.42,0,0,1,.17.4.3.3,0,0,0,.16.32c.1,0,.16-.05.18-.2a.93.93,0,0,0-.2-.48c-.12-.18-.29-.13-.35-.38-.1-.41,0-.45.05-.62s.08-.36.21-.37.24.09.22.32c0,.48,0,.14.07.07a1.23,1.23,0,0,0,.12-.26.45.45,0,0,0-.14-.39.36.36,0,0,1-.08-.3c0-.1.06-.11.15-.17s.09-.13,0-.15-.1,0-.16.06-.09-.24-.09-.35a.32.32,0,0,1,.24-.33c.17-.08.21,0,.32,0a.27.27,0,0,0,.27-.07c.06-.07.09-.16.22-.18s.16,0,.33.14a.9.9,0,0,1,.31.46c.07.13.08.2,0,.27a.11.11,0,0,1-.15,0s0,0,0,0a1.88,1.88,0,0,0-.18-.24c-.07-.08-.1-.19-.23-.21s-.17-.07,0,.05a1.39,1.39,0,0,1,.29.35c0,.13,0,.11-.07.11a.66.66,0,0,1-.23-.21.29.29,0,0,0-.26-.14c-.09,0-.17.14-.27.15s-.14,0-.2,0,.16.08.21.15,0,.06-.1.17.1.1.18.08.16-.15.18-.2-.06-.21,0-.25.16.13.19.2.05.27,0,.3a2.65,2.65,0,0,0-.55.66.87.87,0,0,0,0,.53c0,.11-.17.32-.22.43a1,1,0,0,0,0,.58c.06.15.19.36.24.48a.29.29,0,0,1-.06.32c-.16.15-.13-.14-.2,0a.74.74,0,0,1-.47.36A.26.26,0,0,1,39,5c-.05,0,0-.13.14-.2s.07-.15.08-.24-.11-.17-.2-.27S39,3.93,39,3.81Zm0,3.15c.13,0,.15,1,0,1.06s-.06.21,0,.37-.12.09-.21.3-.08.36-.17.3,0-.21,0-.36a1.05,1.05,0,0,0-.18-.54c-.1-.19,0-.23.15-.22s.23.46.29.33a.92.92,0,0,0,0-.37c0-.07-.07-.08-.19-.22a.71.71,0,0,1,0-.41c0-.14-.08-.08-.13-.34s.12-.18.17-.14,0,.13.12.2.16.11.16.22.07.21.07.21,0-.36.07-.38Zm-.06-.27s-.16,0-.21-.18-.23-.1-.28-.34a.39.39,0,0,1,.15-.36c.08-.08.23.23.29.42A1.21,1.21,0,0,1,38.87,6.69Zm0-1c0,.09-.17.14-.17.06a.27.27,0,0,0-.08-.28c-.08-.08-.09-.22-.18-.25S38.18,5,38.22,5s.24,0,.37-.11.08-.28.12-.35.06-.06.08,0a.61.61,0,0,1,0,.4c-.06.11-.15.18,0,.32A.52.52,0,0,1,38.82,5.65ZM38.14,3a.51.51,0,0,1,.44.16c.21.26.23.51.17.42s-.26-.16-.41-.25-.06-.14-.09-.2S38.11,3,38.14,3Zm-.91-.13c.18-.09.85.25.75.3a1.16,1.16,0,0,1-.69,0C37.22,3.11,37.16,2.91,37.23,2.87Zm-.08,1.27c.13.12.1.4.37.44.07,0,.2,0,.26,0a.66.66,0,0,0,.46,0c.06-.07,0-.27-.24-.31s-.49,0-.68-.11a.35.35,0,0,1-.1-.46c.05-.08-.11-.19.07-.33s.64,0,.86,0a2.9,2.9,0,0,1,.6.44.43.43,0,0,1,0,.45c-.06.11-.21,0-.27-.2a1.31,1.31,0,0,0-.34-.5c-.06-.05-.21-.05-.21,0s.2.2.28.31c.21.3.36.7.1.85-.1.06-.43,0-.35,0s0,.2.12.26a.45.45,0,0,1,.23.5.3.3,0,0,1-.34.25c-.1,0,.08-.47-.1-.45a.56.56,0,0,1-.57-.28c-.06-.17-.15-.12-.21-.16a.12.12,0,0,1-.05-.16l0,0a.44.44,0,0,0,0-.47c-.1-.11-.06-.25.06-.14ZM35.09,2.9c.21,0,.25.33.29.07,0-.1-.16-.2-.23-.24s0-.13.06-.13.27.22.38.18c.33-.12.43-.42.85-.39s.36.3.37.45.22,0,.21.44.12.1.07.4c0,0-.09,0-.07.07.11.27-.09.3-.17.32s-.13.1-.09.14.25.25.15.33-.44,0-.26.08.41.69.17.85-.29-.2-.52-.24c-.08,0-.08.09,0,.18s.42.26.43.55a.68.68,0,0,1-.26.59c-.2.06-.15-.1-.1-.21s.11-.12,0-.19,0-.12-.09-.16S36,6,35.8,5.84s-.1-.3,0-.31.15.11.26.1.13-.33,0-.39a.82.82,0,0,0-.43-.12c-.08,0-.14-.13-.09-.13a.86.86,0,0,0,.76-.45,1.11,1.11,0,0,0-.17-.81.55.55,0,0,0-.3-.26c-.1,0-.26,0-.22,0a.69.69,0,0,1,.53.83A.66.66,0,0,1,36,4.6c-.42.32-.65.15-.52.07a.63.63,0,0,0,.35-.51c0-.13-.26-.33-.57-.37s-.51-.13-.56-.43A.36.36,0,0,1,35,2.91h.13ZM32.9,7.13S32.83,7,33,6.78s.21-.25.11-.21-.26.1-.29.19-.16.11-.11,0a1.06,1.06,0,0,1,.33-.4,2.92,2.92,0,0,1,.42-.13c.15-.06.39-.29.49-.31S34,5.93,34,6s-.06.1-.17.22a3.72,3.72,0,0,0-.33.45c0,.08-.14.09-.27.09s-.12,0-.19.15-.12.23-.15.22Zm1.16-.27a1.74,1.74,0,0,1-.36.24c-.07,0-.1-.06-.09-.09A1.25,1.25,0,0,1,34,6.78C34.06,6.75,34.08,6.84,34.06,6.86Zm.07.4s0,.08-.07.09h0c-.07,0-.13-.06-.13-.11a.16.16,0,0,1,.08-.1.28.28,0,0,1,.16.13Zm-.52-.37c-.07.1-.17,0-.1-.07s.25-.24.33-.25.09,0,.08,0-.22.13-.31.27Zm-.49.31a.69.69,0,0,1,.1-.37.2.2,0,0,1,.13,0c0,.06,0,.13-.06.18s-.16.33-.17.2Zm.32.76c-.07-.07.21-.13,0-.18s-.3-.32-.22-.37.17.35.3.2-.16-.22-.18-.34,0-.2.13-.16a.46.46,0,0,1,.21.42c0,.24.12.06.08.1s-.06-.33,0-.28a1.06,1.06,0,0,1,.1.3c0,.06.14-.12.21-.15s.32-.09.4-.2a.27.27,0,0,0,0-.33c-.06-.07-.24-.16-.32-.26s0-.14-.05-.2-.11-.17,0-.15.35.35.42.46.3.44.27.53-.44.13-.54.18,0,.12-.16.17l-.22.11s0,.1-.16.12h-.07c.06,0-.19.11-.27,0Zm.78-1s.14.08.16.12.06.15,0,.18-.2-.14-.22-.19a.13.13,0,0,1,.06-.11Zm-.45,1.32c-.11-.07.51-.58.58-.61a.85.85,0,0,1,.32,0s.15,0,.15,0-.08.1-.2.09a.41.41,0,0,0-.3.12C34.18,7.94,33.84,8.3,33.77,8.25Zm1,.08c-.16.41-.09-.05-.13,0s-.14.25-.2.32a.59.59,0,0,1-.41.07c-.08,0,0-.31,0-.37.12-.25.17-.32.26-.32a1.36,1.36,0,0,0,.4,0c.06,0,.07-.12.16-.2s-.07-.18,0-.2.13-.16.17-.3a.35.35,0,0,0-.15-.37c-.11-.08-.38-.33-.4-.45s-.36-.45-.19-.35a.57.57,0,0,0,.68,0,.54.54,0,0,0,.25-.32c0-.11-.08-.14-.11-.1a.43.43,0,0,1-.52.23c-.18,0-.17,0,0-.08s.16-.07.1-.12a1.75,1.75,0,0,0-.85,0,3.24,3.24,0,0,1-.47.28c-.09,0-.25.06-.1-.08l.33-.27c.08-.05,0-.36.06-.47s.12-.26.66-.26c.1,0-.1-.26-.24-.25s-.13-.24-.4-.24a.49.49,0,0,0-.34.22c-.09.14-.11.44,0,.44s.19.11.19.25a.37.37,0,0,1-.27.39.41.41,0,0,0-.3.35.38.38,0,0,1-.14.29.31.31,0,0,1-.43,0,.37.37,0,0,1-.07-.14,1,1,0,0,1,.42-.67c.12-.08.17.05.18-.14s.09-.32.19-.35,0-.42,0-.52a1.25,1.25,0,0,1,.58-.44,1,1,0,0,0,.49-.18c.11-.11.13-.33.23-.33s.25.25.43.33.48.19.55.32c.17.32-.18.33-.22.37-.28.3-.71.12-.73.19s0,.09,0,.1.45,0,.62,0a.55.55,0,0,1,.36.49c0,.1.29-.09.06.29a.82.82,0,0,0-.07.3,1,1,0,0,0,.08.69c.14.25,0,.31-.07.46s.07.72-.08.74a.57.57,0,0,0-.54.43ZM33.46,4.81c0-.07.29-.07.34,0s.07.13,0,.14-.18,0-.23,0S33.45,4.84,33.46,4.81Zm1.38,6.33c.07-.07.23.1.23.19s0,.29.19.27a.24.24,0,0,0,.12-.43c-.18-.15,0-.16-.33-.49-.13-.11-.21-.53,0-.58s.34.27.39.33.06.18.28.14.09-.21,0-.35a1.53,1.53,0,0,1-.39-.58c-.06-.2.06-.28.16-.23s.28.32.43.32.12-.1.16-.2-.3-.29-.43-.4a.48.48,0,0,1-.16-.39.75.75,0,0,1,.23-.47c.08-.06.23.07.25.13s.16.14.16.14,0,.1-.07.09-.19,0-.19.08A.56.56,0,0,0,36,9a3,3,0,0,1,.35.27.58.58,0,0,1,0,.43c-.13.05,0,.14-.18.19a.86.86,0,0,1-.45,0c-.06,0,.17.2.26.22a.42.42,0,0,1,.22.46c0,.15-.07,0-.12.17s-.44.09-.58,0-.15,0,0,.18.39.25.4.4a.45.45,0,0,1-.2.36c-.09.06-.25,0-.28.16s.14.18.14.25a.66.66,0,0,1-.32.32c-.08,0-.07-.09,0-.2s0-.2-.09-.33-.3-.16-.37-.3a.43.43,0,0,1,.07-.41ZM35,13c.09-.07.08-.13.07-.24s-.29-.31-.3-.48-.08-.29,0-.28.2.29.36.42.33.38.24.53-.52.17-.35,0Zm1,.82s0,.27,0,.4a.29.29,0,0,1-.33.16c-.1,0,.17-.14.19-.25a.3.3,0,0,0-.18-.31.52.52,0,0,1-.3-.36c0-.09.1-.14.19,0a.49.49,0,0,0,.36.2c.17,0,.26-.07.27-.12.07-.2-.16-.28-.26-.35a.56.56,0,0,1-.19-.33c0-.09-.07-.25,0-.3s.25.06.25.13,0,.15,0,.19a1.06,1.06,0,0,1,.41.43.34.34,0,0,1-.09.46h0c-.09.06-.27,0-.31,0Zm.32,1.64c-.22,0-.28-.1-.2-.19s.16-.08.16-.16-.1-.16-.11-.33.16-.09.16-.09.15.31.15.52a.26.26,0,0,1-.17.25Zm.22-2.5c0-.09.14-.37,0-.48a.77.77,0,0,0-.38-.17c-.12,0-.21-.17-.26-.27s.07-.42.17-.4.14.33.34.36.23-.3.17-.4-.49-.29-.43-.65c0-.17.1-.16.17-.15s.24.17.36.18.2-.17.17-.32-.52-.42-.57-.51.14-.34.25-.39.18.2.33.26.17,0,.22-.06c.12-.23-.39-.32-.55-.7-.06-.16.19-.33.34-.4s.26.21.37.19a.17.17,0,0,0,.08-.22c-.16-.18-.38-.18-.43-.26s-.23-.71,0-.72.27.36.54.33c.11,0,.15,0,.15.15s.12.22.19.34a.46.46,0,0,1-.17.53c-.17.12-.41,0-.51-.06s-.07.13.17.22.44.55.2.72-.5.09-.55.15,0,.07.12.11.06.1.11.16.27.08.16.37-.58.32-.52.39c.2.23.28.26.27.4a.51.51,0,0,1-.37.43c-.14,0-.26,0,0,.16s.42.14.28.47-.4.33-.35.24Zm.15,4.52c0-.1,0-.18-.09-.52s-.07-1.38.07-1.43.34.64.35.8a2.32,2.32,0,0,1-.06.46,7,7,0,0,1,0,1.12c-.05.14-.05.25-.14.26s-.12-.48-.14-.69Zm0,4.88a.55.55,0,0,0,.52-.13.68.68,0,0,0,.25-.46,3.8,3.8,0,0,0,.06-.59c0-.09-.08,0-.1.23a.61.61,0,0,1-.15.41c-.06.07-.1.16-.16.07s.06-.38.12-.61-.07-.52-.16-.22,0,.75-.21.85-.24,0-.15-.24a2.23,2.23,0,0,0,.13-.44c0-.15.1-.36.11-.44s0-.17-.07-.17-.08.19-.09.29c0,.26,0,.59-.14.5a1.7,1.7,0,0,1,.05-.71c0-.14.07-.3.11-.47s0-.37,0-.51A2.32,2.32,0,0,0,37,19.3a3.38,3.38,0,0,1,.16-.48,3.1,3.1,0,0,0,.06-1.42,7.4,7.4,0,0,1-.11-1.82c0-.07.3-.09.4-.17s.13-.26.16-.31.28-.16.5-.4c.06-.07,0-.44.19-.47s.25.31.16.44.3.33.32.52-.07.1,0,.48A15.81,15.81,0,0,0,39,17.49c0,.21.1.41.16.68s-.12.37-.06.75a.48.48,0,0,1-.1.38,1.07,1.07,0,0,0-.33.65c0,.47-.3.92-.26.53,0-.11,0-.47,0-.38a5.16,5.16,0,0,1-.21.77c-.15.25-.07.35-.08.65s-.32.29-.25.51-.3.57-.53.79,0,.13.15.06.28-.22.3-.2-.13.38-.37.42a1,1,0,0,0-.34.06,1.51,1.51,0,0,0-.26.18.45.45,0,0,1-.29.1c-.07,0-.15.19-.2.08a1.65,1.65,0,0,1,.06-.32c0-.13-.1-.16-.13-.11s0,.26-.12.25-.17-.25-.05-.36a.24.24,0,0,1,.26-.08c.1,0,.17-.06,0-.15a.31.31,0,0,1-.07-.4c.12-.13.12,0,.4,0ZM35.92,24c0,.1-.3.1-.32,0a.52.52,0,0,1,.23-.38c.06,0,.18-.05.18,0a1,1,0,0,0-.09.34Zm-.22-1.68c.1-.18.21-.23.28-.23s.17,0,.27.17,0,0-.14.11,0,.35,0,.42-.34.35-.36.17a3.25,3.25,0,0,0-.11-.42c0-.08,0-.08.08-.21Zm.08,1.09a.32.32,0,0,1-.34.25c-.1,0,.07-.18.12-.29s-.18-.35-.2-.14-.14.07-.09-.11a.17.17,0,0,1,.22-.12l0,0c.13.06.31.15.24.38Zm-.41.61c0,.1,0,.13-.12.13s-.23-.12-.1-.26a.36.36,0,0,1,.33-.19c.06,0,.12.13.05.14s-.19.11-.16.19ZM35,23.25c.1,0,.15.11.17.18s-.1.08-.08.13,0,.18,0,.21-.26.05-.31,0,0-.11.1-.14.09-.18.09-.18,0-.15.06-.17Zm-.3-.37c.12-.11.24,0,.34,0s.15-.2.22-.57.22-.35.24-.27-.06.22-.06.34a.78.78,0,0,1,0,.22,1.07,1.07,0,0,1-.16.25c-.05.06-.07.28-.22.34s-.44-.15-.33-.27Zm0,.28s.15,0,.15,0-.07.06,0,.14,0,.14-.06.07S34.67,23.19,34.7,23.16Zm0,.94c0-.23,0-.22.2-.25s0,.08,0,.18.08.17,0,.17-.2,0-.17-.1ZM35,27.61c-.14,0-.2.05-.24-.05a.79.79,0,0,1,.18-.38.75.75,0,0,1,.38-.06l0,.11-.11,0a.15.15,0,0,0-.08.13C35.09,27.52,35.11,27.63,35,27.61Zm0-.56c-.13.07-.21-1.16-.13-1.16s.38.34.38.41-.12.69-.25.75Zm-.47-2.22a10.39,10.39,0,0,1,.34,2.29,2.34,2.34,0,0,0-.24.31s-.16-2.4-.1-2.6Zm-1.12,2.3a1.11,1.11,0,0,0,0-.57c0-.07.23.07.23.29s-.23.38-.2.28Zm.29,1s0-1.05,0-1.35,0-1.47,0-1.52a5.29,5.29,0,0,1,.13,1.19c0,.25,0,1.69-.15,1.69Zm.27.68c-.07.12-.07.07,0,0a3.73,3.73,0,0,0,.18-1.05c0-.42,0-1.63,0-1.78a4.16,4.16,0,0,0-.18-.92,1.26,1.26,0,0,1-.16-.3c0-.15.09-.12.19,0a3.31,3.31,0,0,1,.29,1.24c0,.24.07,1.3,0,1.78A3.19,3.19,0,0,1,34,28.77Zm.23.57c0-.1,0-.2.08-.3s0-.69.07-.95,0-1.12,0-1.46c0-.15,0-1.1-.09-1.36a3.71,3.71,0,0,1,0-.58c0-.13.17.39.21.74s0,1.08,0,1.25a9.88,9.88,0,0,1-.1,2.43c0,.1-.17.29-.2.23Zm.59-1.25a4.58,4.58,0,0,0-.09.9c0,.3-.31.36-.25.29a.76.76,0,0,0,.14-.53c0-.25-.07-.87,0-1s.2,0,.26,0,.24-.05.24.12-.26.11-.33.24Zm.56,1.3a1.2,1.2,0,0,1-.16.16s.18.14.13.15a.22.22,0,0,1-.16,0S35,29.55,35,29.5s.2-.14.25-.15.11,0,.1,0Zm-.06-.15a.55.55,0,0,1-.36-.35.57.57,0,0,1,0-.34l0,0a.08.08,0,0,0,0-.1h0s-.06-.2,0-.25a1.22,1.22,0,0,1,.29-.17.5.5,0,0,0,.24-.09.14.14,0,0,0,0-.14c0-.06-.09-.09-.14-.19a.89.89,0,0,1,0-.58c0-.07.15-.17.18-.22s0,0,0-.05.05-.15-.06-.14-.16,0-.15-.2,0-.21.06-.25,0-.2,0-.29.08-.27,0-.32-.06-.33-.06-.4-.12-.2-.18-.17,0,.12,0,.12a.16.16,0,0,0-.08-.06.41.41,0,0,1,.22.35c0,.28-.06.16-.13.3s0,.21-.05.26-.24-.15-.26-.23,0-.22.05-.26,0-.09,0-.19,0-.24.09-.25h0s-.05-.23,0-.28a.18.18,0,0,0,.1-.15.17.17,0,0,1,0-.15s.15-.06.17-.09a.18.18,0,0,1,.17-.11,1.66,1.66,0,0,1,.22,0c.07,0,.17,0,.23,0a.12.12,0,0,1,0,.17h0c-.07.05,0,.23,0,.24s0-.13.13-.2.08-.08.1-.08.06.23,0,.29,0-.1.12-.1.08.18,0,.21a.42.42,0,0,0-.09.16c0,.1,0,.15.09,0s.1,0,.11,0a.14.14,0,0,1-.05.17.22.22,0,0,0-.09.1c0,.07,0,.16.07.13s0-.12.08-.14.08,0,.1.07a.06.06,0,0,1,0,.09h0c-.06,0-.15.15-.08.15s.19-.06.2,0,.05.11-.06.18a.49.49,0,0,0-.14.11s0,0,0,0,0,0,0,0,.2-.1.28-.05,0,.17,0,.2-.23.14-.16.15a.62.62,0,0,0,.26-.09c.07,0,0,.11,0,.15s-.21,0-.24.09.08.12.24.06a.32.32,0,0,1,.14,0,.58.58,0,0,0,.22.08.9.9,0,0,0,.22-.06.58.58,0,0,1,.29-.05.74.74,0,0,1,.45.15.57.57,0,0,0,.34.08.46.46,0,0,0,.35-.2A.61.61,0,0,0,39,26c-.08-.15-.15-.4,0-.53s.12-.21.14-.33.26-.29.32-.33a.23.23,0,0,0,.12-.18.14.14,0,0,1,.18-.1h0c.08,0,.1.09,0,.16a.86.86,0,0,1-.18.2s-.18.07-.16.14.1.07.16.17,0,.19,0,.2l-.16.07s-.06.05,0,.07.11.05.12.09,0,.09-.1.09,0,0,0,.06l0,0a.12.12,0,0,1,.06.16.08.08,0,0,1-.05.05.12.12,0,0,0-.08.09.06.06,0,0,0,0,.08h0s0,.11,0,.14-.07.06-.06.12,0,.14,0,.22a.35.35,0,0,1-.25.14c-.11,0-.14.07-.26.07a4.32,4.32,0,0,1-.45.06c-.11,0-.06,0,0,.1.22.21,0,.44.14.56.21.27.37.55.5.58a1.74,1.74,0,0,1,.38.14c.06,0,0,.16,0,.19s-.06.13,0,.15.16,0,.22,0a3.27,3.27,0,0,0,.17.31.41.41,0,0,1,0,.36c-.07,0-.22.1-.3.06s.08-.18.06-.27a.81.81,0,0,0-.18-.31c-.08-.09-.24-.35-.35-.38s-.52-.35-.66-.34a1.65,1.65,0,0,1-1.07-.46c-.1-.1-.07,0-.08.16a.21.21,0,0,1-.22.19h0c-.2,0-.27-.2-.34-.27a.41.41,0,0,0-.23-.13c-.12,0-.23-.36-.25-.37s.07.44,0,.51-.27.36-.45.4a2.71,2.71,0,0,1-.41.09c-.1,0-.2.19-.09.25s0,.43,0,.46a.86.86,0,0,0,.23,0s.06.09.08.17.09.1.06.12,0,0-.24,0Zm.45.25a.09.09,0,0,0,0,.13.07.07,0,0,0,0,.05c.07.06,0,.09-.13.07a.13.13,0,0,1-.13-.15.09.09,0,0,1,0-.05.26.26,0,0,1,.2-.15c.07,0,.12.09.06.11Zm.38,0s-.13.08-.11.12.11.09.06.1-.08,0-.13,0a.27.27,0,0,1-.09-.21.29.29,0,0,1,.18-.1c.06,0,.13.07.09.09Zm.26.91s-.09,0-.06,0,0-.05,0-.05.1,0,.1,0a.08.08,0,0,1-.08.07Zm.1-.73a.08.08,0,0,1-.09,0,.63.63,0,0,1-.21-.19c0-.06.18-.12.24-.12s.19,0,.16.07a.56.56,0,0,1-.17.09s.08.11.07.12Zm.16.74c-.06,0-.14,0-.1,0a.07.07,0,0,1,.07-.05c.06,0,.14,0,.14,0a.11.11,0,0,1-.11.09Zm.37.33c0,.1,0,.24,0,.27s-.13,0-.17-.06-.07-.31.07-.31.16,0,.14.11Zm-.08-.32c-.06,0-.16,0-.12-.05s0-.07.09-.07.15,0,.15,0a.11.11,0,0,1-.12.1Zm0-.56c-.09,0-.33-.23-.28-.28a1,1,0,0,1,.41-.18c.1,0,.22,0,.15.06l-.24.15c-.05,0,.13.15.12.19S37,29.88,36.91,29.88Zm.34.55c-.07,0-.16,0-.12-.05s0-.06.08-.06.16,0,.16,0a.12.12,0,0,1-.12.11h0Zm.37.61c0,.05,0,.07-.13,0s-.14-.39,0-.41.17,0,.19.06,0,.27,0,.36Zm-.07-.6c-.06,0-.16,0-.11-.05s0-.08.08-.08.15,0,.15,0a.11.11,0,0,1-.11.12h0Zm-.08-.8c0,.05.12.2.1.22a.2.2,0,0,1-.21,0c-.06,0-.19-.19-.16-.23a1,1,0,0,1,.35-.24c.08,0,.15,0,.13.06s-.23.12-.22.17Zm.21.05a.55.55,0,0,1,.28-.24s.16,0,.13,0-.17.12-.17.16.12.25.09.27-.17.05-.2,0-.16-.16-.13-.22Zm.12.7s0-.08.1-.08.17,0,.17,0a.14.14,0,0,1-.13.12c-.08,0-.18,0-.14-.06Zm.43.7c-.18.11-.24-.1-.25-.25s0-.2,0-.21a.18.18,0,0,1,.18.07C38.21,30.75,38.38,31,38.23,31.09Zm.08-.62c-.08,0-.19,0-.14-.06s0-.09.1-.09.18,0,.18,0a.13.13,0,0,1-.14.13Zm.2-1c-.06.06-.19.09-.16.15s.2.26.14.28a.62.62,0,0,1-.27,0c-.07,0-.15-.19-.15-.24a.47.47,0,0,1,.28-.3c.08,0,.2,0,.15.09Zm.32,0c.06,0,.17.05.14.07s-.19.06-.19.14a.49.49,0,0,0,.1.26s-.1.06-.17,0a.44.44,0,0,1-.17-.26s.16-.21.29-.24Zm-.29.93s0-.09.11-.09.2,0,.2,0a.15.15,0,0,1-.16.13c-.09,0-.21,0-.15-.07Zm.13.68c-.1,0-.17-.45-.07-.46s.18,0,.23,0,.07.4.1.44-.16,0-.26,0Zm.27-.68s0-.1.11-.1.2,0,.2,0a.15.15,0,0,1-.16.14c-.09,0-.21,0-.15-.06Zm.32.69c-.11,0-.14-.33-.12-.4s.13-.07.21-.07.13.3.22.4-.19.08-.31.07Zm.2-.62c-.08,0-.2,0-.15-.07s0-.1.11-.1.2,0,.2,0a.15.15,0,0,1-.16.14Zm.24-.07s0-.1.11-.1.2,0,.2,0a.15.15,0,0,1-.16.15c-.09,0-.21,0-.15-.07Zm.39.69c-.12,0-.35.06-.36-.16s-.07-.29,0-.31.2,0,.25,0S40.23,31.09,40.09,31.1Zm0-.7s0-.1.11-.1.2,0,.2,0a.16.16,0,0,1-.16.16c-.08,0-.2,0-.15-.07Zm.64.74c-.11,0-.32,0-.34-.06s-.15-.42-.07-.43a.67.67,0,0,1,.34,0c.12,0,.13.43.07.45Zm-.07-.64c-.12,0-.29,0-.21-.08s0-.12.15-.12.29,0,.29,0A.21.21,0,0,1,40.65,30.5Zm.3-.08c0-.05,0-.13.15-.13s.29,0,.29,0a.21.21,0,0,1-.22.18C41.05,30.51,40.88,30.55,41,30.42Zm.37.75a.61.61,0,0,1-.33,0s0-.45.13-.43a2.58,2.58,0,0,1,.32,0C41.49,30.76,41.39,31.14,41.32,31.17Zm.57-.05a.47.47,0,0,1-.33,0s-.08-.35,0-.38a1.28,1.28,0,0,1,.34,0s.09.34,0,.37Zm.48,0c-.09,0-.23,0-.24,0a.82.82,0,0,1,0-.35c0-.06.35-.05.35,0s0,.32-.12.36Zm.55,0c0,.05-.16,0-.25,0s-.11-.32-.11-.36.34-.06.35,0a1,1,0,0,1,0,.34Zm.15-.82h.36a.66.66,0,0,1-.11.24H43s.08-.25.08-.25Zm.41.83a.47.47,0,0,1-.33,0c-.1,0-.14-.38-.1-.39a1.19,1.19,0,0,1,.42,0c.08,0,0,.34,0,.37Zm0-.77c0-.06.17,0,.28,0s.09.06.09.1-.12.09-.23.1a.12.12,0,0,1-.15-.08.14.14,0,0,1,0-.09Zm.59.8a.56.56,0,0,1-.34,0c-.07,0-.17-.4-.11-.42a1.13,1.13,0,0,1,.32,0c.12,0,.15.39.12.42Zm-.13-.8c0-.05.17,0,.28,0s.1.06.1.1-.1.09-.22.09-.17-.06-.16-.17Zm.67.75c0,.07-.18.09-.29.06s-.22-.44-.1-.47a.62.62,0,0,1,.33,0c.07,0,.07.35.05.41Zm.17.06a.8.8,0,0,1-.06-.48c0-.06.22,0,.28,0s0,.16.1.36-.22.18-.33.13Zm.16-.64c-.1,0-.07-.12-.07-.17s.12,0,.2,0,0,.06.06.09-.11.09-.19.09Zm.61.62c-.11,0-.32.05-.31,0s-.16-.38-.09-.39.43,0,.46,0,0,.38-.06.41Zm0-.78s.13,0,.21,0,0,.06,0,.09-.08.09-.16.09a.11.11,0,0,1-.1-.12v0Zm.53.76c-.1,0-.24.05-.24,0s-.13-.37-.06-.43.31,0,.37,0,0,.37-.07.41Zm.18-.74c0-.06.11,0,.19,0s.07.06.07.09-.08.05-.16.05-.11-.07-.1-.1Zm.19.76c-.09,0-.06-.09-.06-.21s0-.22,0-.24.19,0,.26,0,.1.25.1.4,0,.06-.28.08Zm.28-.66c-.09,0-.11-.07-.09-.1s.11,0,.18,0,0,0,.06.07-.08.05-.15.05Zm.17-.53c0,.05-.1.18-.18.2s-.22,0-.2,0,.05-.14,0-.2-.27-.2-.15-.23a.31.31,0,0,1,.25,0c.13,0,.3.21.28.26Zm.13-.95s-.06.06-.09,0a.22.22,0,0,1,0-.22c.06,0,0-.1.07-.1s0,.15,0,.16S47,29,47,29Zm.12.72a.56.56,0,0,1,.13.37c0,.07-.1.07-.17.06s0-.08,0-.2a.44.44,0,0,0-.23-.24s0-.07.05-.07a.32.32,0,0,1,.21.08Zm-.07.75c-.09,0-.1-.06-.09-.09s.1,0,.17,0,0,0,.06.06-.07,0-.14,0Zm.37.6a.45.45,0,0,1-.23,0c-.08,0,.06-.24,0-.36s.17,0,.23,0,.06.25,0,.33Zm-.09-.69s.09,0,.15,0,0,0,0,.05-.06,0-.13,0a.07.07,0,0,1-.07-.09Zm.19-.4c0-.05-.2-.27-.12-.3a.31.31,0,0,1,.21,0,.37.37,0,0,1,.1.28c0,.09,0,.16-.11.16s0-.1-.09-.16ZM48,28.82v-.17h-.14c0-.15.08-.31.13-.5a1.41,1.41,0,0,0,1-.07c.08,0,.1,0,.08.07s-.2.06-.34.2v-.07h-.16v.1h.13a.85.85,0,0,0-.17.36,1.83,1.83,0,0,1-.26.5H48v.14h.06l-.11.12a.26.26,0,0,1-.15-.12h.07v-.14h-.13s0-.06,0-.08v0h.12v-.17h-.13a2.34,2.34,0,0,1,0-.26v.14Zm-.21,1.63c-.08,0-.09-.05-.08-.07s.09,0,.15,0,0,0,.06.06-.07,0-.13,0Zm.15-.77a.26.26,0,0,1,.23,0c0,.08.1.29.07.32s-.14.07-.18,0-.16-.36-.12-.38Zm.14.78c-.08,0-.09-.05-.08-.08s.09,0,.15,0,0,0,0,.05-.06,0-.12,0Zm.17.46c-.14.19-.28.18-.29.13s.13-.13.14-.23,0-.2,0-.2.2.18.1.31Zm.1-.47c-.07,0-.09,0-.08-.06s.08,0,.14,0,0,0,0,0-.06,0-.11,0Zm.08-.41c0-.06-.16-.37-.1-.4a.08.08,0,0,1,.12,0h0s.12.2.09.25-.09.15-.11.12Zm.15.41s-.05,0,0-.05,0,0,.09,0,0,0,0,0S48.57,30.45,48.53,30.45Zm.2-.46a.94.94,0,0,1-.12-.3c0-.06,0-.06.07-.06s.19.22.19.26-.13.11-.14.1Zm0-.7c0,.08-.15.06-.35.07s0-.26,0-.3c.22-.17.08-.24.2-.34a4.6,4.6,0,0,1,.46-.53c.07-.05,0-.07,0-.07s0-.3,0-.31.15-.22.14-.25-.08.09-.24.25a.89.89,0,0,1-1,.06c-.08-.07,0,0,.17-.28a1,1,0,0,0,.1-.49.59.59,0,0,0-.13-.36,1.23,1.23,0,0,1-.39,1s0,.17.06.15,0,.41,0,.46a.52.52,0,0,0-.13.28,1.67,1.67,0,0,0-.05.31c0,.12.08.22,0,.23s-.07.17-.06.2-.39.1-.45,0,.08-.1.11-.13a.55.55,0,0,0,0-.36c-.05,0-.09-.12,0-.14s.1.1.13.12.08,0,.1,0a.39.39,0,0,0,0-.28c0-.2-.29-.34-.26-.4s.07-.18,0-.2-.09.17-.16.2.07.2,0,.23a.22.22,0,0,0-.09.19.75.75,0,0,1-.15.38c-.07.06-.22.48-.36.47s-.38,0-.37,0,.26-.25.3-.33.16-.37.23-.57a.52.52,0,0,1,0-.3c.07-.12.22,0,.34-.17a2,2,0,0,0,.34-.51c0-.11.1-.44.14-.54s-.1.1-.15.21a2.69,2.69,0,0,0-.12.34,1.34,1.34,0,0,1-.22.36c-.1.1-.25.11-.25,0a.75.75,0,0,1,.07-.12l.29-.53c.09-.17.32-.52.34-.58a3.75,3.75,0,0,0-.38.51l-.3.48a.12.12,0,0,1-.15,0,.17.17,0,0,1-.11-.2s.13-.13.18-.18A2.9,2.9,0,0,0,47,27a3.4,3.4,0,0,0,.31-.52s-.32.43-.4.52a1.87,1.87,0,0,1-.34.29c-.09,0-.15,0-.18,0s.09-.06.14-.1a2,2,0,0,0,.29-.27l.22-.22a1.14,1.14,0,0,0,.2-.33,2.27,2.27,0,0,1-.17.22l-.34.34a1.84,1.84,0,0,1-.22.17s-.11,0-.14,0,0-.07,0-.1l.31-.22s-.2.07-.28.07-.11-.07,0-.12a.78.78,0,0,0,.24-.16c.08-.12.06-.15,0-.1s-.07.05-.15.05-.14-.07-.08-.12a.49.49,0,0,1,.28-.11c.06,0,.25,0,.25-.06s-.14-.13-.25-.13-.07,0-.14.1a.28.28,0,0,1-.4,0v0s.31.12.38-.05a.15.15,0,0,0-.06-.2h0a.28.28,0,0,0-.18,0c-.11.06,0-.07.1-.1s.17-.06.12-.11-.08,0-.11-.06-.1-.41.1-.53.1-.08.11-.14-.1-.15-.13-.18a.11.11,0,0,1,0-.15s.1,0,.07-.05a.19.19,0,0,1,0-.18.43.43,0,0,1,.23-.14s-.06.2-.07.26a.27.27,0,0,0,0,.23.37.37,0,0,0,.18.11.33.33,0,0,0,.22,0,.52.52,0,0,0,.11-.1c.09-.17,0-.26,0-.36s.1,0,.14.06a.32.32,0,0,1,.07.27c0,.17,0,.1.07.13s.08.06.09.11,0,.05-.06.08,0,.14,0,.16,0,.14,0,.12,0,0,0,.08,0,.26-.07.37a1.34,1.34,0,0,1-.21.2c-.1.05-.26,0-.31,0s-.08.08,0,.07a.11.11,0,0,1,.11.09.17.17,0,0,1,0,.15c-.06.05-.06.1,0,.08s.1-.12.2-.2l.16-.1a.56.56,0,0,1,.2-.11c.1,0,.08-.23.26-.31a.45.45,0,0,1,.34,0c.08,0,.26.16.16.34a.49.49,0,0,1-.21.26.21.21,0,0,0,0,.29s.07.13.13.18.11.05.26,0a.45.45,0,0,1,.27-.1,1.11,1.11,0,0,1,.5.12.53.53,0,0,1,.24.23,1.06,1.06,0,0,1,0,.19.73.73,0,0,1,.08.25c0,.19-.08.24-.07.32s0,.33-.08.34-.16,0-.16.13a.28.28,0,0,1,0,.2c0,.06-.15.13-.24.24s-.06.17-.09.23a.5.5,0,0,0-.12.29c0,.1-.13.14-.16.2ZM46.33,26c.08,0,.07.07,0,.08a.13.13,0,0,1-.13,0S46.3,26,46.33,26ZM49.1,29.1c0,.08,0,.23,0,.26s-.05,0-.07-.09a.62.62,0,0,1,0-.38.2.2,0,0,1,.14-.14c.08,0,.1.06.07.14s-.14.14-.13.22Zm0,.78s-.06.05-.07-.05-.23-.23-.13-.25.11,0,.14,0a1.63,1.63,0,0,1,.17.2s-.07,0-.1.08Zm.37-.1a.14.14,0,0,1-.11,0,.12.12,0,0,1,0-.08s-.14-.14-.14-.15l.06-.05a.51.51,0,0,1,.21.18c0,.05,0,.08,0,.1Zm.25-.1s-.1.06-.11,0,0-.08-.06-.13-.1-.13,0-.14a.2.2,0,0,1,.19.12c0,.05.09.08,0,.12Zm.23-.5c-.06.17-.16-2.53-.16-2.74a8.16,8.16,0,0,1,0-1.78c.05,0,.18.42.21,1.22a22.74,22.74,0,0,1-.09,3.3Zm.08-5.86s.08.05.08.16,0,.21,0,.22,0-.1-.06-.17-.07-.2,0-.21ZM50.42,28a9.41,9.41,0,0,1-.13,1.19c0,.08-.12-2.35-.11-2.52s0-1.93,0-1.9.17.95.17,1.32c0,.21,0,1.47,0,1.92Zm-.08-3.71a.11.11,0,0,1-.14,0,.1.1,0,0,1-.06-.09c0-.14-.1-.27,0-.27a.24.24,0,0,1,.24.32Zm-1-2.14a.52.52,0,0,1,.19.11c.05.06,0,.43,0,.49s.13.15.64.4a.35.35,0,0,1,.08.26c0,.07,0,.24-.09.24s-.06,0,0-.2a.27.27,0,0,0-.07-.24.28.28,0,0,0-.18,0c-.07,0-.05.15,0,.29s.12.12.07.26-.17.06-.21,0,0-.13,0-.16a.78.78,0,0,0,0-.34c-.06,0-.34-.29-.34-.36a.32.32,0,0,0-.12-.29s0-.28-.23-.38c0-.06.19-.07.26-.05Zm-.76.14c.11-.05.27,0,.35.06s.26.11.27.21a2.9,2.9,0,0,0,0,.51,1.67,1.67,0,0,1,.08.3,1.13,1.13,0,0,1,0,.26s-.09,0-.15,0a2.24,2.24,0,0,0,0-.48A.48.48,0,0,0,49,23a1.08,1.08,0,0,1-.34-.47c0-.08-.1-.18,0-.2Zm-.24.29c0,.17,0,.33.11.41a2.11,2.11,0,0,0,.4.26c.09,0,.08.18.05.25s-.18.28-.17-.07c0-.11-.23-.16-.29-.11s-.05.22-.12.24-.1-.26,0-.3a.85.85,0,0,0-.25-.64c-.11-.07.06.3,0,.45s0,.43-.21.4c-.37-.05-.6-.72-.73-.78s0-.32-.37-.71c-.08-.08,0-.6-.1-.64s0-.53-.13-.58-.05-.37-.28-.52a.78.78,0,0,1-.17-.34,2.18,2.18,0,0,0-.11-.44,1.12,1.12,0,0,1-.15-1,.51.51,0,0,0,.06-.42,1,1,0,0,1,.09-.71c.08-.1-.08-1,.11-1.38,0-.08,0-.18,0-.18s.06-.18,0-.22-.07-.24-.09-.34-.11-.3,0-.36.1.18.21.25a1.6,1.6,0,0,1,.46.35.59.59,0,0,0,.26.3.66.66,0,0,1,.34.41,5.32,5.32,0,0,1,.16,1.38c0,.38.1.54,0,.64s.07.58,0,.69a7,7,0,0,0,0,1.83c.09.23.11.83.17,1s.13.42.32.5.19.14.32.08.17.16.19.28Zm-1-6.86s.13-.07.15,0,0,.17-.07.18-.21-.08-.08-.17Zm.66,2.55c0,.25-.3,1.54-.28,1.78s.33.87.31,1.09.28.62.29.76-.13,0-.22-.15a1.78,1.78,0,0,0-.25-.36c-.08,0,.05.37.11.48s.33.37.29.39a1.52,1.52,0,0,1-.55-.52,8,8,0,0,1-.23-.84,3.8,3.8,0,0,1,0-.89c.05-.95.23-1.83.21-2a7.69,7.69,0,0,0,0-1.27c-.05-.07-.12-.38,0-.45s.2,0,.25.12a5.51,5.51,0,0,1,.12,1.9Zm.27-3a1.24,1.24,0,0,0-.23.32c0,.09,0,.12.08.17s.08.18,0,.21-.35-.09-.37-.27.2-.27.12-.32-.33.05-.48,0a.35.35,0,0,1-.22-.3.65.65,0,0,1,.27-.53.11.11,0,0,1,.15,0,.09.09,0,0,1,0,.1c0,.11-.27.16-.3.33a.22.22,0,0,0,.19.24h.07c.16,0,.19-.1.42-.12s.36,0,.28.13ZM48.89,14a.84.84,0,0,1-.26.38c-.08.07-.27.2,0,.41.09.07,0,.23-.23.06a.55.55,0,0,1-.06-.51.74.74,0,0,1,.34-.34c.16-.1.08-.28.2-.28s0,.13,0,.28Zm0-1.19c0,.17,0,.34,0,.5a.78.78,0,0,1,0-1.09c.08-.12.11-.26.17-.24s.1.17.13.34-.28.34-.28.49Zm.39.5c0,.12.13.22.21.31s-.05.08-.18.1a.35.35,0,0,1-.21-.3.78.78,0,0,1,.29-.65c.17-.12.14-.21.11-.3s.22,0,.23.24c0,.38-.42.48-.45.6ZM49.87,11c-.12.18-.25.34-.38.5s0,.27.13.22.26-.44.44-.5.17.1.14.27-.31.25-.41.46a.39.39,0,0,0,0,.26c0,.05-.11,0-.15,0s0-.22-.06-.24c-.38-.2-.44-.43-.43-.53a2.25,2.25,0,0,1,.4-.6c.12-.11.19-.3.29-.3s.1.37,0,.5Zm-.28-1.51a.42.42,0,0,0,.19.37c.12.07-.06.07-.11,0s-.27-.26-.4-.35.21-.16.21-.22,0-.17-.11-.1a.42.42,0,0,1-.45-.1.68.68,0,0,1-.09-.67.48.48,0,0,1,.26-.31s.19,0,.19.08-.14.3-.22.45,0,.46.19.46.12-.12.23-.13.13.28.11.49Zm2-1.63a1.35,1.35,0,0,1-.4.31c-.07,0,.12.16,0,.16A.35.35,0,0,1,51,8.09c-.07-.12-.16-.32-.28-.31a.6.6,0,0,1-.41-.09.29.29,0,0,1-.17-.17c0-.06,0-.1.15-.22a.74.74,0,0,0,.16-.2,2.26,2.26,0,0,1,.22-.44,2,2,0,0,1,.19-.22s.1,0,0,.07a3.91,3.91,0,0,0-.31.57,1.79,1.79,0,0,0-.2.39c0,.12.12.09.19.08s.08-.25.15-.24.11.13.09.2c0,.22.14-.06.2,0s-.13.4.13.17c.08-.07.12-.32.24-.24s.12.11.09.14-.27.19-.32.25,0,.17,0,.18.21-.2.37-.27.18,0,.14.11ZM51,7c.08.07.18.24.12.26S51,7.14,51,7.1s-.15,0-.17-.06a.06.06,0,0,1,0-.09h0A.48.48,0,0,1,51,7Zm1.7-.61c0,.1-.14.34-.25.29s-.07-.34-.36-.44a1.21,1.21,0,0,0-.43,0c-.06,0,0-.14,0-.22a.18.18,0,0,0-.11-.14c-.09,0-.13-.15-.07-.17s.26.3.37.18-.11-.1-.07-.29A.36.36,0,0,1,52,5.32l0,0s0-.35,0-.45a.59.59,0,0,0-.1-.17.19.19,0,0,0-.26,0,5.75,5.75,0,0,0-.56.74c-.15.2-.21.17.24.39a.33.33,0,0,1,.18.41s0,0,0,0,0,.16.14.15a1.55,1.55,0,0,1,.37,0,1,1,0,0,1,.49.38c.11.15.06.29,0,.24A2.44,2.44,0,0,1,52,6.67c-.08-.06-.19-.15-.28-.11s0,.14.1.2.4.38.28.47-.25-.17-.32-.26a.59.59,0,0,0-.23-.26l.11.21a1.55,1.55,0,0,1,.13.36c0,.14,0,.28-.06.28s-.1-.13-.23-.21-.3-.4-.44-.61,0-.1.08-.08.29.46.38.55.06-.07,0-.18-.12-.32-.13-.36h0a2,2,0,0,1-.31-.34c-.18-.22-.47,0-.51-.13s-.07.15-.12.23a1.73,1.73,0,0,0-.22.57c0,.37-.17.21-.31.29s-.19.3,0,.51.51.12.68.13.08.1.09.24a.75.75,0,0,0,.19.4c.06.09-.07.17-.23.23a.33.33,0,0,1-.39-.12c-.05-.08,0-.25-.14-.38s-.4-.2-.53-.34a2.27,2.27,0,0,1,0-.86c0-.1-.1-.33,0-.43s.35.12.48,0,.19-.17.24-.23.26-.22.28-.2-.22,0-.37,0-.49.1-.52,0,.08-.14.06-.35-.12-.23-.11-.37.07-.25.34-.26a1.33,1.33,0,0,1,.62.1c.11,0,.22,0,.22,0A.8.8,0,0,0,50.36,5a.33.33,0,0,0-.29,0c-.07,0-.28,0-.29-.1s-.07-.12-.09-.25-.06-.32.2-.32.24-.35.42-.42a.51.51,0,0,1,.42.06c.82.45,1,.22,1.16.49a2.1,2.1,0,0,1,.15.3,1.17,1.17,0,0,1,0,.49c.09,0,.05.28.2.38a1.39,1.39,0,0,1,.32.27.68.68,0,0,1,.14.46Zm-1.47-.81A.24.24,0,0,1,51,5.51a3.19,3.19,0,0,0,.44-.46c.11-.17.29,0,.26.13A.6.6,0,0,1,51.27,5.59Z" transform="translate(-1.62 0)"/></g><g id="path285"><path d="M36.92,6.61h0Z" transform="translate(-1.62 0)"/></g><g id="path287"><path d="M36.91,6.61h0Z" transform="translate(-1.62 0)"/></g><g id="path289"><path d="M40.64,4.23s-.07-.08-.14-.16S40.59,4.22,40.64,4.23Z" transform="translate(-1.62 0)"/></g><g id="path293"><path d="M40,32.47c-.09,0-.13,0-.13.05a.31.31,0,0,0,.05.1l.06.08c.08.12.16.17.21.17h.25l.1,0a.64.64,0,0,1,.15.13l.25.31a.17.17,0,0,0,.13.09,0,0,0,0,0,0,0h0A.26.26,0,0,0,41,33.2l-.28-.34a.92.92,0,0,0-.74-.38Zm9,0c-.08,0-.13,0-.12.05a.18.18,0,0,0,0,.1l.06.08c.09.12.16.17.21.17h.25l.11,0a.64.64,0,0,1,.15.13l.24.31c.05.06.09.09.13.09a0,0,0,0,0,0,0h0a.3.3,0,0,0-.08-.16l-.29-.34A.93.93,0,0,0,49,32.47Zm-14.74,1v.27h.58v.43l0,.1c0,.06-.07.09-.1.09s-.07,0-.11,0l-.12,0c-.09,0-.13.06-.13.19a1,1,0,0,0,.3.6l.27.33a2.42,2.42,0,0,0,.32.32.21.21,0,0,0,.15.07s0,0,0,0a.45.45,0,0,0-.2-.27l-.21-.16c-.12-.11-.17-.2-.17-.25V35l0-.07.12-.2.06-.14h.08l.08,0a.81.81,0,0,0,.14.12.58.58,0,0,0,.23,0h.14a.59.59,0,0,0,.23,0v.57a.42.42,0,0,0,.09.27l.09.09s.08.08.11.08,0,0,0,0a.13.13,0,0,0,0-.06V33.75h1.94a.46.46,0,0,1,0,.21.26.26,0,0,1-.12.24.63.63,0,0,1-.27.06h-.8a.57.57,0,0,0-.33.11.43.43,0,0,0-.17.35.72.72,0,0,0,.16.47l.22.29a1,1,0,0,0,.27.24.23.23,0,0,0,.12.06,0,0,0,0,0,0,0h0a.41.41,0,0,0,0-.08.91.91,0,0,0-.17-.17l-.15-.13a.46.46,0,0,1-.17-.38c0-.25.14-.4.43-.43h.53l.1.16a.86.86,0,0,0,.69.46.73.73,0,0,0,.35-.09.05.05,0,0,1,0,0s0,0,0,.05v.26l0,.11a.22.22,0,0,0,0,.08l.19.19s.06,0,.08,0,0,0,0,0v-2h.65v.77l0,0h-.12a.13.13,0,0,0-.15.11v0a.37.37,0,0,0,.15.25l.16.18a.31.31,0,0,0,.19.11.17.17,0,0,0,.1,0,.08.08,0,0,0,0-.07.13.13,0,0,0,0-.06v-.13a.1.1,0,0,1,.06-.09h.7v.62a.59.59,0,0,0,.13.19c.08.08.13.12.16.11s0,0,0-.1V33.75H43v.6l-.27-.17a.55.55,0,0,0-.24-.07,1.24,1.24,0,0,0-.27,0,.37.37,0,0,0-.32.39.75.75,0,0,0,.21.47.55.55,0,0,0,.46.22.76.76,0,0,0,.33-.08l0,0H43v.15a.51.51,0,0,0,.12.38c.08.09.14.13.16.13s0,0,0-.09V33.74h.26v-.27H34.3Zm10.14,0v.27h1.88v.53l-1,0h-.06s0,0,0,0h0l0,0a1.11,1.11,0,0,1,.34.47.25.25,0,0,1-.2.28H45.3a.38.38,0,0,1-.21-.07,1.29,1.29,0,0,1-.17-.16.81.81,0,0,1-.17-.28l-.09-.19c0-.06-.06-.1-.1-.1s-.06,0-.06.08v0l.1.23a1.63,1.63,0,0,0,.19.34,1.6,1.6,0,0,0,.4.38.56.56,0,0,0,.33.08.29.29,0,0,0,.3-.29v0a.58.58,0,0,0-.06-.26l-.1-.19v0s0,0,.07,0a.25.25,0,0,1,.12,0h.48v.91a.12.12,0,0,0,.07.11,1.55,1.55,0,0,0,.24.19s0,0,0-.09V33.75h.78a.36.36,0,0,1,.06.2.27.27,0,0,1-.12.24.46.46,0,0,1-.28.06H47a.06.06,0,0,0-.05.06.78.78,0,0,0,.11.2l.11.17a.9.9,0,0,0,.7.47.59.59,0,0,0,.34-.1h0s0,0,0,.05v.26l0,.1a.24.24,0,0,0,.06.09l.18.18a.21.21,0,0,0,.08.06s0,0,0,0v-2h1.6v.51h-.73a.52.52,0,0,0-.34.12.44.44,0,0,0-.18.35.73.73,0,0,0,.17.47l.22.3a1.27,1.27,0,0,0,.27.25.21.21,0,0,0,.12,0s0,0,0,0h0a.19.19,0,0,0,0-.08.77.77,0,0,0-.18-.18l-.15-.13a.49.49,0,0,1-.17-.39c0-.25.14-.4.43-.43h.52v.92a.18.18,0,0,0,.05.12l.11.09.16.12s0,0,0-.12V33.75h.2v-.27Zm-9.27.27H36v.68a.89.89,0,0,1-.45.09h-.25a.2.2,0,0,1-.15,0Zm3.26,0h.67v.65a.39.39,0,0,1-.21.34.72.72,0,0,1-.4.12.5.5,0,0,1-.24-.06c-.1-.06-.14-.11-.14-.18a.06.06,0,0,1,0-.06l.15,0c.14-.07.22-.14.22-.24l0-.15,0-.2a1.25,1.25,0,0,1,0-.19Zm2,0h.78v.8h-.78Zm7.22,0h.67v.65a.43.43,0,0,1-.21.34.73.73,0,0,1-.41.12.46.46,0,0,1-.23-.06c-.1-.06-.15-.11-.15-.18a.06.06,0,0,1,.06-.06l.14,0c.15-.07.22-.14.22-.24l0-.15,0-.2a1.23,1.23,0,0,1,0-.19Zm-5,.63h.06a.83.83,0,0,1,.35,0v.28a1,1,0,0,1-.24.15,1.11,1.11,0,0,1-.26.07l-.13,0c-.15,0-.22-.06-.22-.18a.4.4,0,0,1,.42-.39Z" transform="translate(-1.62 0)"/></g></g><g id="Ministry_of_Youth_Affairs_and_Sports" data-name="Ministry of Youth Affairs and Sports" class="cls-1"><g class="cls-1"><path d="M26.78,43.22l.09.21.09-.21.09-.2,1.29-2.41a.18.18,0,0,1,.05-.07.1.1,0,0,1,.05,0h.78v4.34H28.5V42c0-.05,0-.11,0-.17s0-.13,0-.19l-1.31,2.46a.3.3,0,0,1-.12.13.28.28,0,0,1-.16,0h-.11a.31.31,0,0,1-.17,0,.3.3,0,0,1-.12-.13L25.2,41.65c0,.07,0,.13,0,.19v3h-.71V40.48h.77l.06,0a.18.18,0,0,1,.05.07L26.69,43Z" transform="translate(-1.62 0)"/><path d="M31,44.82h-.81V40.48H31Z" transform="translate(-1.62 0)"/><path d="M32.49,40.49l.06,0,.06,0,.06.06L35,43.51a1.36,1.36,0,0,1,0-.2c0-.07,0-.13,0-.19V40.48h.72v4.34h-.42a.35.35,0,0,1-.16,0,.3.3,0,0,1-.12-.11l-2.27-2.89c0,.07,0,.13,0,.2s0,.12,0,.17v2.66H32V40.48h.51Z" transform="translate(-1.62 0)"/><path d="M37.42,44.82h-.81V40.48h.81Z" transform="translate(-1.62 0)"/><path d="M40.72,41.27a.21.21,0,0,1-.08.1l-.1,0a.24.24,0,0,1-.13,0l-.18-.11-.24-.1a1,1,0,0,0-.32,0,1.36,1.36,0,0,0-.3,0,.72.72,0,0,0-.21.12.35.35,0,0,0-.12.17.54.54,0,0,0,0,.22.34.34,0,0,0,.08.25.71.71,0,0,0,.23.18,1.93,1.93,0,0,0,.32.13l.37.12a2.75,2.75,0,0,1,.36.15,1.48,1.48,0,0,1,.32.21,1,1,0,0,1,.23.32,1.08,1.08,0,0,1,.09.46,1.63,1.63,0,0,1-.1.55,1.37,1.37,0,0,1-.3.45,1.27,1.27,0,0,1-.47.3,1.83,1.83,0,0,1-.64.11,1.9,1.9,0,0,1-.41,0,2.4,2.4,0,0,1-.38-.12,1.92,1.92,0,0,1-.35-.18,1.63,1.63,0,0,1-.29-.23l.24-.39.08-.07a.17.17,0,0,1,.1,0,.23.23,0,0,1,.16.07l.21.13a1.46,1.46,0,0,0,.28.14,1.08,1.08,0,0,0,.38.06.81.81,0,0,0,.54-.16.62.62,0,0,0,.19-.47.41.41,0,0,0-.09-.28.71.71,0,0,0-.23-.18A1.93,1.93,0,0,0,39.6,43l-.36-.11-.37-.14a1.4,1.4,0,0,1-.32-.22,1.07,1.07,0,0,1-.23-.34,1.41,1.41,0,0,1-.08-.5,1.22,1.22,0,0,1,.09-.46,1.38,1.38,0,0,1,.28-.4,1.28,1.28,0,0,1,.45-.28,1.57,1.57,0,0,1,.6-.1,2.08,2.08,0,0,1,.71.12,1.68,1.68,0,0,1,.55.33Z" transform="translate(-1.62 0)"/><path d="M44.67,40.48v.67h-1.3v3.67h-.81V41.15H41.25v-.67Z" transform="translate(-1.62 0)"/><path d="M46,43.13v1.69h-.81V40.48h1.32a2.41,2.41,0,0,1,.76.1,1.33,1.33,0,0,1,.52.25.9.9,0,0,1,.3.4,1.35,1.35,0,0,1,.1.5,1.42,1.42,0,0,1-.07.42,1.16,1.16,0,0,1-.18.35,1.38,1.38,0,0,1-.31.28,1.48,1.48,0,0,1-.4.19.77.77,0,0,1,.26.25l1.09,1.6h-.73a.32.32,0,0,1-.3-.16l-.91-1.39a.31.31,0,0,0-.12-.11.42.42,0,0,0-.18,0Zm0-.58h.5a1.2,1.2,0,0,0,.4-.06.76.76,0,0,0,.28-.16.53.53,0,0,0,.16-.23.81.81,0,0,0,.06-.31.61.61,0,0,0-.22-.5,1.05,1.05,0,0,0-.67-.18H46Z" transform="translate(-1.62 0)"/><path d="M51,43.14v1.68h-.8V43.14l-1.59-2.66h.72a.21.21,0,0,1,.16.06.43.43,0,0,1,.11.12l.79,1.45a1.87,1.87,0,0,1,.12.25,2,2,0,0,1,.09.22l.09-.23c0-.07.07-.15.12-.24l.79-1.45a.35.35,0,0,1,.1-.12.24.24,0,0,1,.17-.06h.71Z" transform="translate(-1.62 0)"/><path d="M58.36,42.65a2.35,2.35,0,0,1-.16.89,2.05,2.05,0,0,1-.45.7,1.94,1.94,0,0,1-.69.46,2.44,2.44,0,0,1-1.79,0,1.9,1.9,0,0,1-.7-.46,2.21,2.21,0,0,1-.45-.7,2.35,2.35,0,0,1-.16-.89,2.3,2.3,0,0,1,.16-.88,2.11,2.11,0,0,1,.45-.7,1.92,1.92,0,0,1,.7-.47,2.58,2.58,0,0,1,1.79,0,2.11,2.11,0,0,1,.69.47,2,2,0,0,1,.45.7A2.3,2.3,0,0,1,58.36,42.65Zm-.83,0a2.15,2.15,0,0,0-.09-.64,1.58,1.58,0,0,0-.27-.48,1.28,1.28,0,0,0-.43-.3,1.56,1.56,0,0,0-1.15,0,1.19,1.19,0,0,0-.43.3,1.41,1.41,0,0,0-.28.48,2.15,2.15,0,0,0-.09.64,2.11,2.11,0,0,0,.09.64,1.41,1.41,0,0,0,.28.48,1.35,1.35,0,0,0,.43.31,1.48,1.48,0,0,0,.57.1,1.5,1.5,0,0,0,.58-.1,1.48,1.48,0,0,0,.43-.31,1.58,1.58,0,0,0,.27-.48A2.11,2.11,0,0,0,57.53,42.65Z" transform="translate(-1.62 0)"/><path d="M61.73,40.48v.65H59.81v1.28h1.62v.65H59.81v1.76H59V40.48Z" transform="translate(-1.62 0)"/></g><g class="cls-1"><path d="M4,51.14v1.68H3.2V51.14L1.62,48.48h.71a.25.25,0,0,1,.17.06.4.4,0,0,1,.1.12l.79,1.45a1.87,1.87,0,0,1,.12.25,2.14,2.14,0,0,1,.1.22,1.36,1.36,0,0,1,.09-.23l.11-.24.79-1.45a.53.53,0,0,1,.1-.12.25.25,0,0,1,.17-.06h.71Z" transform="translate(-1.62 0)"/><path d="M9.92,50.65a2.56,2.56,0,0,1-.15.89,2.21,2.21,0,0,1-.45.7,1.94,1.94,0,0,1-.69.46,2.47,2.47,0,0,1-1.8,0,2.08,2.08,0,0,1-.7-.46,2,2,0,0,1-.44-.7,2.35,2.35,0,0,1-.16-.89,2.3,2.3,0,0,1,.16-.88,1.94,1.94,0,0,1,.44-.7,2.1,2.1,0,0,1,.7-.47,2.36,2.36,0,0,1,.9-.16,2.36,2.36,0,0,1,.9.16,2.09,2.09,0,0,1,1.14,1.17A2.5,2.5,0,0,1,9.92,50.65Zm-.82,0A2.15,2.15,0,0,0,9,50a1.25,1.25,0,0,0-.27-.48,1.19,1.19,0,0,0-.43-.3,1.53,1.53,0,0,0-1.14,0,1.23,1.23,0,0,0-.44.3,1.25,1.25,0,0,0-.27.48,1.87,1.87,0,0,0-.1.64,1.83,1.83,0,0,0,.1.64,1.25,1.25,0,0,0,.27.48,1.4,1.4,0,0,0,.44.31,1.67,1.67,0,0,0,1.14,0,1.35,1.35,0,0,0,.43-.31A1.25,1.25,0,0,0,9,51.29,2.1,2.1,0,0,0,9.1,50.65Z" transform="translate(-1.62 0)"/><path d="M12.31,52.17a1,1,0,0,0,.42-.08.84.84,0,0,0,.31-.22.86.86,0,0,0,.19-.34,1.25,1.25,0,0,0,.07-.45v-2.6h.81v2.6a1.88,1.88,0,0,1-.13.72,1.54,1.54,0,0,1-.36.57,1.71,1.71,0,0,1-.56.37,2,2,0,0,1-.75.13,2,2,0,0,1-.75-.13,1.76,1.76,0,0,1-.57-.37,1.85,1.85,0,0,1-.36-.57,2.09,2.09,0,0,1-.12-.72v-2.6h.81v2.6a1.53,1.53,0,0,0,.06.45,1,1,0,0,0,.2.34.77.77,0,0,0,.31.22A.93.93,0,0,0,12.31,52.17Z" transform="translate(-1.62 0)"/><path d="M18,48.48v.67H16.68v3.67h-.81V49.15H14.56v-.67Z" transform="translate(-1.62 0)"/><path d="M22.16,52.82h-.81V50.93h-2v1.89H18.5V48.48h.81v1.87h2V48.48h.81Z" transform="translate(-1.62 0)"/><path d="M28,52.82h-.63a.29.29,0,0,1-.17,0,.31.31,0,0,1-.1-.13l-.32-.89H25l-.32.89a.31.31,0,0,1-.1.13.31.31,0,0,1-.17,0h-.63l1.71-4.34h.82ZM25.2,51.18h1.38l-.53-1.44L26,49.51c0-.08,0-.18-.08-.28,0,.1-.06.2-.08.29s-.06.16-.08.23Z" transform="translate(-1.62 0)"/><path d="M31.19,48.48v.65H29.27v1.28h1.62v.65H29.27v1.76h-.82V48.48Z" transform="translate(-1.62 0)"/><path d="M34.56,48.48v.65H32.63v1.28h1.63v.65H32.63v1.76h-.81V48.48Z" transform="translate(-1.62 0)"/><path d="M38.56,52.82h-.62a.29.29,0,0,1-.17,0,.31.31,0,0,1-.1-.13l-.32-.89h-1.8l-.33.89a.22.22,0,0,1-.09.13.34.34,0,0,1-.17,0h-.63L36,48.48h.83Zm-2.8-1.64h1.38l-.53-1.44-.08-.23c0-.08-.06-.18-.09-.28a2.45,2.45,0,0,1-.08.29,1.55,1.55,0,0,1-.08.23Z" transform="translate(-1.62 0)"/><path d="M39.92,52.82h-.81V48.48h.81Z" transform="translate(-1.62 0)"/><path d="M41.73,51.13v1.69h-.81V48.48h1.32a2.41,2.41,0,0,1,.76.1,1.33,1.33,0,0,1,.52.25.9.9,0,0,1,.3.4,1.35,1.35,0,0,1,.1.5,1.42,1.42,0,0,1-.07.42,1.16,1.16,0,0,1-.18.35,1.38,1.38,0,0,1-.31.28A1.48,1.48,0,0,1,43,51a.77.77,0,0,1,.26.25l1.09,1.6h-.73a.32.32,0,0,1-.3-.16l-.91-1.39a.31.31,0,0,0-.12-.11.42.42,0,0,0-.18,0Zm0-.58h.5a1.2,1.2,0,0,0,.4-.06.76.76,0,0,0,.28-.16.53.53,0,0,0,.16-.23.81.81,0,0,0,.06-.31.61.61,0,0,0-.22-.5,1.05,1.05,0,0,0-.67-.18h-.51Z" transform="translate(-1.62 0)"/><path d="M47.15,49.27a.21.21,0,0,1-.08.1l-.1,0a.27.27,0,0,1-.14,0l-.17-.11-.24-.1a1,1,0,0,0-.32,0,1.28,1.28,0,0,0-.3,0,.72.72,0,0,0-.21.12.35.35,0,0,0-.12.17.54.54,0,0,0,0,.22.35.35,0,0,0,.09.25.71.71,0,0,0,.23.18,1.93,1.93,0,0,0,.32.13l.36.12a2.39,2.39,0,0,1,.37.15,1.48,1.48,0,0,1,.32.21,1,1,0,0,1,.23.32,1.08,1.08,0,0,1,.08.46,1.42,1.42,0,0,1-.1.55,1.2,1.2,0,0,1-.29.45,1.35,1.35,0,0,1-.47.3,2,2,0,0,1-1.05.07l-.39-.12a2.21,2.21,0,0,1-.34-.18,1.63,1.63,0,0,1-.29-.23l.24-.39.08-.07a.17.17,0,0,1,.1,0,.25.25,0,0,1,.16.07l.21.13a1.46,1.46,0,0,0,.28.14,1,1,0,0,0,.38.06.81.81,0,0,0,.54-.16.62.62,0,0,0,.19-.47.41.41,0,0,0-.09-.28.71.71,0,0,0-.23-.18A1.93,1.93,0,0,0,46,51l-.36-.11-.37-.14a1.21,1.21,0,0,1-.32-.22,1.07,1.07,0,0,1-.23-.34,1.41,1.41,0,0,1-.08-.5,1.22,1.22,0,0,1,.09-.46,1.38,1.38,0,0,1,.28-.4,1.33,1.33,0,0,1,.44-.28,1.66,1.66,0,0,1,.61-.1,2,2,0,0,1,.7.12,1.73,1.73,0,0,1,.56.33Z" transform="translate(-1.62 0)"/><path d="M53,52.82h-.62a.29.29,0,0,1-.17,0,.31.31,0,0,1-.1-.13l-.32-.89H50l-.33.89a.22.22,0,0,1-.09.13.31.31,0,0,1-.17,0h-.63l1.7-4.34h.83Zm-2.8-1.64h1.38l-.53-1.44L51,49.51a1.87,1.87,0,0,1-.08-.28l-.09.29a1.55,1.55,0,0,1-.08.23Z" transform="translate(-1.62 0)"/><path d="M54,48.49l.07,0a.1.1,0,0,1,.05,0,.17.17,0,0,1,.06.06l2.28,2.9a1.34,1.34,0,0,1,0-.2,1.28,1.28,0,0,1,0-.19V48.48h.71v4.34H56.7a.33.33,0,0,1-.15,0,.27.27,0,0,1-.13-.11l-2.27-2.89a1.36,1.36,0,0,1,0,.2v2.83h-.71V48.48H54Z" transform="translate(-1.62 0)"/><path d="M61.85,50.65a2.17,2.17,0,0,1-.61,1.57,1.9,1.9,0,0,1-.69.44,2.36,2.36,0,0,1-.9.16H58V48.48h1.65a2.57,2.57,0,0,1,.9.16,2,2,0,0,1,1.14,1.14A2.21,2.21,0,0,1,61.85,50.65Zm-.83,0a2.15,2.15,0,0,0-.09-.64,1.41,1.41,0,0,0-.28-.48,1.11,1.11,0,0,0-.43-.3,1.48,1.48,0,0,0-.57-.1h-.84v3h.84a1.48,1.48,0,0,0,.57-.1,1.25,1.25,0,0,0,.43-.31,1.41,1.41,0,0,0,.28-.48A2.11,2.11,0,0,0,61,50.65Z" transform="translate(-1.62 0)"/><path d="M66,49.27a.2.2,0,0,1-.07.1l-.1,0a.27.27,0,0,1-.14,0l-.18-.11a1.45,1.45,0,0,0-.24-.1,1,1,0,0,0-.32,0,1.19,1.19,0,0,0-.29,0,.72.72,0,0,0-.21.12.37.37,0,0,0-.13.17.54.54,0,0,0,0,.22.35.35,0,0,0,.09.25.67.67,0,0,0,.22.18l.32.13.37.12a2.39,2.39,0,0,1,.37.15,1.77,1.77,0,0,1,.32.21,1.24,1.24,0,0,1,.23.32,1.26,1.26,0,0,1,.08.46,1.42,1.42,0,0,1-.1.55,1.34,1.34,0,0,1-.29.45,1.31,1.31,0,0,1-.48.3,1.73,1.73,0,0,1-.63.11,1.84,1.84,0,0,1-.41,0,2.22,2.22,0,0,1-.39-.12,1.83,1.83,0,0,1-.34-.18,1.34,1.34,0,0,1-.29-.23l.23-.39.08-.07a.2.2,0,0,1,.11,0,.25.25,0,0,1,.16.07l.2.13a1.83,1.83,0,0,0,.28.14,1.14,1.14,0,0,0,.39.06.76.76,0,0,0,.53-.16.58.58,0,0,0,.19-.47.47.47,0,0,0-.08-.28.84.84,0,0,0-.23-.18,1.93,1.93,0,0,0-.32-.13l-.37-.11-.36-.14a1.21,1.21,0,0,1-.32-.22.93.93,0,0,1-.23-.34,1.21,1.21,0,0,1-.09-.5,1.23,1.23,0,0,1,.1-.46,1.18,1.18,0,0,1,.27-.4,1.37,1.37,0,0,1,.45-.28,1.64,1.64,0,0,1,.6-.1,2,2,0,0,1,.71.12,1.58,1.58,0,0,1,.55.33Z" transform="translate(-1.62 0)"/><path d="M67.69,51.29v1.53h-.8V48.48H68.3a2.37,2.37,0,0,1,.75.11,1.41,1.41,0,0,1,.53.28,1.12,1.12,0,0,1,.3.44,1.47,1.47,0,0,1,.1.56,1.48,1.48,0,0,1-.1.57,1.23,1.23,0,0,1-.32.46,1.53,1.53,0,0,1-.52.29,2.37,2.37,0,0,1-.74.1Zm0-.62h.61a1.14,1.14,0,0,0,.39-.06.66.66,0,0,0,.43-.41.88.88,0,0,0,0-.33.83.83,0,0,0,0-.32.78.78,0,0,0-.16-.24.87.87,0,0,0-.27-.15,1.48,1.48,0,0,0-.39,0h-.61Z" transform="translate(-1.62 0)"/><path d="M74.77,50.65a2.35,2.35,0,0,1-.16.89,2.05,2.05,0,0,1-.45.7,1.94,1.94,0,0,1-.69.46,2.44,2.44,0,0,1-1.79,0,1.9,1.9,0,0,1-.7-.46,2.21,2.21,0,0,1-.45-.7,2.35,2.35,0,0,1-.16-.89,2.3,2.3,0,0,1,.16-.88,2.11,2.11,0,0,1,.45-.7,1.92,1.92,0,0,1,.7-.47,2.58,2.58,0,0,1,1.79,0,2.11,2.11,0,0,1,.69.47,2,2,0,0,1,.45.7A2.3,2.3,0,0,1,74.77,50.65Zm-.83,0a2.15,2.15,0,0,0-.09-.64,1.58,1.58,0,0,0-.27-.48,1.28,1.28,0,0,0-.43-.3,1.56,1.56,0,0,0-1.15,0,1.19,1.19,0,0,0-.43.3,1.41,1.41,0,0,0-.28.48,2.15,2.15,0,0,0-.09.64,2.11,2.11,0,0,0,.09.64,1.41,1.41,0,0,0,.28.48,1.35,1.35,0,0,0,.43.31,1.48,1.48,0,0,0,.57.1,1.5,1.5,0,0,0,.58-.1,1.48,1.48,0,0,0,.43-.31,1.58,1.58,0,0,0,.27-.48A2.11,2.11,0,0,0,73.94,50.65Z" transform="translate(-1.62 0)"/><path d="M76.24,51.13v1.69h-.81V48.48h1.33a2.46,2.46,0,0,1,.76.1,1.48,1.48,0,0,1,.52.25,1,1,0,0,1,.29.4,1.18,1.18,0,0,1,.1.5,1.22,1.22,0,0,1-.55,1.05,1.72,1.72,0,0,1-.41.19.77.77,0,0,1,.26.25l1.09,1.6h-.73a.29.29,0,0,1-.17,0,.49.49,0,0,1-.13-.12l-.91-1.39a.38.38,0,0,0-.11-.11.44.44,0,0,0-.19,0Zm0-.58h.5a1.16,1.16,0,0,0,.4-.06.76.76,0,0,0,.28-.16.53.53,0,0,0,.16-.23.81.81,0,0,0,.06-.31.58.58,0,0,0-.22-.5,1,1,0,0,0-.66-.18h-.52Z" transform="translate(-1.62 0)"/><path d="M82.22,48.48v.67h-1.3v3.67h-.81V49.15H78.8v-.67Z" transform="translate(-1.62 0)"/><path d="M85.06,49.27a.2.2,0,0,1-.07.1l-.11,0a.24.24,0,0,1-.13,0l-.18-.11-.24-.1a1,1,0,0,0-.32,0,1.19,1.19,0,0,0-.29,0,.53.53,0,0,0-.21.12.37.37,0,0,0-.13.17.54.54,0,0,0,0,.22.39.39,0,0,0,.08.25.84.84,0,0,0,.23.18,1.93,1.93,0,0,0,.32.13l.37.12a2.87,2.87,0,0,1,.37.15,1.77,1.77,0,0,1,.32.21,1,1,0,0,1,.22.32,1.08,1.08,0,0,1,.09.46,1.42,1.42,0,0,1-.1.55,1.37,1.37,0,0,1-.3.45,1.19,1.19,0,0,1-.47.3,1.79,1.79,0,0,1-.64.11,1.9,1.9,0,0,1-.41,0,2.4,2.4,0,0,1-.38-.12,2.31,2.31,0,0,1-.35-.18,1.56,1.56,0,0,1-.28-.23l.23-.39.08-.07a.2.2,0,0,1,.11,0,.25.25,0,0,1,.16.07l.2.13a1.46,1.46,0,0,0,.28.14,1.14,1.14,0,0,0,.39.06.78.78,0,0,0,.53-.16.58.58,0,0,0,.19-.47.41.41,0,0,0-.09-.28.67.67,0,0,0-.22-.18L84,51l-.37-.11-.37-.14a1.4,1.4,0,0,1-.32-.22.91.91,0,0,1-.22-.34,1.21,1.21,0,0,1-.09-.5,1.06,1.06,0,0,1,.1-.46,1.18,1.18,0,0,1,.27-.4,1.28,1.28,0,0,1,.45-.28,1.57,1.57,0,0,1,.6-.1,2,2,0,0,1,.71.12,1.68,1.68,0,0,1,.55.33Z" transform="translate(-1.62 0)"/></g></g></g></svg>