<svg xmlns="http://www.w3.org/2000/svg" width="45.824" height="66.748" viewBox="0 0 45.824 66.748">
  <g id="Handball_Federation" data-name="Handball Federation" transform="translate(0 0)">
    <path id="Path_11676" data-name="Path 11676" d="M34.941,17.248c0-.069-.091-.092-.144-.131l-4.691-3.57-.431-.315a1.2,1.2,0,0,1-.378-1.616,3.607,3.607,0,0,1,.636-.893,7.8,7.8,0,0,1,2.883-1.977A2.645,2.645,0,0,1,34.177,8.6a3.439,3.439,0,0,0,.757.054,1.8,1.8,0,0,0,.356-.046.756.756,0,0,0,.518-.342.78.78,0,0,0,.1-.62,2.34,2.34,0,0,0-.121-.454,1.206,1.206,0,0,1,.3-1.331A4.667,4.667,0,0,1,37.8,4.845,12.161,12.161,0,0,1,40.139,4.3a27.15,27.15,0,0,1,4.782-.2,14.849,14.849,0,0,1,4.215.769,15.051,15.051,0,0,0,1.99.569,8.774,8.774,0,0,0,4.646-.385c.946-.346,1.869-.769,2.822-1.139A11.071,11.071,0,0,1,61.356,3.2a10.645,10.645,0,0,1,3.526.177l.492.115a.128.128,0,0,1,.1.062l-1.127.2a19.974,19.974,0,0,0-4.9,1.47,8.222,8.222,0,0,0-1.665,1.162,14.393,14.393,0,0,1-2.126,1.593,5.468,5.468,0,0,1-2.875.769c-.636,0-1.271-.085-1.907-.123h-.424c-1.861-.069-3.73-.046-5.592-.046h-2.58a2.1,2.1,0,0,0-1.3.415,1.067,1.067,0,0,0-.484.923.773.773,0,0,0,.333.631,1.989,1.989,0,0,0,.673.308l.976.269a2.249,2.249,0,0,1,.371.154.937.937,0,0,1,.5,1.193,1.516,1.516,0,0,1-1.453,1.077h-.522a8.323,8.323,0,0,0-3.1.446,4.706,4.706,0,0,0-2.762,2.385,3.461,3.461,0,0,0-.325.9Z" transform="translate(-27.768 -3.126)" fill="#eb7422"/>
    <path id="Path_11677" data-name="Path 11677" d="M36.194,21.48h1.513c.2,0,.2,0,.265.185a.379.379,0,0,0,.083.154v.169c.151.492.333.977.515,1.454l.757,2.308.976,2.8c.068.2.068.2.272.192h.333l3.314-.208.908-.054c-.053-.239-.1-.462-.144-.677a1.467,1.467,0,0,0-.068-.162,1.377,1.377,0,0,0,0-.177c-.061-.3-.129-.6-.189-.893s-.1-.439-.151-.654c-.091-.392-.166-.769-.25-1.193-.121-.585-.25-1.162-.378-1.747-.076-.369-.144-.769-.235-1.108s0-.323.25-.323H47.84a.112.112,0,0,1,.121.123,3.815,3.815,0,0,1,.045.4c0,.331.045.654.061.985,0,.539.083,1.077.129,1.616v.562c.045.654.1,1.308.144,1.962l.2,2.762c.053.669.1,1.339.151,2.008l.2,2.832c.053.646.1,1.293.144,1.939.068.954.144,1.9.212,2.855a1.392,1.392,0,0,0,.045.439c0,.108,0,.208,0,.315.053.7.113,1.408.159,2.116,0,.115.076.277,0,.354s-.242,0-.363,0h-.568c-.363,0-.363,0-.439-.354l-.416-2.131a1.046,1.046,0,0,0-.091-.431,3.125,3.125,0,0,0-.083-.462c-.341-1.754-.689-3.509-1.029-5.271,0-.185,0-.185-.227-.185h-3.3a.172.172,0,0,0-.151.038l1.93,6.971a.334.334,0,0,0,.076.208,1.718,1.718,0,0,0,.053.285c.113.392.212.769.318,1.162.045.162,0,.169-.113.169h-1.37a.212.212,0,0,1-.227-.162,2.5,2.5,0,0,0-.227-.477.318.318,0,0,0-.1-.223,5.1,5.1,0,0,0-.242-.592l-3.851-8.818q-1.907-4.363-3.783-8.733l-.908-2.085a.436.436,0,0,1-.068-.231Z" transform="translate(-29.021 -7.358)" fill="#434182"/>
    <path id="Path_11678" data-name="Path 11678" d="M39.835,21.4c-.182-.477-.363-.962-.515-1.454V19.78c.25-.062.507-.1.757-.185a2.081,2.081,0,0,0,1.158-.808,1.171,1.171,0,0,1,.711-.454,4.858,4.858,0,0,1,.87-.131,6.991,6.991,0,0,0,.9-.077,1.984,1.984,0,0,0,1.059-.508,5.121,5.121,0,0,0,.757-.869,4.151,4.151,0,0,1,1.074-1.085c.333-.208.681-.408,1.037-.585a11.025,11.025,0,0,1,4.116-1.146,16.612,16.612,0,0,1,3.6.169c1.226.177,2.429.5,3.632.769a12.232,12.232,0,0,0,3.957.292,7.189,7.189,0,0,0,2.611-.769c.757-.346,1.46-.708,2.217-.993a9.963,9.963,0,0,1,4.366-.631,7.258,7.258,0,0,1,3.715,1.385l.144.108.068.077a2.785,2.785,0,0,1-.53-.062,13.21,13.21,0,0,0-3.17.015,6.845,6.845,0,0,0-2.27.569,5.378,5.378,0,0,0-1.211.846,6.035,6.035,0,0,1-1.755,1.077,5.694,5.694,0,0,1-.545.192,2.319,2.319,0,0,0-.757.339,4.489,4.489,0,0,1-1.846.623,34.011,34.011,0,0,1-6,.262l-3.851-.077a6.053,6.053,0,0,0-1.748.169,3.462,3.462,0,0,0-1.612.969.77.77,0,0,0-.2.292c0,.092,0,.154.106.146a1.147,1.147,0,0,0,.235-.038,7.515,7.515,0,0,1,2.028-.254v3.016a.515.515,0,0,1-.045.262c-.227.038-.454.077-.689.1a8.336,8.336,0,0,1-2.005-.092c-.235,0-.454-.1-.689-.108-.045-.539-.106-1.077-.129-1.616,0-.331-.076-.654-.061-.985a3.812,3.812,0,0,0-.045-.4.116.116,0,0,0-.121-.123H45.29c-.28,0-.318.054-.25.323s.159.769.235,1.108c.129.585.257,1.162.378,1.747.083.392.159.769.25,1.193.053.215.106.431.151.654s.129.592.189.893a1.378,1.378,0,0,1,0,.177.8.8,0,0,1-.151-.092c-.212-.162-.431-.315-.658-.477-1.392-.969-2.822-1.87-4.252-2.778Z" transform="translate(-30.248 -5.343)" fill="#049141"/>
    <path id="Path_11679" data-name="Path 11679" d="M57.107,24.7a.515.515,0,0,0,.045-.262V23.205c.053-.592,0-1.193,0-1.785a.091.091,0,0,1,.091-.054H67.988a.744.744,0,0,1,.265,0,.348.348,0,0,1-.045.215l-1.354,3.693c-.083.231-.045.2-.3.2H60.346c-.318,0-.272,0-.28.285v4.57a.782.782,0,0,1,0,.131c0,.085,0,.131.121.123h4.025v.169c-.583,1.416-1.165,2.839-1.74,4.255a.219.219,0,0,1-.242.162H59.211c-.1,0-.129,0-.144.123,0,.331-.083.669-.114,1-.106.993-.2,1.993-.3,2.985v.269a1.4,1.4,0,0,1-.053.439c-.053.554-.113,1.116-.174,1.67a7.246,7.246,0,0,1-.106.908c0,.177,0,.177-.182.177H56.926c-.166,0-.174,0-.166-.169,0-.916.045-1.824.076-2.732v-.454c0-1.016,0-2.031.061-3.078l.159-6.61c0-1.1.053-2.208.076-3.309C57.1,25.86,57.123,25.283,57.107,24.7Z" transform="translate(-34.491 -7.329)" fill="#444483"/>
    <path id="Path_11680" data-name="Path 11680" d="M64.878,41a3.757,3.757,0,0,0,.3-.692q2.656-6.533,5.3-13.081,1.173-2.885,2.331-5.771a.25.25,0,0,1,.257-.177h4.358a.419.419,0,0,1-.083.2q-3.443,6.779-6.9,13.511l-3.572,6.987a.955.955,0,0,0-.1.223.371.371,0,0,0-.129.223.912.912,0,0,0-.061.092c-.053.185-.174.231-.363.231h-1.74a.38.38,0,0,1-.227,0v-.092c.1-.239.2-.477.288-.723a4.019,4.019,0,0,0,.272-.731C64.9,41.139,64.878,41.07,64.878,41Z" transform="translate(-36.314 -7.312)" fill="#454483"/>
    <path id="Path_11681" data-name="Path 11681" d="M60.206,48.6a.371.371,0,0,1,.129-.223,14.337,14.337,0,0,1,5.372,8.272A14.459,14.459,0,0,1,54.6,74.059a13.227,13.227,0,0,1-3.783.208A14.227,14.227,0,0,1,38.149,63.095a13.953,13.953,0,0,1-.3-4.27A14.308,14.308,0,0,1,42.8,48.983a12.657,12.657,0,0,1,1.2-.923.318.318,0,0,1,.1.223.261.261,0,0,0-.083,0c-.288.208-.56.439-.84.654a6.734,6.734,0,0,0-.605.539,4.105,4.105,0,0,0-.53.5,6.553,6.553,0,0,1-.757.769,10.8,10.8,0,0,0-.757.977c.045.069.166.054.166.162a14.008,14.008,0,0,0-2.482,7.694.516.516,0,0,0,0,.239c-.227,0-.219,0-.227.239a8.974,8.974,0,0,0,.053,1.354,1.81,1.81,0,0,0,.053.531c.061.339.136.669.2,1a7.566,7.566,0,0,0,.2.816c.121.392.235.769.386,1.154a11.634,11.634,0,0,0,.583,1.262c.136.277.28.546.424.823s.3.469.439.716.219.323.318.492a.336.336,0,0,0,.177.2.328.328,0,0,0,.261,0c.242.323.5.631.757.931a13.732,13.732,0,0,0,5.7,3.8c0,.239,0,.269.235.331l.53.138c.227.054.454.1.681.162a11.741,11.741,0,0,0,1.854.285,3.847,3.847,0,0,0,.416.054,18.375,18.375,0,0,0,2.172-.085c.462-.062.931-.108,1.385-.208a9.143,9.143,0,0,0,1.513-.431c.068,0,.106-.046.083-.123a.665.665,0,0,1,0-.131,13.589,13.589,0,0,0,5.3-3.362,18.887,18.887,0,0,0,1.218-1.447c.091,0,.174.146.28,0a14.963,14.963,0,0,0,.885-1.4,16.447,16.447,0,0,0,.87-1.893c.129-.354.242-.708.356-1.062s.212-.769.3-1.162a4.1,4.1,0,0,1,.076-.592,4.863,4.863,0,0,0,.121-1.116V59.8a.086.086,0,0,0-.1-.092h-.129a.547.547,0,0,0,0-.223,13.105,13.105,0,0,0-.219-2.108,13.976,13.976,0,0,0-2.27-5.5c.159-.154.166-.154,0-.339a9.2,9.2,0,0,0-.878-1.077,8,8,0,0,0-.757-.769c-.3-.239-.454-.469-.711-.662A2.383,2.383,0,0,0,60.206,48.6Z" transform="translate(-29.878 -13.486)" fill="#23211e"/>
    <path id="Path_11682" data-name="Path 11682" d="M29.6,73.373l.651-.331,1.808-.916c.2-.1.174-.138.31.1s.333.592.492.893a.7.7,0,0,1,.068.585.807.807,0,0,1-.855.485l-.235-.062c-.038,0,0,.077,0,.123a.611.611,0,0,1-.235.462.964.964,0,0,1-.847.2.667.667,0,0,1-.446-.339Zm.7.231c.129.215.242.431.371.639a.356.356,0,0,0,.239.169.351.351,0,0,0,.283-.069.321.321,0,0,0,.183-.2.328.328,0,0,0-.032-.27c-.091-.192-.2-.369-.288-.554,0-.054-.061-.085-.121-.054A6.367,6.367,0,0,0,30.3,73.6Zm1.755-.908c-.2.115-.409.192-.6.315a1.548,1.548,0,0,0,.121.223c.076.131.144.262.227.385a.322.322,0,0,0,.469.069.276.276,0,0,0,.15-.187.281.281,0,0,0-.052-.236C32.279,73.081,32.173,72.9,32.059,72.7Z" transform="translate(-27.882 -19.017)" fill="#23211e"/>
    <path id="Path_11683" data-name="Path 11683" d="M83.217,66.777,81.553,66.5c-.174,0-.174,0-.151-.208s.045-.292.333-.246l2.474.415h.068c.121,0,.129.062.121.169a.444.444,0,0,1-.4.462c-.492.131-.976.308-1.468.462l-.182.062c0,.085.068.069.106.069.515.092,1.022.185,1.513.262.106,0,.151,0,.129.169-.083.408,0,.323-.378.269-.832-.131-1.665-.277-2.489-.423-.151,0-.136,0-.129-.185a.413.413,0,0,1,.371-.423c.522-.138,1.029-.315,1.513-.477l.2-.069Z" transform="translate(-40.412 -17.63)" fill="#23211e"/>
    <path id="Path_11684" data-name="Path 11684" d="M71.73,81.21h0c.333-.3.333-.3.757-.139l1.4.531c.068,0,.129.085.235,0l-1.2-1.37a2.06,2.06,0,0,1,.31-.269.067.067,0,0,1,.1,0l.091.1,1.672,1.9c.121.139.106.131,0,.254a.479.479,0,0,1-.605.1c-.484-.208-.984-.385-1.513-.569-.053,0-.106-.062-.189,0l1.226,1.316v.054c0,.008-.2.231-.318.223s-.189-.169-.28-.262L71.9,81.395Z" transform="translate(-38.134 -20.837)" fill="#23211e"/>
    <path id="Path_11685" data-name="Path 11685" d="M29.395,66.265,28.23,66.4l-.568.062c-.091,0-.136,0-.136-.115a.383.383,0,0,0,0-.092c0-.262-.091-.239.212-.277.863-.108,1.733-.2,2.6-.3.091,0,.144,0,.151.108.045.362.053.362-.25.569l-1.3.885a.357.357,0,0,0-.144.123,6.505,6.505,0,0,0,.757-.069,6.821,6.821,0,0,0,.961-.115c.113,0,.166,0,.166.131v.3a3.1,3.1,0,0,1-.651.1c-.757.092-1.445.162-2.164.254-.151,0-.151,0-.182-.138-.053-.339-.053-.339.227-.531l1.3-.885A.3.3,0,0,0,29.395,66.265Z" transform="translate(-27.375 -17.549)" fill="#23211e"/>
    <path id="Path_11686" data-name="Path 11686" d="M58.479,87.623a4.8,4.8,0,0,1,.969,1.154l-.59.054c-.076,0-.106-.069-.144-.123l-.545-.723a.527.527,0,0,0-.53-.254c-.091,0-.129,0-.121.131a8.9,8.9,0,0,0,.083.893c0,.177,0,.177-.166.192h0c-.1,0-.227.077-.3,0s-.053-.223-.068-.339c-.068-.769-.136-1.539-.212-2.308a.477.477,0,0,0,0-.108c0-.069,0-.092.091-.1.462,0,.931-.108,1.4-.092a.675.675,0,0,1,.666.492.781.781,0,0,1,0,.63.761.761,0,0,1-.466.416.123.123,0,0,0-.068.085ZM58,86.507l-.507.054c-.061,0-.091,0-.083.092l.045.539c0,.062,0,.092.1.085a4.193,4.193,0,0,0,.7-.077.318.318,0,0,0,.207-.142.328.328,0,0,0,.042-.251.317.317,0,0,0-.112-.223.307.307,0,0,0-.236-.07Z" transform="translate(-34.515 -22.233)" fill="#23211e"/>
    <path id="Path_11687" data-name="Path 11687" d="M68.88,83.7a1.22,1.22,0,0,1,1.854-1.031,2.017,2.017,0,0,1,.931,1.385,1.025,1.025,0,0,1-.363,1,1.241,1.241,0,0,1-1.71,0,2.131,2.131,0,0,1-.7-1.185C68.887,83.781,68.88,83.712,68.88,83.7Zm2.27.539a1.539,1.539,0,0,0-.81-1.193A.449.449,0,0,0,70.2,83a.636.636,0,0,0-.562.168.66.66,0,0,0-.194.562,1.54,1.54,0,0,0,.681,1.023.983.983,0,0,0,.2.092.627.627,0,0,0,.546-.105.65.65,0,0,0,.256-.5Z" transform="translate(-37.44 -21.422)" fill="#23211e"/>
    <path id="Path_11688" data-name="Path 11688" d="M29.65,71.538a1.088,1.088,0,0,1-.386-.046.89.89,0,0,1-.643-.554c-.136-.331-.212-.685-.325-1.023-.038-.1,0-.108.091-.131l1.2-.315c.484-.139.976-.262,1.46-.408.114,0,.151,0,.189.108.076.308.182.608.265.916a.847.847,0,0,1-.3.939,2.318,2.318,0,0,1-1.12.477A1.125,1.125,0,0,1,29.65,71.538Zm-.757-1.37c.061.185.106.346.159.508a.455.455,0,0,0,.439.346,2.13,2.13,0,0,0,1.256-.346.442.442,0,0,0,.2-.5,2.094,2.094,0,0,0-.106-.415c-.03-.139-.053-.115-.136-.085Z" transform="translate(-27.561 -18.328)" fill="#23211e"/>
    <path id="Path_11689" data-name="Path 11689" d="M51.624,86.743a2.643,2.643,0,0,1-.28,1.062,1.04,1.04,0,0,1-1.2.6c-.318-.062-.628-.146-.946-.208-.106,0-.121-.054-.1-.162.2-.769.378-1.539.568-2.308.076-.308.083-.308.4-.239l.757.162C51.329,85.727,51.609,86.05,51.624,86.743Zm-.545,0a.54.54,0,0,0-.431-.623l-.3-.069c-.2-.046-.2-.046-.25.146-.091.385-.189.769-.272,1.154a1.21,1.21,0,0,0-.091.492,1.991,1.991,0,0,0,.515.115.505.505,0,0,0,.605-.323,2.293,2.293,0,0,0,.227-.931Z" transform="translate(-32.624 -22.107)" fill="#23211e"/>
    <path id="Path_11690" data-name="Path 11690" d="M77.942,75.94a1.494,1.494,0,0,1,.583.162,2.344,2.344,0,0,1,.757.523,1.121,1.121,0,0,1,.272,1.339,1.2,1.2,0,0,1-1.347.669,2.131,2.131,0,0,1-1.286-.854,1.006,1.006,0,0,1-.129-1.131A1.223,1.223,0,0,1,77.942,75.94Zm.431,2.185a.655.655,0,0,0,.666-.346.562.562,0,0,0-.053-.631,1.686,1.686,0,0,0-1.022-.685.7.7,0,0,0-.219,0,.612.612,0,0,0-.475.316.633.633,0,0,0-.017.577A1.513,1.513,0,0,0,78.374,78.125Z" transform="translate(-39.337 -19.914)" fill="#23211e"/>
    <path id="Path_11691" data-name="Path 11691" d="M83.163,64.556H81.823c-.114,0-.151,0-.144-.154V63.348a.853.853,0,0,1,.484-.677,1.5,1.5,0,0,1,.477-.154,2.8,2.8,0,0,1,1.286.069A1.037,1.037,0,0,1,84.51,63a.856.856,0,0,1,.151.485v.962c0,.115-.038.154-.151.154H83.163Zm0-.492h.53c.144,0,.34.077.431,0s0-.3,0-.454a.46.46,0,0,0-.378-.5,2.234,2.234,0,0,0-.87-.069,1.215,1.215,0,0,0-.371.069.491.491,0,0,0-.356.462v.377c0,.123,0,.138.144.138.325-.031.613-.023.9-.023Z" transform="translate(-40.555 -16.809)" fill="#23211e"/>
    <path id="Path_11692" data-name="Path 11692" d="M45.29,87.028l.893-2.231c.045-.108.091-.208.129-.315s.083-.108.182-.077l1.014.377.537.2c.091,0,.129.062.091.169-.129.339-.121.339-.454.223l-.863-.323c-.106,0-.166,0-.2.085s-.189.3-.144.431.257.131.4.185L47.56,86c.083,0,.091.069.068.146-.129.354-.121.354-.469.231L46.4,86.09c-.068,0-.121-.046-.151.046-.083.208-.166.408-.25.631l1.082.4c.28.108.28.108.159.392-.061.162-.061.162-.212.108l-1.574-.577Z" transform="translate(-31.7 -21.862)" fill="#23211e"/>
    <path id="Path_11693" data-name="Path 11693" d="M30.551,60.167a3.42,3.42,0,0,1-.091.485l-.81-.1-1.937-.262H27.6q-.1,0-.091-.115a.726.726,0,0,1,.068-.346c.068-.085.212,0,.325,0a6.053,6.053,0,0,1,.825.108.186.186,0,0,0,.144,0l.144-.946-1.037-.138h-.151c-.076,0-.1,0-.1-.115,0-.392,0-.408.386-.362l2.467.331c.174,0,.174,0,.159.2-.038.323-.038.323-.341.285l-.757-.1c-.106,0-.151,0-.159.123a4.426,4.426,0,0,1-.1.708c-.038.231,0,.146.113.154l.757.1A.486.486,0,0,1,30.551,60.167Z" transform="translate(-27.373 -15.86)" fill="#23211e"/>
    <path id="Path_11694" data-name="Path 11694" d="M55.192,87.221a1.915,1.915,0,0,1-.053.477l-1.12-.092c-.174,0-.174,0-.2.177a3.375,3.375,0,0,1-.038.423c-.038.146,0,.162.144.177l1.135.092c.174,0,.182,0,.159.177-.061.362.045.323-.341.292l-1.445-.115c-.242,0-.242,0-.219-.262.076-.769.136-1.539.212-2.308.045-.423,0-.339.363-.315.492,0,.976.085,1.468.123.144,0,.144,0,.129.162a.6.6,0,0,1,0,.115c0,.231,0,.231-.265.208l-1.006-.085c-.144,0-.144,0-.166.146,0,.138-.076.3,0,.408s.25.046.378.062Z" transform="translate(-33.627 -22.215)" fill="#23211e"/>
    <path id="Path_11695" data-name="Path 11695" d="M27.33,61.875a.157.157,0,0,1,.144,0l2.694.862c.174.054.174.054.174.239,0,.346,0,.346-.31.462l-2.452.839a.433.433,0,0,1-.212.054v-.392c0-.131,0-.154.121-.177l.439-.146a.154.154,0,0,0,.121-.177c0-.246,0-.492,0-.769,0-.1-.045-.138-.136-.162s-.3-.085-.446-.123-.106,0-.106-.115Zm1.211.846v.669l1.029-.339h0Z" transform="translate(-27.33 -16.667)" fill="#23211e"/>
    <path id="Path_11696" data-name="Path 11696" d="M84.362,58.961l-1.052-.131-1.9-.246a.2.2,0,0,1-.144-.056.2.2,0,0,1-.06-.144c-.068-.354-.083-.354.227-.516l2.27-1.254a.36.36,0,0,1,.189-.085,3.835,3.835,0,0,1,.106.446c0,.062,0,.092-.076.115l-.431.231c-.076,0-.113.077-.091.169.053.246.113.492.151.769a.16.16,0,0,0,.166.138l.477.054a.122.122,0,0,1,.121.108A1.7,1.7,0,0,0,84.362,58.961ZM83.023,58.3a5.463,5.463,0,0,0-.151-.654l-.946.492v.038Z" transform="translate(-40.43 -15.439)" fill="#23211e"/>
    <path id="Path_11697" data-name="Path 11697" d="M63.625,88.085l-.477.108c-.068,0-.106,0-.144-.069s-.166-.262-.25-.392a.138.138,0,0,0-.07-.079.134.134,0,0,0-.1-.006c-.265.069-.53.123-.757.177-.083,0-.129.054-.129.146v.423c0,.138-.045.154-.151.169l-.363.077c-.061,0,0-.092,0-.146l.25-2.378v-.354a.14.14,0,0,1,.037-.1.135.135,0,0,1,.1-.043,2.046,2.046,0,0,0,.3-.069.158.158,0,0,1,.2.077ZM62.377,87.2a3.591,3.591,0,0,0-.583-.893l-.083,1.031Z" transform="translate(-35.56 -22.126)" fill="#23211e"/>
    <path id="Path_11698" data-name="Path 11698" d="M33.006,78.786s-.053,0-.061-.046-.242-.239-.257-.377.159-.254.242-.377l.076-.108a.109.109,0,0,0,0-.162l-.5-.654a.12.12,0,0,0-.166,0l-.4.123c-.174.054-.174.054-.288-.092l-.182-.246c0-.077.076-.069.121-.085l2.716-.769c.113-.038.2-.038.257.077s.2.192.2.315-.121.192-.189.292Zm1.022-2.262h0l-1.044.331.424.539Z" transform="translate(-28.337 -19.921)" fill="#23211e"/>
    <path id="Path_11699" data-name="Path 11699" d="M79.1,74.09l.492.254c.1.054.151.046.2-.062.121-.231.257-.454.378-.685.045-.092.1-.108.182-.054s.257.077.3.185-.091.2-.144.308-.212.385-.333.6l1.1.562a.117.117,0,0,1,0,.054c-.068.123-.106.315-.227.362s-.265-.092-.393-.162L78.574,74.4c-.174-.085-.174-.092-.076-.262.219-.4.446-.769.673-1.2.076-.139.076-.139.212-.069.318.146.318.146.144.462Z" transform="translate(-39.765 -19.195)" fill="#23211e"/>
    <path id="Path_11700" data-name="Path 11700" d="M43.274,84.312l.946.469a.133.133,0,0,1,0,.062c-.068.115-.091.3-.212.346s-.235-.092-.356-.146l-.454-.215c-.151-.077-.159-.077-.235.069l-.409.769c-.091.177-.091.177-.257.092a1.038,1.038,0,0,1-.288-.154,1.611,1.611,0,0,1,.182-.362l1.074-2.024c.091-.162.091-.162.242-.085l1.286.623c.159.077.166.085.083.223-.2.354-.1.308-.439.154s-.477-.223-.711-.346c-.106-.062-.159,0-.2.069S43.357,84.151,43.274,84.312Z" transform="translate(-30.902 -21.561)" fill="#23211e"/>
    <path id="Path_11701" data-name="Path 11701" d="M65.737,84.871c0,.062-.045.069-.091.077-.166.062-.333.123-.5.169s-.114.077-.083.177l.673,1.847c.1.269.1.269-.166.354s-.242.077-.325-.162l-.673-1.847c-.053-.162-.061-.162-.212-.108l-.484.154c-.068,0-.1,0-.129-.062-.159-.354-.166-.354.2-.477l1.483-.516c.174-.062.174-.062.242.123Z" transform="translate(-36.166 -21.874)" fill="#23211e"/>
    <path id="Path_11702" data-name="Path 11702" d="M34.956,79.952l.847.939h0s-.212.254-.341.269-.2-.177-.3-.277c-.31-.331-.605-.662-.908-.993,0-.069.061-.092.1-.123l1.975-1.631c.129-.108.129-.108.257,0l.174.2.038.062Z" transform="translate(-29.016 -20.402)" fill="#23211e"/>
    <path id="Path_11703" data-name="Path 11703" d="M39.1,80.4l-.825.939-.628.716c-.151.169-.144.146,0,.285a9.462,9.462,0,0,0,.757.592c.068.054.083.092,0,.177-.242.285-.242.285-.537.054l-.969-.831c-.114-.085-.114-.092,0-.2.575-.654,1.15-1.3,1.718-1.954.076-.085.129-.108.219,0A1.519,1.519,0,0,0,39.1,80.4Z" transform="translate(-29.639 -20.875)" fill="#23211e"/>
    <path id="Path_11704" data-name="Path 11704" d="M81.569,60.924a6.95,6.95,0,0,1,.757-.085l2.088-.169c.1,0,.129,0,.136.115.045.377.045.377-.348.408l-2.391.208h-.106c-.091,0-.114,0-.129-.108A3.06,3.06,0,0,1,81.569,60.924Z" transform="translate(-40.527 -16.393)" fill="#23211e"/>
    <path id="Path_11705" data-name="Path 11705" d="M67.426,83.82l.757,1.631.409.869c.045.085,0,.131-.061.162a1.629,1.629,0,0,0-.265.115c-.091.046-.129,0-.166-.069-.371-.769-.757-1.608-1.12-2.4,0-.085,0-.123.061-.146Z" transform="translate(-36.978 -21.731)" fill="#23211e"/>
    <path id="Path_11706" data-name="Path 11706" d="M83.618,70.3l-.114.377a.06.06,0,0,1-.076,0h-.106l-2.542-.692c-.174-.046-.174-.046-.129-.223.091-.308.091-.308.4-.223l2.376.646h.151a.06.06,0,0,1,.068.041.062.062,0,0,1-.03.074Z" transform="translate(-40.298 -18.426)" fill="#23211e"/>
    <path id="Path_11707" data-name="Path 11707" d="M63.635,46.493c0,.069,0,.139-.068.169a.306.306,0,0,1-.144-.038,13.248,13.248,0,0,0-2.051-.831c-.189-.054-.189-.062-.257.138h-.166a11.321,11.321,0,0,0-1.808-.392,1.226,1.226,0,0,1,.053-.439,13.719,13.719,0,0,1,3.307.916A7.838,7.838,0,0,1,63.635,46.493Z" transform="translate(-35.07 -12.804)" fill="#23211e"/>
    <path id="Path_11708" data-name="Path 11708" d="M56.008,46.109c.068-.2.068-.192.257-.139a13.251,13.251,0,0,1,2.051.846.306.306,0,0,0,.144.038,4.02,4.02,0,0,1-.272.731c-.091.246-.189.485-.288.723V48.4a.38.38,0,0,0,.227,0h1.74c.189,0,.31-.046.363-.231a.913.913,0,0,0,.061-.092,2.375,2.375,0,0,1,.628.439c.257.192.462.454.711.662s.484.508.757.769a9.2,9.2,0,0,1,.878,1.077c.136.185.129.185,0,.339-.114,0-.144.115-.212.169-.34.262-.666.539-1.006.769a.433.433,0,0,0-.189.369c0,1.154-.045,2.308-.076,3.47a.358.358,0,0,0,.091.262l2.043,2.67a.308.308,0,0,0,.288.139c.522,0,1.044,0,1.566-.046H65.9c.061,0,.1,0,.1.092v1.293a4.863,4.863,0,0,1-.136,1.1,1.578,1.578,0,0,1-.076.592c-.083.392-.174.769-.3,1.162s-.227.708-.356,1.062a16.45,16.45,0,0,1-.87,1.893,14.96,14.96,0,0,1-.885,1.4c-.106.154-.189,0-.28,0s-.083-.123-.136-.162c-.424-.339-.855-.662-1.271-1a.381.381,0,0,0-.378-.069c-.757.208-1.513.5-2.27.723a6.6,6.6,0,0,0-.832.277.684.684,0,0,0-.348.292l-.424.623-1.544,2.162a.289.289,0,0,0-.038.308c.106.292.2.592.3.885a8.174,8.174,0,0,0,.31.854.664.664,0,0,0,0,.131c0,.077,0,.1-.083.123a9.143,9.143,0,0,1-1.513.431c-.454.1-.923.146-1.385.208-.757.1-1.445.054-2.172.085a3.847,3.847,0,0,1-.416-.054,11.74,11.74,0,0,1-1.854-.285c-.227-.062-.454-.108-.681-.162l-.53-.139c-.219-.062-.235-.092-.235-.331l.053-.069c.151-.4.31-.769.469-1.208s.113-.323-.068-.608c-.56-.885-1.165-1.739-1.74-2.616a.918.918,0,0,0-.454-.362,10.066,10.066,0,0,0-1.158-.354c-.711-.2-1.438-.346-2.134-.608a.172.172,0,0,0-.182,0l-1.211.97s-.053.054,0,.092a.328.328,0,0,1-.261,0,.336.336,0,0,1-.177-.2c-.1-.169-.219-.323-.318-.492s-.31-.469-.439-.716a5.7,5.7,0,0,1-.424-.808,11.646,11.646,0,0,1-.5-1.193c-.151-.377-.265-.769-.386-1.154-.083-.262-.136-.539-.2-.816s-.144-.662-.2-1a1.81,1.81,0,0,0-.053-.531,8.974,8.974,0,0,1-.053-1.354c0-.223,0-.223.227-.239h1.589a.3.3,0,0,0,.272-.131c.689-.946,1.377-1.877,2.073-2.808a.49.49,0,0,0,.1-.331c0-1.046-.053-2.085-.083-3.132,0-.254,0-.254-.242-.292.045-.092.159-.108.2-.2-.462-.3-.878-.646-1.3-.985-.045-.038-.083-.092-.151-.085s-.121-.092-.166-.162c.257-.323.492-.654.757-.977a8.988,8.988,0,0,1,.757-.769,4.106,4.106,0,0,1,.53-.5c.2-.185.393-.369.605-.539s.552-.446.84-.654a.261.261,0,0,1,.083,0,2.5,2.5,0,0,1,.227.477.212.212,0,0,0,.227.162h1.37c.151,0,.159,0,.114-.169-.106-.385-.2-.769-.318-1.162a1.719,1.719,0,0,1-.053-.285,1.89,1.89,0,0,1,.219-.092,9.871,9.871,0,0,1,1.2-.531l.515-.177c.2-.077.212-.077.31.123h0c.151.562.386,1.093.56,1.654a.183.183,0,0,0,.114.123,1.607,1.607,0,0,0,.462.139c.076.354.076.354.439.354h.507a.608.608,0,0,0,.257.115c.446.162.9.3,1.347.477a1.036,1.036,0,0,0,.8,0c.916-.362,1.839-.7,2.762-1.039a.491.491,0,0,0,.318-.392l.386-1.393A.383.383,0,0,0,56.008,46.109ZM42.895,54.342h0c0,.554,0,1.116.038,1.677a.192.192,0,0,0,.159.215c1.044.369,2.081.769,3.11,1.116a.239.239,0,0,0,.28-.046l.969-.769,4.207-3.178A.286.286,0,0,0,51.8,53.1c0-1.085,0-2.178,0-3.27,0-.177,0-.177-.182-.246L48.63,48.448a.291.291,0,0,0-.333.046q-2.633,1.977-5.3,3.94a.317.317,0,0,0-.144.292C42.865,53.265,42.88,53.8,42.895,54.342Zm-2.27,5.386a1.641,1.641,0,0,0,.121.431c.605,1.87,1.158,3.755,1.793,5.617a2.244,2.244,0,0,1,.114.385c0,.146.106.192.227.223l3.072.869c.189.054.2.054.3-.1.643-.908,1.279-1.824,1.93-2.724a.328.328,0,0,0,.045-.331c-.257-.769-.515-1.539-.757-2.308-.416-1.262-.825-2.516-1.233-3.778a.283.283,0,0,0-.189-.215c-1.059-.339-2.111-.693-3.163-1.046a.157.157,0,0,0-.123,0,.16.16,0,0,0-.088.088L41.7,58.189l-.991,1.347a.256.256,0,0,0-.076.192ZM52.353,51.5c0,.516,0,1.031-.038,1.539a.472.472,0,0,0,.219.462c.62.431,1.218.877,1.831,1.323l3.284,2.408a.254.254,0,0,0,.257.069c1.044-.354,2.088-.7,3.14-1.039a.169.169,0,0,0,.129-.177c0-1.108.053-2.224.091-3.332a.27.27,0,0,0-.136-.254l-2.27-1.708-3.027-2.27a.269.269,0,0,0-.272-.054c-1.006.385-2.013.769-3.027,1.123a.215.215,0,0,0-.159.246C52.361,50.4,52.353,50.949,52.353,51.5Zm-.227,13.081h-3.17a.354.354,0,0,0-.318.154c-.689.923-1.332,1.885-1.99,2.839a.148.148,0,0,0,0,.2l.431.616c.477.677.946,1.354,1.453,2a.339.339,0,0,0,.3.154h6.25a.294.294,0,0,0,.272-.146q1-1.362,1.907-2.793a.249.249,0,0,0,0-.315c-.568-.839-1.127-1.685-1.687-2.539a.324.324,0,0,0-.318-.169Zm3.98-.315c-.151.131-.151.139-.045.285L57.1,65.991c.2.285.424.554.613.846.061.092.2.077.212.2h.212l.257-.069c.893-.215,1.755-.546,2.648-.769h.121a.428.428,0,0,0,.272-.3c.3-.977.605-1.962.916-2.939.235-.769.522-1.439.711-2.185a5.63,5.63,0,0,1,.325-.993.28.28,0,0,0-.045-.339c-.628-.769-1.249-1.624-1.869-2.431-.114-.146-.114-.146-.3-.092-1.029.331-2.051.662-3.08.977a.412.412,0,0,0-.3.308L55.91,64.114a.54.54,0,0,0,0,.185.139.139,0,0,1,.2-.046Z" transform="translate(-29.963 -12.997)" fill="#0d0b0d"/>
    <path id="Path_11709" data-name="Path 11709" d="M59.862,45.991a.383.383,0,0,1,0,.092l-.386,1.393a.491.491,0,0,1-.318.392c-.923.339-1.846.677-2.762,1.039a1.036,1.036,0,0,1-.8,0c-.446-.177-.9-.315-1.347-.477a.608.608,0,0,1-.257-.115c.121,0,.272.046.363,0s0-.239,0-.354c-.045-.708-.106-1.416-.159-2.116v-.315c.144,0,.288-.038.431-.046a9.748,9.748,0,0,1,1.513-.046c0,.908-.053,1.816-.076,2.732,0,.169,0,.169.166.169H57.44c.159,0,.166,0,.182-.177,0-.3.076-.6.106-.908.061-.554.121-1.116.174-1.67a11.321,11.321,0,0,1,1.808.392Z" transform="translate(-33.817 -12.879)" fill="#fbfcfc"/>
    <path id="Path_11710" data-name="Path 11710" d="M52.285,48.078a1.607,1.607,0,0,1-.462-.139.183.183,0,0,1-.114-.123c-.174-.562-.409-1.093-.56-1.654h0a7.778,7.778,0,0,1,.757-.192Z" transform="translate(-33.126 -13.004)" fill="#fbfaf9"/>
    <path id="Path_11711" data-name="Path 11711" d="M51.11,45.811c-.25.046-.477.131-.757.192-.1-.2-.114-.2-.31-.123l-.515.177a9.872,9.872,0,0,0-1.2.531,1.891,1.891,0,0,0-.219.092.334.334,0,0,1-.076-.208l.817-.369a12.922,12.922,0,0,1,2.187-.723,1.047,1.047,0,0,1,.076.431Z" transform="translate(-32.367 -12.868)" fill="#23211e"/>
    <path id="Path_11712" data-name="Path 11712" d="M56.174,45.283a9.748,9.748,0,0,0-1.513.046,1.375,1.375,0,0,0-.431.046,1.392,1.392,0,0,1-.03-.408,18.874,18.874,0,0,1,1.975-.108Z" transform="translate(-33.867 -12.748)" fill="#23211e"/>
    <path id="Path_11713" data-name="Path 11713" d="M62.146,78.823a8.173,8.173,0,0,1-.31-.854c-.1-.292-.189-.592-.3-.885a.289.289,0,0,1,.038-.308L62.994,74.7l.424-.623a.684.684,0,0,1,.348-.292,6.6,6.6,0,0,1,.832-.277c.757-.223,1.513-.516,2.27-.723a.381.381,0,0,1,.378.069c.416.339.847.662,1.271,1a.166.166,0,0,1,.136.162,18.868,18.868,0,0,1-1.249,1.447A13.591,13.591,0,0,1,62.146,78.823Z" transform="translate(-35.648 -19.181)" fill="#fdfcfd"/>
    <path id="Path_11714" data-name="Path 11714" d="M40.875,53.1c.068,0,.106.046.151.085.424.339.84.685,1.3.985-.045.092-.159.108-.2.2.242,0,.235,0,.242.292,0,1.046.053,2.085.083,3.132a.49.49,0,0,1-.1.331c-.7.931-1.385,1.862-2.073,2.808a.3.3,0,0,1-.272.131H38.416a.516.516,0,0,1,0-.239A14.009,14.009,0,0,1,40.875,53.1Z" transform="translate(-30.024 -14.648)" fill="#fdfcfd"/>
    <path id="Path_11715" data-name="Path 11715" d="M73.287,60.862c-.522,0-1.044,0-1.566.046a.308.308,0,0,1-.288-.138L69.391,58.1a.358.358,0,0,1-.091-.262c0-1.154.061-2.308.076-3.47A.433.433,0,0,1,69.565,54c.341-.262.666-.539,1.006-.769.068-.054.1-.169.212-.169a13.976,13.976,0,0,1,2.27,5.5,13.1,13.1,0,0,1,.219,2.108.547.547,0,0,1,.015.192Z" transform="translate(-37.542 -14.639)" fill="#fdfcfd"/>
    <path id="Path_11716" data-name="Path 11716" d="M42.1,74.174v-.092l1.211-.97a.172.172,0,0,1,.182,0c.7.262,1.423.408,2.134.608a10.062,10.062,0,0,1,1.158.354.918.918,0,0,1,.454.362c.575.877,1.18,1.731,1.74,2.616.182.285.189.292.068.608s-.318.808-.469,1.208l-.053.069a13.732,13.732,0,0,1-5.7-3.8C42.6,74.8,42.342,74.5,42.1,74.174Z" transform="translate(-30.924 -19.256)" fill="#fdfcfd"/>
    <path id="Path_11717" data-name="Path 11717" d="M44.4,55.083c0-.539,0-1.077-.053-1.616a.317.317,0,0,1,.144-.292q2.641-1.962,5.3-3.94a.291.291,0,0,1,.348-.046l3.027,1.139c.182.069.182.069.182.246v3.27a.286.286,0,0,1-.144.254L49,57.306l-.969.769a.239.239,0,0,1-.28.046c-1.029-.377-2.066-.769-3.11-1.116a.192.192,0,0,1-.159-.215c0-.562,0-1.123-.038-1.677Z" transform="translate(-31.471 -13.738)" fill="#fefefe"/>
    <path id="Path_11718" data-name="Path 11718" d="M41.429,62.957a.256.256,0,0,1,.076-.215l.991-1.347.976-1.354a.16.16,0,0,1,.088-.088.156.156,0,0,1,.123,0c1.052.354,2.1.708,3.163,1.046a.283.283,0,0,1,.189.215c.409,1.262.817,2.516,1.233,3.778.25.769.507,1.539.757,2.308a.328.328,0,0,1-.045.331c-.651.9-1.286,1.816-1.93,2.724-.106.154-.114.154-.3.1l-3.072-.869c-.121,0-.2-.077-.227-.223a2.244,2.244,0,0,0-.114-.385c-.636-1.862-1.188-3.747-1.793-5.617C41.5,63.234,41.46,63.064,41.429,62.957Z" transform="translate(-30.76 -16.225)" fill="#fefdfe"/>
    <path id="Path_11719" data-name="Path 11719" d="M56.907,52.259V50.6a.215.215,0,0,1,.159-.246c1.006-.369,2.013-.769,3.027-1.123a.269.269,0,0,1,.272.054l3.027,2.27,2.27,1.708a.27.27,0,0,1,.136.254c0,1.108-.068,2.224-.091,3.332a.169.169,0,0,1-.129.177c-1.052.339-2.1.685-3.14,1.039A.254.254,0,0,1,62.181,58l-3.261-2.408c-.613-.446-1.211-.893-1.831-1.323a.472.472,0,0,1-.219-.462C56.9,53.29,56.922,52.775,56.907,52.259Z" transform="translate(-34.517 -13.753)" fill="#fefefe"/>
    <path id="Path_11720" data-name="Path 11720" d="M54.858,70.149h3.125a.324.324,0,0,1,.318.169c.56.854,1.12,1.7,1.687,2.539a.249.249,0,0,1,0,.315q-.908,1.431-1.907,2.793a.294.294,0,0,1-.272.146h-6.25a.339.339,0,0,1-.3-.154,24.352,24.352,0,0,1-1.415-2l-.431-.616a.148.148,0,0,1,0-.2c.658-.954,1.3-1.916,1.99-2.839a.354.354,0,0,1,.318-.154Z" transform="translate(-32.695 -18.579)" fill="#fefdfe"/>
    <path id="Path_11721" data-name="Path 11721" d="M61.8,67.5c-.083-.054-.159,0-.235-.054a.54.54,0,0,1,0-.185l1.884-5.909a.412.412,0,0,1,.3-.308c1.029-.315,2.051-.646,3.08-.977.182-.054.182-.054.3.092.62.769,1.241,1.624,1.869,2.431a.28.28,0,0,1,.045.339,5.63,5.63,0,0,0-.325.993c-.189.769-.477,1.454-.711,2.185-.31.977-.613,1.962-.916,2.939a.428.428,0,0,1-.272.3H66.7c-.893.208-1.755.539-2.648.769l-.257.069H63.58c0-.123-.151-.108-.212-.2-.189-.292-.409-.562-.613-.846l-1.037-1.416C61.651,67.641,61.651,67.634,61.8,67.5Z" transform="translate(-35.659 -16.248)" fill="#fefdfe"/>
  </g>
</svg>
