<svg id="Indian_Polo" data-name="Indian Polo" xmlns="http://www.w3.org/2000/svg" width="62.06" height="59.594" viewBox="0 0 62.06 59.594">
  <path id="Path_11805" data-name="Path 11805" d="M-237.06,75.267l-13.734.026c-.176.148-.114.51-.449.519-.6-.1-1.242-.6-1.75.192-.3.123-.423-.2-.648-.278a1.539,1.539,0,0,0-1.234-.43q-12.274.019-24.548,0a1.733,1.733,0,0,0-1.481.615.613.613,0,0,1-.535-.155.994.994,0,0,0-1.306.144c-.279.232-.5.59-.944.532a.311.311,0,0,1-.123-.512c.243-.43.18-.646-.364-.62-.736.026-1.481,0-2.209,0l-12.2-.041a26.061,26.061,0,0,1-.112-4.164c-.032-1.252.047-2.511-.025-3.759-.047-.841.258-1,1.022-1,7.011.028,14.022.017,21.031.017.5.172.768-.493,1.255-.357.885.239,1.528-.306,2.211-.712.279.06.347.278.37.525,0,.389.281.359.544.355,3.185-.013,6.368,0,9.55,0,.523,0,1.069.067,1.414-.473.336-.327.616-.09.914.086a1.021,1.021,0,0,0,1.244.039.455.455,0,0,1,.559,0,1.42,1.42,0,0,0,.99.5q10.276-.049,20.551-.058v.215a1.654,1.654,0,0,1-.942.689,10.047,10.047,0,0,1-2,.09h-55.576c-2.237,0-2.237,0-2.237,2.309,0,1.11-.011,2.221,0,3.333.017,1.291.114,1.373,1.411,1.4h56.435a8.767,8.767,0,0,1,2,.1,2.115,2.115,0,0,1,.921.678Z" transform="translate(299.083 -33.109)" fill="#b04846"/>
  <path id="Path_11806" data-name="Path 11806" d="M-83.336,112.253l.525-.443a34.555,34.555,0,0,0,3.282,4.276,35.846,35.846,0,0,0,2.81,3.443,2.413,2.413,0,0,1,1.058,1.321c.5.829,1.007.9,1.74.166.474-.473.861-1.035,1.314-1.534.313-.349.675-.669,1.2-.43a1.226,1.226,0,0,1,.669,1.132,2.192,2.192,0,0,1-.476,1.6c-1.663,2.124-3.333,4.241-4.99,6.372a4.741,4.741,0,0,1-1.538,1.035h-1.27c-.794-.646-.751-1.274-.059-2.025.781-.848,1.456-1.795,2.175-2.7.265-.646-.267-.988-.544-1.4a11.228,11.228,0,0,1-1.329-1.9c-1.412-1.982-2.95-3.861-4.5-5.728a4.612,4.612,0,0,1-1.67-2.139c-.239-.355-.476-.712-.713-1.076l.783.17c.914.215,1.181,1.147,1.761,1.722.444.45.739,1.044,1.183,1.506.212.215.483.587.787.331.37-.312-.076-.549-.245-.775-.51-.682-1.058-1.336-1.57-2.012C-83.171,112.914-83.47,112.673-83.336,112.253Z" transform="translate(131.102 -69.626)" fill="#ab4b4c"/>
  <path id="Path_11807" data-name="Path 11807" d="M-272.269,113.815a.479.479,0,0,0,.269.454c.044.874-.745,1.248-1.1,1.883-.138.247-.372.43-.535.665-.135.2-.36.413-.061.646.265.2.461.024.635-.183q1.033-1.291,2.042-2.6c.336-.43.548-1.035,1.215-1.1l.449.23c-1.841,2.7-4,5.141-5.978,7.747-.874,1.147-1.771,2.277-2.658,3.413-.188.441.068.8.212,1.175.664.813,1.316,1.638,1.993,2.442.876,1.042.846,1.336-.275,2.021h-1.27c-1.532-.958-2.415-2.533-3.53-3.873-.925-1.119-1.782-2.294-2.683-3.443a2.23,2.23,0,0,1-.5-2,.955.955,0,0,1,1.744-.463c.6.646,1.132,1.36,1.693,2.049.252.308.434.45.815.077a22.685,22.685,0,0,0,1.735-1.995Q-275.168,117.378-272.269,113.815Z" transform="translate(287.55 -71.015)" fill="#a84b49"/>
  <path id="Path_11808" data-name="Path 11808" d="M-245.34-84.214c.588.43,1.13.958,1.96.816a.729.729,0,0,1,.711.366q3.329,4.534,6.668,9.06c.057.2.121.4-.083.557-.408.1-1.124-.538-1.136.5-.133.2-.292.273-.5.105a88.255,88.255,0,0,1-7.379-8.167c-.36-.045-.383,1.341-.995.243a1.788,1.788,0,0,1,.212-1.788c.656-.714.108-.762-.4-.861a3.474,3.474,0,0,1-.713-.086c-.326-.241-.4-.488-.023-.749Z" transform="translate(258.516 84.22)" fill="#bc3f3e"/>
  <path id="Path_11809" data-name="Path 11809" d="M-66.9-83.357l1.107-.833h2.116a3.46,3.46,0,0,1,1.007,3.013c-.231,2.051-.5,4.1-.758,6.148a3.367,3.367,0,0,1-.165.725c-.658,1.8-1.187,1.831-2.487.521a2.964,2.964,0,0,1-.527-3.678,15.6,15.6,0,0,1,.635-2.2h0c.288-.443-.267-1.044.265-1.442a.534.534,0,0,1,.62-.071c.423.74.063,1.468-.07,2.184a21.931,21.931,0,0,1-.722,2.35A1.687,1.687,0,0,0-66-75.492c.212.523.453,1.209,1.058,1.207s.571-.73.635-1.194q.457-2.905.749-5.836c.18-1.805-.72-2.41-2.355-1.644a1.255,1.255,0,0,1-.4.125A.775.775,0,0,1-66.9-83.357Z" transform="translate(116.393 84.196)" fill="#a94d4d"/>
  <path id="Path_11810" data-name="Path 11810" d="M-250.264-80.708c.453.646.472-.5.846-.215a1.115,1.115,0,0,0-.144,1.1,27.045,27.045,0,0,0,.957,3.049,2.115,2.115,0,0,1-.442,2.638,7.207,7.207,0,0,0-.5.57c-1.016,1.164-1.4,1.091-2.131-.364a7.891,7.891,0,0,1-.5-2.5c-.212-1.444-.3-2.907-.51-4.356a3.821,3.821,0,0,1,.921-3.353h.423c-.1.192-.19.383,0,.575-.98,2.021-.167,4.061-.044,6.09A11.439,11.439,0,0,0-251-74.833c.235.766.529.831,1.1.271a1.689,1.689,0,0,0,.391-1.96,19.614,19.614,0,0,1-.874-2.974C-250.476-79.914-250.654-80.344-250.264-80.708Z" transform="translate(262.833 84.157)" fill="#ab4b4c"/>
  <path id="Path_11811" data-name="Path 11811" d="M-10.9,71.168a.7.7,0,0,1,.66-.458v8.608c-.286,0-.588.028-.635-.379a10.676,10.676,0,0,1-.091-2.972A36.679,36.679,0,0,1-10.9,71.168Z" transform="translate(72.264 -37.37)" fill="#be3b3f"/>
  <path id="Path_11812" data-name="Path 11812" d="M-200.137-13.606a.369.369,0,0,0,.047-.2c2.406-2.991,4.8-5.989,7.223-8.967a.623.623,0,0,0,0-.925l-3.809-4.734a11.183,11.183,0,0,1-2.116-2.619l-3.4-4.465a.5.5,0,0,0,.457-.316c.44.03.665.368.9.674,2.6,3.3,5.227,6.574,7.792,9.882.364.471.692,1.037,1.441.861a.512.512,0,0,1,.5.473c.023.323-.336.646.021,1.009.336-.3.064-.678.157-.99a.663.663,0,0,1,.358-.461.884.884,0,0,0,1.058-.42c2.872-3.632,5.769-7.224,8.6-10.882.248-.316.273-.734.573-1,.44-.069.665.215.846.549-1.481,1.915-3.026,3.766-4.486,5.688-1.708,2.249-3.5,4.427-5.233,6.658-.423.544-.182.861.154,1.278,2.2,2.746,4.374,5.507,6.56,8.263a.575.575,0,0,0-.491.252c-.438.039-.59-.336-.8-.6-1.775-2.21-3.579-4.4-5.324-6.637-.248-.316-.449-.717-.976-.785-.091.585.309.891.576,1.22,1.335,1.655,2.649,3.329,3.964,5,.3.387.815.712.679,1.349a1.107,1.107,0,0,1-1.27.882c-3.545-.082-7.094-.077-10.64-.1.309-.566.846-.407,1.318-.411,2.774-.019,5.551,0,8.325-.013a2.089,2.089,0,0,0,1.139-.121c.053-.383-.245-.579-.423-.822-1.287-1.743-2.734-3.357-3.983-5.13-.461-.646-.8-.592-1.293,0-1.481,1.775-2.808,3.658-4.294,5.425-.235.278-.356.8-.91.646,0-.215.015-.452-.229-.572-.025-.646.459-1.011.794-1.442q1.864-2.384,3.739-4.764c.248-.316.612-.6.546-1.123-.37-.095-.48.215-.635.415q-2.783,3.415-5.5,6.886a2.666,2.666,0,0,1-1.026.887C-199.6-14.088-199.822-13.636-200.137-13.606Z" transform="translate(222.971 46.925)" fill="#ac4c4a"/>
  <path id="Path_11813" data-name="Path 11813" d="M-101.508-70.561c-.4.024-.554-.512-.973-.43a.81.81,0,0,1-.694-.14c-.362-.48.294-.646.3-1.014.1-.293.482-.417.457-.785a11.985,11.985,0,0,1,2.116-3.03c.925-1.168,1.9-2.3,2.751-3.516.535-.753,1.079-1.276,2.049-1.033.25.03.449.123.493.407,1.513.512,1.627.671,1.282,1.782l-.476.215c-.133-.23-.182-.254-.269-.123-.233.359-.686.512-.846.94A48.43,48.43,0,0,1-101.508-70.561Z" transform="translate(144.996 81.355)" fill="#be403d"/>
  <path id="Path_11814" data-name="Path 11814" d="M-139.395-41.45c.2.355-.5.577-.138.955.188.473-.18.719-.423,1.009-2.774,3.443-5.5,6.931-8.283,10.37-.239.3-.423.674-.846.738a.548.548,0,0,1-.525-.495,8.763,8.763,0,0,1,2.264-2.819q3.689-4.573,7.388-9.146C-139.791-41.054-139.585-41.246-139.395-41.45Z" transform="translate(181.518 50.654)" fill="#ab4c4a"/>
  <path id="Path_11815" data-name="Path 11815" d="M-195.24-36.084A.672.672,0,0,0-195-36.6c2.286,2.55,4.285,5.339,6.471,7.973.561.676,1.132,1.343,1.693,2.014.311.587,1.111.794,1.181,1.571-.129.31-.377.334-.658.28a11.809,11.809,0,0,1-2.647-3.013c-1.977-2.453-4.008-4.863-5.883-7.4C-195.036-35.436-195.386-35.653-195.24-36.084Z" transform="translate(217.519 46.848)" fill="#ad4e4b"/>
  <path id="Path_11816" data-name="Path 11816" d="M-235.5,72.8a4.924,4.924,0,0,1,.169,2.324,30.959,30.959,0,0,1-.15,5.442l-43.344-.019c-5.32,0-10.64-.015-15.961.019-.847,0-1.16-.215-1.124-1.132.072-1.79.076-3.587,0-5.38-.042-.973.224-1.272,1.211-1.265,6.983.045,13.954.03,20.931.028Q-254.629,72.815-235.5,72.8Z" transform="translate(296.858 -39.002)" fill="#fbfafa"/>
  <path id="Path_11817" data-name="Path 11817" d="M-141.447,37.181l-4.908-6.3a6.223,6.223,0,0,0-.461-.587c-.368-.368-.436-.73,0-1.076.5-.407.6.176.768.385,2.057,2.539,4.089,5.1,6.137,7.648.11.138.239.258.358.387C-140.388,38.343-140.909,37.728-141.447,37.181Z" transform="translate(179.553 -4.695)" fill="#fff"/>
  <path id="Path_11818" data-name="Path 11818" d="M-188.13,37.763c2.19-2.752,4.374-5.511,6.579-8.251.174-.215.326-.775.791-.34.351.331.262.658-.025,1.022-1.761,2.227-3.5,4.47-5.255,6.708A1.66,1.66,0,0,1-188.13,37.763Z" transform="translate(211.887 -4.645)" fill="#fff"/>
  <path id="Path_11819" data-name="Path 11819" d="M-81.167,112.18c.8,1.029,1.6,2.053,2.391,3.09.184.243.635.473.182.861-.394.331-.745.42-1.136-.088-.965-1.252-1.983-2.475-2.986-3.7,0-.215-.5-.527.112-.6A1.411,1.411,0,0,1-81.167,112.18Z" transform="translate(128.932 -69.553)" fill="#fff"/>
  <path id="Path_11820" data-name="Path 11820" d="M-233.081,112.006c-1.035,1.291-2.1,2.582-3.092,3.9-.364.484-.635.506-1.086.164-.561-.43-.057-.676.127-.93.6-.831,1.238-1.631,1.86-2.445.51-.663,1.029-1.291,2.006-1.076C-233.007,111.694-233.047,111.834-233.081,112.006Z" transform="translate(250.821 -69.445)" fill="#fff"/>
  <path id="Path_11821" data-name="Path 11821" d="M-53.751,138.1a1.648,1.648,0,0,1-.423,1.076c-1.564,1.982-3.113,3.975-4.673,5.959a2.15,2.15,0,0,1-.586.607c-.521.275-1.2.689-1.64.161s.328-.822.59-1.192c.347-.493.755-.94,1.145-1.405,1.38-1.646,1.376-1.642.059-3.288q-1.835-2.3-3.64-4.607c-.212-.28-.658-.555-.11-.951a.649.649,0,0,1,1.058.148c1.371,1.771,2.819,3.482,4.163,5.272.516.686.8.7,1.3.022.567-.773,1.223-1.478,1.858-2.195.174-.2.336-.542.667-.377C-53.707,137.473-53.755,137.817-53.751,138.1Z" transform="translate(113.467 -87.238)" fill="#fff"/>
  <path id="Path_11822" data-name="Path 11822" d="M-274.4,146.034a2.105,2.105,0,0,1-1.591-.831c-1.566-2.019-3.147-4.028-4.717-6.047a2.222,2.222,0,0,1-.423-.723c-.112-.4-.245-.93.19-1.171.391-.215.578.284.794.525.635.717,1.27,1.437,1.854,2.2.383.5.62.482,1.007-.015,1.395-1.793,2.836-3.546,4.232-5.328.313-.4.559-.7,1.092-.284.584.45.135.71-.112,1.022-1.45,1.84-2.884,3.695-4.364,5.509-.423.508-.47.861-.011,1.36.846.945,1.659,1.937,2.47,2.931.146.179.423.353.288.631S-274.111,146.015-274.4,146.034Z" transform="translate(285.296 -87.166)" fill="#fff"/>
  <path id="Path_11823" data-name="Path 11823" d="M-248.016-78.852a14.152,14.152,0,0,0,1.045,4.123,2.427,2.427,0,0,1-1.219,2.916c-.457.179-.525-.215-.648-.488a15.143,15.143,0,0,1-.635-3.676c-.178-1.057-.265-2.128-.387-3.191a2.7,2.7,0,0,1,.753-2.552,2.045,2.045,0,0,1,2.167.764C-248.124-80.657-248.247-79.84-248.016-78.852Z" transform="translate(260.584 82.302)" fill="#fff"/>
  <path id="Path_11824" data-name="Path 11824" d="M-199.718-36.2l8.928,11.19c.2.176.389.355.188.646-.51.775-.832.245-1.162-.176q-4.11-5.218-8.222-10.443c-.241-.306-.506-.592-.758-.887-.44-.37-.1-.6.169-.783C-200.059-37-200.027-36.314-199.718-36.2Z" transform="translate(221.998 46.966)" fill="#fff"/>
  <path id="Path_11825" data-name="Path 11825" d="M-234.323-76.33c-.241,0-.453-.14-.385-.291A1.811,1.811,0,0,1-233.65-77.7a.224.224,0,0,1,.245.046.233.233,0,0,1,.055.247A1.57,1.57,0,0,1-234.323-76.33Z" transform="translate(248.618 79.115)" fill="#fff"/>
  <path id="Path_11826" data-name="Path 11826" d="M-227.382-71.08a1.563,1.563,0,0,1-1.348,1.519Z" transform="translate(243.895 73.908)" fill="#fff"/>
  <path id="Path_11827" data-name="Path 11827" d="M-222.062-62.89a1.219,1.219,0,0,1-1.128,1.076Z" transform="translate(239.527 67.48)" fill="#fff"/>
  <path id="Path_11828" data-name="Path 11828" d="M-215.65-52.774l1.2-1.076A1.218,1.218,0,0,1-215.65-52.774Z" transform="translate(233.583 60.385)" fill="#fff"/>
  <path id="Path_11829" data-name="Path 11829" d="M-218.59-55.485l1.177-.955A1.148,1.148,0,0,1-218.59-55.485Z" transform="translate(235.901 62.418)" fill="#fff"/>
  <path id="Path_11830" data-name="Path 11830" d="M-62.888-79.346c.08-.71.119-1.379-.9-1.351-.212,0-.336-.215-.383-.43.171-.123.341-.254.521-.362,1.4-.846,2.616-.23,2.573,1.418-.038,1.564-.29,3.125-.472,4.683-.1.887-.231,1.771-.392,2.647a1.052,1.052,0,0,1-.7.861c-.375.1-.483-.331-.7-.547a2.158,2.158,0,0,1-.483-2.778A10.343,10.343,0,0,0-62.888-79.346Z" transform="translate(114.159 82.374)" fill="#fff"/>
  <path id="Path_11831" data-name="Path 11831" d="M-147.554-25q4.882-5.92,9.563-12l.529.2c.341.362.1.62-.133.91-2.978,3.762-5.966,7.515-8.909,11.3-.423.553-.686.544-1.058.032a.306.306,0,0,1-.089-.222.306.306,0,0,1,.1-.219Z" transform="translate(179.975 47.161)" fill="#fff"/>
  <path id="Path_11832" data-name="Path 11832" d="M-151.319,22.465a.755.755,0,0,0,.087.187c.332.394.125.689-.15,1-.212.228-.332.108-.485-.052a.659.659,0,0,1-.034-1.007,2.174,2.174,0,0,0,.176-.256C-151.552,22.254-151.4,22.237-151.319,22.465Z" transform="translate(183.496 0.638)" fill="#fff"/>
  <path id="Path_11833" data-name="Path 11833" d="M-151.927,18.211l-.406-.131-.368-.374c-.064-.215-.125-.43-.188-.646.212-.013.423.03.565-.2l.241.045.406.372v.43Z" transform="translate(184.104 4.892)" fill="#d74143"/>
  <path id="Path_11834" data-name="Path 11834" d="M-70.917-77.737a1.742,1.742,0,0,1,1.058,1.076c.08.2-.138.34-.32.295a1.571,1.571,0,0,1-1.075-1.076C-71.323-77.618-71.171-77.756-70.917-77.737Z" transform="translate(119.757 79.133)" fill="#fff"/>
  <path id="Path_11835" data-name="Path 11835" d="M-75.03-68.682a1.3,1.3,0,0,1-1.21-1.268Z" transform="translate(123.675 73.021)" fill="#fff"/>
  <path id="Path_11836" data-name="Path 11836" d="M-94.424,80.79c.423-.94.971-1.134,1.693-.3.313.359.665.269,1.018.06a7.762,7.762,0,0,1,.078,3.615c-.734-.241-1.445.714-2.188.045.212-.316.614-.334.87-.646a.878.878,0,0,1-1.27-.254,1.806,1.806,0,0,1-.063-1.836c.26-.572.766-.476,1.27-.385C-93.435,80.616-94,81.1-94.424,80.79Z" transform="translate(138.075 -44.631)" fill="#f9eee9"/>
  <path id="Path_11837" data-name="Path 11837" d="M-279.754,85.635c-.063.374-.142.727-.635.43a4.075,4.075,0,0,1-.03-3.228c.4-.45.635-.185.861.187a5.236,5.236,0,0,0,.846,1.429c.021-.5.053-.9.053-1.291s.161-.594.569-.514c.593,1.19.485,2.933-.224,3.609-.271-.026-.4-.258-.578-.411-.256-.43-.739-.77-.679-1.171A1.09,1.09,0,0,1-279.754,85.635Z" transform="translate(284.897 -46.702)" fill="#b55153"/>
  <path id="Path_11838" data-name="Path 11838" d="M-30.956,85.508c0,.129-.013.26-.021.389-.491.34-.745.028-.817-.394a3.677,3.677,0,0,1,.167-2.582c.116-.8.474-.43.813-.174a1.4,1.4,0,0,1,.715,1.132,1.44,1.44,0,0,1,.394-1.377c.161.024.4-.03.408.215.025.994.044,1.988.019,2.98-.015.508-.341.43-.662.254a2.681,2.681,0,0,1-.88-1.743C-30.833,84.639-30.558,85.11-30.956,85.508Z" transform="translate(88.754 -46.573)" fill="#b24e4f"/>
  <path id="Path_11839" data-name="Path 11839" d="M-111.982,82.652a1.4,1.4,0,0,1,2.1.43,1.264,1.264,0,0,1,.174,1.887c-.664,1.308-1.621,1.493-2.523.486A1.934,1.934,0,0,1-111.982,82.652Z" transform="translate(152.438 -46.515)" fill="#b76463"/>
  <path id="Path_11840" data-name="Path 11840" d="M-230.536,85.569c-.061.215-.025.549-.381.521-.2-.015-.25-.215-.252-.4a21.732,21.732,0,0,1,0-2.651c.108-.867.531-.461.846-.065.324.151.423.514.686.824a8.3,8.3,0,0,1,.3-1.231c.466-.039.48.286.48.62,0,.742.015,1.483,0,2.225,0,.258.112.62-.273.7s-.552-.2-.652-.525a1.387,1.387,0,0,1-.6-1.235C-230.43,84.749-230.24,85.206-230.536,85.569Z" transform="translate(245.855 -46.639)" fill="#b64f53"/>
  <path id="Path_11841" data-name="Path 11841" d="M-266.441,82.737c2.091-.118,2.539.336,2.29,2.335-.135,1.108-.95,1.485-2.353,1.089A3.978,3.978,0,0,1-266.441,82.737Z" transform="translate(273.956 -46.795)" fill="#a8524e"/>
  <path id="Path_11842" data-name="Path 11842" d="M-171.5,84.333c-.015-1.11.483-1.8,1.325-1.827s1.441.646,1.464,1.722c.025,1.151-.508,1.915-1.356,1.937C-170.951,86.208-171.486,85.519-171.5,84.333Z" transform="translate(198.777 -46.627)" fill="#ab524e"/>
  <path id="Path_11843" data-name="Path 11843" d="M-124.871,83.405c.1-1.24.993-.82,1.68-.826.36.179.722.387.573.861-.123.409-.466.34-.817.284a1.352,1.352,0,0,1,1.058,1.216.985.985,0,0,1-.548,1.05l-.635.215a.655.655,0,0,1-.607.045c-.5-.168-.973-.43-.8-1.059.212-.779.73-.185,1.27-.138C-124.289,84.57-125.186,84.374-124.871,83.405Z" transform="translate(162.117 -46.635)" fill="#ad5052"/>
  <path id="Path_11844" data-name="Path 11844" d="M-196.617,85.695c-.707.482-1.416.678-2.051-.09a2.256,2.256,0,0,1,.049-2.7c.675-.71,1.369-.54,2.046.019A2.02,2.02,0,0,1-196.617,85.695Z" transform="translate(220.53 -46.568)" fill="#a64c52"/>
  <path id="Path_11845" data-name="Path 11845" d="M-135.937,86.037a1.876,1.876,0,0,1-1.627,0c-.264-.282-.6-.592-.311-.99.353-.482.719.157,1.221.108-.423-.43-1.058-.5-1.141-1.1-.076-.461-.25-.93.284-1.267a1.392,1.392,0,0,1,1.56.052.525.525,0,0,1,.341.676c-.131.413-.485.282-.794.267C-135.3,84.337-135.135,85.144-135.937,86.037Z" transform="translate(172.355 -46.683)" fill="#ae4f52"/>
  <path id="Path_11846" data-name="Path 11846" d="M-44.425,85.749a1.534,1.534,0,0,1-2.082.026,1.97,1.97,0,0,1,0-2.8,1.411,1.411,0,0,1,2.116,0A1.983,1.983,0,0,1-44.425,85.749Z" transform="translate(100.693 -46.623)" fill="#a94a4f"/>
  <path id="Path_11847" data-name="Path 11847" d="M-149.509,85.912c-.152.6-.349.646-.686.1-.466-.751-.882-.762-1.458-.052-.15.187-.313.334-.51.239s-.114-.314-.059-.488c.277-.887.554-1.771.846-2.653a.472.472,0,0,1,.457-.374c.267,0,.353.192.423.4l.692,2.006C-149.425,85.256-149.475,85.589-149.509,85.912Z" transform="translate(183.629 -46.764)" fill="#b54b4e"/>
  <path id="Path_11848" data-name="Path 11848" d="M-74.054,85.61c.025.31,0,.471-.167.482a.449.449,0,0,1-.362-.144c-.521-.889-1.031-1-1.56-.015a.3.3,0,0,1-.178.174.294.294,0,0,1-.246-.021c-.144-.075-.135-.235-.091-.374.3-.949.574-1.9.9-2.838.135-.39.565-.476.715-.12C-74.636,83.727-74.344,84.751-74.054,85.61Z" transform="translate(124.026 -46.645)" fill="#b54b4e"/>
  <path id="Path_11849" data-name="Path 11849" d="M-243.3,85.695c-.044.1-.07.288-.161.331a.34.34,0,0,1-.449-.168c-.489-.917-1-.861-1.517-.039a.381.381,0,0,1-.444.2c-.29-.108-.131-.334-.07-.527.269-.848.523-1.7.806-2.546.15-.43.519-.766.783-.215A29.787,29.787,0,0,1-243.3,85.695Z" transform="translate(257.539 -46.579)" fill="#b34c4e"/>
  <path id="Path_11850" data-name="Path 11850" d="M-132.83,86.96c.521-1.229.423-1.539-.7-2.094-.252-.125-.635-.2-.476-.551.135-.3.521-.235.711,0s.4.364.593.133-.068-.461-.14-.691c.476-.071.493.508.846.618.057.719.529,1.026,1.132,1.242.279.1.69.215.411.661-.212.329-.516.3-.813.047-.184-.155-.315-.646-.616-.312s0,.7.3.884a3.829,3.829,0,0,0,.889.3.828.828,0,0,1-1.139,0A1.573,1.573,0,0,0-132.83,86.96Z" transform="translate(169.248 -47.606)" fill="#fbebe4"/>
  <path id="Path_11851" data-name="Path 11851" d="M-211.489,84.367a4.313,4.313,0,0,1,0-.646c.07-.454-.292-1.169.635-1.128.667.028,1.418-.073,1.545.861.1.717-.121,1.291-.967,1.339-.449.028-.59.293-.593.712,0,.273.028.669-.368.624s-.229-.452-.252-.708c-.03-.355,0-.712,0-1.076Z" transform="translate(230.314 -46.695)" fill="#bb565b"/>
  <path id="Path_11852" data-name="Path 11852" d="M-96.663,82.827c.635-.288,1.27-.5,1.792.2.116.155.311.346.1.551a.31.31,0,0,1-.243.079.312.312,0,0,1-.22-.131c-.463-.486-.921-.448-1.134.179a1.419,1.419,0,0,0,.326,1.756c.252.194.538.09.717-.2.138-.215.32-.469.567-.215s0,.538-.157.74a1.492,1.492,0,0,1-1.136.469l-.832-.646c-.787-1-.461-1.9.233-2.772Z" transform="translate(140.314 -46.668)" fill="#ac5056"/>
  <path id="Path_11853" data-name="Path 11853" d="M-62.834,82.67h.736c.19,0,.339.09.334.316,0,.151-.07.3-.229.3-.745-.015-.58.534-.588.968-.011.5,0,1,0,1.506,0,.192.047.469-.279.445-.248-.017-.349-.2-.347-.443,0-.463.013-.927,0-1.39s.186-1.059-.607-1.089c-.154,0-.224-.166-.212-.316.017-.215.178-.29.364-.3h.846Z" transform="translate(114.047 -46.756)" fill="#ad5257"/>
  <path id="Path_11854" data-name="Path 11854" d="M-184.273,82.76c.408-.073.593.1.582.521-.013.465.03.934,0,1.4-.053.691.1,1.121.906,1.009.193-.026.468-.03.491.263.032.364-.26.366-.506.377-.423.019-.846.028-1.27.041-.66-.3-.554-.915-.569-1.468A3.788,3.788,0,0,1-184.273,82.76Z" transform="translate(209.143 -46.814)" fill="#b3595e"/>
  <path id="Path_11855" data-name="Path 11855" d="M-119.807,86.229c.569-1.235.487-1.483-.741-2.122-.243-.127-.595-.2-.457-.568.072-.194.36-.176.563-.1.254.1.461.628.751.252s-.212-.6-.375-.884c.512.047.967.562,1.53.194a3.08,3.08,0,0,0-.254,2.813C-119.1,86.025-119.38,86.313-119.807,86.229Z" transform="translate(158.991 -46.866)" fill="#fce8de"/>
  <path id="Path_11856" data-name="Path 11856" d="M-251.063,84.811c.18-.448-.394-1.453.362-1.493.523-.028.146,1.024.231,1.586a10.172,10.172,0,0,1,.013,1.392.46.46,0,0,1-.343.482c-.3.032-.252-.271-.258-.469C-251.069,85.844-251.063,85.38-251.063,84.811Z" transform="translate(261.534 -47.264)" fill="#9d4c47"/>
  <path id="Path_11857" data-name="Path 11857" d="M-268.38,82.8l-.063,3.424a1.192,1.192,0,0,1-.876.189c.544-1.173.15-2.406.224-3.609A.936.936,0,0,0-268.38,82.8Z" transform="translate(275.895 -46.858)" fill="#fdece5"/>
  <path id="Path_11858" data-name="Path 11858" d="M-284.27,86.2c-.32.215-.573.133-.588-.243-.034-.958-.021-1.917,0-2.875,0-.37.311-.3.548-.308A4.193,4.193,0,0,1-284.27,86.2Z" transform="translate(288.161 -46.835)" fill="#994b51"/>
  <path id="Path_11859" data-name="Path 11859" d="M-50.647,86.164c-.356.2-.635.161-.635-.314-.019-.921,0-1.842,0-2.763,0-.458.33-.351.6-.336A4.586,4.586,0,0,1-50.647,86.164Z" transform="translate(104.005 -46.803)" fill="#a95962"/>
  <path id="Path_11860" data-name="Path 11860" d="M-34.5,87.476a3.3,3.3,0,0,0,.044-2.776h.815c.019.818.049,1.638.051,2.455,0,.43.089.717.6.525C-33.6,88.449-33.958,87.229-34.5,87.476Z" transform="translate(90.768 -48.349)" fill="#fce6d9"/>
  <path id="Path_11861" data-name="Path 11861" d="M-186.433,82.82c0,1.205-.315,2.43.2,3.607-.47.1-.7-.463-1.153-.43a3.461,3.461,0,0,0,.044-2.776C-186.774,83.72-186.759,82.9-186.433,82.82Z" transform="translate(211.303 -46.874)" fill="#fce5dc"/>
  <path id="Path_11862" data-name="Path 11862" d="M-282.173,86.206q-.021-1.722-.047-3.426c.212.041.32.467.635.215q.015,1.607.03,3.228A.518.518,0,0,1-282.173,86.206Z" transform="translate(286.065 -46.843)" fill="#fee8e0"/>
  <path id="Path_11863" data-name="Path 11863" d="M-140.264,91.21c-.231-.215-.212-.542-.3-.826.588-.043.732-.43.736-.953a2.924,2.924,0,0,0,1.155.678c.29.118.512.265.3.622-.188.321-.455.25-.728.138s-.3-.736-.684-.407c-.33.288.127.622.188.947Z" transform="translate(174.384 -52.062)" fill="#fbe9e3"/>
  <path id="Path_11864" data-name="Path 11864" d="M-48.4,86.243q-.019-1.706-.04-3.413c.237.254.4.671.874.4a3.419,3.419,0,0,0,0,2.8A1.325,1.325,0,0,0-48.4,86.243Z" transform="translate(101.758 -46.882)" fill="#faded4"/>
  <path id="Path_11865" data-name="Path 11865" d="M-81.452,86.3a15.533,15.533,0,0,1-.078-3.615c.07,0,.167-.015.212.024C-80.836,83.227-80.927,85.767-81.452,86.3Z" transform="translate(127.899 -46.769)" fill="#b04652"/>
  <path id="Path_11866" data-name="Path 11866" d="M-98.211,83.8a3.276,3.276,0,0,0-.233,2.772l-.7-.465a3.26,3.26,0,0,0-.174-1.887C-98.8,84.489-98.581,83.942-98.211,83.8Z" transform="translate(141.871 -47.643)" fill="#f9e1d6"/>
  <path id="Path_11867" data-name="Path 11867" d="M-225.908,82.72c-.03.594-.057,1.188-.1,1.96a3.8,3.8,0,0,1-.887-1.554C-226.581,82.944-226.094,83.211-225.908,82.72Z" transform="translate(242.444 -46.796)" fill="#fde9df"/>
  <path id="Path_11868" data-name="Path 11868" d="M-25.491,82.72l-.243,1.874a6.1,6.1,0,0,1-.866-1.629C-26.179,83.122-25.859,82.808-25.491,82.72Z" transform="translate(84.54 -46.796)" fill="#fde7da"/>
  <path id="Path_11869" data-name="Path 11869" d="M-27.27,90.84V89.23l1.016,2.042C-26.635,91.231-26.813,90.7-27.27,90.84Z" transform="translate(85.068 -51.905)" fill="#fce4e4"/>
  <path id="Path_11870" data-name="Path 11870" d="M-276.09,91.348V89.88a5.269,5.269,0,0,1,.847,1.679C-275.514,91.464-275.72,91.066-276.09,91.348Z" transform="translate(281.232 -52.415)" fill="#fbddd2"/>
  <path id="Path_11871" data-name="Path 11871" d="M-228,91.628V90.24a3.542,3.542,0,0,1,.762,1.4C-227.484,91.626-227.733,91.411-228,91.628Z" transform="translate(243.319 -52.697)" fill="#fadfd4"/>
  <path id="Path_11872" data-name="Path 11872" d="M-108.26,86.889c.013-.519.021-1.091.724-1.063.635.024.751.557.743,1.091,0,.568-.142,1.181-.819,1.143C-108.23,88.015-108.249,87.4-108.26,86.889Z" transform="translate(148.919 -49.233)" fill="#f4f7f2"/>
  <path id="Path_11873" data-name="Path 11873" d="M-262.36,86.856c.212-.43-.275-1.132.531-1.136.764,0,.722.665.741,1.181.023.559-.078,1.188-.806,1.108C-262.722,87.919-262.036,87.158-262.36,86.856Z" transform="translate(270.408 -49.15)" fill="#fbe3dd"/>
  <path id="Path_11874" data-name="Path 11874" d="M-167.059,86.786c-.057.527-.078,1.141-.76,1.194-.755.058-.783-.611-.8-1.119s-.036-1.156.713-1.186S-167.118,86.229-167.059,86.786Z" transform="translate(196.504 -49.114)" fill="#f9e8e9"/>
  <path id="Path_11875" data-name="Path 11875" d="M-194.382,86.788c-.1.519-.1,1.168-.785,1.2s-.825-.566-.836-1.115.07-1.149.755-1.2C-194.522,85.631-194.5,86.27-194.382,86.788Z" transform="translate(218.094 -49.117)" fill="#f9eae0"/>
  <path id="Path_11876" data-name="Path 11876" d="M-41.452,86.75c-.135.56-.123,1.22-.846,1.218s-.8-.624-.8-1.164.1-1.151.8-1.164S-41.6,86.294-41.452,86.75Z" transform="translate(97.548 -49.087)" fill="#f8e3de"/>
  <path id="Path_11877" data-name="Path 11877" d="M-147.008,87.77c.224.368.423.631.254.979a.388.388,0,0,1-.37.034C-147.4,88.51-147.272,88.218-147.008,87.77Z" transform="translate(179.68 -50.759)" fill="#f7b5a5"/>
  <path id="Path_11878" data-name="Path 11878" d="M-71.838,87.41c.383.43.491.74.33,1.076-.03.06-.3.086-.379.024C-72.31,88.193-71.838,87.916-71.838,87.41Z" transform="translate(120.382 -50.476)" fill="#f7b6a7"/>
  <path id="Path_11879" data-name="Path 11879" d="M-240.74,87.82c.144.4.508.667.138,1a.376.376,0,0,1-.366-.049C-241.191,88.457-240.947,88.207-240.74,87.82Z" transform="translate(253.613 -50.798)" fill="#fbcbb2"/>
  <path id="Path_11880" data-name="Path 11880" d="M-207.646,86.157a.429.429,0,0,1-.436.482.386.386,0,0,1-.346-.075.4.4,0,0,1-.145-.327c-.038-.31.1-.463.408-.467C-207.892,85.765-207.68,85.834-207.646,86.157Z" transform="translate(228.009 -49.189)" fill="#fce9d4"/>
  <rect id="Rectangle_13966" data-name="Rectangle 13966" width="61.637" height="9.215" transform="translate(0.212 33.357)" fill="#fff"/>
  <path id="Path_11881" data-name="Path 11881" d="M-238.33,79.437h-62.06V69.79h62.06Zm-61.637-.43h61.214V70.22h-61.214Z" transform="translate(300.39 -36.648)" fill="#bc3f3e"/>
  <path id="Path_11882" data-name="Path 11882" d="M-282.854,88.863h-.546V85.65h.546Z" transform="translate(286.995 -49.095)" fill="#b34c4e"/>
  <path id="Path_11883" data-name="Path 11883" d="M-275.093,88.863h-.548l-1.4-2.277v2.279h-.548V85.65h.548l1.414,2.29V85.65h.544Z" transform="translate(282.415 -49.095)" fill="#b34c4e"/>
  <path id="Path_11884" data-name="Path 11884" d="M-262.72,88.862V85.649h.933a1.462,1.462,0,0,1,.743.189,1.282,1.282,0,0,1,.5.532,1.728,1.728,0,0,1,.178.8v.161a1.746,1.746,0,0,1-.178.8,1.281,1.281,0,0,1-.51.534,1.516,1.516,0,0,1-.76.187Zm.548-2.763v2.318h.358a.823.823,0,0,0,.664-.275,1.213,1.213,0,0,0,.235-.788v-.179a1.233,1.233,0,0,0-.224-.8.781.781,0,0,0-.648-.278Z" transform="translate(270.692 -49.094)" fill="#b34c4e"/>
  <path id="Path_11885" data-name="Path 11885" d="M-248.3,88.863h-.548V85.65h.548Z" transform="translate(259.757 -49.095)" fill="#b34c4e"/>
  <path id="Path_11886" data-name="Path 11886" d="M-242.169,88.116h-1.225l-.256.747h-.569l1.194-3.213h.491l1.2,3.213h-.571Zm-1.071-.452h.916l-.459-1.332Z" transform="translate(256.107 -49.095)" fill="#b34c4e"/>
  <path id="Path_11887" data-name="Path 11887" d="M-226.4,88.863h-.55l-1.407-2.277v2.279h-.548V85.65h.548l1.412,2.29V85.65h.546Z" transform="translate(244.037 -49.095)" fill="#b34c4e"/>
  <path id="Path_11888" data-name="Path 11888" d="M-208.23,87.655v1.192h-.55v-3.2h1.21a1.21,1.21,0,0,1,.846.282.944.944,0,0,1,.311.74.918.918,0,0,1-.3.736,1.255,1.255,0,0,1-.846.263Zm0-.45h.66a.628.628,0,0,0,.447-.14.521.521,0,0,0,.154-.4.56.56,0,0,0-.157-.415.6.6,0,0,0-.423-.161h-.675Z" transform="translate(228.167 -49.088)" fill="#b34c4e"/>
  <path id="Path_11889" data-name="Path 11889" d="M-193.178,87.184a1.991,1.991,0,0,1-.161.828,1.223,1.223,0,0,1-.459.547,1.254,1.254,0,0,1-.686.192,1.254,1.254,0,0,1-.686-.192,1.254,1.254,0,0,1-.455-.544,1.928,1.928,0,0,1-.167-.813V87.02a1.965,1.965,0,0,1,.165-.831,1.24,1.24,0,0,1,.461-.551,1.254,1.254,0,0,1,.686-.189,1.254,1.254,0,0,1,.684.187,1.234,1.234,0,0,1,.461.544,1.991,1.991,0,0,1,.165.824Zm-.548-.168a1.433,1.433,0,0,0-.2-.82.646.646,0,0,0-.563-.284.644.644,0,0,0-.557.284,1.391,1.391,0,0,0-.212.8v.187a1.406,1.406,0,0,0,.212.818.646.646,0,0,0,.563.288.632.632,0,0,0,.55-.282,1.435,1.435,0,0,0,.2-.824Z" transform="translate(217.927 -48.937)" fill="#b34c4e"/>
  <path id="Path_11890" data-name="Path 11890" d="M-180.3,88.417h1.435v.445h-1.983V85.65h.548Z" transform="translate(206.147 -49.095)" fill="#b34c4e"/>
  <path id="Path_11891" data-name="Path 11891" d="M-168,87.183a2.027,2.027,0,0,1-.161.829,1.236,1.236,0,0,1-.459.547,1.254,1.254,0,0,1-.688.192,1.254,1.254,0,0,1-.684-.192,1.244,1.244,0,0,1-.466-.544,1.965,1.965,0,0,1-.165-.813V87.02a2.009,2.009,0,0,1,.163-.831,1.259,1.259,0,0,1,.463-.551,1.254,1.254,0,0,1,.684-.189,1.254,1.254,0,0,1,.686.187,1.249,1.249,0,0,1,.463.544A1.99,1.99,0,0,1-168,87Zm-.55-.168a1.417,1.417,0,0,0-.2-.82.644.644,0,0,0-.563-.284.644.644,0,0,0-.557.284,1.408,1.408,0,0,0-.212.8v.187a1.406,1.406,0,0,0,.212.818.649.649,0,0,0,.563.288.631.631,0,0,0,.561-.282,1.435,1.435,0,0,0,.2-.824Z" transform="translate(198.083 -48.937)" fill="#b34c4e"/>
  <path id="Path_11892" data-name="Path 11892" d="M-149.7,88.116h-1.225l-.256.747h-.569l1.194-3.213h.491l1.2,3.213h-.571Zm-1.071-.452h.916l-.468-1.332Z" transform="translate(183.206 -49.095)" fill="#b34c4e"/>
  <path id="Path_11893" data-name="Path 11893" d="M-135.389,87.851a.39.39,0,0,0-.146-.327,1.743,1.743,0,0,0-.529-.232,2.469,2.469,0,0,1-.607-.26.826.826,0,0,1-.423-.719.784.784,0,0,1,.311-.646,1.243,1.243,0,0,1,.808-.252,1.36,1.36,0,0,1,.588.123.976.976,0,0,1,.406.353.915.915,0,0,1,.146.506h-.546a.512.512,0,0,0-.155-.394.628.628,0,0,0-.444-.142.667.667,0,0,0-.423.116.4.4,0,0,0-.148.327.352.352,0,0,0,.161.295,1.854,1.854,0,0,0,.529.228,2.456,2.456,0,0,1,.593.254.945.945,0,0,1,.328.327.86.86,0,0,1,.1.43.762.762,0,0,1-.3.646,1.29,1.29,0,0,1-.821.239,1.525,1.525,0,0,1-.635-.129,1.074,1.074,0,0,1-.447-.357.9.9,0,0,1-.159-.529h.548a.525.525,0,0,0,.178.43.778.778,0,0,0,.51.151.681.681,0,0,0,.423-.118.387.387,0,0,0,.152-.318Z" transform="translate(171.735 -48.91)" fill="#b34c4e"/>
  <path id="Path_11894" data-name="Path 11894" d="M-122.749,87.852a.39.39,0,0,0-.146-.327,1.693,1.693,0,0,0-.529-.232,2.47,2.47,0,0,1-.595-.26.826.826,0,0,1-.423-.719.784.784,0,0,1,.311-.646,1.255,1.255,0,0,1,.808-.252,1.352,1.352,0,0,1,.574.125.976.976,0,0,1,.406.353.917.917,0,0,1,.148.506h-.554a.506.506,0,0,0-.154-.394.628.628,0,0,0-.444-.142.66.66,0,0,0-.423.116.39.39,0,0,0-.148.327.357.357,0,0,0,.159.295,1.846,1.846,0,0,0,.544.23,2.493,2.493,0,0,1,.593.254.937.937,0,0,1,.326.327.859.859,0,0,1,.106.43.769.769,0,0,1-.3.646,1.3,1.3,0,0,1-.823.239,1.508,1.508,0,0,1-.635-.129,1.08,1.08,0,0,1-.449-.357.9.9,0,0,1-.159-.529h.548a.521.521,0,0,0,.18.43.772.772,0,0,0,.508.151.675.675,0,0,0,.423-.118A.388.388,0,0,0-122.749,87.852Z" transform="translate(161.77 -48.91)" fill="#b34c4e"/>
  <path id="Path_11895" data-name="Path 11895" d="M-108.95,87.183a2.026,2.026,0,0,1-.161.829,1.236,1.236,0,0,1-.459.547,1.254,1.254,0,0,1-.686.192,1.254,1.254,0,0,1-.686-.192,1.225,1.225,0,0,1-.463-.544,1.927,1.927,0,0,1-.167-.813V87.02a1.965,1.965,0,0,1,.165-.831,1.241,1.241,0,0,1,.461-.551,1.254,1.254,0,0,1,.684-.189,1.254,1.254,0,0,1,.686.187,1.234,1.234,0,0,1,.453.544,1.991,1.991,0,0,1,.165.824Zm-.55-.168a1.435,1.435,0,0,0-.2-.82.65.65,0,0,0-.565-.284.646.646,0,0,0-.554.284,1.391,1.391,0,0,0-.212.8v.187a1.406,1.406,0,0,0,.212.818.648.648,0,0,0,.565.288.631.631,0,0,0,.561-.282,1.452,1.452,0,0,0,.195-.824Z" transform="translate(151.53 -48.937)" fill="#b34c4e"/>
  <path id="Path_11896" data-name="Path 11896" d="M-94.585,87.654a1.165,1.165,0,0,1-.379.8,1.256,1.256,0,0,1-.866.288,1.218,1.218,0,0,1-.664-.183,1.173,1.173,0,0,1-.444-.516,1.9,1.9,0,0,1-.163-.779v-.3a1.9,1.9,0,0,1,.159-.8,1.2,1.2,0,0,1,.455-.534,1.254,1.254,0,0,1,.684-.187,1.208,1.208,0,0,1,.846.286,1.21,1.21,0,0,1,.37.816h-.546a.8.8,0,0,0-.2-.5.653.653,0,0,0-.468-.153.631.631,0,0,0-.55.267,1.361,1.361,0,0,0-.2.779v.286a1.424,1.424,0,0,0,.184.794.6.6,0,0,0,.538.273.7.7,0,0,0,.487-.146.785.785,0,0,0,.212-.493Z" transform="translate(140.122 -48.932)" fill="#b34c4e"/>
  <path id="Path_11897" data-name="Path 11897" d="M-82.184,88.863h-.546V85.65h.546Z" transform="translate(128.792 -49.095)" fill="#b34c4e"/>
  <path id="Path_11898" data-name="Path 11898" d="M-76.059,88.116h-1.223l-.256.747h-.571l1.194-3.213h.493l1.2,3.213H-75.8Zm-1.071-.454h.916l-.457-1.332Z" transform="translate(125.149 -49.095)" fill="#b34c4e"/>
  <path id="Path_11899" data-name="Path 11899" d="M-62.582,86.1h-.986v2.763h-.544V86.1h-.978v-.45h2.508Z" transform="translate(114.885 -49.095)" fill="#b34c4e"/>
  <path id="Path_11900" data-name="Path 11900" d="M-50.584,88.863h-.546V85.65h.546Z" transform="translate(103.879 -49.095)" fill="#b34c4e"/>
  <path id="Path_11901" data-name="Path 11901" d="M-43.17,87.183a2.026,2.026,0,0,1-.161.829,1.236,1.236,0,0,1-.459.547,1.254,1.254,0,0,1-.688.192,1.254,1.254,0,0,1-.684-.192,1.245,1.245,0,0,1-.455-.544,1.965,1.965,0,0,1-.165-.813V87.02a2.009,2.009,0,0,1,.163-.831,1.26,1.26,0,0,1,.463-.551,1.254,1.254,0,0,1,.684-.189,1.254,1.254,0,0,1,.686.187,1.249,1.249,0,0,1,.461.544,1.991,1.991,0,0,1,.165.824Zm-.55-.168a1.417,1.417,0,0,0-.2-.82.644.644,0,0,0-.563-.284.644.644,0,0,0-.557.284,1.408,1.408,0,0,0-.212.8v.187a1.406,1.406,0,0,0,.212.818.648.648,0,0,0,.563.288.632.632,0,0,0,.557-.282,1.434,1.434,0,0,0,.212-.824Z" transform="translate(99.662 -48.937)" fill="#b34c4e"/>
  <path id="Path_11902" data-name="Path 11902" d="M-28.35,88.863H-28.9l-1.414-2.277v2.279h-.548V85.65h.548l1.414,2.29V85.65h.548Z" transform="translate(87.899 -49.095)" fill="#b34c4e"/>
</svg>
