<svg xmlns="http://www.w3.org/2000/svg" width="59.987" height="62.407" viewBox="0 0 59.987 62.407">
  <g id="Indian_Kayaking_and_Canoeing_Association" data-name="Indian Kayaking and Canoeing Association" transform="translate(0 0)">
    <ellipse id="Ellipse_454" data-name="Ellipse 454" cx="29.53" cy="30.029" rx="29.53" ry="30.029" transform="translate(0.464 0.499)" fill="#d92820"/>
    <path id="Path_11733" data-name="Path 11733" d="M41.994,63.45C25.429,63.45,12,49.795,12,32.95S25.429,2.45,41.994,2.45s29.994,13.655,29.994,30.5S58.559,63.45,41.994,63.45Zm0-60.057A29.343,29.343,0,0,0,12.9,32.978,29.343,29.343,0,0,0,41.994,62.563,29.343,29.343,0,0,0,71.088,32.978,29.377,29.377,0,0,0,41.994,3.393Z" transform="translate(-12 -2.45)" fill="#1e1752"/>
    <ellipse id="Ellipse_455" data-name="Ellipse 455" cx="22.148" cy="22.521" rx="22.148" ry="22.521" transform="translate(7.846 8.006)" fill="#0592d9"/>
    <path id="Path_11734" data-name="Path 11734" d="M45.451,59.284A22.784,22.784,0,0,1,22.86,36.31,22.594,22.594,0,1,1,45.451,59.284Zm0-45.057A21.9,21.9,0,0,0,23.733,36.3,21.714,21.714,0,1,0,45.451,14.241Z" transform="translate(-15.457 -5.791)" fill="#201c51"/>
    <path id="Path_11735" data-name="Path 11735" d="M16.264,84.234l.184-6.738L8.384,74.03l1.629,3.313-3.483,2.5Z" transform="translate(-2.058 -22.665)" fill="#fff800"/>
    <path id="Path_11736" data-name="Path 11736" d="M28.3,86.95l-10.6-4.8,3.7-2.662L19.527,75.7l8.984,3.861Zm-9.421-4.9,8.862,3.993.17-6.086-7.151-3.071L22.124,79.7Z" transform="translate(-13.814 -24.925)" fill="#211c50"/>
    <path id="Path_11737" data-name="Path 11737" d="M65.588,84.527l-.518-6.474L73.175,73.7l-.954,4.131,3.32,2.294Z" transform="translate(-20.693 -22.564)" fill="#fff800"/>
    <path id="Path_11738" data-name="Path 11738" d="M77.216,87.24l-.566-7.091L85.512,75.4l-1.07,4.575,3.592,2.489Zm.055-6.745.464,5.864,9.094-4.02-3.047-2.08.852-3.75Z" transform="translate(-32.58 -24.833)" fill="#211c50"/>
    <path id="Path_11739" data-name="Path 11739" d="M30.87,74.173V81.6s17.921,10.925,33.368-.693l-.45-7.251S50.993,85.056,30.87,74.173Z" transform="translate(-18.007 -24.299)" fill="#fff800"/>
    <path id="Path_11740" data-name="Path 11740" d="M47.925,86.283a32.552,32.552,0,0,1-6.36-.645A37.357,37.357,0,0,1,30.583,81.59l-.143-.083v-8.1l.429.229c10.3,5.545,18.61,5.15,23.763,3.812a23.087,23.087,0,0,0,8.828-4.27l.443-.4.5,8.013-.13.1a26.681,26.681,0,0,1-16.347,5.393Zm-16.9-5.123a37.09,37.09,0,0,0,10.7,3.9,27.321,27.321,0,0,0,22.093-4.547l-.4-6.516a24.206,24.206,0,0,1-8.582,4.034c-5.194,1.345-13.5,1.8-23.784-3.625Z" transform="translate(-17.87 -24.029)" fill="#211c50"/>
    <path id="Path_11741" data-name="Path 11741" d="M28.478,70.44l.266.3-2.168,2.017-.266-.291Z" transform="translate(-16.555 -23.311)" fill="#fff"/>
    <path id="Path_11742" data-name="Path 11742" d="M25.668,67.08l.245.319-.886,2.69,1.834-1.449.225.291-2.318,1.837-.245-.319.886-2.683-1.834,1.449-.225-.3Z" transform="translate(-15.613 -22.28)" fill="#fff"/>
    <path id="Path_11743" data-name="Path 11743" d="M22.209,67.208l-.484-.811a1.348,1.348,0,0,1-.278-1.16,1.326,1.326,0,0,1,.748-.92,1.3,1.3,0,0,1,1.153-.258,1.322,1.322,0,0,1,.893.785l.484.811ZM24.254,65.5l-.279-.464c-.218-.374-.457-.575-.682-.6a1.306,1.306,0,0,0-.838.243,1.233,1.233,0,0,0-.579.631,1.074,1.074,0,0,0,.2.908l.273.464Z" transform="translate(-14.997 -21.34)" fill="#fff"/>
    <path id="Path_11744" data-name="Path 11744" d="M22.624,62.11l.177.354L20.17,63.794,20,63.42Z" transform="translate(-14.547 -20.755)" fill="#fff"/>
    <path id="Path_11745" data-name="Path 11745" d="M21.04,58l.164.409-.682.693.45,1.116.954-.035.15.388-3.149.055-.157-.4Zm-.75,1.282-1.1,1.005,1.445-.049Z" transform="translate(-14.155 -19.494)" fill="#fff"/>
    <path id="Path_11746" data-name="Path 11746" d="M19.776,54.36l.1.388-1.827,2.135,2.236-.624.1.36-2.836.8-.109-.4,1.834-2.135-2.243.624-.1-.36Z" transform="translate(-13.573 -18.377)" fill="#fff"/>
    <path id="Path_11747" data-name="Path 11747" d="M18.911,48.5l.055.52L17.6,50.24l.491.409,1.016-.118.041.4-2.924.333-.041-.4,1.452-.166-1.609-1.282L16,48.888l1.363,1.1Z" transform="translate(-13.273 -16.579)" fill="#fff"/>
    <path id="Path_11748" data-name="Path 11748" d="M18.911,44.56V45l-.866.347V46.6l.893.333v.416L16,46.21v-.423Zm-1.207.908L16.341,46l1.363.5Z" transform="translate(-13.273 -15.37)" fill="#fff"/>
    <path id="Path_11749" data-name="Path 11749" d="M16.266,40.25l1.568,1.386,1.234.139-.041.4-1.234-.139L16,42.981l.055-.478,1.438-.742-1.254-1.033Z" transform="translate(-13.273 -14.048)" fill="#fff"/>
    <path id="Path_11750" data-name="Path 11750" d="M20.024,36.85l-.1.437-.948.146-.266,1.22.8.52-.089.409L16.8,37.82l.089-.416Zm-1.363.631-1.445.215,1.227.783Z" transform="translate(-13.528 -13.005)" fill="#fff"/>
    <path id="Path_11751" data-name="Path 11751" d="M21.115,32.771l-.164.5L19.22,33.8l.279.582.968.333-.13.374-2.788-.95.13-.374,1.363.471-.9-1.858.164-.506.757,1.58Z" transform="translate(-13.767 -11.477)" fill="#fff"/>
    <path id="Path_11752" data-name="Path 11752" d="M21.893,31.691l-.157.367L19.01,30.887l.157-.367Z" transform="translate(-14.231 -11.063)" fill="#fff"/>
    <path id="Path_11753" data-name="Path 11753" d="M23.448,27.716l-.184.36-2.774.284,2.045,1.1-.17.333-2.6-1.386.191-.36,2.768-.284-2.045-1.1.17-.333Z" transform="translate(-14.47 -9.777)" fill="#fff"/>
    <path id="Path_11754" data-name="Path 11754" d="M25.438,25.045a1.362,1.362,0,0,1-.927.61,1.5,1.5,0,0,1-1.132-.312,1.559,1.559,0,0,1-.682-.964,1.4,1.4,0,0,1,.239-1.1,1.478,1.478,0,0,1,.716-.589.934.934,0,0,1,.791.069l-.232.34a.558.558,0,0,0-.511-.049,1.082,1.082,0,0,0-.484.416.948.948,0,0,0-.164.8,1.308,1.308,0,0,0,.559.742,1.26,1.26,0,0,0,.879.27.932.932,0,0,0,.682-.43,1.131,1.131,0,0,0,.2-1.033l-.375-.243-.443.645L24.259,24l.682-.964,1.234.873-.157.229-.314-.1a1.207,1.207,0,0,1-.266,1Z" transform="translate(-15.397 -8.644)" fill="#fff"/>
    <path id="Path_11755" data-name="Path 11755" d="M29.868,19.645v.388l-.409-.042a1.257,1.257,0,0,1-.409.9.941.941,0,0,1-.641.312.8.8,0,0,1-.62-.243.7.7,0,0,1-.225-.457,1.831,1.831,0,0,1,.068-.659,1.153,1.153,0,0,1-.682-.229.622.622,0,0,1-.191-.485.782.782,0,0,1,.232-.52.677.677,0,0,1,.47-.222.631.631,0,0,1,.641.561,1.719,1.719,0,0,1-.061.555l.941.09a1.45,1.45,0,0,0-.286-.423l.273-.284a1.816,1.816,0,0,1,.423.742Zm-2.127-.2a1.183,1.183,0,0,0,.048-.381.384.384,0,0,0-.123-.256.3.3,0,0,0-.245-.1.291.291,0,0,0-.232.1.377.377,0,0,0-.109.243.321.321,0,0,0,.1.236.675.675,0,0,0,.409.146Zm1.363.513-1.145-.111a1.613,1.613,0,0,0-.055.471.516.516,0,0,0,.15.312.588.588,0,0,0,.389.166.527.527,0,0,0,.4-.166.875.875,0,0,0,.252-.672Z" transform="translate(-16.698 -7.341)" fill="#fff"/>
    <path id="Path_11756" data-name="Path 11756" d="M33.581,16.67a1.246,1.246,0,0,1-1.043.27,1.569,1.569,0,0,1-.961-.693,1.64,1.64,0,0,1-.368-1.13,1.3,1.3,0,0,1,.545-.943,1.275,1.275,0,0,1,.811-.284.914.914,0,0,1,.682.319l-.32.243a.582.582,0,0,0-.457-.208.989.989,0,0,0-.92.88,1.337,1.337,0,0,0,.348.922,1.366,1.366,0,0,0,.736.561.848.848,0,0,0,.743-.18.886.886,0,0,0,.348-.478.7.7,0,0,0-.1-.541l.32-.243a1.04,1.04,0,0,1,.143.818A1.384,1.384,0,0,1,33.581,16.67Z" transform="translate(-18.114 -5.96)" fill="#fff"/>
    <path id="Path_11757" data-name="Path 11757" d="M38.323,13.765l-.375.229-.763-.61-1.05.638.177.95-.354.215-.518-3.161.361-.215Zm-1.363-.589-1.138-.929.266,1.449Z" transform="translate(-19.462 -5.322)" fill="#fff"/>
    <path id="Path_11758" data-name="Path 11758" d="M41.559,11.9l-.361.166-2.345-1.525.934,2.156-.334.153L38.26,10.12l.368-.166,2.345,1.525-.941-2.156.341-.153Z" transform="translate(-20.359 -4.512)" fill="#fff"/>
    <path id="Path_11759" data-name="Path 11759" d="M43.941,8.041a1.343,1.343,0,0,1,1.084.111,1.545,1.545,0,0,1,.682.964,1.6,1.6,0,0,1-.055,1.185,1.426,1.426,0,0,1-1.943.6,1.552,1.552,0,0,1-.682-.957,1.548,1.548,0,0,1,.061-1.192A1.369,1.369,0,0,1,43.941,8.041Zm.777,2.641a.945.945,0,0,0,.6-.52,1.267,1.267,0,0,0,0-.929,1.248,1.248,0,0,0-.518-.769.9.9,0,0,0-.777-.1.952.952,0,0,0-.607.52,1.324,1.324,0,0,0,0,.936,1.248,1.248,0,0,0,.518.762.921.921,0,0,0,.784.1Z" transform="translate(-21.848 -4.145)" fill="#fff"/>
    <path id="Path_11760" data-name="Path 11760" d="M50.2,9.7l-2.154.381L47.53,7.134l2.093-.374.061.354-1.711.305.157.894,1.6-.284.061.347-1.6.284.17,1.04,1.779-.319Z" transform="translate(-23.31 -3.773)" fill="#fff"/>
    <path id="Path_11761" data-name="Path 11761" d="M52.5,9.565h-.389L51.83,6.592l.389-.042Z" transform="translate(-24.679 -3.708)" fill="#fff"/>
    <path id="Path_11762" data-name="Path 11762" d="M56.026,9.415h-.4L54.049,7.085V9.442h-.368L53.64,6.448h.4L55.61,8.784V6.42h.368Z" transform="translate(-25.255 -3.668)" fill="#fff"/>
    <path id="Path_11763" data-name="Path 11763" d="M59.255,9.645a1.357,1.357,0,0,1-.975-.534,1.579,1.579,0,0,1-.286-1.13,1.584,1.584,0,0,1,.511-1.074,1.348,1.348,0,0,1,1.057-.312,1.46,1.46,0,0,1,.852.36.957.957,0,0,1,.307.735l-.4-.049a.6.6,0,0,0-.211-.478,1.053,1.053,0,0,0-.593-.229.917.917,0,0,0-.763.236,1.3,1.3,0,0,0-.368.853,1.293,1.293,0,0,0,.2.929.91.91,0,0,0,.682.4,1.066,1.066,0,0,0,.982-.319l.048-.451-.77-.083V8.14l1.193.118-.157,1.511h-.273l-.068-.326A1.137,1.137,0,0,1,59.255,9.645Z" transform="translate(-26.637 -3.718)" fill="#fff"/>
    <path id="Path_11764" data-name="Path 11764" d="M66.234,11.11l-.423-.118-.089-.977-1.166-.326-.545.79-.4-.111L65.485,7.79l.4.118Zm-.545-1.421-.136-1.476-.832,1.206Z" transform="translate(-28.429 -4.089)" fill="#fff"/>
    <path id="Path_11765" data-name="Path 11765" d="M68.894,12.054a1.367,1.367,0,0,1-.763-.61.985.985,0,0,1,0-.8l.348.139a.619.619,0,0,0,.075.561,1.065,1.065,0,0,0,.491.374.953.953,0,0,0,.539.069.424.424,0,0,0,.32-.27.414.414,0,0,0-.061-.416,3.261,3.261,0,0,0-.586-.471,1.587,1.587,0,0,1-.559-.555.7.7,0,0,1,0-.561.727.727,0,0,1,.484-.444,1.188,1.188,0,0,1,.791.069,1.325,1.325,0,0,1,.682.52.859.859,0,0,1-.014.735l-.354-.139c.1-.354-.068-.61-.484-.783a.873.873,0,0,0-.511-.069A.376.376,0,0,0,69,9.642a.316.316,0,0,0,0,.319,1.6,1.6,0,0,0,.429.367,5.634,5.634,0,0,1,.518.4.964.964,0,0,1,.266.4.7.7,0,0,1,0,.513.8.8,0,0,1-.511.485,1.155,1.155,0,0,1-.811-.062Z" transform="translate(-29.841 -4.471)" fill="#fff"/>
    <path id="Path_11766" data-name="Path 11766" d="M72.463,13.694A1.32,1.32,0,0,1,71.781,13a.992.992,0,0,1,.048-.8l.327.18a.661.661,0,0,0,0,.568,1.126,1.126,0,0,0,.45.423.868.868,0,0,0,.525.125.4.4,0,0,0,.348-.229.38.38,0,0,0,0-.416,3.107,3.107,0,0,0-.525-.534,1.658,1.658,0,0,1-.5-.617.661.661,0,0,1,.048-.561.73.73,0,0,1,.525-.388,1.183,1.183,0,0,1,.777.159,1.312,1.312,0,0,1,.6.589.823.823,0,0,1,0,.735l-.334-.18c.136-.333,0-.61-.4-.825a.9.9,0,0,0-.5-.132.388.388,0,0,0-.307.208.316.316,0,0,0,0,.319,1.962,1.962,0,0,0,.389.416,4.5,4.5,0,0,1,.47.451,1.017,1.017,0,0,1,.225.423.7.7,0,0,1-.082.506.772.772,0,0,1-.559.423A1.176,1.176,0,0,1,72.463,13.694Z" transform="translate(-31.01 -4.995)" fill="#fff"/>
    <path id="Path_11767" data-name="Path 11767" d="M77.786,13.409a1.347,1.347,0,0,1,.593.929,1.607,1.607,0,0,1-.307,1.151,1.528,1.528,0,0,1-.954.693,1.346,1.346,0,0,1-1.07-.236A1.389,1.389,0,0,1,75.455,15a1.593,1.593,0,0,1,.307-1.144,1.528,1.528,0,0,1,.954-.693,1.292,1.292,0,0,1,1.07.243Zm-1.547,2.253a.888.888,0,0,0,.77.159,1.223,1.223,0,0,0,.729-.568,1.276,1.276,0,0,0,.273-.887.98.98,0,0,0-.409-.693.908.908,0,0,0-.777-.159,1.25,1.25,0,0,0-.736.561,1.312,1.312,0,0,0-.266.908A.959.959,0,0,0,76.239,15.662Z" transform="translate(-32.196 -5.729)" fill="#fff"/>
    <path id="Path_11768" data-name="Path 11768" d="M79.63,18.816a1.283,1.283,0,0,1-.47-.984,1.868,1.868,0,0,1,1.479-1.684,1.269,1.269,0,0,1,1.016.367,1.328,1.328,0,0,1,.436.749.983.983,0,0,1-.17.776l-.3-.27a.625.625,0,0,0,.116-.5.9.9,0,0,0-.3-.534.884.884,0,0,0-.729-.25,1.319,1.319,0,0,0-.784.492,1.4,1.4,0,0,0-.4.839.886.886,0,0,0,.32.693.9.9,0,0,0,.525.25.676.676,0,0,0,.5-.2l.293.27a.967.967,0,0,1-.757.333,1.231,1.231,0,0,1-.784-.347Z" transform="translate(-33.379 -6.651)" fill="#fff"/>
    <path id="Path_11769" data-name="Path 11769" d="M81.986,21.051l-.266-.291,2.134-2.08.266.284Z" transform="translate(-34.194 -7.43)" fill="#fff"/>
    <path id="Path_11770" data-name="Path 11770" d="M84.191,24.14l-.273-.367.477-.846-.777-.97-.9.319-.259-.326,3-.95.259.333Zm.368-1.476.729-1.289-1.363.485Z" transform="translate(-34.429 -8.142)" fill="#fff"/>
    <path id="Path_11771" data-name="Path 11771" d="M88.7,25.387l-.532-.832L86,26l-.211-.333,2.188-1.442-.525-.818.293-.194,1.268,1.982Z" transform="translate(-35.489 -8.82)" fill="#fff"/>
    <path id="Path_11772" data-name="Path 11772" d="M87.341,28.695l-.191-.333,2.577-1.442.184.347Z" transform="translate(-35.922 -9.958)" fill="#fff"/>
    <path id="Path_11773" data-name="Path 11773" d="M91.321,29.827a1.408,1.408,0,0,1,0,1.109,1.54,1.54,0,0,1-.818.825,1.477,1.477,0,0,1-1.166.09,1.312,1.312,0,0,1-.791-.783,1.408,1.408,0,0,1,0-1.116,1.727,1.727,0,0,1,2.018-.915,1.335,1.335,0,0,1,.757.79Zm-2.5,1.109a.947.947,0,0,0,.579.548,1.249,1.249,0,0,0,.913-.1,1.289,1.289,0,0,0,.682-.617.985.985,0,0,0,0-.8.947.947,0,0,0-.579-.548,1.475,1.475,0,0,0-1.6.721A.957.957,0,0,0,88.819,30.936Z" transform="translate(-36.33 -10.585)" fill="#fff"/>
    <path id="Path_11774" data-name="Path 11774" d="M90.375,36.342l-.116-.388,1.772-2.19-2.222.693L89.7,34.1l2.815-.866.116.388L90.859,35.8l2.222-.693.1.36Z" transform="translate(-36.734 -11.894)" fill="#fff"/>
    <path id="Path_11775" data-name="Path 11775" d="M90.694,39.015a.825.825,0,0,1-.436,0,.352.352,0,0,1-.218-.27l.191-.042c0,.132.17.173.423.118l-.048-.2.4-.09.089.409Z" transform="translate(-36.842 -13.52)" fill="#fff"/>
    <path id="Path_11776" data-name="Path 11776" d="M91.741,45.5v-.409L94,43.43l-2.318.1v-.374l2.9-.152v.4L92.341,45.08l2.325-.1v.374Z" transform="translate(-37.364 -14.892)" fill="#fff"/>
    <path id="Path_11777" data-name="Path 11777" d="M91.53,49.675l.15-2.225,2.931.208-.143,2.156h-.354l.123-1.761-.893-.062-.13,1.622h-.348l.116-1.643-1-.069-.136,1.8Z" transform="translate(-37.316 -16.257)" fill="#fff"/>
    <path id="Path_11778" data-name="Path 11778" d="M93.407,55.57,90.68,54.184l.075-.367,2.645-.187L91.034,52.4l.075-.367,3.047-.215-.082.409-2.468.1,2.215,1.144-.1.471-2.474.173,2.229,1.068Z" transform="translate(-37.046 -17.598)" fill="#fff"/>
    <path id="Path_11779" data-name="Path 11779" d="M92.288,59.349l-.341.88a1.48,1.48,0,0,1-1.158,1.025,1.461,1.461,0,0,1-1.425-.58,1.518,1.518,0,0,1-.144-1.554l.348-.88Zm-2.549-.582-.2.506a1.084,1.084,0,0,0-.048.88,1.367,1.367,0,0,0,.682.534,1.188,1.188,0,0,0,.838.09,1.075,1.075,0,0,0,.593-.693l.2-.506Z" transform="translate(-36.533 -19.568)" fill="#fff"/>
    <path id="Path_11780" data-name="Path 11780" d="M86.64,64.132l1.043-1.962,2.584,1.386-1.009,1.9L88.93,65.3l.825-1.553-.791-.437-.716,1.456-.307-.173.77-1.449-.879-.485-.852,1.615Z" transform="translate(-35.76 -20.773)" fill="#fff"/>
    <path id="Path_11781" data-name="Path 11781" d="M84.75,67.092l1.023-1.532L88.2,67.251l-.218.326-2.14-1.483-.8,1.206Z" transform="translate(-35.158 -21.813)" fill="#fff"/>
    <path id="Path_11782" data-name="Path 11782" d="M82.22,70.025l.252-.305,1.057.908.988-1.171-1.084-.922.252-.305,2.27,1.92-.245.3-.913-.776-1,1.171.92.8-.252.3Z" transform="translate(-34.353 -22.633)" fill="#fff"/>
    <path id="Path_11783" data-name="Path 11783" d="M81.13,71.764l.273-.284,2.086,2.08-.279.284Z" transform="translate(-34.006 -23.63)" fill="#fff"/>
    <path id="Path_11784" data-name="Path 11784" d="M46.9,86.924h-.75V83.34h.75Z" transform="translate(-22.871 -27.269)"/>
    <path id="Path_11785" data-name="Path 11785" d="M48.436,87.35a.385.385,0,0,1,.286.118.42.42,0,0,1,.116.3.4.4,0,0,1-.688.3.463.463,0,0,1,0-.6A.385.385,0,0,1,48.436,87.35Z" transform="translate(-23.473 -28.499)"/>
    <path id="Path_11786" data-name="Path 11786" d="M51.036,85.593l-.307.388v.943H50V83.34h.757v1.58l.259-.458L51.7,83.34h.893l-1.05,1.587,1.05,2H51.7Z" transform="translate(-24.096 -27.269)"/>
    <path id="Path_11787" data-name="Path 11787" d="M54.506,87.35a.385.385,0,0,1,.286.118.42.42,0,0,1,.116.3.4.4,0,0,1-.688.3.463.463,0,0,1,0-.6A.385.385,0,0,1,54.506,87.35Z" transform="translate(-25.405 -28.499)"/>
    <path id="Path_11788" data-name="Path 11788" d="M58.514,85.676a1.446,1.446,0,0,1-.177.659,1.182,1.182,0,0,1-.45.451,1.4,1.4,0,0,1-.682.153,1.158,1.158,0,0,1-.968-.457,2.106,2.106,0,0,1-.341-1.331v-.173a2.392,2.392,0,0,1,.164-.922,1.342,1.342,0,0,1,.457-.61,1.139,1.139,0,0,1,.682-.215,1.235,1.235,0,0,1,.913.34,1.461,1.461,0,0,1,.4.95h-.75a.7.7,0,0,0-.15-.471A.526.526,0,0,0,57.2,83.9a.435.435,0,0,0-.409.243,1.66,1.66,0,0,0-.143.8V85.2a1.978,1.978,0,0,0,.123.818.435.435,0,0,0,.429.25.506.506,0,0,0,.4-.146.623.623,0,0,0,.15-.444Z" transform="translate(-25.971 -27.234)"/>
    <path id="Path_11789" data-name="Path 11789" d="M60.682,87.35a.385.385,0,0,1,.279.118.392.392,0,0,1,.116.3.378.378,0,0,1-.116.3.4.4,0,0,1-.566,0,.442.442,0,0,1,0-.6.385.385,0,0,1,.286-.118Z" transform="translate(-27.369 -28.499)"/>
    <path id="Path_11790" data-name="Path 11790" d="M63.868,86.271H62.832l-.177.693h-.8L63,83.38h.682l1.152,3.584h-.784Zm-.852-.693H63.7l-.334-1.241Z" transform="translate(-27.868 -27.281)"/>
    <path id="Path_11791" data-name="Path 11791" d="M67.016,87.35a.385.385,0,0,1,.286.118.42.42,0,0,1,.116.3.4.4,0,0,1-.688.3.463.463,0,0,1,0-.6A.385.385,0,0,1,67.016,87.35Z" transform="translate(-29.387 -28.499)"/>
    <path id="Path_11792" data-name="Path 11792" d="M33.552,40.5c2.829-.166,6.217.347,9.612.326a5.712,5.712,0,0,0,.975,0c1.452-.263,1.759-1.081.757-2.35-1.5-1.906-2.965-3.937-5.3-4.36-.682-.111-.825-.86-1.234-1.3-1.063-1.151-2.14-2.281-3.183-3.466-.682-.763-.525-1.275.368-1.622a1.974,1.974,0,0,1,1.97.478,23.333,23.333,0,0,1,3.722,4.02c.879,1.054,1.752,2.128,2.686,3.112.682.735,1.432,1.206,2.474.568.811-.5,1.043-.88.62-1.9a1.453,1.453,0,0,1,.266-1.747c.579-.423,1.22-.873,1.936-.34.545.409,1.3.735,1.091,1.726-.252,1.2.2,1.386,1.009,1.615A3.569,3.569,0,0,1,53.8,38.028c.573,2.419,1.145,2.773,3.238,2.773a81.459,81.459,0,0,1,9.38.1c.491.062,1.077.069,1,.9a1.006,1.006,0,0,1-.322.768.971.971,0,0,1-.783.251c-3.293.055-6.571.693-9.877.215-.409-.062-.743.118-.682.693,0,.4.5.853.041,1.178a1.346,1.346,0,0,1-1.513.229c-.443-.243-.818-.4-.954.492a1.6,1.6,0,0,1-2.236,1.3c-1.1-.319-2.236-1.3-3.531-1.47-1.043-.146-1.977-.575-2.768.735-.416.693-1.016.326-1.534-.069-1.036-.811-2.113-1.262-3.34-.548-.436.256-.77.43-.307,1.026.13.166.389.3.143.561a.559.559,0,0,1-.45.125,2.257,2.257,0,0,1-1.363-.977.547.547,0,0,1-.12-.482.538.538,0,0,1,.318-.378,4.452,4.452,0,0,1,4.717-.575c.511.215.92.451,1.479,0,2.045-1.615,3.974-.333,5.9.52.341.153.682.374,1,.548.845.451,1.227-.146,1.363-1.019s-.136-1.317-.975-1.435c-2.672-.36-5.317.208-7.976.243l-13.006.139a4.677,4.677,0,0,1-2.883-2.551c-.157-.908.416-.8.852-.811C30.048,40.489,31.514,40.5,33.552,40.5Z" transform="translate(-17.008 -10.176)" fill="#fcfbfb"/>
    <path id="Path_11793" data-name="Path 11793" d="M56.306,65.8c.866.652,1.459,1.442,2.42,1.65-2.427.95-4.615,2.884-7.342,1.608a29.383,29.383,0,0,1,2.986-.4,5.621,5.621,0,0,0,1.6-.617.645.645,0,0,0,.464-.756.486.486,0,0,0-.215-.338.47.47,0,0,0-.392-.057c-3.442.943-6.762-1.476-10.137-.6-1.466.381-2.924.388-4.363.693a5.249,5.249,0,0,1-3-.333c.682-.617.818-1.213.048-1.574,2.113-1.386,4.09-.984,5.951.423.423.319.873.152,1.316.194,2.086.208,4.2-.437,6.265.326.225.076.682,0,.579-.25-.218-.652.729-1.123.116-1.74a1.575,1.575,0,0,0-.307-.222c-.464-.263-1.077-.693-.9-1.255s.92-.492,1.438-.291c.811.326,1.684-.1,2.495.4a2.159,2.159,0,0,1,.682.693,1.976,1.976,0,0,1-1.316.25c-.314,0-.62.132-.62.513s.3.416.573.423.791.222,1.091.062c2.113-1.109,4.349.957,6.462-.582-.389.984-1.152,1.338-1.575,2.08-.2.36-.477,0-.736-.159a3.855,3.855,0,0,0-3.586-.139Zm-16.681-.1a1.5,1.5,0,0,0,1.363-.1A1.344,1.344,0,0,0,39.625,65.7Z" transform="translate(-20.381 -20.758)" fill="#fcfbfb"/>
    <path id="Path_11794" data-name="Path 11794" d="M38.31,61.64c.866-.506,1.445-1.456,2.611-.527.559.451,1.363-.582,1.67-1.532-.682-.548-1.493.568-2.168-.236,1.479-1.386,2.154-1.386,3.306.1.273.347.45.222.729.132a6.293,6.293,0,0,1,1.922-.36c.545,0,.845.43,1.063.846.307.568-.245,1.04-.457,1.386-.279.457-.913.52-1.084-.34-.082-.444.177-1.074-.484-1.081s-.389.534-.464.957a1.739,1.739,0,0,1-1.963,1.123,10.886,10.886,0,0,0-3.7-.152C38.971,61.966,38.658,62.174,38.31,61.64Z" transform="translate(-20.375 -19.592)" fill="#fcfbfb"/>
    <path id="Path_11795" data-name="Path 11795" d="M72.79,57.219a8.932,8.932,0,0,1-.982-.8,1.072,1.072,0,0,1-.32-1.047.715.715,0,0,1,.8-.513H74.14c-.055.125-.068.236-.109.256-.477.236-1.363-.18-1.322.8.068.8.9.256,1.363.416a1.945,1.945,0,0,0,.464.049c-.089.326-.239.457-.45.5-.682.153-.77.492-.15.936.477.347.416.693,0,.97a3.082,3.082,0,0,1-1.984.492c-.109,0-.293-.09-.314-.18-.354-1.858-1.363-.866-2.127-.693s-1.766-.326-2.727.818a7.167,7.167,0,0,1,3.408,1.3c-1.261.936-2.549.617-3.8.506-.211,0-.368-.263-.225-.659A11.31,11.31,0,0,1,67.439,57.6c.307-.423.518-.187.825-.152A11.8,11.8,0,0,0,72.79,57.219Z" transform="translate(-29.224 -18.526)" fill="#fcfbfb"/>
    <path id="Path_11796" data-name="Path 11796" d="M59.129,59.041a1.844,1.844,0,0,1-1.841.887c-1.07-.125-2.106-.125-2.8,1.13-.041.076-.136.1-.2.159a1.753,1.753,0,0,1-1.929.5c-.15-.062-.368-.229-.266-.4a4.135,4.135,0,0,1,1.4-1.567c.552-.305,1.145-.5,1.7-.783.266-.139.682,0,.511-.818-.109-.693.743-.492.988-.291A6.4,6.4,0,0,0,59.129,59.041Z" transform="translate(-24.752 -19.391)" fill="#fcfbfb"/>
    <path id="Path_11797" data-name="Path 11797" d="M34.521,55.076c-.307.769-.832.409-1.213.423a34.952,34.952,0,0,1-3.511-.076c-.191,0-.45,0-.457-.3s.225-.284.436-.27C31.33,54.9,32.905,54.313,34.521,55.076Z" transform="translate(-17.52 -18.476)" fill="#fcfbfb"/>
    <path id="Path_11798" data-name="Path 11798" d="M50.87,64.767l3.79-.347A2.733,2.733,0,0,1,50.87,64.767Z" transform="translate(-24.373 -21.464)" fill="#fcfbfb"/>
    <path id="Path_11799" data-name="Path 11799" d="M30.16,59.9c1.363-1.3,2.652,0,3.988.118C32.812,60.361,31.5,59.848,30.16,59.9Z" transform="translate(-17.781 -19.9)" fill="#fcfbfb"/>
    <path id="Path_11800" data-name="Path 11800" d="M48.024,70.763c.055.769-.327.853-.682.8s-1.05-.111-.975-.8.682-.451,1.118-.513S48.16,70.222,48.024,70.763Z" transform="translate(-22.938 -23.245)" fill="#fcfbfb"/>
    <path id="Path_11801" data-name="Path 11801" d="M81.861,56.14c-.279,1.5-.866,1.636-2.161.478.682-.457,1.534.118,2.188-.437Z" transform="translate(-33.551 -18.923)" fill="#fcfbfb"/>
    <path id="Path_11802" data-name="Path 11802" d="M36.114,64.886c-.988.451-1.656-.319-2.29.166a.433.433,0,0,1-.259-.2.444.444,0,0,1,.314-.527C34.587,64.02,35.174,64.457,36.114,64.886Z" transform="translate(-18.861 -21.403)" fill="#fcfbfb"/>
    <path id="Path_11803" data-name="Path 11803" d="M82.858,55.674c.13-.381-.464-.991.239-1.171.334-.083.614.173.879.4a.34.34,0,0,1,.143.225.344.344,0,0,1-.061.26c-.2.36-.5.18-.763.2a1.488,1.488,0,0,0-.464.049Z" transform="translate(-34.52 -18.416)" fill="#fcfbfb"/>
    <path id="Path_11804" data-name="Path 11804" d="M52.64,71.741a3.331,3.331,0,0,1,2.543.34A4.292,4.292,0,0,1,52.64,71.741Z" transform="translate(-24.937 -23.682)" fill="#fcfbfb"/>
  </g>
</svg>
