<svg xmlns="http://www.w3.org/2000/svg" width="66.9" height="69.381" viewBox="0 0 66.9 69.381">
  <g id="Indian_Triathlon_Federation" data-name="Indian Triathlon Federation" transform="translate(0)">
    <path id="Path_12797" data-name="Path 12797" d="M29.713,3.272c.343-.2.816-.066,1.216-.315a.562.562,0,0,1,.269,0,14.82,14.82,0,0,1,2.269-.149,3.35,3.35,0,0,1,1.689-.158,22.786,22.786,0,0,1,3.012,0A16.452,16.452,0,0,1,40,2.816a9.042,9.042,0,0,1,1.143.133c.326.133.751.066,1.077.266a.1.1,0,0,0,.082,0,3.288,3.288,0,0,1,1.2.2,2.3,2.3,0,0,1,.9.241c.2.124.5.05.735.191a3.327,3.327,0,0,0,.971.274c.522.124.979.382,1.485.548a6.722,6.722,0,0,1,.971.382,6.864,6.864,0,0,0,.9.373,9.228,9.228,0,0,1,2.032.979c.539.365,1.167.573,1.681.988a3.588,3.588,0,0,0,.922.564,2.5,2.5,0,0,1,.612.415,5.475,5.475,0,0,0,.988.7,3.56,3.56,0,0,1,.669.539,17.066,17.066,0,0,0,1.4,1.2,40.367,40.367,0,0,1,2.946,2.921,15.43,15.43,0,0,1,1.183,1.361q.5.615.93,1.278c.294.44.628.83.9,1.311a7.53,7.53,0,0,0,.816,1.187,2.386,2.386,0,0,1,.375.7c.131.357.408.622.539.988a10.644,10.644,0,0,0,.547,1.1c.237.473.465.946.694,1.427a9.817,9.817,0,0,0,.384.913,12.778,12.778,0,0,1,.6,1.56,3.723,3.723,0,0,1,.375,1.328,1.04,1.04,0,0,0,.229.639.227.227,0,0,1,.057.2,1.806,1.806,0,0,0,.269.946.143.143,0,0,1,0,.091,1.684,1.684,0,0,0,.188,1.079c.147.349,0,.764.253,1.054a.051.051,0,0,1,0,.058,5.649,5.649,0,0,0,.2,1.61,7.752,7.752,0,0,0,.147,1.71,6.056,6.056,0,0,1,.139,1.942v3.535c0,.149.065.332-.139.423v.108a.514.514,0,0,0,0,.158c.106.83-.18,1.552-.139,2.332-.351.349,0,.871-.31,1.228a.109.109,0,0,0,0,.091,6.534,6.534,0,0,1-.277,1.32,5.889,5.889,0,0,1-.229.946,5.362,5.362,0,0,1-.2.888,3.358,3.358,0,0,0-.229.689,1.594,1.594,0,0,1-.245.681c-.122.149-.073.357-.147.531a1.352,1.352,0,0,0-.2.672c0,.158-.114.232-.171.34a5.944,5.944,0,0,0-.4,1.029,12.9,12.9,0,0,1-.694,1.552c-.269.573-.563,1.129-.816,1.66a7.326,7.326,0,0,1-.6,1.029c-.237.332-.424.705-.637,1.037s-.62.83-.9,1.32c-.147.232-.335.473-.482.714-.277.432-.677.747-.93,1.2-.171.315-.547.5-.751.83a19.877,19.877,0,0,1-2.342,2.49,14.888,14.888,0,0,1-1.371,1.228,14.5,14.5,0,0,1-1.371,1.1,11.858,11.858,0,0,1-1.306.9,2.863,2.863,0,0,0-.539.373,6.892,6.892,0,0,1-1.012.664c-.335.183-.628.423-.988.581-.6.257-1.159.573-1.738.83a6.284,6.284,0,0,1-1.077.548,4.507,4.507,0,0,1-1.053.4c-.139,0-.2.124-.318.166-.49.174-.979.324-1.461.5s-.751.282-1.118.4a6.867,6.867,0,0,1-.881.216,3.134,3.134,0,0,0-.922.257h-.049c-.367-.058-.669.216-1.045.191a4.387,4.387,0,0,0-1.232.183,7.4,7.4,0,0,0-.89.133,18.34,18.34,0,0,1-2,.158,28.588,28.588,0,0,1-4.13.141c-.555-.29-1.183,0-1.738-.191a11.029,11.029,0,0,1-1.2-.149c-.384-.149-.735,0-1.045-.257a.241.241,0,0,0-.147,0,2.227,2.227,0,0,1-1.192-.183c-.5-.149-1-.224-1.494-.407a4.612,4.612,0,0,0-.816-.2A3.138,3.138,0,0,1,26,70.4a12.7,12.7,0,0,1-1.371-.465c-.408-.191-.816-.307-1.241-.531-.261-.149-.579-.224-.857-.373-.465-.257-.955-.49-1.436-.73a11.083,11.083,0,0,1-1.4-.714c-.335-.224-.694-.4-1.028-.631a3.519,3.519,0,0,0-.71-.465,1.991,1.991,0,0,1-.5-.349c-.408-.349-.873-.581-1.281-.921-.645-.539-1.273-1.1-1.918-1.66a34.432,34.432,0,0,1-2.971-2.93,8.128,8.128,0,0,1-.816-.954c-.326-.5-.759-.913-1.061-1.411s-.645-.83-.9-1.32c-.122-.224-.3-.465-.457-.689a4.164,4.164,0,0,1-.588-.988c-.073-.207-.277-.34-.367-.573a10.86,10.86,0,0,0-.555-1.112c-.237-.473-.482-.938-.686-1.427s-.53-.83-.547-1.295c0-.124-.114-.183-.171-.282-.245-.473-.294-1.021-.563-1.5a3.358,3.358,0,0,1-.229-.689c-.065-.216-.049-.5-.237-.681a.193.193,0,0,1-.049-.133,1.949,1.949,0,0,0-.294-1,.3.3,0,0,1,0-.091,3,3,0,0,0-.3-1.187h0a2.257,2.257,0,0,0-.2-1.2c-.139-.423.049-.9-.261-1.27v-.116a14.223,14.223,0,0,1-.163-2.1,9.648,9.648,0,0,1-.147-2.946,19,19,0,0,1,0-2.971,12.9,12.9,0,0,1,.155-1.867A5.5,5.5,0,0,1,3,31.8c.171-.357,0-.772.277-1.079h0c-.09-.382.155-.714.18-1.079a2.766,2.766,0,0,1,.294-1.112v-.05c-.106-.349.163-.631.188-.963a1.419,1.419,0,0,1,.22-.689,1.235,1.235,0,0,0,.18-.581,3.593,3.593,0,0,1,.229-.672,7.972,7.972,0,0,1,.318-.9,6.222,6.222,0,0,0,.433-1.145,4.056,4.056,0,0,1,.359-.681,3.16,3.16,0,0,0,.277-.705,2.447,2.447,0,0,1,.384-.755c.3-.539.571-1.1.873-1.66.2-.34.384-.7.612-1.021a2.5,2.5,0,0,0,.457-.722,1.66,1.66,0,0,1,.335-.481,4.988,4.988,0,0,0,.449-.7c.163-.324.514-.506.6-.83a.166.166,0,0,1,.049-.075,9.2,9.2,0,0,0,1.192-1.4,37.627,37.627,0,0,1,3.265-3.4,5.053,5.053,0,0,1,1.306-1.079,3.512,3.512,0,0,0,.645-.523c.3-.266.645-.473.947-.73a3.457,3.457,0,0,1,.686-.465,6.151,6.151,0,0,0,.579-.407c.547-.34,1.1-.681,1.673-.988.318-.166.6-.4.939-.556s.881-.49,1.338-.664a7.055,7.055,0,0,1,1.053-.5c.375-.075.677-.3,1.045-.4a3.954,3.954,0,0,0,.939-.39,2.54,2.54,0,0,1,.522-.166c.253-.066.482-.266.767-.2s.343-.116.482-.183c.294-.141.628-.05.906-.257s.441-.108.645-.141C28.978,3.4,29.28,3.156,29.713,3.272Zm32.4,54.06a.14.14,0,0,0,.106-.108h0c.114-.05.065-.166.082-.257l.1-.133c.1,0,.18,0,.188-.124a.117.117,0,0,0-.049-.1c-.114-.058-.155.058-.212.116a.211.211,0,0,0,0,.075c-.1,0-.2,0-.122.158h0l-.718.257c-.09,0-.2,0-.253.1h0a.107.107,0,0,0-.09.091c-.188.05-.408-.091-.563.108h-2.31c-.122-.2-.392,0-.5-.2s-.294-.05-.433-.108-.294-.042-.359-.216-.18-.116-.253-.116l-.18-.191a.117.117,0,0,0-.036-.085.113.113,0,0,0-.086-.031c-.057-.066-.139-.083-.2-.124a1.968,1.968,0,0,1-.816-.88.23.23,0,0,0-.18-.183l-.065-.058a.293.293,0,0,0-.082-.257h0L55,54.984c0-.091,0-.207-.114-.257s.065-.266-.122-.3,0-.274-.18-.315c-.073-.249.09-.523-.1-.755h0a.589.589,0,0,1-.073-.349V51.656c.2-.058.261-.158.1-.332l-.163-.174c-.049-.133-.171-.083-.261-.091-.122-.158-.245-.158-.359,0-.1,0-.212-.041-.269.091h0a.115.115,0,0,0-.1.083.388.388,0,0,0-.3.166c-.082.091-.155.191-.3.149s-.188-.124-.261,0c-.2.091-.343.282-.53.382-.563.307-1.151.589-1.706.921A17.973,17.973,0,0,0,48.7,53.8c-.131.1-.318.075-.416.241s-.082.133,0,.141c.2,0,.31.224.53.183s.588-.166.89-.216a.927.927,0,0,0,.441-.124c.294-.216.645-.166.955-.266a5.842,5.842,0,0,0,.9-.266,1.11,1.11,0,0,1,.816.141c.318.216.31.589.473.83a5.082,5.082,0,0,0,.4.83,4.738,4.738,0,0,1,.53.979,4.559,4.559,0,0,0,.539,1.054,4.812,4.812,0,0,1,.677,1.237c.253.564.637,1.046.873,1.61.049.108.139.2,0,.29s-.212,0-.318-.066-.122-.29-.237-.415a31.748,31.748,0,0,1-2.326-2.49,12.177,12.177,0,0,0-1.363-1.4c-.049-.058-.1-.133-.188-.141a11.708,11.708,0,0,1-1.322-.141c-1.151-.158-2.318.05-3.493-.149a15.155,15.155,0,0,0-2.448,0c-.114,0-.261.05-.326-.091s.082-.241.163-.332.318-.257.392-.423a3.646,3.646,0,0,1,.963-1.071.364.364,0,0,0,.4-.124c.147-.133.188-.332.3-.465A7.063,7.063,0,0,0,47.676,51.9a2.634,2.634,0,0,1,.686-.7c.245-.2.318-.515.547-.739a7.366,7.366,0,0,0,.914-1.054,12.853,12.853,0,0,0,1.371-1.735c.082-.174,0-.357.147-.506a.361.361,0,0,0-.057-.539.945.945,0,0,1-.3-.722c0-.274,0-.556,0-.83a1.972,1.972,0,0,1,.106-.647c.073-.2.245-.282.326-.448a2.629,2.629,0,0,1,.955-1.012c.139-.091.384-.149.408-.232.082-.249.237-.183.384-.191h.579l.18.191c0,.174.22.1.31.191s.057.183.139.257a.542.542,0,0,1,.2.382.783.783,0,0,1,.082.382c0,.556,0,1.1,0,1.66l-.073.05c-.122.058-.155.141-.049.249s0,.141-.065.2-.139,0-.1.108v.108a.141.141,0,0,0-.1.133c-.049.1-.155.149-.2.266a1.458,1.458,0,0,1-1,.83c-.09,0-.155,0-.09.108,0,.274-.277.357-.416.539s-.171.124-.163.241.645.573.775.515c.269-.133.6-.249.7-.539a7.162,7.162,0,0,1,.881-1.494,13.663,13.663,0,0,1,.955-1.5,2.034,2.034,0,0,0,.351-.515,8.84,8.84,0,0,1,.9-1.486q.326-.581.686-1.17c.073-.116.171-.3.351-.224s.318.166.253.332-.106.365-.171.523a7.474,7.474,0,0,0-.465,1.071c-.1.365-.351.681-.449,1.079a9.208,9.208,0,0,1-.482,1.1,8.732,8.732,0,0,1-.433,1.079,2.511,2.511,0,0,0-.359.83c0,.091-.171.183-.057.282a.322.322,0,0,0,.392,0,6.5,6.5,0,0,1,1.5-.83,4.32,4.32,0,0,1,1.289-.274h1.306a.958.958,0,0,1,.49.108,1.557,1.557,0,0,0,.571.191,1.343,1.343,0,0,1,.563.241c.384.224.71.539,1.077.788a2.87,2.87,0,0,1,.816,1,6.946,6.946,0,0,1,.53,1.2c.122.349.082.714.229,1.062a1.2,1.2,0,0,1-.114,1.178v.149c0,.05,0,.158.082.174s.065-.083.09-.133c.114-.241.212-.49.343-.722a11.949,11.949,0,0,0,.775-1.826c0-.133.18-.191.18-.349,0-.382.318-.656.359-1.046,0-.232.212-.423.277-.672s.114-.4.171-.589a2.663,2.663,0,0,0,.269-.888v-.207a1.434,1.434,0,0,0,.245-.656,11.094,11.094,0,0,0,.31-1.245c.057-.357.286-.705.171-1.1a.076.076,0,0,1,0-.083c.335-.357,0-.83.277-1.245.155-.274.057-.681.139-1.046a7.592,7.592,0,0,0,.155-1.776,33.805,33.805,0,0,0-.114-5.677,8.871,8.871,0,0,0,.008-1.2,6.914,6.914,0,0,1-.171-1.386c0-.407-.286-.78-.18-1.212v-.05c-.22-.249-.18-.589-.253-.871s-.277-.589-.18-.929a.1.1,0,0,0,0-.083c-.261-.241-.114-.606-.269-.9a5.087,5.087,0,0,1-.237-.681c-.073-.224-.155-.473-.22-.689a4.527,4.527,0,0,0-.22-.689c-.171-.34-.229-.722-.424-1.046a7.138,7.138,0,0,1-.359-.871c-.22-.473-.465-.946-.7-1.419a21.694,21.694,0,0,0-1.053-1.975c-.073-.116-.09-.257-.2-.365-.261-.282-.359-.672-.612-.979a6.456,6.456,0,0,0-.522-.78,3.045,3.045,0,0,1-.53-.747c-.171-.332-.482-.539-.637-.9s-.482-.564-.71-.88c-.367-.506-.816-.929-1.241-1.436a28.315,28.315,0,0,0-2.326-2.224c-.155-.149-.277-.373-.457-.44-.449-.183-.7-.614-1.1-.83a5.043,5.043,0,0,1-.906-.689,1.755,1.755,0,0,0-.5-.357A6.786,6.786,0,0,1,53.1,8.708c-.335-.241-.7-.44-1.045-.656s-.922-.473-1.387-.705a25.988,25.988,0,0,0-2.514-1.212c-.171-.066-.335-.141-.514-.2a1.475,1.475,0,0,1-.628-.191,5.2,5.2,0,0,0-1.436-.573c-.335-.124-.7-.224-1.053-.315s-.857-.2-1.281-.324-.93-.149-1.4-.315c-.294-.1-.628,0-.963-.149a6,6,0,0,0-1.036-.141,11.241,11.241,0,0,0-1.885-.166,17.885,17.885,0,0,0-4.366.133,19.4,19.4,0,0,0-2.2.166.417.417,0,0,0-.147,0,5.308,5.308,0,0,1-1.371.282c-.31.066-.628.174-.947.224a1.513,1.513,0,0,0-.62.141c-.253.207-.571.083-.816.257a4.417,4.417,0,0,1-1.077.324c-.506.149-1,.332-1.494.515-.09,0-.139.133-.261.133a4.038,4.038,0,0,0-1.036.39,10.274,10.274,0,0,0-1.412.755c-.473.241-.939.5-1.42.722-.31.141-.563.373-.865.506a6.852,6.852,0,0,0-.971.606c-.384.266-.759.564-1.151.788-.539.307-.947.78-1.477,1.087-.277.166-.473.44-.759.631-.424.29-.726.739-1.183,1.021a5.761,5.761,0,0,0-.669.672c-.7.631-1.241,1.411-1.893,2.091-.139.149-.343.266-.416.44-.2.456-.6.739-.816,1.145a5.146,5.146,0,0,1-.661.88,2.127,2.127,0,0,0-.359.539,8.855,8.855,0,0,1-.751,1.17c-.237.349-.408.739-.637,1.1a10.677,10.677,0,0,0-.571,1.1c-.229.473-.473.938-.677,1.411s-.375.772-.522,1.187A7.283,7.283,0,0,1,6,25.2a8.393,8.393,0,0,0-.335.963,2.625,2.625,0,0,1-.2.573,2.006,2.006,0,0,0-.229.664,3.432,3.432,0,0,0-.212.83,1.421,1.421,0,0,1-.147.523,2.863,2.863,0,0,0-.31.938c0,.39-.269.747-.171,1.154a.093.093,0,0,1,0,.058c-.253.315-.106.73-.261,1.087a7.132,7.132,0,0,0-.139,1,6.562,6.562,0,0,0-.155,1.66,42.708,42.708,0,0,0,.114,6.3,4.064,4.064,0,0,0,.114,1,8.559,8.559,0,0,1,.155,1.27,2.637,2.637,0,0,1,.188,1.22.177.177,0,0,0,0,.058c.22.324.139.722.261,1.079s.139.523.212.764a5.3,5.3,0,0,0,.277,1.029c.106.2.106.432.212.614a4.188,4.188,0,0,1,.253.606,5.786,5.786,0,0,0,.229.7c.155.324.253.672.392,1,.049.1.18.158.171.274a2.349,2.349,0,0,0,.375.963c.245.573.6,1.1.816,1.66a11.129,11.129,0,0,0,.865,1.6c.31.506.6,1.021.947,1.5s.612.9.922,1.336a17.658,17.658,0,0,0,1.232,1.577c.522.589,1.053,1.17,1.567,1.768s.93.83,1.371,1.278c.563.564,1.232,1.012,1.763,1.61a.411.411,0,0,0,.09.083,3.617,3.617,0,0,1,.955.689c.245.2.514.349.751.539a2.866,2.866,0,0,0,.482.349,7,7,0,0,1,.963.564c.4.249.816.506,1.208.73a23.142,23.142,0,0,0,3.265,1.56c.09,0,.139.133.253.141a5.871,5.871,0,0,1,1.045.39c.2.058.441.166.645.224.392.108.775.266,1.159.382a5.059,5.059,0,0,1,.979.274c.229.116.522.066.7.183a3.219,3.219,0,0,0,1.061.241,2.805,2.805,0,0,0,1.338.2.177.177,0,0,1,.09,0c.424.307.939.091,1.412.266s1.216-.1,1.8.191a18.155,18.155,0,0,0,3.673-.158,16.86,16.86,0,0,0,2.448-.166.683.683,0,0,0,.294,0,5.926,5.926,0,0,1,1.322-.257,8.2,8.2,0,0,0,.963-.232c.359-.141.743,0,1.085-.241a2.867,2.867,0,0,1,.816-.216c.465-.116.914-.324,1.379-.465a1.936,1.936,0,0,0,.522-.174,3.371,3.371,0,0,1,.841-.34c.49-.124.9-.4,1.355-.556a14.056,14.056,0,0,0,1.632-.83c.31-.158.579-.373.881-.523a7.14,7.14,0,0,0,1.241-.739c.326-.266.726-.39,1.053-.672s.661-.5.979-.755a6.213,6.213,0,0,1,.816-.622,10.647,10.647,0,0,0,1-.83c.645-.448,1.077-1.17,1.763-1.61a3.7,3.7,0,0,0,.751-.88A13.089,13.089,0,0,1,60.448,59.4c.171-.05.082-.257.2-.34h0a.124.124,0,0,0,.1-.108,3.963,3.963,0,0,0,.718-.9c.082,0,.122,0,.122-.124l.065-.058c.188,0,.1-.2.122-.3l.082-.066a.23.23,0,0,0,.171-.166ZM63.2,52.353a7.346,7.346,0,0,0-.122-1.112,3.906,3.906,0,0,0-.563-1.071A3.128,3.128,0,0,0,61.338,49.1a4.029,4.029,0,0,0-1.885-.523,3.763,3.763,0,0,0-1.1.207c-.163.05-.392.05-.49.158s-.514.34-.751.548a9.064,9.064,0,0,0-.669.714,3.457,3.457,0,0,0-.53,1.037c-.131.29-.049.606-.253.88a.631.631,0,0,0,0,.647c.188.282.122.606.253.9a3.014,3.014,0,0,0,.473.93,4.019,4.019,0,0,0,2.954,1.685,5.093,5.093,0,0,0,.939-.116,2.857,2.857,0,0,0,1.355-.6,3.879,3.879,0,0,0,1.428-1.942,1.861,1.861,0,0,0,.139-.7c-.016-.207,0-.34,0-.556Z" transform="translate(-2.649 -2.6)" fill="#ef8008"/>
    <path id="Path_12798" data-name="Path 12798" d="M66.27,51.9c.147,0,.171.1.171.207v1.718a.108.108,0,0,1-.082.116v-1.66a.782.782,0,0,0-.09-.382Z" transform="translate(-14.346 -10.986)" fill="#f5b773"/>
    <path id="Path_12799" data-name="Path 12799" d="M65.47,50.9c.1.075.335-.083.31.191C65.69,50.983,65.511,51.074,65.47,50.9Z" transform="translate(-14.199 -10.815)" fill="#f5b773"/>
    <path id="Path_12800" data-name="Path 12800" d="M66.265,54.42a.442.442,0,0,1-.049.249C66.109,54.561,66.142,54.478,66.265,54.42Z" transform="translate(-14.325 -11.414)" fill="#f5b773"/>
    <path id="Path_12801" data-name="Path 12801" d="M68.662,67.746c-.073,0-.122,0-.122-.116a.113.113,0,0,1,.086.031A.117.117,0,0,1,68.662,67.746Z" transform="translate(-14.764 -13.661)" fill="#f5b773"/>
    <path id="Path_12802" data-name="Path 12802" d="M66.126,55a.14.14,0,0,1-.1.108C66,55,66.045,55,66.126,55Z" transform="translate(-14.301 -11.513)" fill="#f5b773"/>
    <path id="Path_12803" data-name="Path 12803" d="M65.978,55.22c0,.1,0,.124-.1.133a.141.141,0,0,1,.1-.133Z" transform="translate(-14.275 -11.55)" fill="#f5b773"/>
    <path id="Path_12804" data-name="Path 12804" d="M74.37,68.51c0,.083,0,.133-.09.091A.107.107,0,0,1,74.37,68.51Z" transform="translate(-15.819 -13.811)" fill="#f5b773"/>
    <path id="Path_12805" data-name="Path 12805" d="M64.414,56.679l-.09.108C64.259,56.67,64.324,56.662,64.414,56.679Z" transform="translate(-13.984 -11.797)" fill="#f5b773"/>
    <path id="Path_12806" data-name="Path 12806" d="M64.888,61.12c0,.083,0,.133-.1.083A.115.115,0,0,1,64.888,61.12Z" transform="translate(-14.074 -12.554)" fill="#f5b773"/>
    <path id="Path_12807" data-name="Path 12807" d="M27.391,31.867a1.335,1.335,0,0,1,.375-.4c.1,0,.18,0,.163-.149s-.049-.174.073-.207c.073.116.155.133.261,0,.563-.581,1.126-1.145,1.689-1.71.114-.116.114-.207,0-.307,0-.1.1-.083.171-.058s.155.133.433-.116c.131-.108.09-.183,0-.266a.067.067,0,0,1,0-.058.454.454,0,0,0,.547-.241c.049-.1.122-.207.245-.2s.18-.116.188-.241.147-.183.277-.166.131,0,.131-.1l.18-.2c.106,0,.229.075.261-.1h0c.131-.041.343.058.351-.2h0c.1,0,.229.058.261-.1h0a.114.114,0,0,0,.114-.083h.106c.1,0,.131,0,.131-.116h0c.1,0,.22.058.261-.1h0a.131.131,0,0,0,.122-.091h.139c.082.091.155.108.212,0l.057-.075c.139,0,.335.041.351-.2h.294c.09,0,.131,0,.139-.1h0c.139-.041.326.091.433-.116h0a.139.139,0,0,0,.131-.1h.229a1.5,1.5,0,0,1,.735-.1c.065,0,.114,0,.131-.1h0c.2-.141.465,0,.677-.108l.147-.1h.963c.082,0,.188,0,.22-.091h0a.95.95,0,0,1,.253-.066h2.293a1.006,1.006,0,0,1,.261.066h0c.049.158.188.091.286.1a8.708,8.708,0,0,1,.93,0,.218.218,0,0,0,.2.075c.188.091.416,0,.6.108h0c.155.207.375.058.563.091h0c0,.083,0,.141.1.091a.3.3,0,0,1,.384.091c.1.149.286.091.433.116.106.224.4,0,.514.224s.294.05.433.116l.057.075c.049.124.171.075.261.1h0c0,.183.155.116.261.1.073.149.269.075.351.207s.253.1.343.2h0c.049.141.171.083.261.091h0c0,.207.245.108.343.2h0c.155.108.326.2.277.44v.05c.294.05.424.34.653.473a9.291,9.291,0,0,1,1.012.764,4.633,4.633,0,0,1,.694.7,21.334,21.334,0,0,1,1.632,1.735A5.663,5.663,0,0,0,52.9,33a.152.152,0,0,1,0,.083c-.057.216.114.39.212.49a5.135,5.135,0,0,1,.694,1.237,6.068,6.068,0,0,1,.612,1.577,3.886,3.886,0,0,1,.335,1.311.134.134,0,0,0,.057.141c.155.091.122.241.106.382a.606.606,0,0,0,0,.183c.31.456,0,1.046.318,1.494v3.32c0,.116,0,.232-.106.3a.193.193,0,0,0-.065.249c.1.407-.212.764-.139,1.17,0,0,0,.083-.049.108-.237.224,0,.606-.294.83.188.332-.22.548-.147.83-.343.274-.31.739-.547,1.1-.384.581-.628,1.278-1,1.884-.082.141-.147.282-.229.415-.229.373-.514.705-.767,1.054s-.816.83-1.134,1.336-.93.714-1.3,1.17c-.057.075-.114.183-.188.207-.522.141-.759.7-1.3.83-.318.1-.579.423-.914.589a14.143,14.143,0,0,1-1.738.83.431.431,0,0,0-.269.058.364.364,0,0,0-.22.083,2.426,2.426,0,0,1-.955.39c-.294.066-.588.266-.922.166h-.049c-.155.232-.384.133-.588.158s-.286-.058-.408.058a.1.1,0,0,0-.09.091h-.751a2.135,2.135,0,0,0-.726,0h0v.2a3.6,3.6,0,0,1-.816,0c0-.174,0-.332-.253-.249a.98.98,0,0,1-.514,0c-.335-.075-.743.241-1-.207h-.09l-.816.05h-.1c0-.34-.18-.108-.286-.133s-.171,0-.18-.05-.188-.1-.286-.141-.367.2-.367-.158c-.237.083-.424-.066-.62-.149h-.245c0-.141-.041-.207-.2-.149s-.294.066-.294,0c0-.266-.131-.166-.245-.141s-.31-.282-.539-.141v-.05c-.082-.158-.082-.158-.229,0a.089.089,0,0,1-.122,0c0-.141.106-.307-.163-.224-.049,0-.131,0-.114-.041s0-.158-.155-.116-.114,0-.139-.091-.106-.29-.318-.232h-.106c-.082-.207-.384-.141-.449-.373a.532.532,0,0,0-.09-.075.76.76,0,0,1-.433-.315c-.041-.066-.082,0-.131,0l-.22.083h0a.437.437,0,0,0-.086-.375.421.421,0,0,0-.347-.156c-.065,0-.106.042-.155-.066a3.2,3.2,0,0,0-1.02-1.079h0a1.041,1.041,0,0,1-.392-.465,1.35,1.35,0,0,0-1.077-.83.387.387,0,0,1-.18-.183c-.1-.174-.057-.456-.343-.5a.536.536,0,0,1-.2-.224.091.091,0,0,0-.082-.091v-.2c-.09-.108,0-.332-.212-.349-.082,0-.114-.1-.155-.158s.049-.332-.2-.34h0a.72.72,0,0,0-.22-.573h0a.115.115,0,0,0-.1-.108v-.133a.559.559,0,0,0-.18-.365h0c-.049-.39-.375-.681-.392-1.087,0-.083-.106-.108-.188-.133a.118.118,0,0,1,0-.124.913.913,0,0,0-.31-.83.59.59,0,0,1,0-.315c.049-.124,0-.108-.1-.108h0c0-.191.114-.407-.09-.573h0a.107.107,0,0,0-.1-.108,1.139,1.139,0,0,1,0-.5q.188-.124,0-.249v-.075a2.53,2.53,0,0,1-.065-.83c0-.1.049-.232-.1-.29h0l-.106-.224q-.049-1.369,0-2.739a.135.135,0,0,0,0-.133h0c.2,0,.2-.141.2-.274v-.971h0c.269-.091.245-.249.1-.432a.337.337,0,0,1,0-.307c.114,0,.2-.058.2-.183a1.567,1.567,0,0,1,.1-.614c0-.108-.082-.224,0-.324a.178.178,0,0,0,.15-.064.185.185,0,0,0,.038-.16,1.086,1.086,0,0,1,.065-.324h0q.233-.1,0-.249c-.155-.1,0-.091,0-.124s.2-.05.18-.158c-.041-.249.163-.4.237-.6a.842.842,0,0,0,.065-.373h0c.212,0,.261-.124.122-.307s-.041-.149.057-.191.155,0,.1-.108v-.133c.073,0,.1-.05.106-.116h0c.122,0,.253-.066.2-.249v-.124c.294,0,.237-.307.3-.49V32.9a.1.1,0,0,0,.09-.091l.082-.1c.294-.058.237-.39.408-.548h0C27.456,32.116,27.342,31.942,27.391,31.867Zm19.9,8.656h.7c.073,0,.2,0,.139.116a1.189,1.189,0,0,1-.555.647.406.406,0,0,0-.22.3.411.411,0,0,0,.114.356c.057.058.106.174.22.133s0-.124.057-.183.131-.257.286-.274a.13.13,0,0,1,.112.046.134.134,0,0,1,.027.12c-.073.3.2.515.171.83a.151.151,0,0,0,.049.112.145.145,0,0,0,.115.037c.065,0,.139,0,.131-.1-.073-.373.18-.7.163-1.062,0-.191.049-.266.237-.249a.361.361,0,0,0,.392-.407,1.092,1.092,0,0,1,.212-.722.948.948,0,0,0,.237-.73.159.159,0,0,1,.057-.166c.253-.183.375-.564.816-.506.106,0,.155-.066.18-.174a.672.672,0,0,1,.082-.282c.09-.1.188-.232.065-.315s-.245-.207-.408-.149-.09.1-.155.041a.143.143,0,0,1,0-.174c.082-.133.082-.224-.1-.257s-.073-.091-.073-.158-.073-.149-.2-.066-.424.307-.694.091a.2.2,0,0,0-.2,0,1.069,1.069,0,0,1-.759.523c0,.241-.384.216-.351.49,0,.05-.082.058-.131.066-.5.116-.514.133-.277.573,0,.075.163.191,0,.207-.286,0-.571.224-.816.141a.635.635,0,0,0-.482.041.871.871,0,0,1-.816-.2c-.2-.149,0-.282,0-.423a.243.243,0,0,0-.073-.282c-.041-.05-.122-.083-.155,0s-.359.207-.245.523c.188.515,0,.739-.522.722h-.09a6.806,6.806,0,0,1-.718-.1,2.7,2.7,0,0,0-.645-.133c-.049,0-.294,0-.3-.183s-.171-.216-.318-.216h-.514c-.106,0-.229,0-.277-.083-.131-.232-.343-.232-.555-.232a.416.416,0,0,1-.433-.274.271.271,0,0,0-.245-.207c-.326-.075-.384-.207-.261-.523a.287.287,0,0,0,0-.083.586.586,0,0,1,.22-.573c.122-.108.155-.191,0-.249a.952.952,0,0,1-.229-.141l-.9-.656a.209.209,0,0,1-.106-.232c0-.083.041-.158,0-.224a.217.217,0,0,1,0-.29c.106-.116.163-.058.269,0a.322.322,0,0,0,.343-.041c.106-.091-.057-.141-.09-.216-.139-.332-.424-.614-.3-1.029a.118.118,0,0,0-.024-.09.114.114,0,0,0-.082-.043c-.171-.041-.2-.166-.229-.324a.382.382,0,0,0-.183-.273.37.37,0,0,0-.323-.026,6.679,6.679,0,0,1-.816.373.877.877,0,0,1-.881,0,.388.388,0,0,0-.53.116c-.082.149.082.207.073.34a1.142,1.142,0,0,0,.261,1.012c.114.116.171.241.343.216a.114.114,0,0,1,.131.066.146.146,0,0,1-.049.133.349.349,0,0,1-.245.116c-.114,0-.18.058-.147.174a.5.5,0,0,1-.163.4,1.916,1.916,0,0,0-.335.465c-.057.116-.065.34-.2.349s-.269.216-.326.349a.825.825,0,0,1-.351.39.955.955,0,0,0-.375.39.618.618,0,0,1-.6.324c-.335,0-.669-.249-.971.257s-.351.4.065.647c.122.066.212.116.073.257s-.049.232.073.3.4.224.343.515a.108.108,0,0,0,.049.075.336.336,0,0,1,.073.4c-.073.141-.237.05-.359.075-.433.058-.881-.149-1.3.133-.114.075-.269.108-.237.249s0,.4.3.407a.292.292,0,0,1,.237.108c.147.149.294.3.5.066a.161.161,0,0,1,.2,0,.084.084,0,0,1,0,.133c-.2.149-.343.407-.653.29-.057,0-.131-.091-.18,0s0,.133.057.191a2.43,2.43,0,0,1,.506.614.546.546,0,0,0,.547.349,1.4,1.4,0,0,0,.816-.232c.139-.1.082-.307.082-.481a.28.28,0,0,1,.277-.274c.163,0,.139.158.131.29v1.66a14.494,14.494,0,0,0,.131,1.577,4.07,4.07,0,0,0,.669,1.975.5.5,0,0,1,.114.216c0,.357.261.672.171,1.046a.311.311,0,0,0,.041.141c.2.432.506.83.686,1.261a4.209,4.209,0,0,1,.269,1.22.772.772,0,0,0,.873.83c.188,0,.441,0,.384-.365s.139-.373.359-.432c.1,0,.2,0,.253-.133a.99.99,0,0,1,.588-.664.125.125,0,0,0,.065-.158A2.811,2.811,0,0,1,40,49.328a2.05,2.05,0,0,0,0-.83,4.962,4.962,0,0,1,0-.921.166.166,0,0,1,.073-.112.161.161,0,0,1,.131-.02.519.519,0,0,0,.563-.266C40.816,47.1,40.914,47,41,47c.245,0,.424-.066.367-.4,0-.058.122-.216.188-.216.31,0,.4-.274.571-.432a.925.925,0,0,1,.31-.249.823.823,0,0,0,.482-.5c.131-.266.335-.548.62-.581a1.507,1.507,0,0,0,.939-.589c.114-.133.2-.232,0-.382s0-.116,0-.174c.18-.332.53-.274.816-.365.122,0,.286-.133.416.066.049.066.22.066.212-.124a7.186,7.186,0,0,1-.171-.921c0-.116-.114-.232-.188-.34s-.114-.091-.065-.149c.22-.257,0-.407-.147-.523a.229.229,0,0,1,0-.4l.114-.108c.171-.116.277-.2,0-.282s-.335-.3-.106-.515a1.758,1.758,0,0,1,.2-.149c.114-.091.22-.116.253.083s.122.183.22.133c.294-.149.261,0,.245.224,0,.34.049.407.367.415ZM40.906,29.734h0v1.66c0,.2.049.282.253.274h.873c.212,0,.294-.05.286-.274V30.216c0-.232.073-.29.286-.282h1.061c.686,0,.677,0,.677-.672,0-.216-.057-.3-.269-.29H42.734c-.433,0-.416,0-.441-.448,0-.257.073-.324.31-.315H44.04c.2,0,.31-.05.277-.282a.954.954,0,0,1,0-.216c.041-.241-.057-.324-.3-.315H41.461a.485.485,0,0,0-.413.138.5.5,0,0,0-.142.418Zm-2-2.291H37.723c-.62,0-.539-.124-.547.589,0,.166.057.224.212.216s.49,0,.735,0,.3.066.3.315v2.88c0,.2.049.282.253.266h.735c.22,0,.277-.075.269-.29V29.1c0-.266-.114-.606,0-.78s.5-.05.759-.075h.122a.13.13,0,0,0,.122-.066c.131-.249-.106-.415-.131-.631s-.155-.108-.245-.108Zm-2.016,2.149V27.7c0-.149,0-.257-.2-.257H35.658c-.212,0-.253.141-.131.282a.47.47,0,0,1,.106.365c0,1.112,0,2.224,0,3.32,0,.224.073.29.277.274h.735c.2,0,.261-.066.253-.266C36.882,30.821,36.891,30.207,36.891,29.593Z" transform="translate(-6.652 -6.497)" fill="#ef7c02"/>
    <path id="Path_12808" data-name="Path 12808" d="M16.416,31.052v.531a2.519,2.519,0,0,1-.424,1.4c-.073.116-.065.207.049.282a1.313,1.313,0,0,1,.539,1.378v.531c-.147,1.079-.041,2.191-.2,3.245s-.041,1.851-.106,2.764c0,.232-.229.382-.163.639a1.379,1.379,0,0,0,.286.606.315.315,0,0,0,.506,0,8.348,8.348,0,0,0,1.118-1.145c.637-.913,1.518-1.577,2.228-2.415.09-.1.155-.124.2.05a5.093,5.093,0,0,0,.408.647c.122.232.188.4-.041.631-.473.49-.816,1.1-1.241,1.61-.318.382-.6.83-.9,1.228s-.759.938-1.11,1.436a9.68,9.68,0,0,1-.922,1.237.294.294,0,0,0,0,.415c.082.116.057.249.114.332.163.266.1.647.4.83s.457.307.694.448a.735.735,0,0,1,.163.116,4.318,4.318,0,0,0,.988.705,3.9,3.9,0,0,1,.677.539c.441.423,1.02.647,1.453,1.1.114.124.326.207.473.349a.336.336,0,0,1,.041.473,17.484,17.484,0,0,0-.906,1.51,1.867,1.867,0,0,1-.441.631c-.147.108-.155.282-.22.415-.245.523-.62.954-.89,1.461a8,8,0,0,1-.645,1.062,3.28,3.28,0,0,0-.571.954,3.026,3.026,0,0,1-.384.589,4.829,4.829,0,0,0-.384.7c-.082.191-.326.282-.326.531h-.073c-.253,0-.318-.224-.473-.34s-.073-.2,0-.29.082-.415.22-.606A3.765,3.765,0,0,0,17.02,56.6c.106-.349.392-.647.359-1.054,0-.075.1-.149.139-.224a6.37,6.37,0,0,0,.424-1.087c.1-.365.4-.647.367-1.054,0-.124.114-.207.171-.307.2-.39.22-.83.433-1.212s.269-.548.408-.83a1.155,1.155,0,0,0,0-.722c0-.066-.114-.174-.163-.166-.286,0-.49-.183-.759-.224a2.6,2.6,0,0,1-.955-.257H17.4c-.384.075-.71-.174-1.085-.166-.1,0-.22.041-.294,0-.229-.232-.22-.083-.22.124a2.911,2.911,0,0,1,0,.705c-.318,1.336,0,2.714-.18,4.033s.065,2.672-.147,3.975,0,2.83-.171,4.216c-.122.83-.041,1.66-.106,2.49a.425.425,0,0,1-.175.3.411.411,0,0,1-.339.064.13.13,0,0,1-.09-.045.134.134,0,0,1-.032-.1.751.751,0,0,1,0-.191c.082-.988-.261-1.959-.147-2.954-.318-.589,0-1.245-.18-1.826s0-1.32-.163-1.917,0-1.178-.147-1.718,0-1.32-.155-1.925,0-1.253-.155-1.826,0-1.336-.163-1.959,0-1.162-.147-1.66a5.763,5.763,0,0,0-.359-1.444c-.3-.506-.579-1.054-.873-1.56A15.743,15.743,0,0,0,11.25,44.7a6.488,6.488,0,0,1-.865-1.569c-.073-.224-.286-.34-.375-.573A15.847,15.847,0,0,0,9.1,40.9c-.2-.4-.433-.83-.653-1.2h0c0-.382-.286-.722-.2-1.1a1.054,1.054,0,0,1,.743-.772,4.271,4.271,0,0,0,1.045-.7c.106-.075.22-.091.318-.158.571-.407,1.192-.755,1.779-1.145a5.818,5.818,0,0,1,1.224-.705c.253-.083.245-.232.155-.5-.18-.523-.653-.664-1.036-.921-.09-.058-.2-.133-.237-.232-.114-.315-.433-.481-.49-.83A1.023,1.023,0,0,0,11.511,32c-.082-.075-.057-.174-.057-.266V30.687c0-.349.188-.531.229-.83a2.349,2.349,0,0,1,.441-.93.727.727,0,0,1,.18-.207,4.88,4.88,0,0,1,.922-.556,2.466,2.466,0,0,1,1.085-.108,1.2,1.2,0,0,1,.857.34c.114.124.277.091.384.224a5.132,5.132,0,0,1,.775,1.336A6.428,6.428,0,0,1,16.416,31.052Zm-5.24,7.693H10.3c-.1,0-.2,0-.22.141a1.117,1.117,0,0,0,.245.954c.441.448.816.971,1.2,1.444l.816.929a.209.209,0,0,1,.065.124c0,.241.1.166.212.058a.31.31,0,0,0,.106-.3,6.107,6.107,0,0,0-.131-1.477c-.155-.432,0-.963-.163-1.452-.082-.257-.163-.423-.441-.423Z" transform="translate(-3.675 -6.927)" fill="#ef7e05"/>
    <path id="Path_12809" data-name="Path 12809" d="M55.517,20.863c-.065.2.1.3.155.44.18.465.408.913.579,1.378s.49.929.628,1.419.473.913.612,1.4.465.938.62,1.419.375.73.473,1.1c.131.523.482.938.62,1.436a5.7,5.7,0,0,0,.482,1.1.3.3,0,0,1,0,.349c-.106.1-.2,0-.294-.05a1.1,1.1,0,0,0-.245-.108,2.42,2.42,0,0,1-.816-.954,3.219,3.219,0,0,0-.375-.531c-.277-.3-.457-.656-.726-.954a11.406,11.406,0,0,1-.816-1.17.312.312,0,0,1,0-.241.217.217,0,0,0-.106-.249c-.114-.075-.269-.166-.2-.373,0-.075-.073-.075-.114-.108s-.359-.249-.359-.506a.115.115,0,0,0-.114-.091c-.555-.108-.686-.622-.947-1.012l-.065-.066c-.433-.423-.71-.979-1.1-1.444-.106-.116-.131-.3-.261-.432a1.25,1.25,0,0,0-.686-.357,2.264,2.264,0,0,1-.873-.241,1.609,1.609,0,0,0-.653-.141c-.3-.066-.6-.174-.906-.232a2.474,2.474,0,0,1-.9-.257.169.169,0,0,0-.082,0c-.343.091-.645-.133-.947-.207s-.628,0-.9-.249a1.248,1.248,0,0,0-.588-.133,8.186,8.186,0,0,1-.89-.257,2.232,2.232,0,0,1-.89-.249.162.162,0,0,0-.114-.041,1.561,1.561,0,0,1-.914-.191c-.286-.1-.6-.133-.873-.224s-.6-.166-.906-.241a3.672,3.672,0,0,1-.9-.232.227.227,0,0,0-.114-.05,7.933,7.933,0,0,1-1.567-.357c-.269-.066-.588-.141-.865-.224s-.6-.174-.906-.241a1.99,1.99,0,0,1-.89-.249.162.162,0,0,0-.114-.041,1.537,1.537,0,0,1-.914-.191c-.286-.108-.62,0-.873-.249s-.408-.083-.62-.133-.579-.174-.873-.232a2.974,2.974,0,0,1-.979-.29c-.188-.116-.416-.05-.628-.133s-.563-.158-.816-.232a4.509,4.509,0,0,1-1.02-.266,2.2,2.2,0,0,0-.645-.141c-.31-.058-.612-.174-.914-.232a2.055,2.055,0,0,1-.9-.249.137.137,0,0,0-.106-.041,1.61,1.61,0,0,1-.914-.191c-.277-.083-.6,0-.865-.257s-.416-.083-.62-.124S24.4,15.062,24.1,15a3.979,3.979,0,0,1-.955-.257c-.22-.108-.506,0-.743-.183-.049,0-.122,0-.1-.116s.073-.075.122-.066c.277.058.579-.091.816.124.065.058.2,0,.294,0,.71-.05,1.4.282,2.114.166.392.266.816,0,1.257.166s1.053,0,1.534.174.906,0,1.33.133,1.118,0,1.632.183.816,0,1.241.141c.612.166,1.257,0,1.828.183s1.069,0,1.575.141,1.241,0,1.8.166,1.118,0,1.632.149c.653.183,1.322,0,1.934.158s1.33,0,1.959.158,1.4,0,2.057.158,1.51,0,2.236.149a9.852,9.852,0,0,0,1.632.141.753.753,0,0,0,.71-.3,1.332,1.332,0,0,1,.155-.149c.326-.332.261-.622-.2-.83a9.129,9.129,0,0,0-1.257-.365c-.441-.108-.9,0-1.3-.133-.645-.224-1.314,0-1.926-.174s-1.126,0-1.632-.141c-.653-.207-1.314,0-1.926-.174s-1.118,0-1.632-.141c-.653-.2-1.322,0-1.926-.166a9.546,9.546,0,0,0-1.632-.124c-.114,0-.212,0-.229-.158s.082-.183.2-.174c.939.108,1.861-.166,2.791-.141s2.008-.29,3.028-.174c.628-.29,1.314,0,1.926-.166s1.445,0,2.114-.174,1.322,0,1.959-.141a11.7,11.7,0,0,1,2.212-.141c.188,0,.31-.191.53-.174a.424.424,0,0,1,.408.266,18.681,18.681,0,0,0,.816,1.859c.269.647.6,1.253.873,1.892.163.4.359.788.506,1.187a5.027,5.027,0,0,1,.335.83c0,.133.335.241.506.373s.1-.075.082-.141c-.082-.423.229-.714.384-1.046s.424-.357.661-.473a2.3,2.3,0,0,1,1.257-.349c.171,0,.294-.216.506-.149.482.158,1,.133,1.485.282a3.255,3.255,0,0,1,1.355.83,1.744,1.744,0,0,1,.522,1.735,1.294,1.294,0,0,1-.677.988,6.617,6.617,0,0,0-.816.515s-.073.066-.106.066c-.579,0-1.143.34-1.706.141-.294-.1-.6-.141-.89-.241a11.027,11.027,0,0,1-1.167-.531c0-.066,0-.124-.065-.133s-.073,0-.065.066S55.46,20.879,55.517,20.863Z" transform="translate(-6.263 -4.323)" fill="#ef7e05"/>
    <path id="Path_12810" data-name="Path 12810" d="M58.539,77.9h-.816a2.1,2.1,0,0,1-1-.282c-.147-.075-.3-.05-.457-.124a7.036,7.036,0,0,1-1.9-1.66,3.9,3.9,0,0,1-.408-.78c-.2-.315-.237-.7-.433-1.021v-.207a15.113,15.113,0,0,0,0-1.61,2.889,2.889,0,0,1,.2-1.145,5.119,5.119,0,0,1,1.706-2.423,3.991,3.991,0,0,1,1.118-.647c.212-.083.49-.124.694-.216.628-.274,1.281-.05,1.9-.149a2.14,2.14,0,0,1,.979.207,3.794,3.794,0,0,1,.914.39,7.069,7.069,0,0,1,.963.689,4.523,4.523,0,0,1,1.249,1.793,3.61,3.61,0,0,1,.359,1.66c-.049.44.049.9,0,1.328a4.2,4.2,0,0,1-.335,1.187,4.948,4.948,0,0,1-.62,1.054,3.821,3.821,0,0,1-1.534,1.336,4.459,4.459,0,0,0-.628.315,2.567,2.567,0,0,1-1.542.307Zm-3.746-5.062a4.162,4.162,0,0,0,.718,2.266,4.146,4.146,0,0,0,2.359,1.51,3.752,3.752,0,0,0,1.893-.166,4.072,4.072,0,0,0,1.412-.9A5.492,5.492,0,0,0,61.91,74.5c.114-.183.082-.357.163-.523a1.772,1.772,0,0,0,.261-.83,5.623,5.623,0,0,0-.473-2.166,3.36,3.36,0,0,0-.816-1.037,5.2,5.2,0,0,1-.539-.415.721.721,0,0,0-.122-.1,7.258,7.258,0,0,0-1.436-.465,2.139,2.139,0,0,0-1.51.2c-.163.075-.335.05-.473.141a6.364,6.364,0,0,0-1.265.938c-.147.158-.147.373-.31.506a1.459,1.459,0,0,0-.449.83c-.057.423-.31.83-.147,1.261Z" transform="translate(-12.002 -13.661)" fill="#ef8008"/>
    <path id="Path_12811" data-name="Path 12811" d="M35.37,62.112c.147-.116.147-.116.229,0v.05c.229-.141.335.183.539.141s.253-.124.245.141c0,.083.2.05.294,0s.2,0,.2.149h.245c.2.083.384.232.62.149,0,.357.245.108.367.158s.253-.075.286.141.114,0,.18.05.318-.207.286.133h.1l.816-.05h.09c.261.448.669.133,1,.207a.98.98,0,0,0,.514,0c.277-.083.261.075.253.249a.806.806,0,0,0-.53-.149,5.153,5.153,0,0,1-.947,0l-1.314-.166c-.367-.058-.735-.216-1.11-.315a13.488,13.488,0,0,1-1.379-.465A1.538,1.538,0,0,1,35.37,62.112Z" transform="translate(-8.665 -12.708)" fill="#ef8008"/>
    <path id="Path_12812" data-name="Path 12812" d="M30.022,58.113h0a3.2,3.2,0,0,1,1.02,1.079c.049.108.09.075.155.066a.421.421,0,0,1,.347.156.437.437,0,0,1,.086.375A10.714,10.714,0,0,1,30,58.387a.751.751,0,0,0-.408-.29c-.147,0-.09-.257-.22-.365-.318-.282-.6-.614-.89-.921a1.35,1.35,0,0,1,1.077.83,1.041,1.041,0,0,0,.392.465h0Z" transform="translate(-7.398 -11.821)" fill="#ef8008"/>
    <path id="Path_12813" data-name="Path 12813" d="M30.771,29.86c.106.1.106.191,0,.307-.563.564-1.126,1.129-1.689,1.71-.106.108-.188.091-.261,0a24.862,24.862,0,0,1,1.951-2.017Z" transform="translate(-7.461 -7.237)" fill="#ef8008"/>
    <path id="Path_12814" data-name="Path 12814" d="M32.38,60.378l.22-.083c.049,0,.09-.05.131,0a.76.76,0,0,0,.433.315.089.089,0,0,1,.09.075c.065.232.367.166.449.373h.106c.212-.058.294.083.318.232s.073.108.139.091.2-.066.155.116.065.058.114.041c.269-.083.2.083.163.224a10.964,10.964,0,0,1-1.387-.78,1.633,1.633,0,0,1-.661-.473C32.576,60.437,32.437,60.486,32.38,60.378Z" transform="translate(-8.115 -12.41)" fill="#ef8008"/>
    <path id="Path_12815" data-name="Path 12815" d="M25.489,51.43c.082,0,.188.05.188.133,0,.407.343.7.392,1.087-.229-.05-.2-.29-.269-.423s-.269-.332-.188-.573C25.645,51.563,25.465,51.546,25.489,51.43Z" transform="translate(-6.848 -10.906)" fill="#ef8008"/>
    <path id="Path_12816" data-name="Path 12816" d="M24.576,41.35v1.021c0,.133,0,.274-.2.274.2-.307.057-.656.106-.979C24.5,41.557,24.4,41.408,24.576,41.35Z" transform="translate(-6.644 -9.191)" fill="#ef8008"/>
    <path id="Path_12817" data-name="Path 12817" d="M25.992,36.63a.842.842,0,0,1-.065.373c-.073.2-.277.349-.237.6,0,.108-.073.158-.18.158a5.509,5.509,0,0,1,.482-1.129Z" transform="translate(-6.852 -8.388)" fill="#ef8008"/>
    <path id="Path_12818" data-name="Path 12818" d="M24.5,46.64c.147.058.09.191.1.29a2.53,2.53,0,0,0,.065.83c-.171,0-.163-.149-.163-.274C24.508,47.2,24.5,46.939,24.5,46.64Z" transform="translate(-6.666 -10.091)" fill="#ef8008"/>
    <path id="Path_12819" data-name="Path 12819" d="M31.843,29.33c.1.083.139.158,0,.266-.277.249-.277.257-.433.116C31.557,29.587,31.655,29.4,31.843,29.33Z" transform="translate(-7.937 -7.147)" fill="#ef8008"/>
    <path id="Path_12820" data-name="Path 12820" d="M25.11,50.31a.913.913,0,0,1,.31.83Z" transform="translate(-6.779 -10.715)" fill="#ef8008"/>
    <path id="Path_12821" data-name="Path 12821" d="M25.044,39.5a1.567,1.567,0,0,0-.1.614c0,.124-.082.174-.2.183a.521.521,0,0,0,.106-.423.342.342,0,0,1,.188-.373Z" transform="translate(-6.712 -8.876)" fill="#ef8008"/>
    <path id="Path_12822" data-name="Path 12822" d="M27.818,33.52c-.171.158-.114.49-.408.548C27.549,33.918,27.549,33.6,27.818,33.52Z" transform="translate(-7.201 -7.859)" fill="#ef8008"/>
    <path id="Path_12823" data-name="Path 12823" d="M27.93,56c.286,0,.245.324.343.5C28.052,56.4,28.085,56.133,27.93,56Z" transform="translate(-7.297 -11.683)" fill="#ef8008"/>
    <path id="Path_12824" data-name="Path 12824" d="M27.122,34.57c-.065.183,0,.448-.3.49C26.967,34.927,26.918,34.661,27.122,34.57Z" transform="translate(-7.093 -8.038)" fill="#ef8008"/>
    <path id="Path_12825" data-name="Path 12825" d="M25.393,38.45a1.086,1.086,0,0,0-.065.324.185.185,0,0,1-.038.16.178.178,0,0,1-.15.064.411.411,0,0,0,.1-.307C25.222,38.574,25.246,38.475,25.393,38.45Z" transform="translate(-6.784 -8.698)" fill="#ef8008"/>
    <path id="Path_12826" data-name="Path 12826" d="M26.589,53.66a.72.72,0,0,1,.22.573C26.736,54.042,26.556,53.892,26.589,53.66Z" transform="translate(-7.05 -11.285)" fill="#ef8008"/>
    <path id="Path_12827" data-name="Path 12827" d="M24.87,49.11c.2.166.065.382.09.573C24.772,49.517,24.976,49.293,24.87,49.11Z" transform="translate(-6.734 -10.511)" fill="#ef8008"/>
    <path id="Path_12828" data-name="Path 12828" d="M24.718,40.83c.147.183.171.34-.1.432C24.726,41.137,24.661,40.971,24.718,40.83Z" transform="translate(-6.688 -9.103)" fill="#ef8008"/>
    <path id="Path_12829" data-name="Path 12829" d="M26.217,52.92a.559.559,0,0,1,.18.365.292.292,0,0,1-.18-.365Z" transform="translate(-6.979 -11.159)" fill="#ef8008"/>
    <path id="Path_12830" data-name="Path 12830" d="M27.28,55c.229,0,.122.241.212.349C27.256,55.29,27.386,55.05,27.28,55Z" transform="translate(-7.178 -11.513)" fill="#ef8008"/>
    <path id="Path_12831" data-name="Path 12831" d="M26.85,54.35c.245,0,.18.2.2.34C26.883,54.632,26.972,54.425,26.85,54.35Z" transform="translate(-7.098 -11.402)" fill="#ef8008"/>
    <path id="Path_12832" data-name="Path 12832" d="M26.222,36.27c.139.183.09.274-.122.307a.838.838,0,0,0,.122-.307Z" transform="translate(-6.961 -8.327)" fill="#ef8008"/>
    <path id="Path_12833" data-name="Path 12833" d="M26.766,35.31c.057.183-.073.207-.2.249C26.594,35.443,26.7,35.393,26.766,35.31Z" transform="translate(-7.047 -8.164)" fill="#ef8008"/>
    <path id="Path_12834" data-name="Path 12834" d="M28.034,33.17c-.082.075.065.249-.114.29C27.985,33.353,27.855,33.2,28.034,33.17Z" transform="translate(-7.295 -7.8)" fill="#ef8008"/>
    <path id="Path_12835" data-name="Path 12835" d="M24.343,46.36l.106.224C24.31,46.559,24.277,46.484,24.343,46.36Z" transform="translate(-6.632 -10.043)" fill="#ef8008"/>
    <path id="Path_12836" data-name="Path 12836" d="M25.49,38.14q.2.149,0,.249Z" transform="translate(-6.848 -8.645)" fill="#ef8008"/>
    <path id="Path_12837" data-name="Path 12837" d="M24.734,48.07q.188.124,0,.249A.3.3,0,0,1,24.734,48.07Z" transform="translate(-6.704 -10.334)" fill="#ef8008"/>
    <path id="Path_12838" data-name="Path 12838" d="M28.677,32.51c0,.133-.065.149-.163.149S28.612,32.551,28.677,32.51Z" transform="translate(-7.399 -7.687)" fill="#ef8008"/>
    <path id="Path_12839" data-name="Path 12839" d="M48.487,26.121c-.1.05-.114,0-.1-.091a.123.123,0,0,1,.1.091Z" transform="translate(-11.058 -6.585)" fill="#f5b773"/>
    <path id="Path_12840" data-name="Path 12840" d="M25,49.8c.073,0,.147,0,.1.108Z" transform="translate(-6.758 -10.628)" fill="#ef8008"/>
    <path id="Path_12841" data-name="Path 12841" d="M26.418,35.91c.057.124,0,.108-.1.108Z" transform="translate(-7.001 -8.266)" fill="#ef8008"/>
    <path id="Path_12842" data-name="Path 12842" d="M26.449,53.52a.115.115,0,0,1,.1.108C26.482,53.62,26.433,53.6,26.449,53.52Z" transform="translate(-7.024 -11.261)" fill="#ef8008"/>
    <path id="Path_12843" data-name="Path 12843" d="M27.289,34.3a.1.1,0,0,1-.09.091C27.183,34.317,27.232,34.3,27.289,34.3Z" transform="translate(-7.162 -7.992)" fill="#ef8008"/>
    <path id="Path_12844" data-name="Path 12844" d="M26.538,35.61c0,.066,0,.108-.106.116S26.472,35.627,26.538,35.61Z" transform="translate(-7.015 -8.215)" fill="#ef8008"/>
    <path id="Path_12845" data-name="Path 12845" d="M27.579,55.61a.091.091,0,0,1,.082.091C27.6,55.7,27.563,55.685,27.579,55.61Z" transform="translate(-7.232 -11.617)" fill="#ef8008"/>
    <path id="Path_12846" data-name="Path 12846" d="M24.729,49a.107.107,0,0,1,.1.108C24.762,49.075,24.713,49.05,24.729,49Z" transform="translate(-6.708 -10.492)" fill="#ef8008"/>
    <path id="Path_12847" data-name="Path 12847" d="M24.376,42.9a.135.135,0,0,1,0,.133C24.295,42.983,24.295,42.933,24.376,42.9Z" transform="translate(-6.632 -9.455)" fill="#ef8008"/>
    <path id="Path_12848" data-name="Path 12848" d="M50.059,62.48c-.057.207-.163.116-.269.058C49.863,62.447,49.961,62.5,50.059,62.48Z" transform="translate(-11.316 -12.785)" fill="#ef8008"/>
    <path id="Path_12849" data-name="Path 12849" d="M45.92,63.6c0,.083,0,.116-.09.091A.1.1,0,0,1,45.92,63.6Z" transform="translate(-10.588 -12.976)" fill="#ef8008"/>
    <path id="Path_12850" data-name="Path 12850" d="M44,63.75v.058Z" transform="translate(-10.252 -13.001)" fill="#ef8008"/>
    <path id="Path_12851" data-name="Path 12851" d="M62.969,22.5c-.057,0-.114,0-.131-.058s0-.075.065-.066.082.066.065.133Z" transform="translate(-13.714 -5.964)" fill="#fefdfc"/>
    <path id="Path_12852" data-name="Path 12852" d="M34.574,60.2l-.016.025-.008-.008Z" transform="translate(-6.343 -10.256)" fill="#ef7c02"/>
    <path id="Path_12853" data-name="Path 12853" d="M30.37,58.38Z" transform="translate(-7.746 -12.088)" fill="#ef7c02"/>
  </g>
</svg>
