<svg xmlns="http://www.w3.org/2000/svg" width="46.466" height="53.517" viewBox="0 0 46.466 53.517">
  <g id="Indian_Golf_Union" data-name="Indian Golf Union" transform="translate(0)">
    <path id="Path_11722" data-name="Path 11722" d="M54.5,56.857V54.566c0-.361.075-.923-.485-.9s-.478.5-.478.916c0,1.389,0,2.777-.041,4.166a5.186,5.186,0,0,1-.089.861.424.424,0,0,1-.355.465c-.239.014-.321-.25-.362-.437a8.513,8.513,0,0,1-.178-1.243,29.774,29.774,0,0,0-.587-4.6,1.5,1.5,0,0,0-.792-1.007,6.446,6.446,0,0,1-3.229-7.283,15.569,15.569,0,0,1,1.707-4.443,18.989,18.989,0,0,0,2.56-9.72,17.325,17.325,0,0,1,.683-4.666,1.1,1.1,0,0,1,.836-.933,1.078,1.078,0,0,1,1.151.475c.6.694.894,1.638,1.734,2.18.253.16,0,.368-.28.417-1.55.278-1.529.278-1.5,1.84a20.137,20.137,0,0,0,3.707,10.928,9.507,9.507,0,0,1,1.8,5.554,5.916,5.916,0,0,1-2.588,5.02,3.951,3.951,0,0,0-1.686,3.006,26.922,26.922,0,0,1-.58,4.374c-.089.278-.137.639-.478.618s-.389-.41-.4-.694V56.774Z" transform="translate(-26.655 -12.623)" fill="#08a553"/>
    <path id="Path_11723" data-name="Path 11723" d="M32.479,26.671c-.382-.632-1.051-.493-1.529-.771-.191-.1-.423-.16-.628-.271-.376-.2-.335-.514-.266-.8a.574.574,0,0,1,.683-.347,3.384,3.384,0,0,1,1.461.625,1.538,1.538,0,0,0,1.318.326,1.008,1.008,0,0,0-.683-.576,4.893,4.893,0,0,1-.922-.444c-.389-.222-.86-.507-.594-1.014s.772-.3,1.174-.1c1.195.6,2.369,1.243,3.571,1.826a3.2,3.2,0,0,1,1.686,1.75,3.614,3.614,0,0,0,1.994,2.159c.2.09.5.16.4.479s-.382.222-.594.181a2.562,2.562,0,0,0-2.458.826,3.868,3.868,0,0,1-2.765,1.041H30.6a1.5,1.5,0,0,1-.464-.062c-.28-.083-.635-.076-.608-.548a.652.652,0,0,1,.195-.522.628.628,0,0,1,.522-.172c.485,0,.976.056,1.468.062.15,0,.335-.035.341-.236s-.157-.264-.314-.285l-1.01-.1a8.114,8.114,0,0,1-.922-.076c-.471-.1-1.127-.153-1.01-.826s.724-.576,1.215-.458a6.724,6.724,0,0,1,1.441.243c.137.069.4.118.471-.111s-.178-.292-.307-.382a4.045,4.045,0,0,0-1.912-.542c-.683-.1-1.516-.611-1.366-.986.28-.736.949-.486,1.468-.41a14.82,14.82,0,0,1,1.789.479A1.016,1.016,0,0,0,32.479,26.671Zm2.342-.535a2.219,2.219,0,0,0-2.239,2.048,2.193,2.193,0,0,0,2.048,2.249,2.4,2.4,0,0,0,2.253-2.27,2.044,2.044,0,0,0-.608-1.459A1.975,1.975,0,0,0,34.821,26.136Z" transform="translate(-20.504 -11.819)" fill="#08a553"/>
    <path id="Path_11724" data-name="Path 11724" d="M76.028,38.1a3.264,3.264,0,0,0,2.048.854,4.436,4.436,0,0,1,1.14.465.523.523,0,0,1,.283.6.513.513,0,0,1-.528.393,2.617,2.617,0,0,1-1.454-.236c-.512-.257-1.072-.187-1.577-.389-.137-.056-.328-.062-.376.146s.075.278.253.326c.423.118.847.229,1.256.382s.956.465.683,1.1-.683.326-1.133.2a18.42,18.42,0,0,0-2.233-.958c.15.694.758.729,1.161,1.007s1.222.437.9,1.1-.949.146-1.366-.076c-1.127-.555-2.233-1.173-3.366-1.715a2.972,2.972,0,0,1-1.6-1.722,3.114,3.114,0,0,0-1.734-1.993c-.218-.09-.574-.257-.505-.514.089-.375.485-.222.737-.187a2.76,2.76,0,0,0,2.308-.868A3.384,3.384,0,0,1,73.454,35c1.366.056,2.731.049,4.1.049.471,0,.888.139.874.653s-.457.625-.908.618H75.878c.034.43.321.361.519.382.683.083,1.366.132,2.007.229.4.062.806.222.731.736a.708.708,0,0,1-.942.59,5.24,5.24,0,0,0-2.164-.153Zm-4.916.292a2.1,2.1,0,0,0,.655,1.467,2.028,2.028,0,0,0,1.489.553,2.092,2.092,0,0,0,1.935-.987,2.169,2.169,0,0,0,.053-2.2,2.1,2.1,0,0,0-1.886-1.082A2.327,2.327,0,0,0,71.112,38.394Z" transform="translate(-33.049 -15.461)" fill="#08a553"/>
    <path id="Path_11725" data-name="Path 11725" d="M40.373,16.179a8.181,8.181,0,0,0-1.092-2.048c-.225-.4-.307-.764.075-1.048s.724.056.929.375c.867,1.389,1.727,2.777,2.642,4.166a1.929,1.929,0,0,1,.246,1.527,3.722,3.722,0,0,0,.614,3.062c.13.194.321.437.116.625s-.451-.049-.608-.187a2.529,2.529,0,0,0-2.458-.555c-1.6.41-2.915-.34-4.213-1.125-.751-.451-1.468-.958-2.205-1.437-.369-.243-.608-.555-.335-.979s.683-.236.976-.069a8.032,8.032,0,0,0,1.577.889,1.274,1.274,0,0,0-.683-.882c-.444-.319-.9-.618-1.331-.951a.693.693,0,0,1-.357-.489.7.7,0,0,1,.159-.587c.307-.4.683-.257,1.017,0A9.162,9.162,0,0,0,37.4,17.853a2.78,2.78,0,0,0-.908-1.389,7.111,7.111,0,0,1-1.14-1.139c-.2-.319-.348-.694,0-1.007a.675.675,0,0,1,.922.1c.56.5,1.086,1.048,1.632,1.569.232.215.437.521.915.458a7.026,7.026,0,0,0-1.14-1.43c-.335-.4-.683-.819-.15-1.277s.894.069,1.188.43A9.635,9.635,0,0,0,40.373,16.179Zm-.533,4.915A2.2,2.2,0,0,0,42,19.054a2.287,2.287,0,0,0-2.178-2.236A2.393,2.393,0,0,0,37.6,18.95,2.242,2.242,0,0,0,39.841,21.095Z" transform="translate(-22.294 -8.728)" fill="#08a553"/>
    <path id="Path_11726" data-name="Path 11726" d="M33.706,41.917l-2.383,1.1c-.451.208-.9.222-1.127-.285s.137-.757.492-.93c.478-.243,1-.4,1.5-.6.225-.09.492-.215.4-.486s-.369-.1-.553-.062c-.683.187-1.365.43-2.082.583-.437.1-1.045.236-1.161-.382s.512-.785.963-.944a16.388,16.388,0,0,0,2.048-.639c.171-.083.505-.069.4-.361s-.362-.1-.553-.056a9.491,9.491,0,0,0-1.284.292.673.673,0,0,1-.6-.026.694.694,0,0,1-.347-.5c-.116-.5.184-.694.649-.764l2.157-.25c.15,0,.314,0,.382-.25-.348-.319-.778-.139-1.167-.153s-.614,0-.929,0-.683-.125-.683-.555.321-.555.683-.611a5.789,5.789,0,0,1,.778-.049l4.342-.111a2.266,2.266,0,0,1,1.488.6,3.072,3.072,0,0,0,2.649.8c.218-.042.587-.146.683.208.048.236-.225.375-.451.472A2.71,2.71,0,0,0,38.349,39.7a4.83,4.83,0,0,1-2.635,2.923c-1,.486-1.959,1.048-2.936,1.59-.382.208-.731.181-.908-.229s.164-.632.437-.812a12.512,12.512,0,0,1,1.154-.639.5.5,0,0,0,.246-.618ZM32.935,39.2a2.117,2.117,0,0,0,2,2.173,2.336,2.336,0,0,0,2.185-2.3,2.217,2.217,0,0,0-2.048-2.083,2.12,2.12,0,0,0-1.523.649,2.192,2.192,0,0,0-.614,1.559Z" transform="translate(-20.645 -15.727)" fill="#08a553"/>
    <path id="Path_11727" data-name="Path 11727" d="M61.549,11.018a3.671,3.671,0,0,0,.683-1.659c.123-.521.4-.854.915-.694s.451.618.266,1.055c-.328.757-.635,1.527-.956,2.326.41.1.526-.174.683-.417.253-.451.485-.923.758-1.389.164-.257.382-.562.751-.361a.568.568,0,0,1,.273.371.577.577,0,0,1-.089.455c-.1.215-.157.451-.266.694-.6,1.2-1.215,2.4-1.816,3.61A2.7,2.7,0,0,1,61.126,16.5a2.947,2.947,0,0,0-1.994,1.819c-.082.187-.178.535-.43.486-.362-.076-.212-.444-.184-.694a3.11,3.11,0,0,0-.99-2.61,3.42,3.42,0,0,1-.929-2.437V8.8c0-.486.178-.764.683-.785s.683.312.683.764v1.9a1.765,1.765,0,0,0,.471-1.146,13.887,13.887,0,0,0,.15-1.389c0-.479.253-1.034.642-1.007.512.042.758.59.683,1.159s-.191,1.028-.266,1.548c0,.167-.082.417.164.458s.321-.153.376-.333q.184-.6.348-1.208a10.278,10.278,0,0,1,.232-1.111c.15-.368.3-.958.806-.75a.844.844,0,0,1,.43.538.859.859,0,0,1-.109.684,5.731,5.731,0,0,0-.505,2.3.7.7,0,0,0,.164.59Zm.43,2.312a2.317,2.317,0,0,0-2.144-2.256A2.216,2.216,0,0,0,57.7,13.2,2.389,2.389,0,0,0,59.9,15.42a2.162,2.162,0,0,0,2.076-2.09Z" transform="translate(-29.474 -6.858)" fill="#08a553"/>
    <path id="Path_11728" data-name="Path 11728" d="M74.371,24.576l1.85-.826a3.261,3.261,0,0,1,.348-.174c.464-.153,1.017-.4,1.27.243s-.321.847-.765,1.062c-.546.271-1.208.3-1.686.875.819.319,1.454-.146,2.11-.34a3.318,3.318,0,0,1,.97-.208c.362,0,.724.042.84.424s-.266.6-.519.791c-.683.507-1.536.389-2.26.736-.143.062-.307.069-.444.139s-.287.194-.225.368.253.132.4.1c.478-.1.956-.222,1.434-.312s.956-.049,1.024.535-.444.694-.84.736c-.608.09-1.236.083-1.857.132-.225,0-.574,0-.574.278,0,.375.4.264.621.271.485,0,.976-.069,1.468-.083.355,0,.731.083.744.514s-.294.618-.717.632a32.007,32.007,0,0,0-5.025.278,1.427,1.427,0,0,1-1.208-.451,3.564,3.564,0,0,0-3.093-1.118c-.178,0-.464.09-.505-.194s.191-.333.341-.382a2.922,2.922,0,0,0,1.891-2.215,4.06,4.06,0,0,1,2.048-2.333c1.01-.576,2.048-1.166,3.038-1.708.389-.2.894-.4,1.161.139s-.246.771-.6,1.007S74.6,23.813,74.371,24.576Zm-1.413,4.909a2.173,2.173,0,0,0,1.565-.648,2.248,2.248,0,0,0,.647-1.588,2.066,2.066,0,0,0-2.048-2.083,2.246,2.246,0,0,0-2.13,2.236,2.067,2.067,0,0,0,1.966,2.083Z" transform="translate(-33.003 -11.529)" fill="#08a553"/>
    <path id="Path_11729" data-name="Path 11729" d="M69.734,16a8.826,8.826,0,0,0,1.721-1.576c.13-.125.246-.264.382-.389.341-.305.751-.618,1.161-.257s.034.847-.212,1.159c-.43.548-.956,1.028-1.434,1.541-.171.181-.41.333-.3.694.6-.187.888-.764,1.365-1.062.355-.222.683-.653,1.127-.1s0,.868-.341,1.173-.935.743-1.413,1.1c-.13.09-.307.132-.171.333s.294,0,.389-.035c.4-.236.772-.521,1.161-.764s.771-.368,1.045,0,0,.785-.4,1.021c-1.379.937-2.786,1.819-4.151,2.694a2.018,2.018,0,0,1-1.434.194,3.9,3.9,0,0,0-3.011.694c-.143.1-.321.264-.485.125s-.089-.41.048-.562a3.06,3.06,0,0,0,.539-3.076c-.328-1.236.4-2.284.929-3.312.485-.923,1.079-1.791,1.625-2.68.246-.41.621-.653,1.024-.354s.225.694,0,1.055a2.771,2.771,0,0,0-.683,1.52c.594-.3.778-.875,1.133-1.284a3,3,0,0,0,.266-.389c.314-.472.683-1.048,1.284-.59s.109,1-.212,1.451S69.769,15.141,69.734,16Zm-1.236.1a2.357,2.357,0,0,0-2.11,2.215,2.257,2.257,0,0,0,1.966,2.249,2.414,2.414,0,0,0,2.26-2.187A2.441,2.441,0,0,0,68.5,16.1Z" transform="translate(-32.026 -8.558)" fill="#08a553"/>
    <path id="Path_11730" data-name="Path 11730" d="M70.034,49.441a17.5,17.5,0,0,0,1.3,1.694.7.7,0,0,1-.068.993.627.627,0,0,1-.515.132.635.635,0,0,1-.434-.313c-.109-.146-.239-.278-.341-.43a11.964,11.964,0,0,0-1.318-1.687c-.253.312-.061.521.068.694.294.493.594.979.881,1.479a.513.513,0,0,1,.1.414.506.506,0,0,1-.247.343.546.546,0,0,1-.414.093.552.552,0,0,1-.357-.232c-.314-.41-.6-.854-.881-1.291-.574-.91-1.12-1.826-1.707-2.722a3.288,3.288,0,0,1-.444-2.347,3.453,3.453,0,0,0-.614-2.6c-.116-.16-.362-.4-.143-.618s.423,0,.608.16a2.877,2.877,0,0,0,2.615.521c1.42-.4,2.656.333,3.844,1.021.778.451,1.509,1,2.28,1.479.4.25.785.521.457,1.034s-.881.222-1.243-.035a3.23,3.23,0,0,0-1.366-.694c.1.569.553.694.86.972s.84.535,1.188.875c.232.222.628.535.3.93a.729.729,0,0,1-1.106.083c-.416-.312-.819-.639-1.222-.972a1,1,0,0,0-.683-.285c0,.562.43.805.731,1.125a7.257,7.257,0,0,1,1.27,1.389c.164.292.273.6,0,.875s-.58.167-.86,0c-.683-.361-1.045-1.076-1.632-1.548A1.15,1.15,0,0,0,70.034,49.441Zm-3.161-2.548a2.135,2.135,0,0,0,4.267.076A2.272,2.272,0,0,0,68.9,44.72a2.158,2.158,0,0,0-2.028,2.173Z" transform="translate(-32.08 -17.892)" fill="#08a553"/>
    <path id="Path_11731" data-name="Path 11731" d="M46.079,12.313a11.32,11.32,0,0,0-.847-2.083c-.382-.757-.321-1.52.13-1.6.751-.132.915.472,1.127,1.028s.253,1.083.765,1.465c.273-.424.068-.812,0-1.194-.137-.562-.341-1.1-.451-1.673-.075-.41-.055-.93.464-1.028s.683.347.785.694c.225.694.416,1.389.614,2.083a.874.874,0,0,0,.5.694c.376-.5-.1-.9-.137-1.333,0-.285-.1-.569-.109-.854s.048-.6.4-.694a.68.68,0,0,1,.731.4,2.615,2.615,0,0,1,.2,1.312,2.108,2.108,0,0,0,.464,1.666A5.7,5.7,0,0,0,50.824,9.2c0-.368-.15-.9.43-.923s.6.458.608.916a31.6,31.6,0,0,0,.232,3.937,3.112,3.112,0,0,1-.683,2.513,3.413,3.413,0,0,0-.8,2.7c0,.2.13.535-.178.6s-.321-.257-.382-.424a3.017,3.017,0,0,0-2.117-1.791,4.53,4.53,0,0,1-2.437-2.3,26.032,26.032,0,0,1-1.6-2.916c-.191-.43-.423-.979.143-1.243s.683.34.881.694A3.049,3.049,0,0,0,46.079,12.313ZM50.954,13.7a2.248,2.248,0,0,0-.651-1.642,2.172,2.172,0,0,0-1.623-.642A2.108,2.108,0,0,0,46.673,13.5a2.266,2.266,0,0,0,2.164,2.236,2.209,2.209,0,0,0,2.117-2.069Z" transform="translate(-25.378 -6.965)" fill="#08a553"/>
    <path id="Path_11732" data-name="Path 11732" d="M40.964,50.693c-.628,0-.765.444-.99.694-.321.41-.594.861-.881,1.291s-.594.646-1.024.333-.389-.694-.055-1.152c.457-.59.881-1.208,1.365-1.833-.444-.25-.587.069-.792.243a15.134,15.134,0,0,1-1.782,1.736c-.253.16-.526.354-.778.132a.752.752,0,0,1-.068-.951A8.708,8.708,0,0,1,37.5,49.429a1.462,1.462,0,0,0,.5-.819c-.362,0-.546.271-.765.451a10.456,10.456,0,0,1-.949.805.675.675,0,0,1-.976-.1.661.661,0,0,1-.108-.561.65.65,0,0,1,.367-.432c.492-.375,1-.729,1.488-1.118.212-.174.5-.292.553-.639-.614,0-.963.465-1.434.694-.184.09-.348.229-.539.305-.328.125-.683.174-.908-.174A.6.6,0,0,1,35.051,47c1-.653,2.048-1.208,2.984-1.944a4.424,4.424,0,0,1,3.68-.951c.86.146,1.454-.424,2.144-.757.157-.076.307-.271.478-.09s0,.368-.109.479a3.323,3.323,0,0,0-.6,3.1,4.008,4.008,0,0,1-.43,2.52,36.822,36.822,0,0,1-2.014,3.471c-.239.368-.574.729-1.017.417s-.218-.694,0-1.069S40.636,51.262,40.964,50.693Zm1.625-3.277a2.1,2.1,0,0,0-.578-1.513,2.032,2.032,0,0,0-1.47-.632,2.077,2.077,0,0,0-1.505.585,2.148,2.148,0,0,0-.652,1.5,2.257,2.257,0,0,0,2.048,2.312A2.161,2.161,0,0,0,41.97,49,2.235,2.235,0,0,0,42.589,47.416Z" transform="translate(-22.509 -17.963)" fill="#08a553"/>
    <path id="Path_14081" data-name="Path 14081" d="M0,0H.164L.174,1.49H.009Z" transform="translate(27.714 12.264) rotate(24.17)" fill="#08a553"/>
    <path id="Path_14082" data-name="Path 14082" d="M0,0H.164l0,1.492H0Z" transform="translate(27.041 12.148) rotate(5.11)" fill="#08a553"/>
    <path id="Path_14083" data-name="Path 14083" d="M.01,0H.174l0,1.492H.008Z" transform="translate(26.534 12.201) rotate(-5.67)" fill="#08a553"/>
    <path id="Path_14084" data-name="Path 14084" d="M.042.005H.207L.2,1.492H.032Z" transform="matrix(0.888, -0.459, 0.459, 0.888, 25.77, 12.37)" fill="#08a553"/>
    <ellipse id="Ellipse_450" data-name="Ellipse 450" cx="0.212" cy="0.215" rx="0.212" ry="0.215" transform="translate(27.542 12.151)" fill="#08a553"/>
    <ellipse id="Ellipse_451" data-name="Ellipse 451" cx="0.212" cy="0.215" rx="0.212" ry="0.215" transform="translate(26.969 11.915)" fill="#08a553"/>
    <ellipse id="Ellipse_452" data-name="Ellipse 452" cx="0.212" cy="0.215" rx="0.212" ry="0.215" transform="translate(25.658 12.089)" fill="#08a553"/>
    <ellipse id="Ellipse_453" data-name="Ellipse 453" cx="0.212" cy="0.215" rx="0.212" ry="0.215" transform="translate(26.354 11.874)" fill="#08a553"/>
    <text id="The_Indian_Golf_Union" data-name="The Indian Golf Union" transform="translate(0 52.518)" fill="#08a553" font-size="5" font-family="Mongolian Baiti"><tspan x="0" y="0">The Indian Golf Union</tspan></text>
  </g>
</svg>
