<svg xmlns="http://www.w3.org/2000/svg" width="66.9" height="68.036" viewBox="0 0 66.9 68.036">
  <g id="Kho-Kho_Federation_of_India" data-name="Kho-Kho Federation of India" transform="translate(0)">
    <path id="Path_13478" data-name="Path 13478" d="M81.462,45.045C81.648,63.179,67.775,78.088,50.389,79.3c-19.488,1.357-35.1-14.074-35.8-32.509-.729-19.159,13.912-34.432,31.6-35.394C65.193,10.36,81.295,25.681,81.462,45.045ZM48.04,12.553C30.325,12.5,15.664,27.234,15.738,45.5c.073,17.971,14.438,32.6,32.117,32.679,17.958.083,32.282-14.727,32.435-32.512C80.447,27.343,65.754,12.512,48.04,12.553Z" transform="translate(-14.564 -11.344)" fill="#eb7c3d"/>
    <path id="Path_13479" data-name="Path 13479" d="M46.79,77.283c.017-16.446,13.31-29.69,29.466-29.409a29.234,29.234,0,0,1,28.4,29.75c-.165,16.175-13.3,29.295-29.34,29.078A29.242,29.242,0,0,1,46.79,77.283Zm9.561,20.177.05.047a1.083,1.083,0,0,0,.31.3,8.156,8.156,0,0,0,.886.841,27.351,27.351,0,0,0,34.271,1.585,21.7,21.7,0,0,0,2.523-2.094.04.04,0,0,0,.027-.027,1.113,1.113,0,0,0,.336-.314l.055-.054a.641.641,0,0,0,.226-.214,22.392,22.392,0,0,0,2.139-2.342,27.8,27.8,0,0,0,3.408-5.332,16.711,16.711,0,0,0,.931-2.157l.039-.086a.034.034,0,0,0,.013-.044.125.125,0,0,0,.052-.125l.011-.01V87.42l.035-.087.08-.221a3.5,3.5,0,0,0,.28-.791l.056-.167a.53.53,0,0,0,.094-.285.517.517,0,0,0,.078-.275.121.121,0,0,0,.035-.118.665.665,0,0,0,.1-.341.332.332,0,0,0,.064-.222,2.021,2.021,0,0,0,.153-.57l.011-.053.031-.1c.008-.041.017-.081.024-.121a1.12,1.12,0,0,0,.1-.4l.01-.053.036-.161c.022-.08.05-.16.067-.241a28.763,28.763,0,0,0,.472-8.808A28.145,28.145,0,0,0,80.485,49.471a26.621,26.621,0,0,0-10.17.123,27.368,27.368,0,0,0-14.631,8.183,28.413,28.413,0,0,0-7.649,21.6,24.885,24.885,0,0,0,.594,4.027.867.867,0,0,0,.08.331v.019a.265.265,0,0,0,.013.036l.052.227a.818.818,0,0,0,.129.438.186.186,0,0,0,.031.181l.024.078v.01a.827.827,0,0,0,.1.359.722.722,0,0,0,.1.341l.084.285.038.107a.72.72,0,0,0,.14.383.1.1,0,0,0,.028.124l.013.053a1.18,1.18,0,0,0,.14.4.781.781,0,0,0,.14.381c0,.009-.011.02-.008.026a.429.429,0,0,0,.027.043.42.42,0,0,0,.1.267l.022.073.039.087v.016l.013.009.015.054.066.178a1.133,1.133,0,0,0,.184.428l.025.078.036.07a.177.177,0,0,0,.066.15l.034.076h0l.049.1a.369.369,0,0,0,.1.217l.034.066h0a.116.116,0,0,0,.045.113.619.619,0,0,0,.129.272l.043.076h0a.483.483,0,0,0,.132.272.26.26,0,0,0,.078.172.638.638,0,0,0,.14.269h0l.041.073h0a.913.913,0,0,0,.171.325.7.7,0,0,0,.149.285.727.727,0,0,0,.156.267,1.16,1.16,0,0,0,.191.344.269.269,0,0,0,.1.175.477.477,0,0,0,.132.217l.052.08a.023.023,0,0,0,0,.021.022.022,0,0,0,.017.012l.042.068a.409.409,0,0,0,.126.211.8.8,0,0,0,.189.3h0a1.041,1.041,0,0,0,.226.334h0a7.021,7.021,0,0,0,.489.726,6.123,6.123,0,0,0,.628.855,16.161,16.161,0,0,0,1.542,1.843.361.361,0,0,0,.15.185,1.034,1.034,0,0,0,.293.318,1.874,1.874,0,0,0,.433.45h0l.055.054h0l.056.051Z" transform="translate(-42.273 -42.663)" fill="#128d3a"/>
    <path id="Path_13480" data-name="Path 13480" d="M444.82,303.463a.377.377,0,0,1-.01-.041l.021-.011Z" transform="translate(-384.5 -261.779)" fill="#f4f5f5"/>
    <path id="Path_13481" data-name="Path 13481" d="M437.94,324.817l.035-.087C437.964,324.759,437.948,324.789,437.94,324.817Z" transform="translate(-378.593 -280.06)" fill="#f4f5f5"/>
    <path id="Path_13482" data-name="Path 13482" d="M60.463,299.46a.213.213,0,0,1,.027.036l-.017.019a.266.266,0,0,1-.013-.036S60.461,299.466,60.463,299.46Z" transform="translate(-54.027 -258.392)" fill="#f4f5f5"/>
    <path id="Path_13483" data-name="Path 13483" d="M445.99,298.683a.188.188,0,0,1-.01-.04l.02-.013Z" transform="translate(-385.506 -257.68)" fill="#f4f5f5"/>
    <path id="Path_13484" data-name="Path 13484" d="M84.63,357.89l.042.068Z" transform="translate(-74.809 -308.493)" fill="#f4f5f5"/>
    <path id="Path_13485" data-name="Path 13485" d="M84.14,357.1l.052.08Z" transform="translate(-74.387 -307.816)" fill="#f4f5f5"/>
    <path id="Path_13486" data-name="Path 13486" d="M68.82,326.31c.014.029.027.058.039.087C68.845,326.368,68.834,326.339,68.82,326.31Z" transform="translate(-61.215 -281.415)" fill="#f4f5f5"/>
    <path id="Path_13487" data-name="Path 13487" d="M77.45,345.26l.041.073Z" transform="translate(-68.635 -297.663)" fill="#f4f5f5"/>
    <path id="Path_13488" data-name="Path 13488" d="M74.67,339.72l.043.076Z" transform="translate(-66.245 -292.913)" fill="#f4f5f5"/>
    <path id="Path_13489" data-name="Path 13489" d="M437.15,326.785c.014-.029.027-.057.039-.086Z" transform="translate(-377.914 -281.749)" fill="#f4f5f5"/>
    <path id="Path_13490" data-name="Path 13490" d="M73.21,336.58l.034.066Z" transform="translate(-64.989 -290.221)" fill="#f4f5f5"/>
    <path id="Path_13491" data-name="Path 13491" d="M65.64,317.62a.2.2,0,0,1,.027.034.166.166,0,0,1-.014.019Z" transform="translate(-58.48 -273.963)" fill="#f4f5f5"/>
    <path id="Path_13492" data-name="Path 13492" d="M62.06,305.77c.031.02.042.044.024.077C62.075,305.821,62.068,305.8,62.06,305.77Z" transform="translate(-55.402 -263.802)" fill="#f4f5f5"/>
    <path id="Path_13493" data-name="Path 13493" d="M72,333.8l.034.076Z" transform="translate(-63.949 -287.837)" fill="#f4f5f5"/>
    <path id="Path_13494" data-name="Path 13494" d="M114.17,395l.055.054Z" transform="translate(-100.208 -340.314)" fill="#f4f5f4"/>
    <path id="Path_13495" data-name="Path 13495" d="M114.57,395.39l.056.051Z" transform="translate(-100.552 -340.648)" fill="#f4f5f4"/>
    <path id="Path_13496" data-name="Path 13496" d="M115,395.77l.05.047Z" transform="translate(-100.921 -340.974)" fill="#f4f5f4"/>
    <path id="Path_13497" data-name="Path 13497" d="M71.24,332.23l.036.07C71.264,332.277,71.251,332.254,71.24,332.23Z" transform="translate(-63.296 -286.491)" fill="#f4f5f5"/>
    <path id="Path_13498" data-name="Path 13498" d="M69.17,327.09a.339.339,0,0,1,.029.034s-.01.013-.014.02Z" transform="translate(-61.516 -282.083)" fill="#f4f5f5"/>
    <path id="Path_13499" data-name="Path 13499" d="M164.288,90.555c-.367-.01-.733.047-1.1.01a1.751,1.751,0,0,1-.632-.178.3.3,0,0,1-.13-.482,2.119,2.119,0,0,1,.648-.64,4.66,4.66,0,0,1,1.354-.613,13.163,13.163,0,0,0,1.6-.155.577.577,0,0,0,.46-.2,1.059,1.059,0,0,0,.435-.428.637.637,0,0,1,.594-.336c.184,0,.237-.088.264-.248s.036-.378.236-.348c.161.024.182.234.175.4a.56.56,0,0,0,0,.084c.015.114-.055.285.073.329a.427.427,0,0,0,.435-.111,1.379,1.379,0,0,1,.561-.352c.126-.037.28-.064.352.064s-.071.21-.161.285c-.035.03-.073.057-.111.084s-.1.087-.081.161.108.066.163.051a1.818,1.818,0,0,1,.974.093.431.431,0,0,0,.593-.251.7.7,0,0,1,.428-.376.409.409,0,0,0,.271-.428,4.224,4.224,0,0,1,.332-1.524,1.324,1.324,0,0,1,1.121-.784,2.075,2.075,0,0,1,1.608.348c.209.143.485.178.65.428a1.05,1.05,0,0,1,0,1.1.143.143,0,0,0-.036.073c.008.428-.269.8-.15,1.251s.069.452-.359.62c-.032.013-.09.036-.088.053,0,.267-.207.478-.177.753.022.2.163.205.3.214a7.593,7.593,0,0,0,1.427-.143,17.963,17.963,0,0,0,3.8-1.156c.249-.1.5-.177.757-.264a1.249,1.249,0,0,0,.742-.6,3.608,3.608,0,0,0,.517-1.108.349.349,0,0,1,.172-.244c.14-.09.238-.057.233.123a6.941,6.941,0,0,1-.05.7c-.018.178.052.221.209.167a.989.989,0,0,0,.437-.285c.086-.1.17-.2.259-.294.07-.074.16-.165.261-.086s.043.188,0,.285a3.042,3.042,0,0,1-.421.586c-.036.048-.1.1-.062.17s.1.029.153.027c.149,0,.3-.01.443-.016.08,0,.154.014.172.1a.152.152,0,0,1-.025.122.147.147,0,0,1-.107.061c-.116.027-.234.046-.352.066-.088.016-.174.046-.163.151s.094.1.172.094c.192-.011.385-.024.579-.033.165-.007.132-.13.122-.224a7.472,7.472,0,0,0-.318-1.538,4.777,4.777,0,0,1-.241-1.97,1.713,1.713,0,0,0,0-.285c-.029-.48-.1-.537-.561-.428-.346.086-.444.024-.517-.334a1.473,1.473,0,0,0-.212-.516c-.029-.046-.067-.124-.1-.124-.378,0-.271-.3-.28-.5a4.266,4.266,0,0,0-.01-.757c-.076-.318-.153-.382-.478-.345-.14.016-.231-.053-.23-.174a1.118,1.118,0,0,1,.14-.671,3.111,3.111,0,0,1,2.449-1.269c.6-.033.882.217,1.071.8a3.978,3.978,0,0,1,.167,1.88c-.071.442-.046.492.388.495,1.4.009,2.788.257,4.186.338a6.662,6.662,0,0,1,1.3.21c.3.078.481.4.649.666.359.57.7,1.149,1.033,1.729a1.016,1.016,0,0,0,.258.321,3.75,3.75,0,0,1,.807,1.025.351.351,0,0,1-.06.438c-.341.238-.642.57-1.121.546-.244-.013-.411-.09-.474-.334a.356.356,0,0,0-.14-.234c-.25-.143-.236-.381-.189-.61a.878.878,0,0,0-.14-.664,6.283,6.283,0,0,0-1.11-1.46c-.313-.285-.359-.294-.718-.064a.463.463,0,0,1-.241.036c-.479,0-.959,0-1.438-.014-.16,0-.221.047-.2.207a17.534,17.534,0,0,0,.516,3.564,1.471,1.471,0,0,1,.1,1.163c-.052.117.021.232.109.328a.454.454,0,0,1,.018.713.311.311,0,0,0-.039.342,2.583,2.583,0,0,0,.231.446,2.715,2.715,0,0,1,.447,1.4,2.6,2.6,0,0,1-.378,1.36,4.827,4.827,0,0,0-.442,1.17c-.14.678-.461,1.306-.573,2-.024.143-.17.185-.28.244a1.277,1.277,0,0,0-.538,1.128.51.51,0,0,0,.348.335,7.155,7.155,0,0,1,3.181,2.432,4.556,4.556,0,0,0,1.72,1.384,1.331,1.331,0,0,0,.43.077c.39.037.509.214.435.606a2.671,2.671,0,0,1-.31.686,14.146,14.146,0,0,0-.849,2.041c-.07.224-.179.362-.421.368a.612.612,0,0,0-.3.123c-.2.121-.35.044-.407-.19a4.232,4.232,0,0,1-.039-1.394c.029-.326.06-.653.078-.981a.85.85,0,0,0-.266-.7,20.7,20.7,0,0,0-4.1-3.042c-.2-.115-.387-.257-.593-.359a1.923,1.923,0,0,1-.893-1.062.947.947,0,0,1-.059-.385c.01-.459.021-.918.015-1.377a.341.341,0,0,0-.125-.279.329.329,0,0,0-.3-.062,1.9,1.9,0,0,0-.994.721.75.75,0,0,0,.1.964,6.217,6.217,0,0,1,1.542,3.595,7.7,7.7,0,0,0,.294,1.227,1.931,1.931,0,0,0,.9,1.059c.3.192.325.485.015.674-.411.249-.831.483-1.246.728a.75.75,0,0,0-.247.175,2.507,2.507,0,0,1-1.383.76c-.185.066-.339-.051-.506-.068-.254-.027-.2-.221-.247-.371a.385.385,0,0,0-.017-.053c-.2-.489-.2-.495.349-.513a.461.461,0,0,0,.355-.167c.188-.219.377-.438.551-.667a1.69,1.69,0,0,0,.055-1.836c-.4-.885-.88-1.732-1.358-2.576a14.156,14.156,0,0,0-1.231-1.963,1.269,1.269,0,0,1-.14-1.445c.308-.663.74-1.252,1.085-1.893a18.941,18.941,0,0,1,.981-1.659,1.351,1.351,0,0,1,.636-.554.34.34,0,0,0,.257-.428.614.614,0,0,1,.14-.5,4.383,4.383,0,0,1,.561-.66c.14-.135.17-.275.046-.415a3.373,3.373,0,0,1-.821-1.839.168.168,0,0,0-.061-.122.162.162,0,0,0-.13-.035h-.83c-.08,0-.178,0-.192.111a.2.2,0,0,0,.119.2,1.835,1.835,0,0,0,.472.165c.088.021.207.038.185.162s-.14.08-.23.064a1.9,1.9,0,0,1-.32-.088,4.667,4.667,0,0,0-1.639-.111.883.883,0,0,0-.471.15c-.561.332-1.151.629-1.682,1.011a4.232,4.232,0,0,1-1.8.57c-1.144.2-2.29.389-3.445.52a1.249,1.249,0,0,0-.561.207c-.314.212-.631.428-.941.641a1.955,1.955,0,0,0-.639.754,6.181,6.181,0,0,1-2.058,2.158,17.85,17.85,0,0,1-2.02,1.232,14.669,14.669,0,0,0-2.1,1.425.209.209,0,0,0-.042,0,5.041,5.041,0,0,1,.017-.9c.1-1.267.2-2.533.3-3.8.066-.894.114-1.79.177-2.685.025-.378-.021-.4-.4-.326A6.662,6.662,0,0,0,164.288,90.555Z" transform="translate(-141.637 -69.185)" fill="#126fb6"/>
    <path id="Path_13500" data-name="Path 13500" d="M85.709,191.394l-.115-.009c-.255-.03-.51-.071-.767-.087a.394.394,0,0,1-.4-.342,6.543,6.543,0,0,1-.346-2.094c.024-.406-.258-.639-.439-.931v-.12a3.573,3.573,0,0,0-.28-1.944,1.262,1.262,0,0,1-.087-.741.527.527,0,0,1,.5-.5c1.121,0,2.243.026,3.364-.007a.367.367,0,0,0,.311-.128,17.275,17.275,0,0,1,1.348-1.4h0l.063-.057h0a6.738,6.738,0,0,1,.876-.47,1.651,1.651,0,0,0,.812-.606,17.366,17.366,0,0,0,.753-1.6,26.01,26.01,0,0,0,.859-3.25,4.087,4.087,0,0,1,1.57-2.579h0a3.582,3.582,0,0,1,.99-.328,5.328,5.328,0,0,0,1.382-.359,1.7,1.7,0,0,1,0,.224c-.084,1.119-.172,2.236-.252,3.354q-.184,2.531-.359,5.064l-.118.194c-.179.225-.362.446-.537.674-.374.485-.8.928-1.141,1.438h0c-.461.46-.807,1.021-1.246,1.5a.821.821,0,0,1-.816.285c-1.049-.217-2.1-.409-3.154-.593a.877.877,0,0,0-.932.285,2.657,2.657,0,0,1-.429.4,3.443,3.443,0,0,0-1.262,2.254,4.479,4.479,0,0,0,.412,1.9c.069.269-.018.47-.294.526A1.1,1.1,0,0,1,85.709,191.394Zm.14-5.63h-.261a.894.894,0,0,0-.959.78,1.9,1.9,0,0,0-.045.583c.015.314.059.336.311.168a5.894,5.894,0,0,0,1.147-1.041c.118-.134.355-.269.28-.428s-.32-.04-.478-.063Z" transform="translate(-73.63 -150.686)" fill="#126fb6"/>
    <path id="Path_13501" data-name="Path 13501" d="M166.841,167q.178-2.531.359-5.064c.08-1.118.168-2.235.252-3.354v-.224a1.205,1.205,0,0,0,.048-.5c.039-.428.08-.865.12-1.3a5.994,5.994,0,0,1,1.65-.75c.374-.073.421-.051.4.326-.063.9-.111,1.792-.177,2.685-.1,1.267-.2,2.533-.3,3.8a5.044,5.044,0,0,0-.017.9.8.8,0,0,0-.069.353c-.105,1.452-.219,2.9-.314,4.359-.059.894-.164,1.785-.177,2.681l-.011.163c-.111.909-.14,1.824-.216,2.735-.048.6-.1,1.193-.125,1.79-.011.249-.107.312-.336.3-.45-.016-.9-.02-1.351,0-.25.011-.385-.043-.342-.324l.008-.111c.032-.362.07-.724.1-1.088.078-1.157.153-2.315.23-3.472a.2.2,0,0,0,.014-.168.16.16,0,0,0,0-.188.177.177,0,0,0,0-.242l.013-.021a.154.154,0,0,0,.025-.157c.1-.862.147-1.73.2-2.6.007-.113.014-.227.02-.339A.252.252,0,0,0,166.841,167Z" transform="translate(-144.964 -135.19)" fill="#df0b17"/>
    <path id="Path_13502" data-name="Path 13502" d="M179.213,136.88a.577.577,0,0,1-.46.2,13.161,13.161,0,0,1-1.6.155l.1-1.6c0-.086.036-.143.132-.143a4.237,4.237,0,0,1,1.426.044c.387.107.468.245.435.643A2.762,2.762,0,0,0,179.213,136.88Z" transform="translate(-154.36 -117.769)" fill="#df0b17"/>
    <path id="Path_13503" data-name="Path 13503" d="M122.943,238.31l-.063.057Z" transform="translate(-107.697 -205.958)" fill="#f4f5f5"/>
    <path id="Path_13504" data-name="Path 13504" d="M208.3,309.063c.575-.468,1.091-.887,1.6-1.308q1.085-.891,2.169-1.787a.511.511,0,0,1,.345-.143h3.736a.426.426,0,0,1,.079.016c.028.105-.062.128-.112.168q-2.4,1.921-4.8,3.836c-.2.158-.238.258-.084.482,1.005,1.457,1.995,2.923,2.99,4.387a.7.7,0,0,1,.081.114c.034.073.121.143.078.227s-.14.058-.224.058h-3.4a.454.454,0,0,1-.42-.237c-.6-.877-1.222-1.735-1.833-2.6-.093-.133-.179-.134-.3-.038-.234.2-.472.389-.712.58a.408.408,0,0,0-.14.261c-.126.594-.265,1.186-.39,1.782a.274.274,0,0,1-.1.2.265.265,0,0,1-.215.056c-.981-.01-1.972-.009-2.959,0-.216,0-.294-.048-.238-.285q.77-3.335,1.522-6.674c.153-.676.307-1.35.453-2.026.045-.2.109-.316.357-.312.981.019,1.955.016,2.932,0,.272,0,.28.11.227.322-.21.9-.414,1.8-.618,2.708A1.5,1.5,0,0,0,208.3,309.063Z" transform="translate(-176.96 -263.844)" fill="#ed7a3b"/>
    <path id="Path_13505" data-name="Path 13505" d="M134.135,305.92c-.369.3-.718.582-1.07.855q-1.993,1.6-3.977,3.184c-.129.1-.164.165-.052.331,1.029,1.5,2.044,3,3.061,4.507l.094.143c.1.143.07.22-.115.22H128.51a.3.3,0,0,1-.28-.153c-.617-.885-1.242-1.765-1.859-2.651-.114-.165-.217-.18-.352-.041a.174.174,0,0,1-.041.039c-.828.393-.88,1.214-1.047,1.971-.048.218-.1.438-.14.657a.2.2,0,0,1-.074.142.2.2,0,0,1-.153.041h-3.1c-.193,0-.209-.094-.172-.251.209-.911.421-1.822.621-2.734l1.19-5.221c.062-.274.13-.546.179-.822.036-.21.14-.267.343-.265.959.009,1.918,0,2.878,0,.338,0,.35.02.28.348q-.31,1.353-.615,2.708a.726.726,0,0,0,0,.115c.164-.014.242-.143.345-.227q1.721-1.408,3.437-2.827a.417.417,0,0,1,.271-.118h3.817A1.03,1.03,0,0,1,134.135,305.92Z" transform="translate(-106.319 -263.888)" fill="#ed7a3b"/>
    <path id="Path_13506" data-name="Path 13506" d="M291.91,305.85h3.956c.331,0,.338,0,.269.318-.13.594-.28,1.185-.4,1.779a.308.308,0,0,1-.357.285c-1.456-.011-2.913,0-4.369-.016-.261,0-.385.07-.43.335a8.925,8.925,0,0,1-.22.956c-.066.228-.008.3.223.3q1.825-.013,3.645,0c.4,0,.5-.108.359.449s-.273,1.091-.369,1.644c-.045.259-.154.308-.383.306-1.217-.009-2.433,0-3.645,0-.432,0-.43,0-.528.436-.168.748-.343,1.5-.506,2.246a.287.287,0,0,1-.1.215.277.277,0,0,1-.229.058q-1.507-.017-3.014,0c-.241,0-.271-.077-.219-.3q.778-3.378,1.542-6.756c.14-.649.3-1.294.434-1.944.045-.225.13-.3.364-.3C289.255,305.856,290.583,305.85,291.91,305.85Z" transform="translate(-247.578 -263.871)" fill="#ed7a3b"/>
    <path id="Path_13507" data-name="Path 13507" d="M356.415,315.094h-1.522c-.191,0-.261-.041-.21-.261q.8-3.468,1.583-6.942c.14-.6.28-1.2.4-1.806.046-.231.149-.285.374-.285.967.013,1.936,0,2.9,0,.365,0,.367,0,.289.348q-.495,2.174-.991,4.347c-.327,1.425-.656,2.861-.971,4.295-.049.222-.126.314-.362.3C357.411,315.075,356.913,315.094,356.415,315.094Z" transform="translate(-306.993 -263.828)" fill="#ed7a3b"/>
    <path id="Path_13508" data-name="Path 13508" d="M290.643,375.617c-.077.428-.167.855-.226,1.29-.025.185-.125.172-.247.168-.191,0-.108-.143-.094-.224.112-.674.245-1.344.342-2.021.041-.285.227-.168.367-.191.195-.034.163.114.174.231a5.867,5.867,0,0,0,.147.965c.058-.329.13-.657.167-.989.022-.2.123-.225.28-.207.2.026.073.165.063.234-.107.674-.23,1.346-.336,2.02-.029.184-.14.178-.273.187-.165.009-.167-.087-.178-.208-.035-.416-.08-.831-.121-1.247Z" transform="translate(-251.431 -322.851)" fill="#101010"/>
    <path id="Path_13509" data-name="Path 13509" d="M339.038,375.514c-.077.44-.163.881-.226,1.324-.027.19-.122.228-.28.205-.191-.03-.076-.161-.063-.238.109-.683.234-1.361.341-2.044.036-.238.2-.13.317-.151s.206,0,.216.164a5.042,5.042,0,0,0,.147,1c.06-.328.128-.653.175-.982.022-.154.081-.208.23-.192.1.01.149.027.128.143-.129.713-.257,1.437-.373,2.157-.029.18-.151.123-.25.135-.149.021-.188-.068-.2-.2-.035-.448-.076-.894-.115-1.34Z" transform="translate(-293.026 -322.823)" fill="#101010"/>
    <path id="Path_13510" data-name="Path 13510" d="M173.365,375.728c.154.033.22-.033.238-.187.025-.214.09-.428.1-.637s.14-.227.293-.217c.1.007.147.029.125.151-.13.713-.254,1.435-.376,2.154-.036.212-.2.128-.307.13-.16,0-.091-.124-.079-.207.031-.2.073-.4.1-.609.011-.076.1-.208-.071-.205-.115,0-.289-.1-.325.135s-.1.495-.132.744c-.028.222-.185.143-.3.143-.164,0-.09-.131-.077-.205.114-.683.244-1.363.348-2.047.032-.22.164-.184.3-.178.213.01.093.165.085.248a3.378,3.378,0,0,1-.1.579C173.139,375.693,173.192,375.755,173.365,375.728Z" transform="translate(-150.389 -322.894)" fill="#141414"/>
    <path id="Path_13511" data-name="Path 13511" d="M134.174,375.718c.163.033.231-.031.247-.2.021-.222.081-.442.107-.664s.178-.175.308-.17c.2.007.087.154.076.225-.108.673-.234,1.341-.336,2.014-.034.227-.174.205-.317.19-.22-.023-.069-.174-.063-.254.011-.185.064-.368.088-.553.01-.084.1-.227-.092-.221-.121,0-.29-.077-.321.15s-.09.479-.114.72-.192.16-.311.157c-.171,0-.081-.143-.07-.211.114-.671.25-1.341.346-2.016.032-.227.15-.217.3-.2.241.023.076.182.07.269a2.957,2.957,0,0,1-.09.552C133.955,375.667,133.983,375.751,134.174,375.718Z" transform="translate(-116.692 -322.885)" fill="#0d0d0d"/>
    <path id="Path_13512" data-name="Path 13512" d="M351.228,374.66h.165c.388,0,.545.182.485.57q-.1.624-.216,1.244c-.091.473-.28.624-.764.63-.519,0-.516,0-.421-.512s.179-1,.261-1.49C350.807,374.664,350.8,374.664,351.228,374.66Zm-.23,2.071a.218.218,0,0,0,.185-.04.226.226,0,0,0,.087-.171c.08-.428.157-.864.229-1.3a.166.166,0,0,0-.026-.148.16.16,0,0,0-.134-.064c-.118-.01-.206-.011-.231.154-.072.472-.158.941-.247,1.41C350.835,376.7,350.873,376.751,351,376.731Z" transform="translate(-303.349 -322.873)" fill="#101010"/>
    <path id="Path_13513" data-name="Path 13513" d="M220.819,377.076c-.408,0-.405,0-.334-.416.1-.579.2-1.159.28-1.74.034-.227.119-.3.35-.285.8.02.858.084.718.89-.046.268-.088.536-.14.8C221.6,376.934,221.433,377.075,220.819,377.076Zm.7-1.853c.015-.143-.024-.218-.172-.232s-.2.023-.223.17c-.069.452-.14.9-.233,1.353-.041.2.045.218.2.2.125-.013.172-.088.193-.2Z" transform="translate(-191.589 -322.85)" fill="#101010"/>
    <path id="Path_13514" data-name="Path 13514" d="M242.584,374.606c.123.01.242.013.36.03a.3.3,0,0,1,.28.325,1.085,1.085,0,0,1-.221.788c-.073.08-.09.12-.034.227.149.285-.036.57-.034.847,0,.215-.091.244-.266.232-.132-.009-.154-.068-.14-.181.034-.182.067-.366.1-.55.022-.143-.018-.237-.171-.266-.181-.036-.164.11-.185.207-.045.21-.083.428-.114.634-.015.11-.05.158-.172.155-.16,0-.247.01-.2-.222.14-.677.242-1.36.353-2.043C242.2,374.465,242.447,374.686,242.584,374.606Zm.259.559c0-.1-.027-.191-.178-.2-.128-.008-.179.037-.189.17a2.392,2.392,0,0,1-.071.411c-.049.19.05.191.175.155C242.841,375.622,242.776,375.374,242.844,375.165Z" transform="translate(-209.923 -322.826)" fill="#0d0d0d"/>
    <path id="Path_13515" data-name="Path 13515" d="M185.473,374.5a.421.421,0,0,1,.458.543c-.069.453-.15.905-.233,1.357a.659.659,0,0,1-.28.468.621.621,0,0,1-.7.036c-.216-.135-.2-.356-.156-.577.081-.428.14-.87.234-1.3A.611.611,0,0,1,185.473,374.5Zm.067.617c0-.125.022-.237-.1-.259a.2.2,0,0,0-.173.032.212.212,0,0,0-.086.156q-.123.661-.231,1.323c-.018.108-.029.241.129.258a.2.2,0,0,0,.156-.046.209.209,0,0,0,.074-.148C185.388,375.982,185.466,375.532,185.54,375.115Z" transform="translate(-160.71 -322.734)" fill="#141414"/>
    <path id="Path_13516" data-name="Path 13516" d="M308.612,375.05c-.079.435-.154.944-.264,1.445a.593.593,0,0,1-.548.48c-.421.051-.636-.17-.568-.594.072-.452.14-.905.241-1.354a.615.615,0,0,1,.7-.533C308.48,374.507,308.621,374.661,308.612,375.05Zm-.4.067c.014-.151,0-.234-.1-.262a.187.187,0,0,0-.233.1.668.668,0,0,0-.06.185c-.073.406-.14.811-.213,1.216-.018.105-.029.22.1.258a.2.2,0,0,0,.176-.022.206.206,0,0,0,.091-.154C308.068,375.981,308.144,375.519,308.215,375.117Z" transform="translate(-266.197 -322.73)" fill="#101010"/>
    <path id="Path_13517" data-name="Path 13517" d="M161.885,375.544c.14-.217.3-.428.421-.653a.4.4,0,0,1,.542-.235c-.195.3-.378.593-.578.878a.433.433,0,0,0-.076.391c.076.3.14.6.2.9.015.08.112.22-.072.234-.125.01-.28.061-.311-.164s-.1-.476-.153-.751c-.226.2-.189.455-.234.677-.031.161-.07.272-.28.248-.132-.016-.153-.057-.133-.172.125-.7.252-1.4.364-2.1.032-.2.161-.162.28-.164.193,0,.107.143.1.218-.028.228-.076.453-.116.68Z" transform="translate(-140.65 -322.842)" fill="#101010"/>
    <path id="Path_13518" data-name="Path 13518" d="M146.408,374.5c.363,0,.53.18.477.549-.067.462-.15.921-.235,1.38a.622.622,0,0,1-.47.533c-.472.12-.736-.124-.656-.613.073-.443.14-.887.235-1.326A.591.591,0,0,1,146.408,374.5Zm.1.6c0-.11,0-.218-.128-.241a.2.2,0,0,0-.23.151,1.572,1.572,0,0,0-.052.217c-.063.366-.121.733-.188,1.1-.022.123-.069.259.093.3s.245-.077.28-.234Z" transform="translate(-127.154 -322.736)" fill="#101010"/>
    <path id="Path_13519" data-name="Path 13519" d="M280.876,374.991c-.077.413-.154.921-.269,1.425a.6.6,0,0,1-.608.477c-.336.02-.547-.164-.5-.5a14.676,14.676,0,0,1,.268-1.518.634.634,0,0,1,.312-.414.616.616,0,0,1,.512-.037C280.823,374.488,280.9,374.667,280.876,374.991Zm-.388,0c.015-.11.01-.217-.126-.234a.212.212,0,0,0-.169.046.22.22,0,0,0-.079.159c-.08.428-.156.855-.223,1.29-.015.1-.055.244.1.277s.241-.081.266-.217c.083-.44.153-.882.228-1.323Z" transform="translate(-242.354 -322.638)" fill="#0d0d0d"/>
    <path id="Path_13520" data-name="Path 13520" d="M123.6,374.637a.587.587,0,0,1-.029.067,3.363,3.363,0,0,0-.607.989,3.148,3.148,0,0,0,.186,1.116c.014.08.132.208-.059.229-.14.014-.293.057-.321-.175s-.094-.475-.149-.738c-.238.2-.209.472-.241.7s-.14.232-.294.212c-.212-.027-.1-.175-.083-.272.111-.664.238-1.324.336-2,.034-.231.177-.168.3-.167.195,0,.091.143.08.221a3.333,3.333,0,0,0-.052.661c.14-.217.294-.428.421-.651a.386.386,0,0,1,.215-.212.377.377,0,0,1,.3.011Z" transform="translate(-106.907 -322.82)" fill="#0d0d0d"/>
    <path id="Path_13521" data-name="Path 13521" d="M253.592,375.486v1.26c0,.154-.014.241-.2.232s-.2-.066-.177-.22c.011-.078.073-.235-.1-.228-.14,0-.343-.1-.405.154-.039.16-.057.341-.3.292-.1-.02-.123-.054-.092-.143.244-.733.472-1.47.737-2.194.083-.225.327-.077.493-.093s.081.143.084.212c.01.244,0,.486,0,.728Zm-.356-.3H253.2c-.088.271-.179.54-.264.811-.02.064-.086.143,0,.2a.406.406,0,0,0,.216.011c.112-.01.083-.105.083-.172C253.236,375.743,253.236,375.464,253.236,375.184Z" transform="translate(-218.973 -322.748)" fill="#0d0d0d"/>
    <path id="Path_13522" data-name="Path 13522" d="M368.068,375.787c0,.345-.007.691,0,1.036,0,.17-.085.168-.207.175s-.17-.044-.171-.175c0-.1.093-.267-.118-.275-.168-.007-.359-.053-.4.205a.389.389,0,0,1-.081.2.257.257,0,0,1-.28.02c-.093-.044-.014-.13.007-.194.224-.681.461-1.358.671-2.044.1-.316.329-.158.5-.172.213-.019.108.17.111.267.011.318,0,.636,0,.954Zm-.356-.57h-.039l-.259.807c-.02.06-.07.143-.01.174a.431.431,0,0,0,.238.016c.092-.01.069-.1.069-.155,0-.279,0-.557,0-.837Z" transform="translate(-317.396 -322.77)" fill="#0d0d0d"/>
    <path id="Path_13523" data-name="Path 13523" d="M210.736,377.055c-.5,0-.5,0-.421-.5.091-.582.2-1.16.293-1.74.024-.143.07-.209.228-.2.22.016.442,0,.663,0,.071,0,.191-.038.16.111-.02.1.017.245-.161.237a1.441,1.441,0,0,1-.193,0c-.266-.05-.352.063-.4.332-.055.3.013.393.3.349.062-.01.174-.03.14.093-.018.087.022.222-.123.247h-.056c-.123.018-.3-.067-.36.05a2.065,2.065,0,0,0-.116.544c-.02.1.046.1.115.1h.3c.076.007.212-.06.188.111-.017.12,0,.285-.2.258A3.341,3.341,0,0,0,210.736,377.055Z" transform="translate(-182.842 -322.829)" fill="#141414"/>
    <path id="Path_13524" data-name="Path 13524" d="M232.148,377.066c-.513,0-.507,0-.421-.5.1-.57.2-1.14.293-1.71.024-.158.062-.235.235-.224.22.014.443,0,.663,0,.06,0,.174-.037.156.091-.014.1.02.242-.14.258a.885.885,0,0,1-.221,0c-.249-.046-.356.048-.384.312-.038.344-.059.342.3.369.073,0,.161-.014.14.108-.018.093.01.258-.14.227-.444-.1-.458.2-.509.5-.028.174.014.217.17.2a1.811,1.811,0,0,1,.25,0c.08,0,.207-.047.174.121-.021.107.018.262-.181.244C232.408,377.056,232.278,377.066,232.148,377.066Z" transform="translate(-201.248 -322.843)" fill="#101010"/>
    <path id="Path_13525" data-name="Path 13525" d="M318.711,374.559a1.762,1.762,0,0,1,.28,0c.072.011.213-.073.2.1-.011.117,0,.254-.2.258-.477.011-.467.027-.545.507-.029.182.013.228.188.227.079,0,.244-.105.24.11,0,.17-.076.261-.255.225-.227-.044-.307.071-.322.285-.011.167-.067.331-.077.5-.014.227-.147.254-.318.221-.2-.036-.076-.184-.063-.267.1-.619.224-1.233.311-1.853.035-.258.128-.365.381-.316a1.089,1.089,0,0,0,.193,0Z" transform="translate(-275.279 -322.77)" fill="#141414"/>
    <path id="Path_13526" data-name="Path 13526" d="M201.09,374.595a2.386,2.386,0,0,1,.3,0c.073.009.21-.063.188.113-.015.117,0,.258-.192.238a.918.918,0,0,1-.14,0c-.28-.058-.364.07-.393.335-.038.351-.056.352.29.4.073.01.14.014.109.108s.022.255-.14.224c-.44-.087-.432.228-.474.51a1.9,1.9,0,0,0-.05.3c0,.238-.154.221-.3.2-.2-.024-.087-.162-.071-.254.1-.627.227-1.25.311-1.88.034-.25.125-.339.36-.3A1.249,1.249,0,0,0,201.09,374.595Z" transform="translate(-174.153 -322.807)" fill="#141414"/>
    <path id="Path_13527" data-name="Path 13527" d="M265.612,374.6c.121,0,.241-.009.359,0,.074.007.216-.07.2.1-.011.118-.014.285-.212.248s-.245.071-.273.242c-.087.553-.195,1.1-.273,1.659-.029.218-.16.192-.3.184-.212-.013-.1-.171-.083-.252.085-.544.175-1.089.28-1.629.036-.181-.014-.211-.17-.207-.07,0-.216.06-.175-.117.024-.1,0-.255.2-.231a3.779,3.779,0,0,0,.442,0Z" transform="translate(-229.861 -322.812)" fill="#0d0d0d"/>
    <path id="Path_13528" data-name="Path 13528" d="M332.871,377.075c-.163.021-.234,0-.2-.191.13-.687.251-1.378.355-2.071.035-.232.185-.164.307-.167.172,0,.091.125.079.2-.116.683-.238,1.364-.353,2.047C333.039,377.025,333.012,377.122,332.871,377.075Z" transform="translate(-288.074 -322.855)" fill="#141414"/>
    <path id="Path_13529" data-name="Path 13529" d="M361.761,377.059c-.14.026-.2-.011-.17-.177q.189-1.045.359-2.1c.035-.224.189-.16.311-.154.179.007.073.143.062.207-.109.683-.23,1.363-.343,2.044C361.957,377.015,361.908,377.1,361.761,377.059Z" transform="translate(-312.94 -322.839)" fill="#0d0d0d"/>
    <path id="Path_13530" data-name="Path 13530" d="M273.418,377.056c-.153.029-.192-.034-.165-.187.129-.7.257-1.4.369-2.1.035-.224.185-.134.293-.143.165-.01.1.117.088.2-.119.68-.25,1.358-.359,2.041C273.619,377.026,273.568,377.083,273.418,377.056Z" transform="translate(-236.984 -322.834)" fill="#0d0d0d"/>
    <path id="Path_13531" data-name="Path 13531" d="M93.938,257.33c.158.023.421-.083.478.058.07.163-.167.3-.28.428a5.9,5.9,0,0,1-1.147,1.041c-.252.168-.3.143-.311-.168a1.9,1.9,0,0,1,.039-.579.89.89,0,0,1,.959-.78C93.76,257.327,93.838,257.33,93.938,257.33Z" transform="translate(-81.722 -222.253)" fill="#f4f5f5"/>
    <path id="Path_13532" data-name="Path 13532" d="M169.9,234.734h-.107l.118-.194A.252.252,0,0,1,169.9,234.734Z" transform="translate(-148.031 -202.725)" fill="#f4f5f5"/>
  </g>
</svg>
