<svg id="layer1" xmlns="http://www.w3.org/2000/svg" width="52.819" height="49.692" viewBox="0 0 52.819 49.692">
  <g id="g1292">
    <g id="g920" transform="translate(6.569)">
      <path id="path922" d="M-9.488-8.04c-.442-5.1-.857-10.161-1.3-15.269.009-.329-.283-.45-.373-.187-.353,1.053-1.632.355-1.135-.566.864-1.425,2.829-1.184,2.79.942l.878,14.962C-7.757-13.2-6.871-18.2-6-23.25c.093-.314-.159-.508-.312-.276-.609.923-1.667-.088-.954-.847,1.2-1.149,3.035-.4,2.456,1.644L-7.769-8.045c2.126-4.646,4.254-9.236,6.38-13.886.169-.281-.025-.533-.23-.35-.824.732-1.589-.523-.705-1.068,1.449-.794,3.031.414,1.954,2.235l-6.6,13.4c3.237-3.928,6.461-7.8,9.7-11.735.235-.226.112-.521-.134-.4-.982.49-1.4-.923-.409-1.217,1.6-.386,2.823,1.2,1.318,2.672L-6.279-7.176c4.126-2.943,8.226-5.837,12.354-8.783.285-.157.241-.475-.028-.421-1.074.215-1.117-1.26-.086-1.283,1.646.049,2.423,1.9.594,2.928L-5.751-6.479C-1.016-8.235,3.681-9.952,8.42-11.711c.314-.077.353-.4.08-.414-1.091-.075-.76-1.511.243-1.263,1.577.481,1.857,2.473-.172,2.986L-5.416-5.666C-.4-6.117,4.578-6.54,9.6-6.992c.323.01.442-.288.182-.378-1.035-.36-.348-1.661.557-1.155,1.4.879,1.163,2.877-.927,2.837L-5.3-4.794c4.964.887,9.878,1.788,14.847,2.673.309.093.5-.163.272-.318-.908-.619.086-1.7.831-.968,1.13,1.217.392,3.085-1.617,2.5L-5.413-3.921C-.842-1.758,3.674.4,8.248,2.567c.275.173.524-.025.345-.234-.721-.838.514-1.614,1.05-.717.781,1.473-.408,3.082-2.2,1.987L-5.739-3.107C-1.877.186,1.935,3.463,5.8,6.756c.222.239.513.115.393-.136-.482-1,.908-1.424,1.2-.416.38,1.628-1.177,2.871-2.628,1.34L-6.265-2.408c2.894,4.2,5.742,8.366,8.64,12.565.153.289.466.245.413-.029-.212-1.09,1.239-1.136,1.262-.087-.047,1.674-1.868,2.463-2.88.6L-6.949-1.868C-5.222,2.948-3.532,7.723-1.8,12.542c.075.32.388.36.407.081.073-1.11,1.486-.771,1.24.248-.472,1.6-2.432,1.888-2.935-.175L-7.748-1.528c.443,5.105.858,10.163,1.3,15.272-.008.329.285.45.373.185.354-1.052,1.632-.354,1.136.567-.864,1.425-2.829,1.183-2.791-.942L-8.606-1.408c-.871,5.047-1.758,10.042-2.628,15.094-.093.314.16.508.313.276.609-.923,1.666.088.952.845-1.2,1.15-3.034.4-2.456-1.643L-9.464-1.521c-2.127,4.646-4.254,9.238-6.381,13.888-.169.281.025.533.232.35.824-.732,1.587.523.705,1.068-1.45.794-3.032-.415-1.954-2.235l6.6-13.4c-3.237,3.928-6.46,7.8-9.7,11.734-.234.226-.112.523.135.4.982-.49,1.4.923.409,1.217-1.6.385-2.823-1.2-1.319-2.673l9.785-11.212C-15.081.554-19.181,3.449-23.31,6.395c-.285.157-.241.473.028.421,1.074-.215,1.118,1.26.086,1.283-1.645-.049-2.422-1.9-.594-2.929l12.306-8.255C-16.218-1.33-20.916.388-25.653,2.147c-.315.077-.354.395-.08.414,1.091.075.758,1.511-.245,1.263-1.577-.481-1.855-2.473.173-2.986L-11.817-3.9c-5.021.451-10,.873-15.019,1.326-.323-.01-.442.288-.183.378,1.035.36.348,1.66-.556,1.155-1.4-.879-1.163-2.877.925-2.838l14.715-.892C-16.9-5.658-21.81-6.559-26.778-7.444c-.309-.093-.5.163-.272.318.908.619-.087,1.694-.832.968-1.13-1.217-.392-3.085,1.617-2.5l14.441,3.011c-4.569-2.163-9.084-4.326-13.657-6.488-.276-.173-.524.024-.345.234.72.838-.515,1.614-1.05.717-.782-1.474.407-3.084,2.2-1.987L-11.5-6.459c-3.863-3.292-7.673-6.57-11.541-9.862-.221-.239-.513-.115-.392.136.482,1-.908,1.424-1.2.416-.38-1.628,1.178-2.871,2.628-1.342L-10.972-7.16c-2.893-4.2-5.739-8.365-8.636-12.563-.154-.288-.467-.245-.414.03.212,1.09-1.239,1.136-1.262.086.048-1.673,1.868-2.463,2.88-.6L-10.285-7.7c-1.727-4.816-3.416-9.592-5.147-14.41-.074-.32-.388-.36-.406-.081-.074,1.11-1.487.771-1.242-.248.472-1.6,2.432-1.888,2.936.175ZM-8.617-4.2a.572.572,0,0,1-.568-.578.572.572,0,0,1,.568-.578.572.572,0,0,1,.568.578.572.572,0,0,1-.568.578" transform="translate(28.458 24.959)" fill="#06038d" fill-rule="evenodd"/>
    </g>
    <g id="g924" transform="translate(32.415 43.534)">
      <path id="path926" d="M-7.348-2.893h1l.771-1.938,2.222.011.725,1.927h1L-4.209-8.919h-.55Zm-1.111.007H-7.6V-8.98h-.856Zm-5.709-.02h1.884a3.045,3.045,0,1,0-.086-6.074h-1.8Zm.856-.759v-4.41h1.249c2.775,0,2.814,4.41,0,4.41Zm-2.445.77h.684V-8.98h-.805v4.552L-19.616-8.98h-.62V-2.9h.807V-7.239ZM-22.038-2.9h.857V-8.98h-.857ZM-5.22-5.66-4.475-7.4l.718,1.735Z" transform="translate(22.038 8.98)" fill="#06038d" fill-rule="evenodd"/>
    </g>
    <g id="g928" transform="translate(0 43.507)">
      <path id="path930" d="M-13.544-2.906h.877v-3.2l2.326-2.86h-1.108l-1.633,2.076-1.587-2.076h-4.179v6.061h3.33v-.806h-2.474V-5.553h2.4v-.812h-2.4V-8.09h2.416v-.655l2.032,2.671Zm-12.511.068A3.047,3.047,0,0,1-29.048-5.93a3.047,3.047,0,0,1,2.994-3.091A3.867,3.867,0,0,1-24-8.447v.98a3.33,3.33,0,0,0-2.04-.652A2.164,2.164,0,0,0-28.161-5.93a2.154,2.154,0,0,0,2.107,2.188A2.914,2.914,0,0,0-24-4.463v1.006a3.17,3.17,0,0,1-2.052.619Zm-6.226,0A3.047,3.047,0,0,1-35.275-5.93,3.047,3.047,0,0,1-32.28-9.021a3.047,3.047,0,0,1,3,3.091,3.047,3.047,0,0,1-3,3.092Zm0-.915A2.144,2.144,0,0,1-34.388-5.93,2.145,2.145,0,0,1-32.28-8.106,2.145,2.145,0,0,1-30.171-5.93,2.145,2.145,0,0,1-32.28-3.753Zm-8.342.844h.856v-2.63h3.044v2.63h.856V-8.994h-.856v2.614h-3.044V-8.994h-.856Zm17.142,0h.856V-5.332l2.476,2.465,1.249,0-3.131-3.049,2.9-3.058h-1.2l-2.3,2.457V-8.994h-.856Z" transform="translate(40.623 9.021)" fill="#06038d" fill-rule="evenodd"/>
    </g>
  </g>
</svg>
