<svg width="54" height="54" viewBox="0 0 54 54" fill="none" xmlns="http://www.w3.org/2000/svg">
<circle cx="27" cy="27" r="27" fill="#F8F9FE"/>
<g clip-path="url(#clip0_55_2)">
<path d="M33.364 32.3639L27 38.7279L20.636 32.3639C19.3773 31.1052 18.5202 29.5016 18.1729 27.7558C17.8257 26.0099 18.0039 24.2004 18.6851 22.5558C19.3663 20.9113 20.5198 19.5057 21.9999 18.5168C23.4799 17.5278 25.22 17 27 17C28.78 17 30.5201 17.5278 32.0001 18.5168C33.4802 19.5057 34.6337 20.9113 35.3149 22.5558C35.9961 24.2004 36.1743 26.0099 35.8271 27.7558C35.4798 29.5016 34.6227 31.1052 33.364 32.3639ZM27 27.9999C27.5304 27.9999 28.0391 27.7892 28.4142 27.4141C28.7893 27.0391 29 26.5304 29 25.9999C29 25.4695 28.7893 24.9608 28.4142 24.5857C28.0391 24.2106 27.5304 23.9999 27 23.9999C26.4696 23.9999 25.9609 24.2106 25.5858 24.5857C25.2107 24.9608 25 25.4695 25 25.9999C25 26.5304 25.2107 27.0391 25.5858 27.4141C25.9609 27.7892 26.4696 27.9999 27 27.9999Z" fill="#228FBF"/>
</g>
<defs>
<clipPath id="clip0_55_2">
<rect width="24" height="24" fill="white" transform="translate(15 15)"/>
</clipPath>
</defs>
</svg>
