<svg xmlns="http://www.w3.org/2000/svg" width="79.999" height="96.2" viewBox="0 0 79.999 96.2">
  <g id="Athletics_Federation_of_India" data-name="Athletics Federation  of India" transform="translate(0 0)">
    <path id="Path_10714" data-name="Path 10714" d="M232.083,25.677a39.931,39.931,0,1,1,.612,79.859A38.8,38.8,0,0,1,205.211,94.72a39.438,39.438,0,0,1-12.719-28.352A40.08,40.08,0,0,1,232.083,25.677ZM205.155,40.019c-.256.059-.353.286-.5.467-.537.628-1.1,1.229-1.6,1.889-.445.585-.9,1.165-1.325,1.769-.4.572-.8,1.161-1.163,1.764s-.747,1.155-1.055,1.766-.628,1.2-.914,1.819c-.3.653-.608,1.305-.884,1.971-.365.877-.675,1.775-.965,2.679-.183.572-.338,1.162-.515,1.74-.187.614-.322,1.239-.458,1.86a11.511,11.511,0,0,0-.249,1.211c-.08.776-.248,1.536-.326,2.313-.08.807-.186,1.616-.206,2.424a43.245,43.245,0,0,0,.084,5.077c.062.645.107,1.288.206,1.933.124.817.253,1.634.429,2.443.19.88.385,1.76.647,2.62.195.641.355,1.288.6,1.92.217.557.392,1.132.624,1.686.206.494.429.982.618,1.483.216.572.529,1.109.783,1.67.2.441.464.859.7,1.279a12.239,12.239,0,0,0,.631,1.121c.209.3.4.612.592.92.3.477.623.942.945,1.405.391.562.827,1.095,1.249,1.636a26.782,26.782,0,0,0,2.092,2.408c.525.531,1.05,1.062,1.587,1.581.379.368.8.7,1.158,1.08.2.213.444.353.653.544.365.331.773.614,1.165.914.5.378.972.793,1.5,1.119.475.286.934.608,1.415.893.889.525,1.762,1.073,2.685,1.543.952.484,1.918.937,2.905,1.339a22.2,22.2,0,0,0,2.8,1.016c.374.1.731.262,1.1.361.817.213,1.634.429,2.46.6s1.626.3,2.441.429c.843.143,1.69.208,2.536.3.637.072,1.288.067,1.922.09.789.029,1.574.014,2.368-.02,1.04-.047,2.072-.143,3.107-.245.761-.073,1.51-.215,2.261-.332a27.487,27.487,0,0,0,2.844-.647q1.269-.333,2.512-.747c.893-.3,1.756-.667,2.625-1.02a11.86,11.86,0,0,0,1.113-.461c.776-.411,1.583-.761,2.334-1.216.545-.329,1.1-.637,1.643-.97.462-.286.913-.588,1.362-.892.384-.258.769-.518,1.136-.793.733-.55,1.422-1.156,2.147-1.727.259-.206.489-.444.764-.637.183-.129.318-.362.5-.519a20.876,20.876,0,0,0,1.86-1.86q.909-.993,1.752-2.051c.482-.6.967-1.2,1.4-1.84.6-.882,1.2-1.762,1.717-2.7.355-.653.748-1.288,1.078-1.953.441-.89.859-1.792,1.232-2.719.345-.859.69-1.717.966-2.6.312-1,.621-1.995.836-3.02.127-.6.316-1.195.395-1.8.122-.932.3-1.86.381-2.795.077-.906.157-1.812.209-2.719.063-1.106,0-2.217-.046-3.323-.01-.249-.026-.5-.053-.753-.08-.734-.119-1.471-.235-2.2-.094-.592-.165-1.189-.286-1.776-.143-.747-.315-1.49-.491-2.231-.143-.615-.319-1.221-.491-1.827-.186-.653-.429-1.288-.655-1.932-.335-.95-.754-1.86-1.145-2.786-.3-.688-.67-1.344-1.013-2.012a11.46,11.46,0,0,0-.611-1.132c-.219-.331-.422-.671-.633-1-.309-.494-.621-.985-.947-1.468-.2-.3-.465-.572-.645-.88a10.973,10.973,0,0,0-1.111-1.454c-.339-.416-.688-.837-1.07-1.224-.469-.474-.884-1-1.352-1.473-.55-.554-1.122-1.083-1.7-1.606-.542-.487-1.1-.962-1.663-1.418-.531-.429-1.075-.84-1.634-1.225-.442-.3-.859-.647-1.319-.917-.54-.315-1.058-.668-1.594-.989-.477-.286-.955-.572-1.454-.81-.416-.2-.82-.421-1.239-.612-.375-.17-.738-.381-1.119-.528-.716-.279-1.431-.592-2.161-.85-.678-.239-1.352-.5-2.041-.7-.94-.272-1.888-.525-2.846-.727-1.2-.253-2.4-.461-3.623-.6-1.122-.127-2.247-.21-3.373-.268a30.142,30.142,0,0,0-3.03.044,3.215,3.215,0,0,0-.5.023c-.5.113-1.018.084-1.523.162-.7.107-1.431.127-2.121.272-.784.163-1.583.256-2.358.478-.67.192-1.359.325-2.024.535-.691.219-1.391.411-2.072.668-.833.313-1.679.6-2.486.973-.657.3-1.322.591-1.956.946-.677.381-1.37.734-2.038,1.135-1.1.663-2.178,1.368-3.217,2.131-.883.647-1.724,1.347-2.552,2.062s-1.587,1.494-2.338,2.277c-.06.062-.15.11-.133.219Z" transform="translate(-192.488 -25.675)" fill="#ea353a"/>
    <path id="Path_10715" data-name="Path 10715" d="M328.962,605.195a1.594,1.594,0,0,1,1.288.746c.143.2.245.2.382.019a.111.111,0,0,1,.019-.016c.461-.429.4-.651-.107-1.06a2.36,2.36,0,0,0-1.759-.429,2.5,2.5,0,0,0-.909.26c-.067.033-.157.112-.222.037s.007-.172.041-.249a2.292,2.292,0,0,1,2.371-1.491,5.825,5.825,0,0,1,1.918.425,1.949,1.949,0,0,1,1.279,1.845c.082,1.128.218,2.253.336,3.377.143,1.352.286,2.7.441,4.054a.754.754,0,0,0,.585.671,1.671,1.671,0,0,0,.239.044c.1.011.177.05.195.153s-.044.143-.117.2c-.4.255-.793.512-1.189.768-.143.1-.3.2-.449.286a.315.315,0,0,1-.365-.01,2.513,2.513,0,0,1-1.11-1.654,11.271,11.271,0,0,1-.286-1.953.256.256,0,0,0-.2-.262q-1.739-.528-3.476-1.066a.256.256,0,0,0-.321.086,3.909,3.909,0,0,1-.351.374c-.125.119-.089.193.054.246a4.039,4.039,0,0,1,.83.4,2.5,2.5,0,0,1,.359.286c.286.273.286.286.63.067.17-.107.286-.094.371.092a.172.172,0,0,1-.076.246c-.678.421-1.351.849-2.025,1.274a.286.286,0,0,1-.355-.029A6.008,6.008,0,0,0,325.3,612a2.342,2.342,0,0,0-1.621-.034c-.05.019-.107.069-.153,0a.143.143,0,0,1,0-.115,2.137,2.137,0,0,1,1.7-1.507,2.487,2.487,0,0,1,.967.1.332.332,0,0,0,.368-.107q1.162-1.271,2.328-2.537a.313.313,0,0,0,.051-.421,1.711,1.711,0,0,0-1.942-.472c-.039.027-.079.056-.117.086-.077.064-.143.206-.252.143s-.01-.182.009-.27a1.9,1.9,0,0,1,.837-1.186A2.483,2.483,0,0,1,328.962,605.195Zm2.494,4.046c-.124-.96-.238-1.86-.359-2.766-.01-.082.029-.212-.076-.235s-.143.094-.2.157c-.331.349-.657.7-.985,1.05-.286.3-.572.6-.85.91-.064.072-.206.183,0,.25.757.243,1.517.478,2.278.716C331.376,609.355,331.457,609.325,331.457,609.241Z" transform="translate(-304.766 -520.388)" fill="#e93a3e"/>
    <path id="Path_10716" data-name="Path 10716" d="M433.262,630.91a1.305,1.305,0,0,1,.243-1.574,2.881,2.881,0,0,1,1.6-.892,2.211,2.211,0,0,1,1.392.365,13.854,13.854,0,0,0,1.689.871,1.761,1.761,0,0,0,1.079.036.922.922,0,0,0,.66-.929c.007-.977,0-1.955-.036-2.932-.029-.872-.029-1.745-.056-2.616a2.214,2.214,0,0,1,.555-1.637,6.822,6.822,0,0,1,1.332-1.315,5.126,5.126,0,0,1,1.08-.441c.1-.037.183.017.269.073a4.787,4.787,0,0,0,.766.472.684.684,0,0,0,.859-.207c.046-.055.073-.143.167-.109s.1.113.123.193a1.443,1.443,0,0,1-.872,1.65.578.578,0,0,0-.4.634c.05,2.208.076,4.418.11,6.626,0,.113.017.228.017.341,0,.169-.077.242-.258.24s-.219-.066-.22-.233c-.011-1.092-.031-2.184-.05-3.276,0-.354-.01-.361-.355-.354-.26,0-.521.024-.781.029-.172,0-.225.087-.22.248.017.545.014,1.092.043,1.637a1.874,1.874,0,0,1-.983,1.759,9.707,9.707,0,0,1-3.343,1.374,3.618,3.618,0,0,1-2.108-.235l-1.04-.419a.784.784,0,0,0-1.1.374Zm8.6-8.023h.04v1.145c0,.163.067.217.22.215.309-.009.618-.014.929-.01.167,0,.232-.067.228-.235-.011-.529-.02-1.059-.017-1.587,0-.182-.06-.266-.24-.295a1.608,1.608,0,0,1-.975-.459c-.034-.036-.077-.072-.129-.05s-.053.094-.053.15Z" transform="translate(-398.667 -534.806)" fill="#e93a3e"/>
    <path id="Path_10717" data-name="Path 10717" d="M532.611,612.362a1.674,1.674,0,0,0-.588.09c-.052.017-.12.037-.163-.01s0-.107.021-.157a1.6,1.6,0,0,1,1.234-1,2.21,2.21,0,0,1,1.683.173.246.246,0,0,0,.356-.073,2.74,2.74,0,0,1,.96-.811,1.981,1.981,0,0,1,.924-.183.616.616,0,0,1,.25.089c.123.067.162.132.023.227a.625.625,0,0,0-.3.809c.237.707.4,1.441.588,2.162.05.189.106.376.155.572.037.143.116.167.255.12.192-.064.392-.1.588-.16.166-.047.256,0,.3.177.1.418.216.833.335,1.248.04.143.01.219-.133.255-.2.05-.408.114-.614.155-.18.036-.229.13-.185.3l.386,1.431c.143.558.31,1.112.445,1.673.059.243.143.406.429.409a3.546,3.546,0,0,1,.358.07c.223.024.195.119.082.246a1.75,1.75,0,0,1-1.5.545,2.373,2.373,0,0,1-.783-.177.259.259,0,0,0-.348.1,2.626,2.626,0,0,1-2.044,1.033,1.087,1.087,0,0,1-.716-.378c-.1-.09,0-.143.073-.172a2.482,2.482,0,0,0,.544-.273,1.354,1.354,0,0,0,.438-1.521c-.165-.716-.379-1.414-.558-2.124-.046-.177-.127-.219-.295-.189a.839.839,0,0,0-.75.82c0,.143-.083.132-.143.092a1.012,1.012,0,0,1-.56-.694,3.171,3.171,0,0,1-.084-.6,1.3,1.3,0,0,1,.909-1.208c.394-.166.412-.16.295-.572a13.128,13.128,0,0,0-.452-1.6A1.312,1.312,0,0,0,532.611,612.362Zm6.045,7.012c-.059-.222-.124-.482-.195-.741-.185-.683-.372-1.364-.555-2.047-.143-.549-.286-1.1-.429-1.651-.19-.716-.385-1.431-.572-2.147q-.16-.6-.319-1.2c-.039-.143-.125-.185-.213-.059a1.492,1.492,0,0,0-.309.653,3.569,3.569,0,0,0,.2,1.39c.339,1.317.7,2.626,1.042,3.941a3.47,3.47,0,0,0,1.1,1.86,1,1,0,0,0,.156.116c.056.033.124.044.094-.11Z" transform="translate(-483.278 -526.711)" fill="#e93a3e"/>
    <path id="Path_10718" data-name="Path 10718" d="M448.68,640.253a1.345,1.345,0,0,1,1.043-1.414,1.785,1.785,0,0,1,.309-.069c.192-.013.258-.1.272-.286a1.718,1.718,0,0,1,.969-1.431,4.112,4.112,0,0,1,1.093-.408c.052-.01.115-.053.159.007a.134.134,0,0,1-.017.159,1.266,1.266,0,0,0-.167.751c.019,1.254.041,2.509.057,3.764a1.582,1.582,0,0,1-.336,1.093,2.037,2.037,0,0,1-1.527.7c-.143.007-.182-.046-.17-.19.057-.74,0-1.481,0-2.221,0-.162-.1-.222-.253-.23a.93.93,0,0,0-.879.585c-.05.1-.05.286-.185.286s-.132-.186-.187-.286A2.591,2.591,0,0,1,448.68,640.253Z" transform="translate(-412.017 -549.191)" fill="#e93a3e"/>
    <path id="Path_10719" data-name="Path 10719" d="M445.9,622.951a4.592,4.592,0,0,1-1.487-.3,1.625,1.625,0,0,0-1.7.3.376.376,0,0,1-.082.054c-.053.029-.1.109-.169.054s-.023-.12-.007-.183a2.741,2.741,0,0,1,1.6-1.889,3.009,3.009,0,0,1,2.261-.066,11.86,11.86,0,0,0,1.218.355,1.319,1.319,0,0,0,.907-.186c.063-.031.123-.115.195-.054s.023.153-.009.226a2.684,2.684,0,0,1-1.521,1.431A2.819,2.819,0,0,1,445.9,622.951Z" transform="translate(-406.651 -535.579)" fill="#e93a3e"/>
    <path id="Path_10720" data-name="Path 10720" d="M598.486,658.508a2.011,2.011,0,0,1-1.089,1.53,2.451,2.451,0,0,1-2.47.053c-.258-.133-.26-.2-.049-.4a6.33,6.33,0,0,0,1.212-1.556.265.265,0,0,1,.392-.143,3.04,3.04,0,0,0,1.725.177C598.433,658.146,598.5,658.222,598.486,658.508Z" transform="translate(-537.163 -567.472)" fill="#e93a3e"/>
    <path id="Path_10721" data-name="Path 10721" d="M517.806,679.608a2.512,2.512,0,0,1-1.5-.614c-.16-.132-.123-.215.022-.315a8.234,8.234,0,0,0,.974-.73c.213-.2.411-.415.608-.631a.236.236,0,0,1,.372-.042,3.3,3.3,0,0,0,1.633.514c.3.033.318.083.237.374A2.325,2.325,0,0,1,517.806,679.608Z" transform="translate(-469.874 -583.967)" fill="#e93a3e"/>
    <path id="Path_10722" data-name="Path 10722" d="M406.473,677.833a2.378,2.378,0,0,1-2.109-1.116c-.166-.245-.152-.286.143-.374a7.211,7.211,0,0,0,1.12-.406c.238-.123.471-.259.7-.4a.249.249,0,0,1,.381.052,3.221,3.221,0,0,0,1.405.972c.306.12.322.183.123.456A2.008,2.008,0,0,1,406.473,677.833Z" transform="translate(-373.951 -582.478)" fill="#e93a3e"/>
    <path id="Path_10723" data-name="Path 10723" d="M219.926,54.328c-.017-.109.073-.157.133-.219.758-.783,1.521-1.563,2.346-2.277s1.671-1.415,2.554-2.068C226,49,227.073,48.3,228.176,47.633c.668-.4,1.361-.754,2.038-1.135.634-.355,1.3-.645,1.956-.946.807-.368,1.653-.654,2.486-.975.681-.258,1.381-.449,2.072-.668.664-.21,1.354-.343,2.023-.535.776-.222,1.574-.315,2.358-.478.7-.143,1.417-.165,2.121-.272.505-.077,1.02-.049,1.523-.162a3.213,3.213,0,0,1,.5-.023,30.139,30.139,0,0,1,3.03-.044c1.126.057,2.251.143,3.373.268,1.219.143,2.424.346,3.623.6.959.2,1.906.455,2.846.727.688.2,1.362.459,2.041.7.731.258,1.44.572,2.161.85.381.143.744.358,1.119.528.419.192.823.415,1.239.612.5.239.977.525,1.454.81.537.321,1.055.674,1.594.989.465.27.877.614,1.319.917.56.385,1.1.8,1.634,1.228.572.457,1.121.932,1.663,1.418.572.522,1.145,1.052,1.7,1.606.468.474.883,1,1.352,1.473.382.386.731.807,1.07,1.224a10.979,10.979,0,0,1,1.1,1.475c.18.313.442.572.645.88.326.484.638.975.947,1.468.21.335.414.675.633,1a11.453,11.453,0,0,1,.611,1.132c.344.668.716,1.324,1.013,2.012.4.923.816,1.836,1.145,2.786.228.641.469,1.279.655,1.932.172.607.345,1.212.491,1.827.176.741.342,1.484.491,2.231.117.587.187,1.184.286,1.776.116.73.155,1.467.235,2.2.027.25.043.5.053.753.044,1.106.109,2.217.046,3.323-.052.906-.132,1.812-.209,2.719-.082.94-.259,1.86-.381,2.795-.079.608-.268,1.2-.395,1.8-.215,1.025-.524,2.024-.836,3.02-.276.883-.621,1.743-.966,2.6-.372.923-.791,1.825-1.232,2.719-.329.665-.723,1.3-1.078,1.953-.512.94-1.118,1.82-1.717,2.7-.429.635-.919,1.238-1.4,1.84q-.843,1.055-1.752,2.051a20.867,20.867,0,0,1-1.86,1.86c-.185.157-.319.391-.5.519-.275.193-.505.429-.764.637-.716.572-1.408,1.178-2.147,1.727-.368.275-.753.535-1.136.793-.449.3-.9.607-1.362.892-.541.333-1.1.641-1.643.97-.751.455-1.558.806-2.334,1.216a11.858,11.858,0,0,1-1.113.461c-.869.353-1.732.716-2.625,1.02q-1.242.414-2.512.747a27.49,27.49,0,0,1-2.844.647c-.751.117-1.5.259-2.261.332-1.035.1-2.066.2-3.107.245-.79.034-1.574.049-2.368.02-.64-.023-1.288-.019-1.922-.09-.839-.1-1.684-.175-2.529-.318-.816-.133-1.633-.262-2.441-.429s-1.643-.385-2.46-.6c-.374-.1-.731-.262-1.1-.361a22.2,22.2,0,0,1-2.8-1.016c-.987-.4-1.953-.859-2.905-1.339-.923-.469-1.8-1.017-2.685-1.543-.481-.286-.94-.6-1.415-.893-.528-.326-1-.741-1.5-1.119-.392-.3-.8-.584-1.165-.914-.209-.19-.454-.331-.653-.544-.358-.385-.779-.716-1.158-1.08-.537-.519-1.062-1.05-1.587-1.581a26.771,26.771,0,0,1-2.092-2.408c-.422-.541-.859-1.073-1.249-1.636-.322-.464-.641-.929-.944-1.405-.195-.308-.384-.621-.592-.92a12.239,12.239,0,0,1-.631-1.121c-.235-.429-.5-.839-.7-1.279-.253-.561-.572-1.092-.783-1.67-.187-.5-.412-.989-.618-1.483-.232-.554-.406-1.129-.624-1.686-.245-.628-.4-1.279-.6-1.92-.262-.859-.457-1.74-.647-2.62-.176-.809-.3-1.626-.429-2.443-.1-.64-.143-1.288-.206-1.933A43.252,43.252,0,0,1,209.76,78c.02-.809.126-1.617.206-2.424.079-.777.246-1.537.326-2.313a11.5,11.5,0,0,1,.249-1.211c.143-.627.27-1.252.458-1.86.177-.572.332-1.165.515-1.74.286-.9.6-1.8.965-2.679.276-.665.572-1.318.884-1.971.286-.617.608-1.214.914-1.819s.7-1.178,1.055-1.766.76-1.188,1.163-1.765c.429-.6.88-1.183,1.325-1.769.5-.66,1.068-1.261,1.6-1.889.143-.173.245-.408.5-.467,0,.11-.087.169-.153.24-.246.27-.5.538-.736.816-.663.771-1.3,1.561-1.909,2.377-.677.906-1.3,1.848-1.893,2.812-.507.83-.966,1.692-1.411,2.56-.572,1.122-1.07,2.277-1.531,3.447-.391.992-.716,2-1.016,3.027q-.3,1.043-.544,2.1c-.219.966-.391,1.943-.528,2.927a37.079,37.079,0,0,0,.107,11.258,37.727,37.727,0,0,0,.787,3.694,37.21,37.21,0,0,0,1.438,4.269c.355.874.736,1.736,1.155,2.576a37.74,37.74,0,0,0,16.9,16.945,36.39,36.39,0,0,0,3.413,1.5q1.6.6,3.243,1.069,1.407.4,2.844.671c.952.18,1.9.336,2.862.444.932.1,1.86.195,2.8.222a39.529,39.529,0,0,0,5.223-.143c1.189-.122,2.37-.3,3.546-.531a38.987,38.987,0,0,0,4.13-1.058c.977-.3,1.935-.67,2.882-1.06,1.023-.429,2.029-.884,3.005-1.4a38.29,38.29,0,0,0,3.981-2.41,36.649,36.649,0,0,0,3.752-2.958,39.592,39.592,0,0,0,3.127-3.155,38.487,38.487,0,0,0,2.775-3.556c.64-.922,1.219-1.88,1.775-2.855S281,96.2,281.45,95.183a34.889,34.889,0,0,0,1.411-3.632c.233-.728.474-1.454.657-2.194.308-1.246.572-2.5.77-3.774a37.01,37.01,0,0,0,.409-4.37c.034-1,.02-2.019-.023-3.03-.053-1.271-.183-2.532-.362-3.789a33.873,33.873,0,0,0-.705-3.563,38.418,38.418,0,0,0-1.174-3.771c-.342-.932-.716-1.85-1.128-2.749a35.9,35.9,0,0,0-2.052-3.814c-.547-.886-1.122-1.752-1.739-2.592a38.085,38.085,0,0,0-3.95-4.579,37.242,37.242,0,0,0-9.464-6.813,36.135,36.135,0,0,0-5.667-2.29,36.9,36.9,0,0,0-5.56-1.274,38.161,38.161,0,0,0-4.345-.409,36.332,36.332,0,0,0-4.516.126c-1.281.119-2.549.3-3.814.534a37.076,37.076,0,0,0-4.874,1.269c-.74.243-1.464.534-2.188.827a38.165,38.165,0,0,0-3.937,1.88A33.924,33.924,0,0,0,226.253,49a39.3,39.3,0,0,0-3.24,2.463c-.826.7-1.624,1.431-2.38,2.208A3.687,3.687,0,0,1,219.926,54.328Z" transform="translate(-207.259 -39.986)" fill="#e7797c"/>
    <path id="Path_10724" data-name="Path 10724" d="M222.39,90.956a35.74,35.74,0,0,1,71.4-2.248,35.818,35.818,0,0,1-36.219,37.96A35.734,35.734,0,0,1,222.39,90.956Zm65.863,3.19c.229-.016.429-.024.635-.047a3.03,3.03,0,0,0,.333-.076.732.732,0,0,0,.572-1.113,8.537,8.537,0,0,0-.474-.934,1.9,1.9,0,0,1-.014-2.014,6.179,6.179,0,0,0,.517-1.046c.143-.429.07-.76-.311-.929a3.709,3.709,0,0,0-1.63-.215c-.726.016-1.441.143-2.161.225a30.366,30.366,0,0,0-4.923.884,6.233,6.233,0,0,0-2.344,1.161,2.164,2.164,0,0,1-1.623.465c-.751-.06-1.461-.323-2.2-.429a13.186,13.186,0,0,0-2.337-.152,22.243,22.243,0,0,0-2.265.172c-1.145.143-2.267.359-3.39.588a.245.245,0,0,0-.233.286.229.229,0,0,0,.24.268c.1.009.187.056.286.073,1.378.246,2.753.507,4.15.627a14.82,14.82,0,0,0,5.109-.429,2.455,2.455,0,0,1,2.373.445,3.935,3.935,0,0,0,.859.552,13.284,13.284,0,0,0,3.508,1.015c.9.165,1.8.286,2.706.389A23.027,23.027,0,0,0,288.253,94.146Zm-60.4-6.368a3.613,3.613,0,0,0-.773.1.73.73,0,0,0-.6,1.086,6.983,6.983,0,0,0,.468.937A1.905,1.905,0,0,1,226.958,92a5,5,0,0,0-.5,1.03.71.71,0,0,0,.572.99,4.674,4.674,0,0,0,1.5.117c1.161-.076,2.313-.249,3.466-.406a23.471,23.471,0,0,0,3.465-.7,6.129,6.129,0,0,0,2.29-1.1,2.379,2.379,0,0,1,2.208-.464,15.564,15.564,0,0,0,4.422.5,34.676,34.676,0,0,0,5.263-.741c.179-.036.192-.135.193-.275s-.019-.249-.195-.279c-.416-.07-.83-.155-1.244-.239a24.971,24.971,0,0,0-4.458-.519,13.738,13.738,0,0,0-3.811.487,2.655,2.655,0,0,1-1.8-.066,3.217,3.217,0,0,1-.69-.442,6.148,6.148,0,0,0-2.2-1.025,21.223,21.223,0,0,0-2.19-.492c-.97-.175-1.946-.3-2.924-.416A15.006,15.006,0,0,0,227.851,87.778Zm53.164-.671a27.421,27.421,0,0,0,2.928-.216c1.145-.143,2.278-.286,3.409-.479a4.428,4.428,0,0,0,1.7-.587.688.688,0,0,0,.219-1.1,8.218,8.218,0,0,0-.826-.93,1.9,1.9,0,0,1-.458-1.872,5.211,5.211,0,0,0,.226-1.246.653.653,0,0,0-.7-.726,3.99,3.99,0,0,0-1.254.17,22.322,22.322,0,0,0-2.393.906,29.012,29.012,0,0,0-4.362,2.055,5.856,5.856,0,0,0-1.875,1.609,2.319,2.319,0,0,1-.952.816,4.061,4.061,0,0,1-1.717.27,13.413,13.413,0,0,0-4.352.809,36.827,36.827,0,0,0-4.293,1.878c-.165.08-.232.167-.183.361s.177.2.333.19c1-.063,2.015-.135,3.017-.258a22.537,22.537,0,0,0,2.927-.551,13.883,13.883,0,0,0,3.271-1.381,2.448,2.448,0,0,1,2.29-.256A7.51,7.51,0,0,0,281.015,87.107ZM269.13,61.959c.016-.826-.286-1.145-.9-1.058a4.534,4.534,0,0,0-.789.16,2.047,2.047,0,0,1-2.318-.532,4.091,4.091,0,0,0-.8-.7.676.676,0,0,0-1.082.269,5.136,5.136,0,0,0-.61,1.918c-.153,1.053-.3,2.108-.429,3.167a23.581,23.581,0,0,0-.212,3.508,5.772,5.772,0,0,0,.461,2.281,2.37,2.37,0,0,1,.236.989,3.332,3.332,0,0,1-.518,1.634A13.376,13.376,0,0,0,261,76.245,20.108,20.108,0,0,0,260.273,80c-.093.873-.143,1.752-.225,2.627-.017.179.013.3.2.359s.278-.029.358-.189a35.992,35.992,0,0,0,1.928-4.426,14.824,14.824,0,0,0,.73-3.332c.047-.479.019-.96.044-1.44a2.613,2.613,0,0,1,1.166-2.2,3.39,3.39,0,0,0,.76-.716,12.189,12.189,0,0,0,1.321-2.059c.535-1.032.989-2.1,1.431-3.176.228-.558.464-1.112.68-1.673A6.848,6.848,0,0,0,269.13,61.959ZM282.466,111.3a1.235,1.235,0,0,0-.155-.509,5.033,5.033,0,0,0-.767-.946c-.6-.572-1.279-1.056-1.932-1.574a29.293,29.293,0,0,0-3.965-2.752,6.115,6.115,0,0,0-2.451-.844,2.2,2.2,0,0,1-1-.346A3.913,3.913,0,0,1,271,102.893a12.916,12.916,0,0,0-2.522-3.028,35.979,35.979,0,0,0-4.139-3.1.238.238,0,0,0-.356.052.243.243,0,0,0-.042.362c.607.876,1.2,1.762,1.846,2.61a17.866,17.866,0,0,0,2.962,3.134c.63.507,1.342.889,2,1.342a2.329,2.329,0,0,1,1.1,1.783,4.79,4.79,0,0,0,.416,1.574,15.314,15.314,0,0,0,1.5,2.562c.88,1.264,1.835,2.469,2.8,3.669a5.04,5.04,0,0,0,1.431,1.276.691.691,0,0,0,1.09-.361c.216-.441.286-.927.472-1.378a1.759,1.759,0,0,1,1.109-1.048,10.64,10.64,0,0,0,1.334-.461.688.688,0,0,0,.459-.59Zm-6.089-45.937a.694.694,0,0,0-.635-.813c-.468-.082-.943-.04-1.412-.089a1.786,1.786,0,0,1-1.4-.85c-.223-.349-.444-.7-.684-1.039a.709.709,0,0,0-1.182-.114,3.872,3.872,0,0,0-.638.83,16.976,16.976,0,0,0-1.026,2.208,35,35,0,0,0-1.629,4.359,7.173,7.173,0,0,0-.286,3.085,2.2,2.2,0,0,1-.581,1.845c-.429.488-.886.956-1.3,1.458a12.718,12.718,0,0,0-1.235,1.84,23.5,23.5,0,0,0-1.321,2.819c-.339.836-.605,1.7-.92,2.542-.049.129-.084.243.077.332s.273.119.418-.052c.738-.867,1.491-1.717,2.182-2.63A19.8,19.8,0,0,0,266.756,78a19.263,19.263,0,0,0,.944-2.635,2.29,2.29,0,0,1,1.34-1.528,7.99,7.99,0,0,0,2.974-2.24,29.255,29.255,0,0,0,2-2.426,29,29,0,0,0,1.807-2.487,3.381,3.381,0,0,0,.557-1.324ZM235.29,87.111h.074a6.853,6.853,0,0,0,2.862-.5,2.132,2.132,0,0,1,1.544-.12,5.272,5.272,0,0,1,1.136.5,13.549,13.549,0,0,0,4.28,1.517,27.448,27.448,0,0,0,3.074.4c.537.039,1.073.069,1.61.112.2.016.218-.13.258-.26a.2.2,0,0,0-.12-.276c-.4-.187-.783-.4-1.181-.58a24.9,24.9,0,0,0-4.664-1.749,13.271,13.271,0,0,0-2.066-.339c-.52-.039-1.04-.017-1.561-.074a2.356,2.356,0,0,1-1.763-.912,5.3,5.3,0,0,0-1.115-1.153,20.637,20.637,0,0,0-4.35-2.29c-.859-.361-1.709-.716-2.576-1.042a5.167,5.167,0,0,0-1.779-.4c-.716,0-.98.313-.859,1.019.063.359.143.716.228,1.073a1.787,1.787,0,0,1-.386,1.656,13.546,13.546,0,0,0-.923,1.04.674.674,0,0,0,.192,1.065,4.386,4.386,0,0,0,1.689.6c.63.122,1.271.192,1.906.286a36.145,36.145,0,0,0,4.495.424ZM257.109,76.6c0,.3-.014.6,0,.9a27.537,27.537,0,0,0,.429,3.435q.142.766.286,1.534a.26.26,0,0,0,.3.226c.133,0,.243-.016.273-.176.114-.607.243-1.212.346-1.822.136-.8.255-1.607.329-2.417a17.489,17.489,0,0,0-.013-3.363c-.08-.807-.336-1.574-.468-2.371a2.34,2.34,0,0,1,.522-1.958,5.678,5.678,0,0,0,1-1.966,22.555,22.555,0,0,0,.793-3.791c.126-.927.226-1.86.346-2.785a5.725,5.725,0,0,0-.047-2.089c-.125-.509-.4-.859-1.075-.6-.418.163-.8.4-1.2.6a1.717,1.717,0,0,1-1.417.074c-.494-.192-.927-.505-1.431-.685a.7.7,0,0,0-.99.448,3.364,3.364,0,0,0-.153,1.009,19.933,19.933,0,0,0,.3,3.3,26.142,26.142,0,0,0,.724,3.984,6.628,6.628,0,0,0,1.216,2.583,2.147,2.147,0,0,1,.382.677,3.246,3.246,0,0,1-.059,1.949A11.963,11.963,0,0,0,257.109,76.6Zm25.344-6.022c.019-.26-.195-.429-.438-.555A4.374,4.374,0,0,0,281,69.676a1.945,1.945,0,0,1-1.531-1.408,9.511,9.511,0,0,0-.371-1.133.675.675,0,0,0-.966-.409,3.528,3.528,0,0,0-1.155.884,19.472,19.472,0,0,0-1.344,1.641,29.429,29.429,0,0,0-3.067,4.456,5.636,5.636,0,0,0-.708,2.211,2.1,2.1,0,0,1-.179.658,2.783,2.783,0,0,1-1.3,1.312,14.231,14.231,0,0,0-3.887,3.337,42.164,42.164,0,0,0-2.576,3.552.21.21,0,0,0,.039.316.265.265,0,0,0,.385.046,33.934,33.934,0,0,0,4.122-3.08,14.061,14.061,0,0,0,1.966-2.165c.391-.542.7-1.138,1.1-1.671a2.358,2.358,0,0,1,1.742-1,3.873,3.873,0,0,0,.767-.143,9.917,9.917,0,0,0,2.513-1.222,43.388,43.388,0,0,0,3.578-2.619,10.639,10.639,0,0,0,1.82-1.619A1.663,1.663,0,0,0,282.453,70.579Zm4.8,31.375c.76.047,1.068-.286.94-1.028-.053-.312-.113-.625-.2-.93a1.924,1.924,0,0,1,.557-2,5.436,5.436,0,0,0,.737-.844.664.664,0,0,0-.22-1.055,4.588,4.588,0,0,0-1.81-.618c-1.271-.2-2.543-.379-3.822-.514a19.2,19.2,0,0,0-3.488-.117,5.326,5.326,0,0,0-1.886.458,2.231,2.231,0,0,1-1.119.192,4.363,4.363,0,0,1-1.782-.691,11.9,11.9,0,0,0-2.5-1.032,21.465,21.465,0,0,0-3.228-.623c-1-.122-1.993-.195-2.992-.265-.157-.01-.262.027-.3.2a.256.256,0,0,0,.16.346,37.48,37.48,0,0,0,4.243,1.86,14.309,14.309,0,0,0,3.516.793c.512.043,1.026.031,1.538.063a2.553,2.553,0,0,1,2.127,1.186,2.719,2.719,0,0,0,.472.522,12.842,12.842,0,0,0,3.274,2c1.1.518,2.238.966,3.37,1.421A8,8,0,0,0,287.25,101.954Zm-28.1,3.37a17.184,17.184,0,0,0-.083-1.779c-.08-.77-.189-1.536-.319-2.3-.1-.61-.235-1.214-.351-1.82a.193.193,0,0,0-.183-.166c-.245-.042-.341.019-.388.276-.143.784-.286,1.574-.419,2.354a26.541,26.541,0,0,0-.308,2.789,14.805,14.805,0,0,0,.517,4.522,2.292,2.292,0,0,1-.458,2.137,5.884,5.884,0,0,0-1.072,2.147,22.655,22.655,0,0,0-.716,3.435c-.127.869-.219,1.744-.341,2.615a9.748,9.748,0,0,0-.077,1.926,2.808,2.808,0,0,0,.132.694.655.655,0,0,0,.88.494,3.559,3.559,0,0,0,.975-.444,2.084,2.084,0,0,1,1.717-.306,4.563,4.563,0,0,1,.81.4,3.559,3.559,0,0,0,.846.371.614.614,0,0,0,.791-.392,2.962,2.962,0,0,0,.206-1.169A22.567,22.567,0,0,0,261,117.85a23.206,23.206,0,0,0-1.022-4.91,3.9,3.9,0,0,0-.707-1.352,2.714,2.714,0,0,1-.582-2.686A11.912,11.912,0,0,0,259.151,105.324Zm-30.175-3.382a5.2,5.2,0,0,0,1.732-.379c1.016-.391,2.019-.813,3.024-1.234a22.786,22.786,0,0,0,2.914-1.434,6.326,6.326,0,0,0,2.1-1.795,2.112,2.112,0,0,1,.572-.554,3.135,3.135,0,0,1,1.8-.429,13.941,13.941,0,0,0,4.723-.88,41.289,41.289,0,0,0,4.093-1.78.27.27,0,0,0,.17-.384c-.063-.2-.183-.2-.336-.187-1.3.077-2.6.185-3.888.391a17.038,17.038,0,0,0-3.532.93c-.776.3-1.465.777-2.232,1.1a2.29,2.29,0,0,1-1.551.107c-.414-.119-.794-.335-1.221-.422a11.352,11.352,0,0,0-2.795-.163,53.438,53.438,0,0,0-5.358.62,4.935,4.935,0,0,0-1.939.624.7.7,0,0,0-.2,1.145,9.279,9.279,0,0,0,.716.8,1.906,1.906,0,0,1,.535,1.918c-.1.375-.167.763-.239,1.145a.693.693,0,0,0,.664.859A1.332,1.332,0,0,0,228.976,101.943ZM277.1,81.677a6.234,6.234,0,0,0,1.357-.172A21.893,21.893,0,0,0,282,80.352c.836-.339,1.667-.691,2.5-1.038a6.9,6.9,0,0,0,2-1.145c.514-.467.621-.837.044-1.311a6.07,6.07,0,0,0-.859-.565,1.9,1.9,0,0,1-1.066-1.759,10.289,10.289,0,0,0-.046-1.049.742.742,0,0,0-1.076-.716,5.037,5.037,0,0,0-1.126.524,22.014,22.014,0,0,0-1.9,1.371,31.742,31.742,0,0,0-3.626,3.042,6.617,6.617,0,0,0-1.588,2.317,2.174,2.174,0,0,1-1.145,1.206,6.621,6.621,0,0,1-1.172.411,11.879,11.879,0,0,0-2.585,1.073,21.339,21.339,0,0,0-3.333,2.33c-.582.485-1.145.989-1.726,1.477-.143.116-.064.219-.01.322s.112.187.268.136A37.073,37.073,0,0,0,270.1,85.2a14.208,14.208,0,0,0,3.047-1.965c.429-.372.807-.8,1.269-1.145a2.366,2.366,0,0,1,1.9-.474C276.579,81.656,276.842,81.656,277.1,81.677ZM233.807,70.667a.617.617,0,0,0,.043.215,2.932,2.932,0,0,0,.708,1.04,14.387,14.387,0,0,0,1.889,1.574,30.692,30.692,0,0,0,4.222,2.938,6.273,6.273,0,0,0,2.433.83,2.109,2.109,0,0,1,1.341.633,4.315,4.315,0,0,1,.64.829,13.4,13.4,0,0,0,2.131,2.786,20.449,20.449,0,0,0,1.82,1.59c.943.737,1.932,1.408,2.924,2.075a.2.2,0,0,0,.263,0c.209-.162.229-.246.077-.467l-1-1.445a23.845,23.845,0,0,0-2.6-3.2,13.443,13.443,0,0,0-2.882-2.2,2.5,2.5,0,0,1-1.414-2.135,2.822,2.822,0,0,0-.156-.716,12.609,12.609,0,0,0-1.84-3.4c-.836-1.2-1.75-2.346-2.662-3.49a4.94,4.94,0,0,0-1.521-1.347.662.662,0,0,0-1,.343,5.319,5.319,0,0,0-.352,1.01,1.983,1.983,0,0,1-1.574,1.574,4.213,4.213,0,0,0-1.033.365.716.716,0,0,0-.451.592Zm28.168,43.124a23.725,23.725,0,0,0,.2,2.708,37.017,37.017,0,0,0,.654,4.293,3.291,3.291,0,0,0,.454,1.1.656.656,0,0,0,1,.232,2.326,2.326,0,0,0,.369-.278c.269-.238.528-.485.8-.716a1.613,1.613,0,0,1,1.166-.409,6.565,6.565,0,0,1,.91.17,3.839,3.839,0,0,0,.934.143.651.651,0,0,0,.673-.611,2.575,2.575,0,0,0-.026-.7,10.819,10.819,0,0,0-.843-2.564,33.465,33.465,0,0,0-2.187-4.71,5.561,5.561,0,0,0-1.534-1.878,2.733,2.733,0,0,1-1.229-2.411,13.569,13.569,0,0,0-.246-2.645A19.041,19.041,0,0,0,262,102.144c-.228-.547-.472-1.088-.716-1.626-.22-.479-.458-.953-.69-1.431-.066-.143-.167-.156-.3-.1s-.266.056-.229.269a5.569,5.569,0,0,1,.066.8,25.315,25.315,0,0,0,.286,2.862,18.33,18.33,0,0,0,.429,2.125,16.5,16.5,0,0,0,.592,1.8c.262.66.653,1.254.946,1.9a2.371,2.371,0,0,1,.286,1.507,9.243,9.243,0,0,1-.338.989A7.382,7.382,0,0,0,261.975,113.79ZM232.512,72.732a.712.712,0,0,0-.794.716c-.039.4-.044.8-.066,1.195a1.817,1.817,0,0,1-.859,1.531,9.124,9.124,0,0,0-1.093.728.692.692,0,0,0-.074,1.152,1.4,1.4,0,0,0,.179.166,7.156,7.156,0,0,0,1.786,1.036c1.056.444,2.107.9,3.174,1.312a24.053,24.053,0,0,0,2.354.791,6.447,6.447,0,0,0,2.749.279,2.532,2.532,0,0,1,2.245.683c.245.228.507.438.746.67a13.933,13.933,0,0,0,4.129,2.6c1.173.528,2.39.946,3.606,1.361.176.059.262.04.355-.12s.1-.248-.049-.372c-.527-.429-1.036-.894-1.561-1.332a25.592,25.592,0,0,0-2.632-1.935,15.34,15.34,0,0,0-4.107-1.772,2.33,2.33,0,0,1-1.619-1.441,4.551,4.551,0,0,0-.3-.664,8.95,8.95,0,0,0-1.693-2.031,36.953,36.953,0,0,0-3.2-2.616,15.281,15.281,0,0,0-2.37-1.626A2.7,2.7,0,0,0,232.512,72.732Zm34.9,37.113c.029.325.039.653.092.972a16.945,16.945,0,0,0,1,3.384c.295.774.62,1.538.946,2.3a12.9,12.9,0,0,0,1.022,2.161,2.794,2.794,0,0,0,.82.952.627.627,0,0,0,.767-.064,3.309,3.309,0,0,0,.716-.98,2.009,2.009,0,0,1,1.893-1.145,8.534,8.534,0,0,0,1.095-.079.666.666,0,0,0,.628-.859,3.616,3.616,0,0,0-.429-1.056,15.851,15.851,0,0,0-1.3-1.86,36.933,36.933,0,0,0-2.851-3.5,7.839,7.839,0,0,0-2.308-1.819,4.566,4.566,0,0,1-.936-.465,2.954,2.954,0,0,1-.979-1.62,13.726,13.726,0,0,0-.932-2.483,19.712,19.712,0,0,0-1.889-2.929c-.675-.88-1.407-1.709-2.121-2.554a.248.248,0,0,0-.351-.083c-.248.117-.182.245-.114.446.273.824.56,1.644.879,2.453a22.849,22.849,0,0,0,1.431,3.015,13.509,13.509,0,0,0,2.147,2.768,2.608,2.608,0,0,1,.83,2.4A3.733,3.733,0,0,0,267.413,109.845ZM254.274,67.9c-.017-.391-.017-.783-.054-1.172-.092-.973-.2-1.942-.342-2.909-.123-.837-.209-1.679-.4-2.5a3.309,3.309,0,0,0-.544-1.3.646.646,0,0,0-.963-.166,4.561,4.561,0,0,0-.847.734,2,2,0,0,1-2.071.581,7.137,7.137,0,0,0-1.1-.22.661.661,0,0,0-.809.633,2.72,2.72,0,0,0,.049.874,12.251,12.251,0,0,0,.839,2.433,38.844,38.844,0,0,0,1.823,4.046,7.757,7.757,0,0,0,2.194,2.736,2.014,2.014,0,0,1,.783,1.2,8.812,8.812,0,0,1,.143,1.776,12.9,12.9,0,0,0,.591,3.257,20,20,0,0,0,.813,2.19q.6,1.39,1.288,2.739c.089.175.2.175.361.143s.2-.143.189-.286c-.057-.73-.1-1.461-.17-2.19-.082-.826-.193-1.649-.353-2.464a16.768,16.768,0,0,0-.791-2.779c-.3-.771-.757-1.46-1.083-2.215a2.29,2.29,0,0,1-.08-1.8c.092-.235.2-.465.273-.706A9.12,9.12,0,0,0,254.274,67.9ZM233.81,111.153a.73.73,0,0,0,.458.7,7,7,0,0,0,1.128.388,1.859,1.859,0,0,1,1.375,1.288,7.147,7.147,0,0,0,.445,1.288.667.667,0,0,0,.96.332,2.266,2.266,0,0,0,.275-.156,4.792,4.792,0,0,0,1-.887c.572-.638,1.07-1.332,1.6-2a27.958,27.958,0,0,0,2.456-3.548,6.392,6.392,0,0,0,.9-2.433,2.708,2.708,0,0,1,.22-.894A3.07,3.07,0,0,1,246,103.922a13.843,13.843,0,0,0,3.558-3.022,41.021,41.021,0,0,0,2.741-3.708c.112-.163.072-.255-.052-.372a.247.247,0,0,0-.378-.036c-.266.2-.555.369-.831.557a31.258,31.258,0,0,0-3.327,2.557,15.711,15.711,0,0,0-2.876,3.618,2.27,2.27,0,0,1-1.785,1.136,6.061,6.061,0,0,0-2.208.716,19.1,19.1,0,0,0-2.626,1.686c-.909.671-1.8,1.367-2.692,2.061a6.311,6.311,0,0,0-1.547,1.614,1.145,1.145,0,0,0-.177.425Zm22.368-11.627c.007-.106.013-.212.023-.318a.182.182,0,0,0-.143-.2c-.306-.122-.332-.112-.474.2-.044.1-.1.189-.143.286-.537,1.1-1.056,2.214-1.488,3.364a20.693,20.693,0,0,0-.684,2.207,13.023,13.023,0,0,0-.339,3.051,2.623,2.623,0,0,1-1.116,2.314,5.461,5.461,0,0,0-1.454,1.659,25.707,25.707,0,0,0-1.873,3.8c-.329.784-.655,1.574-.96,2.366a5.965,5.965,0,0,0-.414,1.8,1.328,1.328,0,0,0,.029.438c.094.361.378.525.844.481.429-.04.844-.175,1.267-.256a1.815,1.815,0,0,1,1.633.429,10.808,10.808,0,0,0,1.026.9.676.676,0,0,0,1.049-.2,4.977,4.977,0,0,0,.647-1.875c.12-.654.189-1.337.286-2a28.649,28.649,0,0,0,.366-4.694,5.935,5.935,0,0,0-.471-2.4,2.317,2.317,0,0,1-.165-1.5,3.563,3.563,0,0,1,.421-1.01,12.593,12.593,0,0,0,1.274-2.975,21.277,21.277,0,0,0,.637-3.423C256.044,101.146,256.083,100.327,256.177,99.526Zm-7.356-27.476a4.179,4.179,0,0,0,0-.6,13.351,13.351,0,0,0-.653-2.623q-.365-1.043-.787-2.065c-.429-1.052-.849-2.111-1.36-3.128a3.894,3.894,0,0,0-.879-1.194.62.62,0,0,0-.933-.02,3.239,3.239,0,0,0-.716,1,1.993,1.993,0,0,1-1.774,1.092,3.986,3.986,0,0,0-1.381.127.582.582,0,0,0-.429.5,2.141,2.141,0,0,0,.332,1.2,15.645,15.645,0,0,0,1.54,2.222,33.487,33.487,0,0,0,2.932,3.526,6.525,6.525,0,0,0,2.333,1.69,2.548,2.548,0,0,1,1.593,1.779c.17.544.315,1.095.521,1.626a15.762,15.762,0,0,0,1.9,3.395c.791,1.118,1.7,2.138,2.59,3.177a.216.216,0,0,0,.321.053c.122-.082.243-.143.167-.343-.222-.585-.416-1.181-.63-1.769a23.678,23.678,0,0,0-1.677-3.728A13.343,13.343,0,0,0,249.7,75.2a2.708,2.708,0,0,1-.932-1.85c-.023-.415.117-.829.054-1.294Zm-9.5,28.168a9.312,9.312,0,0,0-2.358.386,30.514,30.514,0,0,0-3.619,1.314q-.957.4-1.91.807a6.221,6.221,0,0,0-1.742,1.065.722.722,0,0,0,.011,1.225,4.864,4.864,0,0,0,.894.591,1.9,1.9,0,0,1,1.052,1.667c.01.195,0,.391.016.585a3.011,3.011,0,0,0,.13.916.618.618,0,0,0,.58.4,1.689,1.689,0,0,0,.773-.189,9.236,9.236,0,0,0,1.86-1.161,42.188,42.188,0,0,0,4.15-3.364,7.786,7.786,0,0,0,1.544-1.908c.136-.258.242-.532.362-.8a2.576,2.576,0,0,1,1.86-1.374,13.838,13.838,0,0,0,4.109-1.872,34.8,34.8,0,0,0,3.83-3.021c.126-.112.206-.21.087-.391a.266.266,0,0,0-.386-.122,3.843,3.843,0,0,1-.368.13,29.832,29.832,0,0,0-4.273,1.717,13.319,13.319,0,0,0-2.7,1.76c-.345.3-.674.615-1,.927a2.566,2.566,0,0,1-2.364.756A4.3,4.3,0,0,0,239.322,100.217Zm.55,16.4a.615.615,0,0,0,.474.65,4.82,4.82,0,0,0,1.358.119,1.98,1.98,0,0,1,1.8,1.131,2.932,2.932,0,0,0,.768,1.027.572.572,0,0,0,.8-.034,3.1,3.1,0,0,0,.587-.651,12.886,12.886,0,0,0,1.052-2.115c.487-1.126.96-2.258,1.368-3.416a14.258,14.258,0,0,0,.7-2.636,4.779,4.779,0,0,0,.01-1.531,2.354,2.354,0,0,1,.452-1.938,8.3,8.3,0,0,1,.627-.716,12.878,12.878,0,0,0,2.3-3.226,24.275,24.275,0,0,0,1.108-2.5c.286-.75.541-1.513.827-2.264.079-.208,0-.312-.172-.412s-.253-.017-.351.1c-.594.7-1.214,1.384-1.779,2.111a23.2,23.2,0,0,0-1.872,2.739,14.754,14.754,0,0,0-1.305,3.254,2.444,2.444,0,0,1-1.443,1.737,5.16,5.16,0,0,0-.942.458,12.451,12.451,0,0,0-2.509,2.343q-.9,1.03-1.707,2.134a24.312,24.312,0,0,0-1.639,2.277A3.213,3.213,0,0,0,239.872,116.62Zm18.239-30.931a5.294,5.294,0,1,0,5.292,5.292,5.322,5.322,0,0,0-5.292-5.292Zm25.67,23.542c.515.064.769-.2.859-.747a8.781,8.781,0,0,0,.046-1.1,1.891,1.891,0,0,1,.987-1.669,6.036,6.036,0,0,0,.953-.624.779.779,0,0,0,.063-1.281,3.143,3.143,0,0,0-.532-.429,5.77,5.77,0,0,0-1.072-.617c-.505-.22-1.02-.415-1.523-.643-.746-.339-1.5-.645-2.27-.929a19.976,19.976,0,0,0-3.1-.916,6.52,6.52,0,0,0-1.986-.039,2.313,2.313,0,0,1-1.188-.159,4.543,4.543,0,0,1-1.245-.91,13.894,13.894,0,0,0-1.639-1.361,16.542,16.542,0,0,0-2.449-1.367c-.572-.253-1.138-.514-1.717-.736-.763-.286-1.541-.538-2.307-.82a.255.255,0,0,0-.364.119c-.093.155-.187.3-.019.455s.389.341.587.507c.5.429,1,.846,1.508,1.269s1.05.816,1.594,1.195c.482.338,1,.615,1.518.91a9.067,9.067,0,0,0,1.52.716c.534.187,1.086.321,1.621.5A2.423,2.423,0,0,1,275.3,102.1a4.084,4.084,0,0,0,.514.989,10.347,10.347,0,0,0,1.742,1.89,38.824,38.824,0,0,0,3.037,2.433,14.961,14.961,0,0,0,2.3,1.563A1.9,1.9,0,0,0,283.781,109.231Z" transform="translate(-218.111 -51.052)" fill="#ea353a"/>
    <path id="Path_10725" data-name="Path 10725" d="M539.987,346.122a1.869,1.869,0,0,1-.89-.258,14.68,14.68,0,0,1-2.3-1.563,38.84,38.84,0,0,1-3.037-2.433,10.347,10.347,0,0,1-1.742-1.89,4.083,4.083,0,0,1-.514-.989,2.435,2.435,0,0,0-1.666-1.538c-.535-.182-1.088-.315-1.621-.5a9.066,9.066,0,0,1-1.52-.716c-.512-.295-1.036-.572-1.518-.91-.544-.379-1.085-.764-1.594-1.195s-1-.844-1.508-1.269c-.2-.166-.4-.332-.587-.507s-.074-.3.019-.455a.255.255,0,0,1,.363-.119c.766.286,1.544.531,2.307.82.582.222,1.145.482,1.717.736a16.539,16.539,0,0,1,2.449,1.37,13.909,13.909,0,0,1,1.643,1.369,4.478,4.478,0,0,0,1.245.91,2.312,2.312,0,0,0,1.188.159,6.52,6.52,0,0,1,1.986.039,19.973,19.973,0,0,1,3.1.916c.766.286,1.524.59,2.27.929.5.228,1.018.422,1.523.643a5.775,5.775,0,0,1,1.07.613,3.146,3.146,0,0,1,.532.429.779.779,0,0,1-.063,1.281,6.04,6.04,0,0,1-.953.624,1.891,1.891,0,0,0-.987,1.669,8.759,8.759,0,0,1-.046,1.1C540.756,345.917,540.505,346.186,539.987,346.122Zm-.029-.086c.448.013.605-.114.716-.455a6.2,6.2,0,0,0,.143-1.55,1.553,1.553,0,0,1,.19-.673,2.135,2.135,0,0,1,.841-.859,4.7,4.7,0,0,0,1.059-.733.554.554,0,0,0,.041-.807,4.068,4.068,0,0,0-1.548-1.115c-.475-.242-.986-.416-1.475-.634-.964-.429-1.938-.833-2.934-1.182a14.578,14.578,0,0,0-2.962-.793,4.5,4.5,0,0,0-1.385,0,2.357,2.357,0,0,1-1.756-.3,6.752,6.752,0,0,1-1.1-.922,10.76,10.76,0,0,0-2.1-1.617,20.231,20.231,0,0,0-2.615-1.305c-1.043-.429-2.114-.79-3.171-1.179-.13-.047-.245-.056-.332.1s-.027.225.074.313c.472.411.932.836,1.415,1.232a27.089,27.089,0,0,0,2.383,1.8,17.177,17.177,0,0,0,2.061,1.156,18.938,18.938,0,0,0,2.39.84,2.509,2.509,0,0,1,1.739,1.67,4.151,4.151,0,0,0,.811,1.322A18.907,18.907,0,0,0,535.268,343c.67.528,1.35,1.042,2.035,1.55a13.058,13.058,0,0,0,1.757,1.181A2.475,2.475,0,0,0,539.959,346.036Z" transform="translate(-474.317 -287.943)" fill="#e7797c"/>
    <path id="Path_10726" data-name="Path 10726" d="M450.223,286.562a3.635,3.635,0,1,1,3.656-3.662A3.605,3.605,0,0,1,450.223,286.562Z" transform="translate(-410.198 -242.998)" fill="#ea353a"/>
  </g>
</svg>
