<svg xmlns="http://www.w3.org/2000/svg" width="77.331" height="72.61" viewBox="0 0 77.331 72.61">
  <g id="All_India_Sports_Council_of_the_Deaf" data-name="All India Sports Council of the Deaf" transform="translate(0 0)">
    <path id="Path_6938" data-name="Path 6938" d="M312.223,133.522a21.664,21.664,0,0,1-5.292,13.906,20.93,20.93,0,0,1-11.585,7.014,20.148,20.148,0,0,1-5.662.47,20.751,20.751,0,0,1-12.743-5.193,21.665,21.665,0,0,1-6.933-11.468,21.971,21.971,0,0,1-.559-6.9,22.973,22.973,0,0,1,2.527-8.837,18.031,18.031,0,0,1,1.258-2.038,21.257,21.257,0,0,1,12.3-8.724,20.111,20.111,0,0,1,6.843-.617,20.824,20.824,0,0,1,12.065,4.977,21.761,21.761,0,0,1,6.943,10.834A23.971,23.971,0,0,1,312.223,133.522Zm-33.548,5.386a2.623,2.623,0,0,1-.483.364q-2.9,1.318-5.809,2.61c-.221.1-.268.18-.156.411a21.008,21.008,0,0,0,7.723,8.729,20.112,20.112,0,0,0,13.645,2.966,19.631,19.631,0,0,0,4.989-1.357,20.646,20.646,0,0,0,9.27-7.668,21.071,21.071,0,0,0,3.464-9.448,21.6,21.6,0,0,0-.142-6.007,21.088,21.088,0,0,0-3.636-8.9,20.482,20.482,0,0,0-9.049-7.246,19.621,19.621,0,0,0-11.779-1.1,20.375,20.375,0,0,0-13.3,9.326c-.074.116-.133.24-.208.375.121.04.2.069.29.092l6.329,1.776c.272.076.577.28.8.215.244-.072.409-.4.616-.606a13.186,13.186,0,0,1,20.108,1.148.343.343,0,0,0,.444.145c1.915-.593,3.835-1.172,5.754-1.753.477-.145.478-.139.508-.622,0-.012.019-.023.047-.053.136.235.27.462.4.691s.115.3-.138.393l-4.726,1.794c-.488.186-.975.373-1.482.567l.173.31a13.945,13.945,0,0,1,1.473,10.157c-.046.2-.01.284.175.363.51.215,1.009.453,1.514.679l4.076,1.824a1.056,1.056,0,0,1,.214.176l-.056.083-6.329-1.556c-2.3,5.312-6.141,8.6-12.014,8.86S281.39,143.974,278.676,138.908Zm.714-.4c.055.122.091.215.134.3a12.467,12.467,0,0,0,20.659,2.863,12.772,12.772,0,0,0,2.333-3.818c.068-.172.079-.307-.087-.413a1.375,1.375,0,0,0-.341-.19c-1.089-.306-2.179-.609-3.272-.9-3.116-.83-6.212-1.743-9.384-2.346a.937.937,0,0,0-.536.059q-3.615,1.677-7.223,3.376Zm.251-13.064c-.084-.048-.142-.09-.2-.118l-6.275-2.8c-.2-.092-.29-.035-.39.149a21.751,21.751,0,0,0-1.317,17.75c.153.422.327.836.492,1.255.13-.089.223-.157.322-.215q2.342-1.529,4.681-3.06a7.351,7.351,0,0,0,.593-.5,1.844,1.844,0,0,1,.31-.223c.2-.107.313-.2.227-.474a14,14,0,0,1,1.387-11.454C279.525,125.651,279.58,125.551,279.641,125.442Zm1.765-1.12c.136.052.183.072.233.087q3.014.885,6.029,1.765a9.013,9.013,0,0,0,1.073.215.274.274,0,0,0,.23-.107c.158-.338.292-.685.441-1.047-.457-.3-.912-.613-1.382-.9-.22-.136-.245-.286-.107-.477q.985-1.366,1.987-2.744a23.752,23.752,0,0,1,3.256,2.637c-.152.322-.3.593-.419.881-.322.781-.633,1.566-.948,2.348-.062.153-.01.23.148.266.443.107.88.232,1.326.311a1.137,1.137,0,0,0,.589-.06c2.126-.827,4.248-1.667,6.37-2.5.278-.107.31-.222.107-.454-.246-.283-.491-.567-.76-.827a12.257,12.257,0,0,0-10.364-3.532,12,12,0,0,0-6.436,2.856c-.459.39-.881.828-1.367,1.29Zm20.151,1.905a1.835,1.835,0,0,1-.241.143c-.275.107-.563.176-.826.3q-4.216,2.038-8.423,4.084c-.124.06-.307.107-.242.29a.5.5,0,0,0,.258.249q4.411,1.9,8.826,3.779c.718.308,1.431.622,2.179.947a13.26,13.26,0,0,0-1.528-9.794Zm-13.61,4.1c-.115-.053-.177-.086-.242-.107-.665-.26-1.323-.536-2-.767a1.229,1.229,0,0,1-.814-.7,4.549,4.549,0,0,0-.439-.765,1.145,1.145,0,0,0-.391-.371c-.815-.422-1.641-.824-2.467-1.23-.413-.2-.828-.4-1.236-.6a13.046,13.046,0,0,0-2.151,6.336,13.21,13.21,0,0,0,.608,4.9,90.919,90.919,0,0,0,9.132-6.7Z" transform="translate(-252.141 -100.721)" fill="#cb2e27"/>
    <path id="Path_6939" data-name="Path 6939" d="M480.522,545.225c-.107-.014-.215-.024-.314-.042a1.2,1.2,0,0,1-1.017-.905c-.179-.652-.322-1.315-.478-1.974a.276.276,0,0,1,.229-.379,2.153,2.153,0,0,1,.234-.052c.394-.049.446-.014.536.366.131.555.253,1.111.394,1.664a.567.567,0,0,0,.689.479c.417-.067.578-.314.479-.751-.125-.556-.262-1.109-.391-1.664-.074-.317-.03-.386.292-.474.481-.132.575-.077.688.4q.188.793.374,1.587a1.213,1.213,0,0,1-.549,1.435.98.98,0,0,0-.1.087c.592-.043,1.168-.073,1.742-.129a2.514,2.514,0,0,1,1.15.3c3.018,1.143,6.026,2.306,9.049,3.433,1.151.429,2.33.784,3.5,1.169a.807.807,0,0,0,.289.045c1.05-.062,2.1-.133,3.152-.192a.376.376,0,0,1,.285.085c.117.161-.034.249-.148.334-.812.6-1.628,1.19-2.433,1.8-.725.549-1.435,1.119-2.159,1.67a1.526,1.526,0,0,1-.467.239,22.567,22.567,0,0,1-4.076.841,1.3,1.3,0,0,1-.5-.061,15.433,15.433,0,0,1-4.52-2.272c-1.542-1.08-3.061-2.193-4.586-3.294a3.778,3.778,0,0,0-2.5-.782,5.51,5.51,0,0,0-1.978.62c-.117.056-.235.107-.406.189A5.2,5.2,0,0,1,480.522,545.225Z" transform="translate(-437.468 -484.924)" fill="#cb2e27"/>
    <path id="Path_6940" data-name="Path 6940" d="M263.268,577.447c-.322-.18-.6-.311-.845-.479a1.826,1.826,0,0,0-1.287-.214,9.963,9.963,0,0,0-4.836,2.066c-1.18.858-2.322,1.752-3.507,2.593-.565.4-1.192.716-1.787,1.073a2.465,2.465,0,0,1-1.048.272c-.735.084-1.465.2-2.2.3a.761.761,0,0,1-.337-.032,21.844,21.844,0,0,1-6.483-3.569,9.025,9.025,0,0,1-.958-1.042c-.148-.163-.3-.322-.5-.549.337.046.6.072.866.119a16.727,16.727,0,0,0,3.5.09,2.86,2.86,0,0,0,.722-.18,59.949,59.949,0,0,0,5.822-2.36,27.894,27.894,0,0,1,5.248-1.812,13.255,13.255,0,0,1,3.266-.3,1.082,1.082,0,0,1,.429.107,8.589,8.589,0,0,1,3.2,2.407A4.2,4.2,0,0,1,263.268,577.447Z" transform="translate(-225.444 -513.471)" fill="#cb2e27"/>
    <path id="Path_6941" data-name="Path 6941" d="M162.73,534.29c.53.051,1.026.087,1.518.15a33.286,33.286,0,0,1,7.042,1.637,16.55,16.55,0,0,1,4.854,2.559,7.466,7.466,0,0,1,2.166,2.616c.041.086.073.177.122.3-.7.141-1.364.294-2.038.41-.913.155-1.824.315-2.749.406a4.569,4.569,0,0,1-1.265-.14,12.119,12.119,0,0,1-3.91-1.314,9.028,9.028,0,0,1-1.34-1.053,23.925,23.925,0,0,1-3.225-3.2A5.909,5.909,0,0,1,162.8,534.6C162.774,534.515,162.759,534.429,162.73,534.29Z" transform="translate(-156.927 -478.548)" fill="#cb2e27"/>
    <path id="Path_6942" data-name="Path 6942" d="M645.591,538.06a.322.322,0,0,1-.023.092,26.5,26.5,0,0,1-4.34,5.307,17.294,17.294,0,0,1-1.366,1.073,6.486,6.486,0,0,1-2.539.93c-.852.185-1.71.366-2.574.47a4.52,4.52,0,0,1-1.26-.139c-1.1-.191-2.209-.4-3.312-.6-.094-.017-.189-.041-.3-.065a1.228,1.228,0,0,1,.536-.932.694.694,0,0,0,.229-.322,1.224,1.224,0,0,1,.938-.858.449.449,0,0,0,.264-.139,6.677,6.677,0,0,1,2.659-2.222,24.014,24.014,0,0,1,5.513-1.918c.622-.153,1.244-.312,1.876-.42.525-.089,1.061-.116,1.594-.156.644-.049,1.3-.083,1.948-.121A.939.939,0,0,1,645.591,538.06Z" transform="translate(-573.966 -481.896)" fill="#cb2e27"/>
    <path id="Path_6943" data-name="Path 6943" d="M117.707,416.56c.578.389,1.133.762,1.685,1.135a47.872,47.872,0,0,1,5.064,3.815,14.1,14.1,0,0,1,2.941,3.378,3.994,3.994,0,0,1,.649,1.931,6.3,6.3,0,0,1-.193,1.308c-.013.069-.144.155-.226.163-.567.062-1.136.107-1.706.15a.9.9,0,0,1-.362-.068A13.009,13.009,0,0,1,117.8,419a18.69,18.69,0,0,1-.142-2.211A1.017,1.017,0,0,1,117.707,416.56Z" transform="translate(-116.692 -373.447)" fill="#cb2e27"/>
    <path id="Path_6944" data-name="Path 6944" d="M342.05,626.808a8.662,8.662,0,0,1,.911-.311,5.112,5.112,0,0,0,2.222-1.263,22.6,22.6,0,0,1,4.406-3.069,6.065,6.065,0,0,1,2.561-.784,3.371,3.371,0,0,1,.85.07,1.738,1.738,0,0,1,1.338,1.165,3.533,3.533,0,0,1-.8,3.995,8.162,8.162,0,0,1-1.254,1.121,2.755,2.755,0,0,1-1.081.333c-1.521.246-3.045.493-4.573.675a4.344,4.344,0,0,1-1.416-.19,7.689,7.689,0,0,1-2.3-.843,4.442,4.442,0,0,1-.709-.6A1.164,1.164,0,0,1,342.05,626.808Z" transform="translate(-317.012 -556.294)" fill="#cb2e27"/>
    <path id="Path_6945" data-name="Path 6945" d="M735.563,419.31a23.187,23.187,0,0,1-2.224,6.419,14.291,14.291,0,0,1-4.613,4.941,1.874,1.874,0,0,1-.688.182c-.613.107-1.231.2-1.842.322a1.461,1.461,0,0,1-.737-.127.7.7,0,0,1-.581-.812c.027-.479-.02-.965-.014-1.444a.7.7,0,0,1,.138-.336,26.658,26.658,0,0,1,5.9-6.407,19.852,19.852,0,0,1,4.317-2.6C735.319,419.4,735.418,419.367,735.563,419.31Z" transform="translate(-658.761 -375.902)" fill="#cb2e27"/>
    <path id="Path_6946" data-name="Path 6946" d="M492.611,627.964a2.26,2.26,0,0,1-1.055.987,8.112,8.112,0,0,1-2.566.7,18.277,18.277,0,0,1-1.906.252,7.027,7.027,0,0,1-1.485-.145,10.271,10.271,0,0,1-3.819-1.394,2.094,2.094,0,0,1-.562-.519,4.726,4.726,0,0,1-1.031-2.9,2.333,2.333,0,0,1,2.1-2.4,8.328,8.328,0,0,1,1.147-.048.893.893,0,0,1,.375.12,41.649,41.649,0,0,1,4.453,2.766,30.13,30.13,0,0,0,4.235,2.5A.939.939,0,0,1,492.611,627.964Z" transform="translate(-440.331 -557.298)" fill="#cb2e27"/>
    <path id="Path_6947" data-name="Path 6947" d="M112.521,297.783a7.314,7.314,0,0,1-2.955-3.289,10.524,10.524,0,0,1-.88-3.671,26.932,26.932,0,0,1,.6-6.933,1.707,1.707,0,0,1,.265-.441c.3.511.548.928.784,1.354a24.609,24.609,0,0,1,2.7,7.037,17.95,17.95,0,0,1,.353,4.813.439.439,0,0,1-.09.237C113.052,297.185,112.8,297.469,112.521,297.783Z" transform="translate(-108.64 -254.616)" fill="#cb2e27"/>
    <path id="Path_6948" data-name="Path 6948" d="M790.126,287c.131.789.266,1.514.367,2.242a25.984,25.984,0,0,1,.276,4.349,12.319,12.319,0,0,1-.81,4.449,4.945,4.945,0,0,1-2.789,2.908c-.124.049-.253.087-.381.127-.059.018-.12.028-.244.057-.107-.464-.227-.916-.3-1.376a13.461,13.461,0,0,1,.764-6.522,31.057,31.057,0,0,1,3-6.109C790.032,287.1,790.052,287.08,790.126,287Z" transform="translate(-713.443 -257.785)" fill="#cb2e27"/>
    <path id="Path_6949" data-name="Path 6949" d="M220.043,477.79c.585.3,1.116.571,1.643.846a36.97,36.97,0,0,1,6.2,3.884,14.082,14.082,0,0,1,3.521,3.986,8.687,8.687,0,0,1,.965,2.72c-.107-.047-.2-.085-.29-.127a41.2,41.2,0,0,1-5.994-3.662,19.427,19.427,0,0,1-3.845-3.879c-.688-.838-1.277-1.757-1.886-2.656A1.747,1.747,0,0,1,220.043,477.79Z" transform="translate(-208.09 -428.109)" fill="#cb2e27"/>
    <path id="Path_6950" data-name="Path 6950" d="M615.949,481a.644.644,0,0,1-.093.68c-1.152,1.545-2.264,3.118-3.433,4.646a8.8,8.8,0,0,1-1.3,1.193,29.807,29.807,0,0,1-7.069,4.586c-.088.041-.176.078-.338.15.087-.359.148-.66.233-.954a9.972,9.972,0,0,1,2.183-3.824,20.1,20.1,0,0,1,5.326-4.172c1.4-.792,2.86-1.491,4.291-2.23A2.034,2.034,0,0,1,615.949,481Z" transform="translate(-550.612 -430.974)" fill="#cb2e27"/>
    <path id="Path_6951" data-name="Path 6951" d="M267.642,21.194a5.421,5.421,0,0,1,3.157-.667,4.787,4.787,0,0,1-.272.623,5,5,0,0,1-1.59,1.489,16.93,16.93,0,0,1-3.3,1.7c-.066.026-.133.05-.2.072a.433.433,0,0,1-.075-.019,9.237,9.237,0,0,1,1.832-2.732l-.025-.07c-.182.029-.368.045-.546.091a2.269,2.269,0,0,0-1.065.733.429.429,0,0,0-.088.215A6.6,6.6,0,0,1,263,26.673a21.856,21.856,0,0,1-2.247,1.547,13.308,13.308,0,0,1,2.066-4.2,17.564,17.564,0,0,1-3.1,1.457c.107-.585.215-1.113.291-1.647a1.444,1.444,0,0,1,.474-.858,16.73,16.73,0,0,1,4.046-2.775,1.04,1.04,0,0,1,.137-.043c-.5,1.132-.984,2.224-1.466,3.316l.058.038,1.7-1.036-.495-.039a3.352,3.352,0,0,1,1.4-2.712,16.581,16.581,0,0,1,1.989-1.029c.368-.178.766-.294,1.137-.468a.421.421,0,0,1,.526.118c.056.062,0,.262-.049.378a7.625,7.625,0,0,1-1.48,1.987q-.191.211-.381.429Z" transform="translate(-243.513 -17.798)" fill="#cb2e27"/>
    <path id="Path_6952" data-name="Path 6952" d="M584.976,24.042l-.375-.1a1.1,1.1,0,0,0,.113.271,6.062,6.062,0,0,0,1.947,1.32c-.488-1.308-1.345-2.426-1.849-3.8a11.54,11.54,0,0,1,3.849,2.625,5.414,5.414,0,0,1,1.016,2.493c-.182.2-.359.158-.581.039-.667-.358-1.349-.691-2.026-1.031a.478.478,0,0,0-.28-.056l1.971,3.81a3.111,3.111,0,0,1-1.765-.644,7.063,7.063,0,0,1-2.853-4.583.77.77,0,0,0-.5-.675c-.395-.177-.773-.388-1.18-.6l1.515,2.5-.065.1a3.735,3.735,0,0,1-.429-.03A7.391,7.391,0,0,1,580.1,24a4.888,4.888,0,0,1-1.543-1.986.486.486,0,0,1-.015-.07.877.877,0,0,1,.783-.1c.56.143,1.111.322,1.666.485.084.025.168.046.293.082-.078-.268-.048-.536-.36-.644a.779.779,0,0,1-.294-.3,3.3,3.3,0,0,1-.571-1.566c-.015-.135-.013-.283.187-.215A12.5,12.5,0,0,1,583,20.912a4.5,4.5,0,0,1,1.629,2.171C584.748,23.387,584.851,23.7,584.976,24.042Z" transform="translate(-528.133 -19.13)" fill="#cb2e27"/>
    <path id="Path_6953" data-name="Path 6953" d="M177.024,61.6a1.719,1.719,0,0,1-.054.346,18.975,18.975,0,0,1-3.029,5.294,6.5,6.5,0,0,1-1.65,1.43.984.984,0,0,1-.127.051c-.127-.375-.242-.751-.382-1.109a.4.4,0,0,0-.222-.23c-.173-.038-.2.117-.234.255-.353,1.333-.652,2.682-1.083,3.993a7.776,7.776,0,0,1-3.08,4.128c-.087.058-.176.107-.334.215.026-.528.036-.986.075-1.442a10.905,10.905,0,0,1,1.129-4.177,7.539,7.539,0,0,1,3.213-3.241.88.88,0,0,0,.343-.343,10.678,10.678,0,0,1,3.187-3.592c.653-.489,1.33-.955,2-1.428C176.839,61.7,176.91,61.668,177.024,61.6Z" transform="translate(-160.588 -56.564)" fill="#cb2e27"/>
    <path id="Path_6954" data-name="Path 6954" d="M169.99,386.615c-.472-.185-.872-.327-1.26-.5a14.758,14.758,0,0,1-5.182-3.882.808.808,0,0,1-.128-.2c-.313-.7-.6-1.411-.94-2.1a7.238,7.238,0,0,1-.519-2.307c-.073-.536-.122-1.073-.191-1.7.167.061.3.071.369.141,1.449,1.4,2.9,2.8,4.332,4.218.536.536,1.034,1.108,1.528,1.683a10.218,10.218,0,0,1,1.279,2.367,17.576,17.576,0,0,1,.665,1.743A2.458,2.458,0,0,1,169.99,386.615Z" transform="translate(-156.07 -337.175)" fill="#cb2e27"/>
    <path id="Path_6955" data-name="Path 6955" d="M700.34,390.474c.107-.371.194-.685.3-.993a14.937,14.937,0,0,1,3.271-5.281,49.475,49.475,0,0,1,4.461-4.114.586.586,0,0,1,.1-.046c0,.27.014.523,0,.775a9.845,9.845,0,0,1-2.17,5.781,11.805,11.805,0,0,1-4.2,3.155c-.429.2-.882.384-1.325.572C700.656,390.372,700.529,390.409,700.34,390.474Z" transform="translate(-636.868 -340.844)" fill="#cb2e27"/>
    <path id="Path_6956" data-name="Path 6956" d="M129.526,187.475a2.917,2.917,0,0,1-.816-1.833c-.076-.976-.042-1.96-.107-2.936a6.856,6.856,0,0,1,.833-3.085,17.234,17.234,0,0,1,1.824-3.325.394.394,0,0,1,.285-.158.313.313,0,0,1,.322.261,11.982,11.982,0,0,1-1.541,9.888C130.062,186.672,129.8,187.057,129.526,187.475Z" transform="translate(-126.454 -158.815)" fill="#cb2e27"/>
    <path id="Path_6957" data-name="Path 6957" d="M149.173,274.91a1.1,1.1,0,0,1,.107.116,22.535,22.535,0,0,1,2.493,3.953,8.292,8.292,0,0,1,.422,1.593,23.656,23.656,0,0,1,.564,5.094c0,.339-.035.677-.056,1.015a.935.935,0,0,1-.058.144c-.134-.064-.322-.091-.383-.193-.946-1.553-1.918-3.094-2.8-4.683a7.616,7.616,0,0,1-.358-6.973C149.118,274.952,149.144,274.938,149.173,274.91Z" transform="translate(-144.161 -246.992)" fill="#cb2e27"/>
    <path id="Path_6958" data-name="Path 6958" d="M751.027,288.581a14.448,14.448,0,0,1,3.495-12.021c.107.488.214.915.3,1.346a10.225,10.225,0,0,1-.975,6.747,7.529,7.529,0,0,1-.616.873q-.973,1.378-1.947,2.751C751.216,288.377,751.129,288.464,751.027,288.581Z" transform="translate(-681.944 -248.465)" fill="#cb2e27"/>
    <path id="Path_6959" data-name="Path 6959" d="M779.848,180.28a3.75,3.75,0,0,1,1.395,1.351,13.454,13.454,0,0,1,1.326,3.287,10.577,10.577,0,0,1,.018,5.7,1.349,1.349,0,0,1-.6.939c-.331-.527-.653-1.037-.974-1.549a2.8,2.8,0,0,0-.2-.322,5.634,5.634,0,0,1-1.087-3.239c-.112-1.155-.206-2.33-.208-3.495a21.444,21.444,0,0,1,.257-2.443A1.453,1.453,0,0,1,779.848,180.28Z" transform="translate(-707.554 -162.513)" fill="#cb2e27"/>
    <path id="Path_6960" data-name="Path 6960" d="M747.095,209.606a12.31,12.31,0,0,1-1.138-2.618,11.088,11.088,0,0,1-.286-4.712c.147-1.066.353-2.125.543-3.185a.3.3,0,0,1,.168-.215c.134-.028.291-.064.382.134a11.015,11.015,0,0,0,.542,1.043c.114.192.294.343.423.527a2.5,2.5,0,0,1,.3.53,7.769,7.769,0,0,1,.453,3.674,15.588,15.588,0,0,1-.622,3.271A5.637,5.637,0,0,1,747.095,209.606Z" transform="translate(-677.223 -179.094)" fill="#cb2e27"/>
    <path id="Path_6961" data-name="Path 6961" d="M168.659,207.689c-.135-.391-.259-.731-.372-1.073a13.116,13.116,0,0,1-.783-4.477,7.258,7.258,0,0,1,2.086-4.958,2.008,2.008,0,0,1,.158-.131c.125.561.256,1.086.358,1.616a17.181,17.181,0,0,1,.322,4.415,7.375,7.375,0,0,1-1.436,4.236C168.9,207.432,168.8,207.536,168.659,207.689Z" transform="translate(-161.186 -177.484)" fill="#cb2e27"/>
    <path id="Path_6962" data-name="Path 6962" d="M735.953,124.4a4.16,4.16,0,0,1-1.753-1.159,11.7,11.7,0,0,1-1.464-2.228,9.406,9.406,0,0,1-.844-2.88c-.163-.774-.287-1.558-.429-2.337a.881.881,0,0,1,0-.119,3.183,3.183,0,0,1,1.793.9,7.014,7.014,0,0,1,1.619,2.525,15.235,15.235,0,0,1,1.094,5.069A2.014,2.014,0,0,1,735.953,124.4Z" transform="translate(-664.651 -104.842)" fill="#cb2e27"/>
    <path id="Path_6963" data-name="Path 6963" d="M716.409,133.12a14.276,14.276,0,0,1,1.716,1.944,4.984,4.984,0,0,1,.81,2.23,9.442,9.442,0,0,1,.192,3.029c-.063.439-.177.871-.258,1.309-.039.215-.155.235-.322.173a1.744,1.744,0,0,1-.871-.8,8.512,8.512,0,0,1-.973-2.7,16.612,16.612,0,0,1-.388-4.411C716.32,133.649,716.372,133.407,716.409,133.12Z" transform="translate(-651.113 -120.412)" fill="#cb2e27"/>
    <path id="Path_6964" data-name="Path 6964" d="M195.785,140.563c-.215-.786-.441-1.491-.574-2.214a2.86,2.86,0,0,1,.146-.965,11.072,11.072,0,0,1,2.831-5.489.833.833,0,0,1,.087-.074c.017.027.04.047.04.068a22,22,0,0,1-.482,5.553,5.093,5.093,0,0,1-1.416,2.65C196.241,140.246,196.035,140.375,195.785,140.563Z" transform="translate(-185.913 -119.251)" fill="#cb2e27"/>
    <path id="Path_6965" data-name="Path 6965" d="M681.183,62.83c.9.738,1.824,1.458,2.7,2.222a8.015,8.015,0,0,1,1.844,2.277c.007.015.017.03.027.046a1.988,1.988,0,0,1,.214,1.972,5.359,5.359,0,0,0-.214.758.364.364,0,0,1-.092-.05,26.238,26.238,0,0,1-3.747-4.491,5.094,5.094,0,0,1-.819-1.99,5.5,5.5,0,0,1,0-.7Z" transform="translate(-619.678 -57.662)" fill="#cb2e27"/>
    <path id="Path_6966" data-name="Path 6966" d="M352.29,17.021a1.394,1.394,0,0,1,.422-1.006,3.865,3.865,0,0,1,1.949-1,12.023,12.023,0,0,1,4.959-.2.368.368,0,0,1,.153.04c.076.055.174.114.2.193.043.126-.013.223-.156.29-.944.442-1.88.9-2.827,1.34a1.254,1.254,0,0,1-.442.073C355.143,16.845,353.738,16.93,352.29,17.021Z" transform="translate(-326.153 -14.65)" fill="#cb2e27"/>
    <path id="Path_6967" data-name="Path 6967" d="M230.16,96.922c.266-1.331.519-2.622.786-3.909a1.323,1.323,0,0,1,.215-.4q.547-.858,1.1-1.706a.629.629,0,0,1,.132-.164c.417-.314.838-.624,1.257-.934l.107.048c-.1.718-.156,1.442-.294,2.145a11.623,11.623,0,0,1-1.879,4.248.567.567,0,0,1-.231.206C230.982,96.616,230.606,96.753,230.16,96.922Z" transform="translate(-217.124 -81.747)" fill="#cb2e27"/>
    <path id="Path_6968" data-name="Path 6968" d="M527.36,18.073c-.48,0-.915.018-1.349,0a12.326,12.326,0,0,1-4.291-.911c-.536-.228-1.045-.5-1.573-.738-.214-.1-.2-.268-.16-.423.018-.07.167-.139.263-.149a16.311,16.311,0,0,1,3.813-.006,5.654,5.654,0,0,1,2.405.74,1.8,1.8,0,0,1,.858,1.18A2.282,2.282,0,0,1,527.36,18.073Z" transform="translate(-475.84 -15.621)" fill="#cb2e27"/>
    <path id="Path_6969" data-name="Path 6969" d="M366.847,525.713a1.7,1.7,0,0,1,1.716.215.5.5,0,0,1,.071.8c-.133.135-.247.067-.377-.023a2.535,2.535,0,0,0-.549-.313c-.086-.032-.215.056-.327.088a.759.759,0,0,0,.107.3c.144.157.322.283.478.429a.954.954,0,0,1,.357,1.092,1.124,1.124,0,0,1-1.016.788,2.024,2.024,0,0,1-1.455-.429.536.536,0,0,1-.055-.818c.141-.144.261-.064.4.027a3.5,3.5,0,0,0,.712.392c.1.039.261-.074.394-.119a1.932,1.932,0,0,0-.159-.359,1.185,1.185,0,0,0-.261-.227,1.078,1.078,0,0,1-.429-1.446l-.837-.378c-.056.085-.118.167-.17.256q-.531.9-1.057,1.8c-.081.136-.174.292-.349.208a3.256,3.256,0,0,1-.6-.4c-.024-.019.046-.177.093-.259.329-.571.665-1.139,1-1.708.058-.1.113-.2.184-.33-.192-.1-.368-.193-.55-.277a.279.279,0,0,1-.157-.429c.137-.289.3-.4.5-.3.7.332,1.4.661,2.092,1.017C366.714,525.368,366.756,525.557,366.847,525.713Z" transform="translate(-336.103 -469.593)" fill="#cb2e27"/>
    <path id="Path_6970" data-name="Path 6970" d="M682.68,100.328a4.533,4.533,0,0,1-1.57-1.048A5.86,5.86,0,0,1,679.553,96a24.218,24.218,0,0,1-.244-2.747,8.058,8.058,0,0,1,2.5,3.111A15.7,15.7,0,0,1,682.68,100.328Z" transform="translate(-618.094 -84.818)" fill="#cb2e27"/>
    <path id="Path_6971" data-name="Path 6971" d="M215.106,344.048c.485-.062.965-.134,1.453-.18.127-.012.34.02.373.094a1.433,1.433,0,0,1,.087.584c0,.048-.143.128-.226.139q-1.549.215-3.1.4a.377.377,0,0,1-.456-.344c-.1-.468-.036-.622.374-.9a16.6,16.6,0,0,0,1.4-1.005c-.272.03-.545.059-.819.092-.292.034-.582.074-.875.107-.274.03-.366-.052-.413-.357-.049-.322.018-.447.3-.485.742-.1,1.486-.187,2.228-.281.256-.032.512-.073.768-.1.322-.034.442.06.512.368.122.536.063.683-.395.984l-1.242.817Z" transform="translate(-201.708 -306.713)" fill="#cb2e27"/>
    <path id="Path_6972" data-name="Path 6972" d="M527.169,533.862c.2.467.394.933.588,1.4.119.283.08.373-.2.494-.379.163-.514.135-.637-.152q-.536-1.254-1.063-2.512c-.13-.313-.053-.444.248-.587a.966.966,0,0,1,1.2.175,7.515,7.515,0,0,0,1.2.873c-.166-.4-.344-.789-.493-1.193-.05-.136-.092-.394-.033-.429a1.858,1.858,0,0,1,.636-.215c.048-.009.148.117.183.2q.55,1.276,1.085,2.559c.117.28.04.419-.234.55a.878.878,0,0,1-1.057-.134c-.436-.379-.9-.719-1.359-1.073Z" transform="translate(-481.047 -476.25)" fill="#cb2e27"/>
    <path id="Path_6973" data-name="Path 6973" d="M305.251,494.7a2.119,2.119,0,0,1,1.672,1.156,1.02,1.02,0,0,1,0,.98,2.474,2.474,0,0,1-1.833,1.451,2.032,2.032,0,0,1-2.062-1.4,1.154,1.154,0,0,1,.011-.473A2.473,2.473,0,0,1,305.251,494.7Zm.04.884a1.7,1.7,0,0,0-1.287,1.1.617.617,0,0,0,.1.372.735.735,0,0,0,1.005.273,3.745,3.745,0,0,0,.756-.661.531.531,0,0,0,.119-.663A.8.8,0,0,0,305.291,495.584Z" transform="translate(-282.159 -443.205)" fill="#cb2e27"/>
    <path id="Path_6974" data-name="Path 6974" d="M461,548.477c.028,1.4-.98,1.931-2.184,1.8-1.147-.119-1.468-.917-1.44-1.892a1.69,1.69,0,0,1,2.064-1.691C460.515,546.783,460.988,547.353,461,548.477Zm-1,.067c-.022-.158-.039-.322-.068-.473a.607.607,0,0,0-.477-.547.826.826,0,0,0-.858.215,1.494,1.494,0,0,0,.059,1.576.655.655,0,0,0,.277.148c.64.164,1.046-.19,1.067-.917Z" transform="translate(-419.965 -489.615)" fill="#cb2e27"/>
    <path id="Path_6975" data-name="Path 6975" d="M629.476,470.663a1.91,1.91,0,0,1-2.349,1.662,2.755,2.755,0,0,1-1.395-1.042,1.317,1.317,0,0,1-.207-1.169,1.812,1.812,0,0,1,2.661-1.089,2.515,2.515,0,0,1,1.016.928A5.276,5.276,0,0,1,629.476,470.663Zm-1.716.83a.7.7,0,0,0,.632-.993,1.8,1.8,0,0,0-1.146-.812.712.712,0,0,0-.806.87,1.943,1.943,0,0,0,1.325.935Z" transform="translate(-570.028 -420.063)" fill="#cb2e27"/>
    <path id="Path_6976" data-name="Path 6976" d="M221.732,376.914a1.661,1.661,0,0,1-1.609-1.1,8.836,8.836,0,0,1-.322-1.073c-.071-.28.012-.4.295-.463q1.432-.331,2.867-.649c.356-.078.473,0,.567.342.08.293.163.585.226.881a1.462,1.462,0,0,1-1.038,1.844A9.2,9.2,0,0,1,221.732,376.914Zm-.949-1.85c.055.476.249.769.593.833a1.618,1.618,0,0,0,1.322-.274.724.724,0,0,0,.172-.917.214.214,0,0,0-.173-.07c-.634.135-1.265.281-1.912.427Z" transform="translate(-207.855 -335.095)" fill="#cb2e27"/>
    <path id="Path_6977" data-name="Path 6977" d="M694.237,318.646c-.014.223-.025.445-.043.667a.334.334,0,0,1-.39.337c-.678-.031-1.355-.058-2.031-.086-.331-.014-.661-.022-.989-.045s-.415-.124-.4-.439a9.488,9.488,0,0,1,.1-1.143,1.453,1.453,0,0,1,1.287-1.255,2.783,2.783,0,0,1,1.469.121,1.436,1.436,0,0,1,.986,1.361c.01.16,0,.322,0,.482Zm-.879.069c.136-.644-.123-1.03-.737-1.1a3.117,3.117,0,0,0-.644-.005.78.78,0,0,0-.734.858.249.249,0,0,0,.174.163c.64.036,1.284.059,1.94.084Z" transform="translate(-627.979 -284.24)" fill="#cb2e27"/>
    <path id="Path_6978" data-name="Path 6978" d="M675.6,387.584c.077-.244.146-.454.214-.665.021-.067.033-.136.058-.241-.315-.085-.621-.164-.926-.247s-.379-.179-.307-.472c.1-.409.221-.5.549-.42q1.474.38,2.947.765c.277.073.34.2.259.5-.1.364-.215.457-.5.385-.322-.079-.644-.152-.958-.245-.147-.043-.215-.011-.25.136-.061.229-.143.455-.226.718.384.107.741.2,1.1.3.322.089.355.152.269.478-.107.393-.214.485-.515.408-1-.257-2-.522-3-.777a.3.3,0,0,1-.247-.412c.107-.489.214-.557.7-.429Z" transform="translate(-613.394 -345.729)" fill="#cb2e27"/>
    <path id="Path_6979" data-name="Path 6979" d="M332.688,514.246c-.089.452-.161.879-.26,1.3-.073.312-.2.358-.483.215a3,3,0,0,1-.294-.182.334.334,0,0,1-.156-.41c.079-.282.135-.571.187-.858a.453.453,0,0,0-.032-.283c-.073-.127-.182-.2-.306-.027-.165.232-.345.454-.506.689a.32.32,0,0,1-.481.107c-.085-.049-.171-.1-.25-.153-.226-.162-.242-.262-.078-.483q.837-1.126,1.678-2.253c.2-.27.339-.3.634-.117.26.157.52.311.773.477.4.263.761.567.666,1.114C333.695,513.875,333.308,514.163,332.688,514.246Zm-.788-.973a2.415,2.415,0,0,0,.578.154.418.418,0,0,0,.282-.228c.032-.068-.038-.221-.107-.289-.259-.254-.315-.243-.53.043C332.06,513.039,332,513.126,331.9,513.274Z" transform="translate(-306.183 -458.362)" fill="#cb2e27"/>
    <path id="Path_6980" data-name="Path 6980" d="M238.844,423.243c.678-.039,1.043.268,1.073.76a.4.4,0,0,1-.131.271q-1.223,1.058-2.46,2.1c-.215.178-.322.147-.472-.092a2.555,2.555,0,0,1-.145-.285.329.329,0,0,1,.1-.448c.058-.042.107-.1.166-.133a.3.3,0,0,0,.107-.5,1.657,1.657,0,0,1-.121-.238c-.207-.422-.207-.422-.66-.362a.6.6,0,0,1-.68-.591c.013-.223.2-.25.371-.265q.678-.056,1.357-.107C237.906,423.308,238.465,423.27,238.844,423.243Zm-.357.929-.026-.068-.843.07c.1.2.169.336.256.506Z" transform="translate(-222.001 -379.41)" fill="#cb2e27"/>
    <path id="Path_6981" data-name="Path 6981" d="M691.226,258.645c-.042.049-.125.158-.214.255a.332.332,0,0,1-.143.071.376.376,0,0,0-.3.57.091.091,0,0,1,0,.026c.091.576.091.576.659.669.285.046.536.536.361.759a.454.454,0,0,1-.367.121c-.794-.114-1.584-.251-2.376-.381-.281-.046-.562-.1-.844-.135a.373.373,0,0,1-.373-.35.7.7,0,0,0-.02-.077c-.129-.571-.107-.616.41-.869.825-.4,1.656-.795,2.476-1.209C690.964,257.858,691.168,257.791,691.226,258.645Zm-1.406,1.394-.107-.547-.751.354.01.062Z" transform="translate(-625.444 -231.842)" fill="#cb2e27"/>
    <path id="Path_6982" data-name="Path 6982" d="M216.968,235.994c-.662.061-.543-.2-.409-.644.078-.263.276-.292.5-.3.453-.02.453-.024.579-.457l.006-.026c.149-.506.149-.506-.3-.791a.565.565,0,0,1,.016-.858.357.357,0,0,1,.3.014c.953.575,1.9,1.155,2.843,1.753a.429.429,0,0,1,.13.359c-.117.666-.148.706-.818.764C218.881,235.881,217.947,235.929,216.968,235.994Zm2.259-1.043.014-.069-.711-.429-.144.536Z" transform="translate(-204.889 -209.481)" fill="#cb2e27"/>
    <path id="Path_6983" data-name="Path 6983" d="M686.712,362.328c.069-.322.127-.6.194-.888s.167-.332.528-.252c.279.061.344.151.286.429-.1.461-.2.922-.306,1.38-.064.275-.183.363-.461.314q-1.515-.26-3.024-.536a.305.305,0,0,1-.269-.409c.1-.488.2-.977.309-1.463.056-.242.2-.3.5-.236.215.045.368.142.309.4-.054.234-.1.47-.154.7-.032.144.009.234.167.222s.359.2.429-.107c.045-.2.077-.4.13-.6s.231-.267.536-.186c.189.05.331.136.259.378-.048.162-.064.333-.107.495-.055.187.021.264.2.285C686.379,362.276,686.528,362.3,686.712,362.328Z" transform="translate(-621.967 -323.528)" fill="#cb2e27"/>
    <path id="Path_6984" data-name="Path 6984" d="M692.115,292.3c-.017-.261-.027-.491-.049-.722s.089-.322.306-.338c.37-.027.48.025.507.267s.043.477.068.756l.726-.036c-.024-.31-.044-.59-.067-.87-.026-.3.06-.393.4-.422.3-.026.407.07.429.362.033.471.079.941.107,1.412.015.281-.088.38-.373.4l-2.985.2c-.29.019-.416-.073-.446-.366-.052-.5-.086-.993-.121-1.491-.018-.249.17-.294.352-.3s.437-.059.47.248a5.6,5.6,0,0,1,.049.666c0,.253.1.341.339.282C691.924,292.325,692.019,292.311,692.115,292.3Z" transform="translate(-628.189 -261.296)" fill="#cb2e27"/>
    <path id="Path_6985" data-name="Path 6985" d="M279.9,474.771c-.229.173-.444.342-.665.5-.258.187-.429.128-.692-.234-.174-.236-.154-.314.114-.518q1.084-.822,2.168-1.648c.37-.28.477-.272.79.062a6.926,6.926,0,0,1,.617.7,1.1,1.1,0,0,1-.773,1.8,1.452,1.452,0,0,1-1.312-.437Zm.665-.5c.148.215.308.377.542.294a.751.751,0,0,0,.412-.327c.1-.209-.107-.342-.265-.492Z" transform="translate(-260.216 -423.542)" fill="#cb2e27"/>
    <path id="Path_6986" data-name="Path 6986" d="M264.209,455.16a1.517,1.517,0,0,1,1.362,1.318c0,.225-.429.565-.634.476-.071-.03-.116-.141-.152-.223a3.747,3.747,0,0,0-.232-.555.337.337,0,0,0-.316-.094.385.385,0,0,0-.134.306,3.164,3.164,0,0,0,.087.552,1.15,1.15,0,0,1-1.625,1.211,1.726,1.726,0,0,1-1.025-1.315c-.054-.273.349-.669.609-.588.091.029.154.188.2.3a3.13,3.13,0,0,0,.24.606.521.521,0,0,0,.429.16c.2-.029.175-.238.154-.4-.025-.194-.082-.385-.092-.579A1.079,1.079,0,0,1,264.209,455.16Z" transform="translate(-245.133 -407.906)" fill="#cb2e27"/>
    <path id="Path_6987" data-name="Path 6987" d="M430.77,549.219a1.759,1.759,0,0,1-1.651-.812,2.173,2.173,0,0,1,.417-2.333,1.9,1.9,0,0,1,2.171-.207c.345.2.4.346.294.728-.074.261-.241.322-.456.148a1.072,1.072,0,0,0-.751-.288.761.761,0,0,0-.207.043,1.236,1.236,0,0,0-.438,1.661.924.924,0,0,0,.918.22c.026,0,.05-.018.076-.022.183-.036.4-.225.522.072a.57.57,0,0,1-.352.692A4.936,4.936,0,0,1,430.77,549.219Z" transform="translate(-394.581 -488.663)" fill="#cb2e27"/>
    <path id="Path_6988" data-name="Path 6988" d="M560,521.7a1.6,1.6,0,0,1,1.348-1.5c.5-.107.676-.045.882.322.148.264.07.4-.226.422a2.169,2.169,0,0,0-.574.086.574.574,0,0,0-.385.811,2.692,2.692,0,0,0,.564.817.8.8,0,0,0,1.18-.176,2.335,2.335,0,0,1,.181-.262.355.355,0,0,1,.268-.089.572.572,0,0,1,.265.758,1.853,1.853,0,0,1-2.538.551A2.328,2.328,0,0,1,560,521.7Z" transform="translate(-511.582 -465.924)" fill="#cb2e27"/>
    <path id="Path_6989" data-name="Path 6989" d="M681.442,239.249c.688-.087.688-.087.5-.714-.125-.414-.031-.552.4-.6a.306.306,0,0,1,.379.247c.061.232.138.459.214.721.343-.078.678-.153,1.011-.233s.429,0,.525.381c.089.351.046.429-.294.517q-1.416.346-2.832.684c-.38.091-.49.024-.6-.355s-.225-.788-.351-1.18c-.079-.247.018-.37.243-.44.322-.1.491-.047.569.189C681.283,238.731,681.362,238.994,681.442,239.249Z" transform="translate(-619.027 -213.981)" fill="#cb2e27"/>
    <path id="Path_6990" data-name="Path 6990" d="M645.917,448.224c.322.185.606.353.895.508a.288.288,0,0,1,.126.463.86.86,0,0,1-.226.291.425.425,0,0,1-.349.056c-.908-.493-1.8-1-2.7-1.516a.307.307,0,0,1-.107-.5c.266-.389.529-.782.8-1.166.17-.237.322-.231.644-.015.214.148.2.3.054.492s-.261.383-.389.575a.368.368,0,0,0-.017.08l.536.314c.154-.222.3-.429.447-.644.165-.23.328-.237.615-.039.224.157.237.254.066.506Z" transform="translate(-586.1 -399.896)" fill="#cb2e27"/>
    <path id="Path_6991" data-name="Path 6991" d="M663.54,411.869l1.852.751c.181.073.363.149.545.215a.292.292,0,0,1,.186.407c-.123.443-.322.545-.737.376-.652-.262-1.3-.529-1.954-.792-.1-.04-.2-.066-.313-.107-.092.185-.174.352-.259.517-.129.249-.261.271-.6.107-.248-.118-.281-.208-.159-.46.3-.617.6-1.232.906-1.846.135-.271.28-.3.619-.124.234.119.264.232.134.5C663.692,411.553,663.625,411.69,663.54,411.869Z" transform="translate(-602.666 -368.307)" fill="#cb2e27"/>
    <path id="Path_6992" data-name="Path 6992" d="M213.6,267.4l2.046.291.977.141c.276.038.366.159.322.44-.06.413-.158.516-.448.474-.776-.113-1.551-.22-2.326-.339-.2-.03-.3.024-.322.232a4.364,4.364,0,0,1-.1.551c-.057.236-.2.292-.536.215-.2-.044-.356-.12-.308-.375.083-.437.15-.877.237-1.313C213.206,267.45,213.291,267.394,213.6,267.4Z" transform="translate(-201.713 -240.285)" fill="#cb2e27"/>
    <path id="Path_6993" data-name="Path 6993" d="M212.207,292.033c-.021.264-.042.492-.058.722-.019.282-.127.38-.41.366-.37-.019-.468-.107-.448-.4.026-.4.049-.8.082-1.2.03-.369.155-.465.514-.44q1.478.1,2.958.191c.329.02.388.1.36.527-.021.333-.107.408-.429.388C213.939,292.129,213.093,292.082,212.207,292.033Z" transform="translate(-200.277 -261.424)" fill="#cb2e27"/>
    <path id="Path_6994" data-name="Path 6994" d="M597,505.3c.249-.179.476-.349.709-.51s.378-.09.586.2c.145.2.089.336-.1.468-.371.263-.732.536-1.1.8-.248.175-.384.159-.582-.061q-.948-1.056-1.888-2.119c-.206-.232-.194-.322.037-.529.374-.327.5-.315.831.059C595.992,504.169,596.492,504.726,597,505.3Z" transform="translate(-542.364 -450.897)" fill="#cb2e27"/>
    <path id="Path_6995" data-name="Path 6995" d="M234.26,404.133c-.088.089-.153.215-.248.239-1.014.329-2.032.644-3.051.965a.29.29,0,0,1-.39-.18c-.045-.107-.088-.214-.124-.322a.262.262,0,0,1,.193-.371c1.018-.322,2.038-.644,3.057-.946a.367.367,0,0,1,.315.107A2.355,2.355,0,0,1,234.26,404.133Z" transform="translate(-217.357 -361.801)" fill="#cb2e27"/>
    <path id="Path_6996" data-name="Path 6996" d="M215.407,328.5c.005.308-.084.4-.388.414l-3.074.148c-.284.014-.383-.1-.408-.462-.021-.322.076-.455.362-.469q1.564-.076,3.128-.147C215.3,327.971,215.4,328.113,215.407,328.5Z" transform="translate(-200.496 -294.371)" fill="#cb2e27"/>
    <path id="Path_6997" data-name="Path 6997" d="M582.078,511.89a1.233,1.233,0,0,1,.214.166c.633.782,1.26,1.566,1.89,2.35a.261.261,0,0,1-.052.414,2.18,2.18,0,0,1-.215.154c-.29.177-.371.166-.585-.1q-.888-1.1-1.771-2.207c-.192-.239-.18-.345.071-.522C581.768,512.053,581.918,511.98,582.078,511.89Z" transform="translate(-530.711 -458.551)" fill="#cb2e27"/>
    <path id="Path_6998" data-name="Path 6998" d="M548.517,377.891c.358-.377.387-.382.8-.173.133.066.27.127.445.208a.949.949,0,0,1,.809-.9c.467-.132.79.274,1.23.35a.531.531,0,0,1,.729-.429c-.477,1.025-.954,2.048-1.436,3.086a.427.427,0,0,0,.1.055.786.786,0,0,1,.444,1.28,2.387,2.387,0,0,1-1.122.791c-.107.041-.267-.055-.423-.093.352-.233.668-.414.953-.636a.6.6,0,0,0,.131-.836c-.16-.214-.294-.206-.443,0-.46.644-.9,1.313-1.407,1.915a22.962,22.962,0,0,1-1.943,2.051,25.375,25.375,0,0,1-2.154,1.716c-.117.086-.366-.009-.555-.019l-.014-.093.452-.4c-.089-.115-.167-.232-.262-.332-.147-.156-.12-.276.046-.4a4.02,4.02,0,0,0,.414-.337c.14-.133.315-.263.179-.5a.487.487,0,0,0-.625-.206,2.057,2.057,0,0,0-.2.107.8.8,0,0,1,.121.152c.028.069.072.163.046.214-.117.24-.365.2-.564.2a.352.352,0,0,1-.257-.227.314.314,0,0,0-.239-.278c-.28-.107-.559-.226-.858-.349l.13-.357c.322.138.62.281.928.387a.553.553,0,0,0,.384-.027,1.305,1.305,0,0,1,1.275-.08.67.67,0,0,1,.191,1.143c-.128.136-.275.253-.414.381.052.178.134.181.266.071q.461-.386.937-.756c.149-.117.311-.215.486-.34l-2-1.963c.429-.249.548-.24.827.048.128.133.238.284.39.467.055-.139.08-.185.092-.235a.856.856,0,0,1,1.462-.472c.215.183.437.366.683.572l.612-.684c-.341-.434-1.039-.513-.994-1.256-.369.053-.718.1-1.063.152s-.335.061-.408-.329c.4-.052.79-.107,1.185-.153.221-.026.444-.042.667-.046.194,0,.415-.025.514.194.116.256-.16.29-.308.447l.7.542c.276-.354.53-.682.783-1.009.116-.149.075-.239-.088-.33-.653-.367-1.3-.745-1.948-1.12-.083-.048-.163-.1-.251-.156.419-.322.419-.322.83-.082l1.824,1.051.429-.8Zm3.04-.029c-.262-.126-.521-.255-.785-.374-.137-.062-.331-.143-.4.034s-.134.536-.039.611a3.762,3.762,0,0,0,.872.424c.107-.189.214-.377.322-.566a.63.63,0,0,0,.027-.125ZM547.5,383.8l.629-.615-.047-.071-1.235.12Zm.322-.987c.01-.024.019-.047.03-.071-.132-.115-.264-.231-.4-.343-.338-.286-.518-.226-.611.215a1.9,1.9,0,0,0-.016.293Z" transform="translate(-496.325 -338.056)" fill="#cb2e27"/>
    <path id="Path_6999" data-name="Path 6999" d="M350.411,151.428l-.656.523c.644.809,1.269,1.6,1.9,2.386a.535.535,0,0,1-.787-.138l-.555-.689-.723.673.12.161c.139.187.1.322-.128.36a1.853,1.853,0,0,1-.478.036c-.142-.015-.333-.049-.4-.146s.033-.265.071-.466a.831.831,0,0,0-.239-.021c-.165.025-.322.094-.491.113a.659.659,0,0,1-.694-.4.519.519,0,0,1,.074-.622.655.655,0,0,1,.771-.215,2.71,2.71,0,0,1,.632.429,5.143,5.143,0,0,1,.413.419c.231-.215.454-.421.662-.637a.215.215,0,0,0-.006-.2c-.174-.236-.363-.461-.556-.7-.179.13-.353.238-.507.37-.327.278-.4.286-.814.023.224-.191.429-.381.655-.556a16.2,16.2,0,0,1,1.567-1.195,19.4,19.4,0,0,1,4.062-2.008c.289-.092.567-.215.851-.322.441-.168.464-.162.812.24l-.452.215,1.13,2.809c-.536.033-.6-.013-.78-.473-.159-.413-.322-.825-.492-1.261-.246.1-.466.168-.669.269a.366.366,0,0,0-.162.564,2.85,2.85,0,0,0,.488.517,1.949,1.949,0,0,0,.322.2l.322.2c-.059.121-.116.236-.208.424-.429-.341-.849-.644-1.224-.987a1.24,1.24,0,0,1-.3-.579.608.608,0,0,1,.365-.751c.167-.082.346-.141.521-.207.371-.142.373-.148.139-.536l-2.376.928c.148.628.837,1.021.452,1.752.392.117.763.228,1.135.338s.363.107.235.556c-.707-.271-1.412-.536-2.109-.815-.159-.063-.31-.215-.223-.4.042-.092.214-.122.337-.177a1.153,1.153,0,0,1,.162-.041c-.156-.278-.3-.536-.447-.793a.119.119,0,0,0-.114-.035c-.37.187-.736.38-1.126.584l1.692,2.548c-.443.137-.575.093-.809-.258l-1.125-1.694C350.573,151.639,350.5,151.549,350.411,151.428Zm-1.983,2.274a2.262,2.262,0,0,0-.3-.3c-.057-.039-.158-.016-.238-.02,0,.082-.041.181-.008.241C348.007,153.828,348.188,153.833,348.428,153.7Z" transform="translate(-321.678 -134.141)" fill="#cb2e27"/>
    <path id="Path_7000" data-name="Path 7000" d="M609.82,276.407l.208.249c-.166.147-.328.283-.483.429a1.2,1.2,0,0,0-.375,1.117.493.493,0,0,0,.127.285,1.288,1.288,0,0,0,.343.155,1.659,1.659,0,0,0,.084-.328.846.846,0,0,0-.055-.315c-.166-.489.072-.817.612-1.05a.5.5,0,0,1,.726.473c.011.187.015.375.043.56.009.056.085.107.131.153.046-.059.136-.119.134-.176-.022-.678-.061-1.355-.089-2.038-.01-.227-.141-.247-.322-.224q-1.073.131-2.145.251c-.1.012-.193.012-.292.017.028-.382.132-.495.472-.536l1.913-.215a2.888,2.888,0,0,0,.286-.061c-.1-.362-.056-.66.384-.751.033.247.068.5.114.838a3.03,3.03,0,0,0,.562-.41.521.521,0,0,0,.093-.436c-.034-.1-.237-.132-.364-.2-.076-.041-.148-.088-.223-.132a.692.692,0,0,1,.137-.2.619.619,0,0,1,.763.082.74.74,0,0,1,.114.867,1.361,1.361,0,0,1-.839.62c-.178.058-.206.129-.191.322.061.81.086,1.622.122,2.433.01.223.01.446.024.668.011.16.056.322-.128.429-.034.019-.048.092-.055.142q-.055.411-.1.823c-.046.413-.058.429-.487.52-.011-.014-.03-.027-.03-.041-.011-.395-.009-.4-.406-.454-.69-.087-1.38-.161-2.071-.241-.076-.009-.152-.021-.235-.033.2-.44.269-.465.7-.409.688.089,1.376.16,2,.231a2.062,2.062,0,0,0,.322-.536,3.134,3.134,0,0,0,.012-.644c-.183,0-.332-.006-.478,0-.2.011-.3-.065-.3-.277,0-.267-.033-.536-.043-.8-.006-.164-.089-.221-.241-.209a.193.193,0,0,0-.2.25c.03.194.075.385.107.579a.838.838,0,0,1-.664.87.721.721,0,0,1-.805-.584,1.858,1.858,0,0,1,.048-.811A2.446,2.446,0,0,1,609.82,276.407Z" transform="translate(-554.719 -245.977)" fill="#cb2e27"/>
    <path id="Path_7001" data-name="Path 7001" d="M464.046,456.36c.811.04,1.578.042,2.334.128a1.371,1.371,0,0,1,1.106.948,3.1,3.1,0,0,1,.032,2.253,1.626,1.626,0,0,1-1.651,1.123c-.562.01-1.124-.024-1.687-.027-.215,0-.189-.138-.187-.271q.026-1.807.053-3.614C464.048,456.739,464.046,456.581,464.046,456.36Zm.809.784v2.746c0,.153.064.2.208.2.267-.006.536.006.8,0a.758.758,0,0,0,.833-.672,5.778,5.778,0,0,0,.046-1.453.831.831,0,0,0-.845-.811,10,10,0,0,0-1.048-.01Z" transform="translate(-425.872 -408.978)" fill="#cb2e27"/>
    <path id="Path_7002" data-name="Path 7002" d="M506.239,144.838c.06-.238.107-.44.168-.664-.549-.154-1.064-.335-1.593-.438-.389-.076-.548-.271-.545-.706l3.763,1.073c.1-.575.275-.808.714-.882a.946.946,0,0,1,.8.234c.285.251.536.542.8.816a.416.416,0,0,1,.011.569c-.236-.265-.449-.536-.7-.774a1.323,1.323,0,0,0-.529-.289.568.568,0,0,0-.615.322c-.069.148-.058.275.121.3.388.066.411.349.42.678-.072-.015-.129-.021-.182-.039-.415-.132-.415-.133-.554.269l-.742,2.175c-.027.082-.059.161-.091.247-.422-.355-.429-.39-.277-.858.214-.644.436-1.282.653-1.923.025-.074.044-.151.071-.248l-.983-.41c-.253,1.014-.491,1.968-.729,2.926-.576-.253-.419-.689-.3-1.044a2.815,2.815,0,0,1-.872-.173,1.427,1.427,0,0,1-.523-.644.723.723,0,0,1,.536-1.065A.975.975,0,0,1,506.239,144.838Zm-1,.032c-.255.1-.378.246-.34.478.034.215.289.337.581.3Zm.355-.08.269.821a.392.392,0,0,0,.272-.5C506.087,144.864,505.875,144.8,505.593,144.789Z" transform="translate(-461.83 -129.259)" fill="#cb2e27"/>
    <path id="Path_7003" data-name="Path 7003" d="M549.283,162.863a2.567,2.567,0,0,1,.418.247.738.738,0,0,1,.2.322.255.255,0,0,1-.073.232.31.31,0,0,1-.242-.026c-.121-.055-.225-.146-.343-.206-.173-.088-.345-.116-.468.083a.318.318,0,0,0,.132.477.8.8,0,0,0,.454.121,2.989,2.989,0,0,0,1.008-.226c.227-.119.362-.421.56-.67-.215-.161-.384-.322-.583-.444-.345-.215-.376-.264-.278-.744.191.107.379.207.552.322a7.591,7.591,0,0,0,.99.681,9.769,9.769,0,0,1,1.788,1.353c.36.276.358.322.169.8l-.584-.476c-.471.322-.583,1.108-1.4.957.054.528.107,1.018.153,1.533l-.408.086c-.03-.3-.07-.58-.081-.858-.019-.472-.036-.945-.017-1.417a.474.474,0,0,1,.244-.322c.048-.028.2.107.293.18.045.035.062.107.122.215l.667-.768-1.18-.808-1.681,2.462c-.315-.355-.327-.5-.084-.853l.37-.543c-1.019.018-1.424-.2-1.634-.848-.125-.392-.022-.624.388-.889a3.066,3.066,0,0,1-.107-.677.569.569,0,0,1,.591-.594.72.72,0,0,1,.674.614.623.623,0,0,1-.472.654C549.391,162.833,549.359,162.841,549.283,162.863Zm-.017-.867a1.62,1.62,0,0,0-.178.353c-.009.039.141.154.154.145a.711.711,0,0,0,.232-.238C549.489,162.224,549.373,162.126,549.265,162Z" transform="translate(-501.132 -145.801)" fill="#cb2e27"/>
    <path id="Path_7004" data-name="Path 7004" d="M426.138,138.552c-.592-.174-.59-.174-.636-.7-.012-.133-.039-.263-.065-.437a1.167,1.167,0,0,1-1.3.107,1.691,1.691,0,0,1-.723-.9c.2-.1.395-.183.575-.291a.283.283,0,0,0,.15-.382c-.076-.178-.176-.276-.389-.226-.409.094-.821.173-1.266.265.2,1.007.392,1.99.585,2.975-.445-.023-.579-.139-.66-.552-.148-.767-.3-1.534-.453-2.307a1.569,1.569,0,0,1-.565.017c-.138-.049-.229-.234-.38-.4l.858-.167a.858.858,0,0,0-.63-.722c-.256-.053-.4.054-.412.313a.715.715,0,0,1,0,.186.354.354,0,0,1-.136.193c-.045.019-.15-.034-.2-.086a.675.675,0,0,1,.368-1.11.889.889,0,0,1,.911.322,2.213,2.213,0,0,1,.394.629c.1.251.3.256.412.151.192-.185.411-.142.615-.165.787-.093,1.578-.163,2.367-.232.442-.039.465-.017.684.438l-.486.089C425.885,136.558,426.009,137.543,426.138,138.552Zm-1.652-2.866c.054.113.107.206.143.3a.562.562,0,0,1-.23.764c-.051.035-.107.062-.161.1-.176.107-.185.23-.005.337a.373.373,0,0,0,.3.049,2.458,2.458,0,0,0,.723-.464c.1-.107.047-.383.023-.577-.081-.649-.089-.644-.737-.536a.321.321,0,0,0-.053.033Z" transform="translate(-386.888 -121.459)" fill="#cb2e27"/>
    <path id="Path_7005" data-name="Path 7005" d="M378.392,435.155c-.129-.055-.242-.107-.359-.15-.238-.084-.417-.153-.393-.5.031-.444-.792-.891-1.209-.7a.347.347,0,0,0-.128.536,3.467,3.467,0,0,0,.445.46c.229.215.481.4.7.626a1.242,1.242,0,0,1,.227,1.566,1.226,1.226,0,0,1-1.462.616,4.226,4.226,0,0,1-1.259-.615,1.377,1.377,0,0,1-.375-1.724c.214.076.429.144.635.24.054.025.09.142.09.215a1.02,1.02,0,0,0,1,1.143.624.624,0,0,0,.628-.307.475.475,0,0,0-.166-.594c-.293-.275-.6-.528-.9-.8a1.246,1.246,0,0,1-.456-1.241,1.17,1.17,0,0,1,1.469-.863,2.621,2.621,0,0,1,1.244.644A1.2,1.2,0,0,1,378.392,435.155Z" transform="translate(-345.917 -388.14)" fill="#cb2e27"/>
    <path id="Path_7006" data-name="Path 7006" d="M314.525,393.451a.473.473,0,0,1-.057-.021c-.7-.475-.7-.477-.458-1.281a.334.334,0,0,0-.144-.445c-.338-.232-.663-.484-.979-.744a.325.325,0,0,0-.463-.025c-.691.471-.7.463-1.363-.115.063-.047.12-.1.182-.133,1.206-.735,2.407-1.461,3.605-2.207a.312.312,0,0,1,.424.031c.524.415.528.41.349,1.049q-.531,1.891-1.058,3.782C314.554,393.374,314.541,393.409,314.525,393.451Zm-1.219-3.069,1,.76c.176-.58.337-1.11.5-1.64l-.055-.041Z" transform="translate(-289.346 -348.318)" fill="#cb2e27"/>
    <path id="Path_7007" data-name="Path 7007" d="M419.92,450.685l-.819.1a1,1,0,0,0-.578-.743,1.04,1.04,0,0,0-1.384.553,2.789,2.789,0,0,0-.158,1.627.979.979,0,0,0,.858.8.936.936,0,0,0,1.026-.557c.041-.078.082-.158.133-.255l.751.322a1.621,1.621,0,0,1-1.343,1.22,1.961,1.961,0,0,1-2.353-2.017,2.411,2.411,0,0,1,.874-2.14,2.1,2.1,0,0,1,2.512.09A1.385,1.385,0,0,1,419.92,450.685Z" transform="translate(-383.075 -402.605)" fill="#cb2e27"/>
    <path id="Path_7008" data-name="Path 7008" d="M604.35,242.931a2.8,2.8,0,0,0,.461-.146.257.257,0,0,0,.064-.23c-.107-.378-.226-.751-.343-1.124-.134-.429-.134-.429.258-.751.145.458.286.9.429,1.348l.663,2.116c.138.44.141.44-.244.794-.181-.569-.358-1.119-.543-1.7l-.727.235a.668.668,0,0,1,.237.858,1.04,1.04,0,0,1-.929.578,3.877,3.877,0,0,1-.718-.1l.221-.48c.277.027.531.062.785.069a.291.291,0,0,0,.235-.12.367.367,0,0,0-.05-.29.515.515,0,0,0-.7-.232c-.322.1-.644.2-.965.3-.145-.644.384-.625.783-.765l-1.123-.756c.062-.148.122-.289.193-.458l.511.375c.214-.526.47-1,1.143-.771C604.389,241.826,604.51,242.278,604.35,242.931Zm-.536.183a.707.707,0,0,0,.081-.863.33.33,0,0,0-.463-.124.274.274,0,0,0-.1.429,5.2,5.2,0,0,0,.473.559Z" transform="translate(-549.202 -216.434)" fill="#cb2e27"/>
    <path id="Path_7009" data-name="Path 7009" d="M350.765,417.859l-.7-.488,2.478-3.631.711.488Z" transform="translate(-324.162 -370.93)" fill="#cb2e27"/>
    <path id="Path_7010" data-name="Path 7010" d="M301.527,242.387c-.36.42-.36.419-.814.259-.294-.107-.587-.215-.884-.3-.083-.026-.24-.029-.258.007a.456.456,0,0,0-.044.34,5.5,5.5,0,0,0,.416.615l-.342.257V243.5c-.123-.019-.267-.088-.364-.045s-.231.215-.215.295a.675.675,0,0,0,.277.382.762.762,0,0,0,.767-.032,3.783,3.783,0,0,0,.429-.269c.13-.092.248-.2.393-.316l.2.3a3.159,3.159,0,0,1-1.531.807.918.918,0,0,1-.858-.255.684.684,0,0,1,.2-1.134l.237-.12c-.107-.322-.238-.635.09-.947l-.49-.171c-.062.18-.118.338-.171.5-.187.558-.383,1.112-.551,1.676a2.63,2.63,0,0,0-.082.669c0,.047.107.124.175.142.718.179,1.436.35,2.155.523.107.025.207.054.341.088-.175.215-.3.466-.674.351.06.176.107.314.156.453a1.445,1.445,0,0,1-.492,1.745,5.284,5.284,0,0,1-.858.527.548.548,0,0,1-.438.021c-.071-.038-.046-.257-.074-.468-.185-.021-.429-.057-.682-.072-.038,0-.107.088-.117.146a1.644,1.644,0,0,0-.03.322c-.019.405-.074.464-.525.536.04-.466.074-.927.121-1.386.1-.951.245-1.894.392-2.839a30.6,30.6,0,0,1,.922-3.139c.032-.12.078-.237.117-.355.107-.336.174-.373.588-.336l-.091.421,1.29.433ZM299,248.131a1.226,1.226,0,0,0,.74-1.164,3.628,3.628,0,0,0-.339-1,.491.491,0,0,0-.289-.23c-.366-.107-.743-.176-1.111-.278-.192-.055-.264.017-.288.191-.054.4-.114.808-.162,1.212-.03.252-.045.506-.066.751C298.021,247.791,298.654,247.521,299,248.131Z" transform="translate(-276.678 -216.791)" fill="#cb2e27"/>
    <path id="Path_7011" data-name="Path 7011" d="M298.127,334.669a1.029,1.029,0,0,1-.322-1.287c.2-.44.36-.515,1.018-.462a2.555,2.555,0,0,0,.05-.467.408.408,0,0,0-.57-.41c-.5.125-.5.125-.406.637.034.187,0,.239-.36.484-.084-.307-.165-.6-.245-.9a1.747,1.747,0,0,0-.073-.284c-.159-.33-.037-.556.279-.736l.16.429,2.66-.676c-.033.5-.064.536-.485.644l-.653.162.107.587c.7-.029,1.067.2,1.1.781a1.5,1.5,0,0,1-.234.795,4.7,4.7,0,0,1-.644.7c-.082-.107-.139-.178-.209-.269.127-.118.252-.229.37-.346a.835.835,0,0,0,.285-.692.5.5,0,0,0-.62-.46.281.281,0,0,0-.189.473c.2.311.214.449.021.632-.127.123-.237.116-.312-.051-.056-.122-.09-.253-.15-.372a.4.4,0,0,0-.529-.167c-.161.091-.183.287-.051.49a1.507,1.507,0,0,0,.114.149C298.53,334.389,298.522,334.426,298.127,334.669Z" transform="translate(-276.929 -297.065)" fill="#cb2e27"/>
    <path id="Path_7012" data-name="Path 7012" d="M288.056,308.688l-.053-.635a2.191,2.191,0,0,1-.481.047.81.81,0,0,1-.666-1.053,4.951,4.951,0,0,1,.419-.976c.137-.261.159-.25.508-.214a2.237,2.237,0,0,0-.117.2,7.577,7.577,0,0,0-.386.9.56.56,0,0,0,.446.682c.156.025.277,0,.282-.215.009-.392.028-.4.444-.56.008.054.016.107.018.151.015.429.014.42.454.4.739-.029,1.479-.049,2.219-.071a.415.415,0,0,1,.1.021c-.137.446-.174.473-.6.484-.644.016-1.287.038-1.926.054-.131,0-.253.023-.215.186C288.59,308.46,288.353,308.567,288.056,308.688Z" transform="translate(-267.708 -274.601)" fill="#cb2e27"/>
    <path id="Path_7013" data-name="Path 7013" d="M305.85,286a.931.931,0,0,1,.825-.922.788.788,0,0,1,.728.777.933.933,0,0,1-.885.92A.7.7,0,0,1,305.85,286Zm.368-.172a4.585,4.585,0,0,0,.371.516.3.3,0,0,0,.25-.025,4.133,4.133,0,0,0,.084-.553.042.042,0,0,0-.005-.026c-.072-.168-.171-.363-.373-.3C306.422,285.483,306.347,285.67,306.218,285.83Z" transform="translate(-284.695 -256.07)" fill="#cb2e27"/>
  </g>
</svg>
