<svg xmlns="http://www.w3.org/2000/svg" width="85.409" height="86.3" viewBox="0 0 85.409 86.3">
  <g id="Amateur_Soft_Tennis" data-name="Amateur Soft Tennis" transform="translate(0 0)">
    <path id="Path_9125" data-name="Path 9125" d="M215.623,124.4a.68.68,0,0,0-.855-.207c-.431.16-.787-.085-1.177-.116-.074,0-.138-.08-.218-.084-1.267-.087-2.473-.506-3.722-.689a9.671,9.671,0,0,1-1.784-.525c-.433-.156-.892-.146-1.327-.336-.9-.394-1.825-.717-2.757-1.032a20.277,20.277,0,0,1-2.052-.859c-.535-.252-1.07-.509-1.588-.793-.955-.525-1.93-1.028-2.838-1.622-.729-.476-1.457-.965-2.189-1.425-1-.634-1.773-1.516-2.711-2.205a15.13,15.13,0,0,1-2.291-1.912,13.2,13.2,0,0,1-2.137-2.318,1.527,1.527,0,0,0-.306-.3,18.035,18.035,0,0,1-2.185-2.7c-.175-.261-.414-.47-.6-.733a27.827,27.827,0,0,1-2.525-4.1,4.47,4.47,0,0,0-.517-.788c-.251-.332-.218-.733-.436-1.077a18.353,18.353,0,0,1-.937-1.9,8.45,8.45,0,0,1-.722-1.868,1.271,1.271,0,0,0-.121-.334,12.374,12.374,0,0,1-.837-2.255c-.38-1.278-.675-2.584-1.013-3.877a8.7,8.7,0,0,1-.138-1.017c-.1-.689-.345-1.352-.376-2.051a3.055,3.055,0,0,0-.225-1.389,2.053,2.053,0,0,1-.059-1.059,8.385,8.385,0,0,0,0-1.941,18.686,18.686,0,0,0-.1-1.942c-.083-.336.21-.619.2-.965-.015-.866.138-1.719.208-2.576.052-.586.161-1.159.186-1.756a7.275,7.275,0,0,1,.371-1.807.714.714,0,0,0,.063-.269,1.744,1.744,0,0,1,.394-1.293.213.213,0,0,0,.048-.147,4.037,4.037,0,0,1,.222-1.564c.1-.449.221-.907.295-1.352a15.41,15.41,0,0,1,.885-2.415,22.035,22.035,0,0,1,.82-2.137c.324-.709.622-1.439.939-2.156.44-.991,1.06-1.888,1.549-2.852.748-1.469,1.842-2.713,2.662-4.135a8.91,8.91,0,0,1,1.053-1.272c.624-.718,1.173-1.5,1.85-2.176.817-.827,1.672-1.6,2.513-2.4,1.034-.981,2.152-1.864,3.254-2.757.888-.722,1.876-1.311,2.824-1.953.788-.533,1.62-1,2.438-1.475a19.31,19.31,0,0,1,1.792-.867c.921-.422,1.826-.893,2.779-1.225a17.456,17.456,0,0,1,2.379-.907c.8-.153,1.556-.491,2.343-.689a9.866,9.866,0,0,1,1.913-.445.994.994,0,0,0,.426-.077,4.8,4.8,0,0,1,1.992-.459,16.392,16.392,0,0,1,2.695-.327c.586.05,1.161-.108,1.745-.114.109,0,.26.026.244-.168l.478-.014a.236.236,0,0,0,.276.225,9.819,9.819,0,0,0,1.465-.09c.1-.019.233-.018.176-.187l1.037-.028c-.092.251.12.238.233.222a9.56,9.56,0,0,1,2.524.236,21.285,21.285,0,0,1,2.343.3c.986.233,2,.368,3,.579a8.1,8.1,0,0,1,1.26.3c.347.138.729.121,1.1.261a49.154,49.154,0,0,1,4.817,1.81c1.06.524,2.172.965,3.216,1.516a13.394,13.394,0,0,1,2.205,1.4c.644.524,1.352.95,2.036,1.411a15.606,15.606,0,0,1,1.472.992c.689.593,1.378,1.185,2.041,1.81.568.535,1.148,1.056,1.679,1.631.848.919,1.74,1.8,2.557,2.746.689.808,1.332,1.671,1.959,2.533a27.657,27.657,0,0,1,1.774,2.619c.551.965,1.184,1.876,1.654,2.886A15.6,15.6,0,0,1,258,62.782a13.306,13.306,0,0,0,.506,1.3c.265.565.525,1.134.74,1.72a14.673,14.673,0,0,1,.965,2.64,13.524,13.524,0,0,0,.423,1.443,6.838,6.838,0,0,0,.414,1.307c.292.572.193,1.224.459,1.792a1.012,1.012,0,0,1,.074.467,11.314,11.314,0,0,0,.309,1.993,54.914,54.914,0,0,1,.392,6.258,13.366,13.366,0,0,1-.12,2.343c-.117.663.106,1.363-.048,2.023s-.124,1.354-.285,2.025a3.456,3.456,0,0,0-.285,1.533c.061.291-.168.518-.226.793-.168.8-.338,1.6-.467,2.409a5.239,5.239,0,0,1-.511,1.4,1.192,1.192,0,0,0-.146.6.612.612,0,0,1-.073.343,14.445,14.445,0,0,0-.87,2.2,12.3,12.3,0,0,1-.586,1.378c-.259.5-.365,1.067-.638,1.566q-.744,1.352-1.451,2.724a34.141,34.141,0,0,1-2.028,3.253c-.669,1-1.516,1.9-2.223,2.873-.378.517-.922.863-1.281,1.388a4.244,4.244,0,0,0-.379.551.8.8,0,0,1-.48.491,1.089,1.089,0,0,0-.414.353,29.476,29.476,0,0,1-3.063,2.776c-.965.787-1.964,1.551-2.992,2.269-1.167.813-2.418,1.49-3.576,2.316a9.564,9.564,0,0,1-1.629.8c-.8.372-1.632.689-2.43,1.081a16,16,0,0,0-1.589.663,9.319,9.319,0,0,1-2.08.669c-.487.163-.99.285-1.483.407-.469.116-.922.285-1.4.38-.973.192-1.938.425-2.925.551-.131.017-.233.083-.138.244ZM260.864,76a2.11,2.11,0,0,0-.072-.787c-.368-.689-.138-1.479-.426-2.205a8.035,8.035,0,0,1-.39-1.683c-.154-.965-.573-1.872-.777-2.833a5.164,5.164,0,0,0-.349-1.1c-.433-.944-.786-1.921-1.2-2.873a29.024,29.024,0,0,0-1.387-2.895c-.714-1.241-1.378-2.494-2.19-3.671-.749-1.089-1.485-2.19-2.332-3.2a38.718,38.718,0,0,0-4.4-4.72q-1.369-1.183-2.771-2.324a21.2,21.2,0,0,0-1.937-1.456c-1.141-.722-2.334-1.38-3.476-2.1a37.694,37.694,0,0,0-4.182-2.008c-.827-.387-1.763-.536-2.619-.9-.535-.226-1.132-.276-1.654-.493a20.879,20.879,0,0,0-3.537-.827c-.454-.1-.951-.109-1.388-.21a14.093,14.093,0,0,0-2.1-.327,20.916,20.916,0,0,0-4.11-.181,3.87,3.87,0,0,1-.994-.019,14.1,14.1,0,0,0-2.514.2c-.335.014-.689.138-1.049.163-.263.018-.528.052-.79.091a30.131,30.131,0,0,0-3.562.7q-.74.2-1.483.391c-.827.216-1.654.423-2.467.707a17.946,17.946,0,0,0-1.7.638c-.758.357-1.552.623-2.313.975-.86.4-1.7.827-2.56,1.241-.342.161-.591.438-.914.616a31.494,31.494,0,0,0-4.565,3.079c-.82.659-1.654,1.3-2.443,2-.451.394-.786.922-1.261,1.258a16.273,16.273,0,0,0-2.4,2.4,12.565,12.565,0,0,0-.827.957c-.482.627-.939,1.276-1.416,1.909-.715.948-1.372,1.938-1.989,2.95-.52.855-.939,1.768-1.406,2.653a36.021,36.021,0,0,0-1.817,3.456c-.306.769-.582,1.549-.848,2.334-.165.485-.35.965-.532,1.443-.145.379-.17.772-.276,1.15-.176.611-.423,1.2-.576,1.817a20.441,20.441,0,0,0-.482,2.731,8.859,8.859,0,0,0-.178,1.737,3.259,3.259,0,0,1-.083.827,12.025,12.025,0,0,0-.27,2.156c0,.848.039,1.7.066,2.547a3.468,3.468,0,0,0,.119,1.3,1.4,1.4,0,0,1,.092.7,5.7,5.7,0,0,0-.062,1.423,10.573,10.573,0,0,1,.318,1.684c.012.423.117.879.156,1.326a.9.9,0,0,0,.138.493,1.07,1.07,0,0,1,.209.791,9.133,9.133,0,0,0,.448,2.329c.113.667.425,1.3.578,1.963a23.627,23.627,0,0,0,1.1,3.01c.168.445.413.866.569,1.308a11.721,11.721,0,0,0,.648,1.527,50.693,50.693,0,0,0,2.868,4.84,31.609,31.609,0,0,0,3.283,4.258c.972,1.01,1.861,2.1,2.907,3.039a35.93,35.93,0,0,0,2.838,2.343c.875.638,1.693,1.355,2.605,1.948.855.551,1.716,1.093,2.611,1.584.489.267,1.037.423,1.5.724,1.154.748,2.495,1.083,3.7,1.729a11.262,11.262,0,0,0,2.24.775c.991.276,2,.516,2.981.8a25.567,25.567,0,0,0,3.646.747c1.163.164,2.323.354,3.5.414a7.354,7.354,0,0,1,1.5.08,2.609,2.609,0,0,0,.907.068,5.88,5.88,0,0,1,1.034-.022,8.914,8.914,0,0,0,2.1-.106,6.919,6.919,0,0,0,1.778-.276.342.342,0,0,1,.119,0,12.479,12.479,0,0,0,2.585-.276c.755-.186,1.516-.349,2.274-.521.558-.128,1.125-.276,1.689-.394a17.666,17.666,0,0,0,2.284-.731,33.71,33.71,0,0,0,3.548-1.367c.67-.331,1.36-.624,2.017-.98.827-.445,1.6-.98,2.438-1.4a28.3,28.3,0,0,0,2.645-1.768c.633-.414,1.185-.941,1.781-1.4.528-.4,1-.864,1.516-1.274a27.5,27.5,0,0,0,3.516-3.514c.689-.78,1.347-1.578,1.978-2.4.227-.3.371-.644.62-.915a9.974,9.974,0,0,0,1.37-1.93c.594-1.07,1.319-2.055,1.857-3.163.413-.853.853-1.7,1.213-2.575a32.175,32.175,0,0,0,1.533-3.813c.4-1.493.879-2.961,1.159-4.487a8.346,8.346,0,0,1,.205-1.075c.164-.5.186-1.03.311-1.537.119-.482-.015-.99.1-1.46a23.03,23.03,0,0,0,.225-2.919,20.235,20.235,0,0,0-.022-2.9A21.664,21.664,0,0,0,260.864,76Z" transform="translate(-176.873 -38.1)" fill="#0e0e6d"/>
    <path id="Path_9126" data-name="Path 9126" d="M480.447,38.26c.056.17-.08.168-.176.187a8.979,8.979,0,0,1-1.465.09.236.236,0,0,1-.276-.225Z" transform="translate(-436.95 -38.238)" fill="#fefefd"/>
    <path id="Path_9127" data-name="Path 9127" d="M293.105,129.044c.689-.034,1.27.163,1.891.07a13.3,13.3,0,0,1,3.337.183c.629.065,1.26.15,1.876.252a24.946,24.946,0,0,1,2.775.659,19.209,19.209,0,0,0,2.343.718c.375.058.681.38,1.055.529a25.943,25.943,0,0,1,4.37,2.316c.812.524,1.542,1.145,2.334,1.688a10.819,10.819,0,0,1,2.176,1.948,14.93,14.93,0,0,0,1.329,1.293,19.906,19.906,0,0,1,2.043,2.258,30.428,30.428,0,0,1,2.5,3.738,26.692,26.692,0,0,1,1.768,3.625c.342.87.71,1.738.965,2.635.276.99.543,1.984.764,2.99.149.68.17,1.378.382,2.048a10.4,10.4,0,0,1,.1,1.624,21.864,21.864,0,0,1,.069,4.236,17.05,17.05,0,0,1-.245,2.558c-.138.666-.288,1.334-.383,2.012a12.842,12.842,0,0,1-.437,1.72c-.276.954-.52,1.922-.867,2.851a22.184,22.184,0,0,1-1.764,3.85c-.488.8-.889,1.654-1.431,2.415-.458.641-.929,1.281-1.406,1.912a9.827,9.827,0,0,1-1.116,1.423c-.422.383-.819.787-1.217,1.191-.332.336-.638.7-.944,1.063a5.906,5.906,0,0,1-.928.729c-.7.561-1.378,1.156-2.113,1.68a36.737,36.737,0,0,1-3.531,2.135,25.409,25.409,0,0,1-2.529,1.206,13.414,13.414,0,0,1-2.878.965,6.537,6.537,0,0,0-.853.3c-.568.186-1.167.236-1.728.44a1.947,1.947,0,0,1-.578.138c-1.25.032-2.465.357-3.707.444-.511.034-1.023-.112-1.544-.04-.393.055-.791.057-1.187.119a9.765,9.765,0,0,1-1.93-.138,11.051,11.051,0,0,1-2.119-.276c-.834-.2-1.693-.251-2.52-.513-.78-.245-1.577-.441-2.363-.681a29.316,29.316,0,0,1-3.163-1.282c-.787-.346-1.516-.8-2.309-1.134a15.72,15.72,0,0,1-2.017-1.258,22.788,22.788,0,0,1-3.549-2.8,6.553,6.553,0,0,0-1.26-1.03c-.186-.1-.181-.317-.309-.451-.551-.572-1.01-1.218-1.6-1.757a3.243,3.243,0,0,1-.444-.651,10.3,10.3,0,0,1-.878-1.121c-.022-.047-.058-.114-.1-.123-.8-.159-.564-.987-.925-1.445a12.985,12.985,0,0,1-1.207-2.048,13.9,13.9,0,0,1-1.03-2.117c-.251-.762-.521-1.487-.827-2.216a7.072,7.072,0,0,1-.32-.937,29.863,29.863,0,0,1-.815-3.4c-.119-.895-.092-1.825-.294-2.684a15.618,15.618,0,0,1-.226-3.254,9.656,9.656,0,0,1,.175-1.912c.1-.584.1-1.184.2-1.774a26.477,26.477,0,0,1,.594-2.906c.165-.6.307-1.2.5-1.785.382-1.181.766-2.356,1.258-3.5.347-.813.772-1.588,1.1-2.407a.783.783,0,0,1,.087-.178,27.188,27.188,0,0,0,1.524-2.575.985.985,0,0,1,.108-.167,16.387,16.387,0,0,0,1.333-1.806c.318-.441.735-.827,1.094-1.256a9.842,9.842,0,0,1,1.44-1.494,20.468,20.468,0,0,1,1.6-1.316,4.859,4.859,0,0,0,.606-.567,28.736,28.736,0,0,1,3.793-2.671c.988-.62,2.057-1.082,3.094-1.606a26.261,26.261,0,0,1,4.255-1.588c.983-.3,2.01-.413,3.009-.638C290.628,129.248,291.917,129.261,293.105,129.044Zm30.758,27.791a12.864,12.864,0,0,0-.336-2.474,4.778,4.778,0,0,0-.189-1.053c-.161-.542-.276-1.1-.4-1.654a8.531,8.531,0,0,0-.362-1.282c-.386-.965-.766-1.948-1.216-2.895a25.193,25.193,0,0,0-1.853-3.384c-.681-1.009-1.321-2.048-2.092-2.994a8.7,8.7,0,0,1-.667-.731,13.086,13.086,0,0,0-1.475-1.624,28.95,28.95,0,0,0-2.31-2.106c-.642-.579-1.389-1.016-2.077-1.527a24.929,24.929,0,0,0-3.544-2.08c-.815-.414-1.679-.726-2.521-1.083a6.307,6.307,0,0,0-1.1-.47c-.764-.154-1.5-.42-2.267-.551-1.01-.176-1.995-.471-3.019-.622a31.12,31.12,0,0,0-3.141-.328,21.146,21.146,0,0,0-3.563.216,17.137,17.137,0,0,0-3.56.644,17.059,17.059,0,0,1-2.32.646c-.513.1-.957.386-1.456.487a6.224,6.224,0,0,0-1.1.387,16.4,16.4,0,0,0-1.913.925c-.655.367-1.338.689-1.986,1.065-.532.313-1.032.689-1.542,1.035a18.344,18.344,0,0,0-3.125,2.491c-.471.506-1.094.853-1.516,1.392-.577.74-1.254,1.392-1.828,2.134a5.286,5.286,0,0,0-.737.932,18.557,18.557,0,0,1-1.4,2.137c-.551.884-1.026,1.8-1.483,2.722a20.1,20.1,0,0,0-1.148,2.721c-.149.459-.354.9-.5,1.358s-.229.918-.371,1.369a14.2,14.2,0,0,0-.54,2.879,6.54,6.54,0,0,0-.211,1.835.252.252,0,0,1-.068.182.673.673,0,0,0-.128.525q.066,2.432.131,4.862a.681.681,0,0,0,.046.35,2.379,2.379,0,0,1,.243,1.347c.011.159-.036.356.041.47a5.128,5.128,0,0,1,.423,1.833,22.272,22.272,0,0,0,.977,3.253c.138.316.164.652.318.952a6.57,6.57,0,0,1,.642,1.344,9.458,9.458,0,0,0,1.18,2.452,38.214,38.214,0,0,0,2.142,3.231,31.473,31.473,0,0,0,2.571,2.979c.736.806,1.654,1.4,2.407,2.178.4.414,1,.538,1.369.988a3.437,3.437,0,0,0,.891.662c.427.263.864.509,1.289.775a12.2,12.2,0,0,0,2.041,1.125,16.6,16.6,0,0,1,2.1.9,20.7,20.7,0,0,0,2.653.965c.66.252,1.406.168,2.057.476a7.04,7.04,0,0,0,1.635.306,20.289,20.289,0,0,0,2.7.289,9.319,9.319,0,0,1,1.624.04,5.225,5.225,0,0,0,1.316.13c.7.015,1.34-.31,2.043-.276a21.1,21.1,0,0,0,2.86-.407,12.213,12.213,0,0,1,1.387-.276.254.254,0,0,0,.145-.054,3.965,3.965,0,0,1,1.227-.394c.4-.109.793-.258,1.17-.4.594-.215,1.194-.447,1.773-.715.678-.314,1.387-.593,2.018-.965,1.061-.637,2.153-1.228,3.17-1.93a13.092,13.092,0,0,0,2.171-1.654,16.323,16.323,0,0,1,1.425-1.311,11.876,11.876,0,0,0,1.49-1.6c.148-.172.385-.19.474-.376a11.82,11.82,0,0,1,1.416-1.839c.758-1.009,1.316-2.13,2.01-3.17.484-.726.714-1.589,1.137-2.35a11.644,11.644,0,0,0,.657-1.478c.352-.91.605-1.854.939-2.772a12.261,12.261,0,0,0,.6-2.612,21.193,21.193,0,0,0,.276-4.48c-.026-.349.258-.631.163-.965a1.588,1.588,0,0,1-.029-1.185.612.612,0,0,0-.037-.5A3.022,3.022,0,0,1,323.863,156.836Z" transform="translate(-251.643 -116.505)" fill="#0e0e6d"/>
    <path id="Path_9128" data-name="Path 9128" d="M342.1,573.091a1.6,1.6,0,0,1,.357-.91c.728-1.263,1.378-2.565,2.046-3.859a.579.579,0,0,1,.773-.276.5.5,0,0,1,.294.746,9.9,9.9,0,0,1-1.1,2.008,2.051,2.051,0,0,0-.369.783c-.015.09-.066.188.04.252a.2.2,0,0,0,.251-.058,3.926,3.926,0,0,0,.779-.845,7.6,7.6,0,0,1,1.33-1.575.687.687,0,0,1,.827-.205c.485.212.6.521.413,1.114-.284.881-.561,1.763-.838,2.646-.044.138-.09.32.062.394s.256-.055.34-.19c.5-.812.827-1.712,1.329-2.525.229-.375.445-.532.739-.385a.66.66,0,0,1,.321.965c-.441.793-.827,1.628-1.34,2.367a15.758,15.758,0,0,0-.91,1.908c-.251.488-.551.591-1.031.318-.047-.026-.088-.061-.138-.083-1.093-.491-.913-.525-.6-1.5.219-.679.335-1.388.612-2.05a.244.244,0,0,0,.018-.117c-.015-.19.1-.433-.112-.552s-.332.1-.47.21a12.114,12.114,0,0,0-1.545,1.75c-.026.03-.039.07-.062.1-.414.559-.642.619-1.254.311-.154-.077-.3-.183-.456-.244A.465.465,0,0,1,342.1,573.091Z" transform="translate(-319.319 -494.95)" fill="#b5222a"/>
    <path id="Path_9129" data-name="Path 9129" d="M240.436,484.154a.567.567,0,0,1,.43-.507.5.5,0,0,1,.652.176c.38.46.659.984,1,1.464a4.783,4.783,0,0,0,.351.43c.287.307.458.208.9-.1.276-.194.176-.438-.012-.689-.368-.484-.707-.99-1.042-1.5-.248-.379-.193-.608.157-.844a.576.576,0,0,1,.877.2c.331.477.663.954.991,1.432a.6.6,0,0,0,.835.194.709.709,0,0,0,.44-.866,5.294,5.294,0,0,0-.779-1.241c-.182-.259-.387-.5-.578-.757a.514.514,0,0,1,.084-.773c.332-.288.663-.316.908-.062a7.286,7.286,0,0,1,.813,1.22c.42.642.827,1.293,1.279,1.913.247.339.138.525-.138.76-.87.737-1.888,1.256-2.8,1.923-.481.35-.979.677-1.475,1.006-.473.317-.551.262-.853-.205-.414-.642-.89-1.241-1.336-1.866-.2-.276-.389-.566-.58-.851a.789.789,0,0,1-.125-.46Z" transform="translate(-231.674 -419.556)" fill="#b5222a"/>
    <path id="Path_9130" data-name="Path 9130" d="M206.519,402.059c-.622.032-.573.015-.773-.573a18.561,18.561,0,0,1-.538-2.193,2.842,2.842,0,0,1,0-1.3,1.815,1.815,0,0,1,2.267-1.115.83.83,0,0,0,1.019-.123,2.988,2.988,0,0,1,1.329-.589c.127-.039.261-.057.386-.1.615-.2.726-.147.878.414a.766.766,0,0,1-.569,1.045,6.78,6.78,0,0,0-.827.251.671.671,0,0,0-.531.739,3.574,3.574,0,0,0,.092,1.1c.062.159.138.334.324.292a3.218,3.218,0,0,0,1.207-.317c.469-.325.794-.252,1.034.255a1.451,1.451,0,0,1,.168.567.4.4,0,0,1-.383.485,18.422,18.422,0,0,0-2.273.477c-.735.232-1.462.358-2.181.584A4.279,4.279,0,0,1,206.519,402.059Zm-.12-2.768a1.667,1.667,0,0,0,.236.871c.114.291.414.309.675.276.307-.037.644-.039.841-.34a.392.392,0,0,0,.032-.267,7.944,7.944,0,0,0-.208-.843c-.21-.647-.5-.888-.947-.82C206.608,398.229,206.4,398.6,206.4,399.291Z" transform="translate(-201.237 -346.636)" fill="#b5222a"/>
    <path id="Path_9131" data-name="Path 9131" d="M202.493,335.825a2.969,2.969,0,0,1-.8,2.148,1.643,1.643,0,0,1-1.2.414c-.2,0-.309-.13-.3-.34a1.3,1.3,0,0,1,.522-1.1,1.706,1.706,0,0,0,.414-1.675.615.615,0,0,0-.582-.413.654.654,0,0,0-.562.551c-.128.5-.325.984-.423,1.484a1.82,1.82,0,0,1-3.49.347,3.544,3.544,0,0,1,.036-2.374,2.007,2.007,0,0,1,1.487-1.231.208.208,0,0,1,.291.185c.057.491.124.965-.371,1.329a1.133,1.133,0,0,0-.436,1.163c.066.448.317.671.7.617a.492.492,0,0,0,.413-.318,4.853,4.853,0,0,0,.433-1.316,3,3,0,0,1,.717-1.421,1.378,1.378,0,0,1,1.289-.463,2.147,2.147,0,0,1,1.844,2.044C202.475,335.552,202.48,335.659,202.493,335.825Z" transform="translate(-193.256 -292.685)" fill="#b5222a"/>
    <path id="Path_9132" data-name="Path 9132" d="M476.279,606.227a2.931,2.931,0,0,1,2.03-2.878,2.056,2.056,0,0,1,2.39,1.112,3.183,3.183,0,0,1,.341,2.589,1.766,1.766,0,0,1-.689,1.02,2.731,2.731,0,0,1-2.988.022A1.873,1.873,0,0,1,476.279,606.227Z" transform="translate(-435.008 -525.39)" fill="#b5222a"/>
    <path id="Path_9133" data-name="Path 9133" d="M298.886,117.792a.692.692,0,0,1-.237.569q-.761.606-1.5,1.241c-.4.335-.414.582-.08.983.212.258.532.263.879-.015.393-.313.769-.649,1.155-.965a.621.621,0,0,1,1.052.15.422.422,0,0,1-.119.6c-.413.353-.827.7-1.268,1.013-.3.214-.5.438-.389.827a1.076,1.076,0,0,0,.812.682.539.539,0,0,0,.462-.183c.459-.5,1.093-.784,1.562-1.283a.568.568,0,0,1,.875.106.51.51,0,0,1-.163.765c-.965.675-1.745,1.584-2.722,2.251a.471.471,0,0,1-.671-.012,5.383,5.383,0,0,1-.8-1.031,21.881,21.881,0,0,0-1.756-2.153,8.982,8.982,0,0,0-.827-1.019c-.232-.205-.12-.447.1-.645.656-.579,1.4-1.054,2.03-1.654.227-.218.5-.394.743-.593.138-.106.276-.175.434-.063C298.659,117.477,298.878,117.592,298.886,117.792Z" transform="translate(-278.735 -106.389)" fill="#b5222a"/>
    <path id="Path_9134" data-name="Path 9134" d="M341.178,95.021c-.414.066-.673-.276-.972-.5-.7-.507-1.449-.919-2.186-1.358a.3.3,0,0,0-.336-.03c-.138.09-.12.223-.1.358a9.264,9.264,0,0,0,.733,1.534c.138.382.334.747.507,1.118.08.17.138.328-.08.44s-.436.35-.72.156a.727.727,0,0,1-.259-.294c-.276-.648-.655-1.241-.965-1.865-.4-.827-.9-1.613-1.354-2.415-.306-.533-.256-.649.254-.991a.864.864,0,0,1,1.121.048,10.759,10.759,0,0,0,1.607,1.01,3.9,3.9,0,0,0,1,.532c.138.026.3.08.407-.063a.35.35,0,0,0-.019-.414c-.336-.571-.54-1.209-.935-1.748-.345-.474-.36-.772-.092-1.122a.416.416,0,0,1,.7-.048,2.145,2.145,0,0,1,.4.584,32.336,32.336,0,0,0,1.855,3.4,3.972,3.972,0,0,1,.209.383C342.329,94.458,342.017,94.988,341.178,95.021Z" transform="translate(-313.43 -82.156)" fill="#b5222a"/>
    <path id="Path_9135" data-name="Path 9135" d="M202.843,284.034a2.712,2.712,0,0,1,1.147-2.471,2.349,2.349,0,0,1,1.472-.529,3.756,3.756,0,0,1,3.436,1.527,1.644,1.644,0,0,1,.367.913,3.763,3.763,0,0,1-.731,2.527,2.114,2.114,0,0,1-2.058.816,4.648,4.648,0,0,1-1.756-.207,3.23,3.23,0,0,1-1.792-1.593A3.326,3.326,0,0,1,202.843,284.034Zm1.065-.091a1.039,1.039,0,0,0,.3.758,2.554,2.554,0,0,0,1.257.787,1.9,1.9,0,0,0,2.658-1.136.563.563,0,0,0,.048-.425,2,2,0,0,0-.9-1.231,3.4,3.4,0,0,0-1.828-.4,1.61,1.61,0,0,0-1.531,1.649Z" transform="translate(-199.242 -247.539)" fill="#b5222a"/>
    <path id="Path_9136" data-name="Path 9136" d="M385.868,74.77c.181.6.387,1.308.611,2.011a3.3,3.3,0,0,1,.121.539c.043.3.058.565-.3.677a.655.655,0,0,1-.835-.413,5.471,5.471,0,0,1-.26-1,6.725,6.725,0,0,0-.675-1.733c-.054-.121-.138-.23-.1-.374a2.436,2.436,0,0,0-.211-1.468c-.091-.291-.267-.569.052-.827a.889.889,0,0,1,1.134-.091,2.718,2.718,0,0,1,.551.511,23.312,23.312,0,0,0,1.919,1.83c.116.12.248.276.444.164s.083-.276.061-.427c-.138-.866-.47-1.678-.689-2.52-.123-.463-.052-.606.35-.715s.585,0,.681.444c.2.9.583,1.735.787,2.619.169.739.488,1.425.652,2.161.05.222.077.463-.108.587-.229.156-.485.365-.8.219a2.054,2.054,0,0,1-.925-.715,9.568,9.568,0,0,0-1.516-1.45c-.138-.138-.3-.258-.452-.39-.113-.1-.232-.2-.387-.12S385.868,74.52,385.868,74.77Z" transform="translate(-355.526 -66.376)" fill="#b5222a"/>
    <path id="Path_9137" data-name="Path 9137" d="M638.334,528.324a6.371,6.371,0,0,1,1.461.461c.605.19,1.217.361,1.822.551.306.1.433-.036.361-.347a.984.984,0,0,0-.276-.514c-.462-.447-.919-.9-1.355-1.37a.6.6,0,0,1-.037-.91c.258-.262.495-.276.868.019a2.217,2.217,0,0,1,.369.358,11.57,11.57,0,0,1,1.172,1.3,9.683,9.683,0,0,0,1.021,1.241,5.29,5.29,0,0,0,.47.528c.252.237.485.516.295.907a.919.919,0,0,1-1,.495c-.338-.062-.666-.189-1-.234a6.519,6.519,0,0,1-1.806-.637.864.864,0,0,0-.307-.064c-.114,0-.255-.032-.319.1a.276.276,0,0,0,.077.292,4.282,4.282,0,0,0,.535.631,4.733,4.733,0,0,1,1.13,1.47c.154.291-.015.518-.356.526a1.37,1.37,0,0,1-.928-.482,27.322,27.322,0,0,1-2.088-2.234c-.251-.276-.513-.538-.755-.817-.17-.194-.431-.394-.258-.689A1.1,1.1,0,0,1,638.334,528.324Z" transform="translate(-573.9 -458.744)" fill="#b5222a"/>
    <path id="Path_9138" data-name="Path 9138" d="M221.92,447.19a2.4,2.4,0,0,0-1.378.47,2.378,2.378,0,0,1-.9.387,7.169,7.169,0,0,0-1.3.576.432.432,0,0,1-.677-.232c-.061-.138-.138-.262-.183-.4a.41.41,0,0,1,.248-.6,8.235,8.235,0,0,0,2.059-1.1c.243-.211.623-.12.845-.318.354-.317.779-.249,1.179-.347a2.108,2.108,0,0,1,2.343,1.41,3.784,3.784,0,0,1,.349,1.571,1.944,1.944,0,0,1-1.307,1.731c-.984.483-2.019.856-2.972,1.406a.968.968,0,0,1-.11.047c-.731.285-1.077.054-1.123-.743-.015-.259.12-.368.342-.466a31.659,31.659,0,0,0,3.33-1.575.942.942,0,0,0,.294-1.4C222.714,447.176,222.4,447.2,221.92,447.19Z" transform="translate(-211.84 -389.409)" fill="#b5222a"/>
    <path id="Path_9139" data-name="Path 9139" d="M600.368,96.473a5.24,5.24,0,0,1-.977,2.313,5.313,5.313,0,0,1-1.044,1.02,1.846,1.846,0,0,1-2.03.048,16.41,16.41,0,0,1-1.952-1.137c-.252-.186-.255-.345-.119-.6.659-1.241,1.388-2.445,1.981-3.722a2.2,2.2,0,0,1,.138-.241c.633-1.013.591-.874,1.458-.371A5.645,5.645,0,0,1,599.657,95,3.048,3.048,0,0,1,600.368,96.473Zm-1.268.168c.069-.221-.237-.4-.276-.689a1.326,1.326,0,0,0-1.183-1.082.476.476,0,0,0-.558.4,2.067,2.067,0,0,1-.314.681c-.361.6-.708,1.207-1.009,1.843a.414.414,0,0,0-.014.414,1.946,1.946,0,0,0,1.742.626,1.652,1.652,0,0,0,1.059-.892,2.479,2.479,0,0,0,.55-1.3Z" transform="translate(-536.638 -85.774)" fill="#b5222a"/>
    <path id="Path_9140" data-name="Path 9140" d="M635.758,121.985c.138-.019.23.083.336.163.718.542,1.267,1.278,2.035,1.76.089.057.164.138.255.186a.676.676,0,0,1,.188,1.016c-.188.215-.414.092-.568-.032-.48-.374-.95-.762-1.4-1.172a1.524,1.524,0,0,0-.732-.367c-.287-.052-.427.3-.611.5a.338.338,0,0,0,.016.473,3.675,3.675,0,0,0,.634.649c.352.276.706.56,1.03.87.239.23.163.477-.067.689s-.4.294-.667.018a8.834,8.834,0,0,0-1.274-1.136c-.445-.31-.773-.233-1.181.284-.3.385-.284.631.1,1a13.96,13.96,0,0,0,1.6,1.359.492.492,0,0,1,.2.662.513.513,0,0,1-.671.276,1.366,1.366,0,0,1-.521-.276c-.8-.728-1.6-1.46-2.407-2.175a.385.385,0,0,1-.04-.6c.51-.62,1.067-1.2,1.56-1.836a24.548,24.548,0,0,0,1.62-1.9C635.318,122.193,635.459,121.975,635.758,121.985Z" transform="translate(-569.174 -110.421)" fill="#b5222a"/>
    <path id="Path_9141" data-name="Path 9141" d="M408.708,591.97c.033-1.861-.123-3.378-.138-4.9,0-.536.073-.608.594-.491.649.147.689.145.725.775.048.871.746.988,1.33,1.25.1.043.216.033.3.084.372.222.589.036.786-.263.4-.6.645-.717,1.2-.575.382.1.518.444.247.718-.453.458-.662,1.075-1.067,1.558-.5.6-.827,1.314-1.371,1.884a4.628,4.628,0,0,0-.627.908.779.779,0,0,1-1.027.39A1.158,1.158,0,0,1,408.708,591.97Zm1.27-1.628h0c0,.092,0,.186.008.276a1.287,1.287,0,0,0,.047.31c.13.365.262.4.5.106a6.714,6.714,0,0,0,.414-.583c.4-.6.335-.764-.374-.911-.414-.087-.59.051-.6.482a2.85,2.85,0,0,0,0,.325Z" transform="translate(-376.633 -510.935)" fill="#b5222a"/>
    <path id="Path_9142" data-name="Path 9142" d="M539.972,590.836c-.262.05-.433-.11-.612-.342-1.064-1.363-1.992-2.83-3.121-4.145-.185-.216-.42-.495-.138-.806a.985.985,0,0,1,1.165-.174,2.274,2.274,0,0,1,.314.354c.325.427.622.5,1.217.232.048-.022.09-.075.138-.079.689-.057.952-.5,1.065-1.125.1-.542.528-.754,1.009-.875.229-.057.269.1.276.276.032,1.839-.176,3.672-.107,5.514C541.212,590.4,540.775,590.8,539.972,590.836Zm.276-2.928c0-1.162-.043-1.212-1.041-1.135a.7.7,0,0,0-.5,1.038c.171.276.318.551.481.827a.62.62,0,0,0,.726.331.467.467,0,0,0,.354-.578A3.425,3.425,0,0,1,540.247,587.908Z" transform="translate(-486.472 -508.637)" fill="#b5222a"/>
    <path id="Path_9143" data-name="Path 9143" d="M459.527,66.481a2.068,2.068,0,0,1-1.921-.762c-.015-.022-.039-.037-.054-.058-.238-.321-.254-.744-.032-.906a.853.853,0,0,1,.965.192,1.7,1.7,0,0,0,2,.346.655.655,0,0,0,.365-.578.689.689,0,0,0-.405-.593,3.156,3.156,0,0,0-.846-.2,3.863,3.863,0,0,1-1.713-.669,1.73,1.73,0,0,1-.467-1.821,1.62,1.62,0,0,1,1.445-1.188,3.426,3.426,0,0,1,2.223.38,1.5,1.5,0,0,1,.552.613.533.533,0,0,1-.124.717.655.655,0,0,1-.874-.212,1.261,1.261,0,0,0-1.2-.63.929.929,0,0,0-.841.442.612.612,0,0,0,.04.678c.163.276.48.256.731.338.426.138.885.176,1.31.32a1.655,1.655,0,0,1,1.308,1.241,1.964,1.964,0,0,1-.619,1.913,2.247,2.247,0,0,1-1.274.39C459.923,66.455,459.733,66.466,459.527,66.481Z" transform="translate(-418.691 -57.166)" fill="#b5222a"/>
    <path id="Path_9144" data-name="Path 9144" d="M713.939,426.315a2.787,2.787,0,0,1,1.93-2.907,4.534,4.534,0,0,1,2.539.4,2.44,2.44,0,0,1,1.553,1.576,3.37,3.37,0,0,1-.42,2.895,1.557,1.557,0,0,1-.772.6,3.681,3.681,0,0,1-2.168.221,5.207,5.207,0,0,1-1.731-.764A2.131,2.131,0,0,1,713.939,426.315Zm2.744-1.763a1.634,1.634,0,0,0-1.624,1.013,1.417,1.417,0,0,0,.44,1.719,3.193,3.193,0,0,0,1.057.531,1.821,1.821,0,0,0,2.409-.644,1.357,1.357,0,0,0,.061-1.276A3.126,3.126,0,0,0,716.683,424.552Z" transform="translate(-639.872 -370.25)" fill="#b5222a"/>
    <path id="Path_9145" data-name="Path 9145" d="M670.628,158.6a1.737,1.737,0,0,1-1.192,1.551,4.35,4.35,0,0,1-.433.069.741.741,0,0,0-.747.594c-.138.638-.772.888-1.085,1.389a.437.437,0,0,1-.085.081c-.189.17-.276.62-.659.276a.821.821,0,0,1-.176-1.219c.287-.347.73-.521.965-.93a.62.62,0,0,0,.08-.593,2.846,2.846,0,0,0-.689-1.053c-.4-.375-.583-.382-.981,0a6.43,6.43,0,0,1-.95.773c-.321.2-.507.1-.722-.12a.476.476,0,0,1-.037-.707,7.428,7.428,0,0,1,1.006-.827c.68-.608,1.469-1.082,2.094-1.762a3.41,3.41,0,0,1,.906-.7.4.4,0,0,1,.587.1c.54.689,1.1,1.354,1.654,2.028A2.754,2.754,0,0,1,670.628,158.6Zm-2.443-1.815a1.873,1.873,0,0,0-1.119.91.341.341,0,0,0,.048.216,6.607,6.607,0,0,0,.933,1.122.828.828,0,0,0,1.388-.44,2.364,2.364,0,0,0-1.25-1.814Z" transform="translate(-596.66 -139.182)" fill="#b5222a"/>
    <path id="Path_9146" data-name="Path 9146" d="M308.838,543.176c-.059-.292.163-.542.248-.827a19.526,19.526,0,0,1,.671-2.116c.292-.682.485-1.365.713-2.054.083-.254.154-.617.442-.638.324-.025.558.276.743.538a.6.6,0,0,1,.019.648c-.329.54-.138.753.317,1.185a3.763,3.763,0,0,0,.624.422.91.91,0,0,0,1.137,0,.764.764,0,0,1,1.128.177.431.431,0,0,1-.017.609,5.49,5.49,0,0,1-1.209.813q-1.646,1.1-3.319,2.165A1.022,1.022,0,0,1,308.838,543.176Zm1.792-.844c.347,0,.562-.309.841-.5.572-.394.571-.531.018-.947-.041-.03-.1-.045-.138-.078a.3.3,0,0,0-.477.087,3.712,3.712,0,0,0-.493,1.163c-.034.156-.012.3.251.276Z" transform="translate(-290.639 -468.697)" fill="#b5222a"/>
    <path id="Path_9147" data-name="Path 9147" d="M604.652,561a2.25,2.25,0,0,1,1.1-2.036c.551-.35,1.1-.689,1.654-1.024.449-.276.67-.179.908.283.262.5.584.975.868,1.467.422.732.859,1.456,1.241,2.206a1.431,1.431,0,0,1-.448,1.642c-.551.349-1.123.645-1.7.943a2.308,2.308,0,0,1-2.619-.965,10.674,10.674,0,0,1-.866-1.686A3.249,3.249,0,0,1,604.652,561Zm1.24-.2a3.274,3.274,0,0,0,.983,2.156,1.367,1.367,0,0,0,1.53.347,3.384,3.384,0,0,0,.674-.414c.389-.263.4-.5.138-.894-.48-.746-.944-1.5-1.378-2.276a.533.533,0,0,0-.711-.314c-.543.194-1.334.866-1.241,1.4Z" transform="translate(-545.686 -486.153)" fill="#b5222a"/>
    <path id="Path_9148" data-name="Path 9148" d="M733.155,308.626A2.378,2.378,0,0,1,731.5,311.2a4.192,4.192,0,0,1-2.783.193,2.413,2.413,0,0,1-1.087-.777,2.924,2.924,0,0,1,.019-3.9,2.331,2.331,0,0,1,1.485-.764,6.252,6.252,0,0,1,1.966-.051,2.5,2.5,0,0,1,2.046,2.289C733.149,308.338,733.15,308.475,733.155,308.626Zm-3.191,1.719a3.065,3.065,0,0,0,1.369-.287,1.63,1.63,0,0,0,.915-1.547,1.543,1.543,0,0,0-1.223-1.446,3.423,3.423,0,0,0-2.419.357,1.577,1.577,0,0,0-.32,2.343A1.881,1.881,0,0,0,729.964,310.345Z" transform="translate(-651.078 -268.93)" fill="#b5222a"/>
    <path id="Path_9149" data-name="Path 9149" d="M556.982,77.423a.478.478,0,0,0,.389.571c.465.153.928.312,1.378.487.321.124.662.237.615.706s-.276.615-.706.436c-.486-.207-.965-.425-1.457-.631a.892.892,0,0,0-1.254.941.639.639,0,0,0,.4.539c.668.343,1.438.414,2.091.8.394.23.449.385.245.8-.16.325-.431.276-.682.16-1.023-.462-2.081-.827-3.137-1.2-.391-.138-.451-.367-.276-.75.689-1.531,1.21-3.122,1.753-4.707a.413.413,0,0,1,.459-.328,2.6,2.6,0,0,1,.975.321,8.461,8.461,0,0,0,1.395.47,5.92,5.92,0,0,1,1.037.481c.288.127.2.465.09.711s-.331.234-.575.174c-.64-.163-1.185-.551-1.833-.708C557.124,76.5,556.975,76.6,556.982,77.423Z" transform="translate(-502.441 -70.116)" fill="#b5222a"/>
    <path id="Path_9150" data-name="Path 9150" d="M691.772,210.257c-.085.021-.186.05-.291.07a.809.809,0,0,1-1.088-.64.307.307,0,0,1,.3-.444,10.854,10.854,0,0,0,2.059-.383,24.228,24.228,0,0,0,3.044-.54.83.83,0,0,1,.917.318.749.749,0,0,1,.055,1.054c-.641.707-1.152,1.516-1.784,2.225a13.991,13.991,0,0,0-1.35,1.711c-.233.364-.522.482-.733.32a.715.715,0,0,1-.21-1.083c.116-.145.232-.289.342-.44s.178-.3.1-.447a6.288,6.288,0,0,0-.848-1.516.67.67,0,0,0-.516-.205Zm2.942-.71a1.664,1.664,0,0,0-.911.172.727.727,0,0,0-.138,1.254.445.445,0,0,0,.673.01,3.659,3.659,0,0,0,.707-.8c.094-.174.4-.276.259-.524S694.9,209.585,694.714,209.547Z" transform="translate(-619.589 -184.825)" fill="#b5222a"/>
    <path id="Path_9151" data-name="Path 9151" d="M729.364,359.164a10.245,10.245,0,0,1-1.365-.1c-.276.008-.276-.222-.292-.43a.417.417,0,0,1,.389-.5,3.822,3.822,0,0,1,1.461.08,13.5,13.5,0,0,0,1.979.163c.551.023,1.079.1,1.62.138.33.022.438.212.429.54-.023.771-.689.853-1.172,1.115-.715.394-1.464.731-2.194,1.1a.953.953,0,0,0-.251.194c-.211.221-.138.493.138.474.642-.045,1.247.276,1.89.138a1.753,1.753,0,0,1,.783.091.434.434,0,0,1,.365.527.425.425,0,0,1-.451.42c-.674-.091-1.348.028-2.023-.066a17.589,17.589,0,0,0-2.019-.107,2.531,2.531,0,0,1-.78-.116.655.655,0,0,1-.241-1.165,2.2,2.2,0,0,1,.626-.332c.772-.375,1.547-.744,2.312-1.133a3.906,3.906,0,0,0,.543-.393.193.193,0,0,0,.061-.251.486.486,0,0,0-.4-.291Z" transform="translate(-651.485 -313.986)" fill="#b5222a"/>
    <path id="Path_9152" data-name="Path 9152" d="M218.963,236.853a1.141,1.141,0,0,1-.1.466c-.16.491-.316.983-.456,1.479-.112.4.175.538.465.669.413.186.864.232,1.265.448a.526.526,0,0,1,.3.768.689.689,0,0,1-.775.474,16.211,16.211,0,0,1-2.018-.771c-.707-.262-1.418-.51-2.13-.762-.188-.068-.379-.12-.564-.193-.452-.182-.511-.378-.349-.835.354-.994.67-2,1.059-2.98.178-.448.287-.513.747-.349.328.117.414.357.287.722-.205.586-.451,1.155-.619,1.755-.13.465-.025.68.527.881a.617.617,0,0,0,.794-.462c.157-.491.307-.984.471-1.474.1-.313.38-.312.63-.269S218.985,236.528,218.963,236.853Z" transform="translate(-209.333 -208.018)" fill="#b5222a"/>
    <path id="Path_9153" data-name="Path 9153" d="M230.337,195.611c-.052-.354.21-.587.374-.846.589-.922,1.253-1.792,1.777-2.757.2-.368.436-.413.753-.215.379.233.436.436.219.827a4.3,4.3,0,0,1-.393.644c-.222.276-.152.466.1.663a17.269,17.269,0,0,0,2.05,1.287,8.255,8.255,0,0,0,1.311.733c.465.163.514.536.267,1.025-.2.387-.487.488-.928.233-.689-.4-1.358-.827-2.017-1.263a14.5,14.5,0,0,0-1.378-.794.476.476,0,0,0-.7.232,2.585,2.585,0,0,1-.462.644.489.489,0,0,1-.6.138A.53.53,0,0,1,230.337,195.611Z" transform="translate(-222.962 -170.508)" fill="#b5222a"/>
    <path id="Path_9154" data-name="Path 9154" d="M702.167,471.32a2.919,2.919,0,0,1,.3-.62,6.62,6.62,0,0,1,.562-.91.455.455,0,0,0-.164-.725c-.46-.285-.965-.476-1.421-.787-.3-.209-.335-.39-.145-.689.3-.471.389-.542.765-.328.874.5,1.715,1.048,2.6,1.516.5.266.965.593,1.463.864.551.3.58.453.288.988a13.849,13.849,0,0,0-1.024,2.011,1.324,1.324,0,0,1-.441.644c-.181.138-.383.287-.6.081a.528.528,0,0,1-.125-.689c.276-.5.54-1,.817-1.5a.794.794,0,0,0-.7-1.2.429.429,0,0,0-.378.251c-.3.5-.594,1-.9,1.5-.1.164-.241.307-.459.2A.6.6,0,0,1,702.167,471.32Z" transform="translate(-628.908 -408.007)" fill="#b5222a"/>
    <path id="Path_9155" data-name="Path 9155" d="M267.118,153.269a1.153,1.153,0,0,1-.658-.413c-.794-.855-1.779-1.508-2.511-2.432-.306-.385-.646-.329-.965.057-.153.182-.292.376-.455.551a.426.426,0,0,1-.638.054c-.215-.185-.509-.389-.3-.761a.763.763,0,0,1,.163-.225,32.5,32.5,0,0,0,2.645-2.8.44.44,0,0,1,.735-.01c.438.414.441.529-.047.925-.682.551-.689.965-.039,1.549.852.773,1.694,1.555,2.539,2.334.138.138.368.26.24.485C267.668,152.859,267.565,153.215,267.118,153.269Z" transform="translate(-249.851 -132.075)" fill="#b5222a"/>
    <path id="Path_9156" data-name="Path 9156" d="M517.932,62.67c.5.028,1.068.249,1.664.306.316.03.628.087.947.1.284.014.525.116.56.449s-.1.516-.452.487a9.847,9.847,0,0,1-1.334-.193,4.111,4.111,0,0,0-.706-.085c-.462-.022-.449.383-.562.651a.514.514,0,0,0,.172.707,1.318,1.318,0,0,0,.784.252,3.674,3.674,0,0,1,1.165.222c.276.059.317.276.3.525a.389.389,0,0,1-.431.414c-.438,0-.849-.179-1.293-.189-.871-.017-1.035.085-1.093.948-.029.431-.229.811-.287,1.241-.041.295-.35.211-.568.183-.242-.032-.394-.161-.362-.427.092-.784.169-1.567.312-2.343.149-.827.287-1.654.368-2.5C517.169,62.816,517.31,62.682,517.932,62.67Z" transform="translate(-469.625 -59.284)" fill="#b5222a"/>
    <path id="Path_9157" data-name="Path 9157" d="M274.95,525.752a.469.469,0,0,1-.179.445c-.919.761-1.747,1.62-2.594,2.456-.5.5-.5.761.008,1.256.058.055.114.11.174.164.345.307.374.491.119.757-.393.413-.52.413-.878.084-.746-.7-1.359-1.516-2.077-2.245a5.353,5.353,0,0,1-.633-.6c-.176-.244-.176-.433.069-.6s.494-.478.815-.109c.13.149.239.317.369.464.327.365.528.405.918.1a8.667,8.667,0,0,0,1.048-.965c.536-.586,1.188-1.053,1.7-1.665a.586.586,0,0,1,.736-.229A.689.689,0,0,1,274.95,525.752Z" transform="translate(-256.098 -457.895)" fill="#b5222a"/>
    <path id="Path_9158" data-name="Path 9158" d="M719.544,240.485c-.01.3,0,.551-.29.612s-.43-.138-.533-.368a5.227,5.227,0,0,0-.259-.662c-.178-.284-.414-.4-.7-.243a16.063,16.063,0,0,1-1.985.782c-.5.192-1,.365-1.5.572a.647.647,0,0,1-.827-.276c-.3-.48-.131-.835.436-.868a2.8,2.8,0,0,0,.81-.3c.944-.343,1.913-.618,2.838-1.019.276-.119.379-.23.251-.531a5.481,5.481,0,0,1-.294-.941.393.393,0,0,1,.256-.514c.227-.072.367.039.495.223a2.893,2.893,0,0,1,.429.848c.219.751.5,1.479.773,2.205A3.368,3.368,0,0,1,719.544,240.485Z" transform="translate(-639.359 -209.334)" fill="#b5222a"/>
    <path id="Path_9159" data-name="Path 9159" d="M581.465,579.915a.721.721,0,0,1,.582-.742c.312-.07.454.109.564.368.462,1.082.932,2.161,1.4,3.241.168.387.349.771.514,1.159.244.575.171.809-.3.994-.44.172-.728.022-.913-.516-.383-1.112-.872-2.181-1.331-3.261-.124-.292-.265-.579-.413-.863A1.081,1.081,0,0,1,581.465,579.915Z" transform="translate(-525.695 -504.579)" fill="#b5222a"/>
    <path id="Path_9160" data-name="Path 9160" d="M669.21,513.9c.025-.194.036-.436.276-.551a.5.5,0,0,1,.594.062c1.188,1.1,2.569,1.989,3.722,3.137.35.347.375.518.13.812-.288.346-.514.347-.9,0-.528-.459-1.049-.928-1.586-1.378q-.965-.8-1.943-1.564A.648.648,0,0,1,669.21,513.9Z" transform="translate(-601.346 -447.779)" fill="#b5222a"/>
    <path id="Path_9161" data-name="Path 9161" d="M433.841,68.781c-.131-1.241-.414-2.378-.6-3.538-.062-.4.01-.564.383-.622.54-.084.616-.019.689.414.138.819.313,1.632.449,2.451.146.874.276,1.752.394,2.63.048.342-.214.414-.47.474a.441.441,0,0,1-.594-.312A3.846,3.846,0,0,1,433.841,68.781Z" transform="translate(-397.89 -60.938)" fill="#b5222a"/>
    <path id="Path_9162" data-name="Path 9162" d="M723.3,284.955c-.606.014-.9-.414-.731-.878.061-.165.2-.179.352-.208a10.036,10.036,0,0,0,1.771-.518,9.569,9.569,0,0,1,1.071-.218,15.464,15.464,0,0,1,1.964-.438.458.458,0,0,1,.563.327.486.486,0,0,1-.267.6,1.748,1.748,0,0,1-.586.237c-1.3.266-2.547.689-3.82,1.035A2.966,2.966,0,0,1,723.3,284.955Z" transform="translate(-647.312 -248.974)" fill="#b5222a"/>
    <path id="Path_9163" data-name="Path 9163" d="M349.767,202.141a1.9,1.9,0,0,0-.489.442c-.145.276-.088.452.239.5l.31.168c-.012.165.119.276.15.433l.029.8a.52.52,0,0,0,.287.474.405.405,0,0,1,.216.214c.03.128,0,.295.189.329.043.083.087.165.131.247a.35.35,0,0,0,.13.334,2.533,2.533,0,0,1-.03,1.378c-.112-.017-.153.033-.138.138l-.2.112a2.782,2.782,0,0,1-.587,0,1.013,1.013,0,0,0-.871.164.414.414,0,0,1-.43,0c-.074-.17-.229-.154-.374-.163a2,2,0,0,1-.594-.037c-.072-.092-.138-.1-.205.007l-.295.208c-.15.088-.3.172-.307.382a1.115,1.115,0,0,0,1.1,1.323,1.687,1.687,0,0,0,1.009-.138.422.422,0,0,1,.6.138c.178.243-.033.356-.157.5a1.749,1.749,0,0,1-1.094.645c-.575.091-.64.46-.382.973a4.606,4.606,0,0,0,.984,1.223,1.586,1.586,0,0,0,1.516.339,6.386,6.386,0,0,0,1.184-.452c.306-.138.517-.356.352-.761a.7.7,0,0,1,.231-.71.261.261,0,0,1,.414.058.565.565,0,0,1,.121.288c.018.878.294,1.727.285,2.607a1.744,1.744,0,0,1-.124.662,2.6,2.6,0,0,0-.021,1.93,1.747,1.747,0,0,1,.076.629,29.809,29.809,0,0,0,.5,3.17,5.423,5.423,0,0,0,.192,1.416,1.581,1.581,0,0,0,.267.571,2.022,2.022,0,0,1,.551,1.019c.125.7.649,1.232.8,1.919a11.417,11.417,0,0,1,.311,1.633,5.2,5.2,0,0,0,.8,2.3c.313.551.529,1.145.79,1.716a24.421,24.421,0,0,1,.759,2.948,4.357,4.357,0,0,0,1.337,1.835c.252.233,1.048-.176,1.176-.579a1.1,1.1,0,0,1,.787-.852c.116-.026.165-.13.236-.205a5.088,5.088,0,0,0,.99-1.378,1.265,1.265,0,0,1,.656-.638.625.625,0,0,0,.328-.939,2.669,2.669,0,0,0-.7-.86c-.272-.252-.226-.454.048-.678a14.838,14.838,0,0,0,1.188-1.045,1.435,1.435,0,0,0,.379-1.052c-.01-.811-.04-1.62-.066-2.43a.8.8,0,0,0-.048-.35c-.429-.757.094-1.311.407-1.9a.632.632,0,0,1,.662-.276.539.539,0,0,0,.6-.3,1.137,1.137,0,0,1,1.085-.616,1.144,1.144,0,0,0,1.13-.835c.165-.551.63-.722.976-1.035.291-.262.608-.5.9-.762.5-.447,1.059-.827,1.593-1.241a1.248,1.248,0,0,0,.524-.732c.015-.072.092-.128.121-.2.11-.265.338-.46.385-.772a.491.491,0,0,1,.458-.385c.2-.021.4-.035.6-.037a1.561,1.561,0,0,0,1.61-1.745c-.055-.7,0-1,.855-1.319a6.462,6.462,0,0,1,2.029-.7.512.512,0,0,0,.4-.725,2.105,2.105,0,0,1-.147-.849,3.544,3.544,0,0,0-.4-1.684,2.431,2.431,0,0,0-.593-.583.787.787,0,0,1-.059-1.241.477.477,0,0,0,.018-.784,1.224,1.224,0,0,1-.378-.926c0-.21.015-.426-.263-.514-.149-.046-.062-.128.012-.2a1.545,1.545,0,0,0,.466-.63c.068-.208.247-.123.364-.051.24.149.5.295.706.019a.67.67,0,0,0-.054-.813,1.427,1.427,0,0,1-.138-.368c-.083-.227-.186-.441-.5-.4-.2.023-.47.116-.52-.193s.276-.39.469-.5a1.326,1.326,0,0,1,.587-.063c.2-.008.258.138.3.306a4.726,4.726,0,0,0,.487,1.367,1,1,0,0,0,1.264.368,1.11,1.11,0,0,1,.729-.1,2.039,2.039,0,0,0,1.241-.2.458.458,0,0,0,.17-.749c-.276-.413-.121-.841.387-.827.878.014,1.289-.644,1.839-1.1.276-.226.458-.528.888-.516.276.008.389-.3.522-.5.357-.538.6-.664,1.224-.5a.936.936,0,0,0,.8-.124,1.686,1.686,0,0,1,1.511-.223c.39.119.39.495.425.742.076.525.47.622.827.706a1.085,1.085,0,0,1,.835.747c.138.378-.047.6-.347.788-.2.124-.127.332-.123.51.015.6-.041.653-.605.5a1.3,1.3,0,0,0-1.184.3,2.129,2.129,0,0,0-.965,1.231,4.057,4.057,0,0,1-.571,1.851c-.176.221-.1.619-.2.941a6.75,6.75,0,0,0-.325,1.14c-.054.393-.248.634-.689.584-.356-.039-.527.125-.5.484a1.471,1.471,0,0,1-.138.611,2.482,2.482,0,0,0-.164,1.207,1.3,1.3,0,0,1-.234.859c-.11.192-.32.441-.62.3-.276-.124-.645-.182-.571-.633a.26.26,0,0,0-.033-.19,1.114,1.114,0,0,1-.477-.965c0-.138-.174-.117-.3-.108-.276.019-.551.043-.834.034a.569.569,0,0,1-.6-.6c-.014-.292-.012-.584-.025-.877a.965.965,0,0,1,.689-1.012.928.928,0,0,0,.447-.314c.276-.332.189-.6-.221-.742a2.815,2.815,0,0,0-.98-.138,8.092,8.092,0,0,1-1.549-.033.62.62,0,0,1-.551-.43c-.276-.682-.427-.787-.93-.755-.226.014-.314.108-.276.329.026.138.044.288.065.433.054.385.037.706-.451.82-.256.059-.38.463-.192.615.613.492.6,1.187.777,1.865a18.491,18.491,0,0,1,.276,2.757c.04.364-.083.492-.462.613-.631.2-1.271-.034-1.887.17a4.085,4.085,0,0,0-.735.385.316.316,0,0,0-.156.379c.256.846-.266,1.387-.744,1.952a1.591,1.591,0,0,1-.889.551,3.808,3.808,0,0,0-2.041,1.624,4.267,4.267,0,0,1-1.343,1.249c-.54.276-.859.815-1.356,1.144a2.578,2.578,0,0,0-1.038,1.156.812.812,0,0,1-.492.436c-.073.026-.172.05-.205.106-.276.471-.8.463-1.23.624-.128.048-.251.066-.3.218a.6.6,0,0,1-.63.394,1.074,1.074,0,0,0-1.016,1.42,8.683,8.683,0,0,1,.225,3,3.146,3.146,0,0,1-.573,1.589,1.61,1.61,0,0,0-.314.758,6.577,6.577,0,0,0,.011,1.854.825.825,0,0,1-.637,1.03,1.585,1.585,0,0,0-.984,1.378.691.691,0,0,1-.751.689.639.639,0,0,0-.689.506,2.056,2.056,0,0,1-1.326,1.21c-.284.1-.477-.165-.689-.32a5.659,5.659,0,0,1-1.424-2.046,2.342,2.342,0,0,1-.291-1.18,5.5,5.5,0,0,0-.757-2.4,13.162,13.162,0,0,1-1.274-2.647,9.619,9.619,0,0,1-.234-1.631,3.455,3.455,0,0,0-.362-1.079,8.651,8.651,0,0,0-.771-1.493c-.169-.276-.077-.667-.269-.979a10.757,10.757,0,0,0-.616-1.185.628.628,0,0,1-.08-.385c-.014-.424-.052-.85-.03-1.274a4.9,4.9,0,0,0-.48-1.872.578.578,0,0,1-.008-.463,1.534,1.534,0,0,0-.023-1.285,2.6,2.6,0,0,1,0-1.391c.1-.529.495-1.055.131-1.664-.194-.327-.442-.35-.645-.21a1.968,1.968,0,0,1-.8.3c-.8.146-1.628.383-2.35-.252-.04-.034-.1-.059-.118-.1-.313-.761-1.1-1.184-1.4-1.955a1.324,1.324,0,0,0-.2-.291.453.453,0,0,1-.037-.589c.328-.375.1-.677-.148-.893-.3-.265-.527-.593-.812-.868-.261-.252-.164-.629-.11-.943.044-.249.3-.255.522-.262a.551.551,0,0,0,.42-.193.888.888,0,0,1,.907-.265c.287.058.576.092.863.15a1.085,1.085,0,0,0,.7-.039,2.12,2.12,0,0,1,.689-.176c.487-.058.651-.426.437-.871a4.028,4.028,0,0,0-.918-1.271.534.534,0,0,1-.138-.769c.223-.353-.154-.477-.354-.572-.517-.247-.7-.527-.451-1a3.826,3.826,0,0,1,1.482-1.507.641.641,0,0,1,.544-.007,1.821,1.821,0,0,0,2.481-.773,2.331,2.331,0,0,1,.827-.623,1.734,1.734,0,0,0,.882-1.137.91.91,0,0,1,.474-.664,1,1,0,0,0,.542-.5,15.96,15.96,0,0,0,.827-1.727,1.536,1.536,0,0,1,.456-.951c.276-.238.014-.845-.407-.975a.8.8,0,0,1-.425-.324,1.665,1.665,0,0,0-.451-.5.37.37,0,0,1-.154-.221,7.1,7.1,0,0,1-.284-2.473.708.708,0,0,1,.269-.382c.532-.539.558-.735.026-1.27-.249-.249-.473-.565-.9-.59a.466.466,0,0,1-.414-.43.547.547,0,0,1,.194-.6,5.711,5.711,0,0,1,1.671-1.094,4.282,4.282,0,0,1,2.619.052.926.926,0,0,1,.54.5.731.731,0,0,0,.413.4c.473.168.747.571,1.126.834.423.295.758.888,1.442.659a1.162,1.162,0,0,0,.356-.149,2.028,2.028,0,0,1,1.5-.336,4.192,4.192,0,0,1,.8.339c.207.08.431.108.575.313.2.276.44.527.2.919-.138.219.014.551-.187.758-.463.491-.762,1.129-1.391,1.472a.538.538,0,0,0-.157.943A1.4,1.4,0,0,1,364,194.4a1.1,1.1,0,0,0-.175,1.516,2.31,2.31,0,0,1,.276.94.63.63,0,0,0,.232.477,14.232,14.232,0,0,0,1.2,1.126c.5.358.193.651.092.919a2.418,2.418,0,0,0-.128.853c0,.317.266.414.491.5a1.719,1.719,0,0,1,.527.336,3.522,3.522,0,0,0,1.6.947c.3.052.531.318.808.47a3.2,3.2,0,0,0,1.906.368,1.764,1.764,0,0,1,1.365.442,1.929,1.929,0,0,0,1.254.513c.31,0,.532.266.827.336a1.172,1.172,0,0,0,.5.1,3.289,3.289,0,0,1,1.563.276c.167.05.329.138.295.316s-.237.174-.372.152a15,15,0,0,1-2.034-.267c-.426-.128-.863-.236-1.3-.347a2.49,2.49,0,0,1-1.136-.613c-.289-.276-.577-.531-1-.21a.275.275,0,0,1-.227.033,8.068,8.068,0,0,1-2.159-.711.992.992,0,0,0-.562-.175.71.71,0,0,1-.48-.207,12.119,12.119,0,0,0-1.855-1.336.994.994,0,0,1-.413-1.427c.084-.194.156-.4.258-.582a.375.375,0,0,0-.182-.561,5.18,5.18,0,0,1-1.588-1.753,20.786,20.786,0,0,1-.917-2.381c-.125-.245-.123-.525.294-.566a1.929,1.929,0,0,1,.629-.048c.215.048.325-.088.422-.232s-.057-.251-.138-.325a1.646,1.646,0,0,1-.613-1.314.738.738,0,0,1,.358-.736,4.916,4.916,0,0,0,1.349-1.447.841.841,0,0,0,.138-.932,1.025,1.025,0,0,0-.93-.414,2.365,2.365,0,0,0-1.705.485.671.671,0,0,1-.689,0,7.653,7.653,0,0,0-1.137-.564c-.2-.052-.218-.294-.276-.459a.9.9,0,0,0-.648-.58,1.358,1.358,0,0,1-.936-.728,1.551,1.551,0,0,0-1.617-.4,3.39,3.39,0,0,1-1.253.454.445.445,0,0,0-.414.372.667.667,0,0,0,.357.743,1.84,1.84,0,0,1,.8.9.944.944,0,0,1-.393,1.438.689.689,0,0,0-.285.827,2,2,0,0,1,.16.809,1.214,1.214,0,0,0,.886,1.21c.447.152.651.572.965.861.718.656.715.729-.168,1.141a.88.88,0,0,0-.582,1.093.755.755,0,0,1-.267.71c-.276.266-.437.666-.709.893a17.893,17.893,0,0,0-1.716,2.276c-.036.04-.076.1-.114.106-.608.022-.872.52-1.234.882a.756.756,0,0,0-.463.334c-.438.532-1.089.5-1.654.674a.438.438,0,0,1-.266-.041C350.2,201.628,350.176,201.631,349.767,202.141Zm35.287,8.809a5.024,5.024,0,0,0,.35-1.771c-.084-.629.121-.793.753-.855a.745.745,0,0,0,.744-.54,6.215,6.215,0,0,0,.39-1.523,1.418,1.418,0,0,1,.288-.815,1.419,1.419,0,0,0,.252-.771c.059-.532-.015-1.18.567-1.456.393-.187.653-.522,1.035-.7a2.788,2.788,0,0,0,1.3-1.054c.2-.329.216-.429-.123-.612a.827.827,0,0,0-.5-.087c-.575.052-.758-.069-.965-.6-.057-.149-.087-.307-.138-.456-.065-.183-.214-.346-.383-.205a1.814,1.814,0,0,1-1.447.248.748.748,0,0,0-.739.34c-.125.17-.23.379-.459.413a1.22,1.22,0,0,0-.747.489,4.978,4.978,0,0,1-1.359,1.145c-.138.074-.391.185-.3.365.211.4,0,.728-.07,1.09-.069.328-.276.543-.571.481-.68-.138-1.318.254-2,.085a.968.968,0,0,0-.812.354c-.183.172.063.353.138.528a.653.653,0,0,1,.032.156c.121.889.2.98,1.079,1.118a3.009,3.009,0,0,0,.551,0c.517-.019,1.034-.058,1.552-.061a.789.789,0,0,1,.762,1.174c-.152.323-.346.624-.511.94-.084.161-.138.336.1.431a1.143,1.143,0,0,1,.689,1.039A2.342,2.342,0,0,0,385.054,210.95Z" transform="translate(-322.528 -165.265)" fill="#0e0e6d"/>
    <path id="Path_9164" data-name="Path 9164" d="M411.917,292.327a2.146,2.146,0,0,1,1.016.1.438.438,0,0,0,.31.008c.445-.214.946-.1,1.4-.262.221-.076.431.09.651.128.13.022.263.1.387.054.38-.127.5.091.608.391.051.138.057.234-.07.3a.732.732,0,0,0-.387.651c-.026.269-.167.324-.374.205-.379-.215-.841-.192-1.207-.44a.3.3,0,0,0-.23-.014,6.45,6.45,0,0,1-1.734.185.659.659,0,0,1-.34-.072,1.513,1.513,0,0,0-.91-.2,1.066,1.066,0,0,1-.784-.2c-.492-.321-.611-.232-.775.3a1.643,1.643,0,0,0,.125,1.185.773.773,0,0,1-.123.98.313.313,0,0,0-.127.276c.15.771-.509,1.176-.8,1.74-.091.174-.138.255-.012.394a.8.8,0,0,1,.1.128c.066.124.209.269.113.389s-.288.073-.443,0c-.827-.371-1.261-.021-1.733.492a8.708,8.708,0,0,0-1.606,3.638,6.1,6.1,0,0,1-.35,1.418c-.05.085-.073.234-.208.2s-.108-.165-.121-.276a4.1,4.1,0,0,1,.295-1.592,2.812,2.812,0,0,0,.138-.972,1.927,1.927,0,0,1,.482-1.581.915.915,0,0,0,.161-1.034.622.622,0,0,1,.413-.91,2.78,2.78,0,0,1,.941-.266c.429-.028.66-.372.835-.715.12-.233-.023-.367-.276-.306a1.5,1.5,0,0,0-.622.251c-.262.21-.495.149-.539-.17a.994.994,0,0,0-.572-.757c-.08-.044-.186-.092-.215-.165-.247-.623-.539-1.225-.784-1.846a4.089,4.089,0,0,0-.288-.682c-.187-.3-.338-.183-.467.034-.109.182-.182.383-.282.571-.251.469-.509.492-1.02.376s-.941-.474-1.464-.56c-.392-.062-.5-.448-.784-.642a6.771,6.771,0,0,0-.855-.576.263.263,0,0,1-.167-.356c.069-.168.211-.1.342-.072a1.674,1.674,0,0,1,.929.493,1.287,1.287,0,0,0,1.451.358c.117-.034.239-.065.237-.222a4.3,4.3,0,0,1,.459-1.527,2.744,2.744,0,0,1,1.62-1.526.552.552,0,0,0,.414-.544c-.01-.658.282-1.267.276-1.93a.493.493,0,0,1,.371-.474,7.048,7.048,0,0,1,1.428-.324.551.551,0,0,1,.578.4,1.533,1.533,0,0,0,.633.74.691.691,0,0,1,.289.955,2.019,2.019,0,0,0-.145,1.126.826.826,0,0,0,.827.722.328.328,0,0,1,.243.117,4.06,4.06,0,0,1,.569.759A1.9,1.9,0,0,0,411.917,292.327Zm-4.471,1.792a1.623,1.623,0,0,0-.569.371c-.234.2-.13.34.1.441a.481.481,0,0,0,.487-.074c.358-.243.719-.482,1.079-.722.15-.1.276-.3.069-.352-.369-.085-.437-.338-.522-.616-.041-.138-.107-.249-.276-.23a.3.3,0,0,0-.3.276c-.018.113.012.276-.138.3a.405.405,0,0,1-.358-.208,1.179,1.179,0,0,0-.633-.52c-.215-.052-.4-.1-.5-.327a.243.243,0,0,0-.3-.128.276.276,0,0,0-.179.244,4.615,4.615,0,0,1-.138.619c-.154.433.11.674.393.9a.664.664,0,0,0,.845.037.9.9,0,0,1,.936,0Zm-1.241-3.425c.251.025.481-.028.5-.32a3.793,3.793,0,0,1,.149-.852.652.652,0,0,0-.309-.721c-.232-.17-.392.034-.569.138-.087.051-.172.154-.284.08-.316-.205-.393.058-.488.251a2.273,2.273,0,0,0,.276,1.274.481.481,0,0,0,.215.083c.168.037.34.051.507.072Zm-2.211.681a.539.539,0,0,0-.495-.591c-.181-.033-.258.08-.255.258,0,.269.288.7.485.7C403.994,291.74,403.951,291.511,403.994,291.375Zm4.86,3.566c-.237.012-.477.043-.511.324-.025.2.167.205.307.2.256-.008.485-.11.509-.386.007-.182-.2-.119-.312-.139Z" transform="translate(-368.551 -252.136)" fill="#b5222a"/>
    <path id="Path_9165" data-name="Path 9165" d="M461.274,383.74c-.025.157.074.375-.138.484a.718.718,0,0,1-.651-.054.943.943,0,0,1-.374-.4.457.457,0,0,0-.48-.276.421.421,0,0,1-.234-.03c-.855-.454-1.474-.007-2.112.5s-1.276.947-1.938,1.385a1.151,1.151,0,0,1-1.354-.19,19.334,19.334,0,0,1-1.87-2.205.834.834,0,0,0-1.241-.233c-.163.087-.307.21-.473.291-.117.058-.276.094-.346-.066a.258.258,0,0,1,.117-.345c.733-.318,1.3-.911,2.025-1.241.307-.138.332.043.3.248a1.422,1.422,0,0,0,.689,1.341c.138.119.263.261.4.383.16.138.317.276.564.148.216-.109.323.011.414.222.24.569.276.551.827.306a2.816,2.816,0,0,0,.9-.627,1.08,1.08,0,0,1,.627-.31,3.5,3.5,0,0,0,.979-.513.171.171,0,0,0,.077-.24c-.046-.088-.138-.077-.21-.058a2.108,2.108,0,0,0-.5.138c-.138.074-.207.059-.285-.065-.094-.146,0-.219.1-.289a.721.721,0,0,1,.2-.125,1.216,1.216,0,0,0,.808-.689c.193-.374.453-.316.74-.021a3.173,3.173,0,0,0,1.414,1.089A1.506,1.506,0,0,1,461.274,383.74Z" transform="translate(-412.385 -333.705)" fill="#b5222a"/>
    <path id="Path_9166" data-name="Path 9166" d="M417.284,418.63a1.224,1.224,0,0,1,.19.867c0,.561.127.655.631.414.229-.106.294-.052.276.172a1,1,0,0,1-.076.346,2.8,2.8,0,0,0-.343,1.282c0,.205-.146.276-.318.276-.3.011-.4.121-.225.394s.039.352-.214.391a1.914,1.914,0,0,1-1.115-.192,3.809,3.809,0,0,1-1.471-.979c-.153-.183-.325-.4-.172-.642s.424-.226.682-.174.491.1.737.138.646-.361.827-.608A5.18,5.18,0,0,0,417.284,418.63Z" transform="translate(-381.649 -366.178)" fill="#b5222a"/>
    <path id="Path_9167" data-name="Path 9167" d="M389.891,327.458a1.507,1.507,0,0,1-1.053-.375,6.133,6.133,0,0,1-1.478-1.585.818.818,0,0,1,0-.926c.218-.306.583-.171.89-.185.1,0,.138.113.157.2.019.119-.072.146-.165.18-.471.165-.521.276-.222.689a3.92,3.92,0,0,0,1.956,1.4c.182.062.492.018.452.328C390.386,327.523,390.082,327.435,389.891,327.458Z" transform="translate(-358.223 -284.91)" fill="#b5222a"/>
    <path id="Path_9168" data-name="Path 9168" d="M374.49,297.939c.414-.51.433-.513,1.045-.263a.439.439,0,0,0,.266.041c.569-.178,1.22-.138,1.654-.674a.751.751,0,0,1,.463-.334c.022.026.063.076.062.076-.292.258-.522.634-.915.713a7.287,7.287,0,0,1-1.3.343.567.567,0,0,1-.345-.054.559.559,0,0,0-.853.163c-.007.01-.023.023-.03.021A.178.178,0,0,1,374.49,297.939Z" transform="translate(-347.25 -261.064)" fill="#b5222a"/>
    <path id="Path_9169" data-name="Path 9169" d="M472.071,375.678c-.015.207-.182.21-.332.13a1.472,1.472,0,0,0-.52-.163.9.9,0,0,1-.425-.764.2.2,0,0,1,.1-.1C471.3,374.629,472.061,375.191,472.071,375.678Z" transform="translate(-430.272 -328.349)" fill="#b5222a"/>
    <path id="Path_9170" data-name="Path 9170" d="M443.976,413.44a.539.539,0,0,1-.079-.518,7,7,0,0,0,.2-.89.285.285,0,0,1,.349-.248c.19.028.17.182.154.342A3.056,3.056,0,0,1,443.976,413.44Z" transform="translate(-407.061 -360.269)" fill="#b5222a"/>
    <path id="Path_9171" data-name="Path 9171" d="M415.565,308.073a.432.432,0,0,1-.276.471.385.385,0,0,1-.471-.1.276.276,0,0,1-.063-.413c.055-.076.112-.15.168-.223.094-.121.059-.393.316-.32a.471.471,0,0,1,.325.5A.194.194,0,0,0,415.565,308.073Z" transform="translate(-381.907 -270.35)" fill="#b5222a"/>
    <path id="Path_9172" data-name="Path 9172" d="M486.044,392.685a.244.244,0,0,1-.26-.182.289.289,0,0,1,.149-.369,4.061,4.061,0,0,1,.779-.266c.214-.05.276.131.181.263A1.927,1.927,0,0,1,486.044,392.685Z" transform="translate(-443.186 -343.097)" fill="#b5222a"/>
    <path id="Path_9173" data-name="Path 9173" d="M369.94,345.98a1.013,1.013,0,0,1,.871-.164,2.784,2.784,0,0,0,.587,0,.276.276,0,0,1-.34.138A3.535,3.535,0,0,0,369.94,345.98Z" transform="translate(-343.328 -303.37)" fill="#b5222a"/>
    <path id="Path_9174" data-name="Path 9174" d="M480.836,386.012c-.007.094-.011.265-.094.216a.817.817,0,0,1-.425-.571c-.017-.106.022-.236.16-.214C480.8,385.5,480.805,385.771,480.836,386.012Z" transform="translate(-438.488 -337.565)" fill="#b5222a"/>
    <path id="Path_9175" data-name="Path 9175" d="M450.348,403.448c-.018.115.019.256-.138.24-.125-.012-.145-.138-.138-.243s0-.244.13-.245C450.362,403.2,450.318,403.362,450.348,403.448Z" transform="translate(-412.413 -352.875)" fill="#b5222a"/>
    <path id="Path_9176" data-name="Path 9176" d="M370.709,309.345c-.327-.052-.383-.232-.238-.5Z" transform="translate(-343.72 -271.521)" fill="#b5222a"/>
    <path id="Path_9177" data-name="Path 9177" d="M376.5,323.164a.52.52,0,0,1-.287-.474C376.307,322.847,376.471,322.963,376.5,323.164Z" transform="translate(-348.731 -283.462)" fill="#b5222a"/>
    <path id="Path_9178" data-name="Path 9178" d="M353.94,347.722c0-.21.157-.294.307-.382A.425.425,0,0,1,353.94,347.722Z" transform="translate(-329.533 -304.715)" fill="#b5222a"/>
    <path id="Path_9179" data-name="Path 9179" d="M380.059,328.009c-.194-.035-.158-.2-.189-.329A.38.38,0,0,1,380.059,328.009Z" transform="translate(-351.889 -287.765)" fill="#b5222a"/>
    <path id="Path_9180" data-name="Path 9180" d="M375.055,314.153c-.032-.152-.163-.267-.15-.433.214.062.124.266.185.4v.037Z" transform="translate(-347.607 -275.729)" fill="#b5222a"/>
    <path id="Path_9181" data-name="Path 9181" d="M364.11,346.05c.145.008.3-.007.374.163C364.315,346.257,364.212,346.155,364.11,346.05Z" transform="translate(-338.301 -303.603)" fill="#b5222a"/>
    <path id="Path_9182" data-name="Path 9182" d="M382.289,332.194a.35.35,0,0,1-.13-.334.251.251,0,0,1,.13.334Z" transform="translate(-353.859 -291.369)" fill="#b5222a"/>
    <path id="Path_9183" data-name="Path 9183" d="M358.31,345.34c.065-.108.138-.1.205-.007a.125.125,0,0,1-.205.007Z" transform="translate(-333.301 -302.922)" fill="#b5222a"/>
    <path id="Path_9184" data-name="Path 9184" d="M381.964,344.392c-.022-.108.019-.157.138-.138C382.1,344.354,382.078,344.416,381.964,344.392Z" transform="translate(-353.69 -302.051)" fill="#b5222a"/>
  </g>
</svg>
