<svg xmlns="http://www.w3.org/2000/svg" width="94.106" height="94.125" viewBox="0 0 94.106 94.125">
  <g id="Cycling_Federation" data-name="Cycling Federation" transform="translate(0.13 0.28)">
    <path id="Path_11063" data-name="Path 11063" d="M257.341,54.327c.183-.241.356-.436.5.032a3.4,3.4,0,0,0,.228.468l-.021.043.05.021.013.024c0,.071.018.119.095.13h0c.954.537,1.191-.321,1.586-.868.269.257.292.587.428.861a.751.751,0,0,0,1.232.1c.048,0,.069-.027.063-.075l.071-.128c.143-.16.285-.311.452-.5.335.5.191,1.386,1.155,1.293.412-.04.52-.31.656-.6.072.014.1-.016.082-.087l.067-.117c.494-.16.388.276.435.481.093.407.252.661.712.73a.641.641,0,0,0,.7-.261c.172-.223.3-.531.641-.568a.071.071,0,0,0,.022.091c.093.542-.014,1.187.831,1.275.641.066.739-.5,1.066-.8l.011-.011c.369.1.207.43.257.653.075.343.143.606.556.73a.707.707,0,0,0,.885-.252,1.193,1.193,0,0,1,.21-.212c.088-.067.16-.213.293-.16s.1.2.12.321c.067.33-.059.723.367.929.391.188.739.274,1.06-.123a1.163,1.163,0,0,1,.556-.39c.247.508-.141,1.37.8,1.49.462.058.657-.276.914-.534h0c.125,0,.236-.119.369-.037,0,.08.008.16.013.241.038.351-.122.715.245,1.03.685.587,1.079-.143,1.6-.321.233.481-.191,1.123.528,1.469s.962-.412,1.512-.459a2.507,2.507,0,0,1-.04.77c-.019.191-.14.454.188.539l.149.1.085.061a.445.445,0,0,0,.743,0l.1-.064.481-.268c.455.176.085.51.114.757.034.3-.03.544.3.749a.76.76,0,0,0,.924.011,1.1,1.1,0,0,1,.659-.266,1.6,1.6,0,0,1-.079.762.684.684,0,0,0,.332.8c.378.3.664.064.985-.085.139-.064.334-.16.443-.106.16.075.045.284.042.435a.6.6,0,0,1-.034.236c-.234.5.109.746.443.962s.584,0,.8-.245a.705.705,0,0,0,.468-.149l.05.032h.058a4.7,4.7,0,0,1-.16.818c-.149.4.029.616.287.882.293.3.532.133.811.034a1.161,1.161,0,0,1,.7-.16c-.05.184-.087.356-.14.521-.115.361-.247.674.117,1.031s.669.207,1.025.09c.146-.048.321-.184.451-.077.172.143.008.33-.032.494a1.52,1.52,0,0,1-.1.281.615.615,0,0,0,.16.752.627.627,0,0,0,.775.226,6.8,6.8,0,0,1,.8-.228h0a.507.507,0,0,0,.027.114l-.019.128c-.188.359-.5.709-.321,1.142.359.914,1.148.3,1.722.388-.03.566-.707.932-.207,1.581s1.046-.038,1.533.2a2.974,2.974,0,0,1-.358.818.88.88,0,0,0,.39,1,1.549,1.549,0,0,0,.827-.04c.3-.09.4.014.321.321-.14.39-.768.694-.213,1.209.074.423.321.419.7.385.2-.018.8-.427.658.35a3.891,3.891,0,0,0-.395.516.781.781,0,0,0,.589,1.007c.321.016.759-.16.908.071.181.276-.337.481-.382.8a.734.734,0,0,0,.529,1.1c.308.043.7-.215.922.213v.01a1.2,1.2,0,0,0-.467.585.056.056,0,0,0-.042.074c-.351.225-.12.433.019.641h0c0,.359.205.481.544.457a4.744,4.744,0,0,1,.481.019c.329.01.4.135.18.391a2.729,2.729,0,0,1-.237.268.644.644,0,0,0-.216.831.727.727,0,0,0,.751.54.852.852,0,0,1,.622.173l-.271.452h-.031v.032c-.075-.011-.1.022-.095.095h-.03v.032l-.072.079h-.035l-.011.035c-.072-.019-.1.008-.09.08a.507.507,0,0,0,.075.6c0,.172,0,.35.241.366h0l.12.056.249.032c.221.151.56-.019.73.269-.172.16-.343.321-.518.481a.7.7,0,0,0-.279.706c.087.587.481.633.911.725.16.032.568-.088.351.354-.321.289-.85.4-.726,1.02.072.362.184.629.6.694a2.545,2.545,0,0,1,.581.249c-.181.481-.89.577-.741,1.323.16.786.9.446,1.227.848-.053.194-.261.249-.4.374-.233.21-.6.284-.516.768a.857.857,0,0,0,.712.8c.188.051.37.13.555.2v.2c-1.033.42-1.251.715-.941,1.357.212.441.707.481,1.164.661-.447.447-1.326.5-1.087,1.4.141.531.641.507,1.015.7a.257.257,0,0,1-.013.321c-.334.18-.828.175-.933.624-.112.481-.064.933.548,1.123.252.075.678.233.144.564-.839.29-1.068.8-.614,1.344a.837.837,0,0,0,.082.087c.208.178.641.252.627.481-.018.309-.454.3-.71.419a.794.794,0,0,0-.136,1.27c.213.173.491.268.653.523-.321.417-1.09.175-1.193.962s.682.775.9,1.243a.871.871,0,0,1-.589.252.7.7,0,0,0-.675.622.781.781,0,0,0,.366.852c.16.132.611.178.334.587-.3-.083-.513.14-.759.237a.666.666,0,0,0-.253,1.123,6.018,6.018,0,0,0,.528.459l.136.107h0c-.183.229-.463.184-.7.249-.321.087-.6.148-.7.581a.807.807,0,0,0,.29.884c.148.14.444.244.356.481-.072.194-.359.085-.545.143-.287.087-.608.018-.747.446a.887.887,0,0,0,.274,1.052c.133.122.342.223.292.481-.136.022-.273.045-.409.064s-.321.035-.481.059a.733.733,0,0,0-.419,1.107c.088.3.386.436.542.683-.16.289-.425.148-.641.16a.793.793,0,0,0-.823.452.773.773,0,0,0,.133.92c.148.173.351.33.375.595l-.409.075h-.6c-.714.284-.754.821-.115,1.53.228.744-.366.361-.564.361-.361,0-.63,0-.844.38a.731.731,0,0,0,.088.921c.123.16.366.361.22.569-.114.16-.372.035-.566,0a.8.8,0,0,0-.9.386c-.249.351-.088.581.066.86a1.174,1.174,0,0,1,.258.595,1.514,1.514,0,0,1-.767,0,.735.735,0,0,0-.829.414c-.207.334-.072.56.12.8.223.686.218.7-.5.548a.78.78,0,0,0-.911,1.131c.1.218.285.42.21.714a3.6,3.6,0,0,0-.372-.077c-.386-.038-.755-.321-1.147.128s-.133.762,0,1.142c.045.127.119.321.063.393-.144.186-.321-.014-.481-.045-.358-.066-.67-.245-1.036.115s-.234.658-.115,1.017c.051.16.217.353.063.494s-.338-.029-.5-.075c-.34-.1-.627-.244-.98.075-.462.414-.21.778-.058,1.175l.048.252c-.05.144-.17.16-.3.16l-.2-.071-.173-.085h-.026c-.3-.18-.609-.37-.844.093v-.013c-.9.386.12,1.062-.258,1.541a5.644,5.644,0,0,1-.573-.233.735.735,0,0,0-.917.03.753.753,0,0,0-.252.882c.045.233.075.467.112.7-.274-.12-.552-.231-.821-.361a.719.719,0,0,0-.824.14.6.6,0,0,0-.236.726,6.425,6.425,0,0,1,.107.824,6.173,6.173,0,0,1-.617-.3c-.308-.2-.568-.374-.97-.111a.737.737,0,0,0-.3.962c.045.16.1.391-.077.5s-.321-.1-.473-.17a.4.4,0,0,1-.1-.067.772.772,0,0,0-.937-.077c-.356.181-.321.449-.321.754a1.336,1.336,0,0,1-.083.762,3.386,3.386,0,0,1-.579-.38c-.4-.409-.773-.2-1.123.048-.321.226-.138.6-.16.9s-.106.449-.425.289h0a.226.226,0,0,0-.212-.16h.01a.6.6,0,0,0-.8-.277.767.767,0,0,0-.573.728c-.024.244.228.608-.2.75l-.151-.083c-.064-.074-.123-.152-.194-.221a.839.839,0,0,0-1-.263c-.444.173-.455.481-.455.844,0,.2-.018.393-.026.589-.29.029-.4-.215-.571-.372-.532-.5-.752-.5-1.35,0-.212.321-.019.746-.388,1.233-.2-.269-.369-.513-.555-.741-.125-.151-.265-.329-.489-.122-1.01-.071-.6.921-1.055,1.427l-.7-.829v-.038l-.027.024a.284.284,0,0,0-.388-.01.545.545,0,0,0-.447.16l-.024.01c-.415.266-.123.831-.5,1.171a7,7,0,0,1-.505-.6c-.213-.321-.455-.321-.816-.261-.494.08-.5.427-.617.757-.066.18-.01.608-.449.367-.066-.074-.17-.138-.188-.221-.1-.459-.382-.571-.826-.552-.494.021-.608.321-.686.712-.035.173-.09.343-.135.513l-.208.021h0l-.1-.141h0c-.252-.415-.366-.932-1.087-.831-.5.071-.528.383-.641.709-.2.1-.045.367-.225.481-.3-.122-.4-.417-.515-.672-.2-.447-.59-.29-.921-.321s-.366.223-.481.433c-.123.237-.087.6-.471.651l-.263-.529a.709.709,0,0,0-.706-.5.725.725,0,0,0-.771.494,2.476,2.476,0,0,1-.334.555c-.133.175-.16-.055-.231-.09-.093-.378-.14-.8-.568-.962-.9-.346-1.031.521-1.387.977-.467-.287-.255-.962-.868-1.123a.763.763,0,0,0-1.068.606c-.249.4-.409.4-.571-.077-.1-.289-.1-.641-.54-.77-.658-.2-.9.16-1.123.641-.241.309-.4.321-.481-.112-.091-.51-.239-.919-.92-.912-.459,0-.52.364-.757.568-.1.088-.207.26-.3.255-.2-.01-.168-.233-.192-.377-.09-.544-.3-.94-.951-.871-.574-.051-.579.7-1.094.791a6.143,6.143,0,0,1-.178-.765c-.042-.406-.26-.548-.641-.518-.16-.127-.321-.2-.465.018l-.027.024-.321.258c-.149.119-.215.419-.422.362-.249-.066-.175-.377-.189-.566a.746.746,0,0,0-.611-.8c-.678-.17-.858.415-1.224.723a.747.747,0,0,1-.244-.693c.027-.422-.21-.584-.544-.744-.5-.239-.738.127-1.012.388s-.42.2-.492-.16a3.118,3.118,0,0,1,0-.481c.056-.415-.282-.462-.529-.6s-.481-.16-.659.12a1.6,1.6,0,0,0-.592.481h0c-.391-.146-.16-.481-.192-.717-.034-.321-.047-.59-.412-.775a.712.712,0,0,0-.9.106,1.012,1.012,0,0,1-.641.343c0-.225.014-.439,0-.651s.1-.444-.125-.608h0a.091.091,0,0,0-.125-.091.1.1,0,0,0-.1-.037c-.311-.414-.606-.2-.922,0-.188.12-.4.409-.6.255-.16-.125-.083-.457,0-.683.148-.423-.1-.589-.406-.8-.5-.346-.759.042-1.082.276a.555.555,0,0,0-.375.181l-.1-.079a.088.088,0,0,0-.013-.1c.132-.194.077-.427.128-.632A.708.708,0,0,0,229,138.7c-.343-.257-.581-.1-.868.038-.188.091-.382.359-.576.194-.16-.13-.043-.411.013-.616a.682.682,0,0,0-.253-.829.749.749,0,0,0-.924-.056,1.127,1.127,0,0,1-.616.22.888.888,0,0,1,.059-.691c.16-.4.022-.641-.3-.9a.573.573,0,0,0-.84.038c-.234-.021-.4.223-.667.16.016-.178.03-.346.045-.516.14-.321.342-.6.01-.962a.735.735,0,0,0-1.033-.192,3.352,3.352,0,0,1-.678.2v-.18a.577.577,0,0,0,.127-.447.7.7,0,0,0-.032-.962.76.76,0,0,0-.962-.16l-.558.2-.123-.019-.01-.011v-.123l.029-.115c.189-.452.585-.86.088-1.392-.374-.4-.694-.225-1.054-.055l-.244.035c-.175,0-.228-.112-.226-.268h0c.082-.014.083-.069.067-.133l.034-.14a.729.729,0,0,0,.12-.962.8.8,0,0,0-1.015-.311c-.176.059-.423.2-.548.018-.106-.16.071-.366.16-.539.2-.37.345-.733-.127-1.02-.03-.12-.083-.215-.229-.2a.55.55,0,0,0-.46-.03c-.226.048-.52.191-.662,0s.119-.391.223-.577a.72.72,0,0,0,.021-.874.656.656,0,0,0-.842-.321,2.306,2.306,0,0,1-.656.011c0-.572.779-.869.321-1.557-.441-.656-1.046-.146-1.564-.34.189-.3.345-.577.531-.831a.389.389,0,0,0-.064-.619c-.189-.906-.993-.21-1.443-.571.072-.114.152-.241.234-.366s.184-.257.261-.393a.764.764,0,0,0-.507-1.054c-.277-.011-.555-.029-.832-.03-.205,0-.152-.127-.136-.242l.16-.205-.01.008a.119.119,0,0,0,.115-.136h0c.125-.042.225-.1.213-.258l.013-.029.072-.091h.034v-.034c.112-.019.111-.075.051-.152a.337.337,0,0,0-.107-.308.138.138,0,0,0-.066-.183l-.014-.035c-.087-.553-.534-.242-.811-.337-.146-.05-.356.014-.431-.144s.123-.265.21-.386a.786.786,0,0,1,.141-.191c.39-.269.261-.595.14-.946s-.4-.386-.712-.39a.962.962,0,0,1-.619-.16c.16-.489.925-.6.693-1.37-.244-.8-1.009-.358-1.389-.754l.284-.372c.247-.215.641-.3.518-.8a.832.832,0,0,0-.821-.744c-.17-.019-.454.021-.494-.218-.03-.184.223-.249.343-.374a1.137,1.137,0,0,0,.095-.146.5.5,0,0,0,.342-.656c-.077-.313-.112-.624-.529-.69a6.8,6.8,0,0,1-.861-.261c.321-.249.556-.423.786-.606.168-.135.39-.263.135-.513.056-.858-.726-.765-1.209-1.046.2-.359.63-.431.864-.725l.047-.008-.011-.042a1.058,1.058,0,0,0-.034-.759c-.16-.447-.617-.372-.945-.526-.293-.117-.152-.25-.016-.383.452-.226,1-.353.821-1.089-.064-.258-.12-.43-.39-.52a1.669,1.669,0,0,1-.734-.369c.273-.455,1.073-.337,1.042-1.15s-.762-.641-1.074-1.033c.013-.2.234-.191.321-.321.309-.16.723-.18.733-.712a.821.821,0,0,0-.515-.884c-.181-.082-.515-.091-.481-.346.022-.221.343-.231.537-.3a.719.719,0,0,0,.566-.77.65.65,0,0,0-.388-.7,1.854,1.854,0,0,1-.67-.471h0l.186-.106h.032l.018-.024c.383-.138.871-.1,1-.641a.789.789,0,0,0-.452-1.018c-.186-.091-.481-.143-.4-.481a4.576,4.576,0,0,1,.683-.194c.43-.058.441-.38.5-.691a.545.545,0,0,0-.4-.691q0-.1-.1-.082l-.014-.035h-.038v-.042l-.032.016-.146-.1c-.269-.621.342-.39.523-.467.335-.143.552-.268.624-.667a.715.715,0,0,0-.335-.8,1.317,1.317,0,0,1-.515-.5l.943-.313a.759.759,0,0,0,.273-1.14c-.2-.233-.51-.358-.654-.683l.824-.244c.361.091.435-.172.524-.42s.181-.515-.074-.767c-.213-.208-.512-.362-.606-.7a4.59,4.59,0,0,1,.734-.123.555.555,0,0,0,.63-.4c.127-.366.208-.659-.16-.951-.138-.107-.38-.33-.3-.526s.39-.109.589-.18a.15.15,0,0,1,.059,0c.4.051.544-.2.669-.528a.57.57,0,0,0-.249-.8,1.325,1.325,0,0,0-.088-.16c-.1-.133-.308-.258-.2-.436.087-.136.281-.067.439-.021a.568.568,0,0,0,.561-.095.785.785,0,0,0,.334-1.18c-.143-.234-.531-.378-.335-.765h.954a.745.745,0,0,0,.407-1.132c-.149-.229-.321-.444-.481-.666.25-.215.544-.09.8-.069a.809.809,0,0,0,.816-.455c.208-.314.058-.553-.1-.811-.122-.2-.311-.37-.321-.629.481-.207,1.052.378,1.527-.271.5-.68-.321-1.026-.257-1.612.3.047.595.106.888.128a.759.759,0,0,0,.725-1.057c-.12-.25-.268-.481-.4-.728h0a.12.12,0,0,0,.013-.114l.231-.018c.393.029.768.388,1.174.1a.874.874,0,0,0,.205-1.283c-.083-.149-.412-.407.066-.515l.119.022c.348.069.656.369,1.06.077.76-.548.117-1.123.047-1.708.545-.1,1.023.516,1.589-.01.606-.563-.149-1.06.024-1.594.3.1.577.208.861.289.513.146,1-.5.845-1.1-.051-.2-.253-.454-.071-.609s.411.061.6.14a.72.72,0,0,0,.868-.043.845.845,0,0,0,.258-.962c-.043-.2-.178-.4-.043-.649a5.107,5.107,0,0,1,.621.252.692.692,0,0,0,.869-.032.733.733,0,0,0,.292-.819c-.037-.255-.231-.524-.019-.791.189.1.382.2.568.311a.772.772,0,0,0,1.209-.847,1.013,1.013,0,0,1,0-.715c.29.16.547.3.8.452.2.115.393.215.56-.045.651-.16.526-.632.441-1.089-.034-.451.13-.492.492-.269.3.183.561.675.994.191.789-.263.3-.98.52-1.512.563.308,1.062,1.079,1.764.3.3-.4-.071-.914.221-1.315l.2.109a1.923,1.923,0,0,0,.619.545c.287.207.481.12.572-.208.593-.253.393-.9.662-1.321a6.794,6.794,0,0,1,.526.481.71.71,0,0,0,.909.148.7.7,0,0,0,.447-.749c0-.192-.047-.459.115-.55.207-.119.309.16.465.268a1.208,1.208,0,0,0,.16.074c.321.6.714.242,1.09.075.3-.208.186-.539.236-.821a.067.067,0,0,0,.016-.1c.188-.481.375-.133.513.019.269.3.494.6.986.423.356-.127.595-.282.537-.7.061-.2.123-.4.189-.614.367.09.449.494.755.619a.734.734,0,0,0,1.156-.276c.09-.277.146-.566.221-.871.366.123.471.452.682.675a.734.734,0,0,0,1.2-.257c.1-.269.207-.539.334-.869.5.409.69,1.344,1.586.848.077.021.128,0,.135-.085h0c.279-.281.213-.723.492-1.033.441.261.391,1.052,1.159,1s.69-.767,1.039-1.183a3.122,3.122,0,0,1,.515.754c.3.431.712.4.962-.067.109-.212.212-.428.321-.641a1.454,1.454,0,0,1,.146-.173c.144.263.29.5.4.749a.481.481,0,0,0,.51.321c.253,0,.321-.176.427-.351s.067-.55.356-.571c.321-.022.274.38.455.547.132.122.115.409.4.358a.433.433,0,0,0,.354.011c.189-.029.229-.175.257-.33h0a.1.1,0,0,0,.087-.138l.01-.034C257.3,54.476,257.362,54.426,257.341,54.327Zm20.674,82c.074.013.114-.021.123-.095h0a3.983,3.983,0,0,0,1.164-.8,2.153,2.153,0,0,0,.762-.516A15.937,15.937,0,0,0,282.47,133a.843.843,0,0,0,.481-.454,11.593,11.593,0,0,0,2.118-1.961.5.5,0,0,0,.289-.3,12.533,12.533,0,0,0,1.9-2.085c.269-.119.29-.431.481-.614a7.394,7.394,0,0,0,1.429-1.794,10.782,10.782,0,0,0,1.236-1.819,18.8,18.8,0,0,0,1.666-2.734,27.437,27.437,0,0,0,2.369-5.055,23.746,23.746,0,0,0,1.24-3.709,1.424,1.424,0,0,0,.184-.619c.018-.079.035-.16.051-.234a15.15,15.15,0,0,0,.613-2.766l.008-.045c.1-.085.077-.2.069-.308a7.339,7.339,0,0,0,.268-1.924,8.109,8.109,0,0,0,.247-2.389,19.08,19.08,0,0,0,.16-4.444,6.307,6.307,0,0,0-.16-1.944,1.908,1.908,0,0,0-.048-.824,14.545,14.545,0,0,0-.422-3.047,5.9,5.9,0,0,0-.279-1.642,30.049,30.049,0,0,0-1.661-5.773h0a.874.874,0,0,0-.242-.577c-.172-.08-.022-.321-.2-.4a6.628,6.628,0,0,0-.778-2.046,33.18,33.18,0,0,0-3.465-6.1c-.035-.043-.069-.088-.1-.133a1.256,1.256,0,0,0-.467-.664,24.664,24.664,0,0,0-2.919-3.647,6.162,6.162,0,0,0-1.206-1.294l-.135-.141a.738.738,0,0,0-.345-.35v-.013c0-.075-.034-.112-.111-.109h-.014a.673.673,0,0,0-.353-.338l-.016-.024c0-.072-.026-.106-.1-.1l-.029-.018a5.59,5.59,0,0,0-1.264-1.148,15.152,15.152,0,0,0-1.91-1.567,19.446,19.446,0,0,0-2.922-2.094,20.889,20.889,0,0,0-2.282-1.4,26.926,26.926,0,0,0-4.912-2.359,10.422,10.422,0,0,0-2.261-.85,28.275,28.275,0,0,0-5.067-1.384,7.97,7.97,0,0,0-1.791-.289,20.239,20.239,0,0,0-3.849-.459l-.829-.019a16.956,16.956,0,0,0-3.868,0l-.953.019a21.121,21.121,0,0,0-3.849.465,5.5,5.5,0,0,0-1.552.263,3.861,3.861,0,0,0-1.161.223,21.215,21.215,0,0,0-4.033,1.182,7.865,7.865,0,0,0-2.025.742,25.219,25.219,0,0,0-5.053,2.4,29.69,29.69,0,0,0-4.569,2.944,4.17,4.17,0,0,0-1.115.885.409.409,0,0,0-.3.215,2.259,2.259,0,0,0-.76.641l-.095.075c-.063-.03-.069,0-.066.053a.074.074,0,0,0-.066.074,8.592,8.592,0,0,0-1.54,1.374.117.117,0,0,0-.123.117.71.71,0,0,0-.361.359,11.911,11.911,0,0,0-1.814,1.913,1.974,1.974,0,0,0-.606.685A.348.348,0,0,0,223,73.9h.008a.114.114,0,0,0-.111.135h0a8.26,8.26,0,0,0-1.283,1.576l-.032.011v.034l-.042.008.014.035a32.482,32.482,0,0,0-2.935,4.447,28.56,28.56,0,0,0-2.369,4.811,28.7,28.7,0,0,0-1.517,4.36,16.577,16.577,0,0,0-.709,2.861,4.563,4.563,0,0,0-.276,1.536.367.367,0,0,0-.074.38l-.034.119a13.625,13.625,0,0,0-.351,2.766l-.021.463a10.687,10.687,0,0,0-.2,2.131,41.6,41.6,0,0,0,.111,4.67,12.03,12.03,0,0,0,.338,2.6,6.537,6.537,0,0,0,.261,1.794,16.636,16.636,0,0,0,.686,3.032,3.14,3.14,0,0,0,.281,1.05,14.67,14.67,0,0,0,.946,2.869,1.1,1.1,0,0,0,.237.616,13.364,13.364,0,0,0,1.017,2.417,12.308,12.308,0,0,0,1.14,2.274c-.026.067,0,.106.066.127a14.924,14.924,0,0,0,1.4,2.385,5.645,5.645,0,0,0,.949,1.421,3.536,3.536,0,0,0,.706.991,27.744,27.744,0,0,0,4.06,4.734c0,.03.01.046.04.046a29.025,29.025,0,0,0,5.027,4.33,1,1,0,0,0,.481.358.109.109,0,0,0,.136.093l.027.011a8.419,8.419,0,0,0,1.543,1.05l.029.026a.675.675,0,0,0,.436.263,9.222,9.222,0,0,0,1.908,1.09,12.133,12.133,0,0,0,2.614,1.333,10.629,10.629,0,0,0,2.191.962h0c.018.077.069.09.138.071l.207.051a19.86,19.86,0,0,0,3.5,1.216,1.932,1.932,0,0,0,.855.215,14,14,0,0,0,2.76.609h0c.1.132.233.114.367.087a6.313,6.313,0,0,0,1.674.274c.16.035.308.083.463.1a41.5,41.5,0,0,0,8.66.241,20.043,20.043,0,0,0,3.528-.455,4.26,4.26,0,0,0,1.408-.247,16.728,16.728,0,0,0,3.127-.725h0a.556.556,0,0,0,.467-.128,6.364,6.364,0,0,0,1.573-.481,8.465,8.465,0,0,0,1.944-.7.856.856,0,0,0,.589-.237,13.89,13.89,0,0,0,2.4-1.026,25.069,25.069,0,0,0,3.849-2.114.481.481,0,0,0,.369-.218h0a.16.16,0,0,0,.16-.119h.043l.024-.037c.1.016.149-.051.2-.122Z" transform="translate(-208.26 -54.19)" fill="#d9251c"/>
    <path id="Path_11064" data-name="Path 11064" d="M327.861,180.047l-.016.03a.362.362,0,0,0-.292.231l-.03.01c-1.536,1.074-3.1,2.106-4.71,3.068-1.633.811-3.273,1.6-4.971,2.269l-1.878.653a.16.16,0,0,0-.189.075h-.043c-.5.127-1,.241-1.5.382-1.491.427-3.029.627-4.542.948l-.694.059-.189.05a.358.358,0,0,0-.406.024c-1.517.128-3.039.138-4.561.17H303.6l-3.255-.236-.771-.069c-1.871-.343-3.735-.715-5.576-1.2l-2.157-.707q-2.566-1.047-5.059-2.266h0c0-.069-.038-.1-.107-.082-1.6-.917-3.154-1.939-4.676-2.994l-3.34-2.837c-.361-.542-.945-.869-1.336-1.382l-.946-1.021-1.6-1.924a.228.228,0,0,0-.184-.229l-1.958-2.829a.282.282,0,0,0-.151-.285l-1.087-1.924c-.771-1.576-1.477-3.182-2.147-4.8q-.383-1.216-.768-2.428c-.149-.614-.311-1.225-.444-1.843-.239-1.123-.459-2.245-.686-3.368a1.485,1.485,0,0,0-.055-.661c0-.149.056-.3-.055-.436.064-.106,0-.191-.045-.279a3.363,3.363,0,0,0,.014-.481,39.273,39.273,0,0,1,.04-7.33.109.109,0,0,0-.008-.16.631.631,0,0,0,.074-.438q.125-.9.249-1.807c.385-1.6.7-3.222,1.171-4.8l.783-2.245c.717-1.673,1.477-3.324,2.325-4.936l.547-.951q.47-.741.94-1.479a2.221,2.221,0,0,0,.489-.714,1.519,1.519,0,0,0,.5-.7h0a1.017,1.017,0,0,0,.4-.481l.066-.133,2.405-2.819,2.4-2.354h0a58.544,58.544,0,0,1,4.8-3.607l2.176-1.3a.338.338,0,0,0,.269-.16,23.143,23.143,0,0,0,2.353-1.163l.125-.037.16-.069a19.3,19.3,0,0,0,2.025-.85l.239-.051h.021a.422.422,0,0,0,.354-.16,9.819,9.819,0,0,0,1.644-.515l2.648-.717,2.651-.5c.186,0,.382.051.545-.088a1.48,1.48,0,0,0,.834-.133,23.524,23.524,0,0,0,3.475-.223h1.559c1.905.2,3.82.3,5.717.582l.029.026.037-.011c.111.141.266.087.409.091a5.793,5.793,0,0,0,1.421.268l2.545.691c1.612.56,3.207,1.158,4.779,1.823l2.41,1.211a.2.2,0,0,0,.218.112l2.184,1.331a51.294,51.294,0,0,1,4.341,3.352,37.975,37.975,0,0,1,6.02,6.766c.135.2.29.375.438.561a14.456,14.456,0,0,0,1.177,1.873,1.03,1.03,0,0,0,.321.56q1.073,2.261,2.149,4.522l.948,2.641a20.418,20.418,0,0,0,.675,2.405c.276,1.6.624,3.185.811,4.8q.1,1.2.189,2.405.01,1.2.018,2.405-.067,1.323-.136,2.646l-.024.16c-.14.21-.069.444-.08.67-.011.191-.022.382-.035.573-.374,1.855-.685,3.725-1.174,5.557l-.759,2.394-2.141,4.811a6.3,6.3,0,0,0-.73,1.293,4.825,4.825,0,0,0-.656,1.084,24.538,24.538,0,0,0-1.572,2.354h0c-.728.757-1.339,1.6-2,2.423l-.095.119-.133.172.008-.019a29.286,29.286,0,0,0-2.085,2.173c-.143,0-.2.1-.226.223l-2.245,1.905-.16.149a.16.16,0,0,0-.2.14Zm-13.7-38.808h0l-.131.122h0a.124.124,0,0,0-.127.127h0a9.754,9.754,0,0,0-.16,3.127c0,.287.289.095.417.021.55-.321,1.091-.654,1.633-.985h.037v-.035l.109-.074a12.815,12.815,0,0,0,2.085-1.195,4.283,4.283,0,0,0,1.225-.712c.247-.034.257-.212.122-.33a2.612,2.612,0,0,1-.723-1.488,3.792,3.792,0,0,1,4.169-4.434,4.811,4.811,0,0,1,2.173,1.151l.082.075h0c.188.321.4.641.56.975.136.285.321.261.528.133.624-.372,1.243-.752,1.865-1.123a10.691,10.691,0,0,0,1.642-.962.242.242,0,0,0,.245-.14h0a.117.117,0,0,0,.141-.1h0a7.26,7.26,0,0,0,1.681-.972.752.752,0,0,0,.457-.244.239.239,0,0,0,.281-.21h0a1.38,1.38,0,0,0,.34-.093c1.107-.641,2.2-1.293,3.315-1.908.411-.226.481-.415.216-.827a39.756,39.756,0,0,0-4.28-5.677c-1.094-1.2-1.094-1.2-2.175.058a11.372,11.372,0,0,0-1.629,1.669,2.018,2.018,0,0,0-.7.691,12.137,12.137,0,0,0-1.732,1.724c-.16.1-.337.191-.382.4a18.122,18.122,0,0,0-2.42,2.43,12.39,12.39,0,0,0-1.886,1.838q-1.764,1.6-3.368,3.368a9.921,9.921,0,0,0-1.511,1.548.659.659,0,0,0-.412.42,8.93,8.93,0,0,0-1.546,1.507.123.123,0,0,0-.136.13Zm-.827-19.808.114.093a4.3,4.3,0,0,0,1.047.887,3.82,3.82,0,0,0,1.113.837,10.893,10.893,0,0,0,2.389,1.5c.2.117.406.237.609.353a.247.247,0,0,0,.386-.119q.722-1.292,1.443-2.575a20.327,20.327,0,0,0,1.4-2.405c1.235-1.742,1.187-1.966-.566-2.67a.481.481,0,0,0-.119-.016.443.443,0,0,0-.425-.207,12.281,12.281,0,0,0-2.712-1.192,19.285,19.285,0,0,0-2.887-1.02c-.726-.226-.725-.231-.888.537a6.617,6.617,0,0,0-.321,1.283.848.848,0,0,0-.148.532v.029a.16.16,0,0,0-.066.2l-.022.128a12.223,12.223,0,0,0-.611,2.147l-.03.16c-.058.454-.608.962.138,1.328a.048.048,0,0,0,.035.069c0,.08.034.117.112.117ZM298.41,162.255l.01-.011a.16.16,0,0,0-.16.16q-.059,0-.053.058a.16.16,0,0,0-.16.16v-.008l-.132.13a.335.335,0,0,0-.224.231,1.743,1.743,0,0,0-.289.3q-1.357,2.377-2.7,4.761c-.94,1.564-1.907,3.111-2.726,4.747l.016.03.029-.019c-.1,0-.148.063-.16.16-.973,1.522-1.847,3.1-2.7,4.692a.04.04,0,0,0-.032.058,17.491,17.491,0,0,0-1.353,2.316,6.949,6.949,0,0,0-.773,1.339l-.072.128a.343.343,0,0,0-.16.269,2.121,2.121,0,0,0-.412.682c-.148.183-.087.268.13.279a14.62,14.62,0,0,0,2.632,1.352h0l.16.085a7.983,7.983,0,0,0,1.764.739,14.465,14.465,0,0,0,2.484.914c1.244.382,1.249.364,1.5-.962l.04-.123c.141-.087.1-.225.1-.353a12.415,12.415,0,0,0,.5-1.924,15.348,15.348,0,0,0,.641-2.389l1.073-3.921a.309.309,0,0,0,.071-.29,1.241,1.241,0,0,0,.16-.608,16.223,16.223,0,0,0,.641-2.359v-.008c.1-.069.09-.16.075-.269v-.01a7.978,7.978,0,0,0,.481-1.791l.027-.21c.593-1.658.973-3.368,1.4-5.079a10.505,10.505,0,0,0,.5-1.915,12.753,12.753,0,0,0,.581-2.163l.032-.027-.011-.038a3.367,3.367,0,0,0,.3-1.5c-.021-.335.21-.861-.125-.962-.253-.071-.585.393-.767.733a6.544,6.544,0,0,0-.988,1.1l-.05.095a.051.051,0,0,0-.064.051A5.556,5.556,0,0,0,298.622,162l-.083.107Zm28.665,17.606a.114.114,0,0,0,.125-.133l-.029.016.022.022a11.387,11.387,0,0,0,2.591-2.123c.127-.091.25-.186.378-.274.468-.321.481-.617.032-1.018-.653-.581-1.235-1.241-1.868-1.846a16.914,16.914,0,0,0-1.8-1.7,5.547,5.547,0,0,0-1.143-1.19l-1.329-1.35-1.068-1.054c-.133-.148-.257-.3-.4-.439-.709-.68-.481-.6-1.212-.03-.662.524-1.31,1.066-2.022,1.647a26,26,0,0,1,.021-2.97,3.193,3.193,0,0,0-1.421-3.268c-.451-.311-.674-.887-1.228-1.086a3.137,3.137,0,0,0-.962-1.054c-.736-.754-1.469-1.509-2.208-2.26a.385.385,0,0,0-.247-.128c-.122.011-.1.146-.109.241-.077,1.443-.16,2.9-.229,4.351-.01.2-.032.411.21.508a2.071,2.071,0,0,0,.5.916,17.521,17.521,0,0,0,1.389,2.405,1.412,1.412,0,0,0,.321.589,13.5,13.5,0,0,0,1.063,1.806c.86,1.639,1.788,3.236,2.77,4.8a8.963,8.963,0,0,0,1.009,1.724v.016c-.026.152.09.223.178.309a.481.481,0,0,0,.221.359c.773,1.552,1.7,3.018,2.556,4.522.1.181.229.245.436.112a11.343,11.343,0,0,0,1.881-1.251,4.724,4.724,0,0,0,1.36-.973l.034-.01c.1-.03.194-.061.2-.188Zm-56.609-20.589h0a.5.5,0,0,0,.4-.109,7.793,7.793,0,0,0,1.7-.471,1.464,1.464,0,0,0,.858-.237h.045c.14,0,.284.014.39-.109v.01a.611.611,0,0,0,.51-.151l.444-.082,2.755-.738v-.008a.481.481,0,0,0,.385-.136c.346.026.651-.189.975-.207.641-.035.759-.362.633-.9l-.014-2.539-.072-1.058c0-.492,0-.985.018-1.477,0-.25-.1-.354-.351-.348-.649.018-1.3.021-1.952.03h-7.218c-.678,0-1.355-.011-2.032-.027-.226,0-.39.018-.367.313a14.144,14.144,0,0,0,.1,1.9,2.884,2.884,0,0,0,.091,1.073,9.119,9.119,0,0,0,.281,2.016,7.346,7.346,0,0,0,.29,1.807c0,.018-.016.038-.01.055a.566.566,0,0,0,.05.091v-.014a.6.6,0,0,0,.13.481h0c.2,1.543.183,1.341,1.427.977.016,0,.027-.027.042-.042a.526.526,0,0,0,.375-.079c.05.055.088.055.111-.019Zm21.377,7.712a.338.338,0,0,0-.348.1h-.011a9.127,9.127,0,0,1-2.534.093l-.16-.019c-.2-.112-.4-.18-.587.019a3.679,3.679,0,0,0-.856.842,3.338,3.338,0,0,0-.718.707l-1.548,1.546-.855.858a15.34,15.34,0,0,0-1.559,1.572c-1.094,1.071-2.183,2.149-3.283,3.215-.949.921-.962.916.1,1.718.014.011.038.01.058.014a11.891,11.891,0,0,0,1.952,1.681h0a1.527,1.527,0,0,0,.608.467,23.765,23.765,0,0,0,3.406,2.389c.345.228.46-.043.585-.26q1.283-2.245,2.566-4.5a4.065,4.065,0,0,0,.537-.981,3.5,3.5,0,0,0,.622-1.074,19.782,19.782,0,0,0,1.443-2.484,1.444,1.444,0,0,0,.342-.6,16.912,16.912,0,0,0,1.331-2.322c1.134-1.734,2.085-3.566,3.143-5.348l-.114-.095-2.2,1.588-.148.091-.05-.011-.019.05-.029.016a1.191,1.191,0,0,0-.621.321h0a1.207,1.207,0,0,0-.656.276l-.029-.014-.021.024a.366.366,0,0,0-.321.107Zm1.924-15.148.16-.119a.063.063,0,0,0,.074-.053l1.9-.818-.026-.093h-4.283c-.773-.01-1.544-.014-2.317-.03-.253,0-.353.091-.348.35.018.852.019,1.7.027,2.555.064.237-.3.768.285.641a10.826,10.826,0,0,0,2.349-.659l.247-.035c.088.013.17.01.22-.08.25-.067.534-.029.736-.241.066,0,.09-.043.071-.107l.16-.4.045-.022-.011-.045a.587.587,0,0,0,.229-.348,1.266,1.266,0,0,0,.481-.5Zm21.215.8h0c-.215.082-.249.218-.042.321a2.406,2.406,0,0,0,.566.117,17.962,17.962,0,0,0,2.4.641c.3.1.608.175.9.292.489.194.757.135.669-.481a4.818,4.818,0,0,1,0-.714c.014-1.434.014-1.434-1.443-1.329a4.06,4.06,0,0,0-2.877.989c-.106.011-.173.056-.176.162Zm4.394,6.719c-.053-.186-.213-.218-.37-.253a4.315,4.315,0,0,0-1.217-.7.133.133,0,0,0-.173-.115,18.573,18.573,0,0,0-1.985-1.123,19.081,19.081,0,0,0-1.669-1.025c-.342-.226-.459-.114-.492.229-.069.715-.128,1.43-.2,2.146a.481.481,0,0,0,.3.531,10.461,10.461,0,0,0,1.969,1.87l.018-.027-.026.019c-.022.16.1.252.2.343,1.172,1.123,2.245,2.357,3.493,3.4.16.013.135-.107.136-.2q.018-1.791.03-3.583l-.008-.016a3.061,3.061,0,0,0-.011-1.495Zm-17.961-35.043v-.481l.014-1.443c.01-.5.043-1,.019-1.5-.021-.406.082-.577.526-.548.641.042,1.283.01,1.924.026.285,0,.446-.047.435-.39-.029-.8-.026-1.6-.035-2.4s0-1.6,0-2.4c.008-.459.013-.917.027-1.376,0-.225-.018-.4-.306-.393a4.969,4.969,0,0,0-1.424.064l-.2.019-.714.019a.624.624,0,0,0-.481.08,28.655,28.655,0,0,0-5.659.906c-.2.047-.321.138-.255.38.436,1.592.8,3.207,1.331,4.771l.027.212a20.649,20.649,0,0,0,.7,2.516,14.285,14.285,0,0,0,.568,2.173c.058.252.1.507.175.755.417,1.43.69,2.9,1.222,4.3l.037.143c-.087.1-.038.181.042.255q.207.815.412,1.631l1.382,5.282.233-.026c0-1.851.013-3.7-.008-5.553a3.1,3.1,0,0,0-.082-1.387V129.6c.111-.055.1-.16.1-.257q0-2.336-.011-4.67c-.006-.123,0-.237,0-.358Zm-12.46,24.505a4.22,4.22,0,0,0,.013,1.2c.119.29.374.16.561.16q2.67.016,5.342,0a6.181,6.181,0,0,0,1.49-.048h.026c.281-.375-.112-.467-.289-.574a24.831,24.831,0,0,1-2.3-1.35,5.554,5.554,0,0,0-2.431-1,13.651,13.651,0,0,0-2.165-.552c-.321-.21-.269.074-.269.225C288.928,147.516,288.944,148.169,288.955,148.82Zm38.337-4.771.388-.082a15.546,15.546,0,0,0,2.34-.657l.247-.047a1.159,1.159,0,0,0,.656-.189,5.878,5.878,0,0,0,1.5-.4c1.615-.378,3.227-.765,4.811-1.291a8.076,8.076,0,0,0,1.807-.481.435.435,0,0,0,.388-.106h0c.231-.05.459-.109.691-.146s.289-.191.231-.386a24.328,24.328,0,0,0-1.4-3.9,9.121,9.121,0,0,0-.866-1.972,6.941,6.941,0,0,0-.827-1.6c-.321-.744-.321-.746-1-.346-.6.35-1.195.7-1.793,1.057a6.915,6.915,0,0,0-1.471.874,1.378,1.378,0,0,0-.587.306c-1.616.9-3.235,1.786-4.792,2.786a8.37,8.37,0,0,0-1.551.882c-.228.173-.115.393-.083.6v.249a7.4,7.4,0,0,1-.138.757,3.822,3.822,0,0,1-3.034,2.777l-.884.038a.717.717,0,0,0-.558-.122c-.29-.181-.677-.123-.938-.377-.216-.2-.428-.465-.767-.261-1.26.76-2.6,1.387-3.805,2.235a8.077,8.077,0,0,0-1.936,1.155.055.055,0,0,0-.072.05l-.032.014a7.455,7.455,0,0,0-.087,1.764c-.04.388.141.438.463.351.847-.228,1.7-.431,2.543-.669a3.048,3.048,0,0,0,1.424-.491,8.033,8.033,0,0,0,2.256-.521,14.475,14.475,0,0,0,2.425-.678l2.017-.4c.16.024.284,0,.3-.2l.04.01.024-.032A12.226,12.226,0,0,0,327.292,144.049Zm-16.469,35.259a8.672,8.672,0,0,0-1.573-.2.926.926,0,0,0-.55-.063l-2.678-.847-.818-.451c-.079-.1-.2-.191-.3-.117-.16.122-.095.321-.066.481v6.73l-.029,2.274c0,.186-.011.37.261.364a14.283,14.283,0,0,0,3.026-.213l.321-.019a12.666,12.666,0,0,0,3.073-.436,6.05,6.05,0,0,0,1.6-.3l.16-.056h.01c.257-.067.69.05.561-.455-.321-1.283-.619-2.585-1.058-3.849a11.741,11.741,0,0,0-.523-1.995c.013-.641-.281-.945-.941-.852a3.117,3.117,0,0,1-.473-.01Zm19.2-28.558H327.62a5.844,5.844,0,0,1-.714-.032c-.592-.1-.7.2-.672.709.072,1.39.119,2.781.16,4.169,0,.258.035.459.338.534,1.1.269,2.191.555,3.287.834a14.872,14.872,0,0,0,2.085.544,29.154,29.154,0,0,0,3.43.917l.037.029h.047c1.26.356,2.519.717,3.781,1.07,1.193.335,1.317.245,1.432-1.033a.266.266,0,0,0-.01-.059,28.394,28.394,0,0,0,.728-4.8.056.056,0,0,0,.021-.083,12.764,12.764,0,0,0,.172-2.436c-.008-.266-.1-.391-.391-.388-2.178.018-4.355.022-6.535.032h-4.811Zm-37.14-21.115h-.011a9.446,9.446,0,0,0,1.108,1.908.592.592,0,0,0,.252.465c.16.3.3.606.473.892.752,1.209,1.339,2.518,2.2,3.664a10.5,10.5,0,0,0,1.421,1.685q1.329,1.6,2.66,3.222c.071.085.144.148.249.1.141-.067.074-.208.085-.321a12.022,12.022,0,0,0-.834-4.914,11.277,11.277,0,0,0-.508-1.924c-.43-1.706-.831-3.421-1.382-5.093a12.848,12.848,0,0,0-.523-2,20.691,20.691,0,0,0-.688-2.516c-.345-1.632-.837-3.225-1.283-4.833a16.355,16.355,0,0,0-.664-2.375c-.274-.741-.271-1.552-.589-2.28-.061-.22.034-.6-.386-.492a17,17,0,0,0-3.125,1.079,10.087,10.087,0,0,0-2.146.892,7.08,7.08,0,0,0-1.588.787,5.125,5.125,0,0,0-1.057.528c-.176.1-.287.192-.144.415.306.481.593.98.888,1.469.481.848.937,1.7,1.422,2.545.938,1.616,1.889,3.227,2.834,4.838a18.421,18.421,0,0,0,1.227,2.109A.138.138,0,0,0,292.886,129.635Zm-15.409,4.84a16.255,16.255,0,0,0,2.11,1.222c.358.184.664.7,1.113.386s.893-.569,1.315-.887c1.94-.8,4.009-.68,6.067-.722a1.082,1.082,0,0,0-.4-.545q-4.144-4.142-8.3-8.273c-.377-.375-.71-1.05-1.164-1.028-.491.022-.792.712-1.167,1.123a8.439,8.439,0,0,0-1.089,1.3,29.256,29.256,0,0,0-3.106,4.354c-.14.223-.141.4.114.539q2.107,1.175,4.192,2.361C277.223,134.435,277.359,134.435,277.476,134.475ZM304.3,178.121a1.442,1.442,0,0,0-.686-1.7l-.739-1.062a15.09,15.09,0,0,1-.962-2.566,22.648,22.648,0,0,1-.457-6.306c.037-1.042,0-2.085,0-3.129l-.112-.022-1.318,5.053a14.093,14.093,0,0,0-.523,2.048,16.5,16.5,0,0,0-.641,2.348v.01l-.045.16-.024.123a.189.189,0,0,0-.061.226l-.063.247a7.809,7.809,0,0,0-.492,1.814v.043l-.067.189a11.845,11.845,0,0,0-.54,2.11,15.755,15.755,0,0,0-.685,2.455q-.3,1.079-.593,2.162c-.276.989-.563,1.977-.823,2.972-.281,1.081-.263,1.092.93,1.233a4.073,4.073,0,0,0,1.4.265c.146.16.34.119.523.12H298.3a12.276,12.276,0,0,0,2.9.351l.032.026.037-.018a13.463,13.463,0,0,0,2.792.207c.269,0,.269-.16.266-.358l-.032-2.28v-4.811Q304.3,179.084,304.3,178.121Zm22.14-20.9.01.367q.056,2.5.112,5.007a.286.286,0,0,0,.112.26v.01c.026.13.128.122.225.125a31.108,31.108,0,0,0,2.965,1.713c1.6,1,3.247,1.96,4.931,2.832a2.369,2.369,0,0,0,.853.513c.21.136.417.281.641.407.642.372.642.369.871-.4h.047l.035-.03a9.1,9.1,0,0,0,1.216-2.389,10.167,10.167,0,0,0,.973-2.405,11.947,11.947,0,0,0,.8-2.231c.229-.728.208-.76-.6-.884a11.084,11.084,0,0,0-2-.523,18.3,18.3,0,0,0-2.774-.73,6.654,6.654,0,0,0-1.685-.446c-1.859-.622-3.767-1.065-5.666-1.538a.05.05,0,0,0-.08-.024.433.433,0,0,0-.4-.095c-.213.035-.661-.524-.592.233C326.435,157.066,326.435,157.143,326.437,157.221Zm7.553,15.841c.087.019.1-.03.1-.1l.066-.112a22.8,22.8,0,0,0,2.287-3.278c.148-.241.128-.409-.127-.534a11.727,11.727,0,0,0-1.472-.794.521.521,0,0,0-.435-.237,9.167,9.167,0,0,0-1.947-1.135c0-.03-.016-.043-.045-.038-.034-.122-.132-.138-.236-.143-1.123-.659-2.231-1.328-3.358-1.971a4.032,4.032,0,0,0-1.041-.555,3.28,3.28,0,0,0-.855-.532c-.2-.122-.34-.043-.29.16.125.524-.231.746-.552,1.018a4.4,4.4,0,0,0-.887.792l-2.551,2.045c-.337.269-.136.425.122.568a16.236,16.236,0,0,0,2.349,2.309c1.454,1.669,3.066,3.185,4.667,4.713.321.342.653.675.962,1.03.2.228.343.2.526,0a9.521,9.521,0,0,0,1.169-1.321A11.422,11.422,0,0,0,333.99,173.062Zm-21.474-.225-.226,3.841a2.99,2.99,0,0,0-.018.962,1.89,1.89,0,0,0,0,.529c.4,1.422.693,2.875,1.18,4.274a.407.407,0,0,0,.095.358.443.443,0,0,0,.093.378c.111.435.223.869.334,1.3-.034.233.106.419.16.625.334,1.164.334,1.164,1.477.7l.261-.066.027.1.091-.149h.058l.047-.037a.213.213,0,0,0,.244-.09,21.482,21.482,0,0,0,4.1-1.645,14.306,14.306,0,0,0,2.037-.977c.449-.215.455-.443.109-.747a17.289,17.289,0,0,0-1.256-2.189,8.475,8.475,0,0,0-.9-1.546,2.463,2.463,0,0,0-.5-.858c-.225-.417-.43-.845-.677-1.248a36.386,36.386,0,0,0-1.977-3.3c-.848-1.738-1.875-3.368-2.871-5.027l-1.344-2.423-.16.037q-.188,3.416-.372,6.832Zm3.786-15.948a.117.117,0,0,0,.151.085l.229.135a1.329,1.329,0,0,0,.609.353l.71.427c.321.2.656.38.972.589.343.228.481.183.481-.261-.014-1.039-.013-2.085.01-3.121.008-.366-.122-.523-.481-.505l-.191-.043c-1.034-.293-2.069-.59-3.1-.88-1.463-.411-1.56-.351-1.947,1.153-.019.079-.043.16-.056.234a.414.414,0,0,0,.218.5c.8.436,1.6.892,2.405,1.339Zm-25.309-2.526a.374.374,0,0,0-.35.1,6.38,6.38,0,0,0-1.451.377c-.29-.037-.263.168-.265.348,0,.42-.018.84,0,1.26a1.486,1.486,0,0,0,2.245,1.418,5.5,5.5,0,0,0,.658-.406.454.454,0,0,0,.367-.26c.508-.531.268-1.214.321-1.82.16-1.647.117-1.652-1.485-1.03Zm24.7-15.514s.035-.018.032-.019a12.526,12.526,0,0,0,2.1-2.014.25.25,0,0,0,.208-.215,23.158,23.158,0,0,0,2.056-2.029,3.231,3.231,0,0,0,.972-1.123,7.448,7.448,0,0,1-3.037,0,3.589,3.589,0,0,0-1.443-.242,4.189,4.189,0,0,0-1.337-.253c-.141-.014-.274-.014-.356.146a6.229,6.229,0,0,0-.7,1.3.558.558,0,0,0-.247.481c-.16.16-.1.377-.1.569q-.013,2.405-.011,4.8c0,.132-.058.289.069.391.1.077.2,0,.258-.069a11.058,11.058,0,0,0,1.557-1.693Zm11.795-11.809a13.485,13.485,0,0,0,2.211-2.075c.231-.216.457-.441.7-.641s.2-.391-.011-.595a38.006,38.006,0,0,0-6.678-5.116c-.226-.136-.4-.128-.544.125q-.991,1.764-1.99,3.528c-.576.763-.948,1.647-1.451,2.452-.465.742-.462.744.346,1.041a.885.885,0,0,0,.175.027,10.649,10.649,0,0,0,2.577.911,2.676,2.676,0,0,0,.94.273c.011.072.022.144.032.215l-.8,4.4,2.415-2.338a13.265,13.265,0,0,0,2.08-2.21Zm-22.651-11.849v.72c0,1.32.008,2.64-.034,3.958-.013.446.146.526.542.529q3.268.03,6.536.106c.374.008.576-.1.558-.5a15.961,15.961,0,0,0,.563-2.147c.33-.871.481-1.8.77-2.676.191-.582.018-.771-.532-.771a11.075,11.075,0,0,0-2.274-.451,13.31,13.31,0,0,0-2.8-.354,3.946,3.946,0,0,0-1.283-.111,7.933,7.933,0,0,0-1.764-.067c-.241-.011-.3.127-.293.34C304.82,114.239,304.825,114.715,304.833,115.191Zm-34.5,44.7-.2.069H270.1c-.29.066-.582.125-.872.2-.183.043-.335.093-.26.359a15.764,15.764,0,0,0,.981,2.872,7.572,7.572,0,0,0,.757,1.9l.08.189.018.047a.128.128,0,0,0,.1.16h0a11.546,11.546,0,0,0,1,2.139c.5.98.505.975,1.429.354.03-.021.043-.064.066-.1a3.929,3.929,0,0,0,1.147-.632l.16-.079h.013c2.021-1.151,4.044-2.3,6.06-3.462.16-.09.446-.135.395-.378-.042-.205-.255-.3-.481-.383-.9-.329-.941-.443-.962-1.435-.03-1.392-.087-2.782-.133-4.169-.192-.151-.382-.027-.563.021-1.414.38-2.826.768-4.237,1.153a20.014,20.014,0,0,0-2.405.674A11.547,11.547,0,0,0,270.329,159.886Zm70.491-17.675a.738.738,0,0,0-.16-.566V141.6c-.038-.234.038-.576-.4-.447-1.055.309-2.142.51-3.177.9a17.312,17.312,0,0,0-2.245.581c-1.69.428-3.388.824-5.048,1.366a15.846,15.846,0,0,0-2.155.568c-1.836.447-1.548.1-1.422,1.849v.361l.018,2.038a3.657,3.657,0,0,0,0,.481c.125,1.034-.088.871.962.874q5.99.014,11.981.011h2.157c.239,0,.43-.022.433-.343a11.837,11.837,0,0,0-.16-2.486,3.3,3.3,0,0,0-.077-.949,13.553,13.553,0,0,0-.4-2.659A7.977,7.977,0,0,0,340.82,142.211Zm-65.783-8.469a10.412,10.412,0,0,0-2.405-1.307c-.124-.321-.263-.216-.38,0a12.348,12.348,0,0,0-.986,1.963,11.66,11.66,0,0,0-1.052,2.415,14.862,14.862,0,0,0-1.009,2.778c-.34,1.161-.338,1.166.885,1.325a10.3,10.3,0,0,0,1.852.5q3.488.962,6.973,1.91c.4.111.433-.114.42-.414a24.991,24.991,0,0,1,0-4.3l.268-.919c.138-.241.273-.481.415-.722.127-.21.109-.348-.13-.481-.906-.494-1.8-1.007-2.7-1.514a57.581,57.581,0,0,1-2.147-1.236Zm-5.653,7.6c-.489-.321-.718-.151-.76.391a8.459,8.459,0,0,0-.351,1.772,14.7,14.7,0,0,0-.447,2.9l-.037.454a22.649,22.649,0,0,0-.215,2.612c-.069.547.115.709.67.7,3.358-.026,6.716-.014,10.072-.016,1.3,0,1.3,0,1.049-1.344q0-1.208-.018-2.415c-.008-.714-.021-1.429-.019-2.142,0-.207-.061-.345-.271-.4l-4.267-1.089a17.507,17.507,0,0,0-2.415-.657,21.487,21.487,0,0,0-2.986-.775ZM289.2,124.43a1.817,1.817,0,0,0-.452-.792,5.229,5.229,0,0,0-.741-1.254,12.9,12.9,0,0,0-1.2-2.085.366.366,0,0,0-.21-.335,5.607,5.607,0,0,0-.6-1.153c-.114-.221-.241-.257-.47-.117a24.766,24.766,0,0,0-3.547,2.474,6.4,6.4,0,0,0-1.467,1.216,16.614,16.614,0,0,0-1.75,1.511c-.17.151-.16.292.011.451,1.159,1.107,2.221,2.311,3.437,3.368.127.148.244.3.382.443,1.48,1.483,2.952,2.975,4.453,4.437a11.377,11.377,0,0,0,1.976,1.851,1.106,1.106,0,0,0,.641.09q2.128.043,4.259.074h1.187a14.725,14.725,0,0,0-1.084-1.811.053.053,0,0,0-.027-.071,42.053,42.053,0,0,0-2.11-3.647c-.834-1.584-1.714-3.142-2.681-4.651Zm-7.449,48.407a.35.35,0,0,0,.231-.226,19.848,19.848,0,0,0,2.171-2.173.249.249,0,0,0,.236-.233,17.416,17.416,0,0,0,1.924-1.924c.377-.351.755-.7,1.123-1.055.277-.265.2-.419-.149-.531a13.059,13.059,0,0,1-2.441-1.1c-.86-.492-1.735-.962-2.6-1.443a.532.532,0,0,0-.738-.16q-2.173,1.283-4.339,2.566a16.378,16.378,0,0,0-2.434,1.416,16.881,16.881,0,0,0-1.833,1c-.271.136-.17.321-.061.5a21.677,21.677,0,0,0,2.349,3.368,13.738,13.738,0,0,0,1.989,2.405c.906,1.273.9,1.268,2,.17.136-.136.321-.229.4-.414A19.442,19.442,0,0,0,281.748,172.837Zm8.384-28.705c-.423,0-.868-.059-1.082.431a2.843,2.843,0,0,0-.12,1.24c0,.178.135.233.273.269.978.268,1.958.531,2.936.8.308.083.378-.026.245-.3a9.519,9.519,0,0,1-.571-1.764.7.7,0,0,0-.672-.576c-.337-.026-.675-.066-1.009-.1ZM313.888,133.6c.29-.277.481-.467.441-.767,0-.035-.2-.1-.263-.064-.319.189-.127.471-.178.835Z" transform="translate(-257.742 -103.645)" fill="#d9251c"/>
  </g>
</svg>
