<svg xmlns="http://www.w3.org/2000/svg" width="100.001" height="89.037" viewBox="0 0 100.001 89.037">
  <g id="Badminton_Association_of_India" data-name="Badminton Association of India" transform="translate(-0.001 0.002)">
    <path id="Path_10727" data-name="Path 10727" d="M347.168,72.163A28.039,28.039,0,0,1,345.09,75.3c.076-1.371.4-2.577.556-3.806a207.823,207.823,0,0,1,4.669-22.862,55.707,55.707,0,0,1,5.294-14.1,15.385,15.385,0,0,1,2.866-3.756,3.575,3.575,0,0,1,2.674-1.159,3.656,3.656,0,0,1,2.806,2.454A9.676,9.676,0,0,1,364,36.406a45.331,45.331,0,0,1-2.839,9.364,139.782,139.782,0,0,1-7.735,15.656q-.978,1.777-1.943,3.563c-.074.143-.212.268-.142.456v-.016c-.143.033-.248.086-.134.254v-.009c-.157-.016-.174.07-.143.192a.428.428,0,0,0-.113.054A13.389,13.389,0,0,0,347.168,72.163Z" transform="translate(-316.429 -29.61)" fill="#f37920"/>
    <path id="Path_10728" data-name="Path 10728" d="M472.24,252.931a3.9,3.9,0,0,1,.783-1.065c.131-.174.348-.3.355-.549a18.2,18.2,0,0,0,3.136-2.243,13.519,13.519,0,0,0,3.157-4.892c3.646-3.83,7.259-7.7,11.08-11.348a57.465,57.465,0,0,1,11.7-9,14.045,14.045,0,0,1,4.665-1.71c1.249-.191,2.5-.056,3.193,1.162a3.619,3.619,0,0,1,.349,3.292,12.984,12.984,0,0,1-2.672,3.962,53.336,53.336,0,0,1-7.054,6.046,147.2,147.2,0,0,1-13.724,8.625c-4.046,2.359-8.208,4.494-12.4,6.576a11.044,11.044,0,0,1-2.53,1.169Z" transform="translate(-425.456 -194.626)" fill="#01974a"/>
    <path id="Path_10729" data-name="Path 10729" d="M428.65,95.934c2.128-4.674,4.041-9.451,6.5-13.968a54.769,54.769,0,0,1,6.773-10.234,14.824,14.824,0,0,1,3.692-3.144,2.953,2.953,0,0,1,3.307-.207,3.587,3.587,0,0,1,1.645,3.432,16.492,16.492,0,0,1-1.776,5.686,76.825,76.825,0,0,1-8.979,13.553c-1.515,1.879-3.071,3.723-4.589,5.6A13.344,13.344,0,0,0,428.65,95.934Z" transform="translate(-388.079 -62.49)" fill="#f37820"/>
    <path id="Path_10730" data-name="Path 10730" d="M508.13,158.94c1.747-2.66,3.421-5.373,5.258-7.966a58.545,58.545,0,0,1,10.378-11.764,13.977,13.977,0,0,1,3.848-2.281c3.136-1.2,4.735,1.589,4.339,3.714a13.5,13.5,0,0,1-2.365,5.184,74.477,74.477,0,0,1-11.14,12.356q-3.706,3.394-7.545,6.639A13.683,13.683,0,0,0,508.13,158.94Z" transform="translate(-456.231 -121.388)" fill="#01974a"/>
    <path id="Path_10731" data-name="Path 10731" d="M279.542,432.617c-3.931,0-6.864-1.853-9.317-4.618a9.312,9.312,0,0,1-2.483-8.4,15.369,15.369,0,0,1,2.725-6.234c.848-1.127.828-1.14,1.971-.285q8.609,6.458,17.226,12.909c.428.321.479.5.143.944a14.086,14.086,0,0,1-8.6,5.559A10.671,10.671,0,0,1,279.542,432.617Z" transform="translate(-249.932 -357.906)" fill="#2e3191"/>
    <path id="Path_10732" data-name="Path 10732" d="M378.659,267.393a13.681,13.681,0,0,1,2.774,5.882,13.294,13.294,0,0,1-.452,6.122,13.63,13.63,0,0,1-3.157,4.892,18.6,18.6,0,0,1-3.136,2.243,15.149,15.149,0,0,1-4.571,1.132,12.261,12.261,0,0,1-12.741-14.6c.046-.225.086-.45.13-.676a13.349,13.349,0,0,1,3.8-6.251.43.43,0,0,1,.113-.054c.073-.044.143-.088.143-.192v.009c.142-.031.275-.071.134-.254v.016c.077.143.168.074.249.011a13.242,13.242,0,0,1,5.4-2.393,12.338,12.338,0,0,1,11.328,4.109ZM363.288,284.4h0c.014.187.123.251.3.232a.067.067,0,0,1,.08.041c.024.245.207.222.376.224h0c.07.311.309.46.537.274.472-.388.838-.234,1.217.1v.368c.143.46.445.4.781.244.234.038.44.285.7-.047.485-.624.925-.55,1.239.2.1.252.261.218.428.237.268.03.215-.182.229-.335.021-.224.036-.449.051-.674h.18c.061.328-.077.678.054,1.012.449-.157.449-.157.624-.436a.622.622,0,0,1,1.107-.064c.217.353.452.262.725.24.385.1.888.181.956-.294.1-.658.46-.731.966-.726l.093.107c-.01.2.087.3.285.277a.348.348,0,0,0,.329-.355h.009c.2-.029.466.074.48-.274l.205-.123.191-.04-.131-.068c-.088-.3-.285-.613.083-.871l.917-.01h0c.016.093.007.218.142.2.043-.007.068-.121.1-.187l.278-.244c.386.02.57-.272.767-.523.142-.192.071-.346-.2-.338l.009.007c.026-.544.058-1.072.855-.827.128.04.143-.1.165-.2l.238-.467.011-.194c.352-.184.486-.366.153-.738a.627.627,0,0,1,.448-1.075c.452-.021.5-.249.5-.582l.021-.191c.214-.269.315-.48-.071-.741-.526-.355-.428-.942.2-1.173.285-.1.363-.258.331-.5-.037-.275-.285-.172-.453-.2-.4-.06-.827.081-1.256-.142.09-.067.12-.108.15-.108.393.007.788.019,1.182.031.155,0,.356.094.388-.164a.385.385,0,0,0-.224-.452c-.782-.406-.817-.713-.128-1.283.21-.175.114-.329.084-.495-.04-.214-.217-.143-.352-.123-.325.066-.647.143-.972.215v-.211c.261-.061.523-.114.78-.184.161-.043.419.01.408-.258-.01-.245-.143-.366-.428-.4-.664-.077-.855-.636-.428-1.147.078-.094.191-.16.191-.3h.11l.053.029-.053-.029c0-.188,0-.376-.269-.364v.01c.009-.3,0-.583-.386-.637l-.222-.127c-.556-.121-.894-.4-.773-1.033l-.008.007c.071-.027.2-.047.205-.08.017-.155-.117-.128-.214-.143a.383.383,0,0,1-.217-.252.346.346,0,0,0-.372-.385c-.321-.5-.669.048-1-.027-.03-.252-.215-.224-.388-.214h0a5.951,5.951,0,0,1,.067-.734c.044-.205-.021-.267-.205-.265l.009.007a1.1,1.1,0,0,0-1.011-.639c-.061.007-.143-.009-.182.023-.828.591-1.053.522-1.283-.452-.053-.222-.221-.218-.354-.285-.244-.133-.249.113-.332.231l-.184-.021c-.01-.142.17-.325-.123-.388-.191-.041-.319-.067-.476.127-.5.621-.931.559-1.249-.2-.1-.245-.262-.234-.435-.251-.265-.029-.217.19-.232.344-.024.247-.039.495-.057.743h-.177c0-.228.009-.456,0-.684-.007-.161.118-.4-.205-.412a.369.369,0,0,0-.412.275c-.3.694-.8.761-1.233.157a.375.375,0,0,0-.456-.182c-.285.063-.2.265-.175.443.053.319.225.634.009,1.028-.08-.362-.13-.667-.222-.959-.04-.128.034-.392-.232-.349-.19.03-.428.054-.4.365a.607.607,0,0,1-.477.7c-.391.11-.629-.108-.827-.4-.02-.094-.033-.212-.165-.184-.157.033-.2.167-.209.311a.064.064,0,0,1-.08.031c-.3-.011-.6-.018-.661.382l-.123.105c-.1.017-.262.038-.208.161.224.5-.134.713-.428.969a.254.254,0,0,1-.261-.1c0-.165-.019-.342-.219-.352-.167-.01-.127.158-.143.267l-.234.185a.345.345,0,0,0-.388.375c-.155.215-.321.409-.091.7.184.23.073.475-.093.684-.3.383-.674.2-1.032.125-.5.2-.612.713-.865,1.1-.053.083.124.124.224.143l.108.114q.051.466.105.935a.071.071,0,0,1-.057.057c-.285.037-.7-.348-.808.248v.014c-.466.127-.294.458-.239.75.016.215-.168.42.142.637.6.428.526.939-.158,1.219a.439.439,0,0,0-.3.391c-.061.3.2.247.332.339l-.009.152c-.153.024-.342-.021-.336.242a.4.4,0,0,0,.272.412c.685.314.757.812.158,1.221-.231.157-.2.316-.212.51-.241.205.078.418,0,.624a.222.222,0,0,0,.242.255l.029.021-.007.034c.128.56.486.294.79.218a.08.08,0,0,1,.044.047c-.15.285.1.553.034.834a.376.376,0,0,1-.249.224c-.1.016-.229.013-.212.143.024.187.108.346.341.341v-.009c0,.227-.083.5.292.519.143.239.335.261.617.21a.609.609,0,0,1,.688.842.6.6,0,0,0,.142.84c.143.587.395.757.75.517a.409.409,0,0,1,.373-.175,1.02,1.02,0,0,0,.657.381.205.205,0,0,1,.068.262c-.255.018-.1.167-.086.272a.08.08,0,0,1-.033.1l-.143.07Z" transform="translate(-326.759 -229.84)" fill="#2f3292"/>
    <path id="Path_10733" data-name="Path 10733" d="M324.43,388.895c-.088.12-.161.221-.235.319-.7.929-1.425,1.846-2.1,2.795-.248.349-.4.328-.713.09q-9.166-6.859-18.354-13.683c-.285-.209-.388-.331-.12-.661.73-.906,1.425-1.841,2.105-2.788.234-.329.382-.3.677-.083q9.192,6.878,18.4,13.737C324.2,388.7,324.314,388.8,324.43,388.895Z" transform="translate(-280.13 -325.531)" fill="#2e3192"/>
    <path id="Path_10734" data-name="Path 10734" d="M528.677,553.294a44.121,44.121,0,0,1-6.378,6.129,46.042,46.042,0,0,1-14.5,7.9c-.5.164-.664.067-.845-.4-.713-1.822-1.457-3.629-2.208-5.435-.143-.346-.157-.495.285-.547a63.842,63.842,0,0,0,23.517-7.7.347.347,0,0,1,.058-.02Z" transform="translate(-453.252 -478.599)" fill="#2e3192"/>
    <path id="Path_10735" data-name="Path 10735" d="M635.432,453.42l.488.023c.126.162.251.165.378,0,2.412.352,4.4,1.3,5.325,3.76a1.5,1.5,0,0,1,.047.242c-.18.153-.093.326-.061.513a7.68,7.68,0,0,1-.744,5.639.969.969,0,0,0-.059.361h0a.7.7,0,0,0-.748.78,5.945,5.945,0,0,1-2.891,1.464c-.143-.178-.343-.143-.52-.115a33.718,33.718,0,0,1-5.212.245c-.358,0-.525-.083-.525-.485q.017-5.962,0-11.924c0-.345.108-.5.466-.476a26.479,26.479,0,0,1,3.729.116A.285.285,0,0,0,635.432,453.42Zm-1.24,10.536a.714.714,0,0,0,.219.1,3.521,3.521,0,0,0,3.951-2.993,6.745,6.745,0,0,0,.076-1.676c-.157-2.587-1.623-3.861-4.225-3.679-.252.124-.165.359-.165.553q-.009,3.563,0,7.127C634.049,463.581,633.976,463.808,634.192,463.956Z" transform="translate(-561.511 -393.016)" fill="#2e3192"/>
    <path id="Path_10736" data-name="Path 10736" d="M540.257,466.282,537,460.153c.023-.536.386-1.173-.456-1.445-.151-.048-.178-.218-.121-.372s.125-.285-.011-.4a2.166,2.166,0,0,1-.669-1.219.209.209,0,0,0-.221-.175c-.11,0-.254.04-.23.143.086.369-.08.818.329,1.089.011.413.024.825.037,1.239-.247.19-.143.46-.143.7-.009,1.977-.013,3.954,0,5.932,0,.439-.123.661-.6.638-.56-.026-1.123-.02-1.685,0-.348.011-.476-.114-.474-.467q.01-5.963,0-11.925c0-.395.142-.5.517-.492a11.425,11.425,0,0,0,1.807-.01c.743-.094,1.026.435,1.348.882a20.874,20.874,0,0,1,1.173,2.376,14.193,14.193,0,0,1,.741,1.425c.227.57.811,1.016.68,1.72a.2.2,0,0,0,.066.167c.815.467.785,1.41,1.19,2.105.1.17.047.285-.041.455a.474.474,0,0,0,.311.733c.352.108.476-.143.465-.47a3.336,3.336,0,0,0-.026-.621c-.631-2.741-.44-5.529-.478-8.3,0-.369.154-.462.488-.453.6.017,1.207.021,1.81,0,.428-.016.587.162.586.59q-.013,5.9,0,11.8c0,.392-.142.5-.515.493C542,466.267,541.131,466.28,540.257,466.282Z" transform="translate(-477.35 -392.975)" fill="#2e3192"/>
    <path id="Path_10737" data-name="Path 10737" d="M178.955,283.514c-1.763.8-3.412,1.581-5.013,2.454a39.545,39.545,0,0,0-11.194,8.552,20.912,20.912,0,0,0-3.093,4.668c-.107.222-.164.383-.49.268-1.765-.62-3.54-1.212-5.312-1.814a2.266,2.266,0,0,1-.252-.13,22.814,22.814,0,0,1,3.769-4.418,37.45,37.45,0,0,1,13.327-7.524,64.4,64.4,0,0,1,7.642-2.08A.9.9,0,0,1,178.955,283.514Z" transform="translate(-152.232 -247.268)" fill="#2e3192"/>
    <path id="Path_10738" data-name="Path 10738" d="M770.636,454.1l2.637,8.653c.349,1.154.678,2.313,1.016,3.471a4.123,4.123,0,0,1-1.725.118c-1.7.021-1.71.009-2.015-1.649-.047-.251-.085-.449-.382-.469-.912,0-1.827.054-2.732-.013-.631-.047-.965.143-1.041.763-.361.12-.285.475-.335.721-.094.48-.285.7-.811.667-.9-.049-1.81-.014-2.708-.016l3.786-12c.108-.017.217-.063.235-.173.117-.713.614-.758,1.192-.713.328.029.66,0,1,0C769.434,453.485,770.205,453.275,770.636,454.1Zm-2.21,2.234c-.034.143-.074.271-.1.408-.259,1.327-.506,2.655-.778,3.978-.285,1.425-.3,1.425,1.179,1.425a2.742,2.742,0,0,1,.375,0c.436.056.525-.1.412-.522C769.049,459.893,768.755,458.13,768.425,456.334Z" transform="translate(-674.38 -393.043)" fill="#2f3192"/>
    <path id="Path_10739" data-name="Path 10739" d="M487.709,458.738c0,2.018-.014,4.035.01,6.052,0,.442-.064.629-.57.6-.871-.047-1.746-.027-2.62,0-.352.008-.51-.037-.509-.459q.026-6.206,0-12.414c0-.368.118-.452.463-.443.914.023,1.83.029,2.744,0,.4-.013.485.12.48.495C487.7,454.629,487.709,456.68,487.709,458.738Z" transform="translate(-435.557 -391.861)" fill="#2e3191"/>
    <path id="Path_10740" data-name="Path 10740" d="M729.317,458.753c0,2.021-.013,4.042.01,6.063,0,.428-.1.57-.544.553-.9-.037-1.792-.026-2.687,0-.353.01-.458-.094-.456-.455q.02-6.187,0-12.373c0-.385.1-.5.486-.49.9.029,1.793.036,2.687,0,.428-.017.517.12.513.522C729.307,454.63,729.317,456.692,729.317,458.753Z" transform="translate(-642.739 -391.841)" fill="#2e3191"/>
    <path id="Path_10741" data-name="Path 10741" d="M154.511,473.294c-.59.254-1.176.523-1.775.755-.231.088-.5.456-.721-.1-.191-.487-.026-.641.4-.787a11.715,11.715,0,0,0,2.114-.949l-1.936.309a5.54,5.54,0,0,0-.552.1c-.278.077-.452.049-.562-.278s.066-.395.285-.5c.664-.341,1.323-.693,1.983-1.04l.174-.124a.224.224,0,0,0-.272-.026c-.7.181-1.425.323-2.109.556-.534.18-.452-.247-.58-.479-.191-.345.076-.372.3-.428,1.283-.3,2.557-.584,3.828-.905.428-.107.455.185.51.428.061.274.443.584-.09.824-.636.285-1.254.614-1.988.979a11.625,11.625,0,0,0,2.148-.292c.342-.054.523.019.56.361.051.47.449.728.671,1.093.15.248.161.365-.114.524q-1.729,1-3.429,2.048c-.356.222-.419-.02-.536-.238s-.371-.413.047-.634c.606-.321,1.179-.7,1.766-1.057.083-.047.252-.08.2-.18C154.74,473.108,154.613,473.263,154.511,473.294Z" transform="translate(-149.91 -406.693)" fill="#313393"/>
    <path id="Path_10742" data-name="Path 10742" d="M174.062,503.069a3.739,3.739,0,0,1-1.085.874c-.039-.084-.03-.2-.157-.219-.02,0-.068.044-.067.064.011.127.134.12.214.165a8.677,8.677,0,0,1-1.5,1.377c-.362.3-.41-.177-.594-.3-.247-.167-.142-.324.047-.486.778-.657,1.548-1.326,2.32-2,.153-.131.395-.285.1-.469-.2-.127-.265-.589-.691-.249-.713.57-1.47,1.089-2.222,1.609-.167.115-.335.468-.606.13-.215-.267-.465-.5-.13-.9a10.565,10.565,0,0,0,.855-1.3.721.721,0,0,0,.2-.674c-.57.413-1.1.777-1.6,1.182-.285.227-.416.182-.626-.1s-.214-.416.086-.624c1.042-.723,2.062-1.477,3.1-2.206.143-.1.309-.418.489-.09.143.249.591.412.278.837-.3.4-.562.824-.831,1.244a1.255,1.255,0,0,0-.306.668,7.964,7.964,0,0,0,1.568-1.039c.285-.2.493-.222.619.11A6.942,6.942,0,0,0,175,502.6c.285.331.205.489-.08.737-.4.345-.475-.01-.626-.235,0-.093.044-.227-.088-.247S174.083,502.981,174.062,503.069Zm-.029-.633c-.051-.054-.08-.114-.12-.122a.173.173,0,0,0-.15.043c-.047.086,0,.143.1.15C173.908,502.508,173.958,502.469,174.034,502.436Zm-2.767-.762-.08.044c.013.014.03.041.04.039a.321.321,0,0,0,.084-.039Z" transform="translate(-164.899 -431.85)" fill="#2f3192"/>
    <path id="Path_10743" data-name="Path 10743" d="M539.407,461.6c.012.325-.113.579-.465.47a.474.474,0,0,1-.311-.733c.089-.162.143-.285.041-.455-.4-.7-.375-1.638-1.19-2.105a.2.2,0,0,1-.066-.167c.131-.7-.453-1.157-.68-1.72a14.193,14.193,0,0,0-.741-1.425,21.881,21.881,0,0,0-1.173-2.376c-.322-.448-.606-.976-1.348-.882a11.412,11.412,0,0,1-1.807.01c-.368-.013-.517.1-.517.492q.017,5.963,0,11.925c0,.353.127.479.475.468.562-.019,1.125-.024,1.685,0,.479.023.6-.2.6-.639-.014-1.978-.01-3.955,0-5.932,0-.237-.1-.507.142-.7.193.1.127.3.128.445.017,2.208.017,4.418.043,6.621,0,.345-.121.428-.435.415-.812-.017-1.625-.021-2.436,0-.343.009-.466-.074-.465-.446q.02-6.216,0-12.429c0-.3.049-.452.4-.443q1.436.034,2.873,0a.5.5,0,0,1,.506.338c1.437,2.806,2.985,5.559,4.2,8.475.056.135.028.366.295.3-.033.168-.339.229-.2.463C539.1,461.78,539.261,461.663,539.407,461.6Z" transform="translate(-475.747 -391.796)" fill="#2f3292"/>
    <path id="Path_10744" data-name="Path 10744" d="M213.586,548.981c-.458.51-.882.949-1.261,1.425-.238.3-.389.3-.684.054s-.194-.4.009-.631c.831-.929,1.643-1.876,2.474-2.8.123-.143.221-.51.5-.211.2.209.633.3.418.775-.229.509-.4,1.046-.589,1.568-.053.143-.177.285,0,.53.4-.455.8-.892,1.189-1.335.18-.207.308-.441.621-.121.234.238.369.365.077.681-.855.931-1.676,1.9-2.519,2.85-.114.127-.218.442-.472.172-.187-.2-.57-.285-.371-.731.232-.507.386-1.052.57-1.581A.741.741,0,0,0,213.586,548.981Zm.158-.187c-.091.064-.235.165-.117.252.143.1.157-.093.208-.18v-.143Zm.5.968c-.07.126.029.118.057.155a1.331,1.331,0,0,0,.1-.142c.056-.088-.05-.078-.076-.117Z" transform="translate(-201.842 -472.999)" fill="#2f3192"/>
    <path id="Path_10745" data-name="Path 10745" d="M145.515,412.021c.043-1.425.043-1.425,1.425-1.243,1.009.133,2.017.267,3.029.383.252.03.385.088.324.381-.083.385-.1.784-.207,1.163a1.18,1.18,0,0,1-2.07.557c-.134-.13-.174-.308-.408-.083a1.187,1.187,0,0,1-1.451.088A1.2,1.2,0,0,1,145.515,412.021Zm2.072-.111c-.231-.3-.609-.165-.918-.239-.262-.063-.319.1-.3.322.04.395.322.507.65.51s.51-.219.566-.594Zm1.14.02c-.254-.021-.5-.091-.469.258a.52.52,0,0,0,.57.529c.349.011.57-.172.559-.462,0-.495-.479-.184-.654-.326Z" transform="translate(-145.297 -356.38)" fill="#313393"/>
    <path id="Path_10746" data-name="Path 10746" d="M147.844,450.533a2.188,2.188,0,0,1-2.138-2.342c.033-.214.187-.194.315-.222,1.294-.3,2.591-.57,3.88-.884.334-.081.376.067.44.318C150.836,449.363,149.945,450.486,147.844,450.533Zm0-.944a3.278,3.278,0,0,0,1.17-.285.925.925,0,0,0,.611-.657c.066-.339.054-.57-.428-.436-.639.182-1.3.285-1.943.455-.162.041-.439-.01-.463.214a.644.644,0,0,0,.362.544,1.215,1.215,0,0,0,.687.165Z" transform="translate(-145.447 -387.565)" fill="#313393"/>
    <path id="Path_10747" data-name="Path 10747" d="M452.214,622.641a3.016,3.016,0,0,1,.3-1.451,1.419,1.419,0,0,1,2.5-.161,3.4,3.4,0,0,1,.194,3.341,1.35,1.35,0,0,1-1.294.821,1.41,1.41,0,0,1-1.313-.8A3.578,3.578,0,0,1,452.214,622.641Zm.961,0a2.9,2.9,0,0,0,.2,1.216.588.588,0,0,0,.562.412.529.529,0,0,0,.513-.386,3.126,3.126,0,0,0-.127-2.292.509.509,0,0,0-.5-.3.549.549,0,0,0-.513.379,2.34,2.34,0,0,0-.125.978Z" transform="translate(-408.282 -536.156)" fill="#313393"/>
    <path id="Path_10748" data-name="Path 10748" d="M393.331,621.674a3.625,3.625,0,0,1,.547-2.015,1.424,1.424,0,0,1,2.554.237,3.414,3.414,0,0,1-.319,3.223,1.377,1.377,0,0,1-1.445.657,1.433,1.433,0,0,1-1.173-1A2.7,2.7,0,0,1,393.331,621.674Zm2.383-.445c0-.259.009-.385,0-.509-.028-.362-.085-.74-.52-.809-.482-.077-.633.3-.75.667a3.817,3.817,0,0,0-.134,1.719.609.609,0,0,0,.493.57.6.6,0,0,0,.67-.438A3.26,3.26,0,0,0,395.714,621.229Z" transform="translate(-357.79 -534.971)" fill="#313393"/>
    <path id="Path_10749" data-name="Path 10749" d="M293.479,596.005a4.116,4.116,0,0,1-.855,2.151,1.5,1.5,0,0,1-1.762.586,1.448,1.448,0,0,1-.989-1.568,3.974,3.974,0,0,1,.827-2.312,1.485,1.485,0,0,1,1.787-.653A1.645,1.645,0,0,1,293.479,596.005Zm-.894-.254a.666.666,0,0,0-.371-.66.579.579,0,0,0-.7.241,3.42,3.42,0,0,0-.713,1.95.56.56,0,0,0,.355.6.572.572,0,0,0,.7-.24A3.793,3.793,0,0,0,292.585,595.752Z" transform="translate(-269.081 -513.655)" fill="#303292"/>
    <path id="Path_10750" data-name="Path 10750" d="M199.753,533.12a1.425,1.425,0,0,1,1.347,1.874,3.462,3.462,0,0,1-2.326,2.329,1.351,1.351,0,0,1-1.47-.428,1.384,1.384,0,0,1-.312-1.445A3.58,3.58,0,0,1,199.753,533.12Zm.52,1.488a.549.549,0,0,0-.774-.523,3.073,3.073,0,0,0-1.621,1.632.537.537,0,0,0,.486.747C198.945,536.491,200.269,535.2,200.274,534.608Z" transform="translate(-189.368 -461.356)" fill="#2f3292"/>
    <path id="Path_10751" data-name="Path 10751" d="M586.131,461.62c-.142.061-.306.178-.427-.023-.143-.234.164-.295.2-.463a15.848,15.848,0,0,1-.448-4.005c-.016-1.521.014-3.04-.016-4.561-.009-.45.128-.57.559-.546.79.033,1.582.02,2.373,0,.3,0,.446.04.445.4q-.019,6.247-.007,12.493c0,.208.041.419-.293.416-.958-.013-1.916,0-2.873,0a.235.235,0,0,1-.259-.211c.874,0,1.747-.014,2.621,0,.369.009.516-.1.515-.493q-.017-5.9,0-11.8c0-.428-.153-.606-.586-.59-.6.021-1.207.017-1.81,0-.333-.009-.493.084-.488.453.037,2.775-.154,5.559.478,8.3A3.345,3.345,0,0,1,586.131,461.62Z" transform="translate(-522.47 -391.814)" fill="#2a2c8f"/>
    <path id="Path_10752" data-name="Path 10752" d="M148.751,431.294c.088.351-.078.483-.4.556-1.274.285-2.543.606-3.818.891-.143.031-.465.258-.452-.143.009-.259-.234-.66.269-.758.308-.061.563-.087.562-.553,0-.49-.254-.51-.6-.58-.486-.1-.235-.512-.241-.771-.007-.349.278-.142.415-.108,1.259.265,2.51.57,3.771.812C148.672,430.72,148.856,430.885,148.751,431.294Zm-1.4-.007-.009-.1c-.476-.06-.954-.117-1.425-.184-.217-.03-.3.054-.285.269.009.167.047.285.248.251Z" transform="translate(-144.01 -372.707)" fill="#313393"/>
    <path id="Path_10753" data-name="Path 10753" d="M235.65,572.787c1.119-1.072,2.215-2.111,3.3-3.163.264-.257.408-.009.577.1s.482.184.339.547c-.5,1.3-.989,2.6-1.485,3.9-.056.142-.117.385-.321.191s-.743-.178-.485-.624c.285-.5.031-.687-.345-.892-.142-.08-.269-.134-.371.026C236.435,573.541,236.088,573.048,235.65,572.787Zm3.084-1.937-.184.205c-.261.285-.512.587-.784.867-.165.169-.18.276.031.427s.311.069.393-.142c.143-.361.3-.713.453-1.072.1-.081.153-.175.077-.3l.09-.013c-.011,0-.024-.013-.031-.01A.39.39,0,0,0,238.734,570.85Z" transform="translate(-222.588 -492.561)" fill="#2f3192"/>
    <path id="Path_10754" data-name="Path 10754" d="M344.237,615.7c-.53-.065-1.011-.06-.9-.8.054-.359-.351-.252-.56-.332-.241-.093-.375,0-.462.248-.066.187-.061.452-.428.406-.639-.08-.69-.143-.406-.738q.817-1.71,1.625-3.431c.107-.225.212-.428.5-.275.225.117.631-.049.63.428C344.233,612.7,344.237,614.187,344.237,615.7Zm-.9-3.053-.111-.01c-.113.285-.228.57-.336.855-.041.11-.127.244.013.326a.6.6,0,0,0,.352.078c.168-.02.121-.187.12-.3C343.37,613.282,343.35,612.964,343.336,612.648Z" transform="translate(-313.193 -527.902)" fill="#2f3192"/>
    <path id="Path_10755" data-name="Path 10755" d="M421.467,621.757l-.027.014c-.03.191-.1.4.184.463l.543,1.559.143-.01c0-.75.017-1.5-.007-2.246-.013-.389.167-.428.49-.428s.419.107.4.436c-.068,1.283-.1,2.566-.16,3.86-.007.167.07.435-.222.416-.259-.019-.616.143-.748-.25-.188-.57-.363-1.14-.544-1.71.212-.285.142-.472-.2-.552l.016-.047a.7.7,0,0,0,.044-.478.2.2,0,0,0-.228-.155c-.111,0-.231.048-.221.16.044.487-.2.973,0,1.459l-.04,1.236c-.378.047-.488-.118-.5-.494-.036-1,.11-1.98.131-2.969.018-.834,0-.835.811-.663v.033l-.03.009A.285.285,0,0,0,421.467,621.757Z" transform="translate(-380.989 -536.804)" fill="#303292"/>
    <path id="Path_10756" data-name="Path 10756" d="M313.82,606.027a3.226,3.226,0,0,1,.972-2.169,1.79,1.79,0,0,1,1.8-.385c.4.108.533.3.365.723-.1.251-.125.406-.443.218a.839.839,0,0,0-1.115.25,2,2,0,0,0-.512,1.73.894.894,0,0,0,.7.791c.264.061.522.037.365.475-.133.372-.234.57-.684.445A2.029,2.029,0,0,1,313.82,606.027Z" transform="translate(-289.616 -521.604)" fill="#313393"/>
    <path id="Path_10757" data-name="Path 10757" d="M273.21,586.97c.241.105.285-.153.42-.238a1.293,1.293,0,0,1,1.683.248c.285.331-.011.563-.131.771-.142.251-.251-.063-.363-.143-.2-.13-.392-.258-.621-.086a.543.543,0,0,0-.174.671c.12.331.285.648.383.985A1.412,1.412,0,0,1,273.154,591c-1.018,0-1.368-.586-.867-1.474.3.2.488.755.956.449.493-.322.167-.763-.023-1.1a2.558,2.558,0,0,1,0-1.923Z" transform="translate(-253.809 -507.15)" fill="#2f3292"/>
    <path id="Path_10758" data-name="Path 10758" d="M259.393,580.643a.815.815,0,0,1-.16-.1c-.227-.225-.413-.614-.81-.373s-.262.658-.123,1.008a1.693,1.693,0,0,1-.177,1.924,1.348,1.348,0,0,1-2.107-.142c-.274-.418.21-.607.249-.931.067.009.115,0,.133.02.235.274.428.713.881.47s.221-.657.1-1a1.758,1.758,0,0,1,.285-1.974,1.213,1.213,0,0,1,1.9.15c.318.416-.249.613-.178.952Z" transform="translate(-239.981 -500.833)" fill="#303292"/>
    <path id="Path_10759" data-name="Path 10759" d="M478.35,623.3c.087.276-.027.428-.428.462s-.48-.117-.51-.47c-.11-1.262-.241-2.521-.383-3.78-.033-.285.02-.428.333-.436a10.48,10.48,0,0,0,1.115-.11c.338-.05.57-.083.612.4.038.462-.205.458-.5.482s-.626-.051-.553.483c.06.427.194.6.614.466s.468.106.525.439c.063.378-.124.439-.409.428-.524-.031-.624.231-.524.686C478.3,622.63,478.3,622.923,478.35,623.3Z" transform="translate(-429.556 -534.945)" fill="#313393"/>
    <path id="Path_10760" data-name="Path 10760" d="M365.459,618.063q.24-1.475.482-2.95c.048-.3.124-.57-.339-.6-.386-.017-.228-.3-.2-.51s.02-.428.356-.354c.57.113,1.14.2,1.72.276.276.036.372.142.268.4-.078.2.068.59-.365.479-.456-.12-.459.187-.5.469-.157.963-.321,1.926-.462,2.891-.048.331-.231.346-.479.274C365.724,618.384,365.4,618.467,365.459,618.063Z" transform="translate(-333.798 -530.397)" fill="#313393"/>
    <path id="Path_10761" data-name="Path 10761" d="M633.938,452.226a.285.285,0,0,1-.321.143,26.489,26.489,0,0,0-3.729-.115c-.358-.02-.468.131-.466.476q.01,5.962,0,11.924c0,.4.167.486.524.485a33.718,33.718,0,0,0,5.212-.245c.177-.029.379-.063.52.115a8.755,8.755,0,0,1-2.52.306c-1.187.03-2.375.011-3.563.037-.328,0-.428-.091-.428-.428q.017-6.25,0-12.5c0-.185-.04-.4.255-.391a43.758,43.758,0,0,1,4.43.1C633.893,452.141,633.914,452.2,633.938,452.226Z" transform="translate(-560.016 -391.822)" fill="#313393"/>
    <path id="Path_10762" data-name="Path 10762" d="M380.718,621.084c.228-1.376.455-2.685.654-4,.048-.323.2-.389.459-.292.212.078.591-.057.509.428q-.342,2-.646,4c-.064.428-.332.271-.556.237S380.591,621.432,380.718,621.084Z" transform="translate(-346.954 -533.067)" fill="#313393"/>
    <path id="Path_10763" data-name="Path 10763" d="M333.934,607.426c-.043.127-.071.2-.094.285-.366,1.251-.741,2.5-1.089,3.759-.094.338-.245.383-.529.244-.211-.1-.57-.033-.428-.487.389-1.266.75-2.541,1.12-3.814.053-.181.088-.4.355-.285C333.49,607.211,333.8,607.16,333.934,607.426Z" transform="translate(-305 -524.787)" fill="#313393"/>
    <path id="Path_10764" data-name="Path 10764" d="M550.873,476.888c-.409-.271-.244-.72-.329-1.089-.024-.105.12-.142.229-.142a.209.209,0,0,1,.221.175,2.158,2.158,0,0,0,.668,1.219c.142.115.061.264.011.4s-.03.324.121.372c.842.272.479.909.456,1.445a9.875,9.875,0,0,1-1.033-2.171C551.135,476.846,551.124,476.846,550.873,476.888Z" transform="translate(-492.597 -412.083)" fill="#2f3292"/>
    <path id="Path_10765" data-name="Path 10765" d="M700.337,488.192a.974.974,0,0,1,.058-.361,7.678,7.678,0,0,0,.744-5.638c-.031-.187-.118-.361.061-.513C701.824,483.97,701.837,486.181,700.337,488.192Z" transform="translate(-621.042 -417.248)" fill="#313393"/>
    <path id="Path_10766" data-name="Path 10766" d="M419.854,620.868c-.805-.172-.792-.171-.811.663-.021.989-.167,1.974-.131,2.969.013.376.123.542.5.494.047.453-.285.21-.46.241-.192.036-.3-.048-.3-.275q.083-2.072.153-4.148c0-.17.064-.316.242-.265C419.327,620.627,419.762,620.337,419.854,620.868Z" transform="translate(-379.51 -536.313)" fill="#2a2c8f"/>
    <path id="Path_10767" data-name="Path 10767" d="M816.05,529c.3.02.335.218.382.469.308,1.658.315,1.671,2.016,1.649a4.015,4.015,0,0,0,1.725-.118c.143.207.143.342-.16.341-1.012,0-2.024-.011-3.034,0-.3,0-.331-.185-.386-.383Q816.318,529.986,816.05,529Z" transform="translate(-720.263 -457.823)" fill="#313393"/>
    <path id="Path_10768" data-name="Path 10768" d="M793.324,452.824c-.427-.825-1.2-.616-1.9-.626-.331,0-.663.023-1,0-.57-.05-1.075-.009-1.192.713-.019.11-.127.155-.235.172.285-1.092.285-1.092,1.391-1.092.619,0,1.243.047,1.853-.013C792.932,451.9,793.319,452.1,793.324,452.824Z" transform="translate(-697.068 -391.766)" fill="#313393"/>
    <path id="Path_10769" data-name="Path 10769" d="M762.357,535.663c.905,0,1.813-.033,2.708.016.533.03.713-.187.811-.667.048-.247-.026-.6.335-.721-.264,1.588-.264,1.588-1.836,1.588h-1.749C762.505,535.874,762.26,535.976,762.357,535.663Z" transform="translate(-674.203 -462.359)" fill="#313393"/>
    <path id="Path_10770" data-name="Path 10770" d="M423.761,633.385c-.2-.486.041-.972,0-1.46-.01-.111.11-.158.221-.16a.2.2,0,0,1,.228.155.7.7,0,0,1-.044.478c-.091-.088-.194-.365-.262.011C423.843,632.732,424.012,633.089,423.761,633.385Z" transform="translate(-383.819 -545.94)" fill="#2a2c8f"/>
    <path id="Path_10771" data-name="Path 10771" d="M695.12,528.11a.7.7,0,0,1,.748-.78A2.3,2.3,0,0,1,695.12,528.11Z" transform="translate(-616.569 -456.391)" fill="#313393"/>
    <path id="Path_10772" data-name="Path 10772" d="M427,636.55c.349.08.416.264.2.552C427.13,636.918,427.061,636.734,427,636.55Z" transform="translate(-386.664 -550.044)" fill="#2a2c8f"/>
    <path id="Path_10773" data-name="Path 10773" d="M666.438,453.222c-.127.162-.252.16-.378,0A.315.315,0,0,1,666.438,453.222Z" transform="translate(-591.651 -392.791)" fill="#313393"/>
    <path id="Path_10774" data-name="Path 10774" d="M427.791,626.213c-.285-.064-.214-.272-.184-.463A.761.761,0,0,1,427.791,626.213Z" transform="translate(-387.159 -540.783)" fill="#2a2c8f"/>
    <path id="Path_10775" data-name="Path 10775" d="M208.29,528.026c.021-.088,0-.231.143-.209s.084.154.088.247Z" transform="translate(-199.127 -456.807)" fill="#2e3191"/>
    <path id="Path_10776" data-name="Path 10776" d="M426.937,623.506a.285.285,0,0,1-.161-.356C426.9,623.233,426.91,623.374,426.937,623.506Z" transform="translate(-386.459 -538.554)" fill="#2a2c8f"/>
    <path id="Path_10777" data-name="Path 10777" d="M672.7,552.937c.05-.014.134-.051.143-.04.046.071-.019.09-.071.11Z" transform="translate(-597.345 -478.312)" fill="#2e3192"/>
    <path id="Path_10778" data-name="Path 10778" d="M471.845,438.716a.4.4,0,0,1-.066.056l-.04-.024.071-.057Z" transform="translate(-425.027 -380.385)" fill="#01974a"/>
    <path id="Path_10779" data-name="Path 10779" d="M387.911,280.86c.143.182.01.222-.134.254C387.666,280.945,387.768,280.893,387.911,280.86Z" transform="translate(-352.991 -245.051)" fill="#fefefe"/>
    <path id="Path_10780" data-name="Path 10780" d="M387.182,282.569c.009.1-.067.143-.143.192C387.008,282.639,387.022,282.553,387.182,282.569Z" transform="translate(-352.387 -246.514)" fill="#fefefe"/>
    <path id="Path_10781" data-name="Path 10781" d="M384.147,306.334c-.506,0-.871.067-.966.726-.068.475-.57.39-.956.293a3.55,3.55,0,0,0-.2-1.157c-.694-2.467-1.783-4.832-1.916-7.443-.007-.142-.115-.142-.222-.142l-.285-.011c-.332,0-.249.285-.276.455a17.759,17.759,0,0,1-1.126,4.054c-.073-.027-.167-.078-.205.024a.255.255,0,0,0,.1.274.076.076,0,0,1-.074.07c-.2-.21-.143-.428-.1-.69.056-.341.366-.69.047-1.05a17.038,17.038,0,0,1,.969-2.814c.029-.142.285-.292.081-.4-.131-.073-.177.17-.224.3l-.687,1.287c-.369.08-.378.358-.361.65h0c-.4.037-.386.334-.392.62h0c-.275,0-.265.19-.254.382h0c-.274,0-.266.188-.255.379h0c-.275,0-.265.191-.252.382h0c-.174,0-.366.1-.5-.1l.125-.285a.852.852,0,0,0,.469-.9h0c.411-.056.389-.362.381-.66.205-.55.73-.917.928-1.528-.345.061-.442.321-.61.49A19.941,19.941,0,0,1,374.6,302a.267.267,0,0,1-.265-.143c0-.209.165-.322.285-.466a19.81,19.81,0,0,1,3.264-3.107l.15-.093c.088-.066.285-.123.208-.231-.13-.178-.215.047-.318.11l-.143.087-1.555.958c-.215-.2-.227-.024-.247.135a.9.9,0,0,1-.492.265c-.227-.242-.234-.046-.252.127a1,1,0,0,1-.5.242.776.776,0,0,0-1,.5l-.247.128a.477.477,0,0,0-.294-.292,21.342,21.342,0,0,1,4.795-2.708,24.9,24.9,0,0,1-3.888.966c-.177-.2-.413-.091-.624-.121h0c.251-.272.627-.258.925-.415.194-.1.53.029.579-.328.915-.331,1.913-.278,2.836-.6a23.628,23.628,0,0,1-4.343-.07c-.269-.346-.57-.265-.879-.063a1.275,1.275,0,0,1-.617-.024c0-.09,0-.181-.007-.271.354-.276.753-.068,1.129-.1a13.562,13.562,0,0,1,2.691-.038,13.91,13.91,0,0,0,2.047.108.3.3,0,0,0-.191-.165,36.451,36.451,0,0,1-6.041-1.719,12.315,12.315,0,0,0-2.379-.688c-.054-.292-.227-.623.239-.75-.118.3-.143.54.285.616.346.06.678.2,1.022.278a37.158,37.158,0,0,1,6.774,1.826l.248.115c.063.036.134.084.184,0,.01-.019-.053-.077-.083-.117l-.247-.134a21.332,21.332,0,0,1-3.72-2.221c.017-.077.036-.154.053-.231.315-.118.543.352.874.128.855.361,1.6.941,2.442,1.37-.75-.828-1.522-1.615-2.192-2.491-.023-.272.088-.411.372-.381a16.191,16.191,0,0,1,2.925,3.206,1.128,1.128,0,0,0,.161.113c.086-.091.05-.167-.05-.225a21.058,21.058,0,0,1-1.662-2.842c.2-.438-.339-.713-.245-1.127.222.051.232.413.527.356h0c-.026.2-.04.386.244.391h0c-.013.184-.027.369.234.389.589.855.832,1.877,1.4,2.745a.571.571,0,0,0-.031-.365c-.855-2.022-1.045-4.213-1.6-6.311-.03-.111-.077-.278.083-.314s.131.151.192.234c.155.21.13.46.215.684a17.31,17.31,0,0,1,1.38,4.989c.023.331.1.658.152.988l.188-.019a27.374,27.374,0,0,1,.074-5.986l.245-.024c.123.044.118.154.128.255a18.1,18.1,0,0,1,0,4.587c-.064.389-.091.785-.143,1.177l.162.031a19.928,19.928,0,0,1,1.079-4.082c.153.057.3-.225.456,0a.217.217,0,0,1-.03.081l-.063.482a3.333,3.333,0,0,1-.329,1.568c-.249.686-.526,1.361-.791,2.041l.163.083a25.587,25.587,0,0,1,2.938-4.988.451.451,0,0,0,.265.276,23.221,23.221,0,0,1-2.376,4.3,40.014,40.014,0,0,1,3.492-3.19q-.059.382-.118.767a16.5,16.5,0,0,1-2.863,2.785l-.368.229-.2.167c-.067.027-.174.05-.106.143s.143.024.2-.031l.222-.168.371-.254,1.1-.654a.852.852,0,0,0,.991-.527.948.948,0,0,1,.5-.248c.285.269.677-.388.928.118a21.8,21.8,0,0,1-4.048,2.2,27.247,27.247,0,0,1,4.876-1.169c.266.16.021.325,0,.487l-.225.084a.619.619,0,0,0-.9.285,9.692,9.692,0,0,1-3.1.607c-.57.024-.452.369-.473.619-.027.321.322.234.5.262a17.2,17.2,0,0,1,3.82,1.076l-.12.214a2.446,2.446,0,0,1-1.073-.164c-.228-.087-.463-.178-.676.038a17.776,17.776,0,0,1-2.315-.845c-.1-.026-.209-.205-.294-.066s.1.161.2.2a27.253,27.253,0,0,1,4.447,2.69c-.3.342-.607-.227-.908.01a20.946,20.946,0,0,1-3.563-2.084,35.111,35.111,0,0,1,3.308,3.592h-.627a21.281,21.281,0,0,1-2.976-2.935,31.105,31.105,0,0,1,1.622,3.176c-.165.083-.142.24-.142.385l-.224.041a21.8,21.8,0,0,1-2.149-4.024,1.413,1.413,0,0,0,.1.584,21.87,21.87,0,0,1,.881,3.183c.3,1.518.616,3.032.941,4.544.033.15-.039.428.257.406.239-.021.381-.128.413-.428C383.135,306.12,383.572,305.958,384.147,306.334ZM381.14,295.02c.08-.074.237-.161.124-.264s-.163.083-.238.142l-.134.161a.171.171,0,0,0,.248-.04ZM378.5,298.5c.091-.043.192-.142.124-.207-.124-.111-.187.044-.251.13a.259.259,0,0,0-.081.086c-.142.142-.346.258-.309.536a.606.606,0,0,0,.4-.408Zm-.811-3.22c.054.04.094.142.178.068s0-.128-.047-.182c-.143-.135-.254-.314-.516-.332C377.3,295.125,377.514,295.18,377.685,295.278Zm2.9,1.475a.935.935,0,0,0-.917-.912.959.959,0,0,0-.9.872.907.907,0,1,0,1.813.04Zm.785,2.209c0-.4-.252-.547-.48-.713a1.082,1.082,0,0,0,.473.713Zm-3.267-3.307c.063-.044.153-.057.088-.142a.627.627,0,0,0-.182-.154c-.018-.01-.128.033-.066.115a2.319,2.319,0,0,0,.153.181Zm3.441,2.587c.073-.043.073-.076.019-.1a.2.2,0,0,0-.105-.021c-.017,0-.029.047-.041.073Z" transform="translate(-337.064 -251.172)" fill="#303292"/>
    <path id="Path_10782" data-name="Path 10782" d="M373.265,356.338c-1.458.322-2.916.641-4.371.971-.18.041-.447-.03-.473.285h-.151c.084-.207-.235-.419,0-.624.234.344.536.12.785.064,1.33-.3,2.6-.8,3.893-1.223.391-.128.792-.222,1.19-.331-.048.356-.385.225-.579.328-.3.157-.674.143-.925.415-.123.029-.268-.06-.383.073a.267.267,0,0,0,.385-.071C372.859,356.247,373.089,356.134,373.265,356.338Z" transform="translate(-336.229 -309.035)" fill="#313393"/>
    <path id="Path_10783" data-name="Path 10783" d="M405.883,286.92c-.761-1.5-1.526-2.993-2.281-4.5-.143-.276-.269-.455-.583-.231.061-.4.361-.393.661-.382-.074.475.242.81.458,1.162.653,1.072,1.345,2.121,2.024,3.178-.295.057-.305-.3-.527-.356a.259.259,0,0,0-.124-.251l-.053-.027.051.029a.259.259,0,0,0,.125.249C405.544,286.207,406.087,286.483,405.883,286.92Z" transform="translate(-366.102 -245.861)" fill="#2e3192"/>
    <path id="Path_10784" data-name="Path 10784" d="M480.063,361.28c-1.853-.646-3.811-.848-5.7-1.318a1.47,1.47,0,0,1-.272-.127c.212-.217.448-.125.676-.039a3,3,0,0,0,1.154.187c.046.009.011-.007-.024-.018-.067-.021-.078,0-.026.044a.261.261,0,0,0,.1.043s.02-.029-.05-.067a.246.246,0,0,1,.038-.238l4.133,1.343Z" transform="translate(-427.043 -312.654)" fill="#2a2c8f"/>
    <path id="Path_10785" data-name="Path 10785" d="M417.9,389.564c.428.285.616.143.76-.338.44-1.454.651-2.953.976-4.43.036-.161.09-.318.134-.476.319.361.009.713-.047,1.05-.041.259-.1.48.1.69a34.7,34.7,0,0,1-1.14,3.747C418.342,389.976,418.043,390.024,417.9,389.564Z" transform="translate(-378.861 -333.764)" fill="#313393"/>
    <path id="Path_10786" data-name="Path 10786" d="M477.45,311.691c.349-.174.643-.482,1.079-.45.008.051.014.1.026.151h.054l-.058-.131c.039-.029.077-.058.115-.086.014.03.029.06.044.088l-.033-.11a19.258,19.258,0,0,1,2.471-1.371,2.223,2.223,0,0,1,.5-.252c.356-.108.311-.308.161-.55.391.054.395.342.386.637a2.265,2.265,0,0,0-1.216.529c-.886.53-1.742,1.107-2.6,1.668C478.127,311.307,477.729,311.965,477.45,311.691Z" transform="translate(-429.924 -269.163)" fill="#2a2c8f"/>
    <path id="Path_10787" data-name="Path 10787" d="M453.1,282.417q.681-2.1,1.366-4.207l.184.021c-.409,1.313-.647,2.664-.942,4-.016.07-.1.124-.151.185C453.4,282.192,453.253,282.475,453.1,282.417Z" transform="translate(-409.044 -242.778)" fill="#2a2c8f"/>
    <path id="Path_10788" data-name="Path 10788" d="M405.618,389.041q-1.018,1.6-2.031,3.2c-.105.165-.309.3-.231.544-.17,0-.352.021-.376-.224a2.769,2.769,0,0,0,.855-1.166c.452-.805.855-1.633,1.283-2.452C405.252,389.138,405.444,389.041,405.618,389.041Z" transform="translate(-366.068 -337.726)" fill="#2e3191"/>
    <path id="Path_10789" data-name="Path 10789" d="M390.805,385.294a23.776,23.776,0,0,1-2.193,2.075c-.448.436-.445.488.178.713-.355.24-.6.07-.75-.517a12.941,12.941,0,0,0,2-1.954c.151-.165.254-.388.5-.45A.267.267,0,0,0,390.805,385.294Z" transform="translate(-353.257 -334.485)" fill="#181b86"/>
    <path id="Path_10790" data-name="Path 10790" d="M485.664,376.294a41.725,41.725,0,0,0-3.734-2.042c.3-.237.61.332.908-.01l2.838,1.853Z" transform="translate(-433.765 -325.08)" fill="#2a2c8f"/>
    <path id="Path_10791" data-name="Path 10791" d="M471.913,282.419c-.352-.285-.577-.208-.787.2-.415.814-.878,1.6-1.321,2.4a.451.451,0,0,1-.265-.277c.495-.78.974-1.568,1.494-2.333.208-.3.134-.469-.131-.633A1.1,1.1,0,0,1,471.913,282.419Z" transform="translate(-423.141 -245.839)" fill="#2a2c8f"/>
    <path id="Path_10792" data-name="Path 10792" d="M375.822,375.315c.278.182.473-.054.664-.164.815-.47,1.615-.972,2.423-1.461a.478.478,0,0,1,.294.292c-.918.48-1.837.958-2.749,1.448-.155.083-.459.076-.335.4C375.739,375.817,375.825,375.542,375.822,375.315Z" transform="translate(-342.775 -324.649)" fill="#2a2c8f"/>
    <path id="Path_10793" data-name="Path 10793" d="M489.77,332.57,492.4,332v.205l-2.624.855C489.791,332.9,490.036,332.734,489.77,332.57Z" transform="translate(-440.488 -288.901)" fill="#2a2c8f"/>
    <path id="Path_10794" data-name="Path 10794" d="M372.417,348.325a17.184,17.184,0,0,1-2.747-.143l.009-.153,2.731.019C372.412,348.144,372.415,348.235,372.417,348.325Z" transform="translate(-337.506 -302.647)" fill="#181b86"/>
    <path id="Path_10795" data-name="Path 10795" d="M492.41,399.472c.2-.155.207.1.311.143.142.07.181.373.413.242.168-.1.342-.237.248-.489.272-.009.349.143.2.338-.191.251-.381.543-.767.523C492.9,399.858,492.4,399.8,492.41,399.472Z" transform="translate(-442.751 -346.667)" fill="#2a2c8f"/>
    <path id="Path_10796" data-name="Path 10796" d="M405.61,414.359c.238.1.428.2.693-.048.428-.4.847-.2,1.062.428-.379-.336-.746-.49-1.217-.1C405.919,414.819,405.68,414.669,405.61,414.359Z" transform="translate(-368.323 -359.303)" fill="#2e3191"/>
    <path id="Path_10797" data-name="Path 10797" d="M443.019,280.853a7.385,7.385,0,0,1-.024,1.86l-.245.024q.047-.942.093-1.887Z" transform="translate(-400.169 -245.042)" fill="#181b86"/>
    <path id="Path_10798" data-name="Path 10798" d="M498.016,392.807a.546.546,0,0,1-.087-.778.64.64,0,0,1,.811-.269,1.028,1.028,0,0,0,.3.02c-.021.1-.037.241-.165.2C498.075,391.736,498.042,392.263,498.016,392.807Z" transform="translate(-447.377 -340.098)" fill="#2a2c8f"/>
    <path id="Path_10799" data-name="Path 10799" d="M375.167,306.37c-.077.228-.416.449-.02.691l-.017.174c-.452-.278-.542.027-.6.375-.1-.013-.276-.054-.224-.143C374.556,307.081,374.664,306.567,375.167,306.37Z" transform="translate(-341.469 -266.925)" fill="#303292"/>
    <path id="Path_10800" data-name="Path 10800" d="M441.614,408.038l-.064-1.686c.2-.13.245,0,.257.161a6.525,6.525,0,0,1-.013,1.528Z" transform="translate(-399.14 -352.61)" fill="#181b86"/>
    <path id="Path_10801" data-name="Path 10801" d="M500.243,301.863a.6.6,0,0,1-.9-.178.568.568,0,0,1,.127-.855C499.349,301.458,499.687,301.742,500.243,301.863Z" transform="translate(-448.579 -262.174)" fill="#2a2c8f"/>
    <path id="Path_10802" data-name="Path 10802" d="M398.347,285.25c.194.835.076,1.046-.637,1.13.3-.254.653-.47.428-.969C398.085,285.289,398.246,285.267,398.347,285.25Z" transform="translate(-361.549 -248.815)" fill="#2e3192"/>
    <path id="Path_10803" data-name="Path 10803" d="M485.732,287.218c-.438-.285-.1-.666-.143-1,.184,0,.249.06.205.265A5.949,5.949,0,0,0,485.732,287.218Z" transform="translate(-436.831 -249.647)" fill="#2a2c8f"/>
    <path id="Path_10804" data-name="Path 10804" d="M372.138,322.3c-.2.319-.57.06-.808.248C371.445,321.95,371.853,322.335,372.138,322.3Z" transform="translate(-338.929 -280.507)" fill="#303292"/>
    <path id="Path_10805" data-name="Path 10805" d="M376.69,315.87a.567.567,0,0,1,.105.935Z" transform="translate(-343.525 -275.071)" fill="#303292"/>
    <path id="Path_10806" data-name="Path 10806" d="M478.457,412.871c.074-.238-.205-.4-.142-.633.211-.088.215.113.254.208a.24.24,0,0,0,.371.151C478.923,412.945,478.652,412.842,478.457,412.871Z" transform="translate(-430.657 -357.684)" fill="#2a2c8f"/>
    <path id="Path_10807" data-name="Path 10807" d="M370.65,372.44c.248.125.586-.073.79.218C371.136,372.734,370.778,373,370.65,372.44Z" transform="translate(-338.346 -323.578)" fill="#2a2c8f"/>
    <path id="Path_10808" data-name="Path 10808" d="M485.18,405.643a.549.549,0,0,1,.916-.01Z" transform="translate(-436.552 -351.832)" fill="#2a2c8f"/>
    <path id="Path_10809" data-name="Path 10809" d="M395.92,404.273a.527.527,0,0,1,.657.381A1.045,1.045,0,0,1,395.92,404.273Z" transform="translate(-360.014 -350.855)" fill="#181b86"/>
    <path id="Path_10810" data-name="Path 10810" d="M474.995,416.918c.234.2.409-.06.616-.078a.348.348,0,0,1-.329.355C475.08,417.213,474.983,417.119,474.995,416.918Z" transform="translate(-427.817 -361.649)" fill="#303292"/>
    <path id="Path_10811" data-name="Path 10811" d="M376.2,374.3a.562.562,0,0,1,.034.834C376.3,374.853,376.054,374.585,376.2,374.3Z" transform="translate(-343.066 -325.172)" fill="#2a2c8f"/>
    <path id="Path_10812" data-name="Path 10812" d="M389.325,293.643c-.142-.009-.209-.2-.375-.124a.345.345,0,0,1,.388-.376C389.165,293.3,389.511,293.48,389.325,293.643Z" transform="translate(-354.036 -255.58)" fill="#2a2c8f"/>
    <path id="Path_10813" data-name="Path 10813" d="M373.712,381.72l.128.489c-.232,0-.316-.154-.341-.341C373.481,381.733,373.615,381.736,373.712,381.72Z" transform="translate(-340.788 -331.535)" fill="#2a2c8f"/>
    <path id="Path_10814" data-name="Path 10814" d="M393.685,290.339c-.12-.034-.221-.154-.365-.086.018-.108-.021-.276.143-.266C393.666,290,393.686,290.174,393.685,290.339Z" transform="translate(-357.785 -252.877)" fill="#2e3192"/>
    <path id="Path_10815" data-name="Path 10815" d="M496.52,295.251c-.143-.127.1-.252,0-.378a.346.346,0,0,1,.372.385C496.771,295.161,496.644,295.268,496.52,295.251Z" transform="translate(-446.236 -257.065)" fill="#2a2c8f"/>
    <path id="Path_10816" data-name="Path 10816" d="M408.615,279.588l-.375.127c.011-.143.053-.278.21-.311C408.582,279.375,408.595,279.494,408.615,279.588Z" transform="translate(-370.578 -243.798)" fill="#2e3192"/>
    <path id="Path_10817" data-name="Path 10817" d="M487.458,293.366a.448.448,0,0,1-.388-.214C487.242,293.142,487.428,293.114,487.458,293.366Z" transform="translate(-438.173 -255.585)" fill="#2a2c8f"/>
    <path id="Path_10818" data-name="Path 10818" d="M510.87,313.73l-.16-.363c.269-.013.271.175.269.363Z" transform="translate(-458.443 -272.923)" fill="#2a2c8f"/>
    <path id="Path_10819" data-name="Path 10819" d="M491.58,407.07l.247.008c-.033.066-.059.18-.1.187C491.587,407.288,491.6,407.163,491.58,407.07Z" transform="translate(-442.04 -353.272)" fill="#2a2c8f"/>
    <path id="Path_10820" data-name="Path 10820" d="M500.949,299.568l-.009-.218c.1.01.231-.017.214.143C501.151,299.521,501.02,299.541,500.949,299.568Z" transform="translate(-450.066 -260.905)" fill="#2a2c8f"/>
    <path id="Path_10821" data-name="Path 10821" d="M368.789,370.26h.151l.091.249a.222.222,0,0,1-.242-.25Z" transform="translate(-336.749 -321.708)" fill="#2a2c8f"/>
    <path id="Path_10822" data-name="Path 10822" d="M400.129,408.91a.249.249,0,0,1-.086.272C400.029,409.077,399.875,408.923,400.129,408.91Z" transform="translate(-363.499 -354.849)" fill="#181b86"/>
    <path id="Path_10823" data-name="Path 10823" d="M400.34,412.4l.3.232C400.463,412.651,400.354,412.587,400.34,412.4Z" transform="translate(-363.804 -357.842)" fill="#2e3191"/>
    <path id="Path_10824" data-name="Path 10824" d="M399.322,411.53l.016.125-.158-.056Z" transform="translate(-362.809 -357.096)" fill="#181b86"/>
    <path id="Path_10825" data-name="Path 10825" d="M484.18,413.348a.313.313,0,0,1,.06-.108l.131.068Z" transform="translate(-435.694 -358.562)" fill="#2a2c8f"/>
    <path id="Path_10826" data-name="Path 10826" d="M512.6,315.92l.053.029Z" transform="translate(-460.064 -275.113)" fill="#2a2c8f"/>
    <path id="Path_10827" data-name="Path 10827" d="M653.01,469.46l-.021,8.25c-.217-.143-.143-.375-.143-.57q-.008-3.563,0-7.127C652.845,469.822,652.758,469.584,653.01,469.46Z" transform="translate(-580.307 -406.769)" fill="#181b86"/>
    <path id="Path_10828" data-name="Path 10828" d="M170.18,478.132a.224.224,0,0,1,.272.026l-.174.124Z" transform="translate(-166.449 -414.175)" fill="#fefefe"/>
    <path id="Path_10829" data-name="Path 10829" d="M176.29,496.286c.105-.031.228-.187.309-.04.056.1-.114.133-.2.18Z" transform="translate(-171.688 -429.684)" fill="#fefefe"/>
    <path id="Path_10830" data-name="Path 10830" d="M206.362,524.1c-.076.033-.125.071-.174.07-.091,0-.143-.064-.1-.15a.173.173,0,0,1,.15-.043C206.283,523.99,206.311,524.05,206.362,524.1Z" transform="translate(-197.228 -453.518)" fill="#2e3191"/>
    <path id="Path_10831" data-name="Path 10831" d="M199.324,534.119c-.08-.046-.2-.038-.214-.165,0-.02.047-.067.067-.064.127.016.118.143.157.22Z" transform="translate(-191.256 -462.015)" fill="#2e3191"/>
    <path id="Path_10832" data-name="Path 10832" d="M188.2,519.51l.044.044a.319.319,0,0,1-.084.038c-.01,0-.027-.024-.04-.038Z" transform="translate(-181.832 -449.686)" fill="#fefefe"/>
    <path id="Path_10833" data-name="Path 10833" d="M230.852,567.59l.084-.1c.026.039.131.029.076.117-.03.049-.068.093-.1.143C230.881,567.705,230.782,567.715,230.852,567.59Z" transform="translate(-218.452 -490.827)" fill="#fefefe"/>
    <path id="Path_10834" data-name="Path 10834" d="M226.629,561.473c-.051.087-.068.285-.208.18-.118-.087.026-.188.117-.252A.413.413,0,0,0,226.629,561.473Z" transform="translate(-214.636 -485.605)" fill="#fefefe"/>
    <path id="Path_10835" data-name="Path 10835" d="M227.51,560.963l.1-.073v.142A.4.4,0,0,1,227.51,560.963Z" transform="translate(-215.608 -485.168)" fill="#fefefe"/>
    <path id="Path_10836" data-name="Path 10836" d="M256,579.028l.178-.205-.009-.013a.211.211,0,0,1-.076.3Z" transform="translate(-240.037 -500.534)" fill="#f6f6fa"/>
    <path id="Path_10837" data-name="Path 10837" d="M257.238,578.694a.4.4,0,0,1,.051-.034.249.249,0,0,1,.031.01l-.091.013Z" transform="translate(-241.092 -500.405)" fill="#f6f6fa"/>
    <path id="Path_10838" data-name="Path 10838" d="M380.17,311.394l.017-.174c1.314.827,2.75,1.425,4.108,2.174-.331.224-.559-.247-.874-.128l-.029-.053-.024.024.053.029c-.017.077-.036.154-.053.231Z" transform="translate(-346.509 -271.083)" fill="#2a2c8f"/>
    <path id="Path_10839" data-name="Path 10839" d="M395.048,300.16a39.658,39.658,0,0,1-2.628-3.009c.041-.047.09-.085.143-.026.885.956,1.918,1.755,2.851,2.654C395.137,299.75,395.025,299.888,395.048,300.16Z" transform="translate(-357.013 -258.972)" fill="#2a2c8f"/>
    <path id="Path_10840" data-name="Path 10840" d="M465.771,392.845l-2.1-3.214.224-.041h0l.124.124c.027.121.051.245.207.1a.071.071,0,0,1,.029.094c-.064.143.014.133.11.107A8.634,8.634,0,0,1,465.771,392.845Z" transform="translate(-418.108 -338.283)" fill="#2a2c8f"/>
    <path id="Path_10841" data-name="Path 10841" d="M478.518,301.093a18.107,18.107,0,0,1,2.138-1.863c.1.063.06.13,0,.191L478.4,301.86Q478.46,301.478,478.518,301.093Z" transform="translate(-430.738 -260.802)" fill="#2a2c8f"/>
    <path id="Path_10842" data-name="Path 10842" d="M476.407,385.19c.458.5.921,1,1.368,1.5.084.1.3.182.13.378l-2.125-1.879Z" transform="translate(-428.492 -334.51)" fill="#2a2c8f"/>
    <path id="Path_10843" data-name="Path 10843" d="M440.7,364.524a11.208,11.208,0,0,1,.24-2.124l.285.011q-.009.673-.02,1.35c-.227-.08-.266.03-.271.234S441.035,364.465,440.7,364.524Z" transform="translate(-398.398 -314.969)" fill="#181b86"/>
    <path id="Path_10844" data-name="Path 10844" d="M402.318,371.093l-1,.5A.777.777,0,0,1,402.318,371.093Z" transform="translate(-364.645 -322.386)" fill="#2a2c8f"/>
    <path id="Path_10845" data-name="Path 10845" d="M467,330.3a3.315,3.315,0,0,1,.991-.527A.852.852,0,0,1,467,330.3Z" transform="translate(-420.963 -286.989)" fill="#2a2c8f"/>
    <path id="Path_10846" data-name="Path 10846" d="M418.86,381.606a2.574,2.574,0,0,1,.469-.9A.86.86,0,0,1,418.86,381.606Z" transform="translate(-379.684 -330.669)" fill="#2e3191"/>
    <path id="Path_10847" data-name="Path 10847" d="M482.809,339.478l-.9.285A.627.627,0,0,1,482.809,339.478Z" transform="translate(-433.748 -295.239)" fill="#2a2c8f"/>
    <path id="Path_10848" data-name="Path 10848" d="M394.149,349.283l-.879-.063C393.579,349.018,393.88,348.937,394.149,349.283Z" transform="translate(-357.742 -303.518)" fill="#181b86"/>
    <path id="Path_10849" data-name="Path 10849" d="M451.95,360.633a1.082,1.082,0,0,1-.48-.713C451.7,360.085,451.948,360.236,451.95,360.633Z" transform="translate(-407.647 -312.842)" fill="#f6f6fa"/>
    <path id="Path_10850" data-name="Path 10850" d="M465.4,386.89c.078.192.332.326.2.59l-.22-.081-.124-.124h0C465.253,387.129,465.231,386.973,465.4,386.89Z" transform="translate(-419.462 -335.968)" fill="#2a2c8f"/>
    <path id="Path_10851" data-name="Path 10851" d="M429.787,372.92a1.729,1.729,0,0,1-.361.65C429.4,373.278,429.412,373,429.787,372.92Z" transform="translate(-388.738 -323.989)" fill="#2e3191"/>
    <path id="Path_10852" data-name="Path 10852" d="M422.11,376.74a1.771,1.771,0,0,1,.381-.66C422.5,376.378,422.522,376.684,422.11,376.74Z" transform="translate(-382.471 -326.699)" fill="#2e3191"/>
    <path id="Path_10853" data-name="Path 10853" d="M427.112,377.44a1.445,1.445,0,0,1-.392.62C426.726,377.773,426.714,377.477,427.112,377.44Z" transform="translate(-386.424 -327.865)" fill="#2e3191"/>
    <path id="Path_10854" data-name="Path 10854" d="M431.436,361.848a.606.606,0,0,1-.4.408c-.037-.285.17-.389.309-.536Z" transform="translate(-390.119 -314.385)" fill="#f6f6fa"/>
    <path id="Path_10855" data-name="Path 10855" d="M426.685,336.386c-.164-.1-.379-.154-.385-.446.262.018.376.2.516.332Z" transform="translate(-386.064 -292.28)" fill="#f7f6fa"/>
    <path id="Path_10856" data-name="Path 10856" d="M425.2,381.75a.713.713,0,0,1-.254.382C424.932,381.94,424.922,381.751,425.2,381.75Z" transform="translate(-384.897 -331.561)" fill="#2e3191"/>
    <path id="Path_10857" data-name="Path 10857" d="M455.713,308.31c.143.182.168.349-.063.482Z" transform="translate(-411.231 -268.588)" fill="#2a2c8f"/>
    <path id="Path_10858" data-name="Path 10858" d="M424.974,312.24a.713.713,0,0,1,.244.391C424.934,312.633,424.948,312.437,424.974,312.24Z" transform="translate(-384.916 -271.958)" fill="#2e3192"/>
    <path id="Path_10859" data-name="Path 10859" d="M423.44,384.39l-.255.379C423.174,384.578,423.167,384.389,423.44,384.39Z" transform="translate(-383.39 -333.824)" fill="#2e3191"/>
    <path id="Path_10860" data-name="Path 10860" d="M426.7,314.94a.687.687,0,0,1,.234.389C426.668,315.309,426.683,315.124,426.7,314.94Z" transform="translate(-386.398 -274.273)" fill="#2e3192"/>
    <path id="Path_10861" data-name="Path 10861" d="M421.692,387l-.252.382C421.426,387.192,421.416,387,421.692,387Z" transform="translate(-381.892 -336.062)" fill="#2e3191"/>
    <path id="Path_10862" data-name="Path 10862" d="M456.352,337.34l-.371.254-.121-.114.349-.259Z" transform="translate(-411.411 -293.378)" fill="#f6f6fa"/>
    <path id="Path_10863" data-name="Path 10863" d="M436.82,361.968c.047-.128.093-.371.224-.3.2.111-.053.262-.081.4Z" transform="translate(-395.085 -314.331)" fill="#f7f6fa"/>
    <path id="Path_10864" data-name="Path 10864" d="M431.327,393.745l-.1.3a.255.255,0,0,1-.1-.274C431.16,393.66,431.254,393.711,431.327,393.745Z" transform="translate(-390.192 -341.81)" fill="#313393"/>
    <path id="Path_10865" data-name="Path 10865" d="M412.082,368.079l-.252.127C411.854,368.034,411.854,367.837,412.082,368.079Z" transform="translate(-373.657 -319.742)" fill="#2a2c8f"/>
    <path id="Path_10866" data-name="Path 10866" d="M417.3,365.435l-.247.135C417.07,365.4,417.081,365.229,417.3,365.435Z" transform="translate(-378.132 -317.491)" fill="#2a2c8f"/>
    <path id="Path_10867" data-name="Path 10867" d="M455.778,354.083c-.1-.041-.285-.043-.2-.2s.192.04.294.066Z" transform="translate(-411.152 -307.611)" fill="#f7f6fa"/>
    <path id="Path_10868" data-name="Path 10868" d="M430.844,339.971a2.315,2.315,0,0,1-.16-.174c-.063-.083.047-.125.066-.115a.626.626,0,0,1,.182.154C431,339.914,430.907,339.927,430.844,339.971Z" transform="translate(-389.807 -295.487)" fill="#f7f6fa"/>
    <path id="Path_10869" data-name="Path 10869" d="M430.72,357.5c.1-.063.188-.285.318-.11.08.108-.12.165-.208.231Z" transform="translate(-389.854 -310.619)" fill="#f6f6fa"/>
    <path id="Path_10870" data-name="Path 10870" d="M455.288,359.147l-.128-.047c.013-.026.024-.07.041-.073a.2.2,0,0,1,.105.021C455.361,359.071,455.361,359.1,455.288,359.147Z" transform="translate(-410.811 -312.076)" fill="#f7f6fa"/>
    <path id="Path_10871" data-name="Path 10871" d="M433.8,360.107c.064-.086.127-.241.251-.13.068.06-.033.164-.124.207Z" transform="translate(-392.495 -312.858)" fill="#f6f6fa"/>
    <path id="Path_10872" data-name="Path 10872" d="M452.44,335.342c.076-.064.107-.268.238-.143s-.044.19-.124.264Z" transform="translate(-408.478 -291.611)" fill="#f7f6fa"/>
    <path id="Path_10873" data-name="Path 10873" d="M451.748,336.557a.171.171,0,0,1-.248.044l.134-.161Z" transform="translate(-407.672 -292.709)" fill="#f7f6fa"/>
    <path id="Path_10874" data-name="Path 10874" d="M434.1,337.63c.1.058.143.134.05.225a1.119,1.119,0,0,1-.161-.113Z" transform="translate(-392.658 -293.729)" fill="#f6f6fa"/>
    <path id="Path_10875" data-name="Path 10875" d="M454.48,339.207l.2-.167.121.114-.222.165Z" transform="translate(-410.227 -294.938)" fill="#f6f6fa"/>
    <path id="Path_10876" data-name="Path 10876" d="M453.833,340.331c-.061.056-.143.11-.2.031s.038-.12.105-.143Z" transform="translate(-409.485 -295.95)" fill="#f6f6fa"/>
    <path id="Path_10877" data-name="Path 10877" d="M428.238,343.008l-.248-.115.1-.143.247.134Z" transform="translate(-387.513 -298.119)" fill="#f6f6fa"/>
    <path id="Path_10878" data-name="Path 10878" d="M429.081,338.27c.044.054.131.108.047.183s-.124-.029-.178-.068Z" transform="translate(-388.336 -294.278)" fill="#f7f6fa"/>
    <path id="Path_10879" data-name="Path 10879" d="M429.72,358.647l.143-.087.11.121-.15.093Z" transform="translate(-388.997 -311.676)" fill="#f6f6fa"/>
    <path id="Path_10880" data-name="Path 10880" d="M433.23,361.206a.258.258,0,0,1,.081-.086l.127.077-.115.143Z" transform="translate(-392.006 -313.871)" fill="#f6f6fa"/>
    <path id="Path_10881" data-name="Path 10881" d="M429.831,343.71c.03.04.093.1.083.117-.05.088-.121.04-.184,0Z" transform="translate(-389.005 -298.942)" fill="#f6f6fa"/>
    <path id="Path_10882" data-name="Path 10882" d="M462.075,348.11l-.355-.061V347.7l.868-.019c.21.184.4.252.506-.1h.5c.031.181.086.3.258.1h1.107c.046.12.143.143.259.153a.256.256,0,0,1-.3.241,8.336,8.336,0,0,1-2.2-.124C462.5,347.975,462.237,347.849,462.075,348.11Z" transform="translate(-416.436 -302.261)" fill="#2e3191"/>
    <path id="Path_10883" data-name="Path 10883" d="M468.749,348.4a8.333,8.333,0,0,0,2.2.124.257.257,0,0,0,.3-.241c0-.049,0-.1,0-.143.215,0,.452-.108.63.111v.388a11.219,11.219,0,0,1-3.128,0C468.747,348.557,468.749,348.478,468.749,348.4Z" transform="translate(-422.462 -302.717)" fill="#313393"/>
    <path id="Path_10884" data-name="Path 10884" d="M490.69,349.332v-.388a8.163,8.163,0,0,0,1.482-.007c.12-.013.328-.061.332.152,0,.167-.172.143-.285.143A6.231,6.231,0,0,1,490.69,349.332Z" transform="translate(-441.277 -303.413)" fill="#181b86"/>
    <path id="Path_10885" data-name="Path 10885" d="M464.866,350.106v.237c-.217-.01-.445.087-.646-.068C464.381,350.014,464.643,350.139,464.866,350.106Z" transform="translate(-418.579 -304.425)" fill="#181b86"/>
    <path id="Path_10886" data-name="Path 10886" d="M458.849,348.39v.354h-.371c-.036-.116-.073-.23-.108-.345Z" transform="translate(-413.563 -302.955)" fill="#181b86"/>
    <path id="Path_10887" data-name="Path 10887" d="M468.326,347.414c-.107.349-.3.285-.506.1C467.955,347.306,468.152,347.417,468.326,347.414Z" transform="translate(-421.666 -302.095)" fill="#181b86"/>
    <path id="Path_10888" data-name="Path 10888" d="M457.157,348.479c.036.115.073.229.108.345-.143,0-.285-.044-.306-.192C456.942,348.526,457.047,348.474,457.157,348.479Z" transform="translate(-412.352 -303.031)" fill="#303292"/>
    <path id="Path_10889" data-name="Path 10889" d="M475.158,347.572c-.172.2-.227.086-.258-.1C475.007,347.454,475.111,347.436,475.158,347.572Z" transform="translate(-427.737 -302.159)" fill="#181b86"/>
    <path id="Path_10890" data-name="Path 10890" d="M484.749,348.23v.143c-.11-.01-.214-.033-.259-.152Z" transform="translate(-435.96 -302.81)" fill="#181b86"/>
    <path id="Path_10891" data-name="Path 10891" d="M504.954,349.3l-.046.078c-.013-.013-.04-.03-.038-.04a.406.406,0,0,1,.04-.083Z" transform="translate(-453.435 -303.701)" fill="#181b86"/>
    <path id="Path_10892" data-name="Path 10892" d="M440.426,372.559c.339-.058.231-.331.235-.529s.044-.314.271-.234l-.01-.007.113.143.013.248a1.568,1.568,0,0,0,0,1.38c-.3.771.108,1.613-.235,2.38-.346-.2.11-.742-.379-.881-.021-.323-.041-.648-.063-.973a.511.511,0,0,0,0-.805Z" transform="translate(-398.129 -323.004)" fill="#2e3191"/>
    <path id="Path_10893" data-name="Path 10893" d="M440.641,394.86c.489.142.033.683.379.881-.107.135.181.52-.275.428A3.256,3.256,0,0,1,440.641,394.86Z" transform="translate(-398.339 -342.802)" fill="#181b86"/>
    <path id="Path_10894" data-name="Path 10894" d="M444.138,376.04a1.567,1.567,0,0,1,0-1.38,5.265,5.265,0,0,1,0,1.38Z" transform="translate(-401.222 -325.481)" fill="#181b86"/>
    <path id="Path_10895" data-name="Path 10895" d="M444.323,372.063l-.113-.142C444.285,371.939,444.342,371.973,444.323,372.063Z" transform="translate(-401.421 -323.132)" fill="#181b86"/>
    <path id="Path_10896" data-name="Path 10896" d="M466.12,390.46l.219.081-.014.02C466.171,390.705,466.147,390.581,466.12,390.46Z" transform="translate(-420.209 -339.029)" fill="#303292"/>
    <path id="Path_10897" data-name="Path 10897" d="M467.739,391.937c-.1.026-.174.033-.11-.107C467.662,391.866,467.7,391.9,467.739,391.937Z" transform="translate(-421.483 -340.204)" fill="#303292"/>
    <path id="Path_10898" data-name="Path 10898" d="M490.639,398.289l.142-.009-.008.143C490.667,398.435,490.627,398.383,490.639,398.289Z" transform="translate(-441.231 -345.735)" fill="#2a2c8f"/>
    <path id="Path_10899" data-name="Path 10899" d="M491.509,399.21h.143a.982.982,0,0,1-.007.143C491.531,399.364,491.494,399.314,491.509,399.21Z" transform="translate(-441.976 -346.532)" fill="#2a2c8f"/>
    <path id="Path_10900" data-name="Path 10900" d="M439.8,382.38a.51.51,0,0,1,0,.805A.942.942,0,0,1,439.8,382.38Z" transform="translate(-397.559 -332.101)" fill="#181b86"/>
    <path id="Path_10901" data-name="Path 10901" d="M494.15,298.166c.036-.143.09-.255.259-.128C494.374,298.183,494.321,298.295,494.15,298.166Z" transform="translate(-444.243 -259.733)" fill="#2a2c8f"/>
    <path id="Path_10902" data-name="Path 10902" d="M485.041,324.88l.058.131h-.054c-.011-.05-.017-.1-.026-.151Z" transform="translate(-436.415 -282.779)" fill="#303292"/>
    <path id="Path_10903" data-name="Path 10903" d="M495.867,297.553l-.007-.143.143.007C496.022,297.533,495.964,297.561,495.867,297.553Z" transform="translate(-445.71 -259.242)" fill="#2a2c8f"/>
    <path id="Path_10904" data-name="Path 10904" d="M485.991,324.22l.033.11c-.016-.029-.03-.058-.044-.088Z" transform="translate(-437.238 -282.23)" fill="#303292"/>
    <path id="Path_10905" data-name="Path 10905" d="M391.663,296.681c-.106.018-.143-.04-.133-.133l.143-.009Z" transform="translate(-356.249 -258.496)" fill="#2a2c8f"/>
    <path id="Path_10906" data-name="Path 10906" d="M397.155,360.624a.266.266,0,0,1-.385.071c.115-.133.261-.044.383-.073Z" transform="translate(-360.743 -313.442)" fill="#303292"/>
    <path id="Path_10907" data-name="Path 10907" d="M420.627,308.279a.259.259,0,0,1-.126-.249h0A.26.26,0,0,1,420.627,308.279Z" transform="translate(-381.091 -268.348)" fill="#303292"/>
    <path id="Path_10908" data-name="Path 10908" d="M420.2,307.828l-.051-.029.053.027Z" transform="translate(-380.791 -268.151)" fill="#303292"/>
    <path id="Path_10909" data-name="Path 10909" d="M486.44,361.54c-.01.017-.024.047-.03.046a.264.264,0,0,1-.1-.043c-.053-.046-.041-.066.026-.044C486.372,361.51,486.406,361.525,486.44,361.54Z" transform="translate(-437.493 -314.188)" fill="#303292"/>
    <path id="Path_10910" data-name="Path 10910" d="M258.661,295.651l-.051-.029.023-.023Z" transform="translate(-221.749 -253.469)" fill="#303292"/>
    <path id="Path_10911" data-name="Path 10911" d="M465.25,389.59l.124.124Z" transform="translate(-419.462 -338.283)" fill="#303292"/>
  </g>
</svg>
