<svg xmlns="http://www.w3.org/2000/svg" width="101.438" height="96.74" viewBox="0 0 101.438 96.74">
  <g id="Equestrian_Federation_of_India" data-name="Equestrian Federation of India" transform="translate(-0.05 -0.04)">
    <path id="Path_11065" data-name="Path 11065" d="M282.075,524.148H270.464a22.131,22.131,0,0,0-4.308-.8,52.607,52.607,0,0,1-23.876-11.177,21.557,21.557,0,0,0-3.126-2.6v.009c-.41-1.018-1.28-1.445-1.955-2.122a.33.33,0,0,0-.264-.287l.016.01a2,2,0,0,0-.761-.853,10.219,10.219,0,0,1-1.32-1.974,14.97,14.97,0,0,0,1.756-.012,2.31,2.31,0,0,1,2.258,1.052,26.588,26.588,0,0,0,3.009,3.126,49.537,49.537,0,0,0,12.156,8.275,50.07,50.07,0,0,0,28.716,4.565,49.119,49.119,0,0,0,31.024-16.384c.24-.266.431-.615.83-.608.9.014,1.8,0,2.827,0a4.192,4.192,0,0,1-.276.5c-.714.847-1.4,1.724-2.155,2.525a52.176,52.176,0,0,1-29.846,16.126A9.078,9.078,0,0,0,282.075,524.148Z" transform="translate(-224.678 -427.368)" fill="#3c9454"/>
    <path id="Path_11066" data-name="Path 11066" d="M320.328,514.765a1.234,1.234,0,0,0,.174-.062,1.583,1.583,0,0,0,.347-.05,41.623,41.623,0,0,0,14.672-9.03c1.372-1.308,2.7-1.118,4.227-1.082-7.439,8.662-22.476,17.192-41.082,14.934A47.455,47.455,0,0,1,269.33,504.6c1.837-.262,3.385-.321,4.586,1.181a15.815,15.815,0,0,0,3.067,2.638,44.8,44.8,0,0,0,14.045,7.165,46.4,46.4,0,0,0,22.006,1.247A29.7,29.7,0,0,0,320.328,514.765Z" transform="translate(-253.154 -427.487)" fill="#d16e37"/>
    <path id="Path_11067" data-name="Path 11067" d="M448.9,432.872c-.028-.212-.056-.425-.082-.639-.087-1.514.592-2.952.476-4.538-.521.259-.227,1.158-.9,1.042a31.663,31.663,0,0,1,3.3-10.353c.665-1.282,1.325-2.565,2.066-3.994a5.826,5.826,0,0,1,.474,2.5,4.852,4.852,0,0,0,.4,2.343,3.026,3.026,0,0,1-.441,3.4c-.5.695-.978,1.42-1.466,2.133v.016a9.455,9.455,0,0,0-1.042,1.578,41.955,41.955,0,0,0-2.344,5.944C449.27,432.516,449.372,433.027,448.9,432.872Z" transform="translate(-401.128 -353.061)" fill="#1e1e1e"/>
    <path id="Path_11068" data-name="Path 11068" d="M521.1,68.6c.038.538.075,1.077.113,1.613a4.311,4.311,0,0,0,.12,1.415c.021.287.04.573.061.868l.052.458c.024.783.056,1.563.068,2.35,0,.229.306.589-.13.667a.729.729,0,0,1-.736-.465,2.8,2.8,0,0,1-.115-.834,1.479,1.479,0,0,0-.085-.88c-.01-.182-.1-.254-.247-.252l-.241-.109-1.389-.521a.49.49,0,0,0-.559-.174c-.439.186-.835-.926-1.3-.059l-1.243.938a1.179,1.179,0,0,0-.773-.26c-.347-.28-.887-.059-1.108-.63a2.673,2.673,0,0,0-.347-1.089c-.195-.641-.1-1.5-.818-1.763a15.821,15.821,0,0,0-1.7-.4c-.293-.071-.479.014-.5.4a4.039,4.039,0,0,0-.266,1.174c-.212.5-.174,1.32-.976,1.061l-.075-.049h-.083c-.139-.425.111-.8.109-1.216.363-1.516.766-3.022,1.075-4.555.137-.681.347-.868.924-.724,1.306.347,2.624.613,3.937.915l.771.814.193.868c0,.816-.366,1.525-.964,1.65-1.247.259-.882,1.014-.577,1.842a3.419,3.419,0,0,1,.151.521c.144.754.365.929.955.379,1.421-1.323,2.911-2.541,4.341-3.852C520.207,68.235,520.625,68.12,521.1,68.6Zm-7.417.587a.992.992,0,0,0,1.091-.847.907.907,0,0,0-.74-1.137,23.753,23.753,0,0,0-2.69-.585c-.807-.116-.457.814-.677,1.233-.122.227-.269.637.195.736Zm6.476.408-2.3,2,2.555.979C520.325,71.539,520.248,70.661,520.155,69.6Z" transform="translate(-451.021 -64.774)" fill="#1e1e1e"/>
    <path id="Path_11069" data-name="Path 11069" d="M488.479,346.087l.09.174a3.347,3.347,0,0,0,.832,1.266c1.12,1.306,2.6,1.988,3.82,3.162a.332.332,0,0,0,.347.024c.207-.137,0-.325-.038-.439-.144-.391-.347-.754-.521-1.125l.142-.165a5.046,5.046,0,0,1,1.354,2.883c.033.2.149.451-.009.6-.2.191-.4-.019-.575-.135-.42-.276-.832-.57-1.249-.856l-.21-.033.078.212c.01.174.085.429.021.491-.2.2-.3-.109-.417-.221a20.046,20.046,0,0,0-4.9-3.834c-.538-.6-1.44-.5-1.876-1.377-.08-.161-.695.07-1.058.073-.643,0-1.285-.026-1.928-.042a9.072,9.072,0,0,1-3.994-3.671q-.188-.4-.377-.806c-.16-.432-.321-.868-.483-1.3l-.174-.6a38.463,38.463,0,0,1-.58-4.831,1.86,1.86,0,0,0-.106-1.289v-.042a.493.493,0,0,0,.16-.505c.365-.695.306-.139.326.155a20.147,20.147,0,0,0,1.226,5.635c1.438,3.853,4.828,7.733,8.876,6.017-.054.832-.768.674-1.129,1.042-.193.063-.566-.089-.509.285.04.273.347.056.521-.021a2.617,2.617,0,0,0,1.276-.684C487.76,346.092,488.1,345.7,488.479,346.087Z" transform="translate(-424.488 -286.113)" fill="#1e1e1e"/>
    <path id="Path_11070" data-name="Path 11070" d="M458.047,197.526a32.314,32.314,0,0,1-.4-7.53c.026-1.976-.53-2.7-2.185-3.074-.3-.066-.63-.017-.78-.439l.014-.01h.085l.076-.047.6-.066,1.075.108h0l.924.84.148.269q.188.646.377,1.289l.083,1.285c-.01.431,0,.868-.036,1.29-.293,4.341,1.563,6.2,4.821,7.255a12.408,12.408,0,0,0,5.557.285c.622-.085,1.349.137,1.888-.483a9.87,9.87,0,0,0,2.106-.6l-.01.069h.059l-.288.335-.783.505-.467.281c-.9.311-1.681.933-2.584,1.273-1.273.479-2.6.6-3.864,1.139l-.542.083c-.391-.174-.747.064-1.117.135h-.557l-.366-.01-.736-.076a2.622,2.622,0,0,0-1.111-.366c-.068-.194-.219-.217-.366-.247l-.321-.292q-.589-1.374-1.179-2.744Z" transform="translate(-406.317 -164.63)" fill="#d16e37"/>
    <path id="Path_11071" data-name="Path 11071" d="M532.176,226.837l-1.3-.1h-.031c.082-.486.429-.278.66-.333a8.826,8.826,0,0,0,3.647-1.308.387.387,0,0,0,.174-.038c.109.03.188-.009.222-.141l.01.019a2.044,2.044,0,0,0,1.341-1.11l.118-.142a2.594,2.594,0,0,0,.733-1.627c.024-.144.05-.288.075-.432l.028-.064s-.057-.03-.057-.031l.252.137c.3,1.526-.736,2.417-1.365,3.572,1.756-.064,3.228-1.085,3.416-2.509.4-3.023-1.313-4.447-3.313-5.59.609-.293,1.108.241,1.66.151a1.462,1.462,0,0,1,.715.46,1.48,1.48,0,0,0,.868,1.042l.458.761c.026.144.016.32.2.323v-.016c-.123.155-.05.3.01.448a4.966,4.966,0,0,0,1.98,4.6h0a2.223,2.223,0,0,0,.748.9l.149.174,3.138,3.739a.106.106,0,0,0,0,.13c-.036.472-.6.924-.036,1.417-.479-.234-.667,1.07-1.242.328a3.182,3.182,0,0,0-.476-1.367,2.286,2.286,0,0,0-.623-1.229l-.156-.234a5.946,5.946,0,0,0-3.157-2.6l-.061-.054h-.089a.427.427,0,0,0-.385-.25l-.415-.347c0-.453.3-.882.13-1.5a5.919,5.919,0,0,0-1.075,1.257l-.495.311c-.241.118-.542.148-.594.549h0l-.252.184c-.269-.042-.441.174-.641.328h-.182l-.906.116c-.281-.347-.625-.1-.939-.134l-.174-.01a.592.592,0,0,0-.542.132l-2.039.1Z" transform="translate(-469.251 -189.989)" fill="#d16e37"/>
    <path id="Path_11072" data-name="Path 11072" d="M303.7,330.9a3.68,3.68,0,0,0,4.466,1.36h.052l.036-.042c2.143-.656,2.811-3.383,1.372-5.59l-1.414-1.808c1.422.125,2.749.245,4.077.347.377.033.347.278.274.6-.287,1.3-.521,2.6-.844,3.888-1.021,4.064-2.779,5.194-6.241,4.05a.118.118,0,0,0-.123-.071,9.147,9.147,0,0,1-2.459-3.445C303.3,330.219,303.407,330.71,303.7,330.9Z" transform="translate(-280.895 -279.046)" fill="#3c9454"/>
    <path id="Path_11073" data-name="Path 11073" d="M604.722,319.525c.365,1.509,1.374,2.674,1.77,4.458-.377-.245-.575-.488-.833-.389.332-.488-.165-.742-.3-.955a53.926,53.926,0,0,1-3.549-7.252c-.729-2.258-1.544-4.489-2.084-6.825-.187-.816-.483-1.306-1.189-1.422.033-.142.064-.283.1-.425.375-.3.443-.948.92-1.134q.191.891.382,1.778a9.461,9.461,0,0,0,1.216,3.355c.3-1.487.55-2.779.807-4.057l.307.014a21.589,21.589,0,0,0,.229,4.817,25.834,25.834,0,0,0,1.927,7.363Z" transform="translate(-525.195 -263.147)" fill="#1e1e1e"/>
    <path id="Path_11074" data-name="Path 11074" d="M206.943,206.458c-1.315-.736-2.619-1.5-3.949-2.195-.469-.243-.521-.443-.236-.929.556-.952,1.042-1.959,1.6-2.909a1.83,1.83,0,0,1,2.167-1.005,1.889,1.889,0,0,1,1.582,1.931c0,.542.3.441.563.443h2.686a1.061,1.061,0,0,1-.594.9,8.745,8.745,0,0,0-2.2.092c-.566-.111-1.127-.21-1.311.695-.889,1.389-.889,1.389.415,2.051.307.155.62.3.922.467.174.094.486.1.337.481-.113.288-.241.606-.608.472C207.865,206.781,207.4,206.621,206.943,206.458Zm-.847-6.106a1.082,1.082,0,0,0-1,.636c-.373.658-.709,1.348-1.1,1.99-.281.464-.155.622.241.84,1.3.715,1.29.738,2.084-.695.2-.363.413-.715.594-1.091C207.344,201.13,206.979,200.392,206.1,200.352Z" transform="translate(-197.998 -175.36)" fill="#1e1e1e"/>
    <path id="Path_11075" data-name="Path 11075" d="M196.823,402.084c.094.483.445,1-.132,1.4-.057.04-.063.273-.024.389a3.4,3.4,0,0,1-1.466,4.111,6.562,6.562,0,0,1-2.534.568,6.428,6.428,0,0,1-1.783-.788,3.383,3.383,0,0,1,.229-5.534,3.65,3.65,0,0,1,4.366.064c.512.384.809.307,1.12-.221Zm-3.522,5.463a2.952,2.952,0,0,0,1.827-.773,2.258,2.258,0,0,0,.8-1.849c-.012-.26.026-.754-.462-.4-.676.481-.717-.439-.608-.6.715-1.08-.208-1.03-.6-1.2a2.736,2.736,0,0,0-2.888.54,2.385,2.385,0,0,0-.031,3.655A2.718,2.718,0,0,0,193.3,407.547Z" transform="translate(-187.236 -342.443)" fill="#1e1e1e"/>
    <path id="Path_11076" data-name="Path 11076" d="M700.935,229.432c-1.709-1.332-2.1-2.468-1.549-4.515a6.934,6.934,0,0,1,1.792-1.957.1.1,0,0,0,.123-.047,1.092,1.092,0,0,0,.946-.062l1.811.08a4.04,4.04,0,0,1,2.431,3.039c0,.288,0,.577-.012.868a3.846,3.846,0,0,1-1.488,2.238,4.549,4.549,0,0,1-3.1.677l-.043-.023-.045.012Zm3.749-4.92a2.755,2.755,0,0,0-3.591-.071,2.374,2.374,0,0,0,.092,3.93,2.745,2.745,0,0,0,3.23-.135,2.5,2.5,0,0,0,.695-3.2A.768.768,0,0,0,704.684,224.512Z" transform="translate(-608.336 -194.784)" fill="#1e1e1e"/>
    <path id="Path_11077" data-name="Path 11077" d="M420.946,63.236c.823-.05,1.648-.127,2.471-.142a3.112,3.112,0,0,1,2.5,1.144c1.424,1.65.938,3.944-1.1,5.253-.054.035-.109.071-.163.109-.174-.085-.3.019-.441.1-.978.1-1.961.158-2.93.333-.665.122-.849-.174-.906-.891-.115-1.438-.3-2.871-.457-4.3S419.76,63.423,420.946,63.236Zm1.245,5.826c.721-.108,1.183-.144,1.632-.248a2.25,2.25,0,0,0,1.888-2.475,2.371,2.371,0,0,0-2.172-2.334c-.67-.04-1.346.109-2.02.118-.521,0-.7.2-.606.835a24.7,24.7,0,0,1,.316,2.9C421.262,68.892,421.55,69.357,422.191,69.062Z" transform="translate(-377.532 -62.769)" fill="#1e1e1e"/>
    <path id="Path_11078" data-name="Path 11078" d="M469.354,66.538a10.405,10.405,0,0,0,.129-2.143c.05-.755.125-1.509.144-2.258.014-.577.224-.707.686-.672,1.407.106,2.815.153,4.222.229.255.014.58-.1.577.436,0,.589-.347.488-.639.472-1.009-.052-2.025-.049-3.027-.189-.794-.113-.868.333-.924,1.08-.071.891.42.674.8.712.427.043.854.063,1.283.092.267.019.59-.056.59.446,0,.587-.368.457-.66.441-.521-.028-1.042-.082-1.563-.1-.948-.04-.465.868-.6,1.337s-.108.926.521.939c1.348.031,2.693.109,4.039.174a.886.886,0,0,1-.043.952l-3.494-.174-.738-.028c-.443-.012-.9-.267-1.322.085l-.012-.026Q469.34,67.43,469.354,66.538Z" transform="translate(-418.423 -61.42)" fill="#1e1e1e"/>
    <path id="Path_11079" data-name="Path 11079" d="M712.354,398.784a4.146,4.146,0,0,1-2.672-1.8,4.506,4.506,0,0,1-.062-2.942,13.57,13.57,0,0,0,.53-1.592c.149-.755.467-.811,1.042-.639,1.36.412,2.739.738,4.11,1.1l1.268.363c.174.148.467.094.441.545a5.4,5.4,0,0,1-3.555,4.993Zm.54-.946c1.507.021,2.271-.854,2.871-3.032.16-.583.043-.745-.424-.868-1.255-.318-2.5-.695-3.751-1.042-.22-.061-.543-.25-.639.128-.267,1.077-.972,2.1-.446,3.3A2.655,2.655,0,0,0,712.894,397.837Z" transform="translate(-616.805 -334.333)" fill="#1e1e1e"/>
    <path id="Path_11080" data-name="Path 11080" d="M627.757,129.391a7.465,7.465,0,0,1,2.343-2.431,4.137,4.137,0,0,1,3.317.233,4.875,4.875,0,0,1,1.677,2.171l-.016,1.737a4.369,4.369,0,0,1-3.14,2.686l-.356.043-.385-.01-.347-.042-.554-.106-.347-.161a7.2,7.2,0,0,1-2.165-2.228A7.089,7.089,0,0,1,627.757,129.391Zm6.217.742a2.351,2.351,0,0,0-2.447-2.462,2.891,2.891,0,0,0-2.7,2.779,2.553,2.553,0,0,0,2.619,2.381,2.6,2.6,0,0,0,2.532-2.7Z" transform="translate(-549.296 -115.345)" fill="#1e1e1e"/>
    <path id="Path_11081" data-name="Path 11081" d="M179.75,278.295a6.787,6.787,0,0,1,1.389-2.643c.288-.3.495-.457.847-.087.46.484-.031.613-.2.8a3.718,3.718,0,0,0-1.075,2.431c-.012.58.12,1.106.67,1.257.521.141.818-.245,1-.731.208-.561.347-1.153.533-1.737.412-1.33,1.216-2.073,2.23-2.049,1.052.024,1.645.615,2.07,2.063-.024.505-.049,1.012-.075,1.518a9.261,9.261,0,0,1-1.389,2.523c-.347.45-.594.358-.915.056-.462-.434.01-.6.186-.8a4.223,4.223,0,0,0,1.245-2.575c.068-.849-.174-1.539-.926-1.75-.71-.2-1.176.266-1.434,1.011-.186.535-.3,1.1-.483,1.638-.321.941-.754,1.747-1.737,1.829s-1.53-.561-1.91-1.506Z" transform="translate(-179.13 -238.166)" fill="#1e1e1e"/>
    <path id="Path_11082" data-name="Path 11082" d="M376.027,73.187c-.042-.16-.085-.32-.127-.481a11.054,11.054,0,0,0-.7-2.348c-.045-.139-.089-.276-.134-.413-.113-.488.052-.695.471-.792.95-.221,1.888-.5,2.831-.759.495-.135.992-.259,1.48-.413.32-.1.439.09.521.4.122.434-.142.446-.382.521a7.455,7.455,0,0,0-1.822.594c-.561-.1-1.059.24-1.594.33-.292.05-.379.208-.306.6.174.9.477,1.412,1.344.986a8.953,8.953,0,0,1,1.13-.389l.332-.063.273.127c.144.465.174.83-.392.9a5.429,5.429,0,0,0-.964.318c-1.164.156-1.153.085-.736,1.389.064.2.132.4.2.606,0,.144.017.264.174.236a.576.576,0,0,0,.55-.049c1.124-.3,2.247-.587,3.369-.9.309-.085.606-.215.71.316.12.616-.332.476-.571.573a10.375,10.375,0,0,1-1.141.347c-.448.106-.9.207-1.344.318-.745.184-1.592.726-2.2.469-.66-.278-.549-1.563-.91-2.35A.454.454,0,0,0,376.027,73.187Z" transform="translate(-340.499 -66.786)" fill="#1e1e1e"/>
    <path id="Path_11083" data-name="Path 11083" d="M721.505,353.577c.59.384,1.226.149,1.842.191.441.245,1.389-.247,1.094,1.059l-.538.054a12.177,12.177,0,0,0-2.952-.283,7.129,7.129,0,0,0-2.028-.189c-.33-.057-.66-.118-.99-.174-.151-.023-.321-.01-.347-.247a.441.441,0,0,1,.2-.441c.158-.106.319-.208.478-.318l4.7-3.192c-1.6-.153-2.9-.32-4.206-.385-.707-.036-.894-.3-.554-1.042l4.223.372a5.827,5.827,0,0,0,1.846.189l.365.026c.521.165.4.486.146.839h0a14.393,14.393,0,0,0-2.617,1.752l-.316.189a5.33,5.33,0,0,0-1.942,1.6Z" transform="translate(-623.564 -298.704)" fill="#1e1e1e"/>
    <path id="Path_11084" data-name="Path 11084" d="M276.147,119.335a8.776,8.776,0,0,0-2.133-.408c.972,1.17,1.8,2.153,2.6,3.164.144.174.582.347.2.747-.3.309-.552.32-.86-.057-1.191-1.459-2.41-2.884-3.617-4.326-.122-.146-.339-.29-.219-.521a.487.487,0,0,1,.58-.217c1.542.288,3.089.552,4.626.882.347.076.8.347.986-.012.229-.455-.3-.695-.521-1.018a13.958,13.958,0,0,1-1.985-2.641c.589-.535,1.026-.24,1.41.347.844,1.042,1.695,2.058,2.527,3.1.347.438,1.1.9.933,1.334-.264.695-.983-.012-1.5.12l-.09.017A16.991,16.991,0,0,0,276.147,119.335Z" transform="translate(-255.434 -105.371)" fill="#1e1e1e"/>
    <path id="Path_11085" data-name="Path 11085" d="M381.536,161.213a6.915,6.915,0,0,0,3.388,2.6c.276.1.606.2.625.531.024.406-.38.4-.615.5-.769.32-1.552.6-2.395.913a4.51,4.51,0,0,0-2.258-4.366h0a2.672,2.672,0,0,0-1.493-.825.146.146,0,0,0-.156-.043,1.972,1.972,0,0,0-1.108-.441,22.314,22.314,0,0,0-4.475-.233,3.6,3.6,0,0,1-3.3-1.481l.01-.436c.3-.071.283-.695.695-.577a.148.148,0,0,0,.073.132c.174.427.174,1,.705,1.113l.049.036.054-.026a.876.876,0,0,0,.816.188l.761.111a8.124,8.124,0,0,0,2.561.014h.375l.08.035.082-.031.577.012.55.01.361.028,2.193.762.544.356.2.174.372.271v.009a1.148,1.148,0,0,0,.731.667Z" transform="translate(-336.136 -140.654)" fill="#d16e37"/>
    <path id="Path_11086" data-name="Path 11086" d="M658.135,161.684c-.476-.491-.474-.818.13-1.243,1.445-1.019,2.836-2.141,4.256-3.207.191-.144.373-.45.648-.252.32.231.158.577.1.879-.359,1.77-.724,3.537-1.117,5.444a37.6,37.6,0,0,0,3.362-2.414c.228-.163.458-.552.79-.118.207.271.38.458,0,.74-1.6,1.2-3.194,2.431-4.8,3.612-.453.335-.613.045-.55-.5.036-.321.08-.639.12-.96a4.382,4.382,0,0,0,.278-1.361,19.727,19.727,0,0,0,.67-3.532l-3.405,2.7C658.463,161.572,658.351,161.775,658.135,161.684Z" transform="translate(-574.159 -140.3)" fill="#1e1e1e"/>
    <path id="Path_11087" data-name="Path 11087" d="M182.588,317.672c.366-.149.733-.307.993.217q-.023,1.408-.049,2.818v1.308c.023.879-.33,1.111-1.063,1.077-1.858-.087-3.72-.061-5.58-.078l-.174-.016-.212-.109-.035-1.084v-.441l.019-2.167.2-1.511.785.063.063.778-.073,2.822c-.2.879.292.695.695.627l.919.024c.139.031.2-.028.165-.2l.014-1.3.189-1.078.368-.023a.5.5,0,0,1,.448.457v1.117c-.231.884.028,1.256.816,1.12a2,2,0,0,1,.719,0c.686.135.868-.234.726-.952v-1.073a3.308,3.308,0,0,0,.03-1.313Z" transform="translate(-176.42 -273.019)" fill="#1e1e1e"/>
    <path id="Path_11088" data-name="Path 11088" d="M203.44,441.131c.564-.419.9-.2,1.207.469.363.788.828,1.514,1.256,2.258a1.185,1.185,0,0,0,1.881-.08c.134-.247-.031-.4-.123-.57-.229-.427-.472-.842-.707-1.266-.129-.233-.347-.472.03-.684.259-.144.5-.3.695.118.174.375.446.695.6,1.089.3.771.679.8,1.3.443,1.224-.71,1.242-.665.495-1.99-.406-.721-.8-1.448-1.2-2.174-.127-.229-.361-.471,0-.695.252-.163.495-.273.707.111.755,1.356,1.563,2.676,2.271,4.067.457.9-.594.531-.709,1-1.52.773-3.06,1.526-4.572,2.336-.445.238-.695.2-.953-.314A40.067,40.067,0,0,1,203.44,441.131Z" transform="translate(-198.706 -372.488)" fill="#1e1e1e"/>
    <path id="Path_11089" data-name="Path 11089" d="M563.236,309.162a2.03,2.03,0,0,0,.174.247c.313.347.778.616.91,1.042.16.511-.491.58-.707.955a2.067,2.067,0,0,0-.29,1.3,7.937,7.937,0,0,0,1.528,3.994c1.377,1.891,3.051,3.456,4.341,5.451a14.152,14.152,0,0,1,1.657,3.232,1.83,1.83,0,0,1,.021,1.419l-.6-1.356-.187-.439a5.893,5.893,0,0,0-.887-1.872,41.827,41.827,0,0,0-6.116-7.141.155.155,0,0,0-.111-.122c-.46-.578-.9-1.183-1.389-1.724a.725.725,0,0,1-.028-1.136,6.126,6.126,0,0,0,1.306-3.94Z" transform="translate(-494.413 -266.031)" fill="#1e1e1e"/>
    <path id="Path_11090" data-name="Path 11090" d="M676.964,448.653c1.775.57,2.756-.537,3.551-2.218.262-.556.392-.9-.043-1.363a4.41,4.41,0,0,1-.521-.755c-.231-.377.052-.632.22-.837.247-.3.373.08.488.243q1.851,2.631,3.683,5.283c.434.629.1.913-.4,1.012a4.537,4.537,0,0,1-1.005-.012l-.174-.016-.941-.059-.92-.05a.549.549,0,0,0-.544-.04,5.97,5.97,0,0,0-1.841-.132c-.5-.059-1.009-.132-1.514-.174s-.278-.363-.194-.637Zm6.141.415c-1.4-2.739-1.7-2.766-2.853-.4-.014.028,0,.069,0,.193Z" transform="translate(-589.772 -377.008)" fill="#1e1e1e"/>
    <path id="Path_11091" data-name="Path 11091" d="M524.2,193.274q-.024,1.848-.045,3.692c-.559.788-.347,1.994-1.064,2.7l-.571.563c-1.174.394-1.181.394-1.113-1.033.038-.816.108-1.631.163-2.445.274-2.061.8-3.959,2.386-5.309l.2.96c0,.146.016.29.023.436Z" transform="translate(-461.44 -168.828)" fill="#1e1e1e"/>
    <path id="Path_11092" data-name="Path 11092" d="M248.045,155.673l6.894,1.931a.844.844,0,0,1-1,.695l-.705-.186a.863.863,0,0,0-1.3.3,5.091,5.091,0,0,1-.736.806c-.806.748-1.511,1.5-.557,2.751.323.425-.073.639-.287.841-.347.321-.4-.111-.495-.33-.847-1.91-1.662-3.846-2.539-5.731-.293-.632.069-.818.347-1.115Zm.486,1.176c.306,1.021.53,2.084,1.153,2.476.347.217.919-.868,1.4-1.342a3.316,3.316,0,0,0,.274-.4Z" transform="translate(-234.878 -139.237)" fill="#1e1e1e"/>
    <path id="Path_11093" data-name="Path 11093" d="M181.072,361.944l-2.732.366c-.28.038-.542.1-.606-.389s.2-.5.486-.538c1.49-.2,2.975-.483,4.47-.6,1.855-.141,3.164,2.291,2.348,4.281a1.545,1.545,0,0,1-1.065.948c-1.674.453-3.393.538-5.086.832-.339.059-.424-.165-.469-.484-.064-.455.219-.443.455-.479q1.822-.28,3.647-.549l.359-.05c.695-.073,1.363-.174,1.407-1.262a2.138,2.138,0,0,0-1.183-2.233,1.215,1.215,0,0,0-.972.045.713.713,0,0,0-.616.076Z" transform="translate(-177.457 -308.758)" fill="#1e1e1e"/>
    <path id="Path_11094" data-name="Path 11094" d="M601.164,429.122c.919.163,1.071.474.695,1.415a2.9,2.9,0,0,0,.193,2.355q.108.542.212,1.085c-.045.148-.092.3-.139.445l-.59.155-1.1.017-.318-.092a4.931,4.931,0,0,1-.045-4.2c.078-.028.174-.068.1-.174-.019-.033-.137.014-.21.026-.891.924-.917,3.287-.052,4.586a.219.219,0,0,0,.016.134c-.019.073-.038.146-.059.219l-.54-.078a20.842,20.842,0,0,0-.632-2.593c-.441-1.375-.212-2.084.868-2.778.457-.294.936-.542,1.4-.811l.1.458Z" transform="translate(-525.146 -364.994)" fill="#1e1e1e"/>
    <path id="Path_11095" data-name="Path 11095" d="M362.933,194.851c1.478-.174,3.051.436,4.458-.847a6.663,6.663,0,0,1-3-2.449,2.849,2.849,0,0,0-2.476-.919,22.273,22.273,0,0,1-4.329.226c.585-.462,1.238-.233,1.759-.547a1.021,1.021,0,0,0,.83-.2l.818-.085.186-.024.721-.066a1.266,1.266,0,0,0,.939-.049,1.184,1.184,0,0,0,.908,0,2.681,2.681,0,0,0,1.111.174.087.087,0,0,0,.108.047c.521,2.357,1.276,3.161,3.3,3.395.457.052.719.682,1.459.267-.682,1.007-1.5,1-2.119,1.427-1.2.082-2.268.858-3.473.912l.057-.391C363.592,195.8,363.364,195.119,362.933,194.851Z" transform="translate(-326.087 -167.547)" fill="#d16e37"/>
    <path id="Path_11096" data-name="Path 11096" d="M337.23,82.121c-.42-.695-.286-1.054.431-1.325,1.389-.521,2.752-1.17,4.126-1.766.4.521.441.868-.248,1.111-.823.285-1.617.682-2.422,1.033-1.071.469-1.042.455-.474,1.575.207.4.391.464.733.283.554-.3,1.127-.547,1.691-.816l.01-.01a.585.585,0,0,1,.521.616c.014.391-.347.33-.537.432a8.932,8.932,0,0,1-1.273.571c-.451.151-.479.347-.266.834a5.846,5.846,0,0,1,.915,2.384l-.714.2-.677-1.216c-.129-.347-.148-.781-.554-.88A9.677,9.677,0,0,0,337.23,82.121Z" transform="translate(-309.067 -75.939)" fill="#1e1e1e"/>
    <path id="Path_11097" data-name="Path 11097" d="M390.94,352.618c2.594-4.986,5.752-9.344,10.117-12.338-1.016,1.052-2.046,2.084-3.046,3.159a26.7,26.7,0,0,0-5.618,8.738c-.12.314-.186.917-.577.116C391.688,352.04,391.234,352.387,390.94,352.618Z" transform="translate(-353.646 -291.821)" fill="#1e1e1e"/>
    <path id="Path_11098" data-name="Path 11098" d="M260.637,309.35c1.33.243,2.66.49,3.994.731.148.026.328-.019.412.174.9,2.013,2.11,3.909,1.816,6.566-.445-.75-.813-1.389-1.193-2.008a14.162,14.162,0,0,0-4.974-5.006.424.424,0,0,1-.238-.413Z" transform="translate(-245.819 -266.262)" fill="#3c9454"/>
    <path id="Path_11099" data-name="Path 11099" d="M713.449,269.628c-.424.071-.847.129-1.268.221-.309.068-.452-.087-.53-.417-.109-.446.163-.472.4-.521,1.957-.434,3.916-.856,5.873-1.3.747-.174.439.695.722.978l.165.646c.026,1.2.648,2.228.695,3.419l-.71.191a16.173,16.173,0,0,1-.936-3.473c-.137-.545-.28-.747-.818-.629-1.216.271-1.228.222-.893,1.624.057.241.106.488.174.726.076.278.082.5-.231.538-.231.03-.5.189-.611-.219a6.172,6.172,0,0,1-.217-.934c-.125-1.115-.59-1.466-1.469-.964Z" transform="translate(-618.643 -231.753)" fill="#1e1e1e"/>
    <path id="Path_11100" data-name="Path 11100" d="M191.459,237.321c-.4-.156-.806-.33-1.216-.465-1.827-.6-1.843-.6-2.638,1.381-.186.465-.38.573-.768.394-.458-.212-.156-.521-.08-.775.174-.571.365-1.136.549-1.7l.151-.453c.311-.8.611-1.617.938-2.412.151-.365.137-.979.769-.695s.106.676.092,1.014a2.7,2.7,0,0,1-.05.311l-.087.254c-.556,1.158-.556,1.162.5,1.5.231.073.469.118.7.174l2.475.811a3.238,3.238,0,0,0,1.261.412l.05.028c.248.775.089,1.1-.644.835-.347-.123-.695-.193-1.042-.285Z" transform="translate(-184.783 -202.774)" fill="#1e1e1e"/>
    <path id="Path_11101" data-name="Path 11101" d="M517.093,340.952a1.693,1.693,0,0,0-.347-.868c-.891-2.548-2.443-4.638-3.735-7.254a2.541,2.541,0,0,1,1.737,1.28,20.156,20.156,0,0,0,1.936,3.381l.148.238a16.467,16.467,0,0,0,3.227,3.94c-.432.1-.726.174-1.023.224-.486.092-.9.9-1.256.641S517.313,341.5,517.093,340.952Z" transform="translate(-454.518 -285.665)" fill="#1e1e1e"/>
    <path id="Path_11102" data-name="Path 11102" d="M596.4,91.652c-.142.792-.478.814-1.059.5-1.829-1-1.837-.969-2.963.992-.464.808-.979,1.58-1.389,2.431-.276.577-.594.611-1.042.412l-.036-.063h-.045c-.01-.149-.019-.3-.028-.448.106-.174.212-.347.319-.531A31.641,31.641,0,0,0,592.2,91.4c.507-.491.42-.823-.186-1.056-.363-.139-.714-.326-1.07-.493a.432.432,0,0,0-.413-.243l-.052-.036a.559.559,0,0,1-.148-.566c.193-.25.389-.484.71-.274a50.278,50.278,0,0,0,5.01,2.667Z" transform="translate(-518.006 -83.889)" fill="#1e1e1e"/>
    <path id="Path_11103" data-name="Path 11103" d="M593.252,470.61a1.349,1.349,0,0,1-1.167,1.4,6.6,6.6,0,0,1-3.88-.221c-.985-.332-1.24-1.389-1.615-2.322l-.1-.257c-.07-.3-.141-.59-.21-.884.559-.045.9.46,1.2.837a4.308,4.308,0,0,0,2.964,1.549A19.227,19.227,0,0,0,593.252,470.61Z" transform="translate(-515.064 -397.629)" fill="#1e1e1e"/>
    <path id="Path_11104" data-name="Path 11104" d="M473.635,171.252l-.333-.023-.521-.9a.1.1,0,0,0-.049-.118c-.57-1.893-.952-3.945-2.907-4.638a.413.413,0,0,1-.217-.293c-.01-.219.174-.25.316-.307a2.024,2.024,0,0,1,1.7.135C473.486,166.027,474.3,168.5,473.635,171.252Z" transform="translate(-418.652 -146.85)" fill="#d16e37"/>
    <path id="Path_11105" data-name="Path 11105" d="M583.522,201.9l-.458-.761c-.254-.571-.012-1.174-.082-1.756h0c.493-.3.521-.919.71-1.434a7.754,7.754,0,0,0,.731-1.8l.2-.453c.919,1.285.537,2.765.432,4.192a8.255,8.255,0,0,1-.28,1.245c-.392.307-.224,1.389-1.063,1.082v.016Z" transform="translate(-512.308 -172.34)" fill="#1e1e1e"/>
    <path id="Path_11106" data-name="Path 11106" d="M503.529,206.024c.08-.158.16-.316.238-.474h.347a8.367,8.367,0,0,0-.54,2.839,23.411,23.411,0,0,0-.38,3.079c-.2,1.726-.047,1.389-1.25.979A3.79,3.79,0,0,0,500,212C502.1,210.584,502.9,208.37,503.529,206.024Z" transform="translate(-443.767 -180.488)" fill="#1e1e1e"/>
    <path id="Path_11107" data-name="Path 11107" d="M723.563,332.894h-2.93c-.287,0-.554.047-.564-.455-.009-.455.2-.533.521-.538q3.023-.045,6.045-.111c.278,0,.467.042.472.455,0,.457-.191.521-.521.521-1.007-.014-2.014,0-3.022,0Z" transform="translate(-625.619 -284.805)" fill="#1e1e1e"/>
    <path id="Path_11108" data-name="Path 11108" d="M524.459,307.941l-.229-.118c.092-.2.434-.151.373-.5-.076-.429-.307-.125-.479-.144a3.193,3.193,0,0,1-.589-.174c-.078-.427-.842-.5-.443-1.184.009-.014-.047-.1-.085-.127-.545-.45-.547-.45.082-.841.325-.2.651-.392.978-.589.639-.384.749-.318,1.014.582a.721.721,0,0,0,.125.24c.986-.472.658.785,1.042,1.1l-.019.747c-.359.078-.719.182-1.082.226-.283.033-.394.142-.288.474v.392Z" transform="translate(-462.448 -261.876)" fill="#1e1e1e"/>
    <path id="Path_11109" data-name="Path 11109" d="M227.188,181.747c1.533,1.042,3.07,2.06,4.591,3.126.224.156.771.148.507.754s-.625.3-.983.068c-1.65-1.08-3.308-2.143-4.965-3.213C226.273,181.658,226.585,181.472,227.188,181.747Z" transform="translate(-217.621 -160.72)" fill="#1e1e1e"/>
    <path id="Path_11110" data-name="Path 11110" d="M614.334,110.082a.5.5,0,0,1,.012.726q-1.683,2.3-3.329,4.64c-.269.384-.507.457-.846.151-.46-.413,0-.634.151-.846,1.042-1.5,2.1-2.975,3.157-4.451.127-.174.212-.474.5-.347Z" transform="translate(-534.642 -101.469)" fill="#1e1e1e"/>
    <path id="Path_11111" data-name="Path 11111" d="M646.264,434.09a1.572,1.572,0,0,1-.964-1.91,23.984,23.984,0,0,1,1.33-4.05l.365.063.241.651a10.143,10.143,0,0,1-.188,2.139,9.3,9.3,0,0,0-.695,3.023C646.293,433.994,646.266,434.024,646.264,434.09Z" transform="translate(-563.798 -364.415)" fill="#1e1e1e"/>
    <path id="Path_11112" data-name="Path 11112" d="M574.363,189.088c-.108-.174.023-.3.073-.446a6.5,6.5,0,0,0,2.5-4.97c.033-.33-.161-1.056.538-.6a.375.375,0,0,0,.224.347q-.184.674-.373,1.349a1.581,1.581,0,0,0-.306.79l-.731,1.834c-.188.462-.571.844-.432,1.443h0c-.425-.016-.3.814-.778.714A1.462,1.462,0,0,0,574.363,189.088Z" transform="translate(-505.182 -161.792)" fill="#1e1e1e"/>
    <path id="Path_11113" data-name="Path 11113" d="M487.64,212.361c.222-1.389.561-1.723,1.688-1.763a3.994,3.994,0,0,1,2.245.6,13.092,13.092,0,0,1-3.579,1.243Z" transform="translate(-433.553 -184.657)" fill="#d16e37"/>
    <path id="Path_11114" data-name="Path 11114" d="M615.193,474.175c-.644-.016-1.287-.033-1.931-.045-.259,0-.505-.014-.464-.446l.769-.135a3.625,3.625,0,0,0,1.634-.608l.361.052c.736.471,1.542.186,2.332.333A5.8,5.8,0,0,1,615.193,474.175Z" transform="translate(-536.973 -401.444)" fill="#1e1e1e"/>
    <path id="Path_11115" data-name="Path 11115" d="M515.7,300.27c.373.109.545.3.055.491-.917.361-1.851.66-2.851,1.009.379-1.129,1.042-1.563,1.9-1.389a1.686,1.686,0,0,0,.537-.05Z" transform="translate(-454.427 -258.759)" fill="#1e1e1e"/>
    <path id="Path_11116" data-name="Path 11116" d="M358.99,219c.627.245,1.252-.122,1.943-.028-.174.476-.564.4-.83.557l-1.651-.057a.116.116,0,0,0-.148-.03l-.014-.332Z" transform="translate(-326.666 -191.569)" fill="#d16e37"/>
    <path id="Path_11117" data-name="Path 11117" d="M535.58,324.6a5.862,5.862,0,0,1,1.273.026c.4.092-.083.231-.033.37-.413.014-.827.227-1.238,0C535.582,324.862,535.58,324.731,535.58,324.6Z" transform="translate(-473.168 -278.846)" fill="#3c9454"/>
    <path id="Path_11118" data-name="Path 11118" d="M618.27,307.11c0-.2.009-.4.014-.594a.073.073,0,0,0,.035-.1c.063-.1.122-.287.188-.29.188-.009.142.222.189.359-.04.212-.078.425-.118.637Z" transform="translate(-541.499 -263.6)" fill="#3c9454"/>
    <path id="Path_11119" data-name="Path 11119" d="M602.264,474.655c-.266.438-.431.4-1.094-.233.257-.16.453.113.684.135Z" transform="translate(-527.368 -402.628)" fill="#3c9454"/>
    <path id="Path_11120" data-name="Path 11120" d="M371.96,265a.464.464,0,0,1,.174-.457C372.413,264.87,372.175,264.927,371.96,265Z" transform="translate(-337.955 -229.234)" fill="#ececec"/>
    <path id="Path_11121" data-name="Path 11121" d="M217.11,336.279v-.439c.122.017.259.043.257.222S217.232,336.262,217.11,336.279Z" transform="translate(-210.003 -288.152)" fill="#ececec"/>
    <path id="Path_11122" data-name="Path 11122" d="M475.818,338.042v.042l-.158.049V338Z" transform="translate(-423.654 -289.937)" fill="#ececec"/>
    <path id="Path_11123" data-name="Path 11123" d="M538.53,273.42l.186.01C538.65,273.576,538.587,273.568,538.53,273.42Z" transform="translate(-475.606 -236.572)" fill="#f6ebda"/>
    <path id="Path_11124" data-name="Path 11124" d="M191.655,342.11c.035.174-.026.229-.165.2Z" transform="translate(-188.832 -293.333)" fill="#ececec"/>
    <path id="Path_11125" data-name="Path 11125" d="M566.14,272.29h.182C566.262,272.393,566.2,272.394,566.14,272.29Z" transform="translate(-498.421 -235.638)" fill="#ececec"/>
    <path id="Path_11126" data-name="Path 11126" d="M377.4,190.176l-.186.024C377.262,190.08,377.323,190.056,377.4,190.176Z" transform="translate(-342.3 -167.718)" fill="#f6ebda"/>
    <path id="Path_11127" data-name="Path 11127" d="M449.026,520.769l-.076-.049.075.05Z" transform="translate(-401.582 -440.927)" fill="#ececec"/>
    <path id="Path_11128" data-name="Path 11128" d="M571.1,241.92c0,.1-.019.194-.028.293l-.252-.137C570.914,242.026,571.008,241.972,571.1,241.92Z" transform="translate(-502.289 -210.542)" fill="#f6ebda"/>
    <path id="Path_11129" data-name="Path 11129" d="M378.768,282.75c-2.1,1.591-4.1,3.346-6.066,5.152a1.144,1.144,0,0,1-1.042.462,46.2,46.2,0,0,1,5.557-7.314A3.56,3.56,0,0,1,378.768,282.75Z" transform="translate(-337.714 -242.877)" fill="#3c9454"/>
    <path id="Path_11130" data-name="Path 11130" d="M302.38,354.73a.547.547,0,0,1,.035.2C302.265,354.895,302.265,354.895,302.38,354.73Z" transform="translate(-280.397 -303.762)" fill="#3c9454"/>
    <path id="Path_11131" data-name="Path 11131" d="M413.012,205.254l-.512-.035.717-.748a25.639,25.639,0,0,1,7.846-4.077c.4-.127,1.042-.443,1.155.036.156.643-.566.695-.955.844-1.191.446-2.4.82-3.607,1.216A15.107,15.107,0,0,0,413.012,205.254Z" transform="translate(-371.462 -176.045)" fill="#d16e37"/>
    <path id="Path_11132" data-name="Path 11132" d="M433.1,216.363a19.936,19.936,0,0,1,4.784-2.94c.28-.113.705-.531.877-.028.161.469-.3.748-.637.9-1.2.551-2.409,1.08-3.626,1.575C434.071,216.045,433.7,216.436,433.1,216.363Z" transform="translate(-388.485 -186.77)" fill="#d16e37"/>
    <path id="Path_11133" data-name="Path 11133" d="M567.628,437.692l-.078-.212.21.033C567.72,437.57,567.675,437.631,567.628,437.692Z" transform="translate(-499.587 -372.142)" fill="#ececec"/>
    <path id="Path_11134" data-name="Path 11134" d="M454.76,186.473c.033-.116.082-.156.161-.045l-.076.047Z" transform="translate(-406.383 -164.632)" fill="#f6ebda"/>
    <path id="Path_11135" data-name="Path 11135" d="M586.27,231.44l.2.323C586.286,231.76,586.3,231.584,586.27,231.44Z" transform="translate(-515.056 -201.882)" fill="#f6ebda"/>
    <path id="Path_11136" data-name="Path 11136" d="M554.684,272.14c-.066.116-.127.111-.174-.01Z" transform="translate(-488.811 -235.506)" fill="#f6ebda"/>
    <path id="Path_11137" data-name="Path 11137" d="M556.6,262.471l.222-.141C556.788,262.462,556.709,262.5,556.6,262.471Z" transform="translate(-490.538 -227.408)" fill="#f6ebda"/>
    <path id="Path_11138" data-name="Path 11138" d="M699.8,433.27c.26.106.493.2.724.3l4.937,2.084c.219.092.521.109.366.556-.122.347-.278.512-.632.361-1.846-.785-3.7-1.544-5.557-2.32-.174-.073-.483-.076-.327-.474C699.424,433.514,699.5,433.2,699.8,433.27Z" transform="translate(-608.435 -368.654)" fill="#1e1e1e"/>
    <path id="Path_11139" data-name="Path 11139" d="M612.988,427.116l-.1.174-.1-.458c.207-.174.374-.45.684-.427C613.471,426.808,613.195,426.928,612.988,427.116Z" transform="translate(-536.97 -362.988)" fill="#3c9454"/>
    <path id="Path_11140" data-name="Path 11140" d="M613.89,413.41c.134.028.29.023.276.26,0,.026-.036.068-.057.068C613.907,413.75,613.912,413.565,613.89,413.41Z" transform="translate(-537.879 -352.252)" fill="#fdfdfd"/>
    <path id="Path_11141" data-name="Path 11141" d="M309.58,261.292a15.488,15.488,0,0,0,7.391-1.172C315.958,262.7,311.416,263.369,309.58,261.292Z" transform="translate(-286.415 -225.581)" fill="#3c9454"/>
    <path id="Path_11142" data-name="Path 11142" d="M334.637,241c-.042.25-.085.5-.128.748-.933,1.078-1.957.761-3.228.257Z" transform="translate(-304.346 -209.782)" fill="#3c9454"/>
    <path id="Path_11143" data-name="Path 11143" d="M584.365,460.522l-1.129-1.016c-.285-.326-.571-.651-.856-.976a7.118,7.118,0,0,1,2.325,1.91Z" transform="translate(-511.841 -389.536)" fill="#1e1e1e"/>
    <path id="Path_11144" data-name="Path 11144" d="M566.347,417.243c-.853-.467-.853-.467-.917-1.473a2.539,2.539,0,0,1,1.059,1.308Z" transform="translate(-497.835 -354.202)" fill="#1e1e1e"/>
    <path id="Path_11145" data-name="Path 11145" d="M593.81,469.653l.347-.073c.245.156.568.219.57.665A1.241,1.241,0,0,1,593.81,469.653Z" transform="translate(-521.286 -398.667)" fill="#3c9454"/>
    <path id="Path_11146" data-name="Path 11146" d="M599.418,473.183c-.188.082-.323.04-.368-.217C599.284,472.775,599.389,472.883,599.418,473.183Z" transform="translate(-525.616 -401.386)" fill="#3c9454"/>
    <path id="Path_11147" data-name="Path 11147" d="M298.714,284.164c-.356.868-1.005.156-1.48.386a7,7,0,0,1-3.3-2.594,3.405,3.405,0,0,1-.559-1.462c-.043-.363-.024-.827.264-.967.366-.174.412.313.495.589.132.443.412.478.735.453.563-.042.827.248,1.058.9A3.844,3.844,0,0,0,298.714,284.164Z" transform="translate(-273.01 -241.587)" fill="#3c9454"/>
    <path id="Path_11148" data-name="Path 11148" d="M388.987,104.47l.174.236C389,104.736,388.975,104.614,388.987,104.47Z" transform="translate(-352.03 -96.961)" fill="#fdfdfd"/>
    <path id="Path_11149" data-name="Path 11149" d="M451.445,247.889c.082.2.208.266.386.194a.4.4,0,0,0,.139.455c-.09.564-.451.347-.724.33-.359-.017-.719-.075-1.078-.116-2.186.066-3.411-1.756-4.737-3.369-.313-.382-.33-.847.082-1.085a4.62,4.62,0,0,1,2.744-.966c-.057.276-.116.552-.174.828-.908,1.092-.913,1.634-.017,2.277v.031C449.043,247.431,450.28,247.54,451.445,247.889Z" transform="translate(-398.482 -211.697)" fill="#d16e37"/>
    <path id="Path_11150" data-name="Path 11150" d="M404.88,166.49h.161l-.082.031Z" transform="translate(-365.165 -148.211)" fill="#f6ebda"/>
    <path id="Path_11151" data-name="Path 11151" d="M430.15,173.21l.2.174Z" transform="translate(-386.047 -153.764)" fill="#f6ebda"/>
    <path id="Path_11152" data-name="Path 11152" d="M537.62,402.558l-.2-.021.068-.188Z" transform="translate(-474.689 -343.112)" fill="#1e1e1e"/>
    <path id="Path_11153" data-name="Path 11153" d="M528,321.12a3.189,3.189,0,0,0,.589.174c.174.019.4-.285.479.144.061.347-.281.3-.373.5-.276.017-.533,0-.608-.408-.028-.109-.056-.219-.085-.328Z" transform="translate(-466.905 -275.988)" fill="#3c9454"/>
    <path id="Path_11154" data-name="Path 11154" d="M526.749,321.57c.029.109.057.219.085.328-.132.019-.283.068-.347-.122C526.472,321.752,526.651,321.645,526.749,321.57Z" transform="translate(-465.653 -276.36)" fill="#1e1e1e"/>
    <path id="Path_11155" data-name="Path 11155" d="M607,436.231c.073-.012.191-.059.21-.026.064.111-.024.151-.1.174a.782.782,0,0,1-.108-.148Z" transform="translate(-532.186 -371.079)" fill="#f6ebda"/>
    <path id="Path_11156" data-name="Path 11156" d="M511.388,237.961c.238-.186.328.043.439.215.245,1.749-.142,2.431-1.62,2.6a6.857,6.857,0,0,1-3.345-.024,1.616,1.616,0,0,1-.933-.577c1.249-.323,2.565-.245,3.768-.853.276-.139.6-.161.792-.493h0A1.412,1.412,0,0,0,511.388,237.961Z" transform="translate(-448.667 -207.214)" fill="#d16e37"/>
    <path id="Path_11157" data-name="Path 11157" d="M528.63,183.533a4.7,4.7,0,0,1,1.242-1.389.417.417,0,0,1,.653.045.632.632,0,0,1,.174.669c-.137.328-.366.1-.557.075-.62-.092-.868.561-1.273.886Z" transform="translate(-467.425 -161.034)" fill="#1e1e1e"/>
    <path id="Path_11158" data-name="Path 11158" d="M522.887,190.79l.24.278-1.1,2.278h-.347A6.959,6.959,0,0,1,522.887,190.79Z" transform="translate(-461.682 -168.291)" fill="#3c9454"/>
    <path id="Path_11159" data-name="Path 11159" d="M583.461,208.62h.28c-.184.521-.219,1.134-.712,1.436C582.89,209.464,583.274,209.082,583.461,208.62Z" transform="translate(-512.353 -183.025)" fill="#3c9454"/>
    <path id="Path_11160" data-name="Path 11160" d="M349.513,273.85c.321.45-.033.964.1,1.433a3.543,3.543,0,0,1-2.03.886c-.193,0-.476.118-.537-.224s.174-.385.4-.452A4.227,4.227,0,0,0,349.513,273.85Z" transform="translate(-317.364 -236.927)" fill="#3c9454"/>
    <path id="Path_11161" data-name="Path 11161" d="M500.919,197.006a2.763,2.763,0,0,0-1.481-.651c0-.078-.01-.155-.017-.233l.533-.332h1.264a10.171,10.171,0,0,1,.646.868c.108.174.321.386.174.641-.2.368-.408-.137-.622-.033h-.082l-.293-.194A.139.139,0,0,0,500.919,197.006Z" transform="translate(-443.288 -172.423)" fill="#d16e37"/>
    <path id="Path_11162" data-name="Path 11162" d="M508.8,203.2l.293.194Z" transform="translate(-451.039 -178.546)" fill="#f6ebda"/>
    <path id="Path_11163" data-name="Path 11163" d="M370.81,173.23a24.061,24.061,0,0,1,3.3.556c.3.05.6.092.894.137h.007c-.509.549-1.243.422-1.8.835l-.731-.248a1.341,1.341,0,0,0-.868-.474l-.03.031-.219-.16C371.19,173.676,370.873,173.6,370.81,173.23Z" transform="translate(-337.012 -153.78)" fill="#d16e37"/>
    <path id="Path_11164" data-name="Path 11164" d="M374.05,177.12l.219.16Z" transform="translate(-339.689 -156.995)" fill="#f6ebda"/>
    <path id="Path_11165" data-name="Path 11165" d="M474.85,264.553l.075.045-.071-.049Z" transform="translate(-422.984 -229.242)" fill="#fdfdfd"/>
  </g>
</svg>
