<svg xmlns="http://www.w3.org/2000/svg" width="71.956" height="77.472" viewBox="0 0 71.956 77.472">
  <g id="Ball_Badminton" data-name="Ball Badminton" transform="translate(0.05 0.03)">
    <path id="Path_10912" data-name="Path 10912" d="M223.9,127.418c1.412-.673,2.021-2.093,2.909-3.227a4.525,4.525,0,0,1,3.713-2.014,38.046,38.046,0,0,0,5.361-.838.619.619,0,0,0,.428-.314c.079-.261-.162-.4-.361-.543-1-.733-2.014-1.459-2.992-2.225a17.733,17.733,0,0,1-7.258-13.6,20.866,20.866,0,0,1,2.518-10.765c1.658-3.1,3.177-6.238,3.177-9.856a11.064,11.064,0,0,0-3.147-7.646c-1.568-1.709-1.589-1.669-.308-3.561a4.642,4.642,0,0,0,1.14-2.119h.863l-.054.58c-.553.782-1.069,1.593-1.671,2.334-.553.681-.51,1.147.119,1.805a12.127,12.127,0,0,1,3.6,10.757,20.726,20.726,0,0,1-2.3,6.474,29.765,29.765,0,0,0-1.962,4.31c-2.869,8.248-.819,15.471,5.967,20.98a53.055,53.055,0,0,0,6.078,4.043l-.34.268a5.061,5.061,0,0,0-3.551-.325c-2.054.4-4.134.662-6.561,1.037a15.275,15.275,0,0,1,1.667,1.04c.435.37,1.272.312,1.275,1.156a1.141,1.141,0,0,1-.38.01c-1.227-.435-2.276-2.072-3.438-1.565-1.123.495-1.786,2.029-2.652,3.107a8.108,8.108,0,0,1-.546.663c-.49.492-.443.829.178,1.2,1.065.627,2.086,1.329,3.126,2v.553c-1.537,1.543-2.315,3.592-3.524,5.347-.414.611.189.735.514.924A71.748,71.748,0,0,0,254.5,147.25c14.126,1.426,27.274-1.934,39.783-8.321.756-.387.839-.691.354-1.381-1.166-1.64-2.264-3.325-3.39-4.992l-.54-.5c.9-.532,1.812-1.06,2.716-1.594,1.985-1.176,1.984-1.177.593-2.922-.356-.449-.717-.9-1.073-1.344-1.865-2.348-1.863-2.348-4.478-1.048l-.373-.307c.691-.635,1.7-.821,2.433-1.725l-8.411-1.419-.355-.318a33.258,33.258,0,0,0,7.429-5.611,15.118,15.118,0,0,0,4.093-13.9,24.021,24.021,0,0,0-3.742-8.788c-4.082-6.111-3.473-14.432,1.539-18.031.485-.349.414-.675.072-1.058a17.621,17.621,0,0,0-2.486-2.754c-.553-.4-1.2-.227-1.807-.227q-14.337-.011-28.673,0c-.591,0-1.251.231-1.767-.294h33.1a17.358,17.358,0,0,0,2.348,3.031c.423.553.747.975,0,1.539-4.672,3.543-5.387,9.647-2.94,15.21a29.185,29.185,0,0,0,1.934,3.344c4.006,6.579,5.31,14.473-.064,21.127a24.036,24.036,0,0,1-5.628,5.1c-.436.283-.855.593-1.437,1a12.864,12.864,0,0,0,3.96.87,6.535,6.535,0,0,1,5.338,3.219,7.853,7.853,0,0,0,2.814,3.138v1.723c-4.058,1.39-4.238,1.855-2.006,5.213a2.21,2.21,0,0,0,.249.349c.611.619.68,1.732,1.757,1.921v1.727c-1.875.316-3.43,1.406-5.111,2.167a73.492,73.492,0,0,1-23.6,6.492,67.273,67.273,0,0,1-34.948-6.2c-2.823-1.294-5.416-3.018-8.3-4.19v-1.441c.138-.025.333,0,.4-.082a31.51,31.51,0,0,0,2.952-4.665.533.533,0,0,0-.164-.758c-1.032-.622-1.84-1.671-3.191-1.691Z" transform="translate(-223.94 -70.736)" fill="#363230"/>
    <path id="Path_10913" data-name="Path 10913" d="M293.84,70.684c.515.525,1.175.294,1.767.294q14.337.017,28.673,0c.6,0,1.243-.177,1.808.227l-58.778.055.054-.58Z" transform="translate(-261.362 -70.71)" fill="#865646"/>
    <path id="Path_10914" data-name="Path 10914" d="M245.65,74.565l58.778-.055a17.763,17.763,0,0,1,2.486,2.754c.347.383.414.709-.072,1.058-5.014,3.6-5.624,11.92-1.542,18.031a24.022,24.022,0,0,1,3.742,8.788,15.133,15.133,0,0,1-4.093,13.9,33.175,33.175,0,0,1-7.429,5.611,78.167,78.167,0,0,1-10.04,4.394l-.605-.383-.577-.637c.553-.582,1.13-1.155,1.673-1.752a.537.537,0,0,0,.068-.769.546.546,0,0,0-.872-.026c-.617.591-1.21,1.207-1.814,1.814l-.738-.479c.427-.633.862-1.261,1.279-1.9.214-.329.425-.731.017-1.018-.479-.336-.794.035-1.044.414-.424.637-.837,1.281-1.254,1.92-.26-.064-.489-.326-.789-.119l-.377-.38c.391-.7.793-1.394,1.167-2.1a.585.585,0,1,0-1.012-.561,6.75,6.75,0,0,0-1.156,2.393c-.406-.247-1.028-.04-1.282-.611.322-.691.653-1.368.967-2.06a.6.6,0,0,0-.228-.861c-.388-.207-.663.035-.811.34-.37.764-.691,1.553-1.035,2.33l-.793-.126c.171-.736.361-1.47.508-2.21.08-.4.025-.792-.482-.856-.4-.051-.6.231-.678.583-.177.785-.338,1.572-.507,2.358h-.89c0-.572.035-1.147,0-1.716-.037-.515.246-1.336-.612-1.326-.75,0-.515.771-.535,1.252-.026.619.012,1.243.023,1.858l-.615.138c-.291-.757-.577-1.519-.877-2.271-.164-.414-.369-.852-.926-.613-.472.2-.34.629-.209.993.258.718.537,1.428.808,2.143l-.792.166c-.493-.691-.979-1.394-1.486-2.079-.227-.305-.495-.658-.937-.372s-.285.663-.072,1c.4.646.829,1.281,1.243,1.921a1.2,1.2,0,0,1-.93.431,7.894,7.894,0,0,0-1.459-1.934c-.244-.307-.576-.6-.967-.293-.481.376-.175.762.108,1.105.428.512.867,1.017,1.3,1.52a.749.749,0,0,1-.681.4c-.414-.4-.8-.814-1.243-1.184-.374-.319-.79-.945-1.311-.435-.565.553.131.9.464,1.243.363.376.774.706,1.163,1.055l-.627.471c-.449-.354-.89-.721-1.354-1.057-.372-.268-.8-.731-1.235-.224-.47.553.123.838.474,1.122s.779.553,1.17.821c-.113.32-.423.576-.325.967-.5-.163-1-.322-1.49-.49-3.025-1.026-5.861-2.5-8.808-3.716a53.789,53.789,0,0,1-6.078-4.043c-6.787-5.5-8.841-12.732-5.967-20.98a29.766,29.766,0,0,1,1.962-4.31,20.725,20.725,0,0,0,2.3-6.474,12.131,12.131,0,0,0-3.6-10.757c-.629-.659-.674-1.124-.119-1.805C244.58,76.158,245.1,75.347,245.65,74.565Zm15.29,18.143h0a.329.329,0,0,0,.048.495c2.42,2.524,5.278,3.973,8.861,3.415a6.858,6.858,0,0,1,3.4.236c1.881.66,2.376,2.176,1.3,3.763-1.37,2.021-2.728,4.05-4.092,6.078-.935.572-2.147.709-2.884,1.548-1.452,1.658-2.818,3.382-4.177,5.111-.775.986-.058,1.739.608,2.336s1.681,1.062,2.289.188c1.9-2.732,4.858-4.864,5.063-8.6,1.417-2.029,2.9-4.018,4.23-6.106.722-1.137,1.12-.986,1.921-.075a51.628,51.628,0,0,0,5.31,5.762c.066,3.824,2.811,6.264,4.8,9.06.586.829,1.724.315,2.486-.22.652-.457,1.234-1.206.611-1.95-2.141-2.558-3.4-5.977-6.922-7.211l-5.664-6.5c-.993-1.135-.9-1.934.4-2.716a3.849,3.849,0,0,1,2.608-.583A11.469,11.469,0,0,0,294,87.528c.876-4.6-1.554-8.459-5.65-8.917-7.749-.865-14.4,8.426-11.317,14.757a4.543,4.543,0,0,1-.2,3.889c-.242.565-.553.655-1.058.159-1.124-1.1-1.818-3.114-1.174-4.46,2.564-5.354-1.819-13.722-8.94-14.839A6.6,6.6,0,0,0,258,83.1c-.894,3.583.222,6.708,2.464,9.508C260.584,92.758,260.745,92.849,260.94,92.708Zm15.851,23.31a3.177,3.177,0,1,0-.065-6.329,3.421,3.421,0,0,0-3.35,3.292A3.344,3.344,0,0,0,276.791,116.019Z" transform="translate(-239.702 -74.011)" fill="#eb1e24"/>
    <path id="Path_10915" data-name="Path 10915" d="M234.532,460.07c-1.04-.671-2.061-1.373-3.126-2-.622-.367-.669-.709-.178-1.2a8.1,8.1,0,0,0,.542-.664c.866-1.078,1.529-2.612,2.652-3.107,1.162-.512,2.21,1.13,3.438,1.565a1.142,1.142,0,0,0,.38-.01l.028-.033c-.146.5.326.492.559.622,10.161,5.677,20.939,8.7,32.668,7.383a55.841,55.841,0,0,0,23-8c2.614-1.3,2.612-1.3,4.477,1.048.356.449.717.9,1.073,1.344,1.391,1.745,1.392,1.746-.593,2.922-.9.535-1.811,1.062-2.716,1.594-.3.138-.617.251-.91.4a64.538,64.538,0,0,1-24.8,7.5c-.47.039-1.083-.2-1.4.414l.041-.021a53.241,53.241,0,0,1-6.553-.3l-2.1-.207-1.054-.082a2.273,2.273,0,0,0-1.243-.214l-.756-.073-.977-.213-.529-.072-.908-.207-.533-.082-.908-.225a.33.33,0,0,0-.276-.046l-3.42-1A78.214,78.214,0,0,1,234.532,460.07Zm16.093,5.473a6.492,6.492,0,0,0,2.525.542c.028-.146.055-.293.081-.439l-1.981-.436c-.01-.669-.018-1.337-.029-2.006,0-.327-.124-.561-.5-.529-.33.029-.345.3-.319.529C250.492,463.982,250.141,464.8,250.625,465.543ZM243.5,463c.522.138,1.115.166,1.341.926.587-2.667.587-2.667-1.105-3.239-1.473-.6-1.473-.6-1.47,1v.7C242.287,463.374,242.734,463.507,243.5,463Zm43.691.264c1.082-.728,1.416-1.685.675-2.06a2.734,2.734,0,0,0-2.9.543c-.483.361-1.047,1.188-.463,1.881.757.9,1.642.314,2.452-.066.108-.051.166-.207.247-.314Zm-28.456,1.971c-.518,1.77.577,1.852,1.8,1.817.666-.019,1.486.076,1.511-.877.047-1.886-.434-2.231-2.348-2.375C258.277,463.692,258.8,464.645,258.737,465.231Zm12.923.2c.6.439.377,1.276,1.057,1.31.967.046.552-1.144,1.21-1.49.025.378.039.709.072,1.039a.3.3,0,0,0,.4.286.612.612,0,0,0,.327-.244c.246-.367.07-2.637-.214-2.7-1.216-.268-1.155.829-1.536,1.461-.037.062-.156.075-.286.138-.077-.164-.156-.323-.225-.486-.2-.472-.291-1.019-1.046-.9-.841.138-.532.76-.582,1.222a6.179,6.179,0,0,0,0,1.142c.022.3-.113.742.435.7.392-.029.377-.361.388-.644C271.66,466.018,271.66,465.783,271.66,465.432Zm-3.524-1.381c-.946-.185-1.608.138-1.329,1.329.149.633-.673,1.764.837,1.789,1.611.026,2.543-.535,2.546-1.638,0-1.311-.879-1.532-2.058-1.479Zm10.012.43c.249.214.425.363.6.517.348.3.623.776,1.2.579.67-.229.358-.814.356-1.224,0-.522.276-1.445-.257-1.5-.926-.088-.258,1.022-.745,1.484-.164-.122-.352-.25-.529-.392-.394-.314-.675-.931-1.292-.711-.691.245-.354.919-.336,1.369.019.482-.4,1.373.354,1.4s.195-.982.641-1.522ZM262.9,467.167c.091-.032.21-.036.262-.1a1.393,1.393,0,0,1,2.386-.007.582.582,0,0,0,.512.04c.232-.093.167-.351.064-.488-.613-.811-.59-2.3-1.683-2.46-1.174-.171-1.036,1.366-1.629,2.036a1.6,1.6,0,0,0-.246.512C262.45,467.014,262.623,467.132,262.9,467.167Zm-12.993-1.83c-.427-.915-.789-1.676-1.137-2.444-.238-.528-.442-1.093-1.181-1.013a6.736,6.736,0,0,0-1.5,2.348c.461.805.866-.138,1.276-.055.535.1,1.188.07,1.488.675C249.024,465.189,249.254,465.352,249.9,465.337Zm39.852-4.177a7.808,7.808,0,0,0,1.322.61c.615.138,1.077-.112,1-.812-.059-.552.406-1.456-.315-1.58-.677-.116-.385.8-.53,1.254a.3.3,0,0,1-.115.13c-.751.075-1.207-1.062-1.984-.428-.553.449-.184,1.167-.246,1.763-.025.246-.1.633.359.6.267-.018.39-.232.406-.5S289.7,461.639,289.756,461.16Zm-33.121,5.22c-1.712-.5-1.71-.5-1.977-2.413a1.067,1.067,0,0,0-.138-.532c-.214-.224-.615-.29-.634.087-.046.892-.43,2,.178,2.625A2.215,2.215,0,0,0,256.635,466.38Zm19.722-1.555c-.185-.381.356-1.321-.387-1.322-.9,0-.359.967-.5,1.5a.991.991,0,0,0,0,.427c.068.33-.2.87.39.9s.466-.477.488-.84C276.369,465.307,276.357,465.115,276.357,464.825Zm5.061-2.369c.773.553.617,1.289.644,1.981.01.238.029.495.348.5.12,0,.336-.086.347-.156a8.511,8.511,0,0,0,.22-2.283c-.03-.258-.836-.191-1.555-.037Z" transform="translate(-229.978 -400.218)" fill="#faeb07"/>
    <path id="Path_10916" data-name="Path 10916" d="M297.049,509.606c1.126,1.667,2.224,3.353,3.39,4.992.485.681.4.989-.354,1.381-12.508,6.387-25.656,9.747-39.783,8.321a71.746,71.746,0,0,1-29.018-9.839c-.325-.189-.934-.313-.514-.924,1.209-1.76,1.986-3.8,3.524-5.347a62.711,62.711,0,0,0,18.44,7.77l1.4.325.883.217.537.08.9.215.747.08a1.449,1.449,0,0,0,.978.208l.8.076a3.16,3.16,0,0,0,1.5.224,44.282,44.282,0,0,0,7.807.327c.385-.008.872.206,1.144-.3l-.041.021a2.118,2.118,0,0,0,1.357.294,63.866,63.866,0,0,0,19.68-5.088C292.648,511.642,294.846,510.616,297.049,509.606Zm-58.074,4.7c.615.018,1.16.553,1.968.293a2.763,2.763,0,0,0-2-.96c-.254-.138-.7-.323-.743-.026a6.9,6.9,0,0,0,.041,2.84c.062.233.4.565.691-.019A2.014,2.014,0,0,0,238.975,514.3Zm16.622,7.11c-.033-.789-1.327-1.5-.1-2.4.267-.2.01-.758-.293-1.014a4.408,4.408,0,0,0-2.441-.691c-.24-.033-.329.156-.329.359q0,1.509.01,3.016a.374.374,0,0,0,.327.4.337.337,0,0,0,.414-.276c.309-2.082.818-.6,1.257-.068.232.284.3.729.778.761.492.138,1.079.481,1.478.1.883-.845,1.519-.731,2.115.268a.474.474,0,0,0,.617.206c.276-.138.128-.4.046-.623q-.5-1.334-1-2.673c-.138-.361-.247-.74-.728-.764-.522-.028-.536.437-.727.743-.517.858-.394,2.072-1.43,2.654Zm13.989-1.006a6.8,6.8,0,0,0,.468.641c.43.453.493,1.529,1.316,1.257.776-.255.334-1.187.319-1.8-.017-.681.479-1.886-.358-1.949s-.073,1.243-.6,1.851c-.123-.13-.247-.255-.366-.387-.452-.5-.523-1.647-1.357-1.408-.8.231-.372,1.243-.366,1.894s-.4,1.861.347,1.881C269.844,522.406,269.176,521.2,269.586,520.407Zm-3.391-1.906a1.8,1.8,0,0,0-1.862,1.934c-.022,1.334.754,2.219,1.942,2.162,1.264-.059,1.732-.856,1.754-2.013C268.055,519.269,267.373,518.5,266.195,518.5Zm9.1,3.529a2.108,2.108,0,0,0,2.243-2.243c0-1.061-.443-1.754-1.594-1.8a2.054,2.054,0,0,0-2.1,2.091C273.852,521.135,274.172,522,275.3,522.03Zm10.045-3.886c.747.258.812,1.455,1.7,1.188.8-.242.455-1.073.432-1.633-.023-.617.344-1.763-.254-1.765-1.007,0-.276,1.16-.576,1.735-.032.061-.138.079-.247.138-.21-.249-.414-.514-.641-.754-.276-.293-.443-.812-1.007-.6s-.309.727-.362,1.122a1.688,1.688,0,0,0,0,.572c.138.613-.336,1.743.276,1.761,1,.023.24-1.178.682-1.764Zm-33.755.727c-.414-.879-1.709-.229-1.953-1.282.562-.355,1.047.026,1.544.066.2.017.391.017.459-.211a.341.341,0,0,0-.276-.432c-.7-.167-1.4-.308-2.107-.437a.327.327,0,0,0-.4.3c0,1.09-.466,2.383.209,3.2a3.168,3.168,0,0,0,2.75.6c-.276-.785-.926-.571-1.372-.765-.33-.138-.854-.138-.771-.67.1-.619.573-.3.909-.276.319.039.633.29,1.017-.094Zm36.645-1.85v1.34c0,.361.191.533.553.414a4.049,4.049,0,0,0,2.21-1.243,1.9,1.9,0,0,0,.251-2.271c-.493-.736-1.189-.253-1.832-.171-1.271.16-1.3,1.017-1.178,1.931Zm-43.317.276c.291.617-.485,1.582.646,1.919.706.21,1.484.733,2.155.153.756-.653.553-1.565.188-2.368a2.479,2.479,0,0,0-2.625-1.318c-.666.058-.138,1.055-.361,1.615Zm-.586-1.826a7.4,7.4,0,0,0-2.394-.883c-.373-.117-.449.149-.521.464-.528,2.339.338,3.411,2.875,3.511-.043-.609-.608-.488-.942-.691-.376-.222-1.2-.146-1.014-.749.221-.729.845-.079,1.293-.064.177,0,.39.072.427-.228-.289-.793-1.6-.265-1.768-1.275.678-.4,1.282.512,2.049-.086Zm48.965,1.308c.7.044.782-.369,1-.676a1.51,1.51,0,0,1,1.658-.753c.352.1.66.224.888-.037.3-.34-.106-.591-.255-.858a9.106,9.106,0,0,0-.537-.84c-.663-.945-1.089-.921-1.571.151-.414.943-.751,1.924-1.176,3.014Zm-12.576.778c-.885.182-2.17-.645-2.551.88a9.728,9.728,0,0,0-.028,2.416c0,.283.023.613.414.613s.414-.327.4-.613c-.03-.626.036-1.138.854-1.16.307-.008.786-.061.691-.506-.1-.482-.535-.182-.829-.16-.263.021-.582.2-.671-.236-.077-.381.181-.463.477-.553C279.908,518.1,280.428,518.172,280.718,517.557Zm-21.435,1.09c1.5.04,1.267.99,1.272,1.8,0,.431,0,.862.012,1.292.011.316.138.566.506.54.34-.024.3-.308.314-.532.017-.383-.028-.769.019-1.148.076-.608-.414-1.554.852-1.52.072,0,.2-.2.214-.315a.326.326,0,0,0-.338-.37,4.922,4.922,0,0,0-2.851.25Zm24.5-.086c-.333-.481.373-1.594-.448-1.623s-.276,1.065-.445,1.641a.256.256,0,0,0,0,.138c.191.569-.4,1.658.4,1.649s.267-1.123.492-1.812Zm8.32-2.919a6.076,6.076,0,0,0,.008.855c.04.285-.2.772.293.792s.526-.445.528-.838c0-.571.012-1.142,0-1.713,0-.263.072-.649-.327-.662-.438-.015-.492.361-.5.71-.007.284,0,.561-.005.85Zm-29.13,4.815c.256.6-.394,1.707.474,1.767.561.037.276-1.148.256-1.757s.459-1.731-.4-1.781C262.726,518.662,263.188,519.836,262.975,520.458Z" transform="translate(-229.746 -447.784)" fill="#f8e909"/>
    <path id="Path_10917" data-name="Path 10917" d="M265.7,443.307c0-.844-.84-.786-1.275-1.156a15.286,15.286,0,0,0-1.667-1.04c2.427-.376,4.507-.638,6.561-1.037a5.061,5.061,0,0,1,3.551.325,23.584,23.584,0,0,0,4.621,2.278c4.589,1.8,9.2,3.546,13.823,5.271,1.105.414,1.819,1.9,2.636,1.854.862-.044,1.562-1.46,2.672-1.876,2.467-.923,4.909-1.909,7.365-2.858,3.971-1.532,7.991-2.956,11.626-5.237l8.4,1.421c-.735.9-1.745,1.09-2.433,1.725-1.616.829-3.21,1.7-4.85,2.473-8.819,4.173-18.028,6.256-27.836,5.3a57.985,57.985,0,0,1-21.964-7.139c-.352-.191-.667-.753-1.213-.343Z" transform="translate(-257.441 -388.867)" fill="#47c3ee"/>
    <path id="Path_10918" data-name="Path 10918" d="M284.088,462.877c.546-.414.861.152,1.213.343a57.927,57.927,0,0,0,21.958,7.139c9.808.955,19.023-1.129,27.841-5.306,1.64-.776,3.234-1.647,4.85-2.473l.373.307a55.88,55.88,0,0,1-23.008,8c-11.729,1.312-22.507-1.706-32.668-7.383C284.414,463.369,283.941,463.378,284.088,462.877Z" transform="translate(-275.798 -408.474)" fill="#444239"/>
    <path id="Path_10919" data-name="Path 10919" d="M378.712,437.8c-3.634,2.281-7.654,3.7-11.626,5.237-2.456.949-4.9,1.934-7.365,2.858-1.105.414-1.81,1.832-2.672,1.876-.816.042-1.529-1.439-2.636-1.854-4.626-1.725-9.234-3.469-13.823-5.271a23.273,23.273,0,0,1-4.621-2.278l.34-.268c2.946,1.214,5.782,2.69,8.808,3.716.495.169.993.327,1.488.489.08.014.164.032.249.051q3.348,1.274,6.686,2.56c1.252.484,2.419,1.785,3.467,1.783,1.126,0,2.323-1.275,3.591-1.833,2.051-.9,4.257-1.414,6.231-2.5h-.01a.769.769,0,0,0,.735-.276h0l.765-.214a78.175,78.175,0,0,0,10.04-4.394Z" transform="translate(-320.538 -386.842)" fill="#444239"/>
    <path id="Path_10920" data-name="Path 10920" d="M538.959,515.329c-2.21,1.01-4.4,2.036-6.613,3.028a63.865,63.865,0,0,1-19.68,5.088,2.119,2.119,0,0,1-1.356-.294c.32-.62.934-.378,1.4-.414a64.54,64.54,0,0,0,24.8-7.5c.293-.153.606-.276.91-.4Z" transform="translate(-471.657 -453.507)" fill="#4c4a3d"/>
    <path id="Path_10921" data-name="Path 10921" d="M275.62,512.473a62.712,62.712,0,0,1-18.44-7.77v-.552a78.193,78.193,0,0,0,15.886,7.045q1.71.5,3.42,1A1.307,1.307,0,0,0,275.62,512.473Z" transform="translate(-252.632 -444.302)" fill="#4c4a3d"/>
    <path id="Path_10922" data-name="Path 10922" d="M357.665,114.614a.329.329,0,0,1-.486-.106c-2.242-2.8-3.358-5.925-2.464-9.508a6.607,6.607,0,0,1,7.664-4.98c7.121,1.116,11.5,9.484,8.94,14.839-.644,1.347.05,3.365,1.174,4.46.51.5.816.406,1.058-.159a4.534,4.534,0,0,0,.2-3.889c-3.073-6.331,3.574-15.622,11.323-14.757,4.1.457,6.526,4.317,5.65,8.917a11.469,11.469,0,0,1-12.874,9.215,3.848,3.848,0,0,0-2.608.583c-1.3.779-1.388,1.58-.4,2.716q2.839,3.245,5.664,6.5l-.967.32a51.1,51.1,0,0,1-5.31-5.762c-.8-.912-1.2-1.062-1.922.075-1.329,2.087-2.812,4.076-4.23,6.106a.833.833,0,0,0-.9-.59c1.363-2.025,2.721-4.054,4.092-6.078,1.077-1.587.583-3.1-1.3-3.763a6.907,6.907,0,0,0-3.4-.236c-3.583.553-6.441-.891-8.861-3.415a.329.329,0,0,1-.048-.495,1.724,1.724,0,0,1,2.348,1.192,1.952,1.952,0,0,0,2.184,1.409l.924.03-.265.332a4.184,4.184,0,0,0,2.462.232l-.091-.276,1.609-.283c.363.193.573-.025.768-.285a3.524,3.524,0,0,0,1.274-.92.628.628,0,0,0,.539-.572l.924-1.21c.714-.106.953-1.134.471-2.026l.1-1.2.512.148a2.727,2.727,0,0,0-.62-2.113c-.647-.59-1.423-1.011-.635-2.149.414-.594-.245-.593-.691-.424l-1.071-1.642c.249-.33.442-.891-.138-.775-1.432.283-1.332-.778-1.823-1.531-.319-.489-.988-1.52-2.055-.866l-1.006-.341.1-.5a7.321,7.321,0,0,1-2.232-.261c-.206-.062-.062.3-.08.463l-1.519.34c-.265-.138-.381-.584-.778-.435s-.206.43-.109.68l-1.182.866c-.2-.173-.4-.488-.691-.221-.251.228-.047.519.041.779l-.787,1.449c-.214-.138-.591-.51-.637-.094a11.29,11.29,0,0,1-.381,1.63c-.1.37.29.221.5.214l-.042,1.459-.351-.247a1.735,1.735,0,0,0,.289,2.072c.9.606,1.16,1.162.761,2.156-.224.553.138.659.609.453l1.133,1.627A1.282,1.282,0,0,0,357.665,114.614Zm31.357-3.923a4.205,4.205,0,0,0,.553-2.072c.939-.239,1.217-.769.388-1.381-.753-.553-.891-.979-.253-1.713.414-.471.336-.847-.432-.6q-.378-.612-.76-1.223c.138-.214.439-.4.207-.691-.3-.387-.552.028-.829.086l-1.149-.9c.37-.818-.047-.71-.626-.6-.372.075-.771.669-1.2-.061-.543-.928-1.355-.722-2.084-.22-.553.384-1,.749-1.772.354-.488-.25-.454.239-.325.582l-1.756.993c-.235-.1-.464-.367-.728-.084-.2.211-.061.425.057.627l-1.507,1.43c-.211-.186-.691-.381-.634-.072.285,1.409-.753,1.815-1.569,2.467-.206.166-.978.843.158.993a5.923,5.923,0,0,0-.377,2.053c-.992.184-1.229.642-.506,1.426.495.535.937,1,.276,1.778-.474.553-.186.793.477.584l.872,1.16c0,.343.249.464.51.576a3.491,3.491,0,0,0,1.445.819c.338.445,1,.191,1.352.664.772,1.032,1.658.885,2.55.148.421-.351.749-.543,1.339-.155.463.305.677-.058.414-.553l1.8-1.1c.222.22.477.5.8.22.276-.24-.046-.479-.128-.714l1.495-1.332c.355.192,1,.249.7-.24-.674-1.116.24-1.271.767-1.649a2.522,2.522,0,0,0,1.115-1.181c.385-1.08-.5-.167-.624-.43Z" transform="translate(-336.427 -95.917)" fill="#fde108"/>
    <path id="Path_10923" data-name="Path 10923" d="M433.76,450.755h0a.609.609,0,0,0-.735.276h.01l-19.979-.008c-.084-.019-.169-.037-.249-.051-.1-.392.214-.648.327-.967a1.459,1.459,0,0,0,.945-.66l.627-.472a1.934,1.934,0,0,0,.921-.684.747.747,0,0,0,.681-.4l.593-.1a1.51,1.51,0,0,0,1.294.479h10.49c.467,0,1,.084,1.177-.553.3-.207.529.055.789.119l1,.587.738.479.945.734.577.637C433.868,450.36,433.816,450.557,433.76,450.755Z" transform="translate(-386.746 -395.506)" fill="#f9b58b"/>
    <path id="Path_10924" data-name="Path 10924" d="M400.732,307.46a.831.831,0,0,1,.9.59c-.2,3.73-3.165,5.864-5.063,8.6-.608.874-1.629.4-2.289-.188s-1.381-1.35-.608-2.336c1.359-1.732,2.725-3.462,4.177-5.111C398.586,308.169,399.8,308.032,400.732,307.46Z" transform="translate(-369.979 -274.782)" fill="#2b2525"/>
    <path id="Path_10925" data-name="Path 10925" d="M536.35,306.7l.967-.32c3.52,1.234,4.781,4.652,6.922,7.211.623.745.041,1.493-.611,1.95-.761.535-1.9,1.043-2.486.22C539.161,312.965,536.416,310.524,536.35,306.7Z" transform="translate(-493.238 -273.851)" fill="#2b2525"/>
    <path id="Path_10926" data-name="Path 10926" d="M455.561,437.037c-.181.634-.71.552-1.177.552h-10.49a1.522,1.522,0,0,1-1.294-.479l.428-.3a1.2,1.2,0,0,0,.928-.431c.4-.214.927-.077,1.254-.475l.79-.166,1.2-.251.615-.138,1.129-.068h.89l1.159.127.793.126,1.105.25c.254.571.876.363,1.282.611.369-.039.588.466,1,.276Z" transform="translate(-412.438 -384.946)" fill="#fdede2"/>
    <path id="Path_10927" data-name="Path 10927" d="M471.44,335.549a3.34,3.34,0,0,1-3.415-3.031,3.419,3.419,0,0,1,6.834,0A3.36,3.36,0,0,1,471.44,335.549Zm-.021-5.289a2.445,2.445,0,0,0-2.634,2.413,2.691,2.691,0,0,0,5.332-.216,2.474,2.474,0,0,0-2.7-2.2Z" transform="translate(-434.351 -293.541)" fill="#444239"/>
    <path id="Path_10928" data-name="Path 10928" d="M444.641,423.927c-.327.4-.856.261-1.254.475-.414-.641-.837-1.275-1.243-1.922-.213-.341-.355-.728.072-1s.71.066.937.372C443.661,422.533,444.148,423.234,444.641,423.927Z" transform="translate(-411.868 -372.961)" fill="#fde108"/>
    <path id="Path_10929" data-name="Path 10929" d="M462.624,418.413l-1.2.251c-.276-.714-.553-1.424-.807-2.142-.131-.365-.264-.792.209-.993.553-.239.761.2.926.613C462.047,416.9,462.332,417.656,462.624,418.413Z" transform="translate(-427.857 -367.864)" fill="#fde108"/>
    <path id="Path_10930" data-name="Path 10930" d="M555.685,444.762l-.945-.733c.6-.607,1.2-1.223,1.814-1.814a.546.546,0,0,1,.872.026.537.537,0,0,1-.068.769C556.815,443.607,556.244,444.18,555.685,444.762Z" transform="translate(-509.088 -390.746)" fill="#fde108"/>
    <path id="Path_10931" data-name="Path 10931" d="M543.143,434.118l-1-.587c.414-.64.829-1.283,1.254-1.92.25-.376.565-.746,1.044-.414.414.287.2.691-.017,1.018C544,432.854,543.57,433.485,543.143,434.118Z" transform="translate(-498.228 -381.315)" fill="#fde108"/>
    <path id="Path_10932" data-name="Path 10932" d="M527.46,426.213c-.414.195-.631-.309-1-.276a6.706,6.706,0,0,1,1.156-2.393.585.585,0,1,1,1.013.561C528.253,424.819,527.851,425.513,527.46,426.213Z" transform="translate(-484.714 -374.496)" fill="#fde108"/>
    <path id="Path_10933" data-name="Path 10933" d="M496.159,417.011,495,416.883c.169-.786.33-1.573.507-2.358.08-.352.276-.634.678-.583.507.065.562.461.482.856C496.519,415.541,496.33,416.274,496.159,417.011Z" transform="translate(-457.6 -366.55)" fill="#fde108"/>
    <path id="Path_10934" data-name="Path 10934" d="M510.285,420.193l-1.105-.25c.343-.778.664-1.566,1.035-2.33.148-.305.423-.553.811-.34a.6.6,0,0,1,.228.861C510.938,418.824,510.607,419.515,510.285,420.193Z" transform="translate(-469.821 -369.357)" fill="#fde108"/>
    <path id="Path_10935" data-name="Path 10935" d="M428.96,431.742l-.428.3-.593.1c-.435-.506-.874-1.01-1.3-1.52-.283-.34-.588-.727-.108-1.105.4-.309.728-.014.967.293A7.57,7.57,0,0,1,428.96,431.742Z" transform="translate(-398.37 -379.87)" fill="#fde108"/>
    <path id="Path_10936" data-name="Path 10936" d="M481.246,416.331l-1.129.068c-.011-.619-.05-1.243-.023-1.858.019-.481-.216-1.243.535-1.252.858-.01.575.811.612,1.326C481.281,415.183,481.248,415.759,481.246,416.331Z" transform="translate(-444.736 -365.993)" fill="#faeb07"/>
    <path id="Path_10937" data-name="Path 10937" d="M404.915,451.2a1.459,1.459,0,0,1-.945.66c-.391-.276-.8-.521-1.17-.819s-.943-.57-.474-1.122c.432-.507.863-.044,1.235.224C404.026,450.483,404.466,450.851,404.915,451.2Z" transform="translate(-377.576 -397.371)" fill="#fde108"/>
    <path id="Path_10938" data-name="Path 10938" d="M416.145,440.97a1.934,1.934,0,0,1-.921.684c-.39-.348-.8-.678-1.163-1.054-.333-.344-1.029-.691-.464-1.243.521-.51.937.116,1.311.435C415.341,440.156,415.733,440.573,416.145,440.97Z" transform="translate(-387.257 -388.292)" fill="#fde108"/>
    <path id="Path_10939" data-name="Path 10939" d="M564.6,467.137c.054-.2.108-.4.16-.6l.605.383Z" transform="translate(-517.586 -411.887)" fill="#ed763f"/>
    <path id="Path_10940" data-name="Path 10940" d="M431.628,532.537c.062-.586-.46-1.539.949-1.435,1.919.138,2.4.489,2.348,2.375-.025.953-.845.858-1.511.877C432.205,534.4,431.11,534.306,431.628,532.537Z" transform="translate(-402.868 -467.524)" fill="#4c4a3d"/>
    <path id="Path_10941" data-name="Path 10941" d="M520.7,531.478v.829c-.011.283,0,.615-.388.644-.552.04-.414-.406-.435-.7a6.178,6.178,0,0,1,0-1.142c.05-.463-.26-1.09.582-1.223.754-.117.845.43,1.046.9.069.163.148.322.225.486.13-.057.249-.069.286-.138.381-.63.32-1.729,1.536-1.461.285.063.46,2.333.214,2.7a.612.612,0,0,1-.327.245.3.3,0,0,1-.4-.286c-.033-.33-.047-.66-.072-1.039-.653.347-.246,1.536-1.21,1.49C521.071,532.747,521.291,531.91,520.7,531.478Z" transform="translate(-479.016 -466.263)" fill="#4c4a3d"/>
    <path id="Path_10942" data-name="Path 10942" d="M491.59,532.691c1.173-.05,2.058.171,2.054,1.479,0,1.105-.935,1.658-2.546,1.638-1.51-.025-.691-1.156-.837-1.789C489.982,532.829,490.644,532.5,491.59,532.691Zm-.489,1.633c.041.38-.156.978.656.876.58-.073.995-.307,1.013-.967s-.29-.932-.932-.986c-.863-.07-.725.512-.736,1.075Z" transform="translate(-453.436 -468.858)" fill="#444239"/>
    <path id="Path_10943" data-name="Path 10943" d="M566.055,525.915c-.446.542.123,1.544-.645,1.52s-.334-.915-.354-1.4c-.018-.45-.349-1.125.336-1.369.616-.22.9.4,1.292.711.177.138.365.276.529.392.486-.462-.181-1.572.744-1.484.54.052.256.975.257,1.5,0,.414.314.995-.356,1.224-.579.2-.854-.276-1.2-.579Z" transform="translate(-517.889 -461.655)" fill="#444239"/>
    <path id="Path_10944" data-name="Path 10944" d="M460.261,536.686c-.276-.036-.446-.153-.333-.463a1.6,1.6,0,0,1,.246-.512c.593-.67.454-2.21,1.629-2.036,1.093.159,1.069,1.649,1.682,2.46.1.138.169.4-.064.488a.582.582,0,0,1-.513-.04,1.393,1.393,0,0,0-2.386.007C460.471,536.651,460.352,536.655,460.261,536.686Z" transform="translate(-427.342 -469.737)" fill="#444239"/>
    <path id="Path_10945" data-name="Path 10945" d="M344.657,520.673c-.649.015-.88-.148-1.051-.492-.3-.6-.953-.575-1.488-.675-.414-.077-.815.861-1.276.055a6.811,6.811,0,0,1,1.5-2.348c.739-.08.943.485,1.181,1.013C343.868,519,344.23,519.758,344.657,520.673Z" transform="translate(-324.731 -455.553)" fill="#444239"/>
    <path id="Path_10946" data-name="Path 10946" d="M390.67,562.6a1.3,1.3,0,0,1,.874-.276.33.33,0,0,1,.276.046,1.114,1.114,0,0,0,.91.229l.533.082a1.146,1.146,0,0,0,.908.207l.529.072a1.252,1.252,0,0,0,.974.209l.756.073a1.662,1.662,0,0,0,1.243.214l1.054.081a3.732,3.732,0,0,0,2.094.21,53.24,53.24,0,0,0,6.553.3c-.276.507-.758.293-1.144.3a44.3,44.3,0,0,1-7.807-.327,2.15,2.15,0,0,0-1.5-.224l-.8-.076a1.281,1.281,0,0,0-.978-.209l-.747-.08a1.139,1.139,0,0,0-.9-.216l-.537-.08a1.141,1.141,0,0,0-.883-.217Z" transform="translate(-367.682 -494.429)" fill="#444239"/>
    <path id="Path_10947" data-name="Path 10947" d="M620.145,512.978c-.081.106-.138.263-.247.314-.809.38-1.695.967-2.452.066-.584-.691-.021-1.519.463-1.881a2.733,2.733,0,0,1,2.9-.543c.74.374.406,1.332-.675,2.06-.3-.2-.062-.4,0-.6.118-.374.228-.8-.207-.99a1.276,1.276,0,0,0-1.4.414.812.812,0,0,0-.276,1.011c.264.495.68.338,1.112.222C619.6,512.99,619.842,512.512,620.145,512.978Z" transform="translate(-562.917 -449.951)" fill="#4c4a3d"/>
    <path id="Path_10948" data-name="Path 10948" d="M651.207,500.889c-.048.479-.083.757-.1,1.035s-.138.485-.406.5c-.456.032-.384-.355-.359-.6.062-.6-.3-1.314.246-1.763.776-.634,1.232.5,1.984.428a.3.3,0,0,0,.115-.13c.145-.457-.146-1.37.53-1.254.721.124.256,1.028.315,1.58.076.7-.387.954-1,.812A7.3,7.3,0,0,1,651.207,500.889Z" transform="translate(-591.428 -439.947)" fill="#444239"/>
    <path id="Path_10949" data-name="Path 10949" d="M319.889,508.61c1.695.572,1.695.572,1.105,3.239-.227-.76-.819-.781-1.341-.926A1.564,1.564,0,0,1,319.889,508.61Z" transform="translate(-306.131 -448.146)" fill="#4c4a3d"/>
    <path id="Path_10950" data-name="Path 10950" d="M399.046,530.333a2.211,2.211,0,0,1-2.575-.236c-.608-.618-.224-1.73-.178-2.625.019-.377.414-.311.634-.087a.984.984,0,0,1,.138.532C397.336,529.831,397.334,529.831,399.046,530.333Z" transform="translate(-372.388 -464.171)" fill="#363230"/>
    <path id="Path_10951" data-name="Path 10951" d="M314.693,506.3a1.562,1.562,0,0,0-.233,2.314c-.768.511-1.216.378-1.234-.615v-.7C313.221,505.693,313.221,505.693,314.693,506.3Z" transform="translate(-300.935 -445.832)" fill="#444239"/>
    <path id="Path_10952" data-name="Path 10952" d="M554.3,530.352c0,.29.01.482,0,.671-.022.363.081.872-.488.84s-.322-.573-.389-.9a.987.987,0,0,1,0-.427c.138-.532-.4-1.5.5-1.5C554.657,529.026,554.116,529.971,554.3,530.352Z" transform="translate(-507.919 -465.745)" fill="#4c4a3d"/>
    <path id="Path_10953" data-name="Path 10953" d="M596.66,520.6c.72-.153,1.519-.221,1.558.037a8.516,8.516,0,0,1-.22,2.283c-.011.07-.227.157-.347.156-.319,0-.339-.258-.348-.5C597.277,521.891,597.434,521.15,596.66,520.6Z" transform="translate(-545.217 -458.364)" fill="#363230"/>
    <path id="Path_10954" data-name="Path 10954" d="M372.073,525.881c-.483-.74-.138-1.561-.222-2.34-.026-.225-.011-.5.319-.529.376-.032.5.2.5.529.011.669.019,1.337.029,2.006Z" transform="translate(-351.426 -460.556)" fill="#363230"/>
    <path id="Path_10955" data-name="Path 10955" d="M373.72,541.714l.626-.334,1.981.437c-.026.146-.054.293-.082.439A6.494,6.494,0,0,1,373.72,541.714Z" transform="translate(-353.073 -476.389)" fill="#4c4a3d"/>
    <path id="Path_10956" data-name="Path 10956" d="M451.1,571.42a3.781,3.781,0,0,1-2.094-.21Z" transform="translate(-417.963 -502.099)" fill="#4c4a3d"/>
    <path id="Path_10957" data-name="Path 10957" d="M433.623,569.2a1.656,1.656,0,0,1-1.243-.214A2.274,2.274,0,0,1,433.623,569.2Z" transform="translate(-403.63 -500.168)" fill="#4c4a3d"/>
    <path id="Path_10958" data-name="Path 10958" d="M420.8,567.239a1.247,1.247,0,0,1-.974-.209Z" transform="translate(-392.814 -498.496)" fill="#4c4a3d"/>
    <path id="Path_10959" data-name="Path 10959" d="M410.338,565.217a1.146,1.146,0,0,1-.908-.207Z" transform="translate(-383.85 -496.755)" fill="#4c4a3d"/>
    <path id="Path_10960" data-name="Path 10960" d="M399.89,562.989a1.125,1.125,0,0,1-.91-.229Z" transform="translate(-374.844 -494.816)" fill="#4c4a3d"/>
    <path id="Path_10961" data-name="Path 10961" d="M506.054,585.136c-.414.79.258,2-.593,1.979-.74-.015-.34-1.213-.347-1.869s-.432-1.658.366-1.894c.829-.239.9.91,1.357,1.407.119.138.243.257.366.387.524-.609-.224-1.915.6-1.851s.341,1.268.358,1.949c.015.6.457,1.533-.319,1.8-.829.276-.887-.8-1.316-1.257A6.8,6.8,0,0,1,506.054,585.136Z" transform="translate(-466.215 -512.513)" fill="#4c4a3d"/>
    <path id="Path_10962" data-name="Path 10962" d="M476.489,582.83c1.178,0,1.861.768,1.834,2.072-.022,1.156-.49,1.953-1.754,2.013-1.188.057-1.964-.829-1.942-2.162A1.8,1.8,0,0,1,476.489,582.83Zm.989,2.192c0-.829-.18-1.442-.967-1.456s-1.029.611-1.032,1.275.21,1.275,1.01,1.3C477.319,586.169,477.456,585.542,477.478,585.022Z" transform="translate(-440.041 -512.114)" fill="#444239"/>
    <path id="Path_10963" data-name="Path 10963" d="M544.931,583.21c-1.129-.033-1.449-.9-1.453-1.942a2.054,2.054,0,0,1,2.1-2.091c1.151.036,1.59.729,1.594,1.8A2.1,2.1,0,0,1,544.931,583.21Zm1.4-2.173c-.014-.568-.138-1.105-.829-1.105-.861,0-1.152.616-1.17,1.347-.015.606.185,1.234.932,1.189.822-.047,1.087-.671,1.071-1.431Z" transform="translate(-499.381 -508.964)" fill="#444239"/>
    <path id="Path_10964" data-name="Path 10964" d="M409.115,582.709c1.036-.582.908-1.8,1.437-2.654.191-.307.2-.771.727-.743.481.024.6.4.728.764q.5,1.336,1,2.673c.083.221.229.482-.046.623a.474.474,0,0,1-.617-.206c-.6-1-1.232-1.113-2.115-.268-.4.383-.986.044-1.478-.1Z" transform="translate(-383.264 -509.081)" fill="#4c4a3d"/>
    <path id="Path_10965" data-name="Path 10965" d="M620.525,566.434c-.442.586.318,1.787-.67,1.76-.619-.018-.146-1.148-.276-1.761a1.69,1.69,0,0,1,0-.572c.052-.4-.206-.906.362-1.122s.729.307,1.007.6c.229.24.431.506.641.754.1-.055.216-.073.247-.138.305-.575-.431-1.739.576-1.735.6,0,.231,1.148.254,1.766.022.559.369,1.391-.432,1.633C621.338,567.889,621.273,566.693,620.525,566.434Z" transform="translate(-564.926 -496.074)" fill="#4c4a3d"/>
    <path id="Path_10966" data-name="Path 10966" d="M391.718,578.3l-.365.091c-.478-.032-.546-.477-.778-.761-.439-.536-.948-2.014-1.257.068a.337.337,0,0,1-.414.276.374.374,0,0,1-.327-.4q-.017-1.506-.01-3.016c0-.2.088-.392.329-.359a4.363,4.363,0,0,1,2.441.691c.3.256.559.818.293,1.014C390.391,576.8,391.685,577.509,391.718,578.3Zm-.946-2.779c-.174-.467-.64-.439-1.033-.5-.326-.051-.377.233-.34.457.094.58.59.492.985.511C390.641,576,390.816,575.85,390.772,575.518Z" transform="translate(-365.868 -504.669)" fill="#444239"/>
    <path id="Path_10967" data-name="Path 10967" d="M364.32,571.17c-.384.384-.7.138-1.013.1-.336-.035-.814-.35-.909.276-.083.537.441.526.771.67.446.195,1.093-.019,1.372.765a3.169,3.169,0,0,1-2.75-.6c-.674-.819-.214-2.112-.209-3.2a.327.327,0,0,1,.4-.3c.706.129,1.409.276,2.107.437a.341.341,0,0,1,.276.432c-.068.228-.262.228-.459.211-.5-.04-.982-.421-1.544-.066C362.609,570.941,363.911,570.292,364.32,571.17Z" transform="translate(-342.476 -500.084)" fill="#4c4a3d"/>
    <path id="Path_10968" data-name="Path 10968" d="M647.386,558.612c-.119-.914-.092-1.771,1.185-1.934.642-.082,1.339-.565,1.832.171a1.894,1.894,0,0,1-.251,2.271,4.077,4.077,0,0,1-2.21,1.243c-.359.12-.543-.052-.552-.414C647.379,559.522,647.386,559.091,647.386,558.612Zm.836.046c.34.094-.46.924.427.787a1.3,1.3,0,0,0,1.142-1.415c0-.481-.149-.829-.736-.807C648.14,557.269,648.176,557.9,648.221,558.658Z" transform="translate(-588.896 -489.375)" fill="#4c4a3d"/>
    <path id="Path_10969" data-name="Path 10969" d="M334.09,563.98c.222-.553-.305-1.557.359-1.613a2.471,2.471,0,0,1,2.625,1.318c.365.8.568,1.714-.188,2.368-.671.58-1.449.057-2.155-.153C333.605,565.561,334.382,564.6,334.09,563.98Zm.894.138c-.044.707-.128,1.381.807,1.424.745.037.691-.515.706-.982.022-.775-.329-1.359-1.137-1.363-.7,0-.254.666-.376.927Z" transform="translate(-318.917 -494.465)" fill="#444239"/>
    <path id="Path_10970" data-name="Path 10970" d="M310.741,555.261c-.767.6-1.37-.309-2.044.093.17,1.01,1.479.482,1.768,1.275-.037.3-.25.233-.427.228-.448-.015-1.072-.666-1.293.064-.184.6.638.526,1.014.749.334.2.9.076.942.691-2.536-.1-3.4-1.173-2.875-3.511.072-.315.148-.582.521-.464A7.351,7.351,0,0,1,310.741,555.261Z" transform="translate(-296.154 -487.572)" fill="#444239"/>
    <path id="Path_10971" data-name="Path 10971" d="M684.32,546.386c.424-1.09.761-2.072,1.184-3.013.482-1.072.907-1.1,1.571-.151a9.091,9.091,0,0,1,.537.84c.149.267.553.518.256.858-.228.261-.536.138-.888.037a1.5,1.5,0,0,0-1.657.753C685.1,546.017,685.023,546.43,684.32,546.386Z" transform="translate(-620.768 -477.389)" fill="#4c4a3d"/>
    <path id="Path_10972" data-name="Path 10972" d="M576.757,575.569c-.29.622-.811.546-1.243.68-.3.091-.553.173-.477.553.09.439.414.257.671.236.3-.022.731-.322.829.16.094.445-.385.5-.691.506-.818.022-.884.535-.854,1.16.014.286,0,.613-.4.613s-.414-.33-.414-.613a9.729,9.729,0,0,1,.028-2.416C574.587,574.917,575.871,575.745,576.757,575.569Z" transform="translate(-525.785 -505.796)" fill="#4c4a3d"/>
    <path id="Path_10973" data-name="Path 10973" d="M438.08,581.685a4.962,4.962,0,0,1,2.851-.254.326.326,0,0,1,.338.37c-.015.117-.138.316-.214.315-1.261-.033-.776.913-.852,1.519-.047.379,0,.765-.019,1.148-.01.224.026.508-.314.532-.373.026-.495-.224-.506-.54-.015-.43-.01-.861-.012-1.292C439.347,582.674,439.588,581.725,438.08,581.685Z" transform="translate(-408.543 -510.829)" fill="#4c4a3d"/>
    <path id="Path_10974" data-name="Path 10974" d="M285.432,547.117a2.014,2.014,0,0,1-.043,2.127c-.289.584-.628.253-.691.019a6.9,6.9,0,0,1-.041-2.84c.046-.3.489-.115.743.026C285.41,546.672,285.424,546.895,285.432,547.117Z" transform="translate(-276.204 -480.599)" fill="#444239"/>
    <path id="Path_10975" data-name="Path 10975" d="M609.681,573.106c-.225.691.307,1.8-.492,1.808s-.21-1.08-.4-1.649a.258.258,0,0,1,0-.138c.163-.576-.365-1.671.445-1.641S609.342,572.626,609.681,573.106Z" transform="translate(-555.642 -502.336)" fill="#4c4a3d"/>
    <path id="Path_10976" data-name="Path 10976" d="M675.541,552.314v-.856c0-.35.058-.725.5-.71.4.013.321.4.327.662.015.57,0,1.142,0,1.713,0,.394-.032.858-.528.838s-.253-.507-.293-.792A6.076,6.076,0,0,1,675.541,552.314Z" transform="translate(-613.182 -484.462)" fill="#4c4a3d"/>
    <path id="Path_10977" data-name="Path 10977" d="M464.8,585.946c.213-.624-.246-1.805.334-1.771.854.05.367,1.155.4,1.781s.305,1.8-.256,1.757C464.413,587.656,465.056,586.549,464.8,585.946Z" transform="translate(-431.572 -513.272)" fill="#2b2525"/>
    <path id="Path_10978" data-name="Path 10978" d="M290.862,548.277c-.011-.222-.022-.445-.032-.667a2.747,2.747,0,0,1,2,.96C292.022,548.824,291.477,548.3,290.862,548.277Z" transform="translate(-281.633 -481.759)" fill="#865646"/>
    <path id="Path_10979" data-name="Path 10979" d="M435.93,572.913a2.149,2.149,0,0,1,1.5.224A3.16,3.16,0,0,1,435.93,572.913Z" transform="translate(-406.69 -503.54)" fill="#4c4a3d"/>
    <path id="Path_10980" data-name="Path 10980" d="M400.83,566.7a1.146,1.146,0,0,1,.883.217Z" transform="translate(-376.438 -498.203)" fill="#4c4a3d"/>
    <path id="Path_10981" data-name="Path 10981" d="M411.11,568.828a1.166,1.166,0,0,1,.9.215Z" transform="translate(-385.298 -500.036)" fill="#4c4a3d"/>
    <path id="Path_10982" data-name="Path 10982" d="M423.06,570.917a1.278,1.278,0,0,1,.978.209A1.448,1.448,0,0,1,423.06,570.917Z" transform="translate(-395.597 -501.835)" fill="#4c4a3d"/>
    <path id="Path_10983" data-name="Path 10983" d="M414.76,472.78l19.979.008c-1.974,1.087-4.18,1.6-6.231,2.5-1.271.552-2.469,1.833-3.592,1.833-1.048,0-2.21-1.3-3.467-1.783Q418.108,474.054,414.76,472.78Z" transform="translate(-388.444 -417.265)" fill="#ed763f"/>
    <path id="Path_10984" data-name="Path 10984" d="M559.32,470.986a.6.6,0,0,1,.735-.276A.783.783,0,0,1,559.32,470.986Z" transform="translate(-513.035 -415.459)" fill="#ed763f"/>
    <path id="Path_10985" data-name="Path 10985" d="M494.928,122.187c-.261-.112-.511-.233-.51-.576.439-.325,1.207-.459.512-1.305-.616-.749-.974-.373-1.381.145-.663.209-.95-.028-.477-.584.658-.776.215-1.243-.276-1.778-.724-.783-.486-1.243.506-1.426,1.591-.993,1.591-.993.377-2.053-1.135-.151-.363-.829-.157-.993.816-.652,1.854-1.058,1.569-2.467-.062-.309.423-.115.634.072.876.984,1.105-.3,1.611-.507.641-.258.243-.642-.1-.923-.117-.2-.253-.414-.057-.627.264-.276.493-.021.728.084.151.333.322.89.743.425.381-.414,1.569-.34,1.025-1.423-.13-.343-.163-.829.325-.582.771.4,1.214.03,1.772-.354.729-.5,1.542-.709,2.084.22.427.729.829.138,1.2.061.579-.115,1-.222.626.6-.6.2-.855.452-.361,1.094.681.884,1.062.286,1.51-.2.276-.058.524-.472.829-.086.232.3-.075.481-.206.691-.414.327-1.35.338-.674,1.29.566.8.982.5,1.432-.068.768-.247.843.128.432.6-.638.734-.5,1.153.253,1.713.829.616.553,1.147-.388,1.381-.68.559-2.187.9-.553,2.072.12.262,1.01-.651.624.428a2.522,2.522,0,0,1-1.115,1.181c-.526.378-1.441.533-.767,1.649.294.489-.348.432-.7.24-.812-.942-1.1.222-1.583.441-.576.257-.358.63.088.891.083.235.4.474.128.714-.32.276-.575,0-.8-.227-.213-.508-.577-.678-.93-.214-.314.414-1.408.343-.859,1.311.264.5.05.862-.414.553-.59-.388-.917-.2-1.339.155-.89.738-1.778.884-2.55-.148-.354-.474-1.014-.22-1.352-.664.821-.553.036-.888-.225-1.184C495.562,121.158,495.333,122.038,494.928,122.187Zm11.88-10.1c-.391-.414-.807-1.079-1.014-1.019-.637.182-1.409.508-1.508,1.263-.047.351.449,1.036.885.9a6.512,6.512,0,0,0,1.633-1.147Zm-1.6-1.721c-.228-.456-.506-1.054-.928-1.017a1.7,1.7,0,0,0-1.468,1.166.906.906,0,0,0,.819.974c.645-.07,1.08-.687,1.573-1.123Zm-5.94,1.745c-.452-.442-.641-1.144-1.141-.967-.564.206-1.357.489-1.337,1.261.008.355.391,1.042.924.844a6.731,6.731,0,0,0,1.55-1.138Zm2.072,6.907c-.4-.349-.553-1.084-1.053-.9-.573.206-1.315.553-1.381,1.26-.028.3.425,1.021.939.868a2.736,2.736,0,0,0,1.486-1.225Zm3.778-.023c-.381-.3-.539-1.031-1.018-.914a2,2,0,0,0-1.47,1.243c-.077.276.472,1,.917.919A2.835,2.835,0,0,0,505.113,119Zm-5.275-7.4a2.863,2.863,0,0,0,1.5-1.232c.156-.384-.414-1-.807-.985a1.692,1.692,0,0,0-1.482,1.134C498.92,110.936,499.449,111.3,499.845,111.6Zm3.177.515c-.439-.441-.624-1.13-1.123-.981-.587.175-1.339.511-1.361,1.243-.011.338.4,1.043.917.863a6.586,6.586,0,0,0,1.568-1.131Zm5.4,1.945c-.7-.761-.959-1.845-1.968-.821-.343.348-1.151.482-.484,1.271,1.133,1.326,1.379-.486,2.453-.456Zm-11.49-.327c-.439-.225-.553-1-1.068-.829-.577.2-1.344.521-1.373,1.258-.014.348.414,1.044.928.861a2.709,2.709,0,0,0,1.514-1.3Zm2.278,1.369c.414-.488,1.243-.644,1.381-1.314.055-.265-.471-1.015-.926-.908-.608.138-1.333.528-1.43,1.225-.05.354.394.834.975.99Zm-2.411,1.747c.6-.326,1.287-.638,1.5-1.251.117-.336-.463-.988-.855-.959a1.8,1.8,0,0,0-1.486,1.167C495.828,116.185,496.363,116.591,496.8,116.851Zm9.117-1.315c-.338-.333-.539-1.021-.989-.945a1.846,1.846,0,0,0-1.464,1.206c-.1.359.46,1.04.861.959a2.994,2.994,0,0,0,1.591-1.225Zm-9.808,1.781c-.331-.358-.553-1.043-1-.931a1.856,1.856,0,0,0-1.434,1.243c-.066.32.437,1.024.912.912a2.766,2.766,0,0,0,1.521-1.229Zm6.515-1.037c-.553.356-1.278.631-1.442,1.278-.088.345.467,1.04.868.967a2,2,0,0,0,1.484-1.218c.09-.309-.435-.805-.914-1.032Zm-.443-6.419c.523-.385,1.243-.649,1.435-1.274a.851.851,0,0,0-.858-.917,1.642,1.642,0,0,0-1.438,1.126c-.11.377.413.769.855,1.059Zm-6.1,10.487c.514-.388,1.282-.619,1.408-1.293.061-.326-.47-1.035-.9-.928a1.947,1.947,0,0,0-1.457,1.231c-.08.291.407.816.941.985Zm5.816-6.224c.363.305.566,1.055.984.894.579-.225,1.366-.553,1.432-1.3.025-.291-.427-1-.931-.847a2.419,2.419,0,0,0-1.49,1.247Zm-3.924,8.576c.5,1.014,1.042,1.381,1.985.519.495-.454.68-.782.138-1.243-1.164-.966-1.394.568-2.129.718Zm9.454-5.494c-.468-.258-.553-1.042-1.105-.855-.584.2-1.308.568-1.381,1.268-.028.293.437,1.024.932.868a2.985,2.985,0,0,0,1.549-1.286Zm-8.679-.906c-.414.46-1.225.64-1.322,1.326-.044.315.448,1.031.923.9a1.848,1.848,0,0,0,1.421-1.243C499.819,116.968,499.341,116.448,498.743,116.3Zm1.9.535c.528-.4,1.243-.662,1.434-1.283.069-.231-.456-1.1-1.011-.909s-1.314.526-1.348,1.243c-.017.345.412.808.926.942Zm-2.572,2.951c-.553.39-1.283.658-1.484,1.286-.094.294.478,1.026.89.957a1.815,1.815,0,0,0,1.467-1.2c.094-.387-.442-.793-.873-1.053Zm4.756.935c-.4-.3-.577-1.05-1.033-.873-.579.225-1.366.553-1.392,1.318-.008.276.431,1,.949.816A2.625,2.625,0,0,0,502.822,120.719Z" transform="translate(-455.338 -101.918)" fill="#fdede2"/>
    <path id="Path_10986" data-name="Path 10986" d="M366.114,121.23a1.952,1.952,0,0,1-2.184-1.409,1.725,1.725,0,0,0-2.348-1.192h0a1.282,1.282,0,0,1,.359-.859c.913-.22.352-.721.1-.967-.319-.325-.343-1.381-1.243-.655-.471.206-.829.1-.609-.453.4-.995.138-1.55-.761-2.156-.6-.4-.582-1.315-.289-2.072l.351.247c.218.776.645.655,1.144.276.276-.211.789-.414.312-.8-.434-.347-.3-1.63-1.414-.935-.21.007-.6.156-.5-.214a11.666,11.666,0,0,0,.381-1.63c.046-.414.423-.041.637.094.583.584.967-.084,1.214-.336.479-.492-.178-.765-.434-1.105-.088-.26-.293-.553-.041-.779.293-.267.492.048.691.221.315.624.517,1.39,1.485.644,1.013-.78-.093-1.033-.3-1.51-.1-.25-.276-.537.109-.68s.513.3.778.435c.209.438.315,1.105,1.025.691.32-.188,1.18-.294.49-1.031.018-.166-.126-.525.08-.463a7.322,7.322,0,0,0,2.232.261l-.1.5c-1.4.4-.227.957-.054,1.4.293.751.778.617,1.323.207.858-.642.039-.891-.264-1.265,1.068-.659,1.736.377,2.055.866.492.753.391,1.814,1.823,1.531.587-.116.394.445.138.775-.714.169-.518.572-.162.879s.291,1.381,1.232.764c.443-.169,1.105-.17.691.424-.787,1.138-.011,1.56.635,2.149a2.706,2.706,0,0,1,.62,2.113l-.513-.148c-.185-.553-.384-1-1.08-.492-.394.289-.921.529-.341,1.04.361.316.318,1.629,1.326.648.482.892.243,1.92-.471,2.026-.463-.856-.877-.091-1.166.115-.619.442-.01.761.242,1.1a.628.628,0,0,1-.539.572c-.362-.664-.743-1.221-1.579-.529s.138.982.305,1.449c-.195.26-.4.478-.768.286-.269-.367-.321-1.148-1.043-.724-.292.171-1.269.189-.566,1.006l.091.276a4.187,4.187,0,0,1-2.462-.232l.265-.332c.967-.228.5-.747.166-1.105-.289-.314-.287-1.105-1.105-.717C364.747,120.08,365.636,120.639,366.114,121.23Zm-2.978-6.654c-.365.384-1.149.4-.967.967s.431,1.352,1.192,1.365c.369.007,1.105-.3.956-.816A2.5,2.5,0,0,0,363.136,114.576Zm1.923-1.289c-.33.45-1.145.521-.985.96.21.575.457,1.449,1.315,1.4.29-.018,1.06-.218.863-.829A2.873,2.873,0,0,0,365.059,113.287Zm2.394-4.734c-.432.21-1.105.4-1.084.787a1.8,1.8,0,0,0,1.084,1.529c.414.138,1.213-.385,1.133-.768A2.6,2.6,0,0,0,367.453,108.553Zm4.1,9.808c-.349-.579-.577-1.332-1.2-1.507-.329-.093-1.191.334-1.079.829.13.561.472,1.329,1.181,1.431C370.825,119.162,371.285,118.783,371.557,118.361Zm-6.731-1.444c-.414.276-1.133.4-1.068.859a1.769,1.769,0,0,0,1.142,1.5c.32.08,1.1-.326,1.036-.785A2.562,2.562,0,0,0,364.825,116.917Zm-1.444-5.905c-.243.414-1.068.4-.913.924.167.566.45,1.361,1.192,1.412.354.025,1.1-.3.978-.8A2.2,2.2,0,0,0,363.382,111.012Zm5.738,2.249c.457-.247,1.149-.388,1.036-.866-.138-.58-.454-1.339-1.159-1.431-.34-.046-1.073.3-.992.79A2.263,2.263,0,0,0,369.12,113.261Zm-.635,7.2c.414-.362,1.185-.445,1.031-.938-.175-.564-.461-1.359-1.22-1.391-.348-.014-1.069.276-.945.812A2.46,2.46,0,0,0,368.485,120.46Zm2.144-7.251c-.362.32-1.113.38-.978.931.138.582.456,1.334,1.159,1.408.359.037,1.12-.372,1.007-.815A2.357,2.357,0,0,0,370.628,113.21Zm-4.756-4.578c.456-.293,1.175-.424,1.059-.885-.145-.58-.464-1.344-1.184-1.432-.363-.044-1.065.315-.981.787a2.416,2.416,0,0,0,1.105,1.526Zm-.819.307c-.414-.486-.573-1.289-1.265-1.394-.319-.047-1.1.305-.978.811.138.584.474,1.33,1.171,1.428a1.177,1.177,0,0,0,1.072-.85Zm.359.819c-.305.362-1.062.392-.989.9a1.837,1.837,0,0,0,1.105,1.492c.316.094,1.184-.337,1.069-.858a2.406,2.406,0,0,0-1.185-1.533Zm6.8,1.361c-.456-.463-.522-1.34-1.281-1.381-.366-.021-1.084.318-.952.809.153.572.434,1.352,1.184,1.4A1.16,1.16,0,0,0,372.214,111.118Zm-3.929,2.406c-.457-.369-.5-1.243-1.221-1.323-.385-.044-1.133.376-1.032.789.138.59.5,1.344,1.189,1.473a1.162,1.162,0,0,0,1.06-.938Zm5.615-.048c-.528-.5-.594-1.39-1.35-1.4-.366,0-1.142.3-.931.887.195.535.438,1.356,1.243,1.3a1.416,1.416,0,0,0,1.033-.782Zm-1.513,1.974c-.526.387-1.286.533-1.153.984.169.577.49,1.362,1.21,1.445.316.037,1.1-.325.967-.848a5.935,5.935,0,0,0-1.028-1.58Zm-4.39,1.7c-.49-.384-.526-1.258-1.258-1.354-.394-.052-1.1.318-1.019.751a1.643,1.643,0,0,0,1.142,1.45c.407.075.848-.3,1.131-.848Zm-6.006-8.453c-.525.231-1.214.424-1.155.845a1.786,1.786,0,0,0,1.14,1.485c.327.09,1.048-.267,1.018-.757A2.709,2.709,0,0,0,361.992,108.7Zm7.954,7.213c-.454-.414-.544-1.254-1.268-1.345-.387-.05-1.09.3-.988.778.124.586.449,1.333,1.145,1.439.351.053.862-.3,1.109-.872Zm-7.2-2.225c-.49-.392-.5-1.325-1.289-1.31-.338,0-1.105.293-.935.822.178.553.437,1.352,1.21,1.369a1.054,1.054,0,0,0,1.013-.881Zm6.6-6.367c-.445.3-1.159.427-1.01.908.174.565.466,1.348,1.2,1.392.345.021,1.065-.3.941-.829a2.174,2.174,0,0,0-1.137-1.471Z" transform="translate(-340.34 -99.934)" fill="#fdede2"/>
    <path id="Path_10987" data-name="Path 10987" d="M406.268,213.189c-.478-.591-1.368-1.149-.019-1.8.822-.394.821.4,1.105.717.334.362.8.881-.166,1.105Z" transform="translate(-380.493 -191.893)" fill="#ee332f"/>
    <path id="Path_10988" data-name="Path 10988" d="M416.142,110.561c.3.374,1.122.623.264,1.265-.546.414-1.031.544-1.323-.207-.173-.442-1.347-1,.054-1.4Z" transform="translate(-388.183 -104.788)" fill="#ee332f"/>
    <path id="Path_10989" data-name="Path 10989" d="M463.321,177.14c-1.008.981-.967-.332-1.326-.648-.58-.511-.052-.751.341-1.04.691-.511.9-.054,1.08.492Z" transform="translate(-428.932 -160.818)" fill="#ee332f"/>
    <path id="Path_10990" data-name="Path 10990" d="M363.011,144.373c1.113-.691.981.588,1.415.935.477.381-.035.586-.312.8-.5.381-.926.5-1.144-.276Z" transform="translate(-343.808 -134.05)" fill="#ee332f"/>
    <path id="Path_10991" data-name="Path 10991" d="M378.622,112.26c.21.477,1.315.729.3,1.51-.967.746-1.17-.019-1.485-.644Z" transform="translate(-356.279 -106.546)" fill="#ee332f"/>
    <path id="Path_10992" data-name="Path 10992" d="M445.969,212.233c-.173-.467-1.153-.747-.305-1.449s1.217-.138,1.579.529A3.571,3.571,0,0,1,445.969,212.233Z" transform="translate(-414.785 -191.182)" fill="#ee332f"/>
    <path id="Path_10993" data-name="Path 10993" d="M518.087,127.9c.347.276.745.664.1.923-.51.2-.735,1.49-1.611.507Z" transform="translate(-476.199 -120.026)" fill="#ee332f"/>
    <path id="Path_10994" data-name="Path 10994" d="M585.886,117.218c-.448.482-.829,1.08-1.51.2-.495-.642-.24-.89.36-1.094Z" transform="translate(-534.405 -110.045)" fill="#ee332f"/>
    <path id="Path_10995" data-name="Path 10995" d="M596.488,128.453c-.45.564-.866.865-1.433.068-.675-.952.26-.967.674-1.29Z" transform="translate(-543.629 -119.448)" fill="#ee332f"/>
    <path id="Path_10996" data-name="Path 10996" d="M500.85,201.525c.414-.518.768-.894,1.381-.145.691.847-.073.981-.512,1.305Z" transform="translate(-462.642 -182.992)" fill="#ee332f"/>
    <path id="Path_10997" data-name="Path 10997" d="M600.488,164.922c-1.637-1.173-.13-1.513.553-2.072A4.207,4.207,0,0,1,600.488,164.922Z" transform="translate(-547.882 -150.148)" fill="#ee332f"/>
    <path id="Path_10998" data-name="Path 10998" d="M561.289,214.417c-.553-.967.553-.9.859-1.311.352-.464.717-.294.93.214Z" transform="translate(-514.601 -193.227)" fill="#ee332f"/>
    <path id="Path_10999" data-name="Path 10999" d="M577.35,202.251c-.446-.261-.664-.634-.089-.891.488-.218.771-1.381,1.583-.441Z" transform="translate(-528.199 -182.646)" fill="#ee332f"/>
    <path id="Path_11000" data-name="Path 11000" d="M499.3,162.78c1.214,1.06,1.214,1.06-.377,2.053A6.053,6.053,0,0,1,499.3,162.78Z" transform="translate(-460.961 -150.088)" fill="#ee332f"/>
    <path id="Path_11001" data-name="Path 11001" d="M372.44,186.676c.9-.732.919.33,1.243.655.247.251.808.753-.1.967Z" transform="translate(-351.97 -170.466)" fill="#ee332f"/>
    <path id="Path_11002" data-name="Path 11002" d="M453.825,137.292c-.941.622-.869-.454-1.232-.764s-.552-.71.162-.879Z" transform="translate(-420.772 -126.705)" fill="#ee332f"/>
    <path id="Path_11003" data-name="Path 11003" d="M393.9,108c.691.736-.17.843-.49,1.03-.71.414-.816-.253-1.025-.691Z" transform="translate(-369.156 -102.875)" fill="#ee332f"/>
    <path id="Path_11004" data-name="Path 11004" d="M431.216,220.359c-.7-.816.276-.829.566-1.006.722-.424.774.356,1.043.724Z" transform="translate(-402.413 -198.74)" fill="#ee332f"/>
    <path id="Path_11005" data-name="Path 11005" d="M510.85,213.825c.4-.149.634-1.029,1.22-.365.261.3,1.046.63.225,1.184A3.491,3.491,0,0,1,510.85,213.825Z" transform="translate(-471.26 -193.556)" fill="#ee332f"/>
    <path id="Path_11006" data-name="Path 11006" d="M534.118,116.75c.544,1.083-.644,1-1.025,1.423-.421.464-.593-.093-.743-.425Z" transform="translate(-489.791 -110.416)" fill="#ee332f"/>
    <path id="Path_11007" data-name="Path 11007" d="M367.8,122.57c.256.334.913.608.434,1.105-.245.251-.631.92-1.214.336Q367.41,123.287,367.8,122.57Z" transform="translate(-347.299 -115.432)" fill="#ee332f"/>
    <path id="Path_11008" data-name="Path 11008" d="M459.914,202.475c-.251-.334-.861-.653-.242-1.1.289-.206.7-.967,1.166-.115Z" transform="translate(-426.921 -182.916)" fill="#ee332f"/>
    <path id="Path_11009" data-name="Path 11009" d="M476.152,336.678a2.474,2.474,0,0,1,2.7,2.2,2.691,2.691,0,0,1-5.332.215A2.445,2.445,0,0,1,476.152,336.678Z" transform="translate(-439.083 -299.963)" fill="#faeb07"/>
    <path id="Path_11010" data-name="Path 11010" d="M496.9,538.073c.007-.562-.126-1.145.736-1.072.642.054.95.351.932.986s-.432.888-1.013.967C496.741,539.051,496.939,538.453,496.9,538.073Z" transform="translate(-459.232 -472.61)" fill="#f8e909"/>
    <path id="Path_11011" data-name="Path 11011" d="M626.143,516.839c-.3-.466-.553.012-.79.079-.432.116-.848.276-1.112-.222a.828.828,0,0,1,.276-1.011,1.267,1.267,0,0,1,1.4-.414c.435.187.325.616.207.99-.062.2-.3.4,0,.6Z" transform="translate(-568.915 -453.812)" fill="#f8e909"/>
    <path id="Path_11012" data-name="Path 11012" d="M482.756,589.615c-.022.519-.159,1.142-1,1.117-.8-.023-1.013-.64-1.01-1.3s.24-1.287,1.032-1.275S482.76,588.785,482.756,589.615Z" transform="translate(-445.318 -516.706)" fill="#f8e909"/>
    <path id="Path_11013" data-name="Path 11013" d="M551.628,585.755c.017.76-.249,1.381-1.07,1.431-.747.044-.948-.583-.932-1.189.018-.731.309-1.348,1.17-1.347C551.5,584.651,551.61,585.187,551.628,585.755Z" transform="translate(-504.679 -513.682)" fill="#f8e909"/>
    <path id="Path_11014" data-name="Path 11014" d="M395.908,580.632c.044.332-.138.479-.388.468-.4-.019-.891.069-.985-.511-.037-.224.014-.508.34-.457C395.268,580.193,395.734,580.166,395.908,580.632Z" transform="translate(-371.004 -509.783)" fill="#f8e909"/>
    <path id="Path_11015" data-name="Path 11015" d="M653.6,563.493c-.046-.753-.081-1.388.829-1.434.587-.029.736.326.736.807a1.3,1.3,0,0,1-1.142,1.414C653.143,564.418,653.943,563.587,653.6,563.493Z" transform="translate(-594.278 -494.211)" fill="#f8e909"/>
    <path id="Path_11016" data-name="Path 11016" d="M340.363,569.421c.122-.261-.329-.924.376-.921.808,0,1.159.589,1.137,1.364-.014.467.039,1.019-.706.982C340.234,570.8,340.319,570.129,340.363,569.421Z" transform="translate(-324.297 -499.763)" fill="#f8e909"/>
    <path id="Path_11017" data-name="Path 11017" d="M581.063,138.156a6.6,6.6,0,0,1-1.637,1.147c-.437.138-.932-.553-.885-.9.1-.754.872-1.08,1.508-1.263C580.259,137.077,580.673,137.746,581.063,138.156Z" transform="translate(-529.598 -127.984)" fill="#ee332f"/>
    <path id="Path_11018" data-name="Path 11018" d="M570.218,125.726c-.493.437-.928,1.053-1.578,1.123a.906.906,0,0,1-.819-.974,1.709,1.709,0,0,1,1.469-1.166C569.712,124.672,569.99,125.27,570.218,125.726Z" transform="translate(-520.35 -117.275)" fill="#ee332f"/>
    <path id="Path_11019" data-name="Path 11019" d="M526.8,138.527a6.855,6.855,0,0,1-1.554,1.144c-.533.2-.916-.489-.924-.844-.019-.772.774-1.055,1.337-1.261C526.155,137.383,526.346,138.085,526.8,138.527Z" transform="translate(-482.868 -128.33)" fill="#ee332f"/>
    <path id="Path_11020" data-name="Path 11020" d="M542.071,188.92a2.736,2.736,0,0,1-1.489,1.227c-.514.153-.967-.565-.939-.867.061-.7.8-1.054,1.381-1.26C541.525,187.835,541.676,188.57,542.071,188.92Z" transform="translate(-496.075 -171.815)" fill="#ee332f"/>
    <path id="Path_11021" data-name="Path 11021" d="M569.012,188.746a2.806,2.806,0,0,1-1.571,1.243c-.445.086-.995-.649-.917-.919a2.02,2.02,0,0,1,1.47-1.243C568.473,187.716,568.631,188.444,569.012,188.746Z" transform="translate(-519.238 -171.665)" fill="#ee332f"/>
    <path id="Path_11022" data-name="Path 11022" d="M541.409,127.166c-.4-.3-.925-.66-.785-1.083a1.692,1.692,0,0,1,1.482-1.134c.391-.012.967.6.807.985A2.914,2.914,0,0,1,541.409,127.166Z" transform="translate(-496.902 -117.482)" fill="#ee332f"/>
    <path id="Path_11023" data-name="Path 11023" d="M553.962,138.473a6.653,6.653,0,0,1-1.566,1.133c-.517.18-.928-.525-.917-.863.022-.739.773-1.075,1.361-1.243C553.338,137.343,553.523,138.032,553.962,138.473Z" transform="translate(-506.277 -128.28)" fill="#ee332f"/>
    <path id="Path_11024" data-name="Path 11024" d="M591.661,151.037c-1.075-.03-1.325,1.782-2.452.45-.667-.789.138-.923.484-1.271C590.7,149.192,590.962,150.276,591.661,151.037Z" transform="translate(-538.574 -138.899)" fill="#ee332f"/>
    <path id="Path_11025" data-name="Path 11025" d="M510.106,151.063a2.709,2.709,0,0,1-1.52,1.289c-.511.184-.942-.512-.928-.861.029-.738.8-1.061,1.373-1.258C509.549,150.059,509.667,150.838,510.106,151.063Z" transform="translate(-468.509 -139.252)" fill="#ee332f"/>
    <path id="Path_11026" data-name="Path 11026" d="M535.761,152.386c-.582-.156-1.025-.637-.975-1,.1-.691.829-1.082,1.43-1.225.454-.108.981.642.926.908C537,151.742,536.175,151.9,535.761,152.386Z" transform="translate(-491.887 -139.206)" fill="#ee332f"/>
    <path id="Path_11027" data-name="Path 11027" d="M519.044,165.2c-.438-.254-.967-.66-.841-1.043a1.8,1.8,0,0,1,1.486-1.167c.392-.029.967.623.855.959C520.331,164.561,519.641,164.873,519.044,165.2Z" transform="translate(-477.581 -150.271)" fill="#ee332f"/>
    <path id="Path_11028" data-name="Path 11028" d="M575.024,163.508a2.949,2.949,0,0,1-1.593,1.22c-.4.081-.957-.6-.861-.959a1.837,1.837,0,0,1,1.464-1.206C574.485,162.488,574.693,163.171,575.024,163.508Z" transform="translate(-524.446 -149.896)" fill="#ee332f"/>
    <path id="Path_11029" data-name="Path 11029" d="M504.121,176.445a2.726,2.726,0,0,1-1.526,1.224c-.475.112-.978-.591-.912-.912a1.867,1.867,0,0,1,1.434-1.243C503.565,175.4,503.794,176.087,504.121,176.445Z" transform="translate(-463.355 -161.052)" fill="#ee332f"/>
    <path id="Path_11030" data-name="Path 11030" d="M557.474,174.82c.478.227,1,.722.909,1.019a2,2,0,0,1-1.484,1.218c-.4.08-.956-.615-.868-.967C556.2,175.451,556.922,175.176,557.474,174.82Z" transform="translate(-510.193 -160.464)" fill="#ee332f"/>
    <path id="Path_11031" data-name="Path 11031" d="M557.864,114.666c-.442-.29-.967-.682-.861-1.065a1.642,1.642,0,0,1,1.438-1.126.857.857,0,0,1,.858.917C559.109,114.017,558.387,114.281,557.864,114.666Z" transform="translate(-511.026 -106.73)" fill="#ee332f"/>
    <path id="Path_11032" data-name="Path 11032" d="M513.179,190.344c-.533-.169-1.021-.691-.946-.99a1.947,1.947,0,0,1,1.457-1.231c.427-.106.957.6.9.928C514.461,189.725,513.693,189.956,513.179,190.344Z" transform="translate(-472.446 -171.92)" fill="#ee332f"/>
    <path id="Path_11033" data-name="Path 11033" d="M561.23,151.259a2.419,2.419,0,0,1,1.488-1.253c.5-.153.956.553.931.847-.066.745-.854,1.075-1.433,1.3C561.8,152.314,561.593,151.564,561.23,151.259Z" transform="translate(-514.681 -139.059)" fill="#ee332f"/>
    <path id="Path_11034" data-name="Path 11034" d="M532.82,214.834c.735-.151.967-1.684,2.12-.717.544.454.359.782-.138,1.243C533.861,216.22,533.321,215.847,532.82,214.834Z" transform="translate(-490.196 -194.059)" fill="#ee332f"/>
    <path id="Path_11035" data-name="Path 11035" d="M585.813,176.012a2.97,2.97,0,0,1-1.542,1.281c-.5.156-.967-.575-.932-.867.068-.7.792-1.068,1.381-1.268C585.259,174.973,585.345,175.754,585.813,176.012Z" transform="translate(-533.735 -160.731)" fill="#ee332f"/>
    <path id="Path_11036" data-name="Path 11036" d="M530.2,175c.6.156,1.076.677,1.022.974a1.829,1.829,0,0,1-1.421,1.243c-.475.138-.967-.582-.923-.9C528.979,175.633,529.794,175.453,530.2,175Z" transform="translate(-486.8 -160.62)" fill="#ee332f"/>
    <path id="Path_11037" data-name="Path 11037" d="M546.413,164.968c-.514-.138-.942-.6-.925-.95.034-.716.79-1.055,1.348-1.243s1.08.678,1.011.909C547.661,164.3,546.939,164.579,546.413,164.968Z" transform="translate(-501.113 -150.06)" fill="#ee332f"/>
    <path id="Path_11038" data-name="Path 11038" d="M524.249,200.18c.431.26.967.659.873,1.046a1.805,1.805,0,0,1-1.467,1.2c-.414.069-.984-.663-.89-.957C522.966,200.838,523.7,200.57,524.249,200.18Z" transform="translate(-481.521 -182.321)" fill="#ee332f"/>
    <path id="Path_11039" data-name="Path 11039" d="M552.865,201.393a2.625,2.625,0,0,1-1.477,1.261c-.518.185-.957-.535-.949-.816.026-.764.814-1.093,1.392-1.318C552.287,200.348,552.462,201.1,552.865,201.393Z" transform="translate(-505.381 -182.593)" fill="#ee332f"/>
    <path id="Path_11040" data-name="Path 11040" d="M383.061,176.89a2.5,2.5,0,0,1,1.177,1.52c.152.518-.587.829-.956.816-.761-.012-1.015-.8-1.192-1.365S382.7,177.274,383.061,176.89Z" transform="translate(-360.265 -162.249)" fill="#ee332f"/>
    <path id="Path_11041" data-name="Path 11041" d="M396.926,167.56a2.873,2.873,0,0,1,1.193,1.535c.2.6-.573.8-.863.829-.858.052-1.105-.829-1.315-1.4C395.781,168.081,396.6,168.01,396.926,167.56Z" transform="translate(-372.207 -154.207)" fill="#ee332f"/>
    <path id="Path_11042" data-name="Path 11042" d="M413.761,133.29a2.6,2.6,0,0,1,1.133,1.548c.08.383-.724.909-1.133.768a1.8,1.8,0,0,1-1.084-1.529C412.653,133.695,413.328,133.5,413.761,133.29Z" transform="translate(-386.648 -124.671)" fill="#ee332f"/>
    <path id="Path_11043" data-name="Path 11043" d="M435.914,194.788c-.276.423-.732.8-1.105.749-.709-.1-1.051-.87-1.181-1.431-.112-.49.75-.917,1.079-.829C435.337,193.457,435.565,194.21,435.914,194.788Z" transform="translate(-404.697 -176.362)" fill="#ee332f"/>
    <path id="Path_11044" data-name="Path 11044" d="M394.792,193.84a2.554,2.554,0,0,1,1.105,1.579c.062.459-.716.865-1.036.785a1.769,1.769,0,0,1-1.142-1.5C393.659,194.236,394.382,194.12,394.792,193.84Z" transform="translate(-370.306 -176.857)" fill="#ee332f"/>
    <path id="Path_11045" data-name="Path 11045" d="M385.243,151.09a2.2,2.2,0,0,1,1.257,1.536c.119.5-.624.829-.978.8-.742-.051-1.025-.845-1.192-1.412C384.176,151.492,385,151.51,385.243,151.09Z" transform="translate(-362.201 -140.012)" fill="#ee332f"/>
    <path id="Path_11046" data-name="Path 11046" d="M425.606,153.012a2.263,2.263,0,0,1-1.115-1.507c-.082-.489.652-.836.992-.79.7.093,1.021.851,1.159,1.431C426.755,152.624,426.063,152.765,425.606,153.012Z" transform="translate(-396.825 -139.686)" fill="#ee332f"/>
    <path id="Path_11047" data-name="Path 11047" d="M420.835,204.938a2.46,2.46,0,0,1-1.134-1.52c-.124-.535.6-.829.945-.812.758.032,1.044.829,1.22,1.391C422.019,204.493,421.25,204.576,420.835,204.938Z" transform="translate(-392.69 -184.412)" fill="#ee332f"/>
    <path id="Path_11048" data-name="Path 11048" d="M437.317,167a2.356,2.356,0,0,1,1.188,1.519c.113.443-.648.852-1.007.815-.7-.073-1.015-.829-1.159-1.408C436.2,167.376,436.956,167.316,437.317,167Z" transform="translate(-407.029 -153.725)" fill="#ee332f"/>
    <path id="Path_11049" data-name="Path 11049" d="M402.152,119.347a2.418,2.418,0,0,1-1.105-1.531c-.084-.472.617-.829.981-.787.72.088,1.039.852,1.184,1.432C403.327,118.923,402.607,119.055,402.152,119.347Z" transform="translate(-376.619 -110.654)" fill="#ee332f"/>
    <path id="Path_11050" data-name="Path 11050" d="M389.087,127.328a1.172,1.172,0,0,1-1.072.845c-.691-.1-1.035-.844-1.171-1.428-.119-.506.659-.858.978-.811C388.512,126.039,388.678,126.841,389.087,127.328Z" transform="translate(-364.373 -118.328)" fill="#ee332f"/>
    <path id="Path_11051" data-name="Path 11051" d="M399.573,142a2.406,2.406,0,0,1,1.188,1.532c.115.521-.753.952-1.069.858a1.827,1.827,0,0,1-1.105-1.492C398.511,142.39,399.268,142.359,399.573,142Z" transform="translate(-374.5 -132.178)" fill="#ee332f"/>
    <path id="Path_11052" data-name="Path 11052" d="M440.964,143.228a1.15,1.15,0,0,1-1.048.822c-.75-.043-1.031-.829-1.184-1.4-.138-.492.586-.829.952-.809C440.438,141.888,440.5,142.765,440.964,143.228Z" transform="translate(-409.09 -132.044)" fill="#ee332f"/>
    <path id="Path_11053" data-name="Path 11053" d="M412.415,161.007a1.157,1.157,0,0,1-1.064.938c-.691-.128-1.044-.883-1.189-1.473-.1-.414.646-.829,1.032-.789C411.914,159.767,411.958,160.638,412.415,161.007Z" transform="translate(-384.473 -147.416)" fill="#ee332f"/>
    <path id="Path_11054" data-name="Path 11054" d="M452.7,160.164a1.419,1.419,0,0,1-1.042.782c-.8.057-1.044-.765-1.243-1.3-.211-.583.565-.894.931-.887C452.107,158.775,452.173,159.667,452.7,160.164Z" transform="translate(-419.144 -146.622)" fill="#ee332f"/>
    <path id="Path_11055" data-name="Path 11055" d="M448.925,183.22a5.762,5.762,0,0,1,1.021,1.58c.138.524-.648.885-.967.848-.72-.083-1.042-.867-1.21-1.445C447.639,183.753,448.4,183.6,448.925,183.22Z" transform="translate(-416.88 -167.704)" fill="#ee332f"/>
    <path id="Path_11056" data-name="Path 11056" d="M410.2,187.043c-.283.553-.724.923-1.135.848a1.643,1.643,0,0,1-1.142-1.45c-.076-.434.626-.8,1.019-.751C409.676,185.784,409.712,186.659,410.2,187.043Z" transform="translate(-382.548 -169.828)" fill="#ee332f"/>
    <path id="Path_11057" data-name="Path 11057" d="M373.771,134.33a2.7,2.7,0,0,1,1,1.573c.03.49-.691.847-1.018.757a1.786,1.786,0,0,1-1.14-1.485C372.556,134.754,373.245,134.561,373.771,134.33Z" transform="translate(-352.119 -125.568)" fill="#ee332f"/>
    <path id="Path_11058" data-name="Path 11058" d="M424.468,178.125c-.247.568-.758.924-1.105.872-.691-.106-1.021-.854-1.145-1.439-.1-.477.6-.829.988-.778C423.923,176.87,424.013,177.709,424.468,178.125Z" transform="translate(-394.863 -162.149)" fill="#ee332f"/>
    <path id="Path_11059" data-name="Path 11059" d="M372.443,162.268a1.054,1.054,0,0,1-1.014.881c-.774-.017-1.032-.812-1.21-1.369-.17-.529.6-.815.935-.822C371.941,160.944,371.952,161.876,372.443,162.268Z" transform="translate(-350.035 -148.518)" fill="#ee332f"/>
    <path id="Path_11060" data-name="Path 11060" d="M427.833,124.35a2.174,2.174,0,0,1,1.135,1.471c.124.529-.6.85-.941.829-.739-.044-1.031-.829-1.2-1.392C426.674,124.777,427.383,124.647,427.833,124.35Z" transform="translate(-398.824 -116.966)" fill="#ee332f"/>
  </g>
</svg>
