<svg id="Mallakhamb_Federation_of_India" data-name="Mallakhamb Federation of India" xmlns="http://www.w3.org/2000/svg" width="54.246" height="58.272" viewBox="0 0 54.246 58.272">
  <path id="Path_13533" data-name="Path 13533" d="M77.388,36.672c.08.372.622.507.487.991-.066.073-.192.15-.188.218a10.5,10.5,0,0,0,1.4,4.492c.2.357.182.928.8.9l-.016-.016a2.365,2.365,0,0,0,.272,1.875c1.1,2.725,2.285,5.415,3.343,8.16,1.126,2.922,2.417,5.779,3.642,8.66.264.619.183,1.353.687,1.909.2.22.518.585.334.91s-.609.186-.939.2c-3.655.173-7.309-.14-10.964-.015-3.564.124-7.136.228-10.709.047-.763-.038-.968-.322-.853-1,.1-.562.311-1.159-.048-1.67-.649-.925-.147-1.194.66-1.349a4.784,4.784,0,0,1,.792-.177c2.938-.052,5.561-1.35,8.307-2.158l.054-.025.054.024a8.1,8.1,0,0,0,2.952-.695,7.6,7.6,0,0,1,4.695-.279c.412.139.709-.152.957-.406.324-.331.034-.664-.156-.907a1.616,1.616,0,0,0-2.323-.4.075.075,0,0,1-.113-.01c-.072-.507-.475-.5-.838-.562a2.367,2.367,0,0,1-1.065-.285,3.1,3.1,0,0,0-2.148-.689,2.2,2.2,0,0,0-1.827,1.161l.026-.012c-.308-.056-.527.014-.523.39-.335-.01-.564.4-.936.24a2.422,2.422,0,0,0-1.906-.156,22.582,22.582,0,0,1-3.729.523c-.828.142-1.144-.235-1.01-1.057a3.572,3.572,0,0,1,.774-1.883c.791-.891,1.563-1.8,2.363-2.678a.67.67,0,0,0,.224-.736c-.134-.33-.487-.264-.716-.24-.843.084-1.68.233-2.52.359-2.093.315-2.215.228-2.162-1.944.066-2.8-.158-5.6-.322-8.392-.122-2.027-.251-3.942.787-5.822a2.67,2.67,0,0,0-1.218-3.522.909.909,0,0,1-.527-.907,14.221,14.221,0,0,0-.072-1.765,3.517,3.517,0,0,1,.374-2.676c.445-.643-.365-2.16-1.107-2.23a1.8,1.8,0,0,0-1.772.8c-.393.583-.709,1.35-.316,1.858.642.824.357,1.623.357,2.461,0,.462-.469.991.122,1.4a.1.1,0,0,1-.007.142c-.227.723-.224,1.712-1.271,1.7a44.61,44.61,0,0,0-5.2.207c-1.892.191-3.106.593-3.563,2.3a4.613,4.613,0,0,0,.62,3.477,1.266,1.266,0,0,1-.229,1.8A5.671,5.671,0,0,0,49.169,44.3c.2,1.273-.058,2.662.813,3.789l.041.053L50,48.2c.233.337-.061.867.387,1.122L50.37,49.3c-.347.456-.089.855.144,1.229a4.106,4.106,0,0,1,.665,1.391,4.527,4.527,0,0,0,2.6,3.254,7.791,7.791,0,0,1,.942.593c1.319.977,1.743,2.626,2.762,3.829a3.965,3.965,0,0,1,.83,2.692c0,.58-.161,1.166-.122,1.734.063.855-.322,1.086-1.076,1.079-1.771-.017-3.542.007-5.314.012-5.014.016-10.029.022-15.043.055-.747,0-.967-.16-.609-.923.81-1.734,1.35-3.577,2.116-5.339.853-1.976,1.168-4.188,2.249-6.107.731-1.293.931-2.8,1.539-4.139a45.443,45.443,0,0,0,2.234-5.235c.774-2.546,1.934-4.917,2.809-7.406.862-2.458,1.919-4.876,2.84-7.327,1.212-3.227,2.653-6.363,3.679-9.662.224-.718.585-.743,1.141-.388,2.017,1.256,4.057,2.48,6.042,3.786.523.343.9.421,1.34,0,1.059-1.015,2.345-1.724,3.436-2.725.679-.619,1.6-1.047,2.352-1.692.43-.372,1.1-.405,1.395.478a22.224,22.224,0,0,0,1.394,3.514c.651,1.221.771,2.7,1.779,3.734.015.073.028.146.043.219a.422.422,0,0,0-.122.55,15.6,15.6,0,0,1,1.407,3.141.924.924,0,0,0,.748.743.214.214,0,0,1,0,.135c.03.286-.08.6.184.836.3.167.13.483.222.716-.1,1.209.743,2.087,1.06,3.15.179.6.549.7,1.068.554a.234.234,0,0,1,.109.15.237.237,0,0,1-.034.184c-.156.124-.562-.035-.478.322C76.794,36.761,77.178,36.527,77.388,36.672Zm-.823.574c-.166.644-.063,1.044.465,1.28.151.067.292.038.317-.124C77.44,37.814,77.009,37.6,76.564,37.245Z" transform="translate(-34.932 -16.638)" fill="#ee7e4f"/>
  <path id="Path_13534" data-name="Path 13534" d="M66.838,50.648c-2.746.808-5.369,2.106-8.307,2.158a4.231,4.231,0,0,0-.792.177c-.808.155-1.31.424-.66,1.349.358.51.143,1.107.048,1.67-.116.681.09.965.853,1,3.573.181,7.145.073,10.709-.047,3.655-.124,7.309.188,10.964.015.333-.016.76.114.939-.2s-.135-.69-.334-.91c-.5-.556-.423-1.288-.687-1.909-1.225-2.881-2.517-5.738-3.642-8.66-1.057-2.745-2.238-5.436-3.343-8.16a2.365,2.365,0,0,1-.272-1.875c.6.181.577.814.756,1.229q2.009,4.666,3.881,9.392c1.072,2.707,2.41,5.3,3.239,8.114.195.66.731,1.214.95,1.9-.115,0-.122.037-.027.1l.039-.088c.731,1.648.731,1.682-1.072,1.652-3.884-.061-7.767.042-11.653-.053-2.333-.058-4.684.082-7.024.046a6.748,6.748,0,0,1-3.089-.332.46.46,0,0,0-.465.014c-1.238.659-1.434.56-1.512-.821-.05-.878-.057-1.759-.085-2.639,0-.1.026-.259-.023-.29-.967-.628-.434-1.333-.013-1.9,1.584-2.137,1.956-4.831,3.175-7.131a6.019,6.019,0,0,1,1.156-1.439c-.869.471-1.858.014-2.718.554a.985.985,0,0,0-.379,1.044c.319,1.391-.705,2.041-1.5,2.6a4.559,4.559,0,0,0-2.044,2.749c-.052.23,0,.541-.289.593-.313.055-.471-.248-.615-.463a12.2,12.2,0,0,1-.911-2.656c-.34-.929-.346-1.932-.718-2.859-.417-1.037-1.182-1.743-1.877-1.41-1.451.7-2.133,1.4-1.78,2.666a12.34,12.34,0,0,0,2.489,4.732,21.108,21.108,0,0,0,1.676,2.4,2.091,2.091,0,0,0,2.95.042c-.566,1.478-.842,1.555-3.455.891v3.037c0,.316.107.523-.487.556-2.153.124-4.3,0-6.439.046-2.612.051-5.23.035-7.841.124-2.3.081-4.6.019-6.9-.094-.594-.028-1.1.311-1.692.22-.52-.079-.833-.124-.542-.85,1.34-3.3,2.513-6.676,3.925-9.945,1.272-2.946,2.11-6.07,3.463-8.96,1.551-3.316,2.5-6.851,3.918-10.212,1.719-4.088,3.289-8.231,4.881-12.365.707-1.83,1.419-3.658,2.11-5.493.244-.663.543-.788,1.113-.346,2.062,1.6,4.378,2.8,6.56,4.218.51.331.866.04,1.247-.256,1.31-1.016,2.607-2.035,4-2.944.791-.515,1.417-1.309,2.3-1.8.553-.312.686-.213.883.263.8,1.925,1.642,3.833,2.391,5.779.208.544.418,1.085.661,1.61a1.249,1.249,0,0,1,0,1.26C63.92,16.7,63.8,15.219,63.149,14a22.224,22.224,0,0,1-1.394-3.514c-.29-.883-.965-.846-1.395-.478-.752.645-1.674,1.07-2.352,1.692-1.1,1-2.378,1.709-3.436,2.725-.443.426-.819.348-1.34,0-1.986-1.306-4.02-2.527-6.036-3.793-.557-.351-.917-.331-1.141.388-1.026,3.3-2.467,6.441-3.679,9.662-.921,2.451-1.977,4.87-2.84,7.327-.875,2.49-2.036,4.861-2.809,7.406a44.987,44.987,0,0,1-2.234,5.235c-.609,1.342-.811,2.849-1.539,4.139-1.081,1.919-1.391,4.131-2.249,6.107-.766,1.761-1.306,3.606-2.116,5.339-.356.763-.135.928.609.923,5.014-.032,10.029-.038,15.043-.055,1.771,0,3.542-.03,5.314-.012.754.007,1.139-.224,1.076-1.079-.043-.574.122-1.159.122-1.734a3.965,3.965,0,0,0-.83-2.692c-1.018-1.2-1.442-2.849-2.762-3.829a7.792,7.792,0,0,0-.942-.593,4.533,4.533,0,0,1-2.6-3.254,4.106,4.106,0,0,0-.665-1.391c-.233-.372-.487-.773-.144-1.229.753.1.853.8,1.141,1.311.313.56.593.538.853-.006a7.225,7.225,0,0,1,1.632-2.23c.329-.3.162-.39.019-.714-.295-.674-1.169-1.437.147-2.143.636-.341.307-1.239-.464-1.4-.692-.149-1.4-.248-2.086-.406-.475-.11-.713.052-.789.523-.04.248.158.68-.186.685-.454.007-.216-.477-.29-.743-.043-.152,0-.341-.273-.474a7.615,7.615,0,0,0,.044,3.133,1.311,1.311,0,0,1-.14,1.255c-.871-1.127-.609-2.516-.813-3.789a5.666,5.666,0,0,1,2.019-5.088,1.266,1.266,0,0,0,.229-1.8,4.635,4.635,0,0,1-.62-3.477c.457-1.7,1.671-2.106,3.563-2.3a44.611,44.611,0,0,1,5.2-.207c1.046.016,1.044-.972,1.271-1.695.975.426.417,1.22.34,1.811a12.122,12.122,0,0,0-.132,4.632c.333.595-.178,1.054-.289,1.563-.3,1.375-.864,2.086-2.054,1.785a6.4,6.4,0,0,0-2.1.015A15.33,15.33,0,0,0,46.7,31.7c-.459.1-.431-.551-.917-.654-.756-.161-.188.792-.754.709-1.076-.156-1.361.84-1.876,1.458-.353.425-.487.782.291,1.1a9.1,9.1,0,0,1,1.356.773.947.947,0,0,0,1.364-.227c1.187-1.391,2.6-2.416,4.59-1.794a1.021,1.021,0,0,0,.5.074,2.988,2.988,0,0,0,2.193-1.3c.262-.509.365-1.137.609-1.69a1.4,1.4,0,0,0-.609-1.972c-.01-.124-.077-.3-.019-.372A7.29,7.29,0,0,0,54.9,21.652c-.06-.258-.259-.555-.189-.761.434-1.261-.308-2.645.417-3.865.268-.452-.386-.59-.331-.971-.19.406-.689.089-.928.42s-.068.52.1.815a5.27,5.27,0,0,1-.7,4.286c-.588-.413-.122-.936-.122-1.4,0-.839.285-1.638-.357-2.461-.393-.5-.078-1.271.316-1.858a1.792,1.792,0,0,1,1.772-.8c.744.072,1.552,1.589,1.107,2.23a3.5,3.5,0,0,0-.374,2.676,14.221,14.221,0,0,1,.072,1.765.911.911,0,0,0,.527.907,2.672,2.672,0,0,1,1.218,3.522c-1.038,1.883-.905,3.8-.787,5.822.163,2.792.387,5.588.322,8.392-.052,2.172.069,2.258,2.162,1.944.841-.124,1.677-.275,2.52-.359.233-.024.582-.089.716.24a.67.67,0,0,1-.224.736c-.8.881-1.573,1.788-2.363,2.678A3.572,3.572,0,0,0,59,47.5c-.134.821.182,1.2,1.01,1.057a22.581,22.581,0,0,0,3.729-.523,2.422,2.422,0,0,1,1.906.156c-.043.29-.143.551-.453.619a8.132,8.132,0,0,1-1.989.4c-2.029-.064-2.579,1.75-3.753,2.786a1.208,1.208,0,0,0,.754.05c1.769-.6,3.6-.954,5.4-1.438C66.051,50.5,66.432,50.332,66.838,50.648ZM55.816,32.191a3.039,3.039,0,0,0-.975.448c-.57.619-1.766.8-1.714,1.8.1,1.858-.524,3.637-.365,5.5a18.666,18.666,0,0,1-.016,3.195C52.67,44,52.277,45,53.032,45.8a1.754,1.754,0,0,1,.532,1.1.745.745,0,0,0,.335.543.72.72,0,0,0,.625.077,2.87,2.87,0,0,0,1.863-2.823c0-.619-.056-1.239-.073-1.858-.1-3.522-.1-7.06-.5-10.64Zm-4.5,2.243a2.673,2.673,0,0,0-2,1.115,7.339,7.339,0,0,0-.811,2.857.9.9,0,0,0,.591,1.132,6.345,6.345,0,0,1,1.659.991c.174.157.317.409.592.322.365-.115.2-.458.238-.709.273-1.635.15-3.3.336-4.935C52,34.539,51.916,34.4,51.318,34.434Zm-1.1-4.047c.715.108,1.3.02,1.584-.685a10.119,10.119,0,0,0,.543-2.673c.043-.382-.086-.886-.653-.867-.493.019-1.023,0-1.145.73a5.035,5.035,0,0,0-.172,1.115,1.67,1.67,0,0,1-.957,1.779c-.146.069-.365.11-.329.331.045.259.286.255.487.265C49.814,30.4,50.052,30.387,50.222,30.387Zm1.266-5.251a.52.52,0,0,0,.841-.311c-.018-.346-.517-.478-.861-.389-.585.151-1.017-.248-1.531-.339-.487-.084-.865.177-.63.519.268.389.413,1.569,1.4.688.174-.151.507-.114.783-.167Zm-5.874,1.221v.02A3.028,3.028,0,0,0,45,26.349c-.244.035-.625-.087-.659.282a1.094,1.094,0,0,0,.437.882c.214.183,1.774-.5,1.821-.774.038-.217-.108-.318-.285-.342-.228-.032-.465-.028-.7-.04Zm-.487,3.9c.218-.581-.044-1.033-.061-1.494-.01-.228.251-.55-.257-.426-.279.068-.524.19-.337.566.212.416.412.837.663,1.354Z" transform="translate(-27.364 -8.64)" fill="#322d2a"/>
  <path id="Path_13535" data-name="Path 13535" d="M64.651,420.892c-.174.712-.316,1.193.378,1.462s.186.832.18,1.251c-.007.469-.376.456-.753.441q-2.238-.088-4.48-.114c-.407,0-1.053.036-1.049-.311.006-.51.08-1.272.718-1.458.584-.17.545-.38.395-.858-.2-.645.227-1.257.236-1.909.009-.552-.122-.97-.739-1.013-.96-.068-.507-.809-.555-1.262-.069-.649.48-.443.8-.448,1.395-.02,2.8.081,4.183-.027s2.145.743,2.865,1.643c.621.774,1.2.915,1.619-.006.911-2,2.639-1.552,4.215-1.6.986-.03,1.971-.03,2.957-.043.436-.006.872.076.933.587.051.427.378.963-.244,1.277-.415.212-.414.544-.35.959.068.44.018.9.048,1.343.037.534-.244,1.1.56,1.468.421.194.253,1.032.173,1.545-.063.405-.575.273-.892.248-.867-.069-1.735-.076-2.607-.212-.691-.107-1.462.166-2.2.116-.313-.021-.905.109-.862-.255.051-.435-.169-1.063.393-1.35.225-.115.46-.24.5-.471s.144-.6-.116-.754c-.284-.171-.457.149-.52.348-.507,1.584-1.949,1.128-3.031,1.462-.351.109-.553-.186-.743-.42A17.994,17.994,0,0,0,64.651,420.892Z" transform="translate(-55.072 -366.095)" fill="#322d2a"/>
  <path id="Path_13536" data-name="Path 13536" d="M222.177,423.936c.153.8-.532.787-.887.725-2.011-.351-4.02.115-6.024-.016-.758-.051-.988-.4-.923-.991.069-.633-.453-1.771.992-1.519.077.014.188-.073.256-.14.435-.426.026-2.45-.555-2.53s-.586-.351-.547-.832c.122-1.439.094-1.47,1.533-1.479,3.544-.017,7.086,0,10.63-.014.653,0,1.3.471,1.959.037a.192.192,0,0,1,.185.026c.579.619.021,1.433.342,2.147.144.316-.454.577-.8.619-.48.056-1.022.329-1.352-.453-.3-.722-1.137-.354-1.665-.372a32.047,32.047,0,0,0-3.943.315c.636.406,1.1.462,2.8.41,1.416-.043,1.525-.029,1.358,1.345-.069.576.839,1.548-.569,1.848a2.972,2.972,0,0,1-2.128-.2c-.375-.544-.4-.546-1.037-.113-.351.186-.938-.092-1.054.554a.38.38,0,0,0,.252.342c.314.3.683-.144,1,.074C221.957,423.876,222.011,423.954,222.177,423.936Z" transform="translate(-191.533 -366.537)" fill="#322d2a"/>
  <path id="Path_13537" data-name="Path 13537" d="M351.4,417.135c1.567,0,3.133.042,4.7-.019.7-.027.813.372.591.789-.323.6-.158,1.427-1.129,1.768-.811.284-.4,1.355-.47,2.061-.057.56.563.29.889.353.56.109.765.422.731,1.008-.05.787-.058,1.675-1.065,1.671-2.248-.007-4.5-.09-6.739-.273a18.714,18.714,0,0,0-2.032.211c-.423.009-.534-.105-.655-.4a2.5,2.5,0,0,1-.067-1.572c.2-.941.775-.339,1.176-.437.518-.124.988-.29.865-1a9.731,9.731,0,0,1-.133-1.214c-.027-.595-.314-.806-.89-.884a1.965,1.965,0,0,1-1.2-.587,1.679,1.679,0,0,1-.1-1.2c.094-.465.545-.285.863-.286,1.558-.006,3.115,0,4.673,0Z" transform="translate(-307.013 -366.496)" fill="#322d2a"/>
  <path id="Path_13538" data-name="Path 13538" d="M380.587,183.952c-.621.026-.6-.545-.8-.9a10.488,10.488,0,0,1-1.4-4.492c0-.068.122-.145.188-.218A26.086,26.086,0,0,0,380.479,183C380.632,183.238,380.557,183.624,380.587,183.952Z" transform="translate(-335.62 -157.318)" fill="#322d2a"/>
  <path id="Path_13539" data-name="Path 13539" d="M358.218,136.849c-.519.142-.889.046-1.068-.554-.317-1.063-1.161-1.941-1.06-3.15.514-.124.609.271.763.619A21.237,21.237,0,0,0,358.218,136.849Z" transform="translate(-316.038 -117.702)" fill="#322d2a"/>
  <path id="Path_13540" data-name="Path 13540" d="M336.864,88.325a.93.93,0,0,1-.748-.743,15.6,15.6,0,0,0-1.407-3.141.422.422,0,0,1,.122-.55c.609.024.637.541.867.95.459.816.218,1.92,1.089,2.577A.629.629,0,0,1,336.864,88.325Z" transform="translate(-297.221 -74.568)" fill="#322d2a"/>
  <path id="Path_13541" data-name="Path 13541" d="M370.916,166.462c-.21-.145-.6.089-.677-.23-.084-.357.322-.2.478-.322Q370.808,166.185,370.916,166.462Z" transform="translate(-328.46 -146.428)" fill="#322d2a"/>
  <path id="Path_13542" data-name="Path 13542" d="M353,121.616c-.264-.232-.153-.55-.184-.836C353.229,120.979,352.9,121.349,353,121.616Z" transform="translate(-313.173 -106.889)" fill="#322d2a"/>
  <path id="Path_13543" data-name="Path 13543" d="M468.172,390.079l-.039.088c-.1-.059-.088-.093.027-.1Z" transform="translate(-414.381 -342.821)" fill="#ee7e4f"/>
  <path id="Path_13544" data-name="Path 13544" d="M352.28,326.506c.048-.505.439-.619.821-.763a17.476,17.476,0,0,1,5.446-.892c.345-.012.948.339,1.026-.248s-.586-.342-.9-.512a1.329,1.329,0,0,1-.27-.269,1.616,1.616,0,0,1,2.323.4c.19.248.48.576.156.907-.244.254-.546.545-.957.406a7.6,7.6,0,0,0-4.695.279A8.126,8.126,0,0,1,352.28,326.506Z" transform="translate(-312.699 -284.499)" fill="#322d2a"/>
  <path id="Path_13545" data-name="Path 13545" d="M359.275,315.063a4.328,4.328,0,0,1-3.037-.644,1.382,1.382,0,0,0-1.584.021,1.639,1.639,0,0,1-1.255.248,2.186,2.186,0,0,1,1.827-1.161,3.087,3.087,0,0,1,2.148.689,2.367,2.367,0,0,0,1.065.285C358.8,314.562,359.2,314.557,359.275,315.063Z" transform="translate(-313.683 -275.75)" fill="#322d2a"/>
  <path id="Path_13546" data-name="Path 13546" d="M151.06,263.36c.781.141.326.723.387,1.122C151,264.222,151.3,263.7,151.06,263.36Z" transform="translate(-135.992 -231.807)" fill="#322d2a"/>
  <path id="Path_13547" data-name="Path 13547" d="M349.852,322.751c-.039.317-.122.574-.523.39C349.325,322.768,349.544,322.7,349.852,322.751Z" transform="translate(-310.108 -283.826)" fill="#322d2a"/>
  <path id="Path_13548" data-name="Path 13548" d="M203.561,216.836c.6-.035.681.105.609.774-.186,1.634-.063,3.3-.336,4.935-.041.248.13.593-.238.709-.275.087-.418-.165-.592-.322a6.194,6.194,0,0,0-1.659-.991.909.909,0,0,1-.591-1.132,7.339,7.339,0,0,1,.811-2.857A2.661,2.661,0,0,1,203.561,216.836Z" transform="translate(-179.607 -191.041)" fill="#ee7e4f"/>
  <path id="Path_13549" data-name="Path 13549" d="M206.777,154.354c-.173,0-.412.009-.649,0-.2-.01-.44,0-.487-.265-.037-.22.183-.261.329-.331a1.672,1.672,0,0,0,.957-1.779,5.045,5.045,0,0,1,.172-1.115c.122-.735.652-.711,1.145-.73.566-.022.7.482.653.867a10.119,10.119,0,0,1-.543,2.673C208.08,154.374,207.5,154.462,206.777,154.354Z" transform="translate(-183.92 -132.607)" fill="#ee7e4f"/>
</svg>
