<svg xmlns="http://www.w3.org/2000/svg" width="35" height="34.997" viewBox="0 0 35 34.997">
  <g id="meeting-svgrepo-com" transform="translate(0 -0.014)">
    <path id="Path_6924" data-name="Path 6924" d="M97.259,13.7a6.845,6.845,0,1,0-6.845-6.845A6.853,6.853,0,0,0,97.259,13.7ZM93.948,6.128a1.035,1.035,0,0,1,1.463,0l.988.988,2.708-2.708a1.034,1.034,0,1,1,1.463,1.463l-3.44,3.44a1.034,1.034,0,0,1-1.463,0l-1.72-1.72A1.034,1.034,0,0,1,93.948,6.128Z" transform="translate(-79.759)"/>
    <path id="Path_6925" data-name="Path 6925" d="M4.026,24.59A4.026,4.026,0,1,0,0,20.563,4.031,4.031,0,0,0,4.026,24.59Z" transform="translate(0 -14.576)"/>
    <path id="Path_6926" data-name="Path 6926" d="M3.367,106.608v8.362a3.477,3.477,0,0,0,3.477,3.477h4.532v6.176a.852.852,0,0,0,.852.852h4.016a.852.852,0,0,0,.852-.852v-8.909a2.935,2.935,0,0,0-2.935-2.935H10.626v-6.171a3.629,3.629,0,0,0-7.259,0Z" transform="translate(-2.97 -90.831)"/>
    <path id="Path_6927" data-name="Path 6927" d="M232.7,24.59a4.026,4.026,0,1,0-4.026-4.026A4.031,4.031,0,0,0,232.7,24.59Z" transform="translate(-201.721 -14.576)"/>
    <path id="Path_6928" data-name="Path 6928" d="M183.6,106.608v6.171h-3.535a2.935,2.935,0,0,0-2.935,2.935v8.909a.852.852,0,0,0,.852.852H182a.852.852,0,0,0,.852-.852v-6.176h4.532a3.477,3.477,0,0,0,3.477-3.477v-8.362a3.629,3.629,0,0,0-7.259,0Z" transform="translate(-156.259 -90.831)"/>
    <path id="Path_6929" data-name="Path 6929" d="M101.689,136.328a1.034,1.034,0,1,0,0-2.069H89.641a1.034,1.034,0,1,0,0,2.069h4.989V152.4a1.034,1.034,0,1,0,2.069,0V136.328Z" transform="translate(-78.165 -118.425)"/>
  </g>
</svg>
