<svg xmlns="http://www.w3.org/2000/svg" width="71.971" height="72.084" viewBox="0 0 71.971 72.084">
  <g id="Netball_Federation_of_India" data-name="Netball Federation of India" transform="translate(0.032 -0.04)">
    <path id="Path_14011" data-name="Path 14011" d="M62.019,64.255c-.823.626-.829.629-.492,1.591.275.781.544,1.563.852,2.33a3.8,3.8,0,0,0,1.19,1.667c.224.169.2.289.08.509s-.247.22-.451.117a8.443,8.443,0,0,1-3.932-3.616c-.145-.272-.223-.289-.47-.127-.826.547-.836.537-.6,1.521a19.942,19.942,0,0,0,.821,3.093,3.109,3.109,0,0,0,.749,1.166c.252.226.168.388.014.6-.21.289-.359.043-.506-.051a7.975,7.975,0,0,1-3.454-4.123c-.085-.242-.161-.362-.456-.213-.657.331-1.335.622-2.006.926-.153.071-.323.1-.315.338.035,1.157-.123,2.314-.032,3.471a3.815,3.815,0,0,0,.474,1.678c.152.255.052.354-.121.506-.208.182-.325.078-.463-.08a8.6,8.6,0,0,1-2.269-4.509c-.052-.363-.187-.351-.508-.309a1.309,1.309,0,0,0-1.335,1.422,14.593,14.593,0,0,0-.226,3.442,4.057,4.057,0,0,0,.207.742.369.369,0,0,1-.185.534c-.289.188-.362-.038-.47-.194a8.645,8.645,0,0,1-1.705-4.748c-.009-.259-.058-.382-.347-.325a6.839,6.839,0,0,1-.868.111c-.207.012-.247.145-.289.3a28.442,28.442,0,0,0-.83,3.415,3.037,3.037,0,0,0,.084,1.333.475.475,0,0,1-.249.652H43.6c-.242-.548-.5-1.09-.723-1.644a7.327,7.327,0,0,1-.524-3.394c.027-.331-.029-.424-.411-.484A1.562,1.562,0,0,0,40,73.1c-.434,1.157-1.09,2.242-.941,3.548.036.32-.233.23-.377.305-.221.116-.255-.045-.305-.2a8.63,8.63,0,0,1-.406-4.681c.075-.318-.048-.363-.331-.466-1.079-.393-1.663.075-2.116,1.012a19.138,19.138,0,0,0-1.059,2.01,3.124,3.124,0,0,0-.217,1.157c.01.249-.051.383-.333.4-.259.014-.349-.056-.4-.324a8.891,8.891,0,0,1,.175-4.651c.11-.323.013-.4-.269-.489-1.08-.33-1.08-.341-1.8.542A6.413,6.413,0,0,0,29.8,74.6c-.013.13-.1.166-.21.182-.289.04-.492.038-.512-.359a8.677,8.677,0,0,1,.723-4.585c.156-.3.084-.434-.217-.5a.244.244,0,0,1-.1-.036c-.913-.706-1.627-.467-2.386.338-.837.889-1.853,1.617-2.227,2.859-.087.289-.308.145-.477.145-.289,0-.2-.234-.188-.385a8.512,8.512,0,0,1,1.506-4.449c.249-.336.12-.409-.136-.642a1.362,1.362,0,0,0-2.068.02c-1.025.836-2.236,1.461-2.8,2.758-.12.276-.323.1-.486.074-.226-.035-.187-.207-.145-.363a8.686,8.686,0,0,1,2.145-4.405c.25-.257.21-.373-.04-.578-.808-.68-.8-.688-1.735-.191a17.761,17.761,0,0,0-2.143,1.25,3.448,3.448,0,0,0-1.049,1.13c-.145.278-.305.237-.542.145-.276-.11-.181-.272-.121-.456a8.321,8.321,0,0,1,2.7-4.143c.249-.2.217-.312.025-.508-.324-.331-.578-.859-.953-.976-.353-.11-.84.2-1.265.338a6.285,6.285,0,0,0-3.182,1.717c-.227.275-.363,0-.519-.074-.257-.119-.078-.289,0-.424a9.459,9.459,0,0,1,3.095-3.488c.336-.082.411-.221.166-.518a6.889,6.889,0,0,1-.557-.868.349.349,0,0,0-.418-.2,21.322,21.322,0,0,0-2.315.5,3.977,3.977,0,0,0-2.178.992c-.249.229-.357.114-.55-.026-.253-.185-.085-.321.019-.467a8.7,8.7,0,0,1,3.694-3.153c.289-.121.3-.22.174-.479-.476-.986-.466-.986-1.565-.91a10.831,10.831,0,0,0-3.007.466,2.2,2.2,0,0,0-.774.408c-.24.227-.383.145-.594-.051-.269-.252-.022-.359.1-.49a8.289,8.289,0,0,1,4.132-2.717c.26-.068.3-.174.208-.434-.211-.619-.37-1.255-.552-1.88-.046-.159-.056-.333-.3-.35-1.222-.093-2.42-.4-3.649-.427a4.1,4.1,0,0,0-1.822.3c-.26.117-.351,0-.476-.192-.145-.229-.051-.324.136-.447a9.138,9.138,0,0,1,5.062-1.735c.461,0,.389-.194.4-.518.036-.868-.379-1.219-1.195-1.342-1.046-.158-2.041-.567-3.1-.678a4.194,4.194,0,0,0-1.539.1c-.278.074-.392.033-.512-.226-.145-.3.056-.354.24-.45a9.524,9.524,0,0,1,5.442-1.13c.289.03.377-.017.383-.324.013-.976.03-.988-.889-1.313a21.451,21.451,0,0,0-3.326-1.1,3.689,3.689,0,0,0-1.446-.017c-.336.074-.311-.155-.395-.331-.119-.252.049-.289.218-.356a9.122,9.122,0,0,1,5.623-.545c.289.068.351.033.454-.289a1.365,1.365,0,0,0-.894-1.9A13.193,13.193,0,0,0,7.471,34.35a1.939,1.939,0,0,0-.564-.054c-.33.048-.341-.161-.395-.383-.072-.3.145-.305.325-.338a9.683,9.683,0,0,1,5.351.3c.259.1.33.075.408-.213.337-1.239.349-1.232-.671-2a17.085,17.085,0,0,0-2.205-1.537,3.821,3.821,0,0,0-1.461-.492c-.3-.025-.366-.134-.373-.406-.01-.315.174-.318.393-.331a9.631,9.631,0,0,1,5.282.927c.249.133.338.087.451-.163.447-1,.454-.991-.356-1.756a18.841,18.841,0,0,0-2.1-1.844,3.73,3.73,0,0,0-1.456-.645c-.321-.058-.244-.243-.247-.45,0-.27.159-.249.34-.247a8.976,8.976,0,0,1,5.156,1.446c.289.2.4.123.539-.134.226-.4.674-.807.658-1.193s-.477-.761-.767-1.132a14.887,14.887,0,0,0-1.735-2.119,3.527,3.527,0,0,0-1.216-.771c-.3-.106-.215-.26-.178-.474.049-.289.192-.246.4-.205a9.328,9.328,0,0,1,4.924,2.344c.169.165.253.2.434-.012.856-.989.868-.982.218-2.14a17.422,17.422,0,0,0-1.388-2.242,3.656,3.656,0,0,0-1.157-1.021c-.262-.136-.336-.257-.217-.558.134-.338.323-.171.495-.117a9.121,9.121,0,0,1,4.773,3.121.051.051,0,0,0,.042-.013c.334-.3.819-.538.963-.91s-.272-.807-.434-1.216a14.547,14.547,0,0,0-1.125-2.38,3.471,3.471,0,0,0-1.012-1.095c-.243-.162-.24-.3-.129-.542.145-.311.325-.162.5-.087A8.716,8.716,0,0,1,24.167,16.7c.145.233.231.229.417.071.367-.309.991-.434,1.125-.847.126-.383-.129-.9-.233-1.351-.13-.57-.266-1.14-.419-1.705a3.7,3.7,0,0,0-.97-1.735c-.231-.223-.145-.344,0-.552.178-.266.312-.1.464,0a8.674,8.674,0,0,1,3.426,3.78c.114.263.207.27.451.161,1.29-.578,1.3-.568,1.143-1.952a18.963,18.963,0,0,0-.275-2.158,3.7,3.7,0,0,0-.684-1.546c-.179-.22-.168-.346.023-.555.226-.249.351-.084.5.046a8.562,8.562,0,0,1,2.955,4.275c.068.249.136.327.422.24,1.108-.337,1.114-.323,1.134-1.491a22.065,22.065,0,0,0,0-2.435,3.571,3.571,0,0,0-.482-1.626c-.162-.26-.145-.395.088-.593.27-.226.364,0,.492.13a8.128,8.128,0,0,1,2.422,4.689c.036.289.123.376.421.309.454-.1.918-.153,1.378-.226.171-.027.33-.043.388-.265.3-1.167.778-2.285,1-3.471a3.993,3.993,0,0,0,0-1.746.349.349,0,0,1,.236-.476c.289-.121.36.043.454.244A8.732,8.732,0,0,1,41,10.921c-.059.421.088.46.456.479a.909.909,0,0,0,1.086-.7c.327-.959.81-1.864,1.192-2.807a3.8,3.8,0,0,0,.311-2.169c-.061-.311.155-.289.317-.349.185-.065.308-.036.386.194a8.85,8.85,0,0,1,.289,5.539c-.106.341-.1.4.289.5a1.075,1.075,0,0,0,1.436-.714c.343-.732.807-1.406,1.2-2.113a3.983,3.983,0,0,0,.609-2.161c-.017-.3.145-.321.369-.363.278-.051.312.1.359.307A8.454,8.454,0,0,1,49,11.9c-.116.272-.046.3.2.411a1.6,1.6,0,0,0,2.307-.713,11.375,11.375,0,0,1,.889-1.077,4.259,4.259,0,0,0,.991-2.025c.042-.269.158-.324.406-.324.289,0,.289.145.3.359a8.789,8.789,0,0,1-.891,4.667c-.145.263-.093.312.155.473a1.611,1.611,0,0,0,2.38-.353c.8-.879,1.783-1.591,2.091-2.826.071-.289.312-.13.48-.129.278,0,.217.22.2.38A8.931,8.931,0,0,1,57.2,15.046c-.2.289-.145.382.13.616a1.4,1.4,0,0,0,2.083-.09,6.69,6.69,0,0,0,2.305-2.459c.123-.307.32-.094.476-.084.289.016.189.249.162.4a8.78,8.78,0,0,1-1.789,4.129c-.045.052-.085.107-.134.169.434.373.876.723,1.3,1.109a.5.5,0,0,0,.641.1c.7-.341,1.41-.645,2.081-1.037a3.616,3.616,0,0,0,1.322-1.212c.153-.253.289-.253.542-.153.328.129.178.314.11.495a8.691,8.691,0,0,1-2.314,3.571c-.217.192-.275.323-.029.511a1.462,1.462,0,0,1,.178.188c.9,1,.9,1,2.205.547A5.365,5.365,0,0,0,69.114,20.3c.2-.249.349-.08.529,0,.252.121.12.27.048.418a9.483,9.483,0,0,1-3.037,3.548c.165.242.331.483.493.723.466.7.466.7,1.294.521.388-.082.775-.169,1.157-.26A4.288,4.288,0,0,0,71.7,24.2c.21-.208.325-.064.479.04.184.126.176.242.055.434a8.152,8.152,0,0,1-2.976,2.892c-.434.229-.434.422-.215.765a1.13,1.13,0,0,1,.181.37c.182.95.8,1.095,1.652,1.012A5.792,5.792,0,0,0,73.8,29c.3-.211.336.106.476.205.205.145.042.263-.059.364a9.038,9.038,0,0,1-3.37,2.3c-.231.081-.323.145-.2.389a2.493,2.493,0,0,1,.124.393c.4,1.3.4,1.318,1.78,1.4a5.055,5.055,0,0,0,2.835-.362c.275-.145.317.1.434.214.188.184.054.289-.091.408a8.507,8.507,0,0,1-3.6,1.845c-.4.078-.511.234-.392.622s-.026.95.257,1.176a3.078,3.078,0,0,0,1.281.343,5.145,5.145,0,0,0,3.007-.009c.3-.12.282.162.389.289.145.174.042.263-.108.359A8.469,8.469,0,0,1,72.465,40.4c-.247.013-.373.043-.362.338.023.62.014,1.244,0,1.866,0,.2.035.312.236.393.832.334,1.65.7,2.48,1.033a4,4,0,0,0,2.13.289c.3-.048.343.106.419.305.1.257-.061.328-.253.4a8.756,8.756,0,0,1-5.206.46c-.075.434-.145.858-.218,1.281a.249.249,0,0,0,.134.3,15.921,15.921,0,0,0,3.556,1.763,2.555,2.555,0,0,0,.82.075c.289-.025.385.094.434.353.068.314-.137.333-.343.385a8.374,8.374,0,0,1-4.848-.051c-.289-.1-.343-.012-.458.24a1.6,1.6,0,0,0,.646,2.349,18.146,18.146,0,0,0,2.459,1.7,2.735,2.735,0,0,0,.794.211c.325.027.331.21.338.454.01.3-.182.266-.375.281A8.974,8.974,0,0,1,69.7,53.785c-.013-.012-.023-.029-.038-.033a.051.051,0,0,0-.042.013c-.145.314-.3.629-.45.943-.289.359-.191.639.137.928.386.34.733.723,1.1,1.092a5.514,5.514,0,0,0,1.578,1.412,1.8,1.8,0,0,0,.959.467c.375.071.308.289.289.526-.029.321-.266.188-.434.184a8.841,8.841,0,0,1-4.755-1.493c-.249-.346-.467-.37-.652.056a2.722,2.722,0,0,1-.145.262c-.372.344-.338.638,0,1.028.551.636,1.012,1.351,1.539,2.012a3.986,3.986,0,0,0,1.8,1.42c.323.108.174.3.166.49-.009.276-.189.234-.362.207a8.17,8.17,0,0,1-4.773-2.246c-.244-.253-.34-.2-.586.01a1.343,1.343,0,0,0-.265,2.072,17.9,17.9,0,0,1,.9,1.735,3.891,3.891,0,0,0,1.4,1.56c.262.153.246.289.152.537-.124.325-.314.174-.5.113a11.769,11.769,0,0,1-2.7-1.388l-1.079-1.03-.088-.1C62.4,63.863,62.4,63.863,62.019,64.255ZM22.8,39.437l-.035.233c-.012.233-.023.466-.036.7a7.238,7.238,0,0,0,0,2.376,2.778,2.778,0,0,0,.035.868.289.289,0,0,0,.058.278.243.243,0,0,0,.02.239,16.053,16.053,0,0,0,.939,4.039,18.972,18.972,0,0,0,7.3,9.356A19.277,19.277,0,0,0,41.094,60.8a19.164,19.164,0,1,0-2.683-38A18.811,18.811,0,0,0,24.562,33.325a14.947,14.947,0,0,0-1.624,5.24.275.275,0,0,0-.065.27c-.025.2-.048.392-.071.587ZM64.939,18.4c-1.021.493-2.044.983-3.063,1.482a8.781,8.781,0,0,0-4.133,3.9A7.23,7.23,0,0,1,55.1,26.82c.369.39.752.767,1.1,1.173.194.229.309.176.479-.01a9.447,9.447,0,0,0,1.031-1.419c.622-1.012,1.135-2.091,1.834-3.059a7.466,7.466,0,0,1,2.748-2.446,5.954,5.954,0,0,0,2.707-2.608c.014-.036.048-.1.04-.1C64.983,18.307,64.951,18.348,64.939,18.4ZM21.466,67.866c.931-.654,1.867-1.3,2.793-1.965a9.432,9.432,0,0,0,3.616-5.033,6.083,6.083,0,0,1,1.359-2.3c.289-.312.6-.6.9-.9a12.365,12.365,0,0,1-1.038-.856c-.359-.363-.557-.312-.846.1a18.594,18.594,0,0,0-1.772,3.9,8.846,8.846,0,0,1-3.037,4.21,5.749,5.749,0,0,0-2.067,2.729c-.061.065-.117.152-.043.215S21.43,67.92,21.466,67.866Zm4.25-55.545-.136-.1a.145.145,0,0,0,.048.2c.185.787.4,1.569.551,2.362a10.09,10.09,0,0,0,3.678,6.327,5.75,5.75,0,0,1,2,3.01c.071.257.116.359.4.194a11.539,11.539,0,0,1,1.291-.642c.278-.12.25-.257.13-.471a7.426,7.426,0,0,0-1.4-1.722c-.7-.664-1.43-1.3-2.125-1.97a8.1,8.1,0,0,1-2.479-4.028A5.99,5.99,0,0,0,25.716,12.321ZM21.308,14.77c-.01-.046-.025-.085-.084-.061l.045.1,1.446,3.251a9.148,9.148,0,0,0,3.86,4.392,7.1,7.1,0,0,1,3.264,3.415c.188-.136.353-.259.522-.377s.34-.236.512-.35c.537-.356.587-.686.145-1.186a6.7,6.7,0,0,0-1.372-1.176c-.908-.6-1.84-1.157-2.735-1.77a8.01,8.01,0,0,1-2.984-3.348,5.956,5.956,0,0,0-2.619-2.89Zm8.648-4.628c.124.891.2,1.782.265,2.674a9.479,9.479,0,0,0,2.508,6.19,6.5,6.5,0,0,1,1.977,3.83c.026.233.1.289.333.205a9.5,9.5,0,0,1,1.374-.443c.4-.08.359-.255.255-.539a6.619,6.619,0,0,0-1.157-1.945c-.691-.839-1.427-1.64-2.1-2.493a7.594,7.594,0,0,1-1.783-4,5.827,5.827,0,0,0-1.675-3.478ZM51.894,58.719c-.538.315-1.022.609-1.516.885a.367.367,0,0,0-.181.547,5.772,5.772,0,0,0,1.131,1.78c.723.794,1.562,1.461,2.337,2.2a8.419,8.419,0,0,1,2.652,4.223A6.178,6.178,0,0,0,58.18,71.4a.506.506,0,0,0,.017-.385q-.356-1.455-.71-2.911a9.408,9.408,0,0,0-3.37-5.425,6.261,6.261,0,0,1-1.633-2.054A6.931,6.931,0,0,1,51.894,58.719ZM44.488,7.829c-.457,1.034-.923,2.065-1.375,3.1a9.153,9.153,0,0,0-.639,5.614A6.9,6.9,0,0,1,42,21.566c-.124.221-.01.256.185.266.483.025.968.038,1.446.1.367.049.5-.124.563-.434a6.232,6.232,0,0,0,.121-1.439,37.528,37.528,0,0,0-.578-3.989A8.461,8.461,0,0,1,44.2,11.51,5.325,5.325,0,0,0,44.488,7.829ZM17.92,17.807c.723,1.093,1.284,2.268,1.978,3.367a9.427,9.427,0,0,0,4.3,3.673,7.047,7.047,0,0,1,3.478,2.918l.771-.723c.843-.782.843-.781-.113-1.494a22.085,22.085,0,0,0-3.4-1.842,9.459,9.459,0,0,1-4.214-3.6,5.351,5.351,0,0,0-2.794-2.3ZM61.914,68.866c-.589-1.331-.91-2.748-1.51-4.061a8.53,8.53,0,0,0-3.011-3.672,6.948,6.948,0,0,1-3.128-3.712c-.062-.205-.161-.218-.33-.091a10.9,10.9,0,0,1-1.138.808c-.321.187-.272.379-.13.629a5.005,5.005,0,0,0,1.278,1.481c.913.709,1.853,1.38,2.77,2.083a7.951,7.951,0,0,1,2.865,3.642A5.863,5.863,0,0,0,61.914,68.866ZM57.864,53.332l-.57.716a1.05,1.05,0,0,0,.268,1.7c.126.09.265.162.4.24a19.379,19.379,0,0,0,3.419,1.3,8.569,8.569,0,0,1,4.36,2.9,5.779,5.779,0,0,0,2.47,1.829c.113.048.244.124.336.017.111-.134-.061-.208-.123-.289-.528-.7-1.072-1.4-1.591-2.106a9.687,9.687,0,0,0-5.442-3.8,5.785,5.785,0,0,1-3.261-2.255C58.06,53.491,58.025,53.359,57.864,53.332ZM59.4,50.9c-.33.541-.62,1.05-.946,1.537-.156.234-.04.331.127.451a5.736,5.736,0,0,0,1.566.775c1.02.33,2.078.49,3.118.723a8.616,8.616,0,0,1,4.612,2.367,6.24,6.24,0,0,0,3.394,1.711c-1.215-1.041-2.1-2.211-3.182-3.195a8.719,8.719,0,0,0-4.54-2.211A6.583,6.583,0,0,1,59.4,50.9ZM35.592,12.667A6.653,6.653,0,0,0,34.58,8.973c-.064-.1-.114-.246-.263-.181-.108.048-.074.189-.054.278a6.662,6.662,0,0,1,.029,1.955A9.919,9.919,0,0,0,36.349,18.3a5.726,5.726,0,0,1,1.192,3.361c.012.2-.181.5.071.594.2.071.464-.065.7-.107a.269.269,0,0,0,.213-.2c.379-1.037.753-2.049-.041-3.076-.473-.612-.894-1.267-1.318-1.916A7.866,7.866,0,0,1,35.592,12.667ZM25.715,30.09c.382-.47.749-.944,1.144-1.4.169-.194.039-.255-.084-.35a7.222,7.222,0,0,0-1.861-1.012c-1.112-.419-2.24-.8-3.339-1.248A7.8,7.8,0,0,1,18.1,23.566a6.61,6.61,0,0,0-2.788-2.088c-.161-.068-.315-.21-.544-.124a31.549,31.549,0,0,1,2.006,2.584,10.028,10.028,0,0,0,5.245,3.769,7.246,7.246,0,0,1,3.686,2.376ZM48.864,8.568c-.5.96-1.088,1.853-1.634,2.771a9.68,9.68,0,0,0-1.383,6.4,6.334,6.334,0,0,1-.493,3.295c-.145.346-.6.723-.461.968.168.289.723.188,1.108.275a.807.807,0,0,0,1.114-.642,4.313,4.313,0,0,0,.119-.609,15.273,15.273,0,0,0-.061-3.361,9.344,9.344,0,0,1,1.03-5.6A5.559,5.559,0,0,0,48.864,8.568Zm16.5,57.109c-.733-1.248-1.232-2.61-1.978-3.844a8.906,8.906,0,0,0-3.747-3.471,6.5,6.5,0,0,1-3.144-2.949c-.116-.237-.2-.223-.36-.054a10.954,10.954,0,0,1-1.012.968c-.265.213-.227.357-.039.578a7.478,7.478,0,0,0,2.059,1.627c.986.567,2.025,1.057,2.955,1.707a7.4,7.4,0,0,1,2.535,2.739A6.021,6.021,0,0,0,65.36,65.677ZM7.825,38.706c1.183.359,2.314.849,3.478,1.268a10.627,10.627,0,0,0,6.643.289,6.732,6.732,0,0,1,3.474-.017c.6.152.6.159.674-.463.166-1.4.1-1.469-1.32-1.381a31.355,31.355,0,0,0-3.9.712,8.529,8.529,0,0,1-4.4-.022A8.489,8.489,0,0,0,7.825,38.706ZM7.8,43.11a35.466,35.466,0,0,1,3.549.868,10.809,10.809,0,0,0,6.6-.419,7.107,7.107,0,0,1,3.306-.443c.774.075.772.091.759-.667C22,41.127,22,41.14,20.66,41.388c-1.41.263-2.738.83-4.115,1.216a9.183,9.183,0,0,1-4.846.229,6.426,6.426,0,0,0-3.9.278ZM49.4,59.987c-.557.192-1.051.39-1.56.529-.356.1-.445.226-.35.607a10.891,10.891,0,0,0,1.654,3.254,10.014,10.014,0,0,1,2.064,5.943,5.6,5.6,0,0,0,1.115,3.326A26.056,26.056,0,0,1,52.4,70.7a9.512,9.512,0,0,0-1.433-5.93A7.174,7.174,0,0,1,49.4,59.987Zm23.507-5.951c-.9-.693-1.721-1.461-2.59-2.169a9.33,9.33,0,0,0-5.8-2.158,6.54,6.54,0,0,1-3.222-.986c-.246-.145-.473-.325-.709-.49-.121.276-.25.55-.363.829-.473,1.171-.469,1.164.8,1.524a22.284,22.284,0,0,0,3.736.492,8.313,8.313,0,0,1,4.773,1.746,4.359,4.359,0,0,0,.915.578A4.807,4.807,0,0,0,72.905,54.036ZM22.524,46.219a10.035,10.035,0,0,1-.266-1.414c-.023-.489-.217-.5-.619-.418a20.938,20.938,0,0,0-4.049,1.6,9.2,9.2,0,0,1-5,1.012,7.416,7.416,0,0,0-3.219.289,2.169,2.169,0,0,0-.992.464,15.423,15.423,0,0,1,2.748.278,12.308,12.308,0,0,0,4.984-.052,7.81,7.81,0,0,0,1.656-.578A8.565,8.565,0,0,1,22.524,46.219ZM12.127,25.6c.952.765,1.767,1.657,2.66,2.467a9.865,9.865,0,0,0,5.351,2.628,7.963,7.963,0,0,1,4,1.533c.129.1.187.068.289-.054,1.1-1.364,1-1.682-.7-2.153-1.331-.369-2.713-.482-4.049-.813a8.348,8.348,0,0,1-3.895-1.915A6.6,6.6,0,0,0,12.127,25.6ZM43.393,75.173a25.614,25.614,0,0,1,.671-2.547,10.059,10.059,0,0,0-.23-7.218,5.893,5.893,0,0,1-.434-2.882c.029-.37.328-.856.123-1.066-.178-.182-.707-.02-1.08-.013-.723.012-.876.178-.836.923a5.206,5.206,0,0,0,.077.615,22.758,22.758,0,0,0,1.022,3.3,8.843,8.843,0,0,1,.4,5.269A5.5,5.5,0,0,0,43.393,75.173Zm4.4-.346c.081-.638.145-1.193.224-1.748a15,15,0,0,0,.268-4.459,10.4,10.4,0,0,0-1.025-3.326,6.447,6.447,0,0,1-.816-4.084c.043-.289-.061-.273-.27-.229a10.622,10.622,0,0,1-1.371.252c-.362.029-.376.205-.337.474a7.755,7.755,0,0,0,.645,2.169c.434.955.905,1.9,1.322,2.864a8.075,8.075,0,0,1,.662,4.483A6.1,6.1,0,0,0,47.791,74.827ZM40.083,7.964c-.331,1.349-.868,2.619-1.19,3.955a9.164,9.164,0,0,0,0,4.559c.175.648.4,1.286.542,1.939A6.191,6.191,0,0,1,39.221,22c.256-.025.434-.055.628-.059,1.6-.036,1.63-.161,1.391-1.828-.192-1.333-.723-2.583-1.037-3.892a7.717,7.717,0,0,1-.132-4.038A7.386,7.386,0,0,0,40.083,7.964Zm-16.717,41c-.181-.56-.362-1.093-.524-1.633-.074-.239-.223-.226-.4-.163a6.375,6.375,0,0,0-1.477.736c-1.079.723-2.009,1.633-3.06,2.386a8.1,8.1,0,0,1-4.07,1.637A6.466,6.466,0,0,0,10.318,53.5c1.2-.2,2.279-.27,3.351-.356a9.4,9.4,0,0,0,5.792-2.328A6.783,6.783,0,0,1,23.366,48.967Zm-5.379,16.1c1.012-.622,2.08-1.108,3.1-1.679a9.481,9.481,0,0,0,4.226-4.6,6.259,6.259,0,0,1,1.718-2.242c.289-.252.613-.47.923-.7-.278-.305-.557-.607-.832-.915-.379-.424-.578-.434-1.012-.016a6.229,6.229,0,0,0-1.077,1.506c-.49.911-.955,1.835-1.462,2.735a7.979,7.979,0,0,1-3.12,3.225,5.665,5.665,0,0,0-2.466,2.689ZM10.323,29.627c1.122.742,2.113,1.631,3.211,2.376A9.92,9.92,0,0,0,18.9,33.782a7.967,7.967,0,0,1,4.236,1.2l.74-1.795c-.289-.09-.539-.184-.8-.253a32.583,32.583,0,0,0-4.564-.513,8.955,8.955,0,0,1-4.443-1.533,6.482,6.482,0,0,0-3.752-1.258ZM61.664,42.787c-.071.586-.113,1.1-.2,1.61-.061.34.033.443.377.474a11.751,11.751,0,0,0,3.53-.379,11.614,11.614,0,0,1,4.867-.265c.709.152,1.341.531,2.058.667a6.616,6.616,0,0,0,2.959-.043c-1.3-.4-2.367-.96-3.485-1.4a8.915,8.915,0,0,0-5.47-.508,7.215,7.215,0,0,1-4.637-.148Zm12.747,6.469c-1-.493-1.935-1.082-2.892-1.63a9.4,9.4,0,0,0-6.31-1.242,5.818,5.818,0,0,1-2.71-.228c-.418-.135-.827-.289-1.241-.444a12.284,12.284,0,0,1-.351,1.348c-.184.486.064.612.447.7a7.426,7.426,0,0,0,2.007.126c1.345-.049,2.678-.3,4.028-.226a6.593,6.593,0,0,1,2.979.735,6.508,6.508,0,0,0,4.044.859Zm-61.9,8.128c.819-.166,1.636-.353,2.459-.495a9.95,9.95,0,0,0,6.074-3.141,6.548,6.548,0,0,1,3.286-2.143c.239-.064.272-.145.156-.349a7.764,7.764,0,0,1-.541-1.059c-.162-.427-.354-.434-.714-.214a13.322,13.322,0,0,0-2.716,2.386A9.789,9.789,0,0,1,15.3,55.61a4.921,4.921,0,0,0-2.781,1.772ZM8.9,34.031c1.076.547,2.078,1.206,3.122,1.8a9.973,9.973,0,0,0,5.89,1.422,8.871,8.871,0,0,1,4.167.578c.246.1.289.009.334-.187a8.35,8.35,0,0,1,.311-1.3c.114-.276-.084-.331-.275-.364a8.181,8.181,0,0,0-1.591-.145c-1.242.033-2.485.1-3.727.09a8.506,8.506,0,0,1-4.316-1.053A6.84,6.84,0,0,0,8.9,34.028ZM47.284,22.588a14.216,14.216,0,0,1,1.4.493c.457.218.62.054.765-.37a20.608,20.608,0,0,0,.662-3.974,8.823,8.823,0,0,1,1.861-4.846,5.7,5.7,0,0,0,1.342-3.442c-.775,1.012-1.7,1.9-2.482,2.892a9.2,9.2,0,0,0-1.869,3.934c-.127.648-.145,1.3-.237,1.951a6.509,6.509,0,0,1-1.435,3.36ZM26.313,54.023c-.308-.434-.6-.81-.868-1.213-.192-.3-.34-.5-.662-.124-.224.259-.515.458-.755.706-.853.884-1.517,1.922-2.314,2.859a8.172,8.172,0,0,1-3.766,2.77,6.442,6.442,0,0,0-2.981,2.224A1.484,1.484,0,0,0,15.3,61.2c1.034-.434,2.12-.723,3.182-1.089a9.447,9.447,0,0,0,4.773-3.63,6.628,6.628,0,0,1,3.059-2.463Zm3.4,18.416c.233-.019.3-.178.392-.289.526-.661,1.03-1.342,1.566-1.993a9.756,9.756,0,0,0,2.4-6.392,5.7,5.7,0,0,1,.667-2.58l.434-.846-.908-.38c-.911-.377-.905-.375-1.157.578a35.056,35.056,0,0,0-.5,4.414,7.272,7.272,0,0,1-1.2,3.537A8.149,8.149,0,0,0,29.718,72.439ZM25.164,70.5a.907.907,0,0,0,.223-.111c.683-.736,1.465-1.362,2.214-2.025a9.648,9.648,0,0,0,3.28-5.594,6.261,6.261,0,0,1,1.4-2.959c.463-.542.467-.539-.159-.9-1.226-.7-1.218-.693-1.728.657-.525,1.39-.723,2.868-1.213,4.266a6.931,6.931,0,0,1-1.678,2.932,7.685,7.685,0,0,0-2.343,3.73Zm8.8,3.552a16.014,16.014,0,0,1,1.173-2,10.584,10.584,0,0,0,2.116-7.481,5.512,5.512,0,0,1,.383-2.586c.11-.289.227-.57.341-.853-.305-.077-.612-.145-.915-.229-1.057-.269-1.034-.266-1.157.84-.194,1.786.181,3.572-.052,5.36a7.014,7.014,0,0,1-.859,2.836,6.942,6.942,0,0,0-1.03,4.117Zm7.139-12.6c-.169-.01-.272-.023-.375-.022-.537.007-1.237-.377-1.562.046s-.145,1.132-.062,1.717c.168,1.228.367,2.459.5,3.686a7.16,7.16,0,0,1-.532,3.84,6.363,6.363,0,0,0-.489,4.086c.49-1.41,1.215-2.621,1.735-3.926a8.984,8.984,0,0,0,.484-5.269,7.028,7.028,0,0,1,.3-4.158ZM57.417,12.611c-.885.814-1.777,1.62-2.652,2.444a8.945,8.945,0,0,0-2.087,2.929,7.387,7.387,0,0,0-.539,1.667,7.354,7.354,0,0,1-1.9,4.049c.321.163.578.289.839.434,1.024.538,1.021.538,1.446-.593s.6-2.333.918-3.5A8.386,8.386,0,0,1,55.8,15.771a5.04,5.04,0,0,0,1.614-3.16ZM70.481,25.794a1.534,1.534,0,0,0-.356,0c-.829.244-1.678.386-2.524.547a9.109,9.109,0,0,0-5.527,2.992,6.94,6.94,0,0,1-2.881,2.125c-.175.065-.289.111-.163.314.3.47.406,1.27.856,1.378s.927-.5,1.316-.894c.813-.821,1.591-1.679,2.417-2.489a7.239,7.239,0,0,1,3.775-2.126,5.169,5.169,0,0,0,1.8-.761,4.7,4.7,0,0,0,1.287-1.086ZM61.2,15.034c-.662.524-1.332,1.012-2.025,1.465A9.668,9.668,0,0,0,54.9,21.78a6.808,6.808,0,0,1-1.866,3.169c-.185.169-.159.259.029.385.273.182.537.379.8.578.565.422.568.427.936-.2a21.607,21.607,0,0,0,1.368-3.4,8.691,8.691,0,0,1,2.994-4.3A5.538,5.538,0,0,0,61.2,15.034ZM74.724,39.186a27.845,27.845,0,0,1-3.266-.632,9.263,9.263,0,0,0-6.586.7,5.165,5.165,0,0,1-1.934.526c-.434.039-1.1-.085-1.263.145-.214.311-.025.889-.036,1.354-.01.336.027.5.448.4a9.465,9.465,0,0,0,1.248-.323c1.09-.425,2.169-.891,3.267-1.293a7.365,7.365,0,0,1,4.155-.414,6.361,6.361,0,0,0,3.966-.467ZM67.988,22.135l-.084-.1c-.975.321-1.952.636-2.924.965a9.107,9.107,0,0,0-4.467,3.037,18.1,18.1,0,0,1-1.157,1.527,7.017,7.017,0,0,1-2.129,1.576c.338.463.661.868.943,1.3.161.247.276.226.47.054a9.619,9.619,0,0,0,1.2-1.283c.687-.885,1.31-1.819,2.051-2.665A7.078,7.078,0,0,1,65.1,24.283a5.062,5.062,0,0,0,1.332-.681,5.569,5.569,0,0,0,1.552-1.466Zm5.75,12.675c-.975-.082-1.935-.179-2.892-.289a9.235,9.235,0,0,0-6.133,1.157,7.146,7.146,0,0,1-3.367,1.208c-.233.013-.24.117-.2.3a6.344,6.344,0,0,1,.243,1.265c.007.315.1.324.327.256a9.363,9.363,0,0,0,1.754-.756c.94-.506,1.841-1.089,2.823-1.52A7.383,7.383,0,0,1,70.1,35.7a5.782,5.782,0,0,0,3.642-.887Zm-1.263-4.585a24.846,24.846,0,0,1-3.264.145,9.417,9.417,0,0,0-6.238,2.262,5.251,5.251,0,0,1-1.615.915c-.4.145-.8.273-1.2.409.145.421.321.834.434,1.265s.273.447.632.252a32.732,32.732,0,0,0,3.027-2.084,8.2,8.2,0,0,1,4.508-1.75,6.243,6.243,0,0,0,3.72-1.414ZM62.352,42.3a2.087,2.087,0,0,0,1.012.272,7.181,7.181,0,0,0,2.412-.184,9.27,9.27,0,0,1,5.254.133c.4.129.474.025.454-.349-.025-.483-.016-.968,0-1.446,0-.236-.085-.289-.317-.347a7.81,7.81,0,0,0-5.092.578A19.258,19.258,0,0,1,62.359,42.3ZM20.881,47.044A3.384,3.384,0,0,0,19,47.53,11.124,11.124,0,0,1,13.4,48.9c-.249-.009-.35.038-.26.312q.279.858.518,1.735c.074.272.205.328.479.3a6.8,6.8,0,0,0,2.946-1.167c1.271-.832,2.331-1.938,3.605-2.768A1.406,1.406,0,0,0,20.881,47.044ZM50.157,61.575a6.726,6.726,0,0,0,1.054,2.38,8.954,8.954,0,0,1,1.747,4.726c.013.268.1.412.412.26.571-.281,1.144-.561,1.735-.8.409-.162.417-.369.253-.723a10.254,10.254,0,0,0-2.71-3.349A19.012,19.012,0,0,1,50.157,61.575ZM61.272,36.213a5.464,5.464,0,0,0,2.794-.9,9.948,9.948,0,0,1,5.128-1.547c.4-.012.989.315,1.157-.113.127-.33-.2-.837-.334-1.264a.255.255,0,0,0-.3-.2,8.384,8.384,0,0,0-4.451,1.287A41.324,41.324,0,0,1,61.272,36.213Zm3.195-13.7c-.35-.39-.665-.723-.965-1.082-.145-.169-.257-.133-.443-.055a7.4,7.4,0,0,0-3.352,3.044c-.651,1.035-1.176,2.145-1.88,3.151-.069.1-.244.214-.1.347s.289.009.409-.091a6.112,6.112,0,0,0,1.27-1.357,9.575,9.575,0,0,1,5.057-3.958ZM38.363,62a6.422,6.422,0,0,0-.451,3.263,9.4,9.4,0,0,1-.834,4.68c-.425.937-.421.926.642,1.047.375.043.541-.045.723-.419a7.7,7.7,0,0,0,.441-4.407A28.465,28.465,0,0,1,38.363,62ZM29.792,14.579c-.434.205-.788.388-1.157.537-.256.106-.307.234-.243.512A6.091,6.091,0,0,0,29.729,18.1c1.224,1.5,2.9,2.545,4.09,4.129a.873.873,0,0,0-.119-.7,7.27,7.27,0,0,0-1.359-2,9.5,9.5,0,0,1-2.55-4.959Zm24.391.133c-.451-.194-.847-.362-1.242-.532a.315.315,0,0,0-.434.1,6.246,6.246,0,0,0-1.283,2.279,24.531,24.531,0,0,0-.686,4.129c-.085.619-.2,1.234-.3,1.85a4.09,4.09,0,0,0,1.1-2.233,10.079,10.079,0,0,1,2.848-5.59ZM23.956,52.458a5.893,5.893,0,0,0-2.344,1.634,9.947,9.947,0,0,1-3.938,2.761c-.341.133-.911.107-.97.408-.054.27.36.625.544.955.145.25.289.246.551.168A6.487,6.487,0,0,0,20.539,56.6c1.255-1.283,2.146-2.865,3.413-4.149ZM61.413,19.4c-.448-.373-.856-.714-1.265-1.053a.234.234,0,0,0-.35-.019,7.625,7.625,0,0,0-2.114,2.23,34.782,34.782,0,0,0-1.735,4.29c-.022.052.014.127.025.2A1.823,1.823,0,0,0,56.905,24a9.649,9.649,0,0,1,4.5-4.6ZM22.077,35.192a5.7,5.7,0,0,0-2.78-.732A11.064,11.064,0,0,1,14.5,33.332c-.318-.161-.759-.535-.927-.434-.289.165-.246.675-.382,1.025-.1.265-.033.393.207.528a7.12,7.12,0,0,0,2.663.765,36.554,36.554,0,0,0,4.194-.02C20.851,35.195,21.445,35.192,22.077,35.192Zm3,30.9c.395.255.739.451,1.053.688.22.168.338.088.518-.065a7.318,7.318,0,0,0,2.11-3.663c.373-1.228.564-2.5,1.025-3.708.036-.1.093-.208-.039-.262s-.189.059-.246.145a6.912,6.912,0,0,0-.992,1.792A10.03,10.03,0,0,1,25.077,66.091ZM26.46,27.274a6.136,6.136,0,0,0-2.422-1.783,10.079,10.079,0,0,1-3.71-2.661c-.723-.845-.714-.832-1.446.056a.427.427,0,0,0,.012.659,7.446,7.446,0,0,0,2.382,1.7C22.944,26.059,24.789,26.429,26.46,27.274ZM21.223,43.761a7.68,7.68,0,0,0-3.352.513,10.67,10.67,0,0,1-4.511.681c-1.012-.067-.982-.075-.892.921.038.411.221.521.578.538a7.616,7.616,0,0,0,2.2-.26,27.153,27.153,0,0,0,4.041-1.649C19.881,44.25,20.487,44.037,21.223,43.761ZM68.445,54.742c.192-.408.346-.774.535-1.119.132-.239.04-.36-.145-.509a6.2,6.2,0,0,0-2.829-1.195c-1.446-.289-2.92-.266-4.366-.518-.136-.025-.269-.064-.4-.082s-.276-.1-.453.014a5.671,5.671,0,0,0,2.459,1.03,9.777,9.777,0,0,1,5.2,2.373ZM47.151,62.22a.434.434,0,0,0-.124.464,9.312,9.312,0,0,0,.742,2.19,10.027,10.027,0,0,1,1.283,4.431c.017.347-.189.847.1,1,.231.124.665-.161,1.012-.223.3-.052.383-.192.383-.487a5.545,5.545,0,0,0-.3-1.67C49.6,65.832,48.057,64.232,47.151,62.22ZM32.266,61.076a3.99,3.99,0,0,0-.681,1.545,10.121,10.121,0,0,1-2.673,5.371c-.171.172-.156.268.071.362a11.061,11.061,0,0,1,1.034.47c.22.116.32.039.461-.134a6.339,6.339,0,0,0,1.193-2.327A36.39,36.39,0,0,0,32.266,61.076Zm23.066-2.921a5.619,5.619,0,0,0,2,2.142,9.914,9.914,0,0,1,3.07,3.092c.182.289.226.827.571.811.289-.014.547-.434.832-.655a.371.371,0,0,0,.093-.564,6.087,6.087,0,0,0-1.371-1.6c-1.568-1.338-3.574-1.971-5.2-3.227Zm7.3-9.583c.025.163.091.178.185.2a21.61,21.61,0,0,0,2.81.379,8.92,8.92,0,0,1,4.081,1.49c.121.08.289.289.39-.017.133-.408.239-.826.359-1.238.062-.214-.106-.26-.236-.338a5.018,5.018,0,0,0-1.446-.555C66.727,48.013,64.69,48.548,62.637,48.572ZM23.788,29.346A.567.567,0,0,0,23.43,29a9.39,9.39,0,0,0-1.762-.732,10.184,10.184,0,0,1-4.587-2.93c-.145.22-.27.4-.389.594-.592.943-.578.96.356,1.55C19.094,28.768,21.473,28.8,23.788,29.346Zm38.848,9.787a4.358,4.358,0,0,0,1.97-.464,9.593,9.593,0,0,1,5.567-.982c.341.043.808.334,1.012.035.145-.226-.062-.69-.114-1.047,0-.035-.01-.069-.013-.1-.01-.145-.084-.2-.233-.213a8.254,8.254,0,0,0-3.76.443C65.521,37.439,64.16,38.424,62.637,39.133Zm4.281-13.285c-.268-.395-.5-.723-.707-1.05-.1-.163-.2-.171-.386-.113a7.253,7.253,0,0,0-3.639,2.524c-.771.994-1.527,2-2.289,3,.192.114.338,0,.466-.107a6.653,6.653,0,0,0,.92-.833,9.565,9.565,0,0,1,5.64-3.425ZM53.179,23.774A4.47,4.47,0,0,0,53.96,22.5c.321-.723.49-1.5.836-2.217A10,10,0,0,1,57.808,16.7c-.37-.224-.714-.422-1.044-.639-.162-.107-.246-.067-.388.055a6.853,6.853,0,0,0-2.044,3.172c-.483,1.465-.678,3.007-1.154,4.483ZM35.144,62.021a4.867,4.867,0,0,0-.451,1.987,9.651,9.651,0,0,1-1.511,5.167c-.425.68-.421.658.357.913a.565.565,0,0,0,.81-.307,7.244,7.244,0,0,0,.868-2.892C35.412,65.266,35.1,63.652,35.144,62.021ZM62.492,32a23.115,23.115,0,0,1,3.037-1.646,13.452,13.452,0,0,1,3.461-.636c-.234-.493-.443-.926-.646-1.361-.072-.155-.162-.266-.354-.2a15.71,15.71,0,0,0-1.821.557A11.921,11.921,0,0,0,62.492,32Zm-25.8-11.341a4.06,4.06,0,0,0-.829-1.941,9.8,9.8,0,0,1-2.179-5.222c-.007-.1,0-.278-.11-.255a4.93,4.93,0,0,0-1.182.349c-.213.107-.075.414-.029.623a8.186,8.186,0,0,0,1.871,3.415A32.44,32.44,0,0,1,36.692,20.654Zm5.179-.781a3.943,3.943,0,0,0,.114-2.45,10.936,10.936,0,0,1-.035-5.078c.022-.09.11-.185,0-.276a1.1,1.1,0,0,0-1.277.412,6.229,6.229,0,0,0-.027,2.621C40.884,16.716,41.536,18.212,41.871,19.873ZM21.913,50.049a5.428,5.428,0,0,0-1.834,1.088A9.526,9.526,0,0,1,15.7,53.472c-.989.226-.989.233-.6,1.176.077.191.179.259.427.211A6.307,6.307,0,0,0,18.093,53.7a52.194,52.194,0,0,0,3.812-3.653Zm-6.919-20.97c-.145.3-.259.578-.4.85a.413.413,0,0,0,.159.633,7.162,7.162,0,0,0,2.528,1.012,29.925,29.925,0,0,0,4.065.414,2.625,2.625,0,0,0,1.2.067,4.656,4.656,0,0,0-1.963-.638,10.585,10.585,0,0,1-5.6-2.334Zm48.125,16.5a4.524,4.524,0,0,0,2.059.145,9.45,9.45,0,0,1,5.072.557c.829.333.782.324.959-.565.08-.4-.082-.493-.364-.61a5.369,5.369,0,0,0-1.637-.373c-2.1-.161-4.058.61-6.1.852ZM28.238,24.715c0-.276-.178-.377-.311-.5A7.81,7.81,0,0,0,26.39,23.09a9.575,9.575,0,0,1-3.43-3.221c-.453-.707-.434-.686-1.108-.116-.317.27-.351.495-.088.794.124.145.239.289.366.434a10.834,10.834,0,0,0,3.3,2.262A24.55,24.55,0,0,1,28.238,24.715ZM27.081,57.454a4.288,4.288,0,0,0-1.1,1.458A9.906,9.906,0,0,1,22.2,63.455c-.211.134-.182.221-.02.382.723.723.91.732,1.641.036.124-.119.246-.242.36-.37,1.547-1.738,1.945-4.023,2.9-6.05ZM20.2,40.76a5.785,5.785,0,0,0-2.14.13,11.73,11.73,0,0,1-3.407.434,17.542,17.542,0,0,1-2.459-.375c-.007.145-.019.281-.022.417-.016.962-.016.97.96,1.035C15.661,42.572,17.857,41.351,20.2,40.76ZM44.154,63.308l-.145.046a10.294,10.294,0,0,0,.5,2.025,9.785,9.785,0,0,1,.723,4.861c-.084.858-.106.837.752.752.393-.039.518-.2.528-.578A7.581,7.581,0,0,0,46,67.376c-.419-1.059-.946-2.068-1.419-3.1C44.429,63.95,44.293,63.628,44.154,63.308Zm22.3-5.147c.158-.247.278-.434.4-.622.36-.552.354-.62-.2-1.028a7.465,7.465,0,0,0-2.057-1.069c-1.388-.476-2.852-.649-4.263-1.03a.393.393,0,0,0-.412.055,6.087,6.087,0,0,0,1.534.723A9.885,9.885,0,0,1,66.458,58.161Zm-13.25,2.376a5.157,5.157,0,0,0,1.18,1.508,9.845,9.845,0,0,1,3.326,4.573c1.32-.819,1.42-.555.445-1.948C56.892,62.86,54.842,61.944,53.207,60.537ZM41.687,71.268c.884,0,.894,0,1-.884.229-1.908-.5-3.616-1.106-5.36-.026-.078-.074-.176-.179-.145-.137.043-.093.166-.068.256a9.11,9.11,0,0,1-.2,5.386c-.246.751-.244.752.558.752ZM29.716,22.05c-.026-.145-.019-.207-.048-.236-.174-.168-.349-.333-.535-.486A9.834,9.834,0,0,1,26.374,17.7c-.145-.34-.175-.934-.453-.966-.305-.035-.649.389-1,.578-.308.163-.289.363-.152.616a7.276,7.276,0,0,0,1.809,2.033C27.543,20.743,28.651,21.308,29.716,22.05Zm8.745-4.492A11.465,11.465,0,0,1,38,13.245c.082-.983.094-.983-.887-.842-1,.145-1,.145-.79,1.157A9.574,9.574,0,0,0,38.462,17.558ZM24.088,56.592c-.059.012-.108,0-.121.027a10.185,10.185,0,0,1-4.716,3.887c-.179.071-.126.145-.052.265.649,1.082,1.054,1.141,2,.33a13.267,13.267,0,0,0,2.892-4.31A.874.874,0,0,0,24.088,56.592ZM44.968,19.813a4.45,4.45,0,0,0,.227-2.136,11.153,11.153,0,0,1,.019-2.733,11.578,11.578,0,0,1,.756-2.619,8.038,8.038,0,0,1-.856-.12c-.434-.107-.589.1-.664.476a9.242,9.242,0,0,0-.162,2.156C44.354,16.481,44.834,18.064,44.968,19.813ZM19.185,37.849a1.837,1.837,0,0,0-.354-.017,10.925,10.925,0,0,1-6-.878c-.161-.074-.233-.068-.3.119-.411,1.145-.22,1.422.989,1.591C15.477,38.917,17.315,38.3,19.185,37.849ZM47.991,19.541c.192-.9.182-1.818.4-2.7a9.843,9.843,0,0,1,1.477-3.279c.077-.11.367-.263.007-.424-1.215-.545-1.478-.427-1.822.855-.045.166-.077.336-.113.5A18.267,18.267,0,0,0,47.991,19.541Zm11.3,37.936c.145.075.289.152.447.224a9.489,9.489,0,0,1,3.587,2.892c.619.817.6.807,1.3.025.262-.289.282-.49-.007-.768A10.19,10.19,0,0,0,59.289,57.477Z" transform="translate(-5.46 -5.3)" fill="#2f2268"/>
    <path id="Path_14012" data-name="Path 14012" d="M75.573,371.09l-.023.043Z" transform="translate(-65.441 -318.154)" fill="#f6f4f6"/>
    <path id="Path_14013" data-name="Path 14013" d="M144.693,53.108a.145.145,0,0,1-.048-.2l.136.1Z" transform="translate(-124.526 -45.99)" fill="#f6f4f6"/>
    <path id="Path_14014" data-name="Path 14014" d="M125.365,241.1a.166.166,0,0,1-.035.233Z" transform="translate(-108.021 -206.963)" fill="#f6f4f6"/>
    <path id="Path_14015" data-name="Path 14015" d="M115.3,436.961c-.036.053-.088.145-.145.094s-.017-.145.043-.216Z" transform="translate(-99.297 -374.395)" fill="#f6f4f6"/>
    <path id="Path_14016" data-name="Path 14016" d="M114.735,70.175l-.045-.1c.059-.025.074.014.084.061Z" transform="translate(-98.92 -60.666)" fill="#f6f4f6"/>
    <path id="Path_14017" data-name="Path 14017" d="M402.778,414.93l-.088-.1Z" transform="translate(-345.269 -355.568)" fill="#fdfdfd"/>
    <path id="Path_14018" data-name="Path 14018" d="M416.92,95.234c.016-.048.043-.085.1-.049a.578.578,0,0,1-.04.106Z" transform="translate(-357.441 -82.138)" fill="#f6f4f6"/>
    <path id="Path_14019" data-name="Path 14019" d="M171.743,167.474l.817-.525a.709.709,0,0,0,.414-.207,12,12,0,0,1,3.927-1.268,13.193,13.193,0,0,1,14.533,17.664,13.078,13.078,0,0,1-13.931,8.416A13.16,13.16,0,0,1,166,176.812c.02-.172.023-.344.033-.516a.411.411,0,0,0,.075-.325l.048-.305a.22.22,0,0,0,.062-.217l.035-.207.181-.622c.013-.032.029-.062.039-.094s-.009-.032-.013-.049a1.19,1.19,0,0,0,.2-.557,2.662,2.662,0,0,0,.3-.751,14.173,14.173,0,0,1,4.777-5.7Zm-.609,20.727c0,.075.039.094.1.09v-.01c0,.289.181.318.4.308l.025.02c-.032.249.13.22.289.2l.012.009c0,.3.184.343.427.289a13.884,13.884,0,0,0,5.93,1.9,2.875,2.875,0,0,0,1.672-.007c.221-.033.443-.068.664-.1a12.393,12.393,0,0,0,9.295-6.116,12.748,12.748,0,0,0,1.7-5.269,1.647,1.647,0,0,0,.152-1.051,2.521,2.521,0,0,0-.194-1.446l-.01-.03.023-.022c-.017-.226.137-.48-.111-.665h0c0-.127.123-.278-.071-.367a16.9,16.9,0,0,0-.781-2.4c-2.153-4.573-5.734-7.231-10.786-7.557a12.137,12.137,0,0,0-11.464,5.921,12.751,12.751,0,0,0-1.64,4.034,6.162,6.162,0,0,0-.363,2.584c0,.323-.1.71.155,1.012A19.042,19.042,0,0,0,167,181.86a12.925,12.925,0,0,0,3.522,5.805c-.046.257.145.27.312.289H170.8l.036-.01c-.007.114.049.145.152.121a.038.038,0,0,1,.045.038c0,.059.022.075.074.064Z" transform="translate(-142.718 -142.117)" fill="#2f2268"/>
    <path id="Path_14020" data-name="Path 14020" d="M133.76,238.532l.039-.47a.276.276,0,0,0,.069-.259.117.117,0,0,0,.02-.1l.321-.406.2-.114.106-.023.174-.059.035.019.516.155c.2.289.356.373.652.042.338-.377.781-.2,1.179-.016l.21.2a6.034,6.034,0,0,1,.022,2.554c-.009.249-.23.153-.364.145-.67-.036-1.339-.085-2.009-.13a.32.32,0,0,0-.343-.017.236.236,0,0,0-.344,0c-.153-.145-.338-.085-.515-.081-.02-.134-.04-.269-.062-.4.012-.155.022-.309.032-.466A1.1,1.1,0,0,0,133.76,238.532Zm3.024.175h.01c0-.085.009-.172.014-.257.019-.289-.067-.526-.389-.568a.447.447,0,0,0-.537.434c-.025.217-.091.424-.114.644-.068.632.415.408.683.471.419.1.289-.256.33-.463A1.4,1.4,0,0,0,136.784,238.707Zm-1.553-.247v-.042c0-.289-.065-.515-.409-.531s-.383.22-.412.471c-.023.2-.049.408-.071.612-.016.145-.01.233.179.289C135.079,239.446,135.2,239.337,135.231,238.459Z" transform="translate(-115.147 -203.535)" fill="#2f2268"/>
    <path id="Path_14021" data-name="Path 14021" d="M299.863,148.022a10.349,10.349,0,0,1,.217,1.828c-.528-.152-.894-.36-.843-.982a3.9,3.9,0,0,0-.1-.973.594.594,0,0,0-.483-.486c-.2-.036-.211.23-.3.36a3.4,3.4,0,0,0-.3.539c-.111.247-.213.382-.521.205s-.289-.3-.145-.563c.474-.82.941-1.644,1.38-2.483.163-.315.308-.308.578-.145.422.265.875.482,1.3.746a.941.941,0,0,1,.513,1.212.976.976,0,0,1-1.228.662h-.117Zm-.471-1.957a.506.506,0,0,0-.124.049.546.546,0,0,0,.071.975,5.181,5.181,0,0,0,.557.269.372.372,0,0,0,.453-.163.367.367,0,0,0,.042-.474A3.872,3.872,0,0,0,299.391,146.066Z" transform="translate(-255.106 -124.944)" fill="#2f2268"/>
    <path id="Path_14022" data-name="Path 14022" d="M155.875,309.167a10.8,10.8,0,0,0-1.32.965c-.182.133-.312.369-.579.051s-.03-.443.166-.6c.706-.552,1.409-1.108,2.125-1.647.127-.1.252-.373.461-.165s.434.375.26.751c-.278.626-.487,1.284-.723,1.929-.029.075-.049.155-.11.354.539-.419.975-.769,1.423-1.1.189-.145.341-.456.645-.062.289.366-.022.434-.2.578q-1.075.855-2.169,1.685c-.114.085-.244.346-.414.121-.134-.181-.425-.3-.276-.649.252-.578.447-1.192.668-1.788C155.892,309.463,155.98,309.345,155.875,309.167Z" transform="translate(-132.423 -263.929)" fill="#2f2268"/>
    <path id="Path_14023" data-name="Path 14023" d="M216.035,351.066c-.145.558-.305,1.115-.45,1.675-.062.239-.072.434-.451.337-.4-.11-.263-.31-.2-.535.236-.884.461-1.769.709-2.647.042-.145-.033-.448.289-.382.234.048.512.022.6.367.178.683.4,1.355.594,2.032a.38.38,0,0,0,.176.289c.165-.619.322-1.222.489-1.822.051-.182.041-.4.385-.289.272.093.372.169.289.457-.255.913-.486,1.832-.749,2.748-.038.13.032.415-.242.372-.252-.04-.558,0-.661-.37-.208-.743-.444-1.478-.67-2.217Z" transform="translate(-184.601 -299.691)" fill="#2f2268"/>
    <path id="Path_14024" data-name="Path 14024" d="M355.92,252.925c.55,0,1.1-.014,1.649.007.223.009.568-.185.568.328,0,.548-.369.337-.6.337-.868,0-1.725-.014-2.587-.045-.155,0-.434.145-.454-.156-.02-.252-.116-.544.215-.723a15.364,15.364,0,0,0,2-1.3c-.6,0-1.2-.013-1.8,0-.3.01-.424-.053-.419-.393,0-.364.211-.321.434-.315.914.022,1.828.035,2.748.066.163,0,.434-.113.467.158.029.249.1.535-.242.714-.622.331-1.221.709-1.828,1.069a1.7,1.7,0,0,0-.191.145Z" transform="translate(-304.018 -215.14)" fill="#2f2268"/>
    <path id="Path_14025" data-name="Path 14025" d="M346.5,288.329a2.014,2.014,0,0,1,2.114,1.834,1.828,1.828,0,0,1-1.749,1.821,2.073,2.073,0,0,1-2.064-1.795A1.809,1.809,0,0,1,346.5,288.329Zm0,.751a.951.951,0,0,0-1.012.943,1.465,1.465,0,0,0,1.5,1.215.992.992,0,0,0,.962-1.012,1.446,1.446,0,0,0-1.448-1.145Z" transform="translate(-295.751 -247.362)" fill="#2f2268"/>
    <path id="Path_14026" data-name="Path 14026" d="M355.25,221.017a1.912,1.912,0,0,1-2.094,1.76,1.747,1.747,0,0,1-1.686-1.855,1.882,1.882,0,0,1,2.1-1.751A1.725,1.725,0,0,1,355.25,221.017Zm-1.662-1.079c-.819-.014-1.446.445-1.464,1.073a.948.948,0,0,0,1.012.994c.793.017,1.465-.471,1.474-1.07A.969.969,0,0,0,353.589,219.938Z" transform="translate(-301.456 -188.205)" fill="#2f2268"/>
    <path id="Path_14027" data-name="Path 14027" d="M247.5,354.886h.155c.68,0,1.367.059,1.681.765a2.4,2.4,0,0,1-.127,2.282,1.1,1.1,0,0,1-.926.578c-.534.023-1.07-.02-1.605-.025-.333,0-.278-.224-.266-.434.058-.966.121-1.931.163-2.892.012-.262.075-.379.357-.323A4.626,4.626,0,0,0,247.5,354.886Zm-.255,2.025h-.017c-.014.242-.03.483-.04.723,0,.12,0,.215.163.262.84.231,1.371-.129,1.422-.989a3.263,3.263,0,0,0-.013-.723c-.088-.512-.518-.751-1.215-.681-.48.048-.224.451-.289.687a2.71,2.71,0,0,0,0,.726Z" transform="translate(-211.58 -304.24)" fill="#2f2268"/>
    <path id="Path_14028" data-name="Path 14028" d="M248.834,135.429c0-.483.012-.966,0-1.446-.01-.262.053-.373.34-.354.434.029.868,0,1.294.029a1.332,1.332,0,0,1,1.287,1.012,2.517,2.517,0,0,1-.058,1.721,1.31,1.31,0,0,1-1.271.885c-.434.009-.868-.013-1.3,0-.265.01-.364-.068-.351-.349.025-.5.007-1,.007-1.5Zm.723,0h-.019v.931c0,.1-.032.21.081.278a1.247,1.247,0,0,0,1.331-.382,2.064,2.064,0,0,0,.042-1.516,1.038,1.038,0,0,0-1.248-.476c-.373.1-.123.434-.179.649a2.038,2.038,0,0,0,0,.519Z" transform="translate(-213.611 -115.033)" fill="#2f2268"/>
    <path id="Path_14029" data-name="Path 14029" d="M221.986,138.9c-.2.056-.223-.082-.253-.226q-.312-1.491-.631-2.978c-.043-.205-.046-.346.236-.395q1.012-.174,2.025-.434c.3-.075.337.062.4.289.08.269-.1.289-.26.328-.4.088-.807.175-1.213.244-.289.049-.421.155-.337.477.071.275.161.422.483.331.363-.1.743-.145,1.108-.244.211-.058.334-.042.363.2.022.184.093.359-.214.4-.408.056-.8.2-1.21.256s-.263.318-.2.49-.074.593.4.476.907-.2,1.361-.289c.2-.042.356-.074.406.22s-.017.35-.289.4C223.429,138.57,222.709,138.742,221.986,138.9Z" transform="translate(-189.924 -116.077)" fill="#2f2268"/>
    <path id="Path_14030" data-name="Path 14030" d="M143.943,286.828c-.2-.512-.376-.978-.55-1.446-.072-.191-.244-.386.106-.526s.393.1.476.321c.229.6.445,1.195.691,1.782.116.272.117.412-.207.528-.924.331-1.838.694-2.748,1.059-.23.093-.34.046-.424-.187-.24-.664-.482-1.328-.755-1.978-.1-.237-.013-.289.174-.364.21-.078.344-.081.434.175.145.425.328.833.463,1.258.09.289.231.289.453.169.192-.1.5-.1.3-.48a8.685,8.685,0,0,1-.37-.965c-.082-.213-.266-.4.127-.551.37-.137.357.117.434.31.145.351.278.706.412,1.059.054.145.107.26.289.159C143.473,287.028,143.757,287.01,143.943,286.828Z" transform="translate(-120.989 -244.356)" fill="#2f2268"/>
    <path id="Path_14031" data-name="Path 14031" d="M277.145,140.189l-2.269-.622c-.187-.051-.108-.192-.081-.289.269-1.012.548-2.025.813-3.037.046-.181.107-.211.289-.161.712.2,1.426.395,2.145.57.278.068.187.239.156.4s-.1.289-.315.221c-.444-.135-.9-.243-1.341-.38-.314-.1-.364.081-.434.324s-.071.414.24.479c.386.081.761.221,1.147.289.289.056.242.223.2.417-.048.242-.181.239-.38.176a9.622,9.622,0,0,1-1.041-.289c-.441-.187-.463.085-.558.383s-.121.508.282.578c.434.08.868.224,1.3.33.191.048.259.145.2.336C277.452,140.059,277.446,140.244,277.145,140.189Z" transform="translate(-235.836 -117.113)" fill="#2f2268"/>
    <path id="Path_14032" data-name="Path 14032" d="M144.376,212.556a.458.458,0,0,1-.493.336c-.2.02-.464-.152-.578.174l-.033.12-.023.1a.2.2,0,0,0-.085.21c-.013.045-.025.09-.038.136l-.068.174a.074.074,0,0,0-.02.084c-.093.145-.21.3,0,.451h0l.116.1h0c.043.08.09.152.184.052l.269.208v.013c-.252.813-.252.813-.94.323l-.132-.1h0l-.11-.1-.215-.185-.187-.156c-.49-.434-.969-.868-1.479-1.276-.242-.191-.182-.357-.1-.578s.145-.385.444-.392c.824-.019,1.649-.078,2.472-.121l.305-.012a1.531,1.531,0,0,0,.622-.045l.207.075Zm-2.946.388-.081.119c.072.045.145.084.218.136.256.2.508.4.768.6.434-.913.434-.914-.5-.884C141.7,212.928,141.566,212.935,141.43,212.944Z" transform="translate(-120.886 -182.132)" fill="#2f2268"/>
    <path id="Path_14033" data-name="Path 14033" d="M316.65,168.652c1.167-.563,2.255-1.075,3.326-1.613.253-.126.341.046.474.161.156.133.321.255.217.516-.445,1.116-.878,2.237-1.319,3.367-.469-.236-.7-.531-.4-1.012a.347.347,0,0,0-.123-.525,2.767,2.767,0,0,1-.411-.392c-.257-.289-.511-.412-.868-.133C317.116,169.35,316.974,168.876,316.65,168.652Zm3.232-.821-1.265.661.714.658Z" transform="translate(-271.672 -143.576)" fill="#2f2268"/>
    <path id="Path_14034" data-name="Path 14034" d="M295.9,349.69c-.421.346-.781.47-1.109-.026a.33.33,0,0,0-.495-.085,2.342,2.342,0,0,1-.515.24.59.59,0,0,0-.483.8c.1.421-.259.466-.506.578-.175.077-.187-.094-.2-.211-.077-1.137-.145-2.275-.228-3.412-.02-.3.256-.281.411-.383a.347.347,0,0,1,.5.042C294.128,348.052,295,348.859,295.9,349.69Zm-2.691-.34a2.616,2.616,0,0,0,.868-.364,6.913,6.913,0,0,0-1-.936c.045.473.085.879.129,1.3Z" transform="translate(-250.897 -297.635)" fill="#2f2268"/>
    <path id="Path_14035" data-name="Path 14035" d="M339.806,313.1a.588.588,0,0,1-.049.1c-.447.568-.888,1.141-1.345,1.7-.152.188-.269-.012-.389-.084-.175-.106-.166-.221-.039-.375.255-.3.471-.639.739-.93s.013-.377-.153-.5-.305-.376-.519-.038c-.155.247-.367.457-.534.7-.145.2-.252.253-.483.082-.266-.2-.136-.317,0-.489.691-.9.694-.908-.192-1.591-.224-.175-.328-.281-.1-.554s.324-.233.56-.039c.746.61,1.519,1.189,2.278,1.782C339.666,312.916,339.8,312.951,339.806,313.1Z" transform="translate(-288.749 -266.681)" fill="#2f2268"/>
    <path id="Path_14036" data-name="Path 14036" d="M197.252,147.092c-.218.043-.247-.145-.314-.269-.448-.868-.888-1.751-1.345-2.619-.123-.231-.116-.349.145-.471.578-.27,1.138-.57,1.7-.868.226-.123.289,0,.377.165s.135.3-.1.4c-.36.163-.7.382-1.059.534s-.174.343-.075.525.126.473.463.252c.244-.159.518-.27.777-.406.174-.09.314-.189.441.091.11.24.1.356-.145.474-.351.166-.963.289-.966.561,0,.411.362.824.57,1.237C197.672,146.953,197.375,146.923,197.252,147.092Z" transform="translate(-168.057 -122.893)" fill="#2f2268"/>
    <path id="Path_14037" data-name="Path 14037" d="M134.4,266.886c-.012-.09-.025-.178-.036-.268-.025-.321.214-.289.415-.309.239-.022.213.158.239.309.13.723.132.723.859.579.644-.122,1.291-.218,1.931-.353.3-.062.351.1.393.318s.055.382-.259.427c-.732.1-1.455.289-2.188.373-.444.052-.512.24-.392.607.032.1.035.2.059.3.067.262-.127.266-.289.312-.224.062-.3-.02-.337-.244-.081-.5-.194-1.012-.289-1.508-.012-.1-.022-.2-.033-.289A.273.273,0,0,0,134.4,266.886Z" transform="translate(-115.743 -228.525)" fill="#2f2268"/>
    <path id="Path_14038" data-name="Path 14038" d="M341.061,183.542c-.756.492-1.513.968-2.249,1.469-.234.161-.344.1-.466-.111s-.253-.347.059-.531c.654-.385,1.268-.832,1.919-1.222.3-.181.347-.338.111-.594-.081-.087-.123-.207-.2-.3-.145-.181-.091-.289.09-.412s.324-.126.457.085c.4.641.813,1.278,1.237,1.908.134.2.132.3-.093.434s-.328.1-.448-.11A7.28,7.28,0,0,0,341.061,183.542Z" transform="translate(-290.116 -156.201)" fill="#2f2268"/>
    <path id="Path_14039" data-name="Path 14039" d="M154.429,192.688c.606.208.6.211.268.738s-.677,1.075-1.012,1.611c-.492.009-.743-.463-1.17-.578l-.976-.631-.153-.111a2.645,2.645,0,0,0-.463-.32c-.373-.158-.309-.343-.123-.619.155-.23.268-.184.451-.061.628.421,1.27.819,1.892,1.247.24.165.363.187.552-.091s.263-.672.545-.915c.029-.048.058-.1.085-.145Z" transform="translate(-129.679 -165.49)" fill="#2f2268"/>
    <path id="Path_14040" data-name="Path 14040" d="M170.621,172.048c.065.174-.071.249-.168.338-.454.424-.928.827-1.355,1.274-.243.255-.372.187-.563-.033-.236-.273-.5-.521-.752-.778a2.2,2.2,0,0,0-.521-.547c-.119-.175-.217-.369-.451-.417l-.21-.2a.157.157,0,0,0-.022-.088c-.217-.253-.169-.434.094-.648.307-.253.389.027.521.163.49.5.991,1,1.446,1.542.25.3.4.263.629,0,.194-.217.444-.385.632-.606C170.152,171.749,170.378,171.734,170.621,172.048Z" transform="translate(-143.188 -146.868)" fill="#2f2268"/>
    <path id="Path_14041" data-name="Path 14041" d="M275.1,352.9c.282-.1.289.111.317.246.2,1,.367,2,.578,2.994.088.408-.224.289-.39.364-.257.108-.315-.048-.356-.272-.171-.949-.327-1.9-.551-2.839C274.586,352.938,274.8,352.9,275.1,352.9Z" transform="translate(-235.759 -302.576)" fill="#2f2268"/>
    <path id="Path_14042" data-name="Path 14042" d="M346.186,206.628c-.2-.067-.194-.27-.279-.406a.207.207,0,0,1,.1-.334c.955-.434,1.9-.885,2.856-1.331.305-.145.331.127.434.289s.114.289-.108.393c-.943.425-1.88.868-2.816,1.3Z" transform="translate(-296.656 -175.671)" fill="#2f2268"/>
    <path id="Path_14043" data-name="Path 14043" d="M201.338,344.085c-.045.1-.081.174-.12.25-.434.858-.889,1.711-1.313,2.576-.126.256-.231.32-.5.178-.246-.132-.325-.231-.181-.5.469-.881.914-1.775,1.365-2.664.077-.152.156-.289.346-.155C201.076,343.862,201.309,343.855,201.338,344.085Z" transform="translate(-171.167 -294.735)" fill="#2f2268"/>
    <path id="Path_14044" data-name="Path 14044" d="M148.708,229.3c0,.013-.009.036-.013.036a.136.136,0,0,1-.045-.014c0-.012.009-.035.014-.035A.1.1,0,0,1,148.708,229.3Z" transform="translate(-127.969 -196.861)" fill="#f6f4f6"/>
    <path id="Path_14045" data-name="Path 14045" d="M162.956,235.8l-.036-.029c.014,0,.027-.022.04-.02s.025.017.036.027Z" transform="translate(-140.175 -202.387)" fill="#f6f4f6"/>
    <path id="Path_14046" data-name="Path 14046" d="M134.587,242a.276.276,0,0,1-.069.259L134.5,242Z" transform="translate(-115.865 -207.733)" fill="#f6f4f6"/>
    <path id="Path_14047" data-name="Path 14047" d="M162.65,230.165v-.013l.091-.012Z" transform="translate(-139.944 -197.588)" fill="#f6f4f6"/>
    <path id="Path_14048" data-name="Path 14048" d="M159,223.044l.068-.174Z" transform="translate(-136.822 -191.37)" fill="#f6f4f6"/>
    <path id="Path_14049" data-name="Path 14049" d="M158.886,227.834l-.116-.1Z" transform="translate(-136.625 -195.527)" fill="#f6f4f6"/>
    <path id="Path_14050" data-name="Path 14050" d="M155.33,231.91l.132.1Z" transform="translate(-133.683 -199.103)" fill="#f6f4f6"/>
    <path id="Path_14051" data-name="Path 14051" d="M175.555,194c-.027.048-.056.1-.085.145A1.369,1.369,0,0,1,175.555,194Z" transform="translate(-150.91 -166.675)" fill="#f6f4f6"/>
    <path id="Path_14052" data-name="Path 14052" d="M139.714,237.15l-.174.059Z" transform="translate(-120.176 -203.585)" fill="#f6f4f6"/>
    <path id="Path_14053" data-name="Path 14053" d="M154.6,231.22l.11.1Z" transform="translate(-133.058 -198.512)" fill="#f6f4f6"/>
    <path id="Path_14054" data-name="Path 14054" d="M159.724,228.472c-.094.1-.145.027-.184-.052Z" transform="translate(-137.284 -196.117)" fill="#f6f4f6"/>
    <path id="Path_14055" data-name="Path 14055" d="M132.813,254.055l-.043-.025.045.023Z" transform="translate(-114.385 -218.023)" fill="#f8f7f8"/>
    <path id="Path_14056" data-name="Path 14056" d="M174.3,191.551a12.925,12.925,0,0,1-3.529-5.8,19.072,19.072,0,0,1-.445-2.33,17.644,17.644,0,0,1,.208-3.6,12.8,12.8,0,0,1,1.64-4.034,12.132,12.132,0,0,1,11.464-5.921c5.052.32,8.633,2.984,10.786,7.557a16.761,16.761,0,0,1,.781,2.4.5.5,0,0,0,.071.369h-.007a1.93,1.93,0,0,0,.111.665l-.023.022.01.03q.022,1.251.042,2.5a12.748,12.748,0,0,1-1.7,5.269,12.393,12.393,0,0,1-9.295,6.116c-.221.03-.443.065-.664.1l-1.672.009a13.884,13.884,0,0,1-5.93-1.9l-.427-.289-.012-.009a.493.493,0,0,0-.289-.2l-.025-.019-.4-.309v.01l-.1-.09-.027-.025-.075-.064a.038.038,0,0,0-.043-.038l-.153-.121-.036.01h.038Zm3.918-15.275-.113.061c-.236-.289-.578-.434-.816-.754a1.456,1.456,0,0,0-1.4-.7,12.984,12.984,0,0,1-2.169.007c-.434-.023-.508.145-.508.528.012,4.6,0,9.194,0,13.791a1.619,1.619,0,0,0,1.608,1.727,1.714,1.714,0,0,0,1.715-1.756v-9.8a.878.878,0,0,1,.077-.564c.388.364.738.723,1.121,1.041a1.291,1.291,0,0,1,.482,1.115c-.023,3.248-.014,6.5-.009,9.748a1.785,1.785,0,0,0,1.653,1.9,1.758,1.758,0,0,0,1.672-1.824c.01-2.194,0-4.389,0-6.585v-.7c.7.661,1.291,1.238,1.9,1.793a.986.986,0,0,1,.351.808q-.026,2.694,0,5.392a1.846,1.846,0,0,0,2.3,1.735,1.806,1.806,0,0,0,1.2-1.808c.009-.767,0-1.534,0-2.321a.842.842,0,0,1,.434.289,7.741,7.741,0,0,0,2.091,1.574,1.07,1.07,0,0,0,1.469-.56,2.973,2.973,0,0,0,.282-1.331c-.019-1,0-2,0-3.007,0-3.561.007-7.12,0-10.68a1.925,1.925,0,0,0-1.03-1.795,1.643,1.643,0,0,0-2.282,1.591c-.01,3.3,0,6.6,0,9.9v.832a1.846,1.846,0,0,1-.963-1.617c.048-4.112.016-8.226.03-12.339,0-.4-.1-.541-.515-.519-1.147.062-2.292.025-3.443.111-1.53.116-3.075.038-4.612.013-.4-.007-.539.084-.532.508C178.229,173.473,178.218,174.878,178.218,176.276Z" transform="translate(-146.495 -146.004)" fill="#fcf206"/>
    <path id="Path_14057" data-name="Path 14057" d="M169.639,238.86a17.645,17.645,0,0,0-.208,3.6c-.252-.305-.145-.693-.155-1.012A6.169,6.169,0,0,1,169.639,238.86Z" transform="translate(-145.6 -205.047)" fill="#2e2508"/>
    <path id="Path_14058" data-name="Path 14058" d="M343.622,248.9q-.02-1.251-.042-2.5a2.51,2.51,0,0,1,.194,1.446A1.658,1.658,0,0,1,343.622,248.9Z" transform="translate(-294.707 -211.497)" fill="#2e2508"/>
    <path id="Path_14059" data-name="Path 14059" d="M251.71,343.109l1.672-.009A2.863,2.863,0,0,1,251.71,343.109Z" transform="translate(-216.124 -294.212)" fill="#2e2508"/>
    <path id="Path_14060" data-name="Path 14060" d="M207.8,328l.427.289C207.984,328.338,207.8,328.3,207.8,328Z" transform="translate(-178.564 -281.296)" fill="#2e2508"/>
    <path id="Path_14061" data-name="Path 14061" d="M202.8,324.26l.4.31C202.98,324.578,202.8,324.543,202.8,324.26Z" transform="translate(-174.287 -278.097)" fill="#2e2508"/>
    <path id="Path_14062" data-name="Path 14062" d="M343.011,242.065a1.8,1.8,0,0,1-.111-.665C343.149,241.591,342.994,241.845,343.011,242.065Z" transform="translate(-294.126 -207.22)" fill="#2e2508"/>
    <path id="Path_14063" data-name="Path 14063" d="M197.867,320l.312.289C198.006,320.269,197.821,320.256,197.867,320Z" transform="translate(-170.062 -274.453)" fill="#2e2508"/>
    <path id="Path_14064" data-name="Path 14064" d="M205.716,326.53a.493.493,0,0,1,.289.2C205.846,326.75,205.684,326.779,205.716,326.53Z" transform="translate(-176.778 -280.038)" fill="#2e2508"/>
    <path id="Path_14065" data-name="Path 14065" d="M342.526,239.259a.5.5,0,0,1-.071-.369C342.642,238.981,342.526,239.132,342.526,239.259Z" transform="translate(-293.737 -205.073)" fill="#2e2508"/>
    <path id="Path_14066" data-name="Path 14066" d="M200.055,322l.153.121C200.1,322.145,200.046,322.114,200.055,322Z" transform="translate(-171.939 -276.163)" fill="#2e2508"/>
    <path id="Path_14067" data-name="Path 14067" d="M201.414,323.1l.075.064C201.435,323.175,201.406,323.159,201.414,323.1Z" transform="translate(-173.1 -277.104)" fill="#2e2508"/>
    <path id="Path_14068" data-name="Path 14068" d="M202.127,323.71l.1.09C202.166,323.8,202.121,323.785,202.127,323.71Z" transform="translate(-173.711 -277.626)" fill="#2e2508"/>
    <path id="Path_14069" data-name="Path 14069" d="M314.8,164.17l-.054-.08h.117A.39.39,0,0,1,314.8,164.17Z" transform="translate(-270.047 -141.091)" fill="#f8f7f8"/>
    <path id="Path_14070" data-name="Path 14070" d="M160.279,219.78l.116.065-.145.036Z" transform="translate(-137.891 -188.727)" fill="#f8f7f8"/>
    <path id="Path_14071" data-name="Path 14071" d="M195.421,185.823c0-1.4.016-2.8-.01-4.194,0-.424.133-.515.532-.508,1.537.025,3.082.1,4.612-.013,1.157-.087,2.3-.049,3.443-.111.419-.022.516.117.515.519-.014,4.113.017,8.228-.03,12.339a1.846,1.846,0,0,0,.963,1.617V184.739a1.645,1.645,0,0,1,2.282-1.591,1.916,1.916,0,0,1,1.03,1.795c.013,3.561,0,7.12,0,10.68,0,1-.013,2,0,3.007a2.973,2.973,0,0,1-.282,1.331,1.07,1.07,0,0,1-1.458.56,7.719,7.719,0,0,1-2.091-1.573.791.791,0,0,0-.434-.289c0,.787.007,1.555,0,2.321a1.806,1.806,0,0,1-1.2,1.808,1.844,1.844,0,0,1-2.3-1.735q-.022-2.7,0-5.392a.986.986,0,0,0-.351-.808c-.612-.555-1.2-1.132-1.9-1.793v.7c0,2.2.007,4.391,0,6.585a1.768,1.768,0,0,1-1.672,1.824,1.788,1.788,0,0,1-1.644-1.9c0-3.25-.014-6.5.009-9.748a1.291,1.291,0,0,0-.489-1.115c-.383-.318-.733-.677-1.121-1.041a.878.878,0,0,0-.077.564v9.8a1.714,1.714,0,0,1-1.715,1.756,1.621,1.621,0,0,1-1.608-1.727V184.97c0-.386.072-.551.508-.528a12.985,12.985,0,0,0,2.169-.007,1.446,1.446,0,0,1,1.4.7c.239.318.579.461.816.753Zm.434,5.329h0v9.016a2.012,2.012,0,0,0,.074.612,1.27,1.27,0,0,0,1.047.953c.5.072.882-.2,1.167-.765a1.709,1.709,0,0,0,.166-.8v-9.638c0-.515-.172-1.2.088-1.5.3-.349,1.012-.108,1.534-.116,1.111-.016,1.1,0,1.064-1.112-.01-.317-.132-.359-.4-.349-.638.023-1.277,0-1.916.022-.257,0-.37-.071-.369-.351q.017-1.918,0-3.834c0-.289.126-.343.376-.336.466.013.933,0,1.4,0,.923.007.91.009.917-.92,0-.321-.067-.458-.424-.454q-2.151.022-4.3-.007c-.356,0-.434.136-.434.461Q195.862,186.6,195.855,191.153Zm8.19.315c0-3.163-.007-6.326.01-9.489,0-.418-.094-.587-.541-.551a10.7,10.7,0,0,1-1.553,0c-.434-.03-.55.1-.547.542.017,4.026.009,8.053.007,12.079v6.9a1.41,1.41,0,0,0,1.725,1.426c.587-.155.894-.667.9-1.517q0-4.693,0-9.386Zm.461,3.793v2.486a.418.418,0,0,0,.137.32,13.818,13.818,0,0,0,2.5,2.08.625.625,0,0,0,.965-.289,2.98,2.98,0,0,0,.2-.934c.029-.927.019-1.856.019-2.784V185.012c0-.86-.334-1.409-.943-1.52a1.2,1.2,0,0,0-1.5,1.3v11.714Zm-11.2-7.954c.227.2.367.322.5.448.4.379.8.762,1.2,1.14.159.145.375.233.39-.071.035-.706.009-1.416,0-2.123,0-.135-.113-.207-.2-.289-1.394-1.511-1.394-1.511-3.451-1.511a2.834,2.834,0,0,1-.415,0c-.434-.067-.5.13-.5.522q.019,6.637.009,13.272c0,.821.461,1.362,1.157,1.361a1.281,1.281,0,0,0,1.3-1.361V188.223Zm7.684-2.214c-.062-.464.272-1.28-.123-1.591-.373-.3-1.157-.088-1.756-.1h-.1c-.2-.012-.263.093-.262.289v3.054c0,.223.081.308.3.3.535-.009,1.07-.017,1.605,0,.276.007.354-.1.344-.364-.022-.5-.009-.985-.009-1.6Zm-2.245,4.676c0,.9.009,1.639,0,2.379a.686.686,0,0,0,.289.578,10.74,10.74,0,0,1,1.591,1.608c.067.085.145.221.289.153.119-.055.081-.178.081-.276v-2.07a.468.468,0,0,0-.145-.367Zm2.243,1.519V189.54c0-.116-.045-.2-.178-.2H199.1Z" transform="translate(-163.698 -155.551)" fill="#2e2508"/>
    <path id="Path_14072" data-name="Path 14072" d="M228,194.612V185.5c0-.325.074-.466.434-.461q2.149.027,4.3.007c.357,0,.425.133.424.454-.007.928,0,.927-.917.92-.466,0-.933.01-1.4,0-.25,0-.379.04-.376.336q.02,1.915,0,3.834c0,.281.111.356.369.351.639-.014,1.278,0,1.916-.022.273-.01.395.032.4.349.033,1.108.046,1.1-1.064,1.112-.528.007-1.234-.233-1.534.116-.26.3-.087.988-.088,1.5v9.638a1.709,1.709,0,0,1-.166.8c-.289.564-.671.837-1.167.765a1.262,1.262,0,0,1-1.047-.953,2.011,2.011,0,0,1-.074-.612v-9.016Z" transform="translate(-195.843 -159.01)" fill="#fcf206"/>
    <path id="Path_14073" data-name="Path 14073" d="M269.068,193.99v9.385c0,.85-.308,1.362-.9,1.517a1.411,1.411,0,0,1-1.725-1.426c-.009-2.3,0-4.6,0-6.9,0-4.026.01-8.053-.007-12.079,0-.434.117-.578.547-.542a10.7,10.7,0,0,0,1.553,0c.447-.036.542.133.541.551C269.061,187.664,269.068,190.827,269.068,193.99Z" transform="translate(-228.724 -158.073)" fill="#fcf206"/>
    <path id="Path_14074" data-name="Path 14074" d="M287.757,209.9l1.371,1.258V199.437a1.193,1.193,0,0,1,1.5-1.3c.609.111.943.659.943,1.52v11.127c0,.928.01,1.857-.019,2.784a2.98,2.98,0,0,1-.2.934.63.63,0,0,1-.965.289,13.817,13.817,0,0,1-2.5-2.08.418.418,0,0,1-.137-.32C287.758,211.592,287.757,210.8,287.757,209.9Z" transform="translate(-246.951 -170.185)" fill="#fcf206"/>
    <path id="Path_14075" data-name="Path 14075" d="M195.777,210.264v11.385a1.279,1.279,0,0,1-1.3,1.361c-.7,0-1.157-.539-1.157-1.361q0-6.635-.009-13.272c0-.392.078-.589.5-.522a2.838,2.838,0,0,0,.415,0c2.057,0,2.057,0,3.451,1.506.082.087.194.159.2.289,0,.707.032,1.417,0,2.123-.016.3-.231.221-.39.071-.4-.377-.8-.761-1.2-1.14C196.145,210.586,196,210.468,195.777,210.264Z" transform="translate(-166.17 -178.515)" fill="#fcf206"/>
    <path id="Path_14076" data-name="Path 14076" d="M250.19,198.847c0,.613-.013,1.1,0,1.579.01.266-.068.372-.344.364-.535-.014-1.07,0-1.605,0-.22,0-.3-.081-.3-.3.007-1.012,0-2.036,0-3.054,0-.192.059-.3.262-.289h.1c.6.013,1.383-.2,1.756.1C250.462,197.567,250.128,198.383,250.19,198.847Z" transform="translate(-212.899 -169.313)" fill="#fcf206"/>
    <path id="Path_14077" data-name="Path 14077" d="M247.964,241.66l2.1,2a.469.469,0,0,1,.145.367v2.07c0,.1.038.221-.081.276-.145.068-.223-.068-.289-.153a10.74,10.74,0,0,0-1.591-1.608.685.685,0,0,1-.289-.578C247.964,243.3,247.964,242.558,247.964,241.66Z" transform="translate(-212.915 -207.442)" fill="#fcf206"/>
    <path id="Path_14078" data-name="Path 14078" d="M252.31,240.655l-1.89-1.945h1.711c.133,0,.178.082.178.2C252.31,239.475,252.31,240.026,252.31,240.655Z" transform="translate(-215.02 -204.919)" fill="#fcf206"/>
  </g>
</svg>
