<svg id="Layer_1" data-name="Layer 1" xmlns="http://www.w3.org/2000/svg" viewBox="0 0 102 80"><defs><style>.cls-1{fill:#fff;}.cls-2{fill:#3a3a3a;}.cls-3{fill:#1f91c0;}.cls-4{isolation:isolate;}</style></defs><g id="Group_717" data-name="Group 717"><g id="Rectangle_14006" data-name="Rectangle 14006"><g id="Rectangle_14015" data-name="Rectangle 14015"><rect class="cls-1" width="102" height="80" rx="2"/></g></g><g id="NSRS"><g id="Group_116" data-name="Group 116"><g id="Path_1379" data-name="Path 1379"><path class="cls-2" d="M24.09,10.32H28.6V53.66H24.86L15.13,23.92l.29,10.92V53.66h-4.7V10.32h3.84l10,29.5-.52-12.53Z" transform="translate(0)"/></g><g id="Path_1380" data-name="Path 1380"><path class="cls-2" d="M35.17,23.74a13.61,13.61,0,0,1-.42-3.7,13.92,13.92,0,0,1,1.74-7.47Q38.22,9.8,43.12,9.8q6.3,0,7.44,6.06a37.07,37.07,0,0,1,.5,6.57V25H46.18V22.07a23.63,23.63,0,0,0-.42-5.57,3.67,3.67,0,0,0-1-1.89,2.53,2.53,0,0,0-1.6-.47,2.86,2.86,0,0,0-2.69,1.35,8,8,0,0,0-.82,4,8,8,0,0,0,.82,3.9,13.42,13.42,0,0,0,1.82,2.35c.73.74,1.13,1.18,1.21,1.27l2.95,3.15a17.57,17.57,0,0,1,5.33,12.46c0,3.74-.59,6.6-1.75,8.57s-3.36,3-6.6,3q-5.9,0-7.46-5.16A26.14,26.14,0,0,1,35,41.39V36.91h5v4.41a21.63,21.63,0,0,0,.69,6.61,2.56,2.56,0,0,0,2.57,1.86,3.24,3.24,0,0,0,2.58-.87,4.71,4.71,0,0,0,.79-2.62c.07-1.21.11-2.55.11-4q0-4.51-4-8.47L39.9,31A17.62,17.62,0,0,1,35.17,23.74Z" transform="translate(0)"/></g><g id="Path_1381" data-name="Path 1381"><path class="cls-2" d="M57.16,10.32h9.08c2.58,0,4.44.54,5.56,1.6s1.82,2.87,2,5.44c.09,1.05.15,2.69.15,4.92a15.71,15.71,0,0,1-.88,5.6A4.63,4.63,0,0,1,70,30.81a3.34,3.34,0,0,1,2.45,1.71,12.19,12.19,0,0,1,1.19,4.58A93.32,93.32,0,0,1,74,46.43q0,6.18.4,7.23H69.34q-.39-.79-.39-14.6c0-3.15-.3-4.91-.91-5.4a4.31,4.31,0,0,0-2.76-.76l-3-.17V53.66H57.16ZM69,20.93q0-5-.9-5.78a3.75,3.75,0,0,0-2.6-.79H62.31V29h3.24a3.39,3.39,0,0,0,2.12-.55,3.62,3.62,0,0,0,1-2.17,30.09,30.09,0,0,0,.3-5Z" transform="translate(0)"/></g><g id="Path_1382" data-name="Path 1382"><path class="cls-2" d="M80.13,23.74a13.59,13.59,0,0,1-.45-3.7,13.86,13.86,0,0,1,1.71-7.49Q83.13,9.77,88,9.77q6.3,0,7.44,6.07A37.06,37.06,0,0,1,96,22.41V25H91.11V22.07a23.63,23.63,0,0,0-.42-5.57,3.67,3.67,0,0,0-1-1.89A2.5,2.5,0,0,0,88,14.14a2.86,2.86,0,0,0-2.66,1.35,8.07,8.07,0,0,0-.83,4,7.82,7.82,0,0,0,.74,3.9,13,13,0,0,0,1.83,2.35c.71.74,1.12,1.17,1.2,1.27l3,3.15a17.64,17.64,0,0,1,5.36,12.44c0,3.74-.58,6.59-1.74,8.57s-3.36,3-6.62,3q-5.88,0-7.46-5.17a26.47,26.47,0,0,1-.91-7.62V36.91h5v4.41a21.66,21.66,0,0,0,.73,6.61,2.56,2.56,0,0,0,2.57,1.86,3.15,3.15,0,0,0,2.58-.87,4.63,4.63,0,0,0,.78-2.62c.07-1.21.1-2.55.1-4q0-4.51-4-8.47L84.83,31C82.31,28.32,80.73,25.92,80.13,23.74Z" transform="translate(0)"/></g></g></g><g id="Rectangle_14005" data-name="Rectangle 14005"><g id="Rectangle_14016" data-name="Rectangle 14016"><rect class="cls-3" x="8" y="58" width="90" height="17"/></g></g><g id="ACTC" class="cls-4"><g class="cls-4"><path class="cls-1" d="M42.82,72H41.19a.68.68,0,0,1-.44-.13.83.83,0,0,1-.26-.33l-.68-1.94H35.76l-.68,1.94a.9.9,0,0,1-.25.32.7.7,0,0,1-.44.14H32.74l4-10.16h2.15ZM39.3,68.14,38.2,65c-.07-.17-.14-.36-.21-.58s-.14-.46-.21-.71c-.06.26-.13.5-.2.72s-.14.42-.21.58l-1.09,3.09Z" transform="translate(0)"/><path class="cls-1" d="M50.36,69.5a.38.38,0,0,1,.3.13l.83.89A4,4,0,0,1,50,71.71a5.32,5.32,0,0,1-2.17.4,5.13,5.13,0,0,1-2-.39,4.41,4.41,0,0,1-1.55-1.08,4.75,4.75,0,0,1-1-1.64A6.54,6.54,0,0,1,43,65.48a5.14,5.14,0,0,1,.48-1.26,4.81,4.81,0,0,1,1.76-1.82,5,5,0,0,1,1.23-.5,5.79,5.79,0,0,1,1.41-.17,5.22,5.22,0,0,1,1.06.1,5.29,5.29,0,0,1,.93.27,4.07,4.07,0,0,1,.8.43,3.53,3.53,0,0,1,.66.54l-.7,1a.85.85,0,0,1-.16.17.54.54,0,0,1-.27.06.57.57,0,0,1-.34-.11l-.42-.27a2.8,2.8,0,0,0-.62-.27,3.59,3.59,0,0,0-1-.11,2.78,2.78,0,0,0-1.17.23,2.48,2.48,0,0,0-.91.66,3,3,0,0,0-.59,1.08A4.61,4.61,0,0,0,45,66.92a4.43,4.43,0,0,0,.22,1.46,3.11,3.11,0,0,0,.63,1.08,2.63,2.63,0,0,0,.92.67,2.85,2.85,0,0,0,1.13.23,6.3,6.3,0,0,0,.65,0,2.36,2.36,0,0,0,.54-.12,2.86,2.86,0,0,0,.47-.22,3,3,0,0,0,.44-.33l.16-.11A.39.39,0,0,1,50.36,69.5Z" transform="translate(0)"/><path class="cls-1" d="M59.86,63.54h-3V72h-2.1V63.54h-3v-1.7h8Z" transform="translate(0)"/><path class="cls-1" d="M67.75,69.5a.35.35,0,0,1,.29.13l.84.89a4,4,0,0,1-1.53,1.19,5.37,5.37,0,0,1-2.18.4,5.17,5.17,0,0,1-2.05-.39,4.46,4.46,0,0,1-1.54-1.08,4.75,4.75,0,0,1-1-1.64,6.28,6.28,0,0,1-.18-3.52,5.14,5.14,0,0,1,.48-1.26,4.81,4.81,0,0,1,.76-1,4.53,4.53,0,0,1,1-.79,5,5,0,0,1,1.22-.5,5.79,5.79,0,0,1,1.41-.17,5.09,5.09,0,0,1,1.06.1,5.16,5.16,0,0,1,.94.27,4.07,4.07,0,0,1,.8.43,3.88,3.88,0,0,1,.66.54L68,64a.64.64,0,0,1-.16.17.48.48,0,0,1-.26.06.57.57,0,0,1-.34-.11l-.42-.27a3.29,3.29,0,0,0-.62-.27,3.59,3.59,0,0,0-.95-.11,2.78,2.78,0,0,0-1.17.23,2.52,2.52,0,0,0-.92.66,3.2,3.2,0,0,0-.59,1.08,4.61,4.61,0,0,0-.21,1.45,4.43,4.43,0,0,0,.23,1.46,3.25,3.25,0,0,0,.62,1.08,2.76,2.76,0,0,0,.93.67,2.85,2.85,0,0,0,1.13.23,6.3,6.3,0,0,0,.65,0,2.16,2.16,0,0,0,.53-.12A2.26,2.26,0,0,0,67,70a2.58,2.58,0,0,0,.45-.33.91.91,0,0,1,.16-.11A.37.37,0,0,1,67.75,69.5Z" transform="translate(0)"/></g></g></g></svg>