<svg id="surface1" xmlns="http://www.w3.org/2000/svg" width="125.156" height="121.642" viewBox="0 0 125.156 121.642">
  <path id="Path_6902" data-name="Path 6902" d="M39.268,7.492A68.291,68.291,0,0,1,57.7,4.906,114.122,114.122,0,0,1,80.073,7.092C90.054,9,99.81,12.075,109.925,13.285c5.477.631,11.149.7,16.475-.917a24.592,24.592,0,0,0,6.926-3.356,8.379,8.379,0,0,1-1.14,1.249,25.51,25.51,0,0,1-11.422,6.479,41.432,41.432,0,0,1-11.49,1.274,100.662,100.662,0,0,1-14.751-1.371c-5.962-.907-11.855-2.176-17.8-3.182A167.246,167.246,0,0,0,51.386,10.8c-2.285-.109-4.568.052-6.851.119-.825.112-1.662.07-2.484.174a57.94,57.94,0,0,0-18.591,4.385c-.792.323-1.54.748-2.33,1.068a34.737,34.737,0,0,1,3.694-2.73A60.091,60.091,0,0,1,39.268,7.492Zm0,0" transform="translate(-11.257 -4.899)" fill="#ff6400"/>
  <path id="Path_6903" data-name="Path 6903" d="M18.067,62.231a11.253,11.253,0,0,1,.027-1.262c2.285.03,4.571.012,6.854.007q-.007,15.829,0,31.656c-2.3-.005-4.591.01-6.886-.005Q18.077,77.427,18.067,62.231Zm0,0" transform="translate(-10.141 -25.311)" fill="#ff6400"/>
  <path id="Path_6904" data-name="Path 6904" d="M127.674,9.368q1.539-1.748,3.088-3.493a24.658,24.658,0,0,1-2.445,9,15.454,15.454,0,0,1-1.659,2.941,27.928,27.928,0,0,1-5.316,3.128A37.935,37.935,0,0,1,106.777,23.8c-1.622.132-3.241-.047-4.864-.05-8.369-.427-16.617-2.022-24.867-3.416-3.326-.564-6.665-1.058-10-1.582a127.794,127.794,0,0,0-22.9-1.94c-1.575.087-3.15.134-4.717.311a56.447,56.447,0,0,0-16.684,4.163A57.8,57.8,0,0,0,14.3,25.728a9.051,9.051,0,0,1-.991.44,66.739,66.739,0,0,0-6.988,3.408,1.512,1.512,0,0,0-.422.318l-.291-.037v-.04c.276-.164.3-.524.45-.785A34.26,34.26,0,0,1,15.477,16.9c.79-.32,1.538-.745,2.33-1.068A57.94,57.94,0,0,1,36.4,11.444c.822-.1,1.659-.062,2.484-.174,2.283-.067,4.566-.229,6.851-.119a167.246,167.246,0,0,1,25.338,2.665c5.944,1.006,11.837,2.275,17.8,3.182a100.662,100.662,0,0,0,14.751,1.371,41.432,41.432,0,0,0,11.49-1.274,25.51,25.51,0,0,0,11.422-6.479A8.378,8.378,0,0,0,127.674,9.368Zm0,0" transform="translate(-5.605 -5.254)" fill="#fff"/>
  <path id="Path_6905" data-name="Path 6905" d="M135.218,60.984c2.3-.01,4.591.017,6.886-.015.05,7.005.008,14.011.022,21.013-.005,3.542.01,7.082-.008,10.622-2.3-.015-4.6.005-6.9-.01Q135.223,76.792,135.218,60.984Zm0,0" transform="translate(-52.791 -25.311)" fill="#008"/>
  <path id="Path_6906" data-name="Path 6906" d="M161.427,61c3.21-.032,6.421.01,9.631-.02,3.224,10.533,6.4,21.08,9.619,31.611-2.415.037-4.831,0-7.248.017q-1.595-5.626-3.177-11.253-4.04,0-8.076,0c-1.1,3.749-2.213,7.5-3.309,11.248-2.328,0-4.655.008-6.983-.005q4.773-15.8,9.544-31.6m4.7,4.762c-.686,3.321-1.568,6.6-2.489,9.862,1.694.017,3.391-.007,5.088.01-.884-3.247-1.806-6.486-2.457-9.79C166.234,65.818,166.162,65.776,166.127,65.759Zm0,0" transform="translate(-58.859 -25.314)" fill="#008"/>
  <path id="Path_6907" data-name="Path 6907" d="M28.888,60.98c2.305.012,4.611,0,6.913,0q-.022,15.822,0,31.648c-2.3.008-4.6,0-6.908,0Q28.881,76.811,28.888,60.98Zm0,0" transform="translate(-14.08 -25.316)" fill="#fff"/>
  <path id="Path_6908" data-name="Path 6908" d="M50.754,60.983c.566,0,1.13,0,1.7,0,1.672,3.254,3.366,6.5,5.045,9.753A116.637,116.637,0,0,1,63.16,82.622c.1.169.082.467.33.5-.445-5.592-.355-11.2-.365-16.8.01-1.784-.022-3.565.015-5.348,2.189.025,4.375,0,6.563.015Q69.7,76.794,69.7,92.6c-2.705-.013-5.413.012-8.121-.013-2.293-4.491-4.655-8.95-6.968-13.432a79.774,79.774,0,0,1-3.841-8.821C50.746,67.22,50.774,64.1,50.754,60.983Zm0,0" transform="translate(-22.042 -25.313)" fill="#008"/>
  <path id="Path_6909" data-name="Path 6909" d="M90.676,61c3.413-.032,6.829,0,10.242-.015a18.6,18.6,0,0,1,8.019,1.662,10.518,10.518,0,0,1,4.7,4.611A18.006,18.006,0,0,1,115.418,75a25,25,0,0,1-.9,7.969,13.691,13.691,0,0,1-3.684,6.178,12.681,12.681,0,0,1-5.967,3.023,20.385,20.385,0,0,1-4.74.439H90.683q-.007-15.8-.007-31.6m6.884,5.711q0,10.083,0,20.169c.944,0,1.888,0,2.834,0a7.718,7.718,0,0,0,5.592-2.062c1.6-1.654,2.111-4.032,2.28-6.255a17.08,17.08,0,0,0-.969-7.778,6.415,6.415,0,0,0-3.744-3.537C101.638,66.525,99.561,66.746,97.559,66.714Zm0,0" transform="translate(-36.576 -25.318)" fill="#008"/>
  <path id="Path_6910" data-name="Path 6910" d="M28.023,15A13.023,13.023,0,1,1,15,1.977,13.023,13.023,0,0,1,28.023,15Zm0,0" transform="translate(18.913 78.413)" fill="none" stroke="#0081c8" stroke-width="3.951"/>
  <path id="Path_6911" data-name="Path 6911" d="M76.674,15A13.024,13.024,0,1,1,63.65,1.977,13.025,13.025,0,0,1,76.674,15Zm0,0" transform="translate(1.202 78.413)" fill="none" stroke="#000" stroke-width="3.951"/>
  <path id="Path_6912" data-name="Path 6912" d="M125.324,15A13.023,13.023,0,1,1,112.3,1.977,13.023,13.023,0,0,1,125.324,15Zm0,0" transform="translate(-16.511 78.413)" fill="none" stroke="#ee334e" stroke-width="3.951"/>
  <path id="Path_6913" data-name="Path 6913" d="M52.347,35.8A13.023,13.023,0,1,1,39.325,22.77,13.025,13.025,0,0,1,52.347,35.8Zm0,0" transform="translate(10.057 70.843)" fill="none" stroke="#fcb131" stroke-width="3.951"/>
  <path id="Path_6914" data-name="Path 6914" d="M101,35.8A13.023,13.023,0,1,1,87.975,22.77,13.025,13.025,0,0,1,101,35.8Zm0,0" transform="translate(-7.655 70.843)" fill="none" stroke="#00a651" stroke-width="3.951"/>
  <path id="Path_6915" data-name="Path 6915" d="M38.836,10.168a13.031,13.031,0,0,1,0,15.633" transform="translate(5.494 75.431)" fill="none" stroke="#0081c8" stroke-width="3.951"/>
  <path id="Path_6916" data-name="Path 6916" d="M77.05,10.168a13.031,13.031,0,0,1,0,15.633M66.632,31.011a13.04,13.04,0,0,1-7.815-2.6" transform="translate(-1.78 75.431)" fill="none" stroke="#000" stroke-width="3.951"/>
  <path id="Path_6917" data-name="Path 6917" d="M115.282,41.452a13.028,13.028,0,0,1-7.813-2.6" transform="translate(-19.493 64.989)" fill="none" stroke="#ee334e" stroke-width="3.951"/>
  <path id="Path_6918" data-name="Path 6918" d="M44.411,23.372c1.567-.176,3.142-.224,4.717-.311A127.794,127.794,0,0,1,72.025,25c3.334.524,6.672,1.019,10,1.582,8.25,1.394,16.5,2.988,24.867,3.416,1.622,0,3.242.181,4.864.05a37.935,37.935,0,0,0,14.565-2.864,27.928,27.928,0,0,0,5.316-3.128,8.456,8.456,0,0,1-1.5,1.958,32.323,32.323,0,0,1-8.108,6.1,37.2,37.2,0,0,1-15.3,3.833A103.326,103.326,0,0,1,86.882,34.72c-6.173-.842-12.267-2.161-18.415-3.155-5.42-.9-10.851-1.766-16.321-2.333a82.689,82.689,0,0,0-19.481-.094,77.235,77.235,0,0,0-11.174,2.136c-.748.209-1.468.5-2.218.7a57.8,57.8,0,0,1,8.454-4.439A56.447,56.447,0,0,1,44.411,23.372Zm0,0" transform="translate(-10.581 -11.501)" fill="#00643c"/>
  <path id="Path_6919" data-name="Path 6919" d="M39.757,60.988q3.5,0,6.99,0c.02,3.118-.007,6.238.015,9.355-.032,7.433,0,14.865-.015,22.3-2.33,0-4.663.005-7,0Q39.748,76.811,39.757,60.988Zm0,0" transform="translate(-18.035 -25.318)" fill="#00643c"/>
</svg>
