<svg xmlns="http://www.w3.org/2000/svg" width="63.522" height="63.84" viewBox="0 0 63.522 63.84">
  <g id="Paralympic_Committee_of_India" data-name="Paralympic Committee of India" transform="translate(0 -0.03)">
    <path id="Path_14089" data-name="Path 14089" d="M14.185,67.182a1.693,1.693,0,0,1-.546-.151,5.645,5.645,0,0,1-3.34-2.945,9.756,9.756,0,0,1-.941-4.7,21.12,21.12,0,0,1,1.947-8.636,6.5,6.5,0,0,1,.941-1.59,1.8,1.8,0,0,1,.414-.357,3.885,3.885,0,0,1-.216.894c-.4,1.279-.828,2.549-1.12,3.857a11.4,11.4,0,0,0,1.834,9.6,5.8,5.8,0,0,0,1.392,1.4,3.462,3.462,0,0,0,4,0,9.171,9.171,0,0,0,1.242-.941.226.226,0,0,1-.047.216,7.677,7.677,0,0,1-3.9,3.133,4.169,4.169,0,0,0-.649.179Z" transform="translate(-1.795 -3.312)" fill="#0561ee"/>
    <path id="Path_14090" data-name="Path 14090" d="M1.32,54.947a2.042,2.042,0,0,0,.132-.611,8.213,8.213,0,0,1,2.314-3.942,19.935,19.935,0,0,1,6.849-4.346,12.964,12.964,0,0,1,3.3-.941,2.662,2.662,0,0,1,1.12,0c-.066.151-.216.169-.339.226-1.27.574-2.578,1.044-3.829,1.665a12.145,12.145,0,0,0-4.836,4.036,10.433,10.433,0,0,0-1.806,4.582,3.669,3.669,0,0,0,3.1,4.44l.941.179c-.113.132-.273.1-.4.113a7.761,7.761,0,0,1-4.45-.847,3.857,3.857,0,0,1-1.994-2.822.292.292,0,0,0-.094-.263Z" transform="translate(-1.32 -3.09)" fill="#c40733"/>
    <path id="Path_14091" data-name="Path 14091" d="M56.282,1.063a.1.1,0,0,0-.056-.075V.8h.1c.8.941,1.571,1.882,2.3,2.888a39.512,39.512,0,0,1,3.387,5.475,25.786,25.786,0,0,1,2.2,5.852,14.253,14.253,0,0,1,0,7.253,11.007,11.007,0,0,1-3.453,5.306,17.874,17.874,0,0,1-5.72,3.236A21.035,21.035,0,0,1,50.9,31.826a43.652,43.652,0,0,1-5.532.414c-2.088.066-4.168,0-6.247.113a31.271,31.271,0,0,0-7.573,1.1,12.07,12.07,0,0,0-5.532,3.471A18.194,18.194,0,0,0,23.252,41a29.549,29.549,0,0,0-2.023,5.268c-.357,1.251-.63,2.512-.894,3.763a.122.122,0,0,1-.075.094c0-.4-.066-.809-.085-1.223a38.111,38.111,0,0,1,.339-7.677,23.9,23.9,0,0,1,1.58-5.748,16.426,16.426,0,0,1,4.1-5.936,16.059,16.059,0,0,1,6.04-3.406,26.285,26.285,0,0,1,5.72-1.044c2.145-.188,4.309-.329,6.454-.508a35.541,35.541,0,0,0,5.278-.79,15.184,15.184,0,0,0,5.2-2.211,11.2,11.2,0,0,0,2.926-2.992,11.854,11.854,0,0,0,1.3-2.493,11.807,11.807,0,0,0,.6-5.645A20.7,20.7,0,0,0,58.38,5.494,40.292,40.292,0,0,0,56.4,1.317.78.78,0,0,1,56.33,1.2a.1.1,0,0,0-.047-.141Z" transform="translate(-2.433 -0.469)" fill="#fd822f"/>
    <path id="Path_14092" data-name="Path 14092" d="M65.592,35.386l.329-.706c.094,0,.066.113.056.169a24.1,24.1,0,0,1-.386,3.17V38.1a5.431,5.431,0,0,0-.188.771h0a21.91,21.91,0,0,1-.847,2.314h0l-.743,1.336h0a1.656,1.656,0,0,0-.3.423h0a9.726,9.726,0,0,0-.734.941h0c-.056,0-.094,0-.094.094h0l-.056.056h0a6.114,6.114,0,0,0-.5.489.254.254,0,0,0-.132.132.4.4,0,0,0-.216.2h0a.066.066,0,0,0-.066.047h0l-.066.056h0a.517.517,0,0,0-.235.188h0a.113.113,0,0,0-.113.085h0a.63.63,0,0,0-.263.207h0a.574.574,0,0,0-.273.2h0a.245.245,0,0,0-.16.113h0a5.2,5.2,0,0,0-.79.48h0l-.2.075c-.1,0-.188,0-.216.1h0c-.056,0-.1,0-.113.066h0c-.094,0-.179,0-.207.1h0c-.066,0-.1,0-.122.056v.056h-.348a1.882,1.882,0,0,0-.941.376h-.094a.79.79,0,0,0-.386.075A5.8,5.8,0,0,1,56,47.493a21.517,21.517,0,0,1-2.211.5,1.881,1.881,0,0,0-.771.16H52.9a3.97,3.97,0,0,0-1.411.141.508.508,0,0,1-.292,0,.273.273,0,0,0-.094,0c-.64,0-1.279.085-1.929.056H49.1a11.441,11.441,0,0,1-1.7,0c-.056-.113-.151-.066-.235-.066H44.689a6.511,6.511,0,0,0-1.543,0,3.406,3.406,0,0,1-.818,0,.226.226,0,0,0-.188-.066c-.611,0-1.223,0-1.882-.047a15.053,15.053,0,0,0-1.957,0,6.265,6.265,0,0,0-1.326.113,1.12,1.12,0,0,1-.4,0,2.079,2.079,0,0,0-.8,0,1.063,1.063,0,0,0-.564.1.216.216,0,0,1-.169,0,1.167,1.167,0,0,0-.837.075.226.226,0,0,1-.169,0h-.075l-1.138.113a.132.132,0,0,0-.1.1H32.6c-.056-.056-.122,0-.2,0a18.815,18.815,0,0,0-2.267.517c-.4.1-.781.235-1.176.367a2.474,2.474,0,0,1-.329.141,3.405,3.405,0,0,0-.941.376,24.024,24.024,0,0,0-2.437,1.279c-.32.207-.687.376-1,.6-.536.4-1.091.781-1.6,1.223-.122.1-.3.179-.329.367h0a.4.4,0,0,0-.329.292h0c-.113,0-.169,0-.169.151h0a.433.433,0,0,0-.32.292v.452h-.094l-.047.056-.075.113h-.113l-.141.188h0l-.235.188c-.141,0-.1-.141-.113-.226l.056-.132s.113-.056.047-.122V54.69a16.078,16.078,0,0,0,.847-1.524h0c.348-.517.7-1.025,1.035-1.543h0a.376.376,0,0,0,.141-.179h0a6.106,6.106,0,0,0,.621-.781h0a5.466,5.466,0,0,0,.621-.706h0a2.258,2.258,0,0,0,.48-.517h0a1.609,1.609,0,0,0,.414-.423h0l1.392-1.251.085-.085h0a7.188,7.188,0,0,0,.941-.743h0a.141.141,0,0,0,.132-.094h0a.781.781,0,0,0,.329-.245h0l1.242-.79c.715-.461,1.468-.837,2.2-1.251a1.007,1.007,0,0,0,.386-.2h0c.941-.386,1.882-.771,2.822-1.12h0l.433-.122a24.742,24.742,0,0,1,4.2-1c.734-.094,1.468-.132,2.2-.207a2.013,2.013,0,0,0,.583,0H42.4c.63,0,1.261,0,1.882-.056a1.214,1.214,0,0,0,.414,0h4.243a1.223,1.223,0,0,0,.414,0,.941.941,0,0,0,.423,0,11.073,11.073,0,0,0,1.477-.047.282.282,0,0,0,.216,0,2.013,2.013,0,0,0,.583,0,.414.414,0,0,0,.263,0,9.493,9.493,0,0,0,1.27-.085h.16a2.4,2.4,0,0,0,.687-.066h.113a12.785,12.785,0,0,0,1.985-.292h.075a.141.141,0,0,0,.16,0h.179a16.793,16.793,0,0,0,4.337-1.684,6.313,6.313,0,0,0,1.345-.809l.094-.056a4.572,4.572,0,0,0,.941-.79h0a5.1,5.1,0,0,0,.941-1.091h0a1.157,1.157,0,0,0,.254-.376v-.047a.41.41,0,0,0,.085-.122h0a1.957,1.957,0,0,0,.31-.564h0a.348.348,0,0,0,.113-.226h0v-.066C65.367,35.47,65.6,35.4,65.592,35.386Z" transform="translate(-2.467 -2.476)" fill="#27c102"/>
    <path id="Path_14093" data-name="Path 14093" d="M29.134,54.81a3.547,3.547,0,0,1,.988,1.12,7.724,7.724,0,0,1,1.138,2.738,4.017,4.017,0,0,1-1.392,4.055,6.7,6.7,0,0,1-5,1.5,17.583,17.583,0,0,1-7.526-2.531,17.009,17.009,0,0,1-3.293-2.371,5.108,5.108,0,0,1-.941-1.082.649.649,0,0,1-.1-.423,10.614,10.614,0,0,1,1.157.668,37.63,37.63,0,0,0,3.594,2.154,11.289,11.289,0,0,0,8.758.6,5.861,5.861,0,0,0,2.4-1.383,3.359,3.359,0,0,0,.941-3.114,5.983,5.983,0,0,0-.536-1.59C29.237,54.989,29.19,54.913,29.134,54.81Z" transform="translate(-2.012 -3.669)" fill="#14ca24"/>
    <path id="Path_14094" data-name="Path 14094" d="M45,41.609a3.66,3.66,0,1,1,.367,0h-.16A.386.386,0,0,0,45,41.609Zm2.756-5.466h0c0-.113.1-.263-.066-.339h0c-.085-.094-.151-.216-.32-.16s-.169,0-.169-.094c0-.235-.169-.273-.32-.348h0c0-.056-.085-.066-.122,0a.157.157,0,0,1-.263-.056.254.254,0,0,0-.292-.2,1.167,1.167,0,0,1-.734-.1h0c-.085,0-.188-.056-.263,0l-.056.1h-.179a.386.386,0,0,0-.621.179c0,.075-.132.056-.207,0s-.452.085-.461.245-.132.207-.273.179a.075.075,0,0,0-.1,0,.4.4,0,0,0-.169.16c-.1.056-.085.132,0,.216s-.179.16-.282.207a.169.169,0,0,0-.094.16c-.207.122-.056.282,0,.423-.263.179-.461.376-.226.715v.151c-.188.235-.188.376,0,.593a.188.188,0,0,1,0,.263h0v.16c0,.056,0,.3.2.31l.1.056v.2a.32.32,0,0,0,.263.442.245.245,0,0,1,.169.16c-.094.179,0,.282.151.367s.085.132.188.094.216,0,.245.188a.376.376,0,0,0,.452.235c.141-.056.216,0,.263.122s0,.113.113.1.245.16.386,0,.2-.085.292,0A.367.367,0,0,0,45.9,40.8a.273.273,0,0,1,.254,0c0,.075.047.094.132.085a.546.546,0,0,0,.48-.339h-.094a.367.367,0,0,0,.527-.226c0-.1,0-.16.151-.169.329,0,.4-.113.433-.433a.138.138,0,0,1,.122-.151.441.441,0,0,0,.292-.245.16.16,0,0,0,0-.263v-.1l.122-.122h.094c.056-.169.2-.329,0-.517a.132.132,0,0,1,0-.207c.16-.075.113-.207.094-.339a.544.544,0,0,1,0-.188c0-.038-.169-.207,0-.348s0-.094,0-.151a.351.351,0,0,0-.085-.263c-.085-.075-.1,0-.151-.056l-.094.075h0c.094-.4,0-.593-.357-.63h0Z" transform="translate(-3.702 -2.453)" fill="#0e1ba5"/>
    <path id="Path_14095" data-name="Path 14095" d="M42.87,53.989V52.267c0-.132,0-.216.169-.2h1.675A1.562,1.562,0,0,1,46.426,53.7a1.929,1.929,0,0,1-2.1,2.248h-1.27c-.16,0-.2,0-.188-.188a11.1,11.1,0,0,0,0-1.769Zm.527,0h0v1.449c0,.169.056.245.216.245a7.922,7.922,0,0,0,.818,0,1.392,1.392,0,0,0,1.326-1,2.587,2.587,0,0,0,0-1.439,1.185,1.185,0,0,0-1.072-.941,4.789,4.789,0,0,0-1.1,0c-.169,0-.235.075-.226.235.047.517.038,1,.038,1.486Z" transform="translate(-3.781 -3.506)" fill="#0c0c0c"/>
    <path id="Path_14096" data-name="Path 14096" d="M41.137,54.954V52.291c0-.151,0-.226.2-.226s.179.075.169.207a33.6,33.6,0,0,0-.094,3.49c0,.075.047.179,0,.216s-.132-.075-.179-.132c-.809-.941-1.665-1.882-2.521-2.747l-.188-.16a1.825,1.825,0,0,0-.056.659v2.145c0,.2-.085.169-.207.179s-.188,0-.179-.188a32.682,32.682,0,0,0,.085-3.594V52c0-.028.141.056.188.113l2.455,2.625A.593.593,0,0,0,41.137,54.954Z" transform="translate(-3.498 -3.502)" fill="#0c0c0c"/>
    <path id="Path_14097" data-name="Path 14097" d="M52.858,55.932c-.574,0-.574,0-.771-.527-.1-.273-.216-.536-.32-.809a.216.216,0,0,0-.235-.16,9.839,9.839,0,0,1-1.054,0,.245.245,0,0,0-.263.2c-.113.31-.263.621-.348.941s-.188.452-.536.329l.734-1.618L51,52.141c0-.066,0-.151.122-.141s.094.075.122.132Zm-1.882-3.18-.546,1.261c0,.1-.047.169.1.16h1.054Z" transform="translate(-4.164 -3.502)" fill="#0c0c0c"/>
    <path id="Path_14098" data-name="Path 14098" d="M48.135,23.1c.113-.546.216-1.025.3-1.524,0-.188.151-.179.273-.2s.132.113.151.188c.122.536.235,1.063.348,1.6,0,.085.122.207-.066.245s-.179-.113-.2-.207c-.1-.452-.188-.941-.329-1.364-.085.461-.169.941-.273,1.374,0,.113,0,.282-.151.32s-.2-.151-.245-.245c-.216-.4-.414-.8-.668-1.185l.075.941v.47c0,.16,0,.2-.113.207s-.132-.113-.141-.2c0-.546-.094-1.1-.132-1.656,0-.085-.075-.207.094-.226s.226-.056.3.113c.2.414.414.809.63,1.223Z" transform="translate(-4.023 -1.688)" fill="#131313"/>
    <path id="Path_14099" data-name="Path 14099" d="M45.52,22.232l-.367,1.477c0,.085,0,.2-.141.216s-.169-.1-.207-.188c-.2-.423-.386-.837-.574-1.261-.085,0-.066.066-.066.1v1.185c0,.094.1.245-.113.263S44,23.869,44,23.794a15.861,15.861,0,0,0-.056-1.637c0-.075,0-.2.094-.2s.235-.066.31.1c.151.386.339.753.517,1.129,0,.094.085.188.132.31.132-.517.263-1.007.376-1.5a.235.235,0,0,1,.263-.216c.2,0,.151.132.169.235.094.527.188,1.054.263,1.58,0,.085.1.216-.085.245s-.16-.094-.169-.188l-.226-1.411Z" transform="translate(-3.845 -1.712)" fill="#131313"/>
    <path id="Path_14100" data-name="Path 14100" d="M27.745,25.951l-.085-1v-.508c0-.169.113-.169.207-.216s.141.047.179.122l.79,1.468c0,.075.141.151,0,.226s-.169,0-.216-.094l-.564-1.072c0-.056,0-.122-.141-.151,0,.414.066.809.094,1.214a1.373,1.373,0,0,1,0,.207c0,.1.066.235-.094.292s-.179-.075-.245-.141c-.263-.273-.527-.546-.781-.828-.047-.047-.1-.122-.169-.075s0,.1,0,.151l.423,1.063c0,.094.066.169-.066.226s-.151-.075-.179-.151c-.207-.517-.4-1.054-.6-1.58,0-.066-.122-.16,0-.207s.2-.141.32,0c.273.3.564.583.847.875l.169.2Z" transform="translate(-2.796 -1.856)" fill="#131313"/>
    <path id="Path_14101" data-name="Path 14101" d="M36.875,54.017V55.71c0,.16,0,.245-.207.226s-.339,0-.329-.367q.056-1.637,0-3.274c0-.094-.075-.273.132-.207s.442-.2.4.216C36.875,52.869,36.857,53.443,36.875,54.017Z" transform="translate(-3.394 -3.506)" fill="#0c0c0c"/>
    <path id="Path_14102" data-name="Path 14102" d="M47.73,54.008v-1.74c0-.179.047-.2.2-.188.357,0,.367,0,.348.386a26.691,26.691,0,0,0,0,3.246c0,.4-.263.179-.4.216s-.141-.122-.141-.226V54.008Z" transform="translate(-4.069 -3.507)" fill="#0c0c0c"/>
    <path id="Path_14103" data-name="Path 14103" d="M41,23.153a.941.941,0,0,1,1.214-1.025.762.762,0,0,1,.433.292,1.251,1.251,0,0,1,0,1.515.941.941,0,0,1-1.044.245,1.054,1.054,0,0,1-.6-1.025Zm1.6,0a.866.866,0,0,0,0-.188.715.715,0,0,0-.659-.64.743.743,0,0,0-.64.875c.047.536.348.866.762.809s.536-.348.536-.866Z" transform="translate(-3.67 -1.73)" fill="#141414"/>
    <path id="Path_14104" data-name="Path 14104" d="M19.915,32.964c.339-.2.668,0,1,0,.056,0,.056.056,0,.094s0,.188-.169.16l-.47-.075a.386.386,0,0,0-.386.113c-.2.216-.169.348.1.461a3.226,3.226,0,0,0,.414.179c.1,0,.132.085.085.2s-.122.094-.207.056q-.79-.348-1.58-.677c-.151-.056-.151-.132-.1-.245s.094-.273.151-.4c.16-.329.357-.47.621-.442S19.793,32.578,19.915,32.964Zm-.593-.3a.541.541,0,0,0-.442.48c0,.075.508.4.621.348s.188-.273.2-.442a.367.367,0,0,0-.4-.4Z" transform="translate(-2.342 -2.34)" fill="#141414"/>
    <path id="Path_14105" data-name="Path 14105" d="M22.359,30.565c-.047.075-.056.216-.216.169h-.075c-.5-.122-.489-.113-.781.3a.245.245,0,0,0,0,.348c.085.094.16.2.245.3s0,.179-.056.235-.122,0-.151-.066c-.386-.5-.762-.988-1.157-1.477a.188.188,0,0,1,0-.254c.056-.094.1-.141.235-.1.593.169,1.2.32,1.806.48C22.284,30.48,22.368,30.461,22.359,30.565Zm-1.882-.226.226.273c.357.452.357.452.621-.066h0a2.709,2.709,0,0,0-.837-.207Z" transform="translate(-2.434 -2.199)" fill="#131313"/>
    <path id="Path_14106" data-name="Path 14106" d="M19.528,37.055c-.564-.386-1.11-.762-1.656-1.12a.207.207,0,0,1-.1-.263c0-.132.1-.16.216-.16l1.825-.113c.056,0,.179-.066.16.085s0,.2-.16.2h-.263a.328.328,0,0,0-.386.31c-.094.423-.113.414.263.668C19.622,36.791,19.622,36.791,19.528,37.055Zm-1.439-1.336v.066l.771.508.122-.4c0-.122,0-.188-.141-.179s-.5.009-.753.009Z" transform="translate(-2.294 -2.518)" fill="#131313"/>
    <path id="Path_14107" data-name="Path 14107" d="M55.815,17.993a.546.546,0,0,0-.075.094l-.216.2c-.339.31-.32.414.056.7.085.066.122,0,.179,0l.367-.339c.056-.066.1-.122.188,0s0,.132,0,.188l-.169.16c-.3.292-.282.273,0,.611s.3.2.461,0a2.954,2.954,0,0,1,.3-.292c.056-.066.113-.1.2,0s0,.122,0,.179c-.216.2-.442.4-.649.611s-.141.056-.216,0L55,18.718c-.075-.075-.085-.122,0-.2.216-.188.423-.4.64-.593,0,0,.066-.094.122,0Z" transform="translate(-4.496 -1.481)" fill="#141414"/>
    <path id="Path_14108" data-name="Path 14108" d="M58.6,17.386l-.066.1c-.16.226-.32.442-.461.677s-.16.122-.263,0l-1.392-.941c-.122-.085-.16-.132-.066-.263s.292-.423.433-.63a.115.115,0,0,1,.2-.085c.132.094.056.132,0,.207s-.2.3-.3.433-.056.141,0,.216c.4.32.386.31.687-.1.066-.094.085-.339.273-.207s0,.245-.1.339c-.245.386-.245.367.122.649.2.151.292.113.4-.085a3.924,3.924,0,0,1,.273-.414.079.079,0,0,1,.132-.047C58.529,17.283,58.6,17.311,58.6,17.386Z" transform="translate(-4.577 -1.382)" fill="#141414"/>
    <path id="Path_14109" data-name="Path 14109" d="M22.43,54.783c0-.188.207-.263.329-.367.508-.442,1.063-.818,1.6-1.223.31-.226.677-.4,1-.6a24.026,24.026,0,0,1,2.437-1.279,3.405,3.405,0,0,1,.941-.376,2.474,2.474,0,0,0,.329-.141c.4-.132.781-.263,1.176-.367a18.816,18.816,0,0,1,2.267-.517h.2a27.807,27.807,0,0,0-3.246.828,20.81,20.81,0,0,0-6.378,3.5A6.213,6.213,0,0,1,22.43,54.783Z" transform="translate(-2.571 -3.378)" fill="#14ca24"/>
    <path id="Path_14110" data-name="Path 14110" d="M31.123,23.961a.668.668,0,0,1-.574.64c-.216.056-.254.151-.169.339a2.949,2.949,0,0,1,.113.376c.047.122,0,.16-.094.188s-.141,0-.169-.1c-.16-.564-.32-1.138-.489-1.7,0-.085,0-.141.066-.179a2.277,2.277,0,0,1,.659-.179.583.583,0,0,1,.659.621Zm-.611-.4c-.423,0-.5.1-.4.442a.192.192,0,0,0,.047.151c.094.329.273.376.546.141a.376.376,0,0,0,.122-.47.357.357,0,0,0-.31-.235Z" transform="translate(-3.004 -1.804)" fill="#131313"/>
    <path id="Path_14111" data-name="Path 14111" d="M17.13,38.639a.912.912,0,0,1,.066-.414.6.6,0,0,1,.687-.546.649.649,0,0,1,.574.724c0,.132-.113.282,0,.376s.235,0,.357.066h.235c.094,0,.169,0,.141.151s-.075.141-.179.122l-1.75-.2C17.083,38.856,17.158,38.733,17.13,38.639Zm1.1-.235a.461.461,0,0,0,0-.1.423.423,0,0,0-.452-.357c-.226,0-.4.226-.4.546s.235.122.357.188a.847.847,0,0,0,.151,0C18.184,38.761,18.221,38.733,18.231,38.4Z" transform="translate(-2.257 -2.653)" fill="#141414"/>
    <path id="Path_14112" data-name="Path 14112" d="M39.606,24.429a.941.941,0,0,1-1.016-.941,1.035,1.035,0,0,1,.856-1.129,1.731,1.731,0,0,1,.442,0c.085,0,.216,0,.2.132s-.122.094-.216.085a.818.818,0,0,0-.941,1.044.743.743,0,0,0,.837.63,1.242,1.242,0,0,0,.31-.075c.085,0,.122,0,.151.085s0,.1-.075.132a1.4,1.4,0,0,1-.546.038Z" transform="translate(-3.528 -1.745)" fill="#141414"/>
    <path id="Path_14113" data-name="Path 14113" d="M35.291,24.658a.941.941,0,0,1-1.091-.941,1.025,1.025,0,0,1,.894-1.148,2.126,2.126,0,0,1,.423,0c.085,0,.179,0,.16.141s-.1.094-.188.085a.818.818,0,0,0-.941,1.054c.094.489.5.706,1.054.574.075,0,.207-.141.245.047s-.113.141-.2.169a2.314,2.314,0,0,1-.357.019Z" transform="translate(-3.267 -1.758)" fill="#141414"/>
    <path id="Path_14114" data-name="Path 14114" d="M24.916,25.77a4.261,4.261,0,0,1,0,.687,1.806,1.806,0,0,0,.442,1.261c.066.066.113.132,0,.207s-.16.066-.207,0a2.239,2.239,0,0,0-1.261-1.063.63.63,0,0,1-.31-.188c.122-.169.254-.16.423-.056s.47.273.743.423a4.986,4.986,0,0,0-.094-.875.273.273,0,0,1,.263-.4Z" transform="translate(-2.639 -1.948)" fill="#141414"/>
    <path id="Path_14115" data-name="Path 14115" d="M51.544,20.785l-.4.16c-.066,0-.132,0-.169-.056s0-.132.085-.169l1.176-.47c.075,0,.122-.047.169.047s0,.141-.094.179-.376.066-.4.216.094.31.16.47c.132.339.273.677.414,1.025,0,.075.1.16,0,.226s-.179-.047-.216-.132c-.179-.452-.357-.894-.546-1.345C51.647,20.88,51.656,20.767,51.544,20.785Z" transform="translate(-4.261 -1.62)" fill="#141414"/>
    <path id="Path_14116" data-name="Path 14116" d="M53.582,19.787c-.113.066-.216.141-.339.2s-.151.151-.235,0,.056-.16.122-.207l.941-.611c.075-.047.141-.1.216,0s0,.141-.094.179c-.376.263-.376.263-.141.668l.6.941c0,.085.16.16,0,.263s-.179,0-.226-.1l-.706-1.167C53.686,19.891,53.667,19.815,53.582,19.787Z" transform="translate(-4.38 -1.554)" fill="#141414"/>
    <path id="Path_14117" data-name="Path 14117" d="M21.991,27.93c.085,0,.113.075.151.122.329.357.659.715.941,1.082.113.122.179.141.292,0a5.043,5.043,0,0,1,.4-.376c.066-.056.113-.075.179,0s.047.113,0,.169l-.687.621c-.075.066-.113,0-.169,0l-1.223-1.355s-.085-.075,0-.132Z" transform="translate(-2.536 -2.076)" fill="#141414"/>
    <path id="Path_14118" data-name="Path 14118" d="M33.032,24.751c0,.122-.056.132-.132.151s-.122,0-.141-.1c-.1-.593-.216-1.195-.329-1.787,0-.075,0-.141.085-.151s.169,0,.188.085C32.806,23.547,32.966,24.158,33.032,24.751Z" transform="translate(-3.163 -1.776)" fill="#131313"/>
    <path id="Path_14119" data-name="Path 14119" d="M50.61,23.063c-.094,0-.094-.056-.113-.113-.179-.574-.357-1.138-.527-1.712,0-.075,0-.151.075-.179a.14.14,0,0,1,.188.094c.16.574.339,1.148.527,1.712C50.817,23.035,50.7,23.026,50.61,23.063Z" transform="translate(-4.202 -1.669)" fill="#141414"/>
    <path id="Path_14120" data-name="Path 14120" d="M55,49.212a1.882,1.882,0,0,1,.771-.16,21.517,21.517,0,0,0,2.211-.5,5.8,5.8,0,0,0,1.195-.348.79.79,0,0,1,.386-.075,12.456,12.456,0,0,1-2.183.668A15.551,15.551,0,0,1,55,49.212Z" transform="translate(-4.5 -3.273)" fill="#14ca24"/>
    <path id="Path_14121" data-name="Path 14121" d="M38,49.441a6.265,6.265,0,0,1,1.326-.113,15.052,15.052,0,0,1,1.957,0c.621,0,1.232,0,1.882.047a.226.226,0,0,1,.188.066,12.662,12.662,0,0,1-1.336,0H38Z" transform="translate(-3.493 -3.342)" fill="#14ca24"/>
    <path id="Path_14122" data-name="Path 14122" d="M44.56,49.467a6.51,6.51,0,0,1,1.543,0h2.446c.085,0,.179-.047.235.066H46.272C45.7,49.524,45.124,49.5,44.56,49.467Z" transform="translate(-3.882 -3.349)" fill="#14ca24"/>
    <path id="Path_14123" data-name="Path 14123" d="M50.86,49.546s0-.056.075,0c.649,0,1.289-.066,1.929-.056a.273.273,0,0,1,.094,0A13.039,13.039,0,0,1,50.86,49.546Z" transform="translate(-4.255 -3.353)" fill="#14ca24"/>
    <path id="Path_14124" data-name="Path 14124" d="M36.17,49.551c.169-.132.376-.085.564-.1a2.079,2.079,0,0,1,.8,0Z" transform="translate(-3.385 -3.349)" fill="#14ca24"/>
    <path id="Path_14125" data-name="Path 14125" d="M33.52,49.876a.132.132,0,0,1,.1-.1l1.138-.113h.075Z" transform="translate(-3.228 -3.363)" fill="#14ca24"/>
    <path id="Path_14126" data-name="Path 14126" d="M53.4,49.44a3.97,3.97,0,0,1,1.411-.141,8.965,8.965,0,0,1-1.411.141Z" transform="translate(-4.405 -3.341)" fill="#14ca24"/>
    <path id="Path_14127" data-name="Path 14127" d="M60,48.066a1.882,1.882,0,0,1,.941-.376l-.094.085A5.878,5.878,0,0,0,60,48.066Z" transform="translate(-4.796 -3.247)" fill="#14ca24"/>
    <path id="Path_14128" data-name="Path 14128" d="M35.1,49.652a1.167,1.167,0,0,1,.837-.075,5.033,5.033,0,0,1-.837.075Z" transform="translate(-3.321 -3.356)" fill="#14ca24"/>
    <path id="Path_14129" data-name="Path 14129" d="M20.666,56.689,20.4,57l-.056.056c-.056,0,0-.075-.056-.1h0a.715.715,0,0,0,.151-.32l.1-.122C20.563,56.548,20.525,56.661,20.666,56.689Z" transform="translate(-2.444 -3.769)" fill="#14ca24"/>
    <path id="Path_14130" data-name="Path 14130" d="M58.492.781V.969C58.276.894,58.37.659,58.21.48c.188.066.254.141.292.245s-.085.056,0,.085Z" transform="translate(-4.69 -0.45)" fill="#f0f0f0"/>
    <path id="Path_14131" data-name="Path 14131" d="M21.47,55.922a.433.433,0,0,1,.32-.292A.866.866,0,0,1,21.47,55.922Z" transform="translate(-2.514 -3.717)" fill="#14ca24"/>
    <path id="Path_14132" data-name="Path 14132" d="M22,55.412a.4.4,0,0,1,.329-.292A.941.941,0,0,1,22,55.412Z" transform="translate(-2.545 -3.687)" fill="#14ca24"/>
    <path id="Path_14133" data-name="Path 14133" d="M21.82,55.62c0-.113.056-.169.169-.151A.376.376,0,0,1,21.82,55.62Z" transform="translate(-2.534 -3.707)" fill="#14ca24"/>
    <path id="Path_14134" data-name="Path 14134" d="M61.226,47.549v.066h0C61.122,47.53,61.16,47.511,61.226,47.549Z" transform="translate(-4.865 -3.237)" fill="#14ca24"/>
    <path id="Path_14135" data-name="Path 14135" d="M58.558,1.08a.1.1,0,0,1,.066.1C58.549,1.183,58.483,1.174,58.558,1.08Z" transform="translate(-4.709 -0.486)" fill="#f0f0f0"/>
    <path id="Path_14136" data-name="Path 14136" d="M68.41,35.47v.066Z" transform="translate(-5.294 -2.523)" fill="#f0f0f0"/>
    <path id="Path_14137" data-name="Path 14137" d="M64.12,45.766l.066-.056Z" transform="translate(-5.04 -3.129)" fill="#f0f0f0"/>
    <path id="Path_14138" data-name="Path 14138" d="M64.18,45.707a.066.066,0,0,1,.066-.047Z" transform="translate(-5.044 -3.126)" fill="#f0f0f0"/>
    <path id="Path_14139" data-name="Path 14139" d="M57.289.379,57.27.369,57.279.36Z" transform="translate(-3.393 -0.02)" fill="#f0f0f0"/>
    <path id="Path_14140" data-name="Path 14140" d="M26.81,48.47Z" transform="translate(-2.83 -3.293)" fill="#f0f0f0"/>
    <path id="Path_14141" data-name="Path 14141" d="M21.366,56H21.3Z" transform="translate(-2.504 -3.739)" fill="#14ca24"/>
    <path id="Path_14142" data-name="Path 14142" d="M58.508.795c-.085,0,0-.056,0-.085Z" transform="translate(-4.706 -0.464)" fill="#fd822f"/>
    <path id="Path_14143" data-name="Path 14143" d="M21.21,56.24Z" transform="translate(-2.498 -3.753)" fill="#f0f0f0"/>
    <path id="Path_14144" data-name="Path 14144" d="M21.137,56.31h0Z" transform="translate(-2.491 -3.757)" fill="#14ca24"/>
    <path id="Path_14145" data-name="Path 14145" d="M61.437,47.439a.282.282,0,0,1-.207.1C61.258,47.42,61.343,47.411,61.437,47.439Z" transform="translate(-4.869 -3.231)" fill="#14ca24"/>
    <path id="Path_14146" data-name="Path 14146" d="M61.826,47.25a.386.386,0,0,1-.216.1C61.638,47.24,61.723,47.231,61.826,47.25Z" transform="translate(-4.892 -3.22)" fill="#14ca24"/>
    <path id="Path_14147" data-name="Path 14147" d="M61.573,47.37a.122.122,0,0,1-.113.066C61.469,47.351,61.516,47.36,61.573,47.37Z" transform="translate(-4.883 -3.227)" fill="#14ca24"/>
    <path id="Path_14148" data-name="Path 14148" d="M61,47.669Z" transform="translate(-4.855 -3.245)" fill="#14ca24"/>
    <path id="Path_14149" data-name="Path 14149" d="M42.69,39.41a.094.094,0,0,1,0,.094Z" transform="translate(-3.771 -2.756)" fill="#eaeef8"/>
    <path id="Path_14150" data-name="Path 14150" d="M48.666,37.094,48.6,37Z" transform="translate(-4.121 -2.613)" fill="#eaeef8"/>
    <path id="Path_14151" data-name="Path 14151" d="M42.41,38.82Z" transform="translate(-3.754 -2.721)" fill="#eaeef8"/>
    <path id="Path_14152" data-name="Path 14152" d="M48.2,36.316l-.047-.056Z" transform="translate(-4.094 -2.57)" fill="#eaeef8"/>
    <path id="Path_14153" data-name="Path 14153" d="M45.642,40.275l-.066,1.054a11.082,11.082,0,0,1-.066-2.437c-.122.066-.1.169-.113.245a11.157,11.157,0,0,1-.555,1.882h0l.329-1.58a1.261,1.261,0,0,0,.188-.564,1.3,1.3,0,0,0-.245.5L44.3,40.613H44.24l.564-1.148a3.189,3.189,0,0,0,.216-.32c.075-.122.235-.2.2-.376.235.16.48-.047.715,0l.047.066-.047.047c-.151,0-.075.094-.056.141.066.207.151.4.226.6a2.333,2.333,0,0,0,.113.508h0a.564.564,0,0,0,.056.282v.339a6.726,6.726,0,0,1-.489-1.468.4.4,0,0,0-.122-.367,7.366,7.366,0,0,1-.019,1.355Z" transform="translate(-3.863 -2.718)" fill="#202998"/>
    <path id="Path_14154" data-name="Path 14154" d="M43.688,38.793h-.141a1.176,1.176,0,0,0-.348.085h-.282a7.658,7.658,0,0,1,1.374-.48.536.536,0,0,0,.263-.085l-1.637-.075s-.075-.047-.056-.1l1.072-.028h.32c.207,0,.414.132.63,0s.122,0,.1.085-.1.122-.085.216h0l-.687.254a1.816,1.816,0,0,0-.527.132Z" transform="translate(-3.781 -2.676)" fill="#202998"/>
    <path id="Path_14155" data-name="Path 14155" d="M44.218,37.966,42.59,37.42h0l1.609.31.659.235h0v.075Z" transform="translate(-3.765 -2.638)" fill="#202998"/>
    <path id="Path_14156" data-name="Path 14156" d="M43.59,36.21c.179,0,.245.151.357.245l.7.6c.141.1.16.339.376.367h0c-.085.1.056.132.075.2h-.085c-.066,0-.1-.151-.2-.056h0v-.056h-.056c0-.2-.245-.226-.357-.339a4.337,4.337,0,0,0-.593-.724Z" transform="translate(-3.824 -2.567)" fill="#202998"/>
    <path id="Path_14157" data-name="Path 14157" d="M43.26,39.469a.668.668,0,0,0,.263-.169h.066l.085-.066a2.032,2.032,0,0,0,.593-.414c.235-.075.489-.085.63-.32h0c.094,0,.094.094.094.169a3.659,3.659,0,0,0-.715.48.63.63,0,0,0-.339.16h-.151l-.282.122C43.411,39.5,43.335,39.582,43.26,39.469Z" transform="translate(-3.805 -2.702)" fill="#202998"/>
    <path id="Path_14158" data-name="Path 14158" d="M44.36,37.623,43.24,36.88h.066c.376.1.7.339,1.063.48.122.066.207.207.367.216h0c0,.056,0,.056.056.056h0a.216.216,0,0,0,.207.151c0,.085,0,.151-.094.169h0C44.792,37.7,44.538,37.727,44.36,37.623Z" transform="translate(-3.803 -2.606)" fill="#202998"/>
    <path id="Path_14159" data-name="Path 14159" d="M44.644,39.313l-.781.706c-.235,0,0-.113,0-.16l.245-.273a.48.48,0,0,0,.179-.207.339.339,0,0,0,.16-.216l.6-.433h.075Z" transform="translate(-3.834 -2.716)" fill="#202998"/>
    <path id="Path_14160" data-name="Path 14160" d="M43.9,39.35h.085Z" transform="translate(-3.842 -2.753)" fill="#eaeef8"/>
    <path id="Path_14161" data-name="Path 14161" d="M42.8,39.64Z" transform="translate(-3.777 -2.77)" fill="#eaeef8"/>
    <path id="Path_14162" data-name="Path 14162" d="M43.8,39.4h.066Z" transform="translate(-3.837 -2.756)" fill="#eaeef8"/>
    <path id="Path_14163" data-name="Path 14163" d="M44,38.109Z" transform="translate(-3.848 -2.678)" fill="#bdcbf8"/>
    <path id="Path_14164" data-name="Path 14164" d="M44.206,38.1H44.15S44.188,38.081,44.206,38.1Z" transform="translate(-3.857 -2.678)" fill="#bdcbf8"/>
    <path id="Path_14165" data-name="Path 14165" d="M43.606,39.31H43.54Z" transform="translate(-3.821 -2.75)" fill="#eaeef8"/>
    <path id="Path_14166" data-name="Path 14166" d="M45.73,37.044a7.282,7.282,0,0,1,.461-1.411,7.676,7.676,0,0,1-.141,1.025,1.4,1.4,0,0,1-.122.367c-.038.122-.188.292-.132.47a2.455,2.455,0,0,0-.649.066c.056-.1,0-.16-.094-.2h0a1.6,1.6,0,0,0-.32-.47c-.169-.461-.423-.875-.593-1.336L45,36.837a1.5,1.5,0,0,0,.339.593l-.273-.771c0-.423-.2-.828-.216-1.251h0c.094,0,.085.122.1.188a7.375,7.375,0,0,1,.48,1.816c.132,0,.075-.132.066-.188a10.565,10.565,0,0,1,0-1.966l.047-.056v.151a.442.442,0,0,0,0,.292,1.458,1.458,0,0,0,0,.452c0,.433,0,.865,0,1.308A.508.508,0,0,0,45.73,37.044Z" transform="translate(-3.857 -2.507)" fill="#202998"/>
    <path id="Path_14167" data-name="Path 14167" d="M44.888,35.41c-.066-.047,0-.1,0-.16Z" transform="translate(-3.899 -2.51)" fill="#202998"/>
    <path id="Path_14168" data-name="Path 14168" d="M47.8,36.994l-1,.64a1.345,1.345,0,0,0-.536.282,2.22,2.22,0,0,0,.649-.226,8.468,8.468,0,0,1,1.3-.179l-1.355.423-.555.056c-.273,0-.282-.254-.376-.414L46,37.493v.047c0,.132.047.085.113.066v.047c0,.075-.066.16.066.075s.329-.245.5-.367a.376.376,0,0,0,.207-.113,1.882,1.882,0,0,0,.461-.226h.066l.254-.122c.047,0,.1,0,.1.066h0Z" transform="translate(-3.963 -2.608)" fill="#202998"/>
    <path id="Path_14169" data-name="Path 14169" d="M46.946,35.81c0,.292-.245.5-.329.762a4.78,4.78,0,0,1-.216.442,1.1,1.1,0,0,0-.273.433c.188-.094.245-.245.339-.357l.828-.734c.066-.056.141-.141.132,0s-.179.113-.169.235h0a1.3,1.3,0,0,0-.423.423l-.151.169-.489.367v-.169c0-.028-.066,0-.1.056V37.39l.226-.564a11.937,11.937,0,0,1,.63-1.016Z" transform="translate(-3.972 -2.543)" fill="#202998"/>
    <path id="Path_14170" data-name="Path 14170" d="M48.152,38.28l-1.195.056a2.389,2.389,0,0,0-.687-.047v-.132a3.561,3.561,0,0,1,.837,0l1.063.056C48.255,38.243,48.189,38.252,48.152,38.28Z" transform="translate(-3.983 -2.68)" fill="#202998"/>
    <path id="Path_14171" data-name="Path 14171" d="M47.6,37H47.53Z" transform="translate(-4.057 -2.613)" fill="#eaeef8"/>
    <path id="Path_14172" data-name="Path 14172" d="M47.92,37l.056-.047Z" transform="translate(-4.081 -2.61)" fill="#eaeef8"/>
    <path id="Path_14173" data-name="Path 14173" d="M46.946,38.839l.865.564v.047h0c-.075.141-.151,0-.207,0-.292-.122-.574-.273-.865-.4s-.282-.3-.517-.32h0c0-.113,0-.094-.1-.1s.066-.188.122-.273a2.3,2.3,0,0,0,.574.1l1.007.32c.075,0,.179,0,.151.16l-1.025-.226-.687-.254v.066Z" transform="translate(-3.972 -2.693)" fill="#202998"/>
    <path id="Path_14174" data-name="Path 14174" d="M47.381,40.019l-.875-.762-.386-.517h.16c.094.179.282.245.423.376l.734.856Z" transform="translate(-3.974 -2.717)" fill="#202998"/>
    <path id="Path_14175" data-name="Path 14175" d="M46.866,40.467h0V40.4h0v-.047a.856.856,0,0,0-.207-.31l-.066-.113-.245-.376L46,38.877l.047-.047.4.508.6,1.242C46.941,40.58,46.941,40.5,46.866,40.467Z" transform="translate(-3.967 -2.722)" fill="#202998"/>
    <path id="Path_14176" data-name="Path 14176" d="M47.516,40.05s.132.085.094.122-.1,0-.151-.075Z" transform="translate(-4.053 -2.794)" fill="#202998"/>
    <path id="Path_14177" data-name="Path 14177" d="M47.135,35.61c0,.056,0,.113-.056.141S47.1,35.648,47.135,35.61Z" transform="translate(-4.03 -2.531)" fill="#202998"/>
    <path id="Path_14178" data-name="Path 14178" d="M47.075,35.75s0,.094-.056.056S47,35.731,47.075,35.75Z" transform="translate(-4.026 -2.539)" fill="#202998"/>
    <path id="Path_14179" data-name="Path 14179" d="M48,39.517V39.47Z" transform="translate(-4.085 -2.76)" fill="#eaeef8"/>
    <path id="Path_14180" data-name="Path 14180" d="M46.86,40.47v.066Z" transform="translate(-4.018 -2.819)" fill="#eaeef8"/>
    <path id="Path_14181" data-name="Path 14181" d="M46.219,38.261c-.056.085-.2.132-.122.273v.094h-.2c-.235-.066-.48.141-.715,0H45.09v-.094c0-.075,0-.151-.094-.169s.075-.141.085-.216,0-.141-.1-.085h0L45,37.979c.094,0,.094-.085.094-.169v-.094h.085a2.455,2.455,0,0,1,.649-.066h0c.094.16.1.4.376.414v.085Z" transform="translate(-3.904 -2.652)" fill="#0e1ba5"/>
    <path id="Path_14182" data-name="Path 14182" d="M45.91,37.64Z" transform="translate(-3.962 -2.651)" fill="#202998"/>
  </g>
</svg>
