<svg xmlns="http://www.w3.org/2000/svg" width="22.774" height="28" viewBox="0 0 22.774 28">
  <g id="PDF_file_icon" transform="translate(53.548 -183.974)">
    <path id="Path_6934" data-name="Path 6934" d="M-50.656,183.974a2.9,2.9,0,0,0-2.892,2.893v22.214a2.9,2.9,0,0,0,2.892,2.893H-33.67a2.9,2.9,0,0,0,2.892-2.893V190.815a2.394,2.394,0,0,0-.187-1.055,2.924,2.924,0,0,0-.572-.827l0,0-4.214-4.134-.007-.007a3.334,3.334,0,0,0-.893-.572,3.264,3.264,0,0,0-1.275-.241H-50.656Z" fill="#2a2a2a"/>
    <path id="Path_6935" data-name="Path 6935" d="M-48.464,187.117h12.746a2.714,2.714,0,0,1,.882.165,2.417,2.417,0,0,1,.614.388l0,0,4.2,4.124a2.32,2.32,0,0,1,.376.543,2.06,2.06,0,0,1,.105.628q0,.01,0,.02v18.287a1.927,1.927,0,0,1-1.942,1.942H-48.464a1.927,1.927,0,0,1-1.942-1.942V189.059a1.927,1.927,0,0,1,1.942-1.942Z" transform="translate(-2.192 -2.192)" fill="#f5f5f5"/>
    <path id="Path_6936" data-name="Path 6936" d="M-35.292,213.09c-.654-.654.054-1.552,1.973-2.506l1.208-.6.471-1.03c.259-.566.645-1.49.858-2.053l.388-1.024-.267-.758a5.412,5.412,0,0,1-.237-2.835c.282-.682,1.207-.612,1.574.119a4.617,4.617,0,0,1-.082,2.908l-.278,1.069.245.416A14.426,14.426,0,0,0-28.567,208l.65.809.809-.106c2.571-.335,3.452.235,3.452,1.052,0,1.032-2.019,1.117-3.714-.074a5.148,5.148,0,0,1-.643-.534s-1.062.216-1.585.357c-.54.145-.809.237-1.6.5,0,0-.277.4-.458.7a7.493,7.493,0,0,1-2.019,2.321,1.376,1.376,0,0,1-1.618.062Zm1.026-.367A7.736,7.736,0,0,0-32.64,210.8l.208-.331-.949.477c-1.466.737-2.137,1.432-1.788,1.852C-34.973,213.035-34.739,213.016-34.266,212.724Zm9.523-2.673a.552.552,0,0,0-.1-.964,2.668,2.668,0,0,0-1.393-.18c-.5.034-1.317.136-1.454.167,0,0,.446.308.644.422a8.558,8.558,0,0,0,1.372.573c.461.141.728.126.93-.018Zm-3.829-1.591a9.4,9.4,0,0,1-.822-1.061,5.91,5.91,0,0,1-.461-.686s-.224.721-.408,1.155l-.574,1.419-.166.322s.885-.29,1.335-.408c.477-.125,1.444-.315,1.444-.315Zm-1.234-4.948a2.078,2.078,0,0,0-.071-1.165c-.415-.454-.916-.075-.831,1a7.357,7.357,0,0,0,.239,1.365l.219.7.154-.523A13.737,13.737,0,0,0-29.807,203.511Z" transform="translate(-12.57 -12.445)" fill="#2a2a2a"/>
    <path id="Path_6937" data-name="Path 6937" d="M-31.067,249.123h1.061a2.884,2.884,0,0,1,.826.1.97.97,0,0,1,.534.424,1.393,1.393,0,0,1,.217.788,1.433,1.433,0,0,1-.176.729,1.033,1.033,0,0,1-.474.44,2.31,2.31,0,0,1-.911.135h-.367v1.674h-.71Zm.71.55v1.495h.352a.926.926,0,0,0,.65-.176.767.767,0,0,0,.182-.572.858.858,0,0,0-.119-.477.489.489,0,0,0-.264-.226,1.65,1.65,0,0,0-.449-.044Zm2.471-.55h.964a2.179,2.179,0,0,1,1.118.248,1.543,1.543,0,0,1,.634.738,2.657,2.657,0,0,1,.217,1.087,3.033,3.033,0,0,1-.195,1.121,1.783,1.783,0,0,1-.59.791,1.835,1.835,0,0,1-1.13.3h-1.017Zm.71.568v3.15h.3a.994.994,0,0,0,.9-.427,2.078,2.078,0,0,0,.279-1.146q0-1.576-1.178-1.576Zm2.9-.568h2.38v.568h-1.671v1.281h1.338v.568h-1.338v1.868h-.71Z" transform="translate(-15.684 -45.451)" fill="#2c2c2c"/>
  </g>
</svg>
