<svg xmlns="http://www.w3.org/2000/svg" xmlns:xlink="http://www.w3.org/1999/xlink" width="82" height="79" viewBox="0 0 82 79">
  <defs>
    <filter id="Ellipse_438" x="0" y="0" width="82" height="79" filterUnits="userSpaceOnUse">
      <feOffset dy="3" input="SourceAlpha"/>
      <feGaussianBlur stdDeviation="3" result="blur"/>
      <feFlood flood-opacity="0.161"/>
      <feComposite operator="in" in2="blur"/>
      <feComposite in="SourceGraphic"/>
    </filter>
  </defs>
  <g id="Group_137" data-name="Group 137" transform="translate(-89 -782)">
    <g transform="matrix(1, 0, 0, 1, 89, 782)" filter="url(#Ellipse_438)">
      <ellipse id="Ellipse_438-2" data-name="Ellipse 438" cx="32" cy="30.5" rx="32" ry="30.5" transform="translate(9 6)" fill="#fff"/>
    </g>
    <g id="phone-fill_1_" data-name="phone-fill (1)" transform="translate(117.275 805.342)">
      <path id="Path_417" data-name="Path 417" d="M0,0H25.658V25.658H0Z" transform="translate(0 0)" fill="none"/>
      <path id="Path_418" data-name="Path 418" d="M22.244,17.347v3.78a1.069,1.069,0,0,1-.994,1.067c-.467.032-.849.049-1.144.049A17.1,17.1,0,0,1,3,5.138q0-.443.049-1.144A1.069,1.069,0,0,1,4.116,3H7.9a.535.535,0,0,1,.532.481c.025.246.047.442.068.59A14.861,14.861,0,0,0,9.789,8.349a.487.487,0,0,1-.157.606L7.324,10.6a13.948,13.948,0,0,0,7.317,7.317l1.646-2.3a.494.494,0,0,1,.613-.159,14.862,14.862,0,0,0,4.276,1.288c.149.021.344.045.588.068a.535.535,0,0,1,.48.532Z" transform="translate(0.207 0.207)" fill="#fcb316"/>
    </g>
  </g>
</svg>
