<svg xmlns="http://www.w3.org/2000/svg" width="30.222" height="27.35" viewBox="0 0 30.222 27.35">
  <g id="Present_Performance" data-name="Present Performance" transform="translate(0.005 -0.02)">
    <path id="Path_19766" data-name="Path 19766" d="M26.4,6.18h7.707c.645,0,.881.241.871.881v6.956c0,.2.082.481-.116.568-.274.14-.4-.164-.563-.308-.712-.655-1.444-1.3-2.109-2-.395-.409-.674-.395-1.093,0a43.807,43.807,0,0,1-12.877,8.136A43.167,43.167,0,0,1,5.6,23.424c-.525.034-.717-.159-.765-.693-.154-2.234-.173-2.272,2.027-2.551a40.379,40.379,0,0,0,21.393-9.527c1.223-1.04,1.232-1.021.12-2.157-.66-.669-1.309-1.348-1.954-2.027C26.392,6.44,26.412,6.363,26.4,6.18Z" transform="translate(-4.78 -6.16)" fill="#fff"/>
    <path id="Path_19767" data-name="Path 19767" d="M51.455,25.109l3.63-2.859c.592.111.284.578.284.852.024,4.28,0,8.564,0,12.848,0,1.675-.029,3.346,0,5.016,0,.64-.207.809-.8.775-.992-.063-1.993.048-2.985-.058a1.627,1.627,0,0,1-.1-.963V26.048A3.2,3.2,0,0,0,51.455,25.109Z" transform="translate(-28.986 -14.494)" fill="#fff"/>
    <path id="Path_19768" data-name="Path 19768" d="M36.8,34.334c1.208-.842,2.595-1.358,3.851-2.094a1.377,1.377,0,0,1,.1.775v13c0,.655-.12.963-.857.9a11.428,11.428,0,0,0-2.109,0c-.708.058-.963-.149-.963-.9.039-3.577,0-7.154,0-10.73A2.474,2.474,0,0,0,36.8,34.334Z" transform="translate(-21.388 -19.675)" fill="#fff"/>
    <path id="Path_19769" data-name="Path 19769" d="M25.8,50.589c-.963,0-1.926,0-2.888.039-.587,0-.842-.2-.838-.814V41.029a.833.833,0,0,1,.727-.915c1.016-.284,2.017-.616,3.023-.924.342.173.246.481.246.775v9.849C26.061,50.094,26.138,50.411,25.8,50.589Z" transform="translate(-13.749 -23.279)" fill="#fff"/>
    <path id="Path_19770" data-name="Path 19770" d="M7.358,52.61a1.507,1.507,0,0,1-.173-.934q0-3.517,0-7.028c0-.785.193-1.179,1.074-1.189a18.292,18.292,0,0,0,2.407-.327c.481-.067.712.043.712.582v8.343a.78.78,0,0,1-.178.573,21.73,21.73,0,0,0-3.842-.019Z" transform="translate(-6.022 -25.314)" fill="#fff"/>
    <path id="Path_19771" data-name="Path 19771" d="M36.722,34.334a2.407,2.407,0,0,1,.154,1.208V45.56c0,1.218.039,1.271,1.213,1.261,2.888-.029,2.46.375,2.474-2.455.024-4.039,0-8.083,0-12.126.3.25.188.6.188.9V45.969c0,.775-.183,1.136-1.021,1.064a18.987,18.987,0,0,0-2.282,0c-.539,0-.8-.14-.8-.741C36.713,42.3,36.713,38.315,36.722,34.334Z" transform="translate(-21.31 -19.675)" fill="#fff"/>
    <path id="Path_19772" data-name="Path 19772" d="M51.669,41.438c.876,0,1.757-.034,2.633,0s1.078-.279,1.074-1.074c-.029-3.577,0-7.149,0-10.721V23.226a1.887,1.887,0,0,0-.221-1.179c.12-.111.265-.332.38-.053a1.844,1.844,0,0,1,.053.693q0,8.918,0,17.836c0,.881-.236,1.2-1.136,1.126s-1.868-.034-2.807-.048c-.053-.034-.072-.072-.053-.111A.1.1,0,0,1,51.669,41.438Z" transform="translate(-29.056 -14.291)" fill="#fff"/>
    <path id="Path_19773" data-name="Path 19773" d="M51.578,44.7v.164c-.188-.1-.168-.289-.168-.481l.029-16.233a2.629,2.629,0,0,1,.14,1.2Q51.583,37.037,51.578,44.7Z" transform="translate(-28.964 -17.554)" fill="#fff"/>
    <path id="Path_19774" data-name="Path 19774" d="M29.82,50.575a2.585,2.585,0,0,0,.173-1.112V40.287a2.652,2.652,0,0,0-.164-1.112c.4-.082.337.226.337.438V49.968C30.162,50.228,30.2,50.522,29.82,50.575Z" transform="translate(-17.768 -23.265)" fill="#fff"/>
    <path id="Path_19775" data-name="Path 19775" d="M7.56,62.634a9.8,9.8,0,0,1,3.851,0Z" transform="translate(-6.224 -35.338)" fill="#fff"/>
  </g>
</svg>
