<svg xmlns="http://www.w3.org/2000/svg" width="56.717" height="60.613" viewBox="0 0 56.717 60.613">
  <g id="Rowing_Federation_of_India" data-name="Rowing Federation of India" transform="translate(0.041 -0.006)">
    <path id="Path_15302" data-name="Path 15302" d="M3.043,25.311V7.979c0-.711,0-.685.719-.867S5.01,6.835,5.6,6.679a12.427,12.427,0,0,1,1.525-.355A10.017,10.017,0,0,0,8.858,5.9a1.2,1.2,0,0,1,.251-.069,22.331,22.331,0,0,0,3-.667c1.1-.243,2.21-.5,3.3-.78.789-.2,1.594-.338,2.366-.563s1.733-.373,2.6-.641c.433-.147.867-.173,1.335-.3.754-.217,1.516-.416,2.279-.563.953-.173,1.863-.459,2.8-.65A34.246,34.246,0,0,0,30.253.839,3.969,3.969,0,0,1,31.986.665a5.789,5.789,0,0,1,1.161.286c.5.173,1.031.182,1.525.39a7.608,7.608,0,0,0,1.43.295c.867.2,1.733.442,2.669.641s1.733.425,2.66.676c.555.156,1.144.225,1.733.364s.953.217,1.412.347c1.083.3,2.175.511,3.258.771,1.335.321,2.652.711,3.986.988.953.2,1.9.433,2.834.676a6.872,6.872,0,0,1,1.664.407,5.2,5.2,0,0,0,1.005.208,15.485,15.485,0,0,0,2.088.468c.329.052.295.286.3.477V42.347c0,.962,0,.936-.867,1.421-1.387.823-2.73,1.733-4.064,2.6-1.031.685-2.1,1.317-3.137,1.984q-2.6,1.651-5.2,3.319l-3.215,2.054A21.665,21.665,0,0,1,41.3,54.982c-.867.442-1.56,1.04-2.374,1.5s-1.508.979-2.262,1.464l-3.6,2.3c-.485.312-.988.615-1.464.936a.269.269,0,0,1-.364,0c-1.231-.867-2.513-1.586-3.752-2.4-1.04-.685-2.106-1.309-3.12-2.019s-2.305-1.482-3.466-2.192-2.322-1.464-3.466-2.2-2.383-1.568-3.588-2.331-2.6-1.681-3.96-2.5S7.454,46.013,6.241,45.2c-.971-.615-1.967-1.2-2.955-1.785A.494.494,0,0,1,3,42.936V33.69Zm1.733.243H4.733V41.1c0,.867,0,1.586.971,1.846.087,0,.13.147.208.2l3.926,2.47c1.179.737,2.366,1.464,3.527,2.218,1.69,1.1,3.414,2.149,5.087,3.258,1.239.815,2.5,1.6,3.752,2.4l2.6,1.646c.676.425,1.343.867,2.01,1.3l1.274.806c.945.6,1.915,1.153,2.816,1.8a.771.771,0,0,0,1.023,0c.962-.615,1.906-1.248,2.868-1.854s1.672-1.049,2.5-1.577,1.612-1.075,2.435-1.594c1.265-.815,2.556-1.612,3.822-2.435.867-.529,1.646-1.092,2.47-1.62l4.333-2.756,3.215-2.062c1.17-.754,2.348-1.5,3.51-2.27.451-.295.927-.477.927-1.239q-.052-16.092,0-32.184V8.889a.448.448,0,0,0-.433-.425,26.776,26.776,0,0,1-3.024-.581c-1.023-.217-2.028-.477-3.033-.719-.529-.121-1.066-.234-1.594-.364l-2.686-.667L43.026,5.068c-.867-.217-1.733-.451-2.669-.615-.537-.1-1.049-.269-1.586-.381-.988-.2-1.976-.52-2.964-.711s-1.733-.468-2.6-.6a5.586,5.586,0,0,0-2.478-.286c-.919.243-1.889.442-2.825.667s-1.958.442-2.92.7a24.324,24.324,0,0,1-2.747.641,9.342,9.342,0,0,0-1.2.277c-.867.26-1.785.468-2.678.693-1.118.277-2.253.529-3.38.8a11.5,11.5,0,0,1-1.412.329,14.1,14.1,0,0,0-1.733.4,6.4,6.4,0,0,0-1.031.208,15.641,15.641,0,0,1-1.976.485c-.529.139-1.057.243-1.586.364a16.465,16.465,0,0,1-1.82.459c-.685.078-.685.061-.685.719Z" transform="translate(-3.04 -0.63)" fill="#3d0277"/>
    <path id="Path_15303" data-name="Path 15303" d="M5,25.824V9.49c0-.659,0-.641.65-.719a16.465,16.465,0,0,0,1.82-.459C8,8.19,8.527,8.086,9.055,7.947a15.641,15.641,0,0,0,2.01-.485,6.4,6.4,0,0,1,1.066-.173,14.1,14.1,0,0,1,1.733-.4,11.5,11.5,0,0,0,1.412-.329c1.127-.269,2.262-.52,3.38-.8.867-.225,1.794-.433,2.678-.693a9.341,9.341,0,0,1,1.2-.277,24.324,24.324,0,0,0,2.747-.641c.962-.26,1.95-.459,2.92-.7S30.13,3,31,2.748a5.6,5.6,0,0,1,2.478.286c.823.121,1.733.433,2.6.6s1.976.511,2.964.711c.537.113,1.049.277,1.586.381.867.165,1.785.4,2.669.615L47.5,6.361l2.686.667c.529.13,1.066.243,1.594.364,1.005.243,2.01.5,3.033.719a26.777,26.777,0,0,0,2.972.667.386.386,0,0,1,.433.425c.009.277,0,.373,0,.563V41.951c0,.763-.477.945-.927,1.239-1.161.771-2.34,1.516-3.51,2.27l-3.215,2.062L46.24,50.279c-.867.529-1.638,1.092-2.47,1.62-1.265.867-2.556,1.62-3.822,2.435-.867.52-1.62,1.066-2.435,1.594s-1.672,1.04-2.5,1.577S33.1,58.745,32.141,59.36a.771.771,0,0,1-1.023,0c-.867-.65-1.872-1.2-2.816-1.8l-1.231-.875c-.667-.433-1.335-.867-2.01-1.3l-2.6-1.646c-1.257-.8-2.513-1.586-3.752-2.4-1.672-1.083-3.4-2.132-5.043-3.232-1.161-.754-2.348-1.482-3.527-2.218L6.17,43.416c-.078-.052-.121-.182-.208-.2C4.948,42.956,5,42.2,5,41.371V25.824Zm1.586.139h0V40.825c0,.745.1,1.3.867,1.525a.494.494,0,0,1,.139.1c.754.494,1.49,1.023,2.253,1.482,1.283.763,2.487,1.62,3.761,2.383,1.508.867,2.964,1.889,4.445,2.842s2.8,1.733,4.194,2.678l4.419,2.808c1.456.936,2.9,1.88,4.385,2.79.234.139.468.494.867.312a11.365,11.365,0,0,0,.979-.6c1.031-.667,2.054-1.361,3.094-2.028s2.218-1.4,3.328-2.106c.815-.52,1.62-1.075,2.444-1.594,1.248-.8,2.53-1.56,3.778-2.374s2.409-1.586,3.631-2.366l4.575-2.929,2.686-1.733a.711.711,0,0,0,.338-.685q0-12.037,0-24.064V10.478c0-.234,0-.347-.321-.442-.485-.173-.979-.208-1.464-.338-.867-.217-1.681-.477-2.539-.615-.711-.121-1.387-.347-2.08-.511s-1.681-.416-2.487-.555c-1.066-.225-2.149-.546-3.18-.728-.676-.1-1.317-.321-1.967-.468s-1.508-.312-2.2-.546c-.442-.139-.91-.121-1.343-.251s-1.127-.329-1.664-.468c-1.3-.347-2.6-.581-3.926-.919a6.933,6.933,0,0,1-1.2-.286,1.794,1.794,0,0,0-1.257-.061q-2,.494-4,.962c-1.335.3-2.626.581-3.934.91s-2.756.633-4.125.979c-.459.121-.936.191-1.378.338-.927.329-1.906.425-2.842.711a15.85,15.85,0,0,1-2.236.529c-.65.1-1.3.243-1.932.39-1.066.26-2.123.572-3.206.771-.867.165-.867.2-.867,1.049V25.963Z" transform="translate(-3.307 -0.901)" fill="#eef15e"/>
    <path id="Path_15304" data-name="Path 15304" d="M6.84,26.193V11.158c0-.867,0-.867.867-1.049,1.083-.2,2.14-.511,3.206-.771.633-.147,1.283-.295,1.932-.39A15.85,15.85,0,0,0,15.1,8.385c.936-.286,1.915-.381,2.842-.711.442-.147.919-.217,1.378-.338,1.369-.347,2.756-.633,4.125-.979s2.6-.607,3.934-.919,2.669-.633,4-.962a1.794,1.794,0,0,1,1.257.061,6.933,6.933,0,0,0,1.2.321c1.3.338,2.6.572,3.926.919.537.147,1.083.321,1.62.477s.867.113,1.343.251c.737.234,1.49.381,2.244.555s1.265.364,1.967.459c1.066.173,2.114.494,3.18.719.806.165,1.612.4,2.418.581s1.369.39,2.08.511c.867.139,1.69.4,2.539.615.485.13.979.165,1.464.338.277.1.321.208.321.442v30.85a.711.711,0,0,1-.338.685L53.92,43.992l-4.575,2.929c-1.222.78-2.426,1.568-3.631,2.366s-2.53,1.56-3.778,2.357c-.867.52-1.629,1.075-2.444,1.594-1.109.711-2.227,1.4-3.328,2.106S34.1,56.7,33.071,57.372a11.368,11.368,0,0,1-.979.6c-.364.182-.6-.173-.867-.312-1.482-.867-2.929-1.854-4.385-2.79L22.5,52.06c-1.4-.867-2.8-1.785-4.194-2.678s-2.938-1.941-4.445-2.868c-1.274-.763-2.478-1.62-3.761-2.383-.763-.459-1.5-.988-2.253-1.482a.494.494,0,0,0-.139-.1c-.789-.225-.867-.78-.867-1.525V26.167ZM43.582,10.473c.13-.043.121-.113,0-.191a.4.4,0,0,0-.052-.26,1.118,1.118,0,0,0-.789-.659,3.622,3.622,0,0,0-1.525,0,1.118,1.118,0,0,0-.165,0,2.236,2.236,0,0,0-1.127,1.854,2.392,2.392,0,0,0,.312,1.5c.771,1.309,2.149,1.075,3.128.563a.52.52,0,0,0,.355-.451,4.073,4.073,0,0,0-.061-1.075c.087-.581,0-.65-.451-.52a1.343,1.343,0,0,0-.693,0c-.173,0-.416-.1-.485.113a.728.728,0,0,0,0,.615c.087.139.251.1.381,0,.147.13.4.26.156.468a.867.867,0,0,1-.867.113.641.641,0,0,1-.451-.615c0-.286,0-.581,0-.867a.641.641,0,0,1,.39-.7.65.65,0,0,1,.763.121.581.581,0,0,0,.771.121.243.243,0,0,0,.217,0c.087.061.139,0,.173-.061h0ZM27.118,50.543a.147.147,0,0,0,0-.191c.182-.485-.078-1.014.1-1.49.121,0,.147.087.191.147.321.511.633,1.014.962,1.516a1.3,1.3,0,0,0,1.335.139.26.26,0,0,0,.087-.234c-.078-1.187,0-2.374,0-3.57,0-.234-.147-.329-.338-.381a.867.867,0,0,0-.867.173.355.355,0,0,0,0,.347.867.867,0,0,0-.069.5v.815c0,.087,0,.173-.121.2s-.1,0-.121-.1a8.2,8.2,0,0,0-.685-1.239c-.4-.719-.39-.728-1.239-.641-.208-.113-.251,0-.251.182s-.061.3-.069.451a29.326,29.326,0,0,1-.078,3.267.306.306,0,0,0,.3.338.953.953,0,0,0,.468,0h.121c.208.069.321.009.295-.234Zm5.2-12.271c.113.173.191.1.26,0l.312-.312h.078c1.508-1.568,3.189-2.981,4.558-4.679.113-.147.295-.173.407-.312s.13,0,.182,0a.121.121,0,0,1,0,.191,8.4,8.4,0,0,0-.867,1.005c-1.231,1.343-2.374,2.764-3.466,4.186l-.1.121c-.1,0-.156.087-.139.2a.442.442,0,0,0-.26.225c-.165.069-.217.208-.1.329s.165,0,.208-.1.338,0,.485-.069a4.125,4.125,0,0,0,1.179-.442A17.852,17.852,0,0,0,38.522,36.5a34.039,34.039,0,0,0,4.056-3.683,25.555,25.555,0,0,0,2.912-3.631c.312-.2.338-.39,0-.581a.312.312,0,0,0,0-.078c-1.231-1.187-2.6-2.262-3.787-3.466-.191-.2-.338-.1-.52.043-.572.477-1.075,1.031-1.594,1.56a37.158,37.158,0,0,0-3.839,4.4,34.543,34.543,0,0,0-1.906,3,21.275,21.275,0,0,0-1.2,2.7,2.08,2.08,0,0,0-.26,1.2.251.251,0,0,0-.035.321Zm2.019-10.1a.217.217,0,0,0,.2.251c.1,0,.165,0,.147-.13l.546-.754a1.265,1.265,0,0,0,.52-.711c0-.277-.347-.295-.485-.494a.3.3,0,0,0-.087-.1l-3.068-2.8c-.139-.121-.269-.165-.416-.043l-1.161.953c-.165.13-.2.234,0,.407.78.676,1.534,1.378,2.314,2.054a11.378,11.378,0,0,0,1.421,1.239c-.009.078.035.1.1.121Zm14.515-8.1a.468.468,0,0,0,.572-.061.165.165,0,0,0-.043-.277v-.3a.326.326,0,0,0,.052-.121V16.167c0-.433-.425-.321-.667-.364a.373.373,0,0,0-.477.373c0,.416,0,.867,0,1.248,0,.121,0,.3-.121.329s-.217-.139-.277-.269c-.121-.269-.156-.589-.442-.763a1.317,1.317,0,0,0-.546-.815c0-.1-.069-.13-.139,0a.251.251,0,0,0-.3,0c-.381-.069-.546.069-.555.5s0,.945,0,1.421v1.976c0,.1-.13.381.2.269a.646.646,0,0,0,.537,0c0,.061,0,.121.087.121s.113-.061.1-.139l.069-.078c.1,0,.1-.113.121-.191a3.466,3.466,0,0,0,0-1.2c0-.087-.061-.217.078-.251s.182.052.243.13a1.941,1.941,0,0,1,.113.234,3.579,3.579,0,0,0,.728,1.135h0c.043.416.3.277.537.208ZM21.953,13.5h0c.295-.3.1-.685.173-1.031,0-.182-.156-.451.121-.52s.347.243.459.433,0,.208.061.286c.2.373.286.867.867.91h.693c.234,0,.286-.1.191-.3a10.633,10.633,0,0,0-.485-1.066c-.139-.217-.459-.477-.1-.78a1.2,1.2,0,0,0,.373-.953,1.014,1.014,0,0,0-1.135-1.153,13.1,13.1,0,0,0-1.88-.069c-.243,0-.355.121-.347.373v2.331a2.851,2.851,0,0,0,0,.867,1.283,1.283,0,0,0,0,.572c0,.191.1.217.277.113h.529C21.866,13.636,21.918,13.628,21.953,13.5Zm12.132-4.16-.052.061v.113a33.084,33.084,0,0,0-.052,3.822c0,.165.1.234.251.234h.477c.364,0,.52-.113.511-.494V9.754c0-.13.061-.295-.121-.381a1.456,1.456,0,0,0-1.005-.035Zm-5.858,9.8a.4.4,0,0,0-.39-.061,3.042,3.042,0,0,0-.971,0c-.26,0-.381-.078-.4-.321s.1-.355.355-.347.511,0,.763,0c.546,0,.572,0,.607-.485s-.269-.442-.572-.442a2.469,2.469,0,0,0-.251,0,1,1,0,0,0-.555,0c-.217,0-.416,0-.407-.3s.2-.277.4-.277h1.161c.407,0,.364-.251.373-.52s0-.5-.373-.5H25.679c-.217,0-.416.069-.416.329,0,1.135-.069,2.27,0,3.406,0,.251-.1.555.338.468a8.986,8.986,0,0,0,2.158,0c.347.121.477.069.52-.225S28.443,19.347,28.227,19.139Zm7.591,31.517c.225-.173.121-.416.1-.624a2.7,2.7,0,0,1,0-.381,22.531,22.531,0,0,0,.052-2.756c0-.312-.121-.451-.433-.425h-.39c-.364,0-.5.208-.485.563V50.4c0,.156,0,.312.173.347a1.317,1.317,0,0,0,.945,0ZM20.376,39.989a5.121,5.121,0,0,0,.433-1.4,5.667,5.667,0,0,0-1.2,1.2c-.962.867-1.837,1.846-2.73,2.79-.191.208-.052.381.1.52a2.686,2.686,0,0,0,.433.269c.277.416.373.433.589.069.65-.624,1.17-1.361,1.785-2a2.158,2.158,0,0,0,.589-1.456ZM31.563,39.3c-.416.4-.867.771-1.239,1.187-.633.685-1.213,1.412-1.915,2.036a.373.373,0,0,0,0,.641c.173.121.329.26.494.39a.377.377,0,0,0,.563-.069c.451-.537.867-1.075,1.378-1.586a3.57,3.57,0,0,0,1.092-2.244c.1-.234.225-.459.312-.693s.078-.277-.069-.338-.147.1-.2.173-.347.277-.416.5ZM15.254,20.075c.225.26.364.13.468-.1a1.352,1.352,0,0,0,0-.719c-.069-.815-.052-.867.745-.823h.3c.355,0,.329-.243.329-.468s0-.485-.321-.485h-.823a.269.269,0,0,1-.286-.208.321.321,0,0,1,.139-.338,1.369,1.369,0,0,1,.321-.1h.685c.225,0,.416.069.459-.182s.182-.529-.13-.719v-.069h-2.3c-.13,0-.442,0-.338.329a.182.182,0,0,0,0,.2c-.121,1.17,0,2.357-.043,3.536,0,.087,0,.243.191.156ZM33.6,19.8c.234-.364.572-.355.936-.321s.494.043.5.39c0,.156.113.217.26.225h.78c.191,0,.277-.13.2-.286a4.74,4.74,0,0,1-.286-.867c-.225-.8-.572-1.551-.719-2.366a1.057,1.057,0,0,0-1.5-.633.225.225,0,0,0-.13.147L32.6,19.434c-.078.13.121.381-.147.416s-.147-.217-.217-.329a2.305,2.305,0,0,0-.416-.823c-.4-.338-.2-.477.061-.737a1.057,1.057,0,0,0,.381-1.075,1.283,1.283,0,0,0-1.023-.979,17.332,17.332,0,0,0-1.9-.078.425.425,0,0,0-.468.451q0,1.118,0,2.236a4.584,4.584,0,0,0,.061,1.239c0,.667.52.243.8.321s.39-.139.329-.407a2.019,2.019,0,0,0,.052-.867c0-.139,0-.277.147-.312s.2.078.251.182a6.066,6.066,0,0,1,.416.979c.139.442.381.581.806.451h1.525a.3.3,0,0,0,.338-.3Zm2.938,30.286c-.26.659-.26.659.442.65a2.748,2.748,0,0,0,.381,0c.147,0,.295-.069.243-.269a.364.364,0,0,1,.485-.321,1.2,1.2,0,0,0,.555,0c.321-.13.433,0,.451.286s.173.364.416.364a1.456,1.456,0,0,0,.546,0c.286.052.459,0,.277-.338a4.924,4.924,0,0,1-.3-1.023c-.208-.693-.52-1.343-.693-2.054-.139-.581-.338-.771-.789-.763-.867,0-.867,0-1.1.867a1.343,1.343,0,0,1-.069.2,25.433,25.433,0,0,0-.841,2.4ZM37,13.038c.1-.5-.147-1.014,0-1.525a.867.867,0,0,1,.451.485c.2.4.477.763.676,1.153s.589.407.971.4c.225,0,.329-.113.329-.347,0-1.17,0-2.331-.061-3.466.1-.121.173-.277,0-.364a1.421,1.421,0,0,0-.91,0c-.156,0-.191.156-.1.295h0a2.816,2.816,0,0,0-.1,1.109c0,.13.061.329-.1.373s-.269-.139-.329-.269a8.9,8.9,0,0,0-.789-1.248.243.243,0,0,0-.234-.286c-.867-.113-.971-.061-.927.867a.26.26,0,0,0,0,.087,13.717,13.717,0,0,0,0,2.6c-.052.676-.052.667.624.676.433.009.615-.147.511-.537ZM20.324,18.316c.208.1.312.061.329-.2.052-.711,0-.737-.667-.676a1.777,1.777,0,0,0-.607,0c-.173,0-.373,0-.373-.234s.13-.329.364-.321H20.5c.373,0,.39-.269.407-.546s-.069-.5-.425-.5H18.365c-.407,0-.563.156-.563.563V19.59c0,.529,0,.581.563.572a11.629,11.629,0,0,1,2.054.069c.338.052.572-.069.529-.477a1.672,1.672,0,0,1,0-.295c0-.277-.1-.4-.381-.381s-.771,0-1.161,0c-.251,0-.407-.069-.381-.338s.13-.39.433-.329a1.352,1.352,0,0,0,.867-.1Zm22.8,5.2a3.544,3.544,0,0,0-.988.8c-.286.234-.26.329,0,.546,1.057.945,2.1,1.906,3.154,2.851.173.156.312.381.572.433.243.321.3.3.563-.147.364-.26.5-.7.806-1.023.087-.087,0-.208-.078-.321-1.057-.936-2.045-1.8-3.085-2.73-.156-.139-.269-.373-.529-.381-.121-.2-.251-.286-.416-.052Zm-21.465-7.6c-.13,0-.156.13-.156.243s-.087.052-.087.087c0,1.213.078,2.426,0,3.648a.251.251,0,0,0,.338.26,7.634,7.634,0,0,1,1.335,0c.191,0,.373.173.572,0,.607-.425,1.213-.867,1.135-1.733V17.389a1.335,1.335,0,0,0-.139-.624,1.62,1.62,0,0,0-1.066-.867,8.224,8.224,0,0,0-1.88-.087A.135.135,0,0,1,21.658,15.915Zm8.882,30.642a.52.52,0,0,0-.052.546.607.607,0,0,0-.052.165v3.189c0,.277.165.329.4.329h1.8a1.56,1.56,0,0,0,1.283-.919,3.371,3.371,0,0,0,0-2.3,1.144,1.144,0,0,0-.477-.65,4.333,4.333,0,0,0-2.9-.364Zm-.1-36.734c-.295.4-.147.971-.494,1.369a9.741,9.741,0,0,0-.26-1.672c-.191-.442-.572-.208-.867-.225s-.364.165-.234.416c.165.442.147.927.269,1.378.173.667.251,1.352.364,2.019s.52.433.867.468.477-.251.546-.5c.13-.468.208-.953.3-1.43a.383.383,0,0,1,.139-.364c.139.1.113.225.13.329.078.555.277,1.083.4,1.62s.416.347.711.355a.544.544,0,0,0,.641-.425,6.977,6.977,0,0,1,.208-1.4c.251-.65.2-1.343.4-1.993.052-.156.139-.355,0-.442a1.317,1.317,0,0,0-.8,0c-.243,0-.243.243-.251.433a2.366,2.366,0,0,0-.208,1.222c0,.1,0,.26-.13.269s-.173-.156-.165-.26a2.279,2.279,0,0,0-.295-1.187c.139-.321,0-.485-.312-.511h-.425c-.381-.043-.607.113-.537.529ZM21.424,37.909c.572-.485,1.1-1.031,1.629-1.568.945-.979,1.958-1.88,2.9-2.868.26-.269.468-.641.91-.754a.555.555,0,0,1-.182.39c-.277.329-.563.65-.867.971q-1.131,1.3-2.184,2.6c-.5.633-1.1,1.2-1.551,1.88-.173.191-.459.321-.381.641l.745-.208a.182.182,0,0,0,.208,0,22.9,22.9,0,0,0,2.686-1.352A19.445,19.445,0,0,0,27.074,36.5a35.858,35.858,0,0,0,3.692-3.38A45.858,45.858,0,0,0,34.1,29.183a.416.416,0,0,0-.052-.659c-.65-.572-1.283-1.153-1.924-1.733s-1.161-1.005-1.75-1.49c-.321-.26-.425-.39-.78-.078a41.4,41.4,0,0,0-3.813,3.96,23.735,23.735,0,0,0-4.177,6.551,6.2,6.2,0,0,0-.615,1.915c0,.208-.208.468,0,.6S21.26,38,21.424,37.909Zm3.284-26.543v.815c0,.269.165.277.182.433.139.962,1.837,1.179,2.478.867a2.478,2.478,0,0,0,1.031-2.8,1.906,1.906,0,0,0-2.825-1.257.867.867,0,0,0-.338.225,2,2,0,0,0-.529,1.716Zm20.754,6.69c.165-.381-.1-.737-.2-1.109a1.811,1.811,0,0,0-2.314-1.066,1.924,1.924,0,0,0-1.257,1.62,2.435,2.435,0,0,0,.867,2.409,1.82,1.82,0,0,0,1.984.078,2.045,2.045,0,0,0,.919-1.932Zm-8.293.52h0v.78c0,.91-.121.745.867.78.26,0,.355-.113.347-.364V17.614c0-.719.069-.728.728-.607.173,0,.416,0,.39-.121-.043-.3.147-.641-.1-.919-.061-.078-.1-.139-.225-.13H36.5c-.225,0-.425.1-.407.277s-.087.607.156.867c0,.043.139,0,.208,0a1.447,1.447,0,0,0,.338,0c.347-.087.442.1.442.39Zm-11.915,30.1h0V47.294c0-.26.069-.555-.087-.754s-.4,0-.615-.052c-.468-.069-.589.052-.589.529V49.85c-.061,1.083.052.867.867.919.3,0,.4-.13.39-.425C25.246,49.789,25.254,49.226,25.254,48.672ZM39.908,17.978h0v1.733c0,.139,0,.295.147.373a.693.693,0,0,0,1.075-.624c0-1.049,0-2.106,0-3.154,0-.468-.321-.416-.624-.442s-.581,0-.581.433Z" transform="translate(-3.553 -1.131)" fill="#3d0277"/>
    <path id="Path_15305" data-name="Path 15305" d="M37.717,41.481c1.127-1.421,2.27-2.842,3.466-4.186a8.4,8.4,0,0,1,.867-1.005.121.121,0,0,0,0-.191c-.052-.061-.121-.1-.182,0s-.295.165-.407.312c-1.369,1.733-3.05,3.111-4.558,4.679h-.078c-.026,0,0-.087,0-.13s.139-.217-.043-.286-.173.1-.243.165-.1.243-.26.277a2.08,2.08,0,0,1,.26-1.2,21.275,21.275,0,0,1,1.231-2.7,34.541,34.541,0,0,1,1.863-3,37.159,37.159,0,0,1,3.839-4.4c.52-.529,1.023-1.083,1.594-1.56.182-.147.329-.243.52-.043,1.2,1.231,2.556,2.305,3.787,3.466a.312.312,0,0,1,0,.078c-.286.2-.277.416,0,.581a25.554,25.554,0,0,1-2.912,3.57,34.038,34.038,0,0,1-4.012,3.709,17.852,17.852,0,0,1-3.466,2.114,4.125,4.125,0,0,1-1.179.442,1.387,1.387,0,0,1,.113-.433C38.159,41.4,37.917,41.464,37.717,41.481Z" transform="translate(-7.48 -4.296)" fill="#eef15e"/>
    <path id="Path_15306" data-name="Path 15306" d="M24.282,41.752c.451-.676,1.049-1.248,1.551-1.88q1.053-1.3,2.184-2.6l.867-.971c.087-.1.208-.2.182-.39-.442.113-.65.485-.91.754-.945.988-1.958,1.889-2.9,2.868-.529.537-1.057,1.083-1.629,1.568.069-.407-.217-.295-.433-.295a6.2,6.2,0,0,1,.615-1.915,23.735,23.735,0,0,1,4.16-6.525,41.4,41.4,0,0,1,3.778-3.926c.355-.312.459-.182.78.078.624.485,1.2,1.014,1.785,1.534s1.274,1.153,1.924,1.733a.416.416,0,0,1,.052.659,45.858,45.858,0,0,1-3.31,3.908,35.858,35.858,0,0,1-3.692,3.38,19.445,19.445,0,0,1-1.733,1.144,22.9,22.9,0,0,1-2.686,1.352.182.182,0,0,1-.208,0C24.594,41.978,24.672,41.674,24.282,41.752Z" transform="translate(-5.734 -4.316)" fill="#eef15e"/>
    <path id="Path_15307" data-name="Path 15307" d="M33.042,10.31a9.741,9.741,0,0,1,.26,1.672c.347-.4.2-.971.494-1.369a1.283,1.283,0,0,1,1.239,0h0a2.279,2.279,0,0,1,.329,1.161c0,.1,0,.269.165.26s.13-.165.13-.269a2.366,2.366,0,0,1,.2-1.248c.347.173.711-.1,1.066,0-.2.65-.147,1.343-.4,1.993-.165.425-.078.936-.208,1.4s-.329.425-.641.425-.607.087-.711-.355-.321-1.066-.4-1.62a.358.358,0,0,0-.13-.329c-.139.087-.113.243-.139.364-.1.477-.173.962-.3,1.43-.069.251-.173.537-.546.5s-.763.147-.867-.468-.191-1.352-.364-2.019c-.121-.451-.1-.936-.269-1.378Z" transform="translate(-6.903 -1.921)" fill="#eef15e"/>
    <path id="Path_15308" data-name="Path 15308" d="M29.325,52.978c.867-.087.867-.078,1.239.641a8.2,8.2,0,0,1,.685,1.239.1.1,0,0,0,.121.1c.069-.009.121-.113.121-.2V53.94a.867.867,0,0,1,.069-.5c.295.173.555-.1.867-.052.1,0,.217,0,.208-.156s-.121-.165-.217-.173a1.5,1.5,0,0,0-.806,0,.867.867,0,0,1,.867-.173c.191.052.338.147.338.381v3.57a.26.26,0,0,1-.087.234,1.3,1.3,0,0,1-1.335-.139c-.329-.5-.641-1.005-.962-1.516-.043-.061-.069-.13-.191-.147-.182.477.078,1.005-.1,1.49-.208-.3,0-.65-.173-.971.173.5-.251.867-.225,1.361a.953.953,0,0,1-.468,0,.282.282,0,0,1-.3-.338A29.325,29.325,0,0,0,29,53.636c0-.147-.061-.312.069-.451.1.061,0,.39.243.251.13-.052.243-.173.061-.329A.436.436,0,0,1,29.325,52.978Z" transform="translate(-6.505 -7.595)" fill="#eef15e"/>
    <path id="Path_15309" data-name="Path 15309" d="M34.169,53.033a4.333,4.333,0,0,1,2.868.329,1.144,1.144,0,0,1,.477.65,3.371,3.371,0,0,1,0,2.3,1.56,1.56,0,0,1-1.283.919h-1.8c-.234,0-.4-.052-.4-.329V53.709a.607.607,0,0,1,.052-.165.364.364,0,0,0,.407-.329C34.533,53.085,34.3,53.094,34.169,53.033Zm1.2,2h0v.945c0,.139,0,.347.225.295a.945.945,0,0,0,.667-.347,1.456,1.456,0,0,0-.529-1.9c-.243-.1-.39-.087-.373.234s.009.511.009.771Z" transform="translate(-7.181 -7.607)" fill="#eef15e"/>
    <path id="Path_15310" data-name="Path 15310" d="M23.888,17.673v-.1a8.224,8.224,0,0,1,1.837.121,1.62,1.62,0,0,1,1.066.867,1.335,1.335,0,0,1,.139.624c0,.338,0,.685,0,1.031.078.867-.529,1.3-1.135,1.733-.2.139-.381,0-.572,0a7.635,7.635,0,0,0-1.335,0,.251.251,0,0,1-.338-.26c.1-1.222,0-2.435,0-3.648l.087-.087c0,.139.113.269.269.139s.321-.069.3-.243-.2-.121-.329-.139Zm.988,2.088h0v.347a2.938,2.938,0,0,1,0,.39.217.217,0,0,0,.147.269.615.615,0,0,0,.806-.364,3.258,3.258,0,0,0,0-1.326c-.1-.355-.4-.39-.693-.347s-.225.312-.217.52S24.867,19.588,24.876,19.761Z" transform="translate(-5.782 -2.888)" fill="#eef15e"/>
    <path id="Path_15311" data-name="Path 15311" d="M27.455,12.1a2,2,0,0,1,.529-1.733.867.867,0,0,1,.338-.225A1.906,1.906,0,0,1,31.147,11.4a2.478,2.478,0,0,1-1.031,2.8c-.641.3-2.34.087-2.478-.867,0-.156-.182-.26-.182-.433Zm2.513.1a4.445,4.445,0,0,0-.043-.563.545.545,0,0,0-.485-.581.633.633,0,0,0-.728.373,1.811,1.811,0,0,0-.1,1.257c.061.234.165.555.537.581a.693.693,0,0,0,.719-.355c.13-.217.069-.451.1-.711Z" transform="translate(-6.299 -1.864)" fill="#eef15e"/>
    <path id="Path_15312" data-name="Path 15312" d="M35.123,21.831c-.425.13-.667,0-.806-.451a6.066,6.066,0,0,0-.442-.927c-.052-.1-.113-.217-.251-.182s-.147.173-.147.312a1.967,1.967,0,0,1-.052.867,4.948,4.948,0,0,1-1.127.1,4.584,4.584,0,0,1-.061-1.239V18.07a.425.425,0,0,1,.468-.451,17.331,17.331,0,0,1,1.9.078,1.283,1.283,0,0,1,1.04.962,1.057,1.057,0,0,1-.373,1.023c-.26.26-.459.4-.061.737a2.305,2.305,0,0,1,.416.823c-.251.043-.4.251-.6.39S35.114,21.753,35.123,21.831Zm-1.179-3.137c-.165,0-.442-.147-.425.225,0,.182,0,.4.286.364s.546,0,.546-.39S34.092,18.738,33.944,18.694Z" transform="translate(-6.939 -2.896)" fill="#eef15e"/>
    <path id="Path_15313" data-name="Path 15313" d="M53.473,18.476c.286.173.321.494.442.763.061.13.121.3.277.269s.121-.208.121-.329V17.93a.373.373,0,0,1,.477-.373c.243.043.659-.069.667.364v3.137a.174.174,0,0,1-.052.121.208.208,0,0,0-.286.113c-.165.295-.355.39-.659.156-.147-.113-.191,0-.208.147a3.579,3.579,0,0,1-.728-1.135,1.942,1.942,0,0,0-.113-.234c-.061-.078-.13-.173-.243-.13s-.087.165-.078.251a3.466,3.466,0,0,1,0,1.2c0,.078,0,.173-.121.191.052-.537-.6-.182-.693-.546a.62.62,0,0,0-.121.147.5.5,0,0,0,0,.459c-.329.113-.2-.165-.2-.269v-3.4c0-.477.173-.572.555-.5-.156.069-.329.121-.364.312s0,.147,0,.2.13,0,.191,0c.451-.234.607-.2.867.225C53.282,18.45,53.325,18.554,53.473,18.476Z" transform="translate(-9.569 -2.886)" fill="#eef15e"/>
    <path id="Path_15314" data-name="Path 15314" d="M37.9,30.962a11.378,11.378,0,0,1-1.421-1.239c-.78-.676-1.534-1.378-2.314-2.054-.2-.173-.165-.277,0-.407l1.161-.953c.147-.121.277-.078.416.043l3.094,2.8a.3.3,0,0,1,.087.1c.139.2.529.217.485.494a1.265,1.265,0,0,1-.52.711c0-.052-.087-.13-.113-.1C38.562,30.668,38.181,30.728,37.9,30.962Zm1.135-.867c.1-.225.321-.277.234-.468a.2.2,0,0,0-.3-.061c-.147.165.017.3.069.555Z" transform="translate(-7.181 -4.046)" fill="#eef15e"/>
    <path id="Path_15315" data-name="Path 15315" d="M50.813,19.808a2.045,2.045,0,0,1-.953,1.932,1.82,1.82,0,0,1-2-.078,2.435,2.435,0,0,1-.867-2.409,1.924,1.924,0,0,1,1.257-1.62A1.811,1.811,0,0,1,50.562,18.7C50.718,19.072,50.978,19.427,50.813,19.808Zm-2.6.061v.373a.624.624,0,0,0,.572.641.641.641,0,0,0,.7-.494,2.106,2.106,0,0,0,0-1.265.711.711,0,0,0-.494-.494.581.581,0,0,0-.624.277,1.421,1.421,0,0,0-.147.962Z" transform="translate(-8.903 -2.883)" fill="#eef15e"/>
    <path id="Path_15316" data-name="Path 15316" d="M48.941,26.485c.26,0,.373.243.529.381,1.04.927,2.028,1.794,3.059,2.7.121.113.165.234.078.321-.3.321-.442.763-.806,1.023-.251-.2-.451-.2-.563.147-.26-.052-.4-.277-.572-.433-1.023-.945-2.1-1.906-3.154-2.834-.234-.217-.26-.312,0-.546a3.544,3.544,0,0,1,.988-.8C48.647,26.7,48.777,26.71,48.941,26.485Z" transform="translate(-8.955 -4.074)" fill="#eef15e"/>
    <path id="Path_15317" data-name="Path 15317" d="M22.012,20.074a1.352,1.352,0,0,1-.867.069c-.3-.061-.407.1-.433.329s.13.347.381.338h1.161c.381,0,.4.1.381.381a1.672,1.672,0,0,0,0,.295c0,.407-.191.529-.529.477a11.629,11.629,0,0,0-2.054-.069c-.546,0-.572-.043-.563-.572V18.133c0-.407.156-.572.563-.563h2.114c.355,0,.442.208.425.5s0,.572-.407.546-.754,0-1.127,0c-.234,0-.364.1-.364.321s.2.234.373.234a1.733,1.733,0,0,1,.6,0c-.078.269.407.243.269.442S21.977,19.936,22.012,20.074Z" transform="translate(-5.24 -2.89)" fill="#eef15e"/>
    <path id="Path_15318" data-name="Path 15318" d="M23.125,13.6a2.851,2.851,0,0,1,0-.867c.286,0,.2-.182.2-.3V10.789c0-.338.147-.546.529-.511a2.5,2.5,0,0,1,.511,0c.3.1.589-.069.867,0,.156,0,.052-.113,0-.182a1.014,1.014,0,0,1,1.248,1.144,1.2,1.2,0,0,1-.373.953c-.355.3,0,.563.1.78a10.633,10.633,0,0,1,.485,1.066c.1.2,0,.3-.191.3h-.693c-.546-.043-.633-.537-.867-.91a.491.491,0,0,0-.061-.286c-.061-.078-.165-.5-.459-.433s-.087.338-.121.52c-.069.347.121.728-.173,1.031,0-.121,0-.3-.2-.225a.4.4,0,0,1-.537-.251A.243.243,0,0,0,23.125,13.6Zm1.62-1.854c.191-.069.537,0,.537-.373s-.251-.321-.485-.329-.52,0-.529.355S24.442,11.742,24.745,11.742Z" transform="translate(-5.721 -1.888)" fill="#eef15e"/>
    <path id="Path_15319" data-name="Path 15319" d="M48.757,12.478a4.073,4.073,0,0,1,.061,1.075.52.52,0,0,1-.355.451c-.979.511-2.357.745-3.128-.563a2.392,2.392,0,0,1-.277-1.456,2.236,2.236,0,0,1,1.127-1.854,1.118,1.118,0,0,1,.165,0c0,.165.078.191.208.191h1.1c.1,0,.2,0,.217-.156a1.118,1.118,0,0,1,.789.659c-.433.069-.546.234-.4.563a.581.581,0,0,1-.771-.121.65.65,0,0,0-.763-.121.641.641,0,0,0-.39.7c0,.277,0,.572,0,.867a.641.641,0,0,0,.451.615.867.867,0,0,0,.867-.113c.243-.208,0-.338-.147-.468a2.781,2.781,0,0,1,.069-.754,1.309,1.309,0,0,1,.685,0c-.069.321.208.511.243.867Z" transform="translate(-8.649 -1.896)" fill="#eef15e"/>
    <path id="Path_15320" data-name="Path 15320" d="M43.862,10.507c.087,1.161.078,2.322.061,3.466,0,.234-.1.347-.329.347-.381,0-.737.069-.971-.4s-.477-.754-.676-1.153a.867.867,0,0,0-.451-.485c-.173.511.069,1.023,0,1.525a1.237,1.237,0,0,1-.936-.2h-.13a13.718,13.718,0,0,1,0-2.6c.2.069.217-.052.26-.217.1-.4.329-.511.711-.338.13.052.139,0,.173-.1a8.9,8.9,0,0,1,.789,1.248c.061.13.165.321.329.269s.1-.243.1-.373a2.756,2.756,0,0,1,.1-1.1,6.066,6.066,0,0,0,.962.1Z" transform="translate(-8.026 -1.928)" fill="#eef15e"/>
    <path id="Path_15321" data-name="Path 15321" d="M44.628,57.2a1.456,1.456,0,0,1-.546,0c-.243,0-.407-.069-.416-.364s-.13-.416-.451-.286a1.2,1.2,0,0,1-.555,0,.364.364,0,0,0-.485.321c-.373-.078-.867.1-1.066-.364a25.434,25.434,0,0,1,.867-2.444,1.343,1.343,0,0,0,.069-.2C42.28,53,42.28,53,43.146,53c.451,0,.65.182.789.763.173.711.485,1.361.693,2.054.1.347.2.685.3,1.023C44.663,56.856,44.481,56.917,44.628,57.2Zm-1.508-2.47c0-.1,0-.225-.1-.251a.209.209,0,0,0-.234.191,1.964,1.964,0,0,1-.087.546c-.087.182-.156.243,0,.364s.225.121.347,0a.347.347,0,0,0,.13-.416C43.146,55.036,42.964,54.906,43.12,54.733Z" transform="translate(-8.125 -7.617)" fill="#eef15e"/>
    <path id="Path_15322" data-name="Path 15322" d="M36.57,21.174l1.04-3.345a.225.225,0,0,1,.13-.147,1.057,1.057,0,0,1,1.5.633c.147.815.494,1.568.719,2.366a4.74,4.74,0,0,0,.286.867c.078.156,0,.286-.2.286h-.78a.228.228,0,0,1-.26-.225c0-.347-.234-.364-.5-.39a.926.926,0,0,0-.936.321c-.277-.1-.667,0-.8-.4C36.769,21.139,36.639,21.165,36.57,21.174Zm1.733-2.21c-.26.39-.173.78-.277,1.127-.043.147.26.147.433.139s.217-.087.173-.225c-.078-.329-.182-.641-.312-1.04Z" transform="translate(-7.52 -2.889)" fill="#eef15e"/>
    <path id="Path_15323" data-name="Path 15323" d="M30.421,20.106h-.763c-.251,0-.381.078-.355.347s.139.329.4.321a3.042,3.042,0,0,1,.971,0l-.182.191c.459.191.113.52.139.789a8.986,8.986,0,0,1-2.158,0c0-.52-.043-.581-.338-.468-.1-1.135,0-2.27,0-3.406,0-.26.2-.329.416-.329h2.288c.338,0,.381.225.373.5s0,.546-.373.52H29.675c-.2,0-.4,0-.4.277s.191.3.407.3a1,1,0,0,1,.555,0c-.052.1-.052.173.069.191.407.043.364.243.191.511a.676.676,0,0,0-.078.251Zm-.546-1.82v.139a7.265,7.265,0,0,1,.865.052c.339.061.27-.173.27-.338s.061-.4-.217-.347c-.1,0-.5,0-.251.329.087.13-.052.165-.156.165h-.511Z" transform="translate(-6.388 -2.887)" fill="#eef15e"/>
    <path id="Path_15324" data-name="Path 15324" d="M41.663,20.336V19.123c0-.286-.1-.477-.442-.39a1.447,1.447,0,0,1-.338,0h-.208c-.243-.234-.13-.555-.156-.867s.182-.286.407-.277H43.6a.239.239,0,0,1,.225.13c.251.277.061.615.1.919,0,.13-.217.156-.39.121-.659-.121-.728-.061-.728.607v2.158c0,.251-.087.373-.347.364-.945,0-.815.13-.867-.78v-.78Z" transform="translate(-8.046 -2.892)" fill="#eef15e"/>
    <path id="Path_15325" data-name="Path 15325" d="M15.847,21.811c-.191.087-.191-.069-.191-.156A34.346,34.346,0,0,1,15.7,18.12c.113,0,.277.139.347,0s.338-.251.659-.355c-.451-.087-.754-.147-1,.165-.1-.329.208-.321.338-.329h2.3v.069H17.06v.121a2.227,2.227,0,0,1,.329.069c.13.052.286.1.286.277s-.156.121-.269.147-.165.156-.078.286a1.369,1.369,0,0,0-.321.1.321.321,0,0,0-.139.338.269.269,0,0,0,.286.208h.823c.347,0,.329.251.321.485s0,.485-.329.468h-.3c-.8,0-.815,0-.745.823a1.352,1.352,0,0,1,0,.719c-.1.234-.243.364-.468.1.5,0,.39-.321.355-.693a.537.537,0,0,1-.563.26C15.752,21.326,15.734,21.335,15.847,21.811Z" transform="translate(-4.726 -2.894)" fill="#eef15e"/>
    <path id="Path_15326" data-name="Path 15326" d="M35.249,45.025a3.57,3.57,0,0,1-1.092,2.244c-.477.511-.927,1.049-1.378,1.586-.182.217-.321.251-.563.069s-.321-.269-.494-.39a.373.373,0,0,1,0-.641c.7-.624,1.283-1.352,1.915-2.036.39-.416.867-.789,1.239-1.187C34.971,44.809,34.963,45.077,35.249,45.025Z" transform="translate(-6.848 -6.506)" fill="#eef15e"/>
    <path id="Path_15327" data-name="Path 15327" d="M18.9,48.829c-.147-.1-.3-.165-.433-.269s-.295-.312-.1-.52a37.552,37.552,0,0,1,2.73-2.79,1.049,1.049,0,0,0,.043.156c.251-.251.485,0,.728,0a2.158,2.158,0,0,1-.589,1.456c-.615.641-1.135,1.378-1.785,2A.38.38,0,0,0,18.9,48.829Z" transform="translate(-5.079 -6.583)" fill="#eef15e"/>
    <path id="Path_15328" data-name="Path 15328" d="M27.891,55.147V56.82c0,.295-.087.425-.39.425-.867,0-.971.165-.867-.919V53.492c0-.477.121-.6.589-.529.217,0,.485-.121.615.052s.078.494.087.754v1.378Z" transform="translate(-6.189 -7.607)" fill="#eef15e"/>
    <path id="Path_15329" data-name="Path 15329" d="M39.977,57.172a1.317,1.317,0,0,1-.945,0c-.182,0-.182-.191-.173-.347a29.014,29.014,0,0,0,0-3.362c0-.355.121-.555.485-.563h.39c.312,0,.442.113.433.425a22.531,22.531,0,0,1-.052,2.756,2.7,2.7,0,0,0,0,.381c0,.208.121.451-.1.624-.078-.13.052-.529-.26-.364s-.511.078-.65-.243c-.225.589-.225.581.329.6Z" transform="translate(-7.825 -7.604)" fill="#eef15e"/>
    <path id="Path_15330" data-name="Path 15330" d="M39.278,10.15c.182.087.121.251.121.381V13.85c0,.381-.147.52-.511.494h-.511c-.156,0-.251-.069-.251-.234a33.087,33.087,0,0,1,.052-3.822c.173.381.485.139.737.173S39.278,10.384,39.278,10.15Z" transform="translate(-7.723 -1.899)" fill="#eef15e"/>
    <path id="Path_15331" data-name="Path 15331" d="M45,19.743v-1.69c0-.407.26-.451.581-.433s.633,0,.624.442v3.154a.693.693,0,0,1-1.075.624c-.156-.078-.147-.234-.147-.373V19.734Z" transform="translate(-8.642 -2.896)" fill="#eef15e"/>
    <path id="Path_15332" data-name="Path 15332" d="M25.316,10.079c0,.069.121.2,0,.182-.295,0-.581.139-.867,0a2.5,2.5,0,0,0-.511,0c-.381,0-.529.173-.529.511V12.41c0,.121.087.347-.2.3V10.382c0-.251.1-.39.347-.373a13.1,13.1,0,0,1,1.759.069Z" transform="translate(-5.737 -1.88)" fill="#eef15e"/>
    <path id="Path_15333" data-name="Path 15333" d="M17.549,18.6c-.087-.13-.121-.243.078-.286s.26,0,.269-.147-.156-.225-.286-.277a2.227,2.227,0,0,0-.329-.069V17.7h1.283c.312.191.173.477.13.719s-.286.182-.459.182Z" transform="translate(-4.946 -2.907)" fill="#eef15e"/>
    <path id="Path_15334" data-name="Path 15334" d="M22.341,45.255c-.243,0-.477-.286-.728,0a1.049,1.049,0,0,1-.043-.156,5.667,5.667,0,0,1,1.239-1.239,5.121,5.121,0,0,1-.468,1.4Z" transform="translate(-5.518 -6.398)" fill="#eef15e"/>
    <path id="Path_15335" data-name="Path 15335" d="M36.417,21.73h.2c.13.407.52.295.8.4a.3.3,0,0,1-.338.295H35.551c0-.078-.2-.1-.1-.173a1.554,1.554,0,0,1,.6-.39c.069.113,0,.355.217.329S36.339,21.86,36.417,21.73Z" transform="translate(-7.367 -3.445)" fill="#eef15e"/>
    <path id="Path_15336" data-name="Path 15336" d="M35.358,10.554h0a1.283,1.283,0,0,0-1.239,0c-.061-.416.156-.572.537-.555h.425C35.384,10.069,35.5,10.234,35.358,10.554Z" transform="translate(-7.191 -1.879)" fill="#eef15e"/>
    <path id="Path_15337" data-name="Path 15337" d="M30.735,20.361a.676.676,0,0,1,0-.2c.173-.269.217-.468-.191-.511-.121,0-.121-.1-.069-.191a2.47,2.47,0,0,1,.251,0c.3,0,.615-.052.572.442S31.281,20.387,30.735,20.361Z" transform="translate(-6.702 -3.141)" fill="#eef15e"/>
    <path id="Path_15338" data-name="Path 15338" d="M40.407,14.16h.13c.269.251.615.173.936.2.1.39-.078.5-.442.494C40.355,14.827,40.355,14.836,40.407,14.16Z" transform="translate(-8.029 -2.435)" fill="#eef15e"/>
    <path id="Path_15339" data-name="Path 15339" d="M53.5,18.479c-.147.078-.191,0-.251-.13-.269-.425-.425-.459-.867-.225-.061,0-.13.069-.191,0a.139.139,0,0,1,0-.2,1.128,1.128,0,0,1,.364-.312.251.251,0,0,1,.3,0H53a1.317,1.317,0,0,1,.5.867Z" transform="translate(-9.599 -2.888)" fill="#eef15e"/>
    <path id="Path_15340" data-name="Path 15340" d="M41.573,10.358c0,.069,0,.147-.173.1-.381-.173-.615-.061-.711.338,0,.165-.061.286-.26.217a.26.26,0,0,1,0-.087c0-.91,0-.962.927-.867a.243.243,0,0,1,.217.3Z" transform="translate(-8.034 -1.882)" fill="#eef15e"/>
    <path id="Path_15341" data-name="Path 15341" d="M37.526,10.524c-.355-.139-.719.139-1.066,0,0-.191,0-.407.251-.433a1.317,1.317,0,0,1,.8,0C37.665,10.168,37.578,10.368,37.526,10.524Z" transform="translate(-7.505 -1.883)" fill="#eef15e"/>
    <path id="Path_15342" data-name="Path 15342" d="M15.871,22.357c-.113-.477-.1-.485.373-.407a.537.537,0,0,0,.563-.26c0,.373.147.7-.355.693Z" transform="translate(-4.75 -3.439)" fill="#eef15e"/>
    <path id="Path_15343" data-name="Path 15343" d="M52.191,22.356a.5.5,0,0,1,0-.459c0-.061.113-.165.121-.147.1.364.745,0,.693.546l-.069.078h-.182C52.547,22.4,52.365,22.469,52.191,22.356Z" transform="translate(-9.597 -3.447)" fill="#eef15e"/>
    <path id="Path_15344" data-name="Path 15344" d="M35.76,44.918c-.286.052-.277-.217-.39-.355.069-.225.3-.321.433-.5s.078-.225.2-.173.113.225.069.338S35.864,44.684,35.76,44.918Z" transform="translate(-7.359 -6.398)" fill="#eef15e"/>
    <path id="Path_15345" data-name="Path 15345" d="M22.345,20.322c0-.139-.225-.217-.078-.433s-.347-.173-.269-.442c.719-.061.728,0,.676.676C22.657,20.383,22.553,20.418,22.345,20.322Z" transform="translate(-5.574 -3.138)" fill="#eef15e"/>
    <path id="Path_15346" data-name="Path 15346" d="M44.243,10.464a6.066,6.066,0,0,1-.971-.061h0c-.087-.139-.052-.269.1-.295a1.421,1.421,0,0,1,.91,0C44.417,10.186,44.339,10.342,44.243,10.464Z" transform="translate(-8.408 -1.884)" fill="#eef15e"/>
    <path id="Path_15347" data-name="Path 15347" d="M47.919,12.226c0,.251-.052.5-.069.754-.139.078-.3.113-.39,0a.728.728,0,0,1,0-.615C47.511,12.131,47.754,12.218,47.919,12.226Z" transform="translate(-8.964 -2.174)" fill="#eef15e"/>
    <path id="Path_15348" data-name="Path 15348" d="M41.085,57.12c.243.459.693.286,1.066.364.052.2-.1.243-.243.269a2.747,2.747,0,0,1-.381,0C40.825,57.779,40.825,57.779,41.085,57.12Z" transform="translate(-8.101 -8.167)" fill="#eef15e"/>
    <path id="Path_15349" data-name="Path 15349" d="M31.987,53.152a1.5,1.5,0,0,1,.806,0,.2.2,0,0,1,.217.173.162.162,0,0,1-.208.156c-.286,0-.546.225-.867.052a.355.355,0,0,1,.052-.381Z" transform="translate(-6.897 -7.63)" fill="#eef15e"/>
    <path id="Path_15350" data-name="Path 15350" d="M24.389,43.828c.39-.078.312.225.364.433l-.745.208C23.93,44.149,24.216,44.019,24.389,43.828Z" transform="translate(-5.842 -6.392)" fill="#eef15e"/>
    <path id="Path_15351" data-name="Path 15351" d="M30.979,22.315c0-.269.321-.6-.139-.789l.182-.191a.4.4,0,0,1,.39.061c0,.234-.156.485.087.693C31.473,22.385,31.343,22.437,30.979,22.315Z" transform="translate(-6.755 -3.389)" fill="#eef15e"/>
    <path id="Path_15352" data-name="Path 15352" d="M33.031,10.268l-1.1.191c-.13-.251-.061-.433.234-.416S32.849,9.826,33.031,10.268Z" transform="translate(-6.892 -1.879)" fill="#eef15e"/>
    <path id="Path_15353" data-name="Path 15353" d="M39.293,10.132c0,.234-.1.347-.347.3s-.563.208-.737-.173v-.1c.043,0,.061,0,.052-.069A1.456,1.456,0,0,1,39.293,10.132Z" transform="translate(-7.738 -1.881)" fill="#eef15e"/>
    <path id="Path_15354" data-name="Path 15354" d="M23.127,14.14a.243.243,0,0,1,.26.182c.087.295.234.381.537.251s.182.1.2.225h-.693l-.277-.113a1.283,1.283,0,0,1-.026-.546Z" transform="translate(-5.723 -2.432)" fill="#eef15e"/>
    <path id="Path_15355" data-name="Path 15355" d="M32.31,22.105a4.948,4.948,0,0,0,1.127-.1c.061.277,0,.5-.329.416S32.336,22.773,32.31,22.105Z" transform="translate(-6.951 -3.482)" fill="#eef15e"/>
    <path id="Path_15356" data-name="Path 15356" d="M54.607,22.153c0-.121.061-.26.208-.147.3.234.494.139.659-.156a.208.208,0,0,1,.286-.113v.3a1.231,1.231,0,0,1-.529.338h-.1c-.156-.121-.416,0-.537-.208Z" transform="translate(-9.924 -3.443)" fill="#eef15e"/>
    <path id="Path_15357" data-name="Path 15357" d="M40.005,57.73l-.468-.052c-.555,0-.555,0-.329-.6.139.321.295.425.65.243s.182.234.26.364Z" transform="translate(-7.853 -8.162)" fill="#eef15e"/>
    <path id="Path_15358" data-name="Path 15358" d="M38.5,31.6c.277-.234.659-.295.867-.607a.3.3,0,0,1,.113.1l-.546.78-.347-.121C38.525,31.7,38.482,31.675,38.5,31.6Z" transform="translate(-7.777 -4.68)" fill="#eef15e"/>
    <path id="Path_15359" data-name="Path 15359" d="M49.258,12.749l-.217.312c0-.321-.312-.511-.243-.867C49.284,12.1,49.344,12.169,49.258,12.749Z" transform="translate(-9.15 -2.168)" fill="#eef15e"/>
    <path id="Path_15360" data-name="Path 15360" d="M48.075,10.115c0,.13-.113.156-.217.156h-1.1c-.13,0-.225,0-.208-.191a3.622,3.622,0,0,1,1.525.035Z" transform="translate(-8.851 -1.882)" fill="#eef15e"/>
    <path id="Path_15361" data-name="Path 15361" d="M37.864,43.539c.2,0,.442-.078.208.269a1.386,1.386,0,0,0-.113.433c-.147.087-.329,0-.485.069l-.1-.225a.442.442,0,0,1,.26-.225c.13,0,.139-.1.139-.2Z" transform="translate(-7.626 -6.354)" fill="#eef15e"/>
    <path id="Path_15362" data-name="Path 15362" d="M36.311,43.049c.156,0,.165-.191.26-.277s.078-.243.243-.165.061.182.043.286a.289.289,0,0,0,0,.13l-.312.312h-.26a.251.251,0,0,1,.026-.286Z" transform="translate(-7.477 -6.228)" fill="#eef15e"/>
    <path id="Path_15363" data-name="Path 15363" d="M29.81,57.671c0-.477.4-.867.225-1.361.139.321,0,.667.173.971a.147.147,0,0,1,0,.191l-.277.182Z" transform="translate(-6.618 -8.059)" fill="#eef15e"/>
    <path id="Path_15364" data-name="Path 15364" d="M15.715,17.964c.243-.312.546-.251,1-.165-.321.1-.546.121-.659.355s-.234,0-.347,0A.182.182,0,0,1,15.715,17.964Z" transform="translate(-4.733 -2.911)" fill="#eef15e"/>
    <path id="Path_15365" data-name="Path 15365" d="M23.152,42.728c.217,0,.5-.113.433.295-.165.087-.208.451-.442.3S23.126,42.962,23.152,42.728Z" transform="translate(-5.714 -6.245)" fill="#eef15e"/>
    <path id="Path_15366" data-name="Path 15366" d="M51.84,31.727c.113-.347.312-.347.563-.147C52.143,32.03,52.083,32.047,51.84,31.727Z" transform="translate(-9.557 -4.741)" fill="#eef15e"/>
    <path id="Path_15367" data-name="Path 15367" d="M51.406,32.911c-.286-.165-.295-.381,0-.581C51.744,32.547,51.718,32.737,51.406,32.911Z" transform="translate(-9.47 -4.859)" fill="#eef15e"/>
    <path id="Path_15368" data-name="Path 15368" d="M48.751,11.453c-.147-.329,0-.494.4-.563a.4.4,0,0,1,.052.26v.191h0a.13.13,0,0,0-.173.061A.243.243,0,0,1,48.751,11.453Z" transform="translate(-9.138 -1.998)" fill="#eef15e"/>
    <path id="Path_15369" data-name="Path 15369" d="M23.909,17.69h.052c.13,0,.3,0,.329.139s-.208.156-.3.243-.225,0-.269-.139S23.779,17.716,23.909,17.69Z" transform="translate(-5.803 -2.906)" fill="#eef15e"/>
    <path id="Path_15370" data-name="Path 15370" d="M28.136,21.913c.295-.113.338-.052.338.468C28.015,22.467,28.11,22.164,28.136,21.913Z" transform="translate(-6.391 -3.463)" fill="#eef15e"/>
    <path id="Path_15371" data-name="Path 15371" d="M19,49.362c.225-.2.416-.13.589.069C19.407,49.795,19.312,49.778,19,49.362Z" transform="translate(-5.175 -7.116)" fill="#eef15e"/>
    <path id="Path_15372" data-name="Path 15372" d="M34.174,53.05c.13.061.364.052.355.217a.364.364,0,0,1-.407.329A.52.52,0,0,1,34.174,53.05Z" transform="translate(-7.186 -7.624)" fill="#eef15e"/>
    <path id="Path_15373" data-name="Path 15373" d="M55.36,22.428a1.231,1.231,0,0,0,.529-.338.165.165,0,0,1,.043.277.468.468,0,0,1-.572.061Z" transform="translate(-10.027 -3.493)" fill="#eef15e"/>
    <path id="Path_15374" data-name="Path 15374" d="M29.336,53s0,.087.052.1c.182.156.069.277-.061.329-.277.139-.139-.191-.243-.251S29.128,52.91,29.336,53Z" transform="translate(-6.516 -7.614)" fill="#eef15e"/>
    <path id="Path_15375" data-name="Path 15375" d="M49.126,26.46c-.173.225-.295.217-.416-.052C48.875,26.174,49,26.261,49.126,26.46Z" transform="translate(-9.139 -4.05)" fill="#eef15e"/>
    <path id="Path_15376" data-name="Path 15376" d="M31.6,22.1c-.243-.208-.121-.459-.087-.693C31.727,21.618,31.658,21.861,31.6,22.1Z" transform="translate(-6.836 -3.402)" fill="#eef15e"/>
    <path id="Path_15377" data-name="Path 15377" d="M45.162,57.8c-.13-.286,0-.347.277-.338C45.621,57.8,45.448,57.85,45.162,57.8Z" transform="translate(-8.659 -8.212)" fill="#eef15e"/>
    <path id="Path_15378" data-name="Path 15378" d="M37.347,44.17l.1.225c-.043.113-.13.2-.208.1A.21.21,0,0,1,37.347,44.17Z" transform="translate(-7.603 -6.439)" fill="#eef15e"/>
    <path id="Path_15379" data-name="Path 15379" d="M54.62,22.24c.121.217.381.087.537.208C54.949,22.517,54.663,22.656,54.62,22.24Z" transform="translate(-9.928 -3.513)" fill="#eef15e"/>
    <path id="Path_15380" data-name="Path 15380" d="M38.609,31.83l.338.147c0,.113-.052.139-.147.13a.217.217,0,0,1-.191-.277Z" transform="translate(-7.79 -4.792)" fill="#eef15e"/>
    <path id="Path_15381" data-name="Path 15381" d="M30,57.832l.277-.182C30.26,57.893,30.147,57.953,30,57.832Z" transform="translate(-6.643 -8.238)" fill="#eef15e"/>
    <path id="Path_15382" data-name="Path 15382" d="M23.16,14.8l.277.113C23.264,15.017,23.195,14.973,23.16,14.8Z" transform="translate(-5.73 -2.52)" fill="#eef15e"/>
    <path id="Path_15383" data-name="Path 15383" d="M36.28,43.49h.26C36.471,43.585,36.393,43.663,36.28,43.49Z" transform="translate(-7.481 -6.348)" fill="#eef15e"/>
    <path id="Path_15384" data-name="Path 15384" d="M52.82,22.49H53c0,.078,0,.147-.1.139S52.829,22.551,52.82,22.49Z" transform="translate(-9.688 -3.546)" fill="#eef15e"/>
    <path id="Path_15385" data-name="Path 15385" d="M49,11.509a.13.13,0,0,1,.173-.061C49.147,11.543,49.1,11.569,49,11.509Z" transform="translate(-9.178 -2.071)" fill="#eef15e"/>
    <path id="Path_15386" data-name="Path 15386" d="M49.24,11.381V11.19C49.361,11.268,49.37,11.337,49.24,11.381Z" transform="translate(-9.21 -2.038)" fill="#eef15e"/>
    <path id="Path_15387" data-name="Path 15387" d="M24.09,14.94h.165C24.22,15.035,24.168,15.044,24.09,14.94Z" transform="translate(-5.854 -2.539)" fill="#eef15e"/>
    <path id="Path_15388" data-name="Path 15388" d="M37.8,43.68c0,.1,0,.191-.139.2S37.706,43.715,37.8,43.68Z" transform="translate(-7.659 -6.374)" fill="#eef15e"/>
    <path id="Path_15389" data-name="Path 15389" d="M53.059,17.666H52.92C52.989,17.536,53.033,17.562,53.059,17.666Z" transform="translate(-9.701 -2.891)" fill="#eef15e"/>
    <path id="Path_15390" data-name="Path 15390" d="M38.282,10.1c0,.052,0,.069-.052.069Z" transform="translate(-7.741 -1.893)" fill="#eef15e"/>
    <path id="Path_15391" data-name="Path 15391" d="M35.58,55.2v-.771c0-.251.13-.338.373-.234a1.456,1.456,0,0,1,.546,1.9.945.945,0,0,1-.667.347c-.182.052-.217-.156-.225-.295V55.2Z" transform="translate(-7.387 -7.771)" fill="#3d0277"/>
    <path id="Path_15392" data-name="Path 15392" d="M25.072,19.939v-.511c0-.165-.113-.468.217-.52s.6,0,.693.347a3.258,3.258,0,0,1,0,1.326.615.615,0,0,1-.806.364.217.217,0,0,1-.147-.269,2.938,2.938,0,0,0,0-.39v-.347Z" transform="translate(-5.978 -3.066)" fill="#3d0277"/>
    <path id="Path_15393" data-name="Path 15393" d="M30.141,12.381a1.726,1.726,0,0,1-.1.711.693.693,0,0,1-.719.355c-.373,0-.477-.347-.537-.581a1.811,1.811,0,0,1,.1-1.257.633.633,0,0,1,.728-.373c.321,0,.442.295.485.581a4.445,4.445,0,0,1,.043.563Z" transform="translate(-6.472 -2.042)" fill="#3d0277"/>
    <path id="Path_15394" data-name="Path 15394" d="M34.144,18.858c.147.043.407-.121.407.2s-.3.364-.546.39-.277-.182-.286-.364C33.7,18.71,33.963,18.892,34.144,18.858Z" transform="translate(-7.139 -3.059)" fill="#3d0277"/>
    <path id="Path_15395" data-name="Path 15395" d="M39.79,30.632c-.052-.251-.217-.39-.069-.529a.2.2,0,0,1,.3.061C40.111,30.354,39.894,30.406,39.79,30.632Z" transform="translate(-7.932 -4.556)" fill="#eef15e"/>
    <path id="Path_15396" data-name="Path 15396" d="M48.417,20.037a1.421,1.421,0,0,1,.191-.962.581.581,0,0,1,.624-.277.711.711,0,0,1,.494.494,2.106,2.106,0,0,1,0,1.265.641.641,0,0,1-.7.494.624.624,0,0,1-.572-.641C48.435,20.263,48.417,20.124,48.417,20.037Z" transform="translate(-9.098 -3.052)" fill="#3d0277"/>
    <path id="Path_15397" data-name="Path 15397" d="M24.927,11.892c-.269,0-.485-.061-.477-.347s.269-.355.529-.355.485,0,.485.329S25.083,11.8,24.927,11.892Z" transform="translate(-5.902 -2.038)" fill="#3d0277"/>
    <path id="Path_15398" data-name="Path 15398" d="M43.356,54.964c-.156.173,0,.3.069.459a.347.347,0,0,1-.13.416.286.286,0,0,1-.347,0c-.121-.061-.078-.251,0-.364s.043-.373.087-.546.1-.217.234-.191S43.321,54.869,43.356,54.964Z" transform="translate(-8.361 -7.848)" fill="#3d0277"/>
    <path id="Path_15399" data-name="Path 15399" d="M38.547,19.18c.13.4.234.719.329,1.04.043.139,0,.217-.173.225s-.477,0-.433-.139C38.373,19.96,38.287,19.57,38.547,19.18Z" transform="translate(-7.746 -3.104)" fill="#3d0277"/>
    <path id="Path_15400" data-name="Path 15400" d="M30.149,18.323h.5c.173,0,.243,0,.156-.165-.251-.373.156-.3.251-.329.277-.052.225.191.217.347s.069.4-.269.338a7.271,7.271,0,0,0-.867-.052Z" transform="translate(-6.662 -2.923)" fill="#eef15e"/>
  </g>
</svg>
