<svg xmlns="http://www.w3.org/2000/svg" width="68" height="61.605" viewBox="0 0 68 61.605">
  <g id="SAI_footer_logo_1_" data-name="SAI_footer_logo (1)" transform="translate(-0.012 0)">
    <path id="Path_11463" data-name="Path 11463" d="M.09,123.835c3.52,2.568,8.188,3.781,14.121,3.781,4.831,0,8.294-.779,10.326-2.358a7.544,7.544,0,0,0,1.825-2.063,10.976,10.976,0,0,0,1.2-5.766,7.567,7.567,0,0,0-2.126-5.143,7.471,7.471,0,0,0-2.6-1.546,30.638,30.638,0,0,0-7.317-1.666,36.529,36.529,0,0,1-4.594-.854,6.731,6.731,0,0,1-1.544-.609A2.483,2.483,0,0,1,8.236,105.5c0-2.277,1.3-3.131,5.853-3.131l6.742-.019A5.713,5.713,0,0,0,26.3,98.4a13.885,13.885,0,0,0,.358-1.58.242.242,0,0,0-.24-.285l-13.611.009c-7.7.266-11.2,2.928-11.2,9.118,0,3.21.895,5.285,3.131,6.626a16.013,16.013,0,0,0,3.74,1.5,47.975,47.975,0,0,0,5.366,1.016,24.237,24.237,0,0,1,5.57,1.259A2.376,2.376,0,0,1,21,118.421a3.04,3.04,0,0,1-1.382,2.846c-.935.53-2.805.813-5.61.813a21.291,21.291,0,0,1-6.757-1.189c-3.709-1.133-5.345-.123-6.51,1.558l-.7,1.13a.2.2,0,0,0,.05.256Z" transform="translate(0 -81.486)" fill="navy"/>
    <path id="Path_11464" data-name="Path 11464" d="M202.978,122.244c.137.338.5,1.2.926,2.026,1.643,3.171,3.553,3.305,7.758,3.305a.067.067,0,0,0,.061-.1L199.666,96.7a.27.27,0,0,0-.251-.17h-5.47a.243.243,0,0,0-.228.156l-12.095,30.8a.067.067,0,0,0,.062.1c4.336,0,6.114-.134,7.756-3.305.43-.831.789-1.691.927-2.026a.238.238,0,0,1,.224-.156h12.156A.243.243,0,0,1,202.978,122.244Zm-2.38-5.682h-7.816a.129.129,0,0,1-.122-.178l3.905-9.932a.131.131,0,0,1,.245,0l3.907,9.933a.129.129,0,0,1-.12.176Z" transform="translate(-153.302 -81.486)" fill="navy"/>
    <path id="Path_11465" data-name="Path 11465" d="M398.966,96.4a2.568,2.568,0,0,0-2.716,2.786s-.059,26.592-.059,28.169a.1.1,0,0,0,.094.094,7.441,7.441,0,0,0,2.141-.19,4.8,4.8,0,0,0,3.025-2.057,6.592,6.592,0,0,0,.946-3.541V96.494a.094.094,0,0,0-.094-.094Z" transform="translate(-334.436 -81.377)" fill="navy"/>
    <path id="Path_11466" data-name="Path 11466" d="M389.967,33a1.044,1.044,0,1,0-.27-1.452A1.044,1.044,0,0,0,389.967,33Z" transform="translate(-328.801 -26.249)" fill="navy"/>
    <path id="Path_11467" data-name="Path 11467" d="M389.964,33a1.044,1.044,0,1,0-.27-1.452,1.044,1.044,0,0,0,.27,1.452Z" transform="translate(-328.797 -26.249)" fill="navy"/>
    <path id="Path_11468" data-name="Path 11468" d="M340.708,9.159c1.138,1.767,1.058,2.695.77,3.452.087-.108.171-.217.254-.329a4.088,4.088,0,0,0,.538-4.106,33.521,33.521,0,0,0-2.768-4.4c-.234-.348-.432-.659-.6-.924-.112-.17-.218-.334-.312-.492l-.164-.256.03.039A14.843,14.843,0,0,1,337.323,0c-1.683,2.227.768,5.479.768,5.479Z" transform="translate(-284.245)" fill="#ef7e19"/>
    <path id="Path_11469" data-name="Path 11469" d="M332.727,41.606a3.861,3.861,0,0,1,.86,1.97,1.367,1.367,0,0,1-.7,1.1,10.441,10.441,0,0,0,1.677-.887,2.751,2.751,0,0,0,.242-3.014c-.312-.6-.648-1.049-1.473-2.291a26.048,26.048,0,0,1-2.046-3.379,3.663,3.663,0,0,0,.031,4.636S332.208,40.878,332.727,41.606Z" transform="translate(-278.971 -29.638)" fill="#098036"/>
    <path id="Path_11470" data-name="Path 11470" d="M339.231,19.163h-.238c-.787.012-3.482-.39-7.49-5.693,0,0,.457.714,1.083,1.672a33.832,33.832,0,0,1,2.768,4.4,4.088,4.088,0,0,1-.538,4.106c-1.354,1.859-3.377,2.911-6.276,3.429a20.172,20.172,0,0,0,6.9-2.107,22.23,22.23,0,0,0,7.7-6.511,22.6,22.6,0,0,0,2.2-3.74S342.471,18.926,339.231,19.163Z" transform="translate(-277.329 -11.371)" fill="navy"/>
    <path id="Path_11471" data-name="Path 11471" d="M1.462,376.255c-.522-.134-.658-.2-.658-.4v-.008c0-.147.134-.263.388-.263a1.421,1.421,0,0,1,.787.3l.344-.5A1.75,1.75,0,0,0,1.208,375a.943.943,0,0,0-1.058.912h0c0,.6.393.768,1,.924.5.129.609.215.609.383v.009c0,.178-.165.285-.436.285a1.377,1.377,0,0,1-.9-.368l-.393.468a1.92,1.92,0,0,0,1.281.483c.653,0,1.11-.337,1.11-.935v-.009C2.421,376.636,2.076,376.416,1.462,376.255Z" transform="translate(-0.015 -316.558)" fill="navy"/>
    <path id="Path_11472" data-name="Path 11472" d="M20.323,375.28H19.09V378.3h.665v-.907h.5a1.08,1.08,0,0,0,1.22-1.061v-.006A1.033,1.033,0,0,0,20.323,375.28Zm.483,1.066a.468.468,0,0,1-.527.458h-.524v-.924h.513c.332,0,.539.156.539.458Z" transform="translate(-16.104 -316.795)" fill="navy"/>
    <path id="Path_11473" data-name="Path 11473" d="M38.35,375a1.558,1.558,0,0,0-1.61,1.558h0a1.6,1.6,0,0,0,3.209,0v-.009A1.549,1.549,0,0,0,38.35,375Zm.907,1.558a.9.9,0,0,1-.907.935.918.918,0,0,1-.915-.935v-.009a.9.9,0,0,1,.907-.935.918.918,0,0,1,.915.951Z" transform="translate(-31.004 -316.554)" fill="navy"/>
    <path id="Path_11474" data-name="Path 11474" d="M63.67,376.248v-.008a.948.948,0,0,0-.259-.69,1.2,1.2,0,0,0-.881-.312H61.15v3.022h.665v-.966h.522l.647.966h.779l-.739-1.08A.935.935,0,0,0,63.67,376.248ZM63,376.29c0,.254-.185.427-.508.427h-.673v-.868h.659c.324,0,.522.146.522.432Z" transform="translate(-51.61 -316.758)" fill="navy"/>
    <path id="Path_11475" data-name="Path 11475" d="M79.8,375.892h.918V378.3h.665v-2.409H82.3v-.612H79.8Z" transform="translate(-67.353 -316.795)" fill="navy"/>
    <path id="Path_11476" data-name="Path 11476" d="M98.864,376.256c-.522-.134-.651-.2-.651-.4v-.008c0-.147.134-.263.388-.263a1.421,1.421,0,0,1,.779.3l.344-.5A1.75,1.75,0,0,0,98.618,375a.943.943,0,0,0-1.058.912h0c0,.6.393.768,1,.924.5.129.609.215.609.383v.009c0,.178-.165.285-.436.285a1.378,1.378,0,0,1-.9-.368l-.393.468a1.92,1.92,0,0,0,1.281.483c.653,0,1.11-.337,1.11-.935v-.009C99.823,376.636,99.478,376.416,98.864,376.256Z" transform="translate(-82.244 -316.559)" fill="navy"/>
    <path id="Path_11477" data-name="Path 11477" d="M124.4,375.14l-1.3,3.044h.678l.276-.678h1.278l.276.678h.7l-1.3-3.044Zm-.1,1.778.4-.979.4.979Z" transform="translate(-103.905 -316.677)" fill="navy"/>
    <path id="Path_11478" data-name="Path 11478" d="M147.618,376.986c0,.478-.245.725-.651.725s-.651-.254-.651-.746V375.25h-.665v1.727a1.2,1.2,0,0,0,1.309,1.342,1.216,1.216,0,0,0,1.325-1.364v-1.7h-.665Z" transform="translate(-122.941 -316.77)" fill="navy"/>
    <path id="Path_11479" data-name="Path 11479" d="M165.52,375.892h.919V378.3h.664v-2.409h.921v-.612h-2.5Z" transform="translate(-139.714 -316.795)" fill="navy"/>
    <path id="Path_11480" data-name="Path 11480" d="M186.75,376.475h-1.226v-1.2h-.664V378.3h.664v-1.212h1.226V378.3h.664V375.28h-.664Z" transform="translate(-156.04 -316.795)" fill="navy"/>
    <path id="Path_11481" data-name="Path 11481" d="M206.67,375a1.558,1.558,0,0,0-1.61,1.558h0a1.605,1.605,0,1,0,3.21,0v-.009a1.548,1.548,0,0,0-1.6-1.549Zm.905,1.558a.9.9,0,0,1-.905.935.916.916,0,0,1-.915-.949v-.009a.9.9,0,0,1,.905-.935.918.918,0,0,1,.915.951Z" transform="translate(-173.092 -316.554)" fill="navy"/>
    <path id="Path_11482" data-name="Path 11482" d="M231.99,376.248v-.008a.948.948,0,0,0-.259-.69,1.2,1.2,0,0,0-.881-.312H229.47v3.022h.664v-.966h.522l.648.966h.779l-.737-1.08A.935.935,0,0,0,231.99,376.248Zm-.673.036c0,.254-.185.427-.51.427h-.673v-.868h.665c.324,0,.522.146.522.432Z" transform="translate(-193.698 -316.758)" fill="navy"/>
    <rect id="Rectangle_13934" data-name="Rectangle 13934" width="0.665" height="3.022" transform="translate(38.923 58.485)" fill="navy"/>
    <path id="Path_11483" data-name="Path 11483" d="M257.42,375.892h.919V378.3H259v-2.409h.919v-.612h-2.5Z" transform="translate(-217.292 -316.795)" fill="navy"/>
    <path id="Path_11484" data-name="Path 11484" d="M276.268,376.492l-.722-1.212h-.776l1.161,1.83V378.3h.664v-1.2l1.161-1.817H277Z" transform="translate(-231.938 -316.795)" fill="navy"/>
    <path id="Path_11485" data-name="Path 11485" d="M305.66,375a1.558,1.558,0,0,0-1.61,1.558h0a1.607,1.607,0,0,0,3.212,0v-.009a1.549,1.549,0,0,0-1.6-1.549Zm.907,1.558a.9.9,0,0,1-.907.935.918.918,0,0,1-.915-.949v-.009a.9.9,0,0,1,.907-.935.918.918,0,0,1,.915.951Z" transform="translate(-256.655 -316.554)" fill="navy"/>
    <path id="Path_11486" data-name="Path 11486" d="M328.46,378.3h.665v-1.17h1.442v-.6h-1.442v-.644h1.636v-.6h-2.3Z" transform="translate(-277.261 -316.795)" fill="navy"/>
    <rect id="Rectangle_13935" data-name="Rectangle 13935" width="0.665" height="3.022" transform="translate(55.357 58.485)" fill="navy"/>
    <path id="Path_11487" data-name="Path 11487" d="M366.289,377.141l-1.417-1.861h-.612V378.3h.656V376.38l1.463,1.922h.566V375.28h-.656Z" transform="translate(-307.482 -316.795)" fill="navy"/>
    <path id="Path_11488" data-name="Path 11488" d="M387.32,375.28h-1.18V378.3h1.18a1.513,1.513,0,0,0,1.605-1.51v-.009A1.507,1.507,0,0,0,387.32,375.28Zm.91,1.519a.86.86,0,0,1-.91.9h-.514V375.88h.514a.868.868,0,0,1,.91.912Z" transform="translate(-325.952 -316.795)" fill="navy"/>
    <rect id="Rectangle_13936" data-name="Rectangle 13936" width="0.665" height="3.022" transform="translate(63.596 58.485)" fill="navy"/>
    <path id="Path_11489" data-name="Path 11489" d="M417.368,375.14h-.612l-1.3,3.044h.678l.276-.678h1.278l.276.678h.693Zm-.715,1.778.4-.979.4.979Z" transform="translate(-350.703 -316.677)" fill="navy"/>
    <path id="Path_11490" data-name="Path 11490" d="M63.251,318.035H62.73a3.364,3.364,0,0,0-.167-.513,2.212,2.212,0,0,0-.282-.5,1.448,1.448,0,0,0-.422-.379,1.127,1.127,0,0,0-.6-.156,1.206,1.206,0,0,0-.418.079.946.946,0,0,0-.323.19.825.825,0,0,0-.207.291.935.935,0,0,0-.072.369,1.189,1.189,0,0,0,.087.455,1.8,1.8,0,0,0,.079.165H52.385v.527h.569v1.516H52v-1.145a.972.972,0,0,0-.248-.714.944.944,0,0,0-.7-.253,1.039,1.039,0,0,0-.372.065.935.935,0,0,0-.3.182.826.826,0,0,0-.195.273.86.86,0,0,0-.069.344,1.015,1.015,0,0,0,.05.323,1.091,1.091,0,0,0,.129.263.872.872,0,0,0,.178.2.964.964,0,0,0,.195.125l.344-.394a.641.641,0,0,1-.195-.185.5.5,0,0,1-.087-.3.374.374,0,0,1,.087-.27.312.312,0,0,1,.232-.087c.189,0,.282.128.282.382v1.184h-.044a.468.468,0,0,0-.3.111.382.382,0,0,0-.136.312.624.624,0,0,0,.064.279.69.69,0,0,0,.168.221.8.8,0,0,0,.245.148.768.768,0,0,0,.282.053.611.611,0,0,0,.257-.044.418.418,0,0,0,.131-.087V320.6h.958v1.421h.678v-3.46h.935v3.46h.676v-3.46h1.741a1.558,1.558,0,0,1,.168.312,1.151,1.151,0,0,1,.083.455.658.658,0,0,1-.139.454.441.441,0,0,1-.344.156.39.39,0,0,1-.312-.176l-.118-.156a.524.524,0,0,0-.312.087.276.276,0,0,0-.123.238.507.507,0,0,0,.041.187,1.331,1.331,0,0,0,.156.251l1.166,1.755.6-.363-.985-1.29h.064a1.016,1.016,0,0,0,.372-.073.936.936,0,0,0,.326-.209,1.075,1.075,0,0,0,.229-.341,1.191,1.191,0,0,0,.087-.468,1.325,1.325,0,0,0-.087-.5,1.5,1.5,0,0,0-.17-.312H60.57v.771H59.6a1.258,1.258,0,0,0-.86.282,1.057,1.057,0,0,0-.324.846,2.243,2.243,0,0,0,.179.887,4.277,4.277,0,0,0,.43.779l.6-.263a4.387,4.387,0,0,1-.377-.689,1.689,1.689,0,0,1-.137-.664.653.653,0,0,1,.156-.452.639.639,0,0,1,.492-.168h.821v2.129h.676v-3.46h.935v3.46h.676v-3.46h1.4a1.151,1.151,0,0,1,.156.229.589.589,0,0,1,.067.279.446.446,0,0,1-.195.407,1.237,1.237,0,0,1-.614.139h-.156a1.8,1.8,0,0,0,.136.732,1.37,1.37,0,0,0,.852.779,1.808,1.808,0,0,0,.567.09,1.526,1.526,0,0,0,.516-.072,1.039,1.039,0,0,0,.285-.142v1.018h.678v-3.46h.531v-.527H63.251Zm-1.491,0h-.7a1.488,1.488,0,0,1-.108-.224,1,1,0,0,1-.056-.338.436.436,0,0,1,.106-.312.394.394,0,0,1,.295-.111.491.491,0,0,1,.3.094,1,1,0,0,1,.226.238,1.667,1.667,0,0,1,.165.319c.047.117.086.231.12.338Zm3.39,1.116a.814.814,0,0,0-.069-.338,1.05,1.05,0,0,0-.156-.251h.935v1.823a.734.734,0,0,1-.288.2,1.16,1.16,0,0,1-.482.09.962.962,0,0,1-.623-.184.659.659,0,0,1-.26-.443,1.147,1.147,0,0,0,.679-.257A.8.8,0,0,0,65.149,319.151Z" transform="translate(-42.29 -267.166)" fill="navy"/>
    <path id="Path_11491" data-name="Path 11491" d="M174.561,317.685h-.58l-.372-.708a1.965,1.965,0,0,0-.539-.658,1.278,1.278,0,0,0-.8-.245,1.673,1.673,0,0,0-.354.037,1.027,1.027,0,0,0-.285.1l.22.6a1.277,1.277,0,0,1,.217-.067,1.093,1.093,0,0,1,.246-.028.8.8,0,0,1,.5.156,1.778,1.778,0,0,1,.4.457l.235.357H169.68v.527h1.159a1.222,1.222,0,0,1,.134.312,1.54,1.54,0,0,1,.053.418.665.665,0,0,1-.122.441.374.374,0,0,1-.285.142c-.089,0-.156-.059-.195-.176l-.072-.173a.418.418,0,0,0-.338.039.288.288,0,0,0-.139.262.937.937,0,0,0,.016.156q.016.081.028.131a2.394,2.394,0,0,0,.352.812,2.2,2.2,0,0,0,1.259.89,3.016,3.016,0,0,0,.789.1,2.723,2.723,0,0,0,.725-.078,1.926,1.926,0,0,0,.441-.171v.351h.676v-3.46h3.723v.683a1.131,1.131,0,0,0-.737.039.8.8,0,0,0-.3.212,1.208,1.208,0,0,0-.84-.312,1.343,1.343,0,0,0-.433.07,1.091,1.091,0,0,0-.369.209,1.032,1.032,0,0,0-.26.357,1.256,1.256,0,0,0-.1.511,1.591,1.591,0,0,0,.109.6,1.948,1.948,0,0,0,.288.5,2.283,2.283,0,0,0,.415.4,3.075,3.075,0,0,0,.491.3l.421-.5a3.886,3.886,0,0,1-.377-.215,1.764,1.764,0,0,1-.332-.282,1.534,1.534,0,0,1-.235-.351,1.011,1.011,0,0,1-.09-.43.581.581,0,0,1,.17-.468.624.624,0,0,1,.419-.148.679.679,0,0,1,.468.164,1.745,1.745,0,0,0-.086.351,3.421,3.421,0,0,0-.034.5h.67a1.939,1.939,0,0,1,.145-.779.413.413,0,0,1,.388-.242.613.613,0,0,1,.117.009.817.817,0,0,1,.084.022v2.268h.676v-3.46h.533v-.527h-4.53Zm-1.091,2.288a.552.552,0,0,1-.338.094.583.583,0,0,1-.348-.109.433.433,0,0,1-.156-.379.44.44,0,0,1,.148-.36.531.531,0,0,1,.354-.123.687.687,0,0,1,.338.081Zm0-1.247a.572.572,0,0,0-.193-.065,1.308,1.308,0,0,0-.251-.022,1.165,1.165,0,0,0-.388.062.966.966,0,0,0-.312.181.84.84,0,0,0-.209.291,1,1,0,0,0-.075.4.963.963,0,0,0,.084.416.863.863,0,0,0,.226.3,1,1,0,0,0,.312.182,1.145,1.145,0,0,0,.372.062.968.968,0,0,0,.266-.031.811.811,0,0,0,.165-.069v.326a1.207,1.207,0,0,1-.435.193,2.573,2.573,0,0,1-.706.089,2.306,2.306,0,0,1-.553-.067,1.96,1.96,0,0,1-.489-.19,1.54,1.54,0,0,1-.388-.312,1.363,1.363,0,0,1-.26-.43.337.337,0,0,0,.094.012,1.015,1.015,0,0,0,.4-.075.846.846,0,0,0,.312-.217.966.966,0,0,0,.2-.338,1.286,1.286,0,0,0,.069-.435,1.345,1.345,0,0,0-.069-.446,1.558,1.558,0,0,0-.156-.326h1.985Z" transform="translate(-143.226 -266.816)" fill="navy"/>
    <path id="Path_11492" data-name="Path 11492" d="M252.233,318.741a.194.194,0,0,1-.09-.064,3.963,3.963,0,0,0-1.172-.948,1.816,1.816,0,0,0-.2-.094,3.428,3.428,0,0,0-.876-.256,2.743,2.743,0,0,0-1.534.128,1.332,1.332,0,0,0-.312.185.829.829,0,0,0-.312.9c.011.044.026.087.047.156H242.51v.524h.3v1.2a.948.948,0,0,0,.681.993c.064.02.129.031.212.051l-1.052.848.563.475,1.368-1.438h.011v1.334h.687V322.7h0v-3.429h.921v3.46h.687v-3.452h.923v3.452h.693v-3.452h.519v-.441a.178.178,0,0,0,0-.03v-.065h-.558c-.031-.011-.065-.036-.069-.056a.522.522,0,0,1,.167-.555.959.959,0,0,1,.281-.156,2.068,2.068,0,0,1,1.131-.019,3.1,3.1,0,0,1,.99.416c.058.039.115.079.171.123h.017a3.682,3.682,0,0,1,.494.433.2.2,0,0,1,.059.156v2.051a.3.3,0,0,1-.176.312l-.048.025a1.9,1.9,0,0,1-.924.156.717.717,0,0,1-.436-.148.312.312,0,0,1,.051-.517.527.527,0,0,1,.217-.058c.2-.009.4-.009.6-.008.056,0,.081-.017.079-.078v-.369c0-.059-.019-.078-.078-.079a3.8,3.8,0,0,1-.441-.017.686.686,0,0,1-.665-.779.352.352,0,0,1,.229-.329.335.335,0,0,1,.357.051.352.352,0,0,1,.089.383,1.713,1.713,0,0,1-.1.226c.128.053.26.1.386.165a.117.117,0,0,0,.156-.039.789.789,0,0,0,.012-.983.958.958,0,0,0-.675-.355,1.025,1.025,0,0,0-.907.3.948.948,0,0,0,.288,1.485l.1.059a1.644,1.644,0,0,0-.156.075.623.623,0,0,0-.362.514.876.876,0,0,0,.577.924,2.2,2.2,0,0,0,1.339.081,4.679,4.679,0,0,0,.468-.156v.734h0v.031h.7v-3.46H254.9v.686a.2.2,0,0,1-.009.069c-.061-.039-.109-.075-.156-.1a1.18,1.18,0,0,0-.728-.12,1.06,1.06,0,0,0-.468.165,1.03,1.03,0,0,0-.468.909,1.141,1.141,0,0,0,1.172,1.194.944.944,0,0,0,.511-.122c.045-.026.086-.058.148-.1v.874h.687v-1.934a.559.559,0,0,1,.079-.185.583.583,0,0,1,.623-.24.468.468,0,0,1,.43.489.521.521,0,0,1-.368.589,2.079,2.079,0,0,1-.329.034c-.026,0-.069.022-.072.037-.023.137-.041.274-.061.411-.008.055.019.069.07.078a1.558,1.558,0,0,0,.634-.031,1.008,1.008,0,0,0,.726-.623,1.211,1.211,0,0,0,.07-.623,1.015,1.015,0,0,0-.321-.637,1.21,1.21,0,0,0-1.449-.059.2.2,0,0,1-.037.02v-.779h3.388a.093.093,0,0,1,.044.03,1.181,1.181,0,0,1,.2.969.468.468,0,0,1-.468.358.407.407,0,0,1-.343-.22.189.189,0,0,0-.235-.086.312.312,0,0,0-.263.413.865.865,0,0,0,.1.221c.393.6.79,1.194,1.184,1.792.031.047.056.053.1.023l.385-.235.146-.094c-.324-.427-.642-.845-.968-1.27l.171-.025a.975.975,0,0,0,.644-.344,1.141,1.141,0,0,0,.223-1,3.928,3.928,0,0,0-.187-.538h.935v.109c0,.488,0,.976.025,1.463a.843.843,0,0,0,.519.764,1.412,1.412,0,0,0,.838.1.976.976,0,0,0,.873-1.005v-1.429h.748v3.453h.687v-3.452h.521v-.536Zm-7.636,1.984a.216.216,0,0,1-.056.07.792.792,0,0,1-.72.156.393.393,0,0,1-.321-.38c-.012-.429,0-.857,0-1.3h1.1Zm10.3.223a1.183,1.183,0,0,1-.055.276.528.528,0,0,1-.569.312c-.383-.031-.538-.312-.522-.673a.567.567,0,0,1,.65-.519.78.78,0,0,1,.422.156.2.2,0,0,1,.073.1Zm7.336-.323a1.319,1.319,0,0,1-.055.327.29.29,0,0,1-.207.207c-.29.089-.616.026-.636-.405s-.011-1.013-.009-1.477h.909v.084C262.237,319.782,262.24,320.2,262.234,320.625Z" transform="translate(-204.706 -267.872)" fill="navy"/>
  </g>
</svg>
