<svg xmlns="http://www.w3.org/2000/svg" width="67.16" height="65.711" viewBox="0 0 67.16 65.711">
  <g id="Sepaktakraw_Federation_of_India" data-name="Sepaktakraw Federation of India" transform="translate(0)">
    <path id="Path_15422" data-name="Path 15422" d="M20.15,40.12l-.54-2a.62.62,0,0,0-.06-.3c-.12-.81-.2-1.63-.27-2.44V33.51a17.32,17.32,0,0,1,1.37-5.66c.05-.12.15-.23.11-.37h0c.09,0,.11-.11.15-.18a17.09,17.09,0,0,1,3-4.37.2.2,0,0,0,0-.08.44.44,0,0,0,.19-.19c.55-.51,1.09-1,1.69-1.51a.26.26,0,0,0,.16-.18h0c.05,0,.09,0,.09-.07h0a.06.06,0,0,0,.08,0,25.6,25.6,0,0,1,2.26-1.46.53.53,0,0,0,.23-.13,22.121,22.121,0,0,1,2.19-.93l.63-.23a.77.77,0,0,0,.29-.1l1.44-.34a3.93,3.93,0,0,0,.68-.15.65.65,0,0,0,.31,0,21.839,21.839,0,0,1,2.29-.17.8.8,0,0,0,.15,0,.55.55,0,0,0,.38,0h.14a16.19,16.19,0,0,1,2,.14h.22a.76.76,0,0,0,.37.06l1.33.29.86.21a.85.85,0,0,0,.34.11l1.41.54a6.261,6.261,0,0,0,.67.27.87.87,0,0,0,.36.18c.61.34,1.22.68,1.81,1.05a1,1,0,0,0,.27.17c.23.17.45.33.67.51l1.25,1a.64.64,0,0,0,.24.22c.47.49,1,1,1.39,1.5l.54.64a.7.7,0,0,0,.17.24c.38.57.75,1.15,1.12,1.72a.94.94,0,0,0,.15.28,17.711,17.711,0,0,1,1,2.28.82.82,0,0,0,.1.3.049.049,0,0,0,.06.05h0a.22.22,0,0,0,0,.14c.22.61.36,1.24.52,1.87a1.09,1.09,0,0,0,.07.3c.08.61.19,1.22.23,1.83a2.475,2.475,0,0,0,.05.61.28.28,0,0,0,0,.2,1.22,1.22,0,0,0,0,.33A16.83,16.83,0,0,1,53,41.5a1.55,1.55,0,0,0-.07.23l-.06.11c-.19.38-.38.75-.59,1.13a17.14,17.14,0,0,1-2.38,3.31,1.829,1.829,0,0,1-.13.16.66.66,0,0,0-.21.23c-.28.26-.55.53-.84.78l-1,.86a.22.22,0,0,0-.13.09c-.74.54-1.52,1-2.31,1.5a1,1,0,0,0-.29.15A23.23,23.23,0,0,1,42.2,51.2a1,1,0,0,0-.34.11l-2.1.49a.68.68,0,0,0-.37.05c-.72,0-1.44.16-2.16.15h-.45a.77.77,0,0,0-.37,0c-.4-.05-.81,0-1.21-.09l-1-.1a1.57,1.57,0,0,0-.37,0c-.72-.17-1.45-.32-2.16-.52a1.46,1.46,0,0,0-.39-.12c-.69-.25-1.37-.54-2.05-.82a.88.88,0,0,0-.35-.17l-1.83-1.06a.84.84,0,0,0-.31-.22l-1.26-1a6.1,6.1,0,0,0-.62-.52.78.78,0,0,0-.26-.25,18.264,18.264,0,0,1-1.44-1.59L22.72,45a.73.73,0,0,0-.2-.26l-.67-1L21.43,43a.85.85,0,0,0-.15-.3,24.059,24.059,0,0,1-1-2.27A.77.77,0,0,0,20.15,40.12ZM50,34.66v-.73a12.23,12.23,0,0,0-1.25-4.85A13.09,13.09,0,0,0,37.9,21.74a13.24,13.24,0,0,0-4.52.41,13,13,0,0,0-9.6,13.68,11.85,11.85,0,0,0,1.27,4.51,12.93,12.93,0,0,0,10.72,7.24,12.58,12.58,0,0,0,5.5-.71A13,13,0,0,0,50,34.66ZM36.32,19c.17.61.35,1.21.52,1.81.09.29.09.29.4.28h.06c.26,0,.26,0,.32-.26.17-.82.35-1.64.53-2.46,0-.08.05-.16,0-.25h-.23c-.31,0-.31,0-.36.3-.11.54-.22,1.08-.32,1.63-.1,0-.09-.1-.11-.16-.12-.45-.24-.9-.37-1.35s-.11-.39-.52-.37-.28,0-.37.3c-.14.54-.26,1.08-.39,1.64a.52.52,0,0,1-.11-.27c-.12-.47-.23-.94-.35-1.41,0-.09,0-.21-.12-.23a1.3,1.3,0,0,0-.48,0v.31L35,20.66c.11.45.11.44.58.42.15,0,.2-.07.23-.21.13-.55.27-1.1.4-1.66A.49.49,0,0,1,36.32,19Zm-6,2.3c.09-.1.15-.15.2-.22a.75.75,0,0,0,0-1,.71.71,0,0,0-.87-.31,14.441,14.441,0,0,0-1.59.76l1.15,2.28c.21.4.1.37.54.17.13-.06.17-.12.09-.26s-.26-.5-.38-.76-.08-.18.1-.26a.53.53,0,0,1,.52,0l.88.49c.07,0,.14.1.23.05a2.19,2.19,0,0,0,.54-.32,5.32,5.32,0,0,0-1.43-.67Zm20.11,7.1.1.09a.81.81,0,0,0,1.32-.92l-.09-.2-.54-1.05c-.1-.19-.1-.19-.3-.09l-2.07,1.08c-.39.21-.37.11-.16.52.09.19.1.19.29.09l.6-.31c.09,0,.2-.17.29-.1a.47.47,0,0,1,.16.44.62.62,0,0,1-.07.23c-.09.18-.19.36-.29.54-.29.53-.29.53,0,1v.05a5.18,5.18,0,0,0,.74-1.42ZM34.67,48.13a1.62,1.62,0,0,0-.39-.13c-.11,0-.15,0-.17.1a.356.356,0,0,0,0,.15c-.12.51-.25,1-.37,1.52a.14.14,0,0,1-.1-.13c-.18-.54-.37-1.07-.52-1.62a.49.49,0,0,0-.49-.43h-.06c-.1,0-.14,0-.16.11-.06.27-.13.55-.2.82-.14.58-.28,1.16-.43,1.74,0,.12,0,.17.11.2h.18c.21,0,.21,0,.27-.16.11-.45.22-.91.32-1.36a.5.5,0,0,1,.11-.22c.19.58.39,1.13.54,1.7a.57.57,0,0,0,.53.48c.15,0,.2,0,.23-.15.13-.56.27-1.12.41-1.68A8.7,8.7,0,0,1,34.67,48.13Zm13.88-6.56.25.14c.64.33,1.28.66,1.91,1,.43.22.43.22.63-.22a.1.1,0,0,0,0-.08l-1.63-.85a17.14,17.14,0,0,1,1.86-.17.51.51,0,0,0,.53-.35c.08-.21.09-.2-.12-.31l-2-1c-.42-.22-.42-.22-.61.21a.17.17,0,0,0,0,.08c.5.29,1.05.54,1.59.85a.77.77,0,0,1-.37.07c-.45,0-.89.1-1.34.09a.65.65,0,0,0-.71.53Zm2.92-5a1.31,1.31,0,0,0-1.33.83,2,2,0,0,0-.12.47,1.28,1.28,0,0,0,.67,1.35,2,2,0,0,0,.93.26A1.34,1.34,0,0,0,53,38.32a1.32,1.32,0,0,0-.81-1.61,2.41,2.41,0,0,0-.72-.18ZM35.74,49.69h-.08V51c0,.08,0,.17.11.17a7.815,7.815,0,0,0,1.28,0,1.08,1.08,0,0,0,1-.79,2.13,2.13,0,0,0,0-1.32,1,1,0,0,0-.95-.81,11.251,11.251,0,0,0-1.16,0c-.22,0-.23,0-.23.24C35.73,48.85,35.74,49.27,35.74,49.69Zm12-27a1.07,1.07,0,0,0-.39-.86l-.93-.74c-.1-.08-.16-.08-.24,0l-.69.89-.91,1.18c-.05.06-.11.13,0,.2a10.6,10.6,0,0,0,1.09.81,1,1,0,0,0,1,0,2.11,2.11,0,0,0,1-1.34c.11.01.11-.07.12-.1ZM27.14,21.2h-.06l-.39.33a.36.36,0,0,0-.16.33,11.475,11.475,0,0,1-.05,1.31.185.185,0,0,1-.07.18l-.53-.62c-.3-.34-.2-.33-.54,0-.17.13-.16.14,0,.3l1.52,1.78c.29.33.18.35.57,0,.13-.11.11-.19,0-.29l-.34-.39a.321.321,0,0,1-.09-.27,2.242,2.242,0,0,1,.05-.55l.28.09c.35.12.69.23,1,.36.1,0,.19.07.29,0s.3-.26.45-.4a.48.48,0,0,0-.21-.09l-1.51-.45c-.29-.08-.29-.09-.28-.39S27.12,21.6,27.14,21.2Zm-5.91,7.67c-.07.23-.11.38-.16.53a.47.47,0,0,0,.05.43c.21.32.4.66.6,1a.49.49,0,0,1,.13.28,7,7,0,0,1-.82-.21c-.37-.1-.37-.11-.46.25s-.06.22.16.28l2.37.69h.12c.08,0,.14,0,.15-.09s.16-.29.07-.46-.09,0-.14-.05l-.5-.14a.32.32,0,0,1-.2-.12c-.09-.17-.19-.33-.29-.51l.15-.05,1.18-.3c.09,0,.21,0,.24-.14a4.87,4.87,0,0,0,.16-.6c-.09-.05-.14,0-.19,0l-1.6.49c-.23.07-.23.07-.35-.14Zm27.35-2.18c-.19-.25-.39-.48-.57-.73a2,2,0,0,1-.39-.56,4.74,4.74,0,0,1,.58-.47l.71.88c.22.29.24.28.5,0,.06-.06.08-.1,0-.17l-.13-.17-.71-.89.49-.39a.79.79,0,0,1,.2.21c.23.29.46.57.68.86s.18.13.29,0,0-.05.07-.06.14-.16,0-.28l-1.12-1.41a.24.24,0,0,0-.14-.12L47,25.15c-.12.09-.1.16,0,.27.34.41.68.84,1,1.26S48.22,27,48.58,26.69Zm-4-4.86a2,2,0,0,1,.15-.27c.07-.13.06-.2-.08-.26s-.49-.24-.73-.37c-.45-.22-.44-.22-.21-.64.07-.12.13-.14.24-.08l1.08.55s.11.09.17,0a.77.77,0,0,0,.19-.34c0-.12-.11-.13-.18-.17l-1.52-.77c-.2-.11-.21-.1-.31.1L42.19,21.9l-.06.16,2,1a.37.37,0,0,0,.07-.1c.19-.4.21-.3-.16-.5L43,22a.119.119,0,0,1-.12-.17,4,4,0,0,1,.33-.61Zm-22,18.42a1,1,0,0,1-.37.18c-.22.09-.22.09-.32-.15s-.29-.71-.42-1.07c-.05-.12-.11-.16-.23-.09h-.11c-.17,0-.18.12-.12.27.23.55.45,1.11.67,1.66.05.14.11.16.24.11l1.52-.61.88-.35c.12-.05.16-.11.1-.23s-.14-.34-.21-.51c-.16-.41-.33-.82-.49-1.24-.05-.14-.11-.16-.24-.1-.29.11-.3.11-.18.4l.49,1.23L23.2,40c-.15.07-.22,0-.27-.12-.13-.34-.28-.67-.4-1-.05-.13-.11-.16-.23-.1h-.11c-.14.05-.19.11-.12.27.16.43.31.82.46,1.2Zm.37,1.62a.84.84,0,0,0-.37.9,1.55,1.55,0,0,0,.59.93.75.75,0,0,0,.88.07.78.78,0,0,0,.38-.83,5.179,5.179,0,0,0-.14-.53L24.11,42a.31.31,0,0,1,.09-.34.35.35,0,0,1,.37,0,.68.68,0,0,1,.32,1c-.08.11-.15.19,0,.31s.16.19.25.27.07,0,.1,0a1,1,0,0,0,.32-1,1.7,1.7,0,0,0-.61-1,.84.84,0,0,0-1-.07.82.82,0,0,0-.39.94,2.5,2.5,0,0,0,.2.64,1.2,1.2,0,0,1,.08.42.22.22,0,0,1-.27.21c-.25,0-.6-.56-.4-.79a.26.26,0,0,0,0-.39Zm.28-6.46a1.59,1.59,0,0,0,0-.54c-.06-.16-.29-.15-.44-.23h0c-.13,0-.17-.11-.16-.24a6.49,6.49,0,0,0,0-.76.3.3,0,0,1,.24-.33c.48-.16.47-.17.45-.67v-.08h0c-.94.32-1.86.69-2.79,1a.16.16,0,0,0-.13.18V34c0,.25,0,.25.23.35l2.43,1a.37.37,0,0,0,.12.06ZM50.5,32.66l.25-.19,1.49-1.16c.2-.15.39-.31.6-.46a.24.24,0,0,0,.1-.31.42.42,0,0,1,0-.15c0-.19-.12-.28-.34-.3-.82-.05-1.64-.14-2.46-.21a.94.94,0,0,0-.41,0c.13.57.13.57.66.62h.06a.177.177,0,0,1,.19.15,6.61,6.61,0,0,0,.22.76.3.3,0,0,1-.13.38c-.41.3-.4.3-.24.78C50.46,32.59,50.48,32.61,50.5,32.66ZM26.81,25.28h-.09c-.85-.26-1.69-.52-2.53-.76-.45-.13-.31-.18-.62.19a.28.28,0,0,0,0,.39c.47.77.91,1.56,1.37,2.33a.16.16,0,0,0,.15.15c.1-.15.3-.26.31-.45s-.14-.28-.22-.43v-.05a.183.183,0,0,1,0-.24c.05-.08.34-.42.5-.64a.24.24,0,0,1,.33-.11c.16.06.34.19.49.12s.25-.26.35-.41A.13.13,0,0,1,26.81,25.28Zm7.76-4.15a1.07,1.07,0,0,0-.19-.28l-1.49-2c-.22-.28-.21-.27-.54-.2a.36.36,0,0,0-.32.37c-.06.74-.14,1.47-.2,2.21a1.84,1.84,0,0,0,0,.62c.55-.08.55-.08.61-.57a.14.14,0,0,0,0-.09c0-.16.08-.21.22-.24s.47-.12.7-.2a.26.26,0,0,1,.37.13c.29.4.3.4.78.24,0,.05.02.03.06.01Zm9.66,28.38a.75.75,0,0,0-.19-.24c-.58-.61-1.16-1.22-1.73-1.84a.57.57,0,0,1-.11-.11.2.2,0,0,0-.27-.06,1.629,1.629,0,0,1-.19.09c-.25.1-.23,0-.23.35v2.64a.44.44,0,0,0,0,.23c.56-.16.57-.16.56-.7,0-.16,0-.25.19-.3A4.93,4.93,0,0,0,43,49.3a.28.28,0,0,1,.39.1c.33.37.34.36.8.16ZM22.36,37.18c-.08-.32-.13-.61-.22-.89a.84.84,0,0,0-1.09-.55.8.8,0,0,0-.65.95c.05.41.14.82.21,1.23,0,.14.06.18.21.15l2.34-.42c.4-.08.4-.08.31-.48,0-.14-.09-.18-.23-.15ZM25.72,46a1,1,0,1,0,1-1A1,1,0,0,0,25.72,46Zm19.87,0a1,1,0,1,0,1-1A1,1,0,0,0,45.59,46ZM40.27,21.47a8.369,8.369,0,0,0,.28-.94c.08-.25.08-.25.33-.18l.79.22c.1,0,.16,0,.18-.1a.48.48,0,0,1,0-.17.144.144,0,0,0-.11-.22l-.59-.16c-.45-.13-.44-.13-.32-.58.06-.22.11-.2.3-.15l1,.27c.11,0,.2,0,.22-.11a.27.27,0,0,1,0-.12.175.175,0,0,0-.13-.26l-1.58-.44c-.15-.05-.2,0-.24.13-.1.38-.21.76-.32,1.14s-.24.88-.37,1.32c0,.14,0,.23.15.26a2.7,2.7,0,0,1,.41.09ZM23,26.35a.51.51,0,0,0-.24-.16c-.19-.1-.19-.1-.29.09-.25.48-.49,1-.74,1.43-.06.11-.11.22-.17.32s0,.16.06.2l.1.06c.21.1.21.1.32-.09a4.59,4.59,0,0,1,.32-.57l1.78.93c.4.21.42.2.59-.23,0-.08,0-.13-.06-.17l-.43-.22c-.46-.25-.93-.49-1.4-.73-.22-.12-.25-.08-.1-.36S22.91,26.51,23,26.35Zm30.45,8c0-.42-.05-.77-.08-1.12l-.06-.79c0-.06,0-.15-.07-.15a.85.85,0,0,0-.39,0c-.11,0,0,.15,0,.24v.36c0,.12,0,.25-.23.27l-1.76.14c-.54,0-.41,0-.39.47,0,.12,0,.16.17.14h.21l1.85-.15c.2,0,.2,0,.23.2a2.664,2.664,0,0,1,0,.49c0,.16,0,.13.08.14a.55.55,0,0,0,.38,0c.09-.05,0-.16,0-.25Zm-3,.84v.24c0,.37-.09.35.32.39L53,36c.4,0,.4,0,.42-.37,0-.15,0-.23-.19-.22h-.37Zm-19.09,12c0-.08,0-.09-.07-.11L31.16,47c-.29-.12-.26-.17-.39.14-.32.69-.64,1.38-.95,2.07-.18.39-.22.31.2.51.14.07.2.06.27-.09.35-.78.7-1.55,1.06-2.33a.37.37,0,0,0,.04-.1Zm8.18.76h-.25c-.2,0-.2,0-.16.25.14.76.28,1.53.43,2.29.09.45,0,.4.5.31.11,0,.16-.06.13-.19-.08-.34-.13-.69-.2-1-.09-.51-.19-1-.29-1.52-.02-.09-.02-.15-.13-.09Z" transform="translate(-3.27 -1.77)" fill="#fdeb03"/>
    <path id="Path_15423" data-name="Path 15423" d="M52.84,41.84l.06-.11a7.84,7.84,0,0,0,4,1.59,10,10,0,0,0,1.55.06,17.92,17.92,0,0,1,5,.39,8.521,8.521,0,0,1,.9.26,4.35,4.35,0,0,1,2,1.41,6.56,6.56,0,0,1,1.27,2.26.594.594,0,0,0,.08.36.57.57,0,0,1,0,.14c-.13,0-.19-.12-.26-.19a8.47,8.47,0,0,0-3.15-1.83,6.15,6.15,0,0,0-1.95-.25,27,27,0,0,1-4.41-.16,8.1,8.1,0,0,1-1-.2,2.57,2.57,0,0,1-.86-.43,14.13,14.13,0,0,1-2.51-2.25A4.26,4.26,0,0,1,52.84,41.84Z" transform="translate(-3.27 -1.77)" fill="#e32026"/>
    <path id="Path_15424" data-name="Path 15424" d="M19.63,30.2A6.4,6.4,0,0,0,18,29.4a8.85,8.85,0,0,0-4.09-.29,19,19,0,0,1-4.58.15,7.25,7.25,0,0,1-1.9-.41,3.67,3.67,0,0,1-1.14-.68,7.35,7.35,0,0,1-1.56-1.82,3.71,3.71,0,0,1-.45-1.12.9.9,0,0,1,.29.18A8.32,8.32,0,0,0,8,26.93a6.28,6.28,0,0,0,2,0,26.611,26.611,0,0,1,4.18-.28,8.47,8.47,0,0,1,.88.07,2.81,2.81,0,0,1,1.12.38,16.43,16.43,0,0,1,2.43,1.72,6.11,6.11,0,0,1,.85.91.75.75,0,0,1,.17.47Z" transform="translate(-3.27 -1.77)" fill="#e32026"/>
    <path id="Path_15425" data-name="Path 15425" d="M26,20.94h0a.28.28,0,0,1-.07-.09,7.49,7.49,0,0,0-2.59-3.17,8.9,8.9,0,0,0-1.29-.79,19.51,19.51,0,0,1-4-2.53A8.84,8.84,0,0,1,17,13.3a4,4,0,0,1-.88-1.81,6.57,6.57,0,0,1-.08-2.65,2.5,2.5,0,0,1,.2-.64.88.88,0,0,1,.15.35,8.59,8.59,0,0,0,1.41,2.57,6,6,0,0,0,2,1.65,27.09,27.09,0,0,1,3.26,1.89,9.19,9.19,0,0,1,1,.75A3,3,0,0,1,25,16.53a14.7,14.7,0,0,1,1,3.08,4.84,4.84,0,0,1,.09,1.26h0A.088.088,0,0,0,26,20.94Z" transform="translate(-3.27 -1.77)" fill="#e32026"/>
    <path id="Path_15426" data-name="Path 15426" d="M47.58,48.4a.22.22,0,0,1,.13-.09,7.94,7.94,0,0,0,3.87,4,19.94,19.94,0,0,1,4.13,2.66,8.849,8.849,0,0,1,.76.74,4.25,4.25,0,0,1,1.1,2.17,6.42,6.42,0,0,1,0,2.62,1.08,1.08,0,0,1-.18.5.59.59,0,0,1-.12-.27,8.22,8.22,0,0,0-1.9-3.15,5.68,5.68,0,0,0-1.52-1.1,29.311,29.311,0,0,1-3.47-2,9.779,9.779,0,0,1-.95-.75,2.77,2.77,0,0,1-.72-1,14.2,14.2,0,0,1-1-3,4.17,4.17,0,0,1-.13-1.33Z" transform="translate(-3.27 -1.77)" fill="#e32026"/>
    <path id="Path_15427" data-name="Path 15427" d="M8.45,16.31c.15.17.24.29.34.41a8,8,0,0,0,3.37,2.41,8.84,8.84,0,0,0,1.82.34,24,24,0,0,1,4.11.84l.51.19a2.61,2.61,0,0,1,.9.61,15.74,15.74,0,0,1,1.88,2.19A6.36,6.36,0,0,1,22,24.47a.81.81,0,0,1,.08.43.06.06,0,0,1-.09,0,7.58,7.58,0,0,0-3.69-2.14,12.36,12.36,0,0,0-1.82-.31,20.22,20.22,0,0,1-4.4-1,5.34,5.34,0,0,1-3.31-3.3,4.88,4.88,0,0,1-.32-1.84Z" transform="translate(-3.27 -1.77)" fill="#e32026"/>
    <path id="Path_15428" data-name="Path 15428" d="M54.06,39a6.79,6.79,0,0,0,2.26,1,9.05,9.05,0,0,0,3.44.13,19.29,19.29,0,0,1,4.8-.14,9.649,9.649,0,0,1,1,.19,4.25,4.25,0,0,1,2.17,1.2,7.18,7.18,0,0,1,1.36,1.79,2.68,2.68,0,0,1,.28.81.56.56,0,0,1-.27-.16,8.67,8.67,0,0,0-3.33-1.5,6.92,6.92,0,0,0-2.27,0,25.64,25.64,0,0,1-3.82.27,7.32,7.32,0,0,1-1.54-.16,1.52,1.52,0,0,1-.42-.16,15.62,15.62,0,0,1-2.65-1.83,6.46,6.46,0,0,1-.88-.93.65.65,0,0,1-.13-.51Z" transform="translate(-3.27 -1.77)" fill="#e32026"/>
    <path id="Path_15429" data-name="Path 15429" d="M70.43,39.08a.92.92,0,0,1-.33-.15,8.36,8.36,0,0,0-3.78-1,5.28,5.28,0,0,0-1.53.21,31.449,31.449,0,0,1-3.7.85,10,10,0,0,1-1.73.15,2.71,2.71,0,0,1-.89-.18A17.17,17.17,0,0,1,56,37.74a6.33,6.33,0,0,1-1.24-.94.65.65,0,0,1-.24-.37h.14a7.3,7.3,0,0,0,3.26.59,10.21,10.21,0,0,0,2.63-.45,18.49,18.49,0,0,1,3.54-.7,7.93,7.93,0,0,1,3,.16,2.78,2.78,0,0,1,.57.21,7.08,7.08,0,0,1,2.41,2.11A2.5,2.5,0,0,1,70.43,39.08Z" transform="translate(-3.27 -1.77)" fill="#e32026"/>
    <path id="Path_15430" data-name="Path 15430" d="M28.67,19.28a.53.53,0,0,1-.23.13A7,7,0,0,0,27,16.62,8.47,8.47,0,0,0,25.24,15a19.6,19.6,0,0,1-3.49-3.07,7.85,7.85,0,0,1-1.07-1.54,3.73,3.73,0,0,1-.43-1.63,7,7,0,0,1,.26-2.41,2.63,2.63,0,0,1,.4-.85,11.43,11.43,0,0,0,.38,1.63,6.67,6.67,0,0,0,2.59,3.58c.48.32.92.69,1.38,1.05A21.52,21.52,0,0,1,27,13.3c.14.14.26.28.4.43a3.26,3.26,0,0,1,.8,1.47,14.19,14.19,0,0,1,.52,3.3A7.107,7.107,0,0,1,28.67,19.28Z" transform="translate(-3.27 -1.77)" fill="#e32026"/>
    <path id="Path_15431" data-name="Path 15431" d="M31.78,18a.77.77,0,0,1-.29.1,7.69,7.69,0,0,0-1.61-3.79,8.48,8.48,0,0,0-.85-.95,20,20,0,0,1-2.66-3.08,8.72,8.72,0,0,1-1.06-1.94,3.9,3.9,0,0,1-.26-1.88,7.46,7.46,0,0,1,.56-2.23,3.62,3.62,0,0,1,.45-.76s.06-.11.16-.1a11.14,11.14,0,0,0,.06,1.29,7.77,7.77,0,0,0,.82,2.66,6,6,0,0,0,1.08,1.43,29.37,29.37,0,0,1,2.74,3.05l.32.45a3.56,3.56,0,0,1,.7,1.91,15.819,15.819,0,0,1,0,2.92q-.057.464-.16.92Z" transform="translate(-3.27 -1.77)" fill="#e32026"/>
    <path id="Path_15432" data-name="Path 15432" d="M54.4,34a.28.28,0,0,1,0-.2,8,8,0,0,0,5.4-.76,21.84,21.84,0,0,1,4.48-1.76,7,7,0,0,1,2.32-.23,3.16,3.16,0,0,1,.74.16,7.22,7.22,0,0,1,2.3,1.28,2.48,2.48,0,0,1,.76.88c-.09.05-.17,0-.26,0a8.71,8.71,0,0,0-3-.39,5.93,5.93,0,0,0-2.51.63,27.611,27.611,0,0,1-4,1.7c-.35.11-.7.2-1.06.28a3.32,3.32,0,0,1-1.5-.11,13.63,13.63,0,0,1-2.57-.79A5.11,5.11,0,0,1,54.4,34Z" transform="translate(-3.27 -1.77)" fill="#e32026"/>
    <path id="Path_15433" data-name="Path 15433" d="M22.52,44.73a.73.73,0,0,1,.2.26,8.29,8.29,0,0,0-3.6,3.26c-.18.3-.33.63-.51.94a19.29,19.29,0,0,1-2.3,3.32,10.55,10.55,0,0,1-.95.94,4.43,4.43,0,0,1-2.32,1,6.85,6.85,0,0,1-2.39,0,3.28,3.28,0,0,1-.65-.21.32.32,0,0,1,.2-.1,8.52,8.52,0,0,0,3.18-1.73,5.89,5.89,0,0,0,1.29-1.64,26.46,26.46,0,0,1,2.22-3.53l.34-.42a3.56,3.56,0,0,1,1.52-1.13,15.5,15.5,0,0,1,2.93-.89C22,44.78,22.24,44.77,22.52,44.73Z" transform="translate(-3.27 -1.77)" fill="#e32026"/>
    <path id="Path_15434" data-name="Path 15434" d="M19.28,35.12v.23a7.59,7.59,0,0,0-3.9.17,8.529,8.529,0,0,0-1.63.65,19.38,19.38,0,0,1-4.41,1.71,7.26,7.26,0,0,1-2.08.23,3.42,3.42,0,0,1-.89-.17A7.56,7.56,0,0,1,4.11,36.7a3.72,3.72,0,0,1-.6-.59,1.21,1.21,0,0,1-.24-.35c.1-.06.18,0,.26,0a8.48,8.48,0,0,0,3.57.35A6,6,0,0,0,9,35.56a27.45,27.45,0,0,1,3.9-1.68l.64-.19a3.2,3.2,0,0,1,1.71,0c.58.14,1.17.26,1.74.44a8.52,8.52,0,0,1,2.29.99Z" transform="translate(-3.27 -1.77)" fill="#e32026"/>
    <path id="Path_15435" data-name="Path 15435" d="M19.17,32.82a6.37,6.37,0,0,0-1.1-.4,8.29,8.29,0,0,0-4.42.06,24.36,24.36,0,0,1-3.68.79,9.25,9.25,0,0,1-3.06,0,3.62,3.62,0,0,1-1.26-.5,7.93,7.93,0,0,1-1.73-1.49,4.58,4.58,0,0,1-.59-.91.38.38,0,0,1-.06-.22.91.91,0,0,1,.28.13,8.31,8.31,0,0,0,3.51,1A5.75,5.75,0,0,0,9,31a29.85,29.85,0,0,1,3.94-.88,8.21,8.21,0,0,1,1.64-.09,1.45,1.45,0,0,1,.51.11,15.8,15.8,0,0,1,2.83,1.39,7.05,7.05,0,0,1,1.09.87A.6.6,0,0,1,19.17,32.82Z" transform="translate(-3.27 -1.77)" fill="#e32026"/>
    <path id="Path_15436" data-name="Path 15436" d="M19.55,37.79a.62.62,0,0,1,.06.3,8.17,8.17,0,0,0-5.16,1.46,20.24,20.24,0,0,1-4.24,2.24A7.14,7.14,0,0,1,8,42.25a4,4,0,0,1-1-.12,7.67,7.67,0,0,1-2.27-1,4.16,4.16,0,0,1-.61-.5l-.24-.27a.76.76,0,0,1,.35,0,8,8,0,0,0,4.32-.33,5.78,5.78,0,0,0,1.1-.58,26.17,26.17,0,0,1,3.74-2.14,6,6,0,0,1,1.44-.48,3.46,3.46,0,0,1,.79,0,12.46,12.46,0,0,1,3.3.65,6,6,0,0,1,.63.31Z" transform="translate(-3.27 -1.77)" fill="#e32026"/>
    <path id="Path_15437" data-name="Path 15437" d="M45,50.05a1,1,0,0,1,.29-.15,7.88,7.88,0,0,0,2.46,3.74c.21.19.43.36.66.53a19.84,19.84,0,0,1,3.4,2.94,10.639,10.639,0,0,1,.74.92,4.74,4.74,0,0,1,.9,3.39,5.94,5.94,0,0,1-.4,1.81,1.78,1.78,0,0,1-.26.45,2.685,2.685,0,0,0-.11-.59A8.17,8.17,0,0,0,51.37,60,6.16,6.16,0,0,0,50,58.61a27.44,27.44,0,0,1-3.28-2.71l-.21-.22a3.8,3.8,0,0,1-1.08-1.93A16,16,0,0,1,45,51,5.025,5.025,0,0,1,45,50.05Z" transform="translate(-3.27 -1.77)" fill="#e32026"/>
    <path id="Path_15438" data-name="Path 15438" d="M51.05,24.46a.7.7,0,0,1-.17-.24A8.1,8.1,0,0,0,54.51,21a3.5,3.5,0,0,0,.24-.42,19.71,19.71,0,0,1,2.76-4.07,9.35,9.35,0,0,1,1-.91,4.27,4.27,0,0,1,2-.89,6.94,6.94,0,0,1,2.57,0,2,2,0,0,1,.6.22l-.29.09A8.35,8.35,0,0,0,60,17a6.2,6.2,0,0,0-1,1.34,27.449,27.449,0,0,1-2.21,3.53c-.09.13-.2.26-.3.38a3.75,3.75,0,0,1-1.68,1.25,15,15,0,0,1-2.94.87C51.62,24.41,51.34,24.43,51.05,24.46Z" transform="translate(-3.27 -1.77)" fill="#e32026"/>
    <path id="Path_15439" data-name="Path 15439" d="M52.32,26.46a.94.94,0,0,1-.15-.28,7.45,7.45,0,0,0,3.14-1.66,8.52,8.52,0,0,0,1.33-1.42,19.64,19.64,0,0,1,3.18-3.39,7.83,7.83,0,0,1,1.49-1,3.81,3.81,0,0,1,1.31-.39,7.21,7.21,0,0,1,2.88.28,2.9,2.9,0,0,1,.81.4c-.31.05-.58.09-.85.15a8.06,8.06,0,0,0-2.86,1.14,5.9,5.9,0,0,0-1.46,1.36,28.7,28.7,0,0,1-2.72,3.11l-.33.31a3.93,3.93,0,0,1-2.15,1.07,20.21,20.21,0,0,1-2.46.34A8.983,8.983,0,0,1,52.32,26.46Z" transform="translate(-3.27 -1.77)" fill="#e32026"/>
    <path id="Path_15440" data-name="Path 15440" d="M31.28,51.14a1.46,1.46,0,0,1,.39.12,7.87,7.87,0,0,0-1,2.65,9.57,9.57,0,0,0-.12,2.39,17.7,17.7,0,0,1-.21,5.24,7.249,7.249,0,0,1-.26.91,4.07,4.07,0,0,1-1.13,1.7,7.42,7.42,0,0,1-2,1.32,3,3,0,0,1-.9.25.79.79,0,0,1,.2-.27A8.18,8.18,0,0,0,28,62a7.12,7.12,0,0,0,.07-2.11,23.91,23.91,0,0,1,0-4.23,3.48,3.48,0,0,1,.64-1.74,13.38,13.38,0,0,1,2.57-2.78Z" transform="translate(-3.27 -1.77)" fill="#e32026"/>
    <path id="Path_15441" data-name="Path 15441" d="M65.22,52.78a15.761,15.761,0,0,0-1.49-1.46,6.76,6.76,0,0,0-2.85-1.44c-.49-.11-1-.13-1.5-.21a22.809,22.809,0,0,1-3.92-.84A3.5,3.5,0,0,1,54,47.92a16.219,16.219,0,0,1-1.73-2.07,5.59,5.59,0,0,1-.63-1.15.56.56,0,0,1-.07-.42h.11a7.74,7.74,0,0,0,3.73,2.11,15.189,15.189,0,0,0,1.89.31,19.82,19.82,0,0,1,4.3,1A5.24,5.24,0,0,1,64.85,51a4.72,4.72,0,0,1,.37,1.62Z" transform="translate(-3.27 -1.77)" fill="#e32026"/>
    <path id="Path_15442" data-name="Path 15442" d="M49,22.08a.64.64,0,0,1-.24-.22,7.33,7.33,0,0,0,2.54-2.44,8.5,8.5,0,0,0,.89-1.72A19.68,19.68,0,0,1,53.94,14a11.879,11.879,0,0,1,1-1.34,4.43,4.43,0,0,1,2.28-1.43,7.22,7.22,0,0,1,2.3-.23,2.36,2.36,0,0,1,.74.14c-.07.1-.18.11-.27.15a8.34,8.34,0,0,0-2.9,2.12,6,6,0,0,0-1,1.71,27.439,27.439,0,0,1-1.5,3.32,10.67,10.67,0,0,1-.8,1.29,2.93,2.93,0,0,1-.92.83,14.84,14.84,0,0,1-3,1.36C49.54,22,49.24,22,49,22.08Z" transform="translate(-3.27 -1.77)" fill="#e32026"/>
    <path id="Path_15443" data-name="Path 15443" d="M34.21,17.49a.65.65,0,0,1-.31,0,8.06,8.06,0,0,0-1.61-5.08,19.37,19.37,0,0,1-2.38-4.23,7.93,7.93,0,0,1-.42-1.59,3.52,3.52,0,0,1,0-1.21,7.27,7.27,0,0,1,1-2.51,3.8,3.8,0,0,1,.75-.82,6.2,6.2,0,0,1-.11.83,7.64,7.64,0,0,0,.45,3.7,5.82,5.82,0,0,0,.65,1.17,27.55,27.55,0,0,1,2,3.19,7.35,7.35,0,0,1,.77,1.8,1.11,1.11,0,0,1,0,.36,13.75,13.75,0,0,1-.56,3.66A2.572,2.572,0,0,1,34.21,17.49Z" transform="translate(-3.27 -1.77)" fill="#e32026"/>
    <path id="Path_15444" data-name="Path 15444" d="M46.79,20.35a1,1,0,0,1-.27-.17,7.48,7.48,0,0,0,2.12-2.74,10.43,10.43,0,0,0,.73-2.32,18.42,18.42,0,0,1,1.34-3.93,7.9,7.9,0,0,1,1-1.57,3.66,3.66,0,0,1,1.24-1,7.52,7.52,0,0,1,2.38-.8,5.33,5.33,0,0,1,1,0c0,.11-.1.13-.16.17a9,9,0,0,0-2,1.68,6.3,6.3,0,0,0-1.44,2.87,25,25,0,0,1-1.15,3.9L51.3,17a3.39,3.39,0,0,1-1,1.29,16.66,16.66,0,0,1-2.41,1.58A5.87,5.87,0,0,1,46.79,20.35Z" transform="translate(-3.27 -1.77)" fill="#e32026"/>
    <path id="Path_15445" data-name="Path 15445" d="M24.17,22.63a.44.44,0,0,1-.19.19,8,8,0,0,0-4.32-3.12,22,22,0,0,1-4.26-1.77,8.27,8.27,0,0,1-1.72-1.28,3.71,3.71,0,0,1-.79-1.18,6.9,6.9,0,0,1-.6-2.72,3.73,3.73,0,0,1,.09-.71.49.49,0,0,1,.17.23A8.2,8.2,0,0,0,14.88,15a5.88,5.88,0,0,0,1.78.91,29.88,29.88,0,0,1,3.66,1.38,10.19,10.19,0,0,1,1.17.64,2.84,2.84,0,0,1,.83.79,17.27,17.27,0,0,1,1.37,2.4,7,7,0,0,1,.48,1.51Z" transform="translate(-3.27 -1.77)" fill="#e32026"/>
    <path id="Path_15446" data-name="Path 15446" d="M54.1,31.4a1.09,1.09,0,0,1-.07-.3,8.27,8.27,0,0,0,4.74-1.17c.33-.19.63-.41.95-.61a17.75,17.75,0,0,1,4-2A6.18,6.18,0,0,1,65.51,27a3.72,3.72,0,0,1,1.2.13,7.23,7.23,0,0,1,2.26,1,3.62,3.62,0,0,1,.77.7.28.28,0,0,1-.22,0,8.13,8.13,0,0,0-4.32.26,6,6,0,0,0-1.2.61,26.79,26.79,0,0,1-3.64,2.09c-.26.12-.54.23-.81.34a2.93,2.93,0,0,1-1.31.19,13.64,13.64,0,0,1-3.48-.66Z" transform="translate(-3.27 -1.77)" fill="#e32026"/>
    <path id="Path_15447" data-name="Path 15447" d="M21.28,42.72a.85.85,0,0,1,.15.3,7.51,7.51,0,0,0-3.12,1.7,8.07,8.07,0,0,0-1.26,1.35,19.33,19.33,0,0,1-3.25,3.45,9.14,9.14,0,0,1-1.23.83,4.19,4.19,0,0,1-2,.53,6.94,6.94,0,0,1-2.48-.36,2.94,2.94,0,0,1-.69-.34,1.31,1.31,0,0,1,.36-.08,8.28,8.28,0,0,0,3.61-1.42,5.32,5.32,0,0,0,1.17-1.15,29.7,29.7,0,0,1,2.54-3l.2-.19A4.38,4.38,0,0,1,17.84,43c.76-.12,1.52-.27,2.28-.32A7.459,7.459,0,0,1,21.28,42.72Z" transform="translate(-3.27 -1.77)" fill="#e32026"/>
    <path id="Path_15448" data-name="Path 15448" d="M26.74,48.87a.84.84,0,0,1,.31.22,8,8,0,0,0-2.64,4.54A19.88,19.88,0,0,1,23,58a8,8,0,0,1-.94,1.56,3.9,3.9,0,0,1-1.33,1.09,7.38,7.38,0,0,1-2.5.79,2.64,2.64,0,0,1-.84,0c0-.09.12-.12.18-.16a8.53,8.53,0,0,0,2.3-2.1,6,6,0,0,0,1.08-2.36,24.92,24.92,0,0,1,1.14-3.9l.18-.45a3.7,3.7,0,0,1,1.29-1.66,15.32,15.32,0,0,1,2.35-1.5A3.689,3.689,0,0,1,26.74,48.87Z" transform="translate(-3.27 -1.77)" fill="#e32026"/>
    <path id="Path_15449" data-name="Path 15449" d="M28.88,50.15a.88.88,0,0,1,.35.17,7.81,7.81,0,0,0-1.85,4.16c-.09.65-.11,1.3-.18,1.94a15.51,15.51,0,0,1-1,4.13,6.58,6.58,0,0,1-.42.84,3.76,3.76,0,0,1-1.12,1.23,7.22,7.22,0,0,1-2.33,1.14,2.65,2.65,0,0,1-.84.1c0-.11.1-.14.15-.19A8.25,8.25,0,0,0,24,60.59a6,6,0,0,0,.39-1.84A24.26,24.26,0,0,1,25,54.28a1.85,1.85,0,0,1,.18-.58,2.57,2.57,0,0,1,.57-1c.37-.38.73-.77,1.12-1.12a10.36,10.36,0,0,1,2.01-1.43Z" transform="translate(-3.27 -1.77)" fill="#e32026"/>
    <path id="Path_15450" data-name="Path 15450" d="M42.27,18.14a.85.85,0,0,1-.34-.11,7.81,7.81,0,0,0,1.24-4.89,28,28,0,0,1-.07-3.55,11.07,11.07,0,0,1,.47-2.69A4.14,4.14,0,0,1,44.77,5a7.45,7.45,0,0,1,1.9-1.3,3.3,3.3,0,0,1,.93-.26c0,.12-.11.18-.17.25A8.07,8.07,0,0,0,45.69,7a6.27,6.27,0,0,0-.13,2,22.47,22.47,0,0,1,0,4.71A3.13,3.13,0,0,1,45,15.19c-.38.5-.74,1-1.15,1.49a10.2,10.2,0,0,1-1.58,1.46Z" transform="translate(-3.27 -1.77)" fill="#e32026"/>
    <path id="Path_15451" data-name="Path 15451" d="M20.81,27.45a.244.244,0,0,1-.15-.08,7.4,7.4,0,0,0-3.44-1.44,8.93,8.93,0,0,0-2-.12,22.2,22.2,0,0,1-3.46-.13A10.49,10.49,0,0,1,9.11,25a4.11,4.11,0,0,1-1.52-1,6.94,6.94,0,0,1-1.37-2.21A1.86,1.86,0,0,1,6.07,21c.13,0,.19.14.27.21A8.22,8.22,0,0,0,9.77,23.1a5.61,5.61,0,0,0,1.53.16c1.17,0,2.33,0,3.5.06a10.36,10.36,0,0,1,1.92.29,2.6,2.6,0,0,1,1,.45,14,14,0,0,1,2.4,2.14,5.27,5.27,0,0,1,.63.86.58.58,0,0,1,.11.4Z" transform="translate(-3.27 -1.77)" fill="#e32026"/>
    <path id="Path_15452" data-name="Path 15452" d="M49.53,46.67a.66.66,0,0,1,.21-.23,8.09,8.09,0,0,0,4.35,3.06,20.82,20.82,0,0,1,4.27,1.81A8,8,0,0,1,60,52.52a3.65,3.65,0,0,1,.8,1.21,6.36,6.36,0,0,1,.58,2.92,1.941,1.941,0,0,1,0,.24,2,2,0,0,1-.05.24c-.12-.05-.13-.16-.18-.24a8.28,8.28,0,0,0-2.29-2.73,5.88,5.88,0,0,0-1.78-.91,29.88,29.88,0,0,1-3.66-1.38l-.14-.07a4.19,4.19,0,0,1-2.37-2.12,10.66,10.66,0,0,1-1.3-2.8A.605.605,0,0,1,49.53,46.67Z" transform="translate(-3.27 -1.77)" fill="#e32026"/>
    <path id="Path_15453" data-name="Path 15453" d="M36.41,52a.77.77,0,0,1,.37,0,8.06,8.06,0,0,0,.52,4.75c.24.58.54,1.13.78,1.72a17.24,17.24,0,0,1,1,3.39,4.94,4.94,0,0,1,0,2.23,6.06,6.06,0,0,1-2.23,3.31c-.06,0-.11.09-.19.08h0a12.55,12.55,0,0,0,.48-1.85,6.53,6.53,0,0,0-.53-3.94,25,25,0,0,1-1.53-3.93,7,7,0,0,1-.2-.91,2.59,2.59,0,0,1,0-1c.13-.53.27-1.06.44-1.58A9.78,9.78,0,0,1,36.41,52Z" transform="translate(-3.27 -1.77)" fill="#e32026"/>
    <path id="Path_15454" data-name="Path 15454" d="M53.46,29a.82.82,0,0,1-.1-.3A8,8,0,0,0,57.78,27c.46-.35.87-.76,1.32-1.12a16.73,16.73,0,0,1,3.3-2.22A5.84,5.84,0,0,1,64.56,23a5.48,5.48,0,0,1,1.66.2,6,6,0,0,1,1.79.71,3.11,3.11,0,0,1,.57.45h-.43a8.41,8.41,0,0,0-3.22.48A6.08,6.08,0,0,0,63,26a29.641,29.641,0,0,1-2.85,2.28,13.149,13.149,0,0,1-1.3.78,2.82,2.82,0,0,1-1.13.32,15.34,15.34,0,0,1-3.52-.16,2.88,2.88,0,0,0-.65-.13h0C53.53,29,53.49,29.05,53.46,29Z" transform="translate(-3.27 -1.77)" fill="#e32026"/>
    <path id="Path_15455" data-name="Path 15455" d="M41.86,51.31a1,1,0,0,1,.34-.11,8.1,8.1,0,0,0,2,4.18l.36.37a20.19,20.19,0,0,1,2.74,3.17,9.38,9.38,0,0,1,1,1.86,4.24,4.24,0,0,1,.24,2.15,7,7,0,0,1-.63,2.2,3,3,0,0,1-.48.71,4.532,4.532,0,0,0-.07-1,7.73,7.73,0,0,0-.7-2.84,5.5,5.5,0,0,0-1.14-1.56,28.91,28.91,0,0,1-2.63-2.91l-.15-.2a4,4,0,0,1-1.05-2.93,11.54,11.54,0,0,1,0-1.95,9,9,0,0,1,.17-1.14Z" transform="translate(-3.27 -1.77)" fill="#e32026"/>
    <path id="Path_15456" data-name="Path 15456" d="M24.6,47.12a.78.78,0,0,1,.26.25,8.17,8.17,0,0,0-3.15,3.7c-.2.44-.35.9-.55,1.35a17.91,17.91,0,0,1-1.81,3.33,8.81,8.81,0,0,1-.83,1,4.24,4.24,0,0,1-1.9,1.15,7.69,7.69,0,0,1-2.28.35,4.18,4.18,0,0,1-.92-.14c.07-.12.18-.13.27-.17a8.5,8.5,0,0,0,2.88-2.09,5.74,5.74,0,0,0,1.06-1.76,28.32,28.32,0,0,1,1.53-3.37,9.87,9.87,0,0,1,.77-1.24,3,3,0,0,1,.9-.8A14.16,14.16,0,0,1,24,47.28Z" transform="translate(-3.27 -1.77)" fill="#e32026"/>
    <path id="Path_15457" data-name="Path 15457" d="M37,17.29a.55.55,0,0,1-.38,0,7.81,7.81,0,0,0-.47-5,22.64,22.64,0,0,1-1.39-4.14,8.6,8.6,0,0,1-.22-2.08A3.88,3.88,0,0,1,35,4.35a7.64,7.64,0,0,1,1.37-1.92,4.15,4.15,0,0,1,.5-.43,2,2,0,0,1,.4-.23.329.329,0,0,1-.05.22,8.27,8.27,0,0,0-.63,3.29,5.52,5.52,0,0,0,.47,2.19,27.17,27.17,0,0,1,1.43,4,6.94,6.94,0,0,1,.2,1,2.52,2.52,0,0,1-.06,1c-.18.6-.35,1.19-.58,1.76A9.19,9.19,0,0,1,37,17.29Z" transform="translate(-3.27 -1.77)" fill="#e32026"/>
    <path id="Path_15458" data-name="Path 15458" d="M20.15,40.12a.77.77,0,0,1,.12.33,8.15,8.15,0,0,0-4.83,2.14,20.77,20.77,0,0,1-3.72,2.72,9.18,9.18,0,0,1-1.35.62,4.25,4.25,0,0,1-2.18.22,7.15,7.15,0,0,1-2.46-.82,1.55,1.55,0,0,1-.58-.47h0a.61.61,0,0,1,.3,0A8.55,8.55,0,0,0,9,44.26a6,6,0,0,0,1.66-1,29.7,29.7,0,0,1,3.13-2.46,7.77,7.77,0,0,1,1.43-.8,2.33,2.33,0,0,1,.74-.16c.59,0,1.17-.05,1.76,0A10.4,10.4,0,0,1,20.15,40.12Z" transform="translate(-3.27 -1.77)" fill="#e32026"/>
    <path id="Path_15459" data-name="Path 15459" d="M33.83,51.78a1.57,1.57,0,0,1,.37,0A7.36,7.36,0,0,0,33.68,55a11.39,11.39,0,0,0,.49,2.59,17.74,17.74,0,0,1,.67,4.09,7.14,7.14,0,0,1-.21,2.11,3.27,3.27,0,0,1-.29.73,7,7,0,0,1-2,2.18,3,3,0,0,1-.83.44h0a1,1,0,0,1,.16-.33,8,8,0,0,0,1-3.78,5.39,5.39,0,0,0-.21-1.44,27.651,27.651,0,0,1-.86-3.94,5.84,5.84,0,0,1,0-1.82,1.57,1.57,0,0,1,.08-.29,15.18,15.18,0,0,1,1.45-2.8,6.93,6.93,0,0,1,.7-.96Z" transform="translate(-3.27 -1.77)" fill="#e32026"/>
    <path id="Path_15460" data-name="Path 15460" d="M39.39,51.85a.68.68,0,0,1,.37-.05,8.05,8.05,0,0,0,1.58,4.86,20.36,20.36,0,0,1,2.34,4.08,7.09,7.09,0,0,1,.54,2.08,3.94,3.94,0,0,1-.07,1A7.54,7.54,0,0,1,43.28,66a4.15,4.15,0,0,1-.66.84.62.62,0,0,1-.25.19,9.62,9.62,0,0,0,.17-2,6.6,6.6,0,0,0-1.23-3.81,22.89,22.89,0,0,1-2.06-3.34,6.09,6.09,0,0,1-.3-.63,3.44,3.44,0,0,1-.32-1.71,12.9,12.9,0,0,1,.76-3.69Z" transform="translate(-3.27 -1.77)" fill="#e32026"/>
    <path id="Path_15461" data-name="Path 15461" d="M39.74,17.53a.76.76,0,0,1-.37-.06,7.74,7.74,0,0,0,.49-3,9.09,9.09,0,0,0-.33-2.13,18.49,18.49,0,0,1-.83-4.9,6.74,6.74,0,0,1,.19-1.84,3.13,3.13,0,0,1,.32-.78A7.11,7.11,0,0,1,41.1,2.69a3.37,3.37,0,0,1,1-.52l-.1.24a8.58,8.58,0,0,0-1.09,3.42,5.59,5.59,0,0,0,.2,2,28.7,28.7,0,0,1,.85,3.89A8.51,8.51,0,0,1,42,13.18a2.16,2.16,0,0,1-.17.8c-.18.37-.33.74-.51,1.11a10.4,10.4,0,0,1-1.58,2.44Z" transform="translate(-3.27 -1.77)" fill="#e32026"/>
    <path id="Path_15462" data-name="Path 15462" d="M44.71,19.13a.87.87,0,0,1-.36-.18,7.92,7.92,0,0,0,1.79-4c.11-.65.11-1.3.18-1.94a17.1,17.1,0,0,1,.85-3.94,6.74,6.74,0,0,1,.38-.87A4.17,4.17,0,0,1,49,6.59,6.86,6.86,0,0,1,51.48,5.5a3,3,0,0,1,.52,0c0,.1-.08.13-.13.18a8.32,8.32,0,0,0-2.22,3,5.5,5.5,0,0,0-.45,1.92,28.938,28.938,0,0,1-.5,3.82c-.05.27-.12.54-.19.8a3.6,3.6,0,0,1-.95,1.67,16.06,16.06,0,0,1-2.25,1.95A2.529,2.529,0,0,0,44.71,19.13Z" transform="translate(-3.27 -1.77)" fill="#e32026"/>
    <path id="Path_15463" data-name="Path 15463" d="M70.42,33.45h0V33.4h0Z" transform="translate(-3.27 -1.77)" fill="#e32026"/>
    <path id="Path_15464" data-name="Path 15464" d="M2.82,42.79l-.01-.02v.03Z" fill="#e32026"/>
    <path id="Path_15465" data-name="Path 15465" d="M36.32,19a.49.49,0,0,0-.11.26c-.13.56-.27,1.11-.4,1.66,0,.14-.08.2-.23.21-.47,0-.47,0-.58-.42l-.57-2.18v-.31a1.3,1.3,0,0,1,.48,0c.12,0,.1.14.12.23.12.47.23.94.35,1.41a.52.52,0,0,0,.11.27c.13-.56.25-1.1.39-1.64.09-.34,0-.29.37-.3s.41,0,.52.37.25.9.37,1.35a.135.135,0,0,0,.11.16c.1-.55.21-1.09.32-1.63.05-.3.05-.3.36-.3h.23c.06.09,0,.17,0,.25-.18.82-.36,1.64-.53,2.46-.06.25-.06.25-.32.26h-.06c-.31,0-.31,0-.4-.28C36.67,20.16,36.49,19.56,36.32,19Z" transform="translate(-3.27 -1.77)" fill="#403781"/>
    <path id="Path_15466" data-name="Path 15466" d="M30.3,21.25a5.32,5.32,0,0,1,1.42.68,2.19,2.19,0,0,1-.54.32c-.09.05-.16,0-.23-.05l-.88-.49a.53.53,0,0,0-.52,0c-.18.08-.19.09-.1.26s.24.51.38.76,0,.2-.09.26c-.44.2-.33.23-.54-.17l-1.15-2.28a14.44,14.44,0,0,1,1.59-.76.71.71,0,0,1,.87.31.75.75,0,0,1,0,1C30.45,21.1,30.39,21.15,30.3,21.25Zm-.22-.59a.35.35,0,0,0-.48-.34c-.1,0-.2.09-.3.13-.55.28-.55.29-.21.8h0a.1.1,0,0,0,.15,0,5.12,5.12,0,0,0,.69-.37.31.31,0,0,0,.15-.22Z" transform="translate(-3.27 -1.77)" fill="#403781"/>
    <path id="Path_15467" data-name="Path 15467" d="M50.41,28.35a5.18,5.18,0,0,1-.68,1.42v-.05c-.32-.52-.32-.52,0-1,.1-.18.2-.36.29-.54A.62.62,0,0,0,50,27.9a.47.47,0,0,0-.16-.44c-.09-.07-.2.06-.29.1l-.6.31c-.19.1-.2.1-.29-.09-.21-.41-.23-.31.16-.52l2.07-1.08c.2-.1.2-.1.3.09l.54,1.05.09.2a.81.81,0,0,1-1.32.92Zm.52-1.51-.54.29c-.08,0-.11.07-.07.16s.23.43.36.64a.36.36,0,1,0,.62-.36C51.19,27.34,51.07,27.1,50.93,26.84Z" transform="translate(-3.27 -1.77)" fill="#403781"/>
    <path id="Path_15468" data-name="Path 15468" d="M34.67,48.13c-.08.32-.15.64-.23,1-.14.56-.28,1.12-.41,1.68,0,.14-.08.17-.23.15a.57.57,0,0,1-.53-.48c-.15-.57-.35-1.12-.54-1.7a.5.5,0,0,0-.11.22c-.1.45-.21.91-.32,1.36-.06.21-.06.21-.27.16h-.18c-.11,0-.14-.08-.11-.2.15-.58.29-1.16.43-1.74.07-.27.14-.55.2-.82,0-.1.06-.16.16-.11h.06a.49.49,0,0,1,.49.43c.15.55.34,1.08.52,1.62a.14.14,0,0,0,.1.13c.12-.51.25-1,.37-1.52v-.15a.12.12,0,0,1,.17-.1A1.62,1.62,0,0,1,34.67,48.13Z" transform="translate(-3.27 -1.77)" fill="#403781"/>
    <path id="Path_15469" data-name="Path 15469" d="M48.55,41.57a.65.65,0,0,1,.71-.53c.45,0,.89-.06,1.34-.09a.77.77,0,0,0,.37-.07c-.54-.31-1.09-.56-1.59-.85a.17.17,0,0,1,0-.08c.19-.43.19-.43.61-.21l2,1c.21.11.2.1.12.31a.51.51,0,0,1-.53.35,17.139,17.139,0,0,0-1.86.17l1.63.85a.1.1,0,0,1,0,.08c-.2.44-.2.44-.63.22-.63-.34-1.27-.67-1.91-1Z" transform="translate(-3.27 -1.77)" fill="#403781"/>
    <path id="Path_15470" data-name="Path 15470" d="M51.47,36.53a2.41,2.41,0,0,1,.75.18A1.32,1.32,0,0,1,53,38.32a1.34,1.34,0,0,1-1.41,1.12,2,2,0,0,1-.93-.26A1.28,1.28,0,0,1,50,37.83a2,2,0,0,1,.12-.47,1.31,1.31,0,0,1,1.35-.83Zm.2,2.3a.79.79,0,0,0,.85-.6.76.76,0,0,0-.43-.91,1.91,1.91,0,0,0-.7-.18.8.8,0,0,0-.84.61.76.76,0,0,0,.47.91,1.7,1.7,0,0,0,.65.17Z" transform="translate(-3.27 -1.77)" fill="#403781"/>
    <path id="Path_15471" data-name="Path 15471" d="M35.74,49.69V48.44c0-.24,0-.25.23-.24a11.248,11.248,0,0,1,1.16,0,1,1,0,0,1,.95.81,2.13,2.13,0,0,1,0,1.32,1.08,1.08,0,0,1-1,.79H35.8c-.13,0-.11-.09-.11-.17V49.69Zm.59,0h-.06v.82c0,.1,0,.15.14.16s.4,0,.61,0a.48.48,0,0,0,.41-.31,1.89,1.89,0,0,0,0-1.22.52.52,0,0,0-.41-.37h-.58c-.19,0-.16,0-.16.15Z" transform="translate(-3.27 -1.77)" fill="#403781"/>
    <path id="Path_15472" data-name="Path 15472" d="M47.79,22.73v.18a2.11,2.11,0,0,1-1,1.34,1,1,0,0,1-1,0,10.6,10.6,0,0,1-1.09-.81c-.1-.07,0-.14,0-.2l.91-1.18.69-.89c.08-.11.14-.11.24,0l.93.74a1.07,1.07,0,0,1,.32.82Zm-.58-.09a.58.58,0,0,0-.16-.39,3.48,3.48,0,0,0-.3-.26c-.27-.21-.23-.22-.44,0a8.757,8.757,0,0,0-.64.84c-.21.29-.34.3-.3.46s.28.27.44.39l.22.1a.33.33,0,0,0,.32,0,1.76,1.76,0,0,0,.85-1.09A.25.25,0,0,0,47.21,22.64Z" transform="translate(-3.27 -1.77)" fill="#403781"/>
    <path id="Path_15473" data-name="Path 15473" d="M27.14,21.2c0,.4-.05.81-.07,1.21s0,.31.28.39l1.51.45a.48.48,0,0,1,.21.09c-.15.14-.31.26-.45.4s-.19.05-.29,0c-.34-.13-.68-.24-1-.36L27,23.31a2.015,2.015,0,0,1-.05.55c-.05.18,0,.17.1.25l.34.39c.1.1.12.18,0,.29-.39.31-.28.29-.57,0L25.31,23c-.13-.16-.14-.17,0-.3.34-.29.24-.3.54,0l.53.62c.11,0,.06-.12.07-.18a11.475,11.475,0,0,1,.05-1.31.36.36,0,0,1,.16-.33l.39-.33Z" transform="translate(-3.27 -1.77)" fill="#403781"/>
    <path id="Path_15474" data-name="Path 15474" d="M21.23,28.87,21.9,30c.12.21.12.21.35.14l1.6-.49a.19.19,0,0,1,.19,0,4.87,4.87,0,0,1-.16.6c0,.12-.15.12-.24.14l-1.18.3-.15.05c.1.18.2.34.29.51a.32.32,0,0,0,.2.12l.5.14c.05,0,.12,0,.14.05a2.866,2.866,0,0,1-.07.46c-.02.15-.07.11-.15.09H23.1l-2.37-.69c-.22-.06-.22-.07-.16-.28s.09-.35.46-.25a7,7,0,0,0,.82.21.49.49,0,0,0-.13-.28c-.2-.33-.39-.67-.6-1a.47.47,0,0,1-.05-.43C21.12,29.25,21.16,29.1,21.23,28.87Z" transform="translate(-3.27 -1.77)" fill="#403781"/>
    <path id="Path_15475" data-name="Path 15475" d="M48.58,26.69c-.36.34-.36.34-.64,0s-.67-.85-1-1.26c-.08-.11-.1-.18,0-.27l2.14-1.7a.24.24,0,0,1,.14.12L50.35,25c.11.12.1.2,0,.28a.6.6,0,0,0-.07.06.2.2,0,0,1-.29,0c-.1-.11-.45-.57-.68-.86a.79.79,0,0,0-.2-.21l-.49.39.71.89.13.17c.06.07,0,.11,0,.17-.26.25-.28.26-.5,0l-.71-.88a4.74,4.74,0,0,0-.58.47A2,2,0,0,0,48,26C48.19,26.21,48.39,26.44,48.58,26.69Z" transform="translate(-3.27 -1.77)" fill="#403781"/>
    <path id="Path_15476" data-name="Path 15476" d="M44.54,21.83l-1.29-.65a4,4,0,0,0-.33.61c-.05.11,0,.13.12.17l1,.49c.37.2.35.1.16.5a.37.37,0,0,1-.07.1l-2-1,.06-.16,1.15-2.27c.1-.2.11-.21.31-.1l1.52.77c.07,0,.21.05.18.17a.77.77,0,0,1-.19.34h-.17l-1.08-.55c-.11-.06-.17,0-.24.08-.23.42-.24.42.21.64.24.13.48.26.73.37s.15.13.08.26A2,2,0,0,0,44.54,21.83Z" transform="translate(-3.27 -1.77)" fill="#403781"/>
    <path id="Path_15477" data-name="Path 15477" d="M22.53,40.25c-.15-.38-.3-.77-.46-1.15-.07-.16,0-.22.12-.27h.11c.12-.06.18,0,.23.1.12.34.27.67.4,1,.05.15.12.19.27.12l.54-.23-.49-1.23c-.12-.29-.11-.29.18-.4.13-.06.19,0,.24.1.16.42.33.83.49,1.24.07.17.13.34.21.51s0,.18-.1.23l-.88.35-1.52.61c-.13,0-.19,0-.24-.11-.22-.55-.44-1.11-.67-1.66-.06-.15-.05-.23.12-.27h.11c.12-.07.18,0,.23.09.13.36.28.72.42,1.07s.1.24.32.15A1,1,0,0,0,22.53,40.25Z" transform="translate(-3.27 -1.77)" fill="#403781"/>
    <path id="Path_15478" data-name="Path 15478" d="M22.9,41.87l.19.27a.26.26,0,0,1,0,.39c-.2.23.15.74.4.79a.22.22,0,0,0,.27-.21,1.2,1.2,0,0,0-.08-.42c-.06-.21-.15-.42-.2-.64a.82.82,0,0,1,.39-.94.84.84,0,0,1,1,.07,1.7,1.7,0,0,1,.61,1,1,1,0,0,1-.32,1s-.08.06-.1,0a1.183,1.183,0,0,0-.25-.27c-.09-.08-.05-.2,0-.31a.68.68,0,0,0-.32-1,.35.35,0,0,0-.37,0,.31.31,0,0,0-.09.34l.13.43a5.181,5.181,0,0,1,.14.53.78.78,0,0,1-.38.83.75.75,0,0,1-.88-.07,1.55,1.55,0,0,1-.59-.93.84.84,0,0,1,.45-.86Z" transform="translate(-3.27 -1.77)" fill="#403781"/>
    <path id="Path_15479" data-name="Path 15479" d="M23.18,35.41a.37.37,0,0,1-.25,0l-2.43-1c-.24-.1-.24-.1-.23-.35v-.24a.16.16,0,0,1,.13-.18c.93-.34,1.85-.71,2.79-1h0v.08c0,.5,0,.51-.45.67a.3.3,0,0,0-.24.33,6.49,6.49,0,0,1,0,.76c0,.13,0,.21.16.24h0c.15.08.38.07.44.23a1.59,1.59,0,0,1,.08.46Zm-1.15-1a6.939,6.939,0,0,0,0-.79L21,34Z" transform="translate(-3.27 -1.77)" fill="#403781"/>
    <path id="Path_15480" data-name="Path 15480" d="M50.5,32.66v-.1c-.16-.48-.17-.48.24-.78a.3.3,0,0,0,.13-.38,6.611,6.611,0,0,1-.22-.76.155.155,0,0,0-.19-.15H50.4c-.53,0-.53,0-.66-.62a.94.94,0,0,1,.41,0c.82.07,1.64.16,2.46.21a.306.306,0,0,1,.34.3.42.42,0,0,0,0,.15.24.24,0,0,1-.1.31c-.21.15-.4.31-.6.46l-1.49,1.16Zm.61-2.11a3.69,3.69,0,0,0,.21.74,5.34,5.34,0,0,0,.43-.32,1.54,1.54,0,0,0,.42-.35,7.449,7.449,0,0,0-1.06-.07Z" transform="translate(-3.27 -1.77)" fill="#403781"/>
    <path id="Path_15481" data-name="Path 15481" d="M26.81,25.28c-.1.15-.19.34-.35.41s-.33-.06-.49-.12a.24.24,0,0,0-.33.11c-.16.22-.33.43-.5.64s-.09.16,0,.24v.05c.08.15.24.27.22.43s-.21.3-.31.45c-.1,0-.12-.09-.15-.15-.46-.77-.9-1.56-1.37-2.33a.28.28,0,0,1,0-.39c.31-.37.17-.32.62-.19.84.24,1.68.5,2.53.76Zm-2.57-.2h0l.56.91a5.14,5.14,0,0,0,.47-.63Z" transform="translate(-3.27 -1.77)" fill="#403781"/>
    <path id="Path_15482" data-name="Path 15482" d="M34.57,21.13h-.09c-.48.16-.49.16-.78-.24a.26.26,0,0,0-.37-.13c-.23.08-.47.14-.7.2s-.23.08-.22.24a.14.14,0,0,1,0,.09c-.06.49-.06.49-.61.57a1.84,1.84,0,0,1,0-.62c.06-.74.14-1.47.2-2.21a.36.36,0,0,1,.32-.37c.33-.07.32-.08.54.2l1.49,2a1.07,1.07,0,0,1,.22.27Zm-2-1.74a7.7,7.7,0,0,0-.09,1.14c.26-.1.5-.13.75-.24Z" transform="translate(-3.27 -1.77)" fill="#403781"/>
    <path id="Path_15483" data-name="Path 15483" d="M44.23,49.51l-.08.05c-.46.2-.47.21-.8-.16a.28.28,0,0,0-.39-.1,4.929,4.929,0,0,1-.67.27c-.16,0-.2.14-.19.3,0,.54,0,.54-.56.7a.44.44,0,0,1,0-.23V47.7c0-.3,0-.25.23-.35a1.63,1.63,0,0,0,.19-.09.2.2,0,0,1,.27.06.57.57,0,0,0,.11.11c.57.62,1.15,1.23,1.73,1.84a.75.75,0,0,1,.16.24Zm-1.41-.68L42.08,48v1.12Z" transform="translate(-3.27 -1.77)" fill="#403781"/>
    <path id="Path_15484" data-name="Path 15484" d="M22.36,37.18l.88-.16c.14,0,.2,0,.23.15.09.4.09.4-.31.48l-2.34.42c-.15,0-.19,0-.21-.15-.07-.41-.16-.82-.21-1.23a.8.8,0,0,1,.65-.95.84.84,0,0,1,1.09.55C22.23,36.57,22.28,36.86,22.36,37.18Zm-1.05-.86a.37.37,0,0,0-.35.23,1.56,1.56,0,0,0,.08.82,1.979,1.979,0,0,0,.49,0h.21a.1.1,0,0,0,.09-.13,2.67,2.67,0,0,0-.15-.62.38.38,0,0,0-.37-.3Z" transform="translate(-3.27 -1.77)" fill="#403781"/>
    <path id="Path_15485" data-name="Path 15485" d="M25.72,46a1,1,0,1,1,1,1A1,1,0,0,1,25.72,46Z" transform="translate(-3.27 -1.77)" fill="#403781"/>
    <path id="Path_15486" data-name="Path 15486" d="M45.59,46a1,1,0,1,1,1,1A1,1,0,0,1,45.59,46Z" transform="translate(-3.27 -1.77)" fill="#403781"/>
    <path id="Path_15487" data-name="Path 15487" d="M40.27,21.47a2.7,2.7,0,0,0-.36-.09c-.17,0-.19-.12-.15-.26.13-.44.25-.88.37-1.32s.22-.76.32-1.14c0-.13.09-.18.24-.13l1.58.44c.17,0,.18.12.13.26a.27.27,0,0,0,0,.12c0,.14-.11.15-.22.11l-1-.27c-.19-.05-.24-.07-.3.15-.12.45-.13.45.32.58l.59.16c.13,0,.16.1.11.22a.48.48,0,0,0,0,.17c0,.11-.08.13-.18.1l-.79-.22c-.25-.07-.25-.07-.33.18a8.369,8.369,0,0,1-.33.94Z" transform="translate(-3.27 -1.77)" fill="#403781"/>
    <path id="Path_15488" data-name="Path 15488" d="M23,26.35c-.09.16-.17.34-.26.5s-.12.24.1.36c.47.24.94.48,1.4.73l.43.22c.08,0,.09.09.06.17-.17.43-.19.44-.59.23l-1.78-.93a4.59,4.59,0,0,0-.32.57c-.11.19-.11.19-.32.09l-.1-.06c-.1,0-.11-.11-.06-.2s.11-.21.17-.32c.25-.47.49-.95.74-1.43.1-.19.1-.19.29-.09a.51.51,0,0,1,.24.16Z" transform="translate(-3.27 -1.77)" fill="#403781"/>
    <path id="Path_15489" data-name="Path 15489" d="M53.45,34.37h0c0,.09.06.2,0,.25a.55.55,0,0,1-.38,0c-.08,0-.07-.09-.08-.14s0-.33,0-.49,0-.21-.23-.2L50.84,34h-.21c-.12,0-.17,0-.17-.14,0-.47-.15-.44.39-.47l1.76-.14c.24,0,.24,0,.23-.27s0-.24,0-.36-.08-.21,0-.24a.85.85,0,0,1,.39,0c.07,0,.07.09.07.15l.06.79C53.4,33.6,53.42,34,53.45,34.37Z" transform="translate(-3.27 -1.77)" fill="#403781"/>
    <path id="Path_15490" data-name="Path 15490" d="M50.48,35.21l2.35.18h.37c.17,0,.19.07.19.22,0,.4,0,.4-.42.37l-2.21-.17c-.41,0-.36,0-.32-.39C50.45,35.38,50.46,35.31,50.48,35.21Z" transform="translate(-3.27 -1.77)" fill="#403781"/>
    <path id="Path_15491" data-name="Path 15491" d="M31.39,47.2a.37.37,0,0,1,0,.11c-.36.78-.71,1.55-1.06,2.33-.07.15-.13.16-.27.09-.42-.2-.38-.12-.2-.51.31-.69.63-1.38.95-2.07.13-.31.1-.26.39-.14l.16.08A.116.116,0,0,1,31.39,47.2Z" transform="translate(-3.27 -1.77)" fill="#403781"/>
    <path id="Path_15492" data-name="Path 15492" d="M39.57,48c.11,0,.11.07.13.15.1.5.2,1,.29,1.52.07.35.12.7.2,1,0,.13,0,.17-.13.19-.53.09-.41.14-.5-.31-.15-.76-.29-1.53-.43-2.29,0-.21,0-.21.16-.25h.21Z" transform="translate(-3.27 -1.77)" fill="#403781"/>
    <path id="Path_15493" data-name="Path 15493" d="M53.46,29s.07,0,.06.05S53.47,29.07,53.46,29Z" transform="translate(-3.27 -1.77)" fill="#fff"/>
    <path id="Path_15494" data-name="Path 15494" d="M26,20.94a.072.072,0,0,1,.09-.07C26.18,20.88,26.07,20.94,26,20.94Z" transform="translate(-3.27 -1.77)" fill="#fff"/>
    <path id="Path_15495" data-name="Path 15495" d="M25.39,34.66A11.45,11.45,0,1,1,36.82,46.12,11.45,11.45,0,0,1,25.39,34.66Zm19.16,7.78a11,11,0,0,0,1.78-2.34.22.22,0,0,0,.1-.22.32.32,0,0,0-.15.23l-.18.27c-.51.7-1.07,1.35-1.63,2a1.62,1.62,0,0,0-.34.44,1.38,1.38,0,0,0,.42-.38ZM26,33.54a2,2,0,0,0,.52-.84,6,6,0,0,0,.04-1.7,6.1,6.1,0,0,0-.43,1.42A3.8,3.8,0,0,0,26,33.54Zm12,4.35h1.37c.25,0,.23,0,.31-.23.14-.46.28-.92.41-1.37a13.93,13.93,0,0,0,.57-3.26,14.74,14.74,0,0,0-.18-2.73c0-.08,0-.15-.13-.17a1.26,1.26,0,0,0-1.47.76c-.07.17-.13.36-.2.54q-.91,2.33-1.82,4.67a15.569,15.569,0,0,0-.51,1.5c-.06.22,0,.25.19.25Zm.54.62H34.99c-.2,0-.21,0-.15.22.28.9.57,1.79.84,2.69a.25.25,0,0,0,.26.2,10.44,10.44,0,0,0,1.25,0,15.43,15.43,0,0,0,3.54-.82,11.92,11.92,0,0,0,1.63-.73.26.26,0,0,0,.16-.34,8,8,0,0,0-.27-.87.27.27,0,0,0-.3-.22C40.81,38.6,39.68,38.55,38.54,38.51Zm.16-8.29a.61.61,0,0,0-.11-.36,20.5,20.5,0,0,0-1.42-1.94,17.12,17.12,0,0,0-1.85-1.66,5.24,5.24,0,0,0-1-.71c-.33-.16-.42-.15-.69.12a.76.76,0,0,0-.09.09,7.68,7.68,0,0,0-1.16,1.95c-.09.2-.08.21.11.34a9.65,9.65,0,0,0,1.22.67,7.08,7.08,0,0,1,1.75,1.05,15.3,15.3,0,0,1,1.81,1.79c.14.16.3.31.44.46s.16.07.22,0a1.772,1.772,0,0,0,.12-.17,13.73,13.73,0,0,0,.61-1.29.59.59,0,0,0,.04-.34Zm-1.32,3.15a.73.73,0,0,0-.2-.47,5.43,5.43,0,0,0-.84-.82,27.2,27.2,0,0,0-3-2.12c-.43-.26-.85-.51-1.3-.74-.12-.06-.19-.07-.26.07a7.69,7.69,0,0,1-.39.69.26.26,0,0,0,0,.33l.69.84q1.56,1.82,3.25,3.5a7.39,7.39,0,0,0,.89.79c.17.13.18.13.27,0a14.829,14.829,0,0,0,.81-1.77.73.73,0,0,0,.08-.3Zm-8.65,4.5a1.6,1.6,0,0,0,.2.63.13.13,0,0,0,.18.06l.36-.14c.74-.31,1.46-.67,2.17-1A7,7,0,0,0,34.19,35c.14-.2.13-.21,0-.42-.35-.45-.69-.9-1-1.36s-.3-.39-.69-.08a25.941,25.941,0,0,0-2.21,2,3.74,3.74,0,0,0-.53.66c-.32.54-.59,1.11-.86,1.68a.93.93,0,0,0-.17.39ZM41.4,30.29a5.74,5.74,0,0,0,.34.88,3.32,3.32,0,0,1,.26,1,8.22,8.22,0,0,1-.22,2.47c-.21.79-.49,1.56-.66,2.37a2.87,2.87,0,0,0-.08.78.23.23,0,0,0,.21.25,2.729,2.729,0,0,0,.57,0,.3.3,0,0,0,.32-.21,23.74,23.74,0,0,0,2-6.31,5.11,5.11,0,0,0,.08-1.24A.31.31,0,0,0,44,30a2.15,2.15,0,0,0-.66-.09A7.72,7.72,0,0,0,41.4,30.29Zm1.44-4.72c0-.05,0-.07-.07-.09a10.93,10.93,0,0,0-3.1-1.38.7.7,0,0,0-.38,0c-.34.11-.67.25-1,.39a14.53,14.53,0,0,0-2.24,1.1c-.28.18-.29.18-.05.44a13.55,13.55,0,0,0,1.73,1.57.3.3,0,0,0,.36,0l1.52-.7a19.59,19.59,0,0,1,3.2-1.36Zm2.38,4.05a.42.42,0,0,0,0-.27,14.8,14.8,0,0,0-.8-1.93c-.23-.48-.14-.46-.71-.36A23.59,23.59,0,0,0,40.2,28a8.38,8.38,0,0,0-1,.42.2.2,0,0,0-.11.31c.1.24.19.49.29.74s0,.25.36.25c.88,0,1.75-.1,2.62-.14a13.12,13.12,0,0,1,2.73.06.165.165,0,0,0,.13-.02Zm-17.51,7.2a9.8,9.8,0,0,0,.47-1,5.55,5.55,0,0,1,.43-.84c.35-.55.73-1.09,1.11-1.62s.86-1.08,1.27-1.64c.24-.32.23-.33,0-.64s-.14-.18-.34-.09c-.9.44-1.79.9-2.66,1.39a2.18,2.18,0,0,0-1.28,1.31l-.12.21a1.21,1.21,0,0,0,0,1.35,11.12,11.12,0,0,0,.86,1.29.87.87,0,0,0,.26.28Zm18,2.94v-.08a6.52,6.52,0,0,0-.88-2.25,2.33,2.33,0,0,0-.65-.64.65.65,0,0,0-1,.19.76.76,0,0,0-.13.23,4.16,4.16,0,0,1-.43.84.74.74,0,0,0,0,.85A9.6,9.6,0,0,1,43.1,40c.21.51.41,1,.67,1.5.08.15.17.29.26.44s.15.09.22,0a.6.6,0,0,0,.08-.08c.4-.47.76-1,1.17-1.45a.9.9,0,0,0,.21-.65ZM34,44.41a.74.74,0,0,0-.19-.27c-.32-.33-.63-.66-1-1A5.79,5.79,0,0,1,31.45,41c-.25-.66-.48-1.33-.72-2-.08-.22-.08-.22-.3-.15a5.11,5.11,0,0,0-.84.43.3.3,0,0,0-.19.34v.21a7,7,0,0,0,2.48,4.47,3.09,3.09,0,0,0,.8.48.79.79,0,0,0,.62,0,3.6,3.6,0,0,0,.7-.37Zm-2.14-6.29a3.28,3.28,0,0,0,.18.7,12.47,12.47,0,0,0,1,2.07,18.47,18.47,0,0,0,1.81,2.76c.29.36.29.36.67.12s.26-.1.13-.43Q34.66,41,33.74,38.7c-.19-.46-.37-.92-.56-1.39,0-.08-.06-.15-.17-.09a4.31,4.31,0,0,0-1.07.68.2.2,0,0,0-.07.22Zm2.26-14H34a11.06,11.06,0,0,0-2.66,1.1.47.47,0,0,0-.2.26c-.16.4-.33.8-.49,1.21-.32.85-.67,1.7-.92,2.57a3.49,3.49,0,0,0-.13.84c0,.22,0,.24.24.24a1.46,1.46,0,0,0,.86-.35.37.37,0,0,0,.16-.27,1.53,1.53,0,0,1,.11-.47c.41-.78.77-1.59,1.24-2.34a26.242,26.242,0,0,1,1.6-2.33,2.05,2.05,0,0,0,.32-.48Zm10.72,8.74c-.05,0-.07,0-.08.07A15.67,15.67,0,0,0,44,35.42a.313.313,0,0,0,.18.4,4.31,4.31,0,0,1,1.53,1.92,4.9,4.9,0,0,0,.24.52,1.48,1.48,0,0,0,.38.51c.15.12.16.12.28,0a1.87,1.87,0,0,0,.34-1.64,10.57,10.57,0,0,0-.95-2.5,13.37,13.37,0,0,0-1.15-1.79Zm-8.39,9.91a1.21,1.21,0,0,0,.59.68,3.17,3.17,0,0,0,2.94.26c.78-.32,1.54-.69,2.3-1,.26-.12.52-.26.78-.4s.28-.16.17-.44a2.63,2.63,0,0,0-.31-.57c-.16-.22-.16-.22-.41-.11l-2.4,1a6.2,6.2,0,0,1-.69.23,12.681,12.681,0,0,1-1.84.23,7.42,7.42,0,0,0-1.12.1Zm-6.67-16.4c-.07,0-.1,0-.14.08a10.79,10.79,0,0,0-2.23,2.67,1,1,0,0,0-.14.4,15.37,15.37,0,0,0-.15,2.25c0,.22,0,.23.22.17a5.16,5.16,0,0,0,1.34-.64.36.36,0,0,0,.17-.33,5.175,5.175,0,0,1,.09-1.18,19.35,19.35,0,0,1,.6-2.61c.09-.29.17-.55.25-.83ZM47.11,30.9l-.15.21a14.9,14.9,0,0,0-.79,1.54.83.83,0,0,0,0,.62c.09.23.19.45.29.67.33.75.6,1.52,1,2.26a.34.34,0,0,0,.2.27,10.91,10.91,0,0,0-.55-5.57Zm-13,14.35a10.39,10.39,0,0,0,3.07.35.23.23,0,0,0,.2-.11,4.37,4.37,0,0,0,.47-.84.17.17,0,0,0-.06-.24,6.069,6.069,0,0,0-.68-.44A.92.92,0,0,0,36,44c-.29.22-.61.4-.92.59a9.879,9.879,0,0,0-.95.66ZM41,43.57a.77.77,0,0,0-.2,0,14.721,14.721,0,0,0-1.79.75,2,2,0,0,0-.83,1.18,11.23,11.23,0,0,0,2.23-.5.3.3,0,0,0,.17-.12A3.46,3.46,0,0,0,41,43.57Zm-11.48-.82a9.62,9.62,0,0,0-.45-1.59,1.45,1.45,0,0,0-.36-.49c-.56-.5-1.09-1-1.62-1.55l-.32-.29a10,10,0,0,0,2.74,3.92Zm-3.44-6.54a.43.43,0,0,0,0,.27,2.37,2.37,0,0,0,.63,1.32c.54.59,1.09,1.17,1.63,1.75a.073.073,0,0,0,.11,0,1.67,1.67,0,0,0-.29-1.2,5.72,5.72,0,0,0-.4-.46,12.585,12.585,0,0,1-.91-1,5.26,5.26,0,0,0-.78-.68Zm18.87-8.85a36,36,0,0,0,1.46,3.3.51.51,0,0,0,.16-.21.69.69,0,0,0,0-.79A13.84,13.84,0,0,0,45.51,28a4.84,4.84,0,0,0-.57-.64Zm-6.33-3.48A8.66,8.66,0,0,0,37,23.74a2.34,2.34,0,0,0,.28.5.19.19,0,0,0,.23.1,4.67,4.67,0,0,0,1.1-.46Zm2.45,20.84a1.13,1.13,0,0,0,.65-.32c-.36-.18-.51.08-.66.32Zm5.81-5.64h0a.55.55,0,0,0-.15.48Z" transform="translate(-3.27 -1.77)" fill="#211f17"/>
    <path id="Path_15496" data-name="Path 15496" d="M30.08,20.66a.31.31,0,0,1-.14.28,5.12,5.12,0,0,1-.69.37H29.1c-.34-.51-.34-.52.21-.8.1,0,.2-.1.3-.13a.35.35,0,0,1,.47.28Z" transform="translate(-3.27 -1.77)" fill="#fbea00"/>
    <path id="Path_15497" data-name="Path 15497" d="M50.93,26.84c.14.26.26.5.37.73a.36.36,0,1,1-.62.36c-.13-.21-.24-.43-.36-.64s0-.13.07-.16Z" transform="translate(-3.27 -1.77)" fill="#fbea00"/>
    <path id="Path_15498" data-name="Path 15498" d="M51.67,38.83a1.7,1.7,0,0,1-.65-.17.76.76,0,0,1-.47-.91.8.8,0,0,1,.84-.61,1.91,1.91,0,0,1,.7.18.76.76,0,0,1,.43.91A.79.79,0,0,1,51.67,38.83Z" transform="translate(-3.27 -1.77)" fill="#fbea00"/>
    <path id="Path_15499" data-name="Path 15499" d="M36.33,49.68v-.82c0-.12.05-.16.16-.15s.39,0,.58,0a.52.52,0,0,1,.41.37,1.89,1.89,0,0,1,0,1.22.48.48,0,0,1-.41.31h-.61c-.2,0-.14-.06-.14-.16v-.82Z" transform="translate(-3.27 -1.77)" fill="#fbea00"/>
    <path id="Path_15500" data-name="Path 15500" d="M47.21,22.64a.25.25,0,0,1,0,.08,1.76,1.76,0,0,1-.85,1.09.33.33,0,0,1-.32,0l-.22-.1c-.16-.12-.4-.21-.44-.39s.18-.31.3-.46.43-.56.64-.84.17-.25.44,0a3.48,3.48,0,0,1,.3.26.58.58,0,0,1,.15.36Z" transform="translate(-3.27 -1.77)" fill="#fbea00"/>
    <path id="Path_15501" data-name="Path 15501" d="M22,34.37,21,34l1-.42A6.94,6.94,0,0,1,22,34.37Z" transform="translate(-3.27 -1.77)" fill="#fbea00"/>
    <path id="Path_15502" data-name="Path 15502" d="M51.11,30.55a7.45,7.45,0,0,1,1.06.07,1.54,1.54,0,0,1-.42.35,5.339,5.339,0,0,1-.43.32,3.69,3.69,0,0,1-.21-.74Z" transform="translate(-3.27 -1.77)" fill="#fbea00"/>
    <path id="Path_15503" data-name="Path 15503" d="M24.24,25.08l1,.32a5.14,5.14,0,0,1-.47.63l-.56-.91Z" transform="translate(-3.27 -1.77)" fill="#fbea00"/>
    <path id="Path_15504" data-name="Path 15504" d="M32.57,19.39l.66.9c-.25.11-.49.14-.75.24a7.7,7.7,0,0,1,.09-1.14Z" transform="translate(-3.27 -1.77)" fill="#fbea00"/>
    <path id="Path_15505" data-name="Path 15505" d="M42.82,48.83l-.74.29V48Z" transform="translate(-3.27 -1.77)" fill="#fbea00"/>
    <path id="Path_15506" data-name="Path 15506" d="M21.31,36.32a.38.38,0,0,1,.37.23,2.67,2.67,0,0,1,.15.62c0,.07,0,.11-.09.13h-.21c-.16,0-.33.12-.49,0s-.14-.7-.08-.82a.37.37,0,0,1,.35-.16Z" transform="translate(-3.27 -1.77)" fill="#fbea00"/>
    <path id="Path_15507" data-name="Path 15507" d="M38,37.89H36.54c-.23,0-.25,0-.19-.25a15.569,15.569,0,0,1,.51-1.5q.9-2.34,1.82-4.67c.07-.18.13-.37.2-.54a1.26,1.26,0,0,1,1.47-.76c.11,0,.12.09.13.17a14.74,14.74,0,0,1,.18,2.73,13.93,13.93,0,0,1-.57,3.26c-.13.45-.27.91-.41,1.37-.08.26-.06.23-.31.23H38Z" transform="translate(-3.27 -1.77)" fill="#fceb00"/>
    <path id="Path_15508" data-name="Path 15508" d="M38.54,38.51c1.14,0,2.27.09,3.41.12a.27.27,0,0,1,.3.22,8,8,0,0,1,.27.87.26.26,0,0,1-.16.34,11.92,11.92,0,0,1-1.63.73,15.43,15.43,0,0,1-3.54.82,10.441,10.441,0,0,1-1.25,0,.25.25,0,0,1-.26-.2c-.27-.9-.56-1.79-.84-2.69-.06-.19-.05-.21.15-.22.56,0,1.13-.05,1.7,0h1.85Z" transform="translate(-3.27 -1.77)" fill="#fceb00"/>
    <path id="Path_15509" data-name="Path 15509" d="M38.7,30.22a.59.59,0,0,1-.07.31A13.729,13.729,0,0,1,38,31.82a1.77,1.77,0,0,1-.12.17c-.06.1-.13.12-.22,0s-.3-.3-.44-.46a15.3,15.3,0,0,0-1.81-1.79,7.08,7.08,0,0,0-1.75-1.05,9.65,9.65,0,0,1-1.22-.67c-.19-.13-.2-.14-.11-.34a7.68,7.68,0,0,1,1.16-1.95.76.76,0,0,1,.09-.09c.27-.27.36-.28.69-.12a5.24,5.24,0,0,1,1,.71,17.121,17.121,0,0,1,1.85,1.66,20.5,20.5,0,0,1,1.42,1.94A.61.61,0,0,1,38.7,30.22Z" transform="translate(-3.27 -1.77)" fill="#fceb00"/>
    <path id="Path_15510" data-name="Path 15510" d="M37.38,33.37a.73.73,0,0,1-.06.26,14.83,14.83,0,0,1-.81,1.77c-.09.17-.1.17-.27,0a7.39,7.39,0,0,1-.89-.79q-1.7-1.68-3.25-3.5l-.69-.84a.26.26,0,0,1,0-.33,7.691,7.691,0,0,0,.39-.69c.07-.14.14-.13.26-.07.45.23.87.48,1.3.74a27.2,27.2,0,0,1,3,2.12,5.43,5.43,0,0,1,.84.82.73.73,0,0,1,.18.51Z" transform="translate(-3.27 -1.77)" fill="#fceb00"/>
    <path id="Path_15511" data-name="Path 15511" d="M28.73,37.87a.93.93,0,0,1,.11-.44c.27-.57.54-1.14.86-1.68a3.74,3.74,0,0,1,.53-.66,25.939,25.939,0,0,1,2.21-2c.39-.31.39-.3.69.08s.68.91,1,1.36c.16.21.17.22,0,.42a7,7,0,0,1-2.55,2.42,18.427,18.427,0,0,1-2.17,1l-.36.14a.13.13,0,0,1-.18-.06,1.6,1.6,0,0,1-.14-.58Z" transform="translate(-3.27 -1.77)" fill="#fceb00"/>
    <path id="Path_15512" data-name="Path 15512" d="M41.4,30.29a7.72,7.72,0,0,1,1.94-.41A2.15,2.15,0,0,1,44,30a.31.31,0,0,1,.25.32,5.11,5.11,0,0,1-.08,1.24,23.74,23.74,0,0,1-2,6.31.3.3,0,0,1-.32.21,2.73,2.73,0,0,1-.57,0,.23.23,0,0,1-.21-.25,2.87,2.87,0,0,1,.08-.78c.17-.81.45-1.58.66-2.37A8.22,8.22,0,0,0,42,32.14a3.32,3.32,0,0,0-.26-1,5.74,5.74,0,0,1-.34-.85Z" transform="translate(-3.27 -1.77)" fill="#fceb00"/>
    <path id="Path_15513" data-name="Path 15513" d="M42.84,25.57h0A19.59,19.59,0,0,0,39.62,27l-1.52.7a.3.3,0,0,1-.36,0A13.55,13.55,0,0,1,36,26.06c-.24-.26-.23-.26.05-.44a14.53,14.53,0,0,1,2.24-1.1,9.891,9.891,0,0,1,1-.39.7.7,0,0,1,.38,0,10.93,10.93,0,0,1,3.1,1.38S42.85,25.52,42.84,25.57Z" transform="translate(-3.27 -1.77)" fill="#fceb00"/>
    <path id="Path_15514" data-name="Path 15514" d="M45.22,29.62h-.17a13.12,13.12,0,0,0-2.73-.06c-.87,0-1.74.14-2.62.14-.31,0-.26,0-.36-.25s-.19-.5-.29-.74a.2.2,0,0,1,.11-.31,8.38,8.38,0,0,1,1-.42,23.59,23.59,0,0,1,3.46-.93c.57-.1.48-.12.71.36a14.8,14.8,0,0,1,.8,1.93.42.42,0,0,1,.09.28Z" transform="translate(-3.27 -1.77)" fill="#fceb00"/>
    <path id="Path_15515" data-name="Path 15515" d="M27.71,36.82a.87.87,0,0,1-.27-.27,11.12,11.12,0,0,1-.86-1.29,1.21,1.21,0,0,1,0-1.35l.12-.21A2.18,2.18,0,0,1,28,32.39c.87-.49,1.76-.95,2.66-1.39.2-.09.2-.09.34.09s.26.32,0,.64c-.41.56-.87,1.07-1.27,1.64S29,34.44,28.61,35a5.55,5.55,0,0,0-.43.84A9.8,9.8,0,0,1,27.71,36.82Z" transform="translate(-3.27 -1.77)" fill="#fceb00"/>
    <path id="Path_15516" data-name="Path 15516" d="M45.71,39.76a.9.9,0,0,1-.21.68c-.41.47-.77,1-1.17,1.45a.6.6,0,0,1-.08.08c-.07.09-.15.1-.22,0s-.18-.29-.26-.44c-.26-.49-.46-1-.67-1.5a9.6,9.6,0,0,0-.52-1.13.74.74,0,0,1,0-.85,4.16,4.16,0,0,0,.43-.84.76.76,0,0,1,.13-.23.65.65,0,0,1,1-.19,2.33,2.33,0,0,1,.65.64,6.52,6.52,0,0,1,.88,2.25Z" transform="translate(-3.27 -1.77)" fill="#fceb00"/>
    <path id="Path_15517" data-name="Path 15517" d="M34,44.41a3.6,3.6,0,0,1-.69.39.79.79,0,0,1-.62,0,3.09,3.09,0,0,1-.8-.48,7,7,0,0,1-2.48-4.47q0-.105,0-.21a.3.3,0,0,1,.19-.34,5.11,5.11,0,0,1,.84-.43c.22-.07.22-.07.3.15.24.67.47,1.34.72,2a5.79,5.79,0,0,0,1.41,2.14c.33.32.64.65,1,1a.74.74,0,0,1,.13.25Z" transform="translate(-3.27 -1.77)" fill="#fbea00"/>
    <path id="Path_15518" data-name="Path 15518" d="M31.87,38.12a.2.2,0,0,1,.07-.22A4.31,4.31,0,0,1,33,37.22c.11-.06.14,0,.17.09.19.47.37.93.56,1.39q.93,2.31,1.87,4.64c.13.33.1.28-.13.43s-.38.24-.67-.12A18.469,18.469,0,0,1,33,40.89a12.47,12.47,0,0,1-1-2.07,3.28,3.28,0,0,1-.13-.7Z" transform="translate(-3.27 -1.77)" fill="#fbea00"/>
    <path id="Path_15519" data-name="Path 15519" d="M34.13,24.1a2.05,2.05,0,0,1-.31.46c-.57.76-1.1,1.54-1.6,2.33s-.83,1.56-1.24,2.34a1.53,1.53,0,0,0-.11.47.37.37,0,0,1-.16.27,1.46,1.46,0,0,1-.86.35c-.22,0-.25,0-.24-.24a3.49,3.49,0,0,1,.13-.84c.25-.87.6-1.72.92-2.57.16-.41.33-.81.49-1.21a.47.47,0,0,1,.2-.26A11.06,11.06,0,0,1,34,24.1Z" transform="translate(-3.27 -1.77)" fill="#fbea00"/>
    <path id="Path_15520" data-name="Path 15520" d="M44.85,32.84A13.37,13.37,0,0,1,46,34.63a10.57,10.57,0,0,1,.93,2.46,1.87,1.87,0,0,1-.34,1.64c-.12.16-.13.16-.28,0a1.48,1.48,0,0,1-.38-.51,4.9,4.9,0,0,1-.24-.52,4.31,4.31,0,0,0-1.53-1.92c-.15-.11-.23-.22-.18-.4a15.671,15.671,0,0,1,.82-2.51S44.8,32.88,44.85,32.84Z" transform="translate(-3.27 -1.77)" fill="#fbea00"/>
    <path id="Path_15521" data-name="Path 15521" d="M36.46,42.75a7.42,7.42,0,0,1,1.13-.14,12.68,12.68,0,0,0,1.84-.23,6.2,6.2,0,0,0,.69-.23l2.4-1c.25-.11.25-.11.41.11a2.63,2.63,0,0,1,.31.57c.11.28.11.28-.17.44s-.52.28-.78.4a23.181,23.181,0,0,1-2.3,1,3.17,3.17,0,0,1-2.94-.26,1.21,1.21,0,0,1-.59-.66Z" transform="translate(-3.27 -1.77)" fill="#fbea00"/>
    <path id="Path_15522" data-name="Path 15522" d="M29.79,26.35c-.08.28-.16.54-.24.81a19.35,19.35,0,0,0-.6,2.61c-.05.39-.07.78-.09,1.18a.36.36,0,0,1-.17.33,5.16,5.16,0,0,1-1.34.64c-.2.06-.21,0-.22-.17a15.37,15.37,0,0,1,.15-2.25,1,1,0,0,1,.14-.4,10.79,10.79,0,0,1,2.23-2.67A.237.237,0,0,1,29.79,26.35Z" transform="translate(-3.27 -1.77)" fill="#fbea00"/>
    <path id="Path_15523" data-name="Path 15523" d="M47.11,30.9a10.91,10.91,0,0,1,.52,5.57c-.13-.07-.15-.18-.2-.27-.37-.74-.64-1.51-1-2.26-.1-.22-.2-.44-.29-.67a.83.83,0,0,1,0-.62A14.9,14.9,0,0,1,47,31.11Z" transform="translate(-3.27 -1.77)" fill="#fbea00"/>
    <path id="Path_15524" data-name="Path 15524" d="M34.13,45.25a9.881,9.881,0,0,1,1-.62c.31-.19.63-.37.92-.59a.92.92,0,0,1,1.1-.07,6.07,6.07,0,0,1,.68.44.17.17,0,0,1,.06.24,4.37,4.37,0,0,1-.47.84.23.23,0,0,1-.2.11A10.39,10.39,0,0,1,34.13,45.25Z" transform="translate(-3.27 -1.77)" fill="#fbea00"/>
    <path id="Path_15525" data-name="Path 15525" d="M41,43.57a3.46,3.46,0,0,1-.41,1.32.3.3,0,0,1-.17.12,11.23,11.23,0,0,1-2.24.52A2,2,0,0,1,39,44.35a14.72,14.72,0,0,1,1.79-.75.77.77,0,0,1,.21-.03Z" transform="translate(-3.27 -1.77)" fill="#fbea00"/>
    <path id="Path_15526" data-name="Path 15526" d="M29.51,42.75a10,10,0,0,1-2.75-3.92l.32.29c.53.52,1.06,1.05,1.62,1.55a1.45,1.45,0,0,1,.36.49,9.62,9.62,0,0,1,.45,1.59Z" transform="translate(-3.27 -1.77)" fill="#fbea00"/>
    <path id="Path_15527" data-name="Path 15527" d="M26.07,36.21a5.26,5.26,0,0,1,.75.74c.29.33.6.66.91,1a5.72,5.72,0,0,1,.4.46,1.67,1.67,0,0,1,.29,1.2h-.11c-.54-.58-1.09-1.16-1.63-1.75a2.37,2.37,0,0,1-.63-1.32.43.43,0,0,1,.02-.33Z" transform="translate(-3.27 -1.77)" fill="#fbea00"/>
    <path id="Path_15528" data-name="Path 15528" d="M44.94,27.36a4.84,4.84,0,0,1,.57.63,13.84,13.84,0,0,1,1.06,1.67.69.69,0,0,1,0,.79.51.51,0,0,1-.16.21,36,36,0,0,1-1.47-3.3Z" transform="translate(-3.27 -1.77)" fill="#fbea00"/>
    <path id="Path_15529" data-name="Path 15529" d="M26,33.54a3.8,3.8,0,0,1,.14-1.11A6.1,6.1,0,0,1,26.56,31a6,6,0,0,1-.06,1.69,2,2,0,0,1-.52.84Z" transform="translate(-3.27 -1.77)" fill="#fbea00"/>
    <path id="Path_15530" data-name="Path 15530" d="M38.61,23.88a4.67,4.67,0,0,1-1.07.46.19.19,0,0,1-.23-.1,2.34,2.34,0,0,1-.28-.5,8.66,8.66,0,0,1,1.58.14Z" transform="translate(-3.27 -1.77)" fill="#fbea00"/>
    <path id="Path_15531" data-name="Path 15531" d="M44.47,42.38c.56-.65,1.12-1.3,1.63-2l.18-.27h0a11,11,0,0,1-1.78,2.34Z" transform="translate(-3.27 -1.77)" fill="#fbea00"/>
    <path id="Path_15532" data-name="Path 15532" d="M41.06,44.72c.15-.24.3-.5.65-.32A1.13,1.13,0,0,1,41.06,44.72Z" transform="translate(-3.27 -1.77)" fill="#fbea00"/>
    <path id="Path_15533" data-name="Path 15533" d="M44.47,42.38l.08.06a1.38,1.38,0,0,1-.42.38A1.62,1.62,0,0,1,44.47,42.38Z" transform="translate(-3.27 -1.77)" fill="#535251"/>
    <path id="Path_15534" data-name="Path 15534" d="M46.87,39.08l-.2.44a.55.55,0,0,1,.15-.48Z" transform="translate(-3.27 -1.77)" fill="#535251"/>
    <path id="Path_15535" data-name="Path 15535" d="M46.33,40.1h0a.32.32,0,0,1,.15-.23A.22.22,0,0,1,46.33,40.1Z" transform="translate(-3.27 -1.77)" fill="#535251"/>
    <path id="Path_15536" data-name="Path 15536" d="M22.71,31.77h0Z" fill="#fbea00"/>
  </g>
</svg>
