<svg xmlns="http://www.w3.org/2000/svg" width="75.769" height="63.937" viewBox="0 0 75.769 63.937">
  <g id="Softball_Association_of_India" data-name="Softball Association of India" transform="translate(0.001 -0.002)">
    <path id="Path_15537" data-name="Path 15537" d="M40.428,70.792A27.136,27.136,0,1,1,67.552,43.609,27.136,27.136,0,0,1,40.428,70.792Zm0-53.408a26.249,26.249,0,1,0,0-.047Z" transform="translate(-2.106 -6.852)"/>
    <path id="Path_15538" data-name="Path 15538" d="M39.442,61.494A18.682,18.682,0,1,1,58.124,42.812,18.682,18.682,0,0,1,39.442,61.494Zm0-36.547A17.853,17.853,0,1,0,57.3,42.8,17.853,17.853,0,0,0,39.442,24.947Z" transform="translate(-0.852 -5.577)"/>
    <rect id="Rectangle_14633" data-name="Rectangle 14633" width="0.56" height="7.753" transform="translate(39.198 55.708)"/>
    <rect id="Rectangle_14634" data-name="Rectangle 14634" width="0.56" height="7.823" transform="translate(43.795 55.127) rotate(-16.6)"/>
    <rect id="Rectangle_14635" data-name="Rectangle 14635" width="0.56" height="8.232" transform="matrix(0.856, -0.517, 0.517, 0.856, 47.614, 52.717)"/>
    <path id="Path_15539" data-name="Path 15539" d="M50.062,48.283,44.13,42.749l.385-.409,5.932,5.523Z" transform="translate(7.398 7.097)"/>
    <rect id="Rectangle_14636" data-name="Rectangle 14636" width="0.56" height="8.792" transform="translate(54.158 45.858) rotate(-62.67)"/>
    <rect id="Rectangle_14637" data-name="Rectangle 14637" width="0.56" height="8.676" transform="matrix(0.118, -0.993, 0.993, 0.118, 55.876, 41.895)"/>
    <rect id="Rectangle_14638" data-name="Rectangle 14638" width="8.22" height="0.56" transform="translate(56.784 35.797) rotate(-0.573)"/>
    <rect id="Rectangle_14639" data-name="Rectangle 14639" width="8.442" height="0.56" transform="translate(55.965 31.563) rotate(-19.74)"/>
    <rect id="Rectangle_14640" data-name="Rectangle 14640" width="8.314" height="0.572" transform="matrix(0.839, -0.544, 0.544, 0.839, 53.739, 27.21)"/>
    <rect id="Rectangle_14641" data-name="Rectangle 14641" width="8.734" height="0.56" transform="matrix(0.709, -0.705, 0.705, 0.709, 50.014, 23.321)"/>
    <rect id="Rectangle_14642" data-name="Rectangle 14642" width="8.629" height="0.56" transform="translate(46.512 20.803) rotate(-60.53)"/>
    <rect id="Rectangle_14643" data-name="Rectangle 14643" width="8.314" height="0.572" transform="translate(42.612 19.288) rotate(-79.66)"/>
    <rect id="Rectangle_14644" data-name="Rectangle 14644" width="0.56" height="8.944" transform="translate(37.416 10.413) rotate(-1.92)"/>
    <rect id="Rectangle_14645" data-name="Rectangle 14645" width="0.56" height="8.43" transform="translate(30.645 11.393) rotate(-13.91)"/>
    <rect id="Rectangle_14646" data-name="Rectangle 14646" width="0.56" height="8.699" transform="translate(24.397 14.391) rotate(-31.95)"/>
    <rect id="Rectangle_14647" data-name="Rectangle 14647" width="0.56" height="8.582" transform="matrix(0.687, -0.727, 0.727, 0.687, 18.753, 18.451)"/>
    <rect id="Rectangle_14648" data-name="Rectangle 14648" width="0.572" height="8.442" transform="translate(15.213 24.259) rotate(-58.33)"/>
    <path id="Path_15540" data-name="Path 15540" d="M19.624,28.5,10.75,27.52l.07-.56,8.874.981Z" transform="translate(1.802 4.519)"/>
    <rect id="Rectangle_14649" data-name="Rectangle 14649" width="8.909" height="0.56" transform="matrix(1, -0.006, 0.006, 1, 11.946, 37.862)"/>
    <rect id="Rectangle_14650" data-name="Rectangle 14650" width="8.454" height="0.56" transform="matrix(0.93, -0.367, 0.367, 0.93, 13.075, 45.164)"/>
    <rect id="Rectangle_14651" data-name="Rectangle 14651" width="8.138" height="0.56" transform="matrix(0.84, -0.543, 0.543, 0.84, 16.306, 51.381)"/>
    <rect id="Rectangle_14652" data-name="Rectangle 14652" width="8.08" height="0.572" transform="matrix(0.651, -0.759, 0.759, 0.651, 20.906, 56.62)"/>
    <path id="Path_15541" data-name="Path 15541" d="M22.63,53.313l-.49-.28,4.39-7.4.49.28Z" transform="translate(3.712 7.649)"/>
    <rect id="Rectangle_14653" data-name="Rectangle 14653" width="8.489" height="0.56" transform="translate(32.666 63.333) rotate(-78.95)"/>
    <path id="Path_15542" data-name="Path 15542" d="M32.19,62.138s3-3.83,5.99.409a5.9,5.9,0,0,1-5.99-.409Z" transform="translate(1.064 0.529)"/>
    <path id="Path_15543" data-name="Path 15543" d="M37.84,62.637s1.973-4.46,5.908-1.086a5.838,5.838,0,0,1-5.908,1.086Z" transform="translate(2.012 0.485)"/>
    <path id="Path_15544" data-name="Path 15544" d="M43.4,61.707s.841-4.8,5.476-2.475A5.9,5.9,0,0,1,43.4,61.707Z" transform="translate(2.944 0.201)"/>
    <path id="Path_15545" data-name="Path 15545" d="M48.48,59.336s-.2-4.869,4.822-3.585A5.838,5.838,0,0,1,48.48,59.336Z" transform="translate(3.795 -0.312)"/>
    <path id="Path_15546" data-name="Path 15546" d="M52.843,55.931s-1.681-5.184,4.11-5.3a6.585,6.585,0,0,1-4.11,5.3Z" transform="translate(4.489 -1.134)"/>
    <path id="Path_15547" data-name="Path 15547" d="M59.216,45.814s-4.484-3.106,0-6.714A6.6,6.6,0,0,1,59.216,45.814Z" transform="translate(5.261 -3.067)"/>
    <path id="Path_15548" data-name="Path 15548" d="M59.635,39.86s-5.068-2-1.448-6.55a6.621,6.621,0,0,1,1.448,6.55Z" transform="translate(5.204 -4.038)"/>
    <path id="Path_15549" data-name="Path 15549" d="M58.588,34.22s-5.359-.957-2.756-6.13A6.585,6.585,0,0,1,58.588,34.22Z" transform="translate(4.908 -4.913)"/>
    <path id="Path_15550" data-name="Path 15550" d="M56.239,28.623s-5.383.42-4.215-5.243a6.609,6.609,0,0,1,4.215,5.243Z" transform="translate(4.362 -5.702)"/>
    <path id="Path_15551" data-name="Path 15551" d="M52.641,23.5S47.679,25.745,46.92,20a6.585,6.585,0,0,1,5.721,3.5Z" transform="translate(3.534 -6.269)"/>
    <path id="Path_15552" data-name="Path 15552" d="M48.107,20.224s-4.414,3.2-6.317-2.277A6.6,6.6,0,0,1,48.107,20.224Z" transform="translate(2.674 -6.633)"/>
    <path id="Path_15553" data-name="Path 15553" d="M42.512,17.718s-3.211,4.4-6.7-.222a6.574,6.574,0,0,1,6.7.222Z" transform="translate(1.671 -6.825)"/>
    <path id="Path_15554" data-name="Path 15554" d="M37.007,17.412s-2.545,4.822-6.667.759a6.6,6.6,0,0,1,6.667-.759Z" transform="translate(0.754 -6.799)"/>
    <path id="Path_15555" data-name="Path 15555" d="M31.005,18.135s-.9,5.371-6.1,2.8A6.574,6.574,0,0,1,31.005,18.135Z" transform="translate(-0.156 -6.588)"/>
    <path id="Path_15556" data-name="Path 15556" d="M25.564,20.53s.5,5.43-5.184,4.274a6.609,6.609,0,0,1,5.184-4.274Z" transform="translate(-0.915 -6.18)"/>
    <path id="Path_15557" data-name="Path 15557" d="M20.69,24.22s1.892,5.114-3.9,5.465a6.6,6.6,0,0,1,3.9-5.465Z" transform="translate(-1.517 -5.562)"/>
    <path id="Path_15558" data-name="Path 15558" d="M14.782,35.2s4.309,3.339-.409,6.7a6.609,6.609,0,0,1,.409-6.7Z" transform="translate(-2.043 -3.721)"/>
    <path id="Path_15559" data-name="Path 15559" d="M14.06,41.09s4.974,2.23,1.168,6.609A6.6,6.6,0,0,1,14.06,41.09Z" transform="translate(-2.045 -2.733)"/>
    <path id="Path_15560" data-name="Path 15560" d="M15.326,46.89s5.359.957,2.744,6.13a6.585,6.585,0,0,1-2.744-6.13Z" transform="translate(-1.77 -1.761)"/>
    <path id="Path_15561" data-name="Path 15561" d="M18,52.3s5.406-.642,4.4,5.068A6.586,6.586,0,0,1,18,52.3Z" transform="translate(-1.314 -0.857)"/>
    <path id="Path_15562" data-name="Path 15562" d="M21.89,56.607s5.079-1.973,5.535,3.806a6.609,6.609,0,0,1-5.535-3.806Z" transform="translate(-0.662 -0.187)"/>
    <path id="Path_15563" data-name="Path 15563" d="M26.28,59.9s4.53-3.013,6.224,2.522A6.585,6.585,0,0,1,26.28,59.9Z" transform="translate(0.074 0.282)"/>
    <path id="Path_15564" data-name="Path 15564" d="M17.086,28.91s3.736,5.114-2.616,7.344a7.671,7.671,0,0,1,2.616-7.344Z" transform="translate(-1.929 -4.775)"/>
    <path id="Path_15565" data-name="Path 15565" d="M56.459,51.214s-3.176-4.519,2.405-6.364A6.7,6.7,0,0,1,56.459,51.214Z" transform="translate(4.982 -2.103)"/>
    <path id="Path_15566" data-name="Path 15566" d="M34.27,27.611a3.5,3.5,0,0,0,5.266,0L36.909,24.82Z" transform="translate(1.413 -5.461)"/>
    <path id="Path_15567" data-name="Path 15567" d="M40.243,52.464A3.5,3.5,0,0,0,35,52.838l2.814,2.6Z" transform="translate(1.536 -0.995)"/>
    <path id="Path_15568" data-name="Path 15568" d="M24.762,43.336a3.5,3.5,0,0,0-.175-5.266L21.89,40.8Z" transform="translate(-0.662 -3.24)"/>
    <path id="Path_15569" data-name="Path 15569" d="M49.637,37.47a3.5,3.5,0,0,0,.187,5.254L52.58,40Z" transform="translate(3.806 -3.34)"/>
    <path id="Path_15570" data-name="Path 15570" d="M38.275,38.786A17.293,17.293,0,0,1,29.95,36.7a26.227,26.227,0,0,1-2.721-1.775c-1.389-1.051-2.942-2.464-2.954-2.487L24.1,32.27l.128-.2a17.118,17.118,0,0,1,13.918-8.01c8.384-.934,13.86,6.387,13.86,6.457l.117.163-.117.163a18.086,18.086,0,0,1-2.23,2.662A19,19,0,0,1,47.2,35.68a16.429,16.429,0,0,1-6.866,2.977A13.79,13.79,0,0,1,38.275,38.786Zm-13.44-6.609c.444.4,1.635,1.46,2.732,2.335A30.85,30.85,0,0,0,30.23,36.24a17.036,17.036,0,0,0,9.96,1.892,15.938,15.938,0,0,0,6.679-2.872A19.675,19.675,0,0,0,49.4,33.146a17.62,17.62,0,0,0,2.043-2.417c-.829-1.039-5.838-6.889-13.276-6.072a16.569,16.569,0,0,0-13.334,7.52Z" transform="translate(-0.292 -5.602)"/>
    <path id="Path_15571" data-name="Path 15571" d="M38.017,57.944c-7.87,0-12.634-7.006-12.681-7.088l-.117-.175.14-.163c4.122-4.857,8.664-7.344,13.5-7.368h.117c8.057,0,14.163,6.924,14.222,7.006l.152.175-.14.175a17.083,17.083,0,0,1-14.234,7.4ZM25.932,50.716c.817,1.109,5.581,7.134,13.007,6.632a16.557,16.557,0,0,0,13.638-7.006C51.609,49.3,46.039,43.7,38.94,43.7h-.082C34.3,43.745,29.9,46.1,25.932,50.716Z" transform="translate(-0.104 -2.388)"/>
    <path id="Path_15572" data-name="Path 15572" d="M26.979,24.754l-.619-.584,7.181-7.66,7.566,7.053-.572.619-6.959-6.469Z" transform="translate(4.419 2.767)"/>
    <path id="Path_15573" data-name="Path 15573" d="M42.938,40.274l-.631-.56,6.235-7.158L41.28,26.192l.56-.642,7.893,6.924Z" transform="translate(6.92 4.283)"/>
    <path id="Path_15574" data-name="Path 15574" d="M25.135,40.527,17.44,33.393l6.994-7.613.631.572-6.434,6.994,7.088,6.55Z" transform="translate(2.924 4.321)"/>
    <path id="Path_15575" data-name="Path 15575" d="M34.818,47.992,27.24,40.951l.584-.619L34.771,46.8l6.6-7.041.631.584Z" transform="translate(4.567 6.665)"/>
    <path id="Path_15576" data-name="Path 15576" d="M34.084,32.607H33.64v2.861h-.35V34.3h-1.1v.432h-.117a.432.432,0,0,1-.14-.082l-.14-.117a.607.607,0,0,1-.117-.128.969.969,0,0,1-.082-.152.269.269,0,0,1,0-.128.152.152,0,0,1,0-.128.339.339,0,0,1,.163,0h.21V32.829a.269.269,0,0,0-.058-.175.175.175,0,0,0-.128,0,.2.2,0,0,0-.152,0,.28.28,0,0,0-.058.163h0l.058.082.082.093-.187.222a.526.526,0,0,1-.152-.117.327.327,0,0,1-.093-.128.572.572,0,0,1,0-.128.444.444,0,0,1,0-.117.6.6,0,0,1,0-.2.444.444,0,0,1,.105-.175l.163-.128a.759.759,0,0,1,.245,0,.56.56,0,0,1,.21,0,.584.584,0,0,1,.163.117.514.514,0,0,1,.093.175.747.747,0,0,1,0,.234v1.168H33.29V32.28h.782Z" transform="translate(0.911 -4.222)"/>
    <path id="Path_15577" data-name="Path 15577" d="M34.8,32.585h-.444v2.861h-.292v-2.8H33.59v-.3h1.261Z" transform="translate(1.299 -4.2)"/>
    <path id="Path_15578" data-name="Path 15578" d="M36.742,32.587H35.96a1.518,1.518,0,0,1,.163.374,1.168,1.168,0,0,1,.07.385.806.806,0,0,1,0,.292,1.238,1.238,0,0,1-.128.245.677.677,0,0,1-.222.175.712.712,0,0,1-.292.07h0a3.117,3.117,0,0,0,.42.549,4.46,4.46,0,0,0,.537.5l-.257.269a4.051,4.051,0,0,1-.339-.292l-.3-.315c-.093-.105-.175-.222-.257-.327a2.8,2.8,0,0,1-.222-.339l-.187-.3L34.8,33.6l.292-.152a.712.712,0,0,0,.175.257.292.292,0,0,0,.21.093.245.245,0,0,0,.163,0,.374.374,0,0,0,.117-.117.712.712,0,0,0,.082-.163.91.91,0,0,0,0-.163,1.168,1.168,0,0,0,0-.2l-.07-.187a1.273,1.273,0,0,0-.093-.175l-.093-.163H34.5v-.3h2.242Z" transform="translate(1.452 -4.202)"/>
    <path id="Path_15579" data-name="Path 15579" d="M39.056,32.592h-.444v2.861h-.327V33.561h-.922a.5.5,0,0,0-.2.07.315.315,0,0,0-.117.152.479.479,0,0,0,0,.245,1.016,1.016,0,0,0,.07.374,1.1,1.1,0,0,0,.163.3,1.6,1.6,0,0,0,.222.257,2.1,2.1,0,0,0,.245.222l-.21.245-.093-.07-.163-.14-.187-.21a1.7,1.7,0,0,1-.2-.28,1.564,1.564,0,0,1-.14-.35,1.506,1.506,0,0,1,0-.409,1.063,1.063,0,0,1,0-.362.677.677,0,0,1,.175-.222.747.747,0,0,1,.28-.117,1.623,1.623,0,0,1,.35,0h.724V32.6H36.3v-.3h2.767Z" transform="translate(1.753 -4.207)"/>
    <path id="Path_15580" data-name="Path 15580" d="M39.935,32.771H39.5v2.861h-.35v-2.8h-.479v-.3h.549a2.172,2.172,0,0,0-.093-.374A1.168,1.168,0,0,0,39,31.907a.677.677,0,0,0-.14-.163.654.654,0,0,0-.152-.082h-.234a.56.56,0,0,0-.21,0,.455.455,0,0,0-.117.093.63.63,0,0,0,0,.128v.105a.152.152,0,0,0,0,.058.3.3,0,0,0-.093.082.6.6,0,0,0,.082.175.852.852,0,0,0,.163.21h-.35a1.168,1.168,0,0,1-.2-.315.771.771,0,0,1-.07-.315.911.911,0,0,1,0-.245.771.771,0,0,1,.14-.2.5.5,0,0,1,.234-.128.837.837,0,0,1,1.051.257,1.4,1.4,0,0,1,.2.4,2.884,2.884,0,0,1,.105.479h.444Z" transform="translate(1.984 -4.386)"/>
    <path id="Path_15581" data-name="Path 15581" d="M42.289,32.587h-.444v2.861h-.339v-.969h0l-.128.093-.175.082-.21.058h-.234a.911.911,0,0,1-.409-.093.957.957,0,0,1-.292-.234,1.039,1.039,0,0,1-.175-.339,2.335,2.335,0,0,1-.105-.385.759.759,0,0,0,.245-.07l.152-.105a.491.491,0,0,0,.093-.14.806.806,0,0,0,0-.152.444.444,0,0,0,0-.117.607.607,0,0,0,0-.128.876.876,0,0,0-.07-.152.584.584,0,0,0-.093-.163h-.6v-.3h2.8Zm-1.833,0a1.016,1.016,0,0,1,.117.28,1.273,1.273,0,0,1,0,.292.665.665,0,0,1,0,.21.537.537,0,0,1-.082.187.619.619,0,0,1-.152.152.455.455,0,0,1-.2.105,1.167,1.167,0,0,0,.093.245.479.479,0,0,0,.14.163.42.42,0,0,0,.175.093h.21a.642.642,0,0,0,.21,0l.28-.035.175-.117a.864.864,0,0,0,.14-.152V32.587Z" transform="translate(2.292 -4.202)"/>
    <path id="Path_15582" data-name="Path 15582" d="M37.358,45.18V45.5h-.444v2.8h-.35V46.9H35.4a.526.526,0,0,1-.269.082h0a4.378,4.378,0,0,0,.444.6,3.222,3.222,0,0,0,.549.5l-.222.257a2.534,2.534,0,0,1-.339-.28l-.3-.315c-.093-.105-.175-.222-.257-.327a3.476,3.476,0,0,1-.234-.339,2.937,2.937,0,0,1-.175-.315c-.047-.105-.105-.187-.152-.28l.292-.152a.467.467,0,0,0,.082.152.817.817,0,0,0,.07.105h.187a.234.234,0,0,0,.21-.105.584.584,0,0,0,.07-.3,1.284,1.284,0,0,0,0-.21.981.981,0,0,0-.058-.2l-.152-.117V45.5H34.17V45.18Zm-.794.315H35.454a2.988,2.988,0,0,1,.14.374,1.448,1.448,0,0,1,0,.385.887.887,0,0,1,0,.175.863.863,0,0,1,0,.163h.981Z" transform="translate(1.396 -2.048)"/>
    <path id="Path_15583" data-name="Path 15583" d="M36.261,44.679a.292.292,0,0,1,.07-.2.234.234,0,0,1,.175-.07h.187v.082a.327.327,0,0,1,0,.105.28.28,0,0,1-.07.2.234.234,0,0,1-.175.07h-.105a.14.14,0,0,1-.082-.058.21.21,0,0,1,0-.082.328.328,0,0,1,0-.047Z" transform="translate(1.746 -2.177)"/>
    <path id="Path_15584" data-name="Path 15584" d="M39.576,45.484h-.444v2.8h-.339v-2.8h-.946v1.693a.163.163,0,0,1,0,.082.187.187,0,0,1,0,.07.105.105,0,0,1-.082,0,.268.268,0,0,1-.128,0l-.14-.105-.14-.128-.117-.152a1.063,1.063,0,0,1-.082-.163.3.3,0,0,1,0-.128.093.093,0,0,1,0-.082.105.105,0,0,1,.07,0h.339v-1H36.82V45.25h2.814Z" transform="translate(1.841 -2.036)"/>
    <path id="Path_15585" data-name="Path 15585" d="M32.091,38.438v.3h-.432v2.8h-.315v-1.4H30.176a.666.666,0,0,1-.269.093h0a3.76,3.76,0,0,0,.444.6,3.316,3.316,0,0,0,.549.514l-.222.245a2.534,2.534,0,0,1-.339-.28,3.865,3.865,0,0,1-.3-.315l-.269-.327-.222-.339c-.07-.105-.128-.21-.187-.315l-.14-.28.292-.152a.946.946,0,0,0,.07.152l.082.105h.175a.21.21,0,0,0,.21-.105.584.584,0,0,0,.07-.3,1.274,1.274,0,0,0,0-.21.252.252,0,0,0-.058-.2l-.07-.187-.07-.152H28.95v-.3Zm-.782.3H30.176a2.558,2.558,0,0,1,.14.385,2.043,2.043,0,0,1,0,.374.887.887,0,0,1,0,.175.666.666,0,0,1,0,.163h1.028Z" transform="translate(0.521 -3.188)"/>
    <path id="Path_15586" data-name="Path 15586" d="M31.574,37.325a.267.267,0,0,0,.082.222,1.331,1.331,0,0,0,.117.222,1.251,1.251,0,0,0,.187.163.6.6,0,0,0,.257,0h.2a.7.7,0,0,0,.175-.105l.14-.21a1.086,1.086,0,0,0,.093-.327l.315.082a2.79,2.79,0,0,1-.128.374,1.319,1.319,0,0,1-.2.28,1.016,1.016,0,0,1-.269.187.852.852,0,0,1-.35.07.887.887,0,0,1-.584-.222,1.366,1.366,0,0,1-.339-.689Zm1.249,1.6h-.444v2.8h-.339v-2.8h-.479v-.3h1.261Z" transform="translate(0.91 -3.37)"/>
    <path id="Path_15587" data-name="Path 15587" d="M36.445,38.737h-1.8v.806h0a.607.607,0,0,1,.117-.128.6.6,0,0,1,.152-.105l.175-.07h.187a.619.619,0,0,1,.514.234.631.631,0,0,1,.152.257.887.887,0,0,1,0,.315.852.852,0,0,1-.07.35,1.168,1.168,0,0,1-.175.292,1.051,1.051,0,0,1-.222.234l-.257.175-.187-.327h.105l.117-.082.128-.117a1.1,1.1,0,0,0,.105-.14.432.432,0,0,0,.082-.163.479.479,0,0,0,0-.187.9.9,0,0,0,0-.175.876.876,0,0,0-.082-.14l-.058-.175a.327.327,0,0,0-.152,0,.479.479,0,0,0-.222,0,.56.56,0,0,0-.187.14.677.677,0,0,0-.152.175.5.5,0,0,0-.082.187v1.425h-.374v-.992h0a.712.712,0,0,1-.28.175.981.981,0,0,1-.315,0,.829.829,0,0,1-.3,0,.7.7,0,0,1-.245-.163.677.677,0,0,1-.152-.269.957.957,0,0,1-.058-.385V38.714H32.44v-.3h3.97Zm-2.148,0H33.281V39.9a.724.724,0,0,0,0,.234.619.619,0,0,0,0,.175.3.3,0,0,0,.128.117.549.549,0,0,0,.2,0,.455.455,0,0,0,.187,0,.712.712,0,0,0,.163-.082.467.467,0,0,0,.14-.117.747.747,0,0,0,.117-.152Z" transform="translate(1.106 -3.183)"/>
    <path id="Path_15588" data-name="Path 15588" d="M36.119,42.144l-.829-.771.21-.234.829.771Z" transform="translate(1.584 -2.725)"/>
    <path id="Path_15589" data-name="Path 15589" d="M38.027,41.2a1.974,1.974,0,0,1-.362.152,1.425,1.425,0,0,1-.374,0,1.249,1.249,0,0,1-.479-.093.806.806,0,0,1-.35-.234,1.074,1.074,0,0,1-.234-.362,1.236,1.236,0,0,1-.012-.852.712.712,0,0,1,.2-.28.864.864,0,0,1,.3-.175,1.168,1.168,0,0,1,.362,0h.409v-.619H35.75v-.3h2.627v.3h-.584v.922H37.21a.993.993,0,0,0-.269,0,.631.631,0,0,0-.21.128.5.5,0,0,0-.14.2.712.712,0,0,0,0,.28.7.7,0,0,0,.21.56.666.666,0,0,0,.245.152.724.724,0,0,0,.315,0,.642.642,0,0,0,.21,0h.2l.2-.082.163-.105Z" transform="translate(1.661 -3.179)"/>
    <path id="Path_15590" data-name="Path 15590" d="M40.724,38.754H40.28v2.8h-.339V40.82h0l-.105.082-.14.07H39.51a.642.642,0,0,1-.222,0,.911.911,0,0,1-.409-.082.876.876,0,0,1-.327-.21.888.888,0,0,1-.21-.3,1.016,1.016,0,0,1-.07-.374.853.853,0,0,1,.07-.35.747.747,0,0,1,.21-.292,1.168,1.168,0,0,1,.3-.187.946.946,0,0,1,.362-.07h.327a.9.9,0,0,1,.2.082,1.168,1.168,0,0,1,.2.152h0v-.724H37.91v-.3h2.814ZM38.587,40.12a.479.479,0,0,0,0,.222.537.537,0,0,0,.117.21.5.5,0,0,0,.2.14.619.619,0,0,0,.269,0,.689.689,0,0,0,.269,0l-.689-1.039a.537.537,0,0,0-.152.21.631.631,0,0,0-.012.257Zm1.366-.245-.163-.152a.829.829,0,0,0-.163-.117.514.514,0,0,0-.187-.07.549.549,0,0,0-.2,0h-.187l.677,1.028a1.284,1.284,0,0,0,.163-.21.479.479,0,0,0,0-.222Z" transform="translate(2.023 -3.2)"/>
    <path id="Path_15591" data-name="Path 15591" d="M40.254,37.325a.958.958,0,0,0,.07.222.841.841,0,0,0,.128.222.782.782,0,0,0,.175.163.654.654,0,0,0,.269,0h.187a.7.7,0,0,0,.175-.105.666.666,0,0,0,.14-.21,1.074,1.074,0,0,0,.105-.327l.3.082a1.763,1.763,0,0,1-.128.374,1,1,0,0,1-.2.28.852.852,0,0,1-.269.187.876.876,0,0,1-.922-.152,1.168,1.168,0,0,1-.339-.689Zm1.238,1.6h-.444v2.8h-.339v-2.8H40.23v-.3h1.261Z" transform="translate(2.365 -3.37)"/>
    <path id="Path_15592" data-name="Path 15592" d="M44.339,38.732h-.432v2.8h-.339v-1.95a.864.864,0,0,0-.21,0,.28.28,0,0,0-.175,0,.234.234,0,0,0-.117.093.409.409,0,0,0-.082.14.9.9,0,0,0,0,.175v.14H42.67a1.658,1.658,0,0,0,0-.234.7.7,0,0,0,0-.187.315.315,0,0,0-.105-.14.269.269,0,0,0-.163,0,.385.385,0,0,0-.175,0l-.117.117-.07.163a1.167,1.167,0,0,0,0,.21.969.969,0,0,0,.082.42,1.168,1.168,0,0,0,.21.339,1.436,1.436,0,0,0,.327.269,3.024,3.024,0,0,0,.385.222l-.175.28-.187-.093-.245-.163a1.669,1.669,0,0,1-.269-.234,1.483,1.483,0,0,1-.245-.292,1.728,1.728,0,0,1-.175-.362,1.168,1.168,0,0,1-.07-.42,1.016,1.016,0,0,1,0-.327.981.981,0,0,1,.14-.269.619.619,0,0,1,.514-.234.561.561,0,0,1,.21,0l.152.082a.327.327,0,0,1,.105.117.549.549,0,0,1,.07.105h0a.665.665,0,0,1,.093-.152l.128-.093a.5.5,0,0,1,.14,0h.4v-.514H41.14v-.3h3.2Z" transform="translate(2.565 -3.178)"/>
    <path id="Path_15593" data-name="Path 15593" d="M10.8,49.268a.876.876,0,0,0-.572.572,4.285,4.285,0,0,0,0,1.319,6.107,6.107,0,0,1,0,1.506,1.845,1.845,0,0,1-1.168,1.506,1.775,1.775,0,0,1-1.6-.152,2.884,2.884,0,0,1-1.168-1.53A3.141,3.141,0,0,1,6,51.136a2.254,2.254,0,0,1,.409-1.168,2.067,2.067,0,0,1,.946-.724l.455,1.168a1.168,1.168,0,0,0-.712.654,1.5,1.5,0,0,0,.07,1.063,1.518,1.518,0,0,0,.584.806.922.922,0,0,0,.806.058.782.782,0,0,0,.49-.584,4.04,4.04,0,0,0,0-1.319,5.359,5.359,0,0,1,0-1.471,2.242,2.242,0,0,1,.455-.957,1.985,1.985,0,0,1,.829-.572,1.74,1.74,0,0,1,1.588.14,2.977,2.977,0,0,1,1.168,1.565,3.6,3.6,0,0,1,.245,1.46,2.429,2.429,0,0,1-.327,1.249,2.078,2.078,0,0,1-.981.759l-.455-1.168a1.168,1.168,0,0,0,.747-.712,1.8,1.8,0,0,0-.093-1.168,1.588,1.588,0,0,0-.607-.829A.852.852,0,0,0,10.8,49.268Z" transform="translate(-3.326 -1.582)"/>
    <path id="Path_15594" data-name="Path 15594" d="M9.286,48.248a3.211,3.211,0,0,1-1.46,0,2.335,2.335,0,0,1-1.168-.689,2.475,2.475,0,0,1-.56-1.168,2.335,2.335,0,0,1,.374-1.868,2.791,2.791,0,0,1,1.7-1.051h.28a3.153,3.153,0,0,1,1.448,0,2.2,2.2,0,0,1,1.109.689,2.487,2.487,0,0,1,.631,1.109,2.335,2.335,0,0,1-.42,1.927,2.954,2.954,0,0,1-1.88,1.028ZM9.181,47.08a2.2,2.2,0,0,0,1.168-.572,1.189,1.189,0,0,0-.339-1.88,2.335,2.335,0,0,0-1.436-.082,2.113,2.113,0,0,0-1.168.572,1.168,1.168,0,0,0,.327,1.857,2.335,2.335,0,0,0,1.448.07Z" transform="translate(-3.319 -2.348)"/>
    <path id="Path_15595" data-name="Path 15595" d="M11.5,42.294l-4.484.07v.817h-.9v-.817h-.49a1.927,1.927,0,0,1-1.4-.467,1.95,1.95,0,0,1-.514-1.389,2.884,2.884,0,0,1,.082-.677h.946a2.721,2.721,0,0,0,0,.467q0,.864.911.841h.479V40.052h.887v1.1l4.5-.105Z" transform="translate(-3.71 -2.945)"/>
    <path id="Path_15596" data-name="Path 15596" d="M4.745,37.742l1.308.093.07-.946.887.07-.07.946,3,.234a.666.666,0,0,0,.455-.093.549.549,0,0,0,.163-.42,1.693,1.693,0,0,0,0-.42l.934.07a3.118,3.118,0,0,1,0,.794c-.07.934-.619,1.354-1.635,1.273L6.847,39.12V40l-.9-.07.07-.876L4.71,38.945Z" transform="translate(-3.542 -3.438)"/>
    <path id="Path_15597" data-name="Path 15597" d="M10.068,32.248a3.269,3.269,0,0,1,1.833.981,1.833,1.833,0,0,1,.385,1.658,1.775,1.775,0,0,1-.981,1.3l.549.187-.234,1.063L4.16,35.775l.257-1.168,2.709.607A1.8,1.8,0,0,1,6.834,33.7a1.833,1.833,0,0,1,1.051-1.343A3.246,3.246,0,0,1,10,32.248Zm-.362,1.168a2.335,2.335,0,0,0-1.354,0,1.051,1.051,0,0,0-.619.782,1.168,1.168,0,0,0,.432,1.284l2.172.479a1.168,1.168,0,0,0,.922-.934,1.016,1.016,0,0,0-.222-.946A2.335,2.335,0,0,0,9.87,33.5Z" transform="translate(-3.634 -4.237)"/>
    <path id="Path_15598" data-name="Path 15598" d="M13.516,29.944A1.938,1.938,0,0,1,13,29.885a1.892,1.892,0,0,1,0,1.53,1.915,1.915,0,0,1-.946,1.051,1.651,1.651,0,0,1-2.219-1.1,3.141,3.141,0,0,1,.28-1.868l.28-.677-.315-.14a.946.946,0,0,0-.712,0,.876.876,0,0,0-.5.549.969.969,0,0,0-.07.712.654.654,0,0,0,.4.479l-.467,1.109a1.249,1.249,0,0,1-.642-.584,2.032,2.032,0,0,1-.257-.969,2.966,2.966,0,0,1,.234-1.168,2.254,2.254,0,0,1,1.028-1.168,1.693,1.693,0,0,1,1.448,0l2.242.934a2.767,2.767,0,0,0,1.168.257h.082Zm-1.308.9a1.541,1.541,0,0,0,.093-.689,1.086,1.086,0,0,0-.245-.619l-.934-.4-.257.607a1.728,1.728,0,0,0-.175,1.016.794.794,0,0,0,.479.572.782.782,0,0,0,.607,0A.946.946,0,0,0,12.209,30.843Z" transform="translate(-3.019 -5.015)"/>
    <path id="Path_15599" data-name="Path 15599" d="M15.031,27.626l-.6,1.051L7.85,24.871l.607-1.051Z" transform="translate(-3.016 -5.629)"/>
    <path id="Path_15600" data-name="Path 15600" d="M16.2,25.942l-.689,1L9.23,22.614l.677-1Z" transform="translate(-2.784 -5.999)"/>
    <path id="Path_15601" data-name="Path 15601" d="M19.378,19.986l-2.067,1.9.712,1.635-.957.887-2.9-7.181L15,16.46l6.924,3.5-.946.864Zm-2.487.911,1.541-1.413-2.814-1.506Z" transform="translate(-1.956 -6.862)"/>
    <path id="Path_15602" data-name="Path 15602" d="M23.258,17.362a.549.549,0,0,0-.49-.28,2.884,2.884,0,0,0-.9.21,4.344,4.344,0,0,1-1.051.269,1.378,1.378,0,0,1-1.436-.6,1.413,1.413,0,0,1-.117-1.3A2.254,2.254,0,0,1,20.281,14.5a2.452,2.452,0,0,1,1.576-.42,1.565,1.565,0,0,1,1.168.736L22,15.459a.7.7,0,0,0-.525-.35.946.946,0,0,0-.7.163,1.1,1.1,0,0,0-.455.5.572.572,0,0,0,0,.549.525.525,0,0,0,.432.245,3.246,3.246,0,0,0,.957-.234,4.67,4.67,0,0,1,1.168-.28,1.646,1.646,0,0,1,.782.128,1.238,1.238,0,0,1,.549.525,1.366,1.366,0,0,1,.117,1.308,2.569,2.569,0,0,1-1.1,1.168,2.872,2.872,0,0,1-1.168.42,1.88,1.88,0,0,1-1.028-.128,1.611,1.611,0,0,1-.724-.607l.992-.631a.876.876,0,0,0,.631.4,1.273,1.273,0,0,0,.794-.222,1.168,1.168,0,0,0,.514-.537.549.549,0,0,0,.023-.514Z" transform="translate(-1.12 -7.262)"/>
    <path id="Path_15603" data-name="Path 15603" d="M27.246,15.515a.537.537,0,0,0-.432-.35,3.036,3.036,0,0,0-.922.058,4.671,4.671,0,0,1-1.086.093,1.389,1.389,0,0,1-1.319-.829,1.425,1.425,0,0,1,.105-1.308,2.675,2.675,0,0,1,2.849-1.168,1.518,1.518,0,0,1,1.016.911l-1.168.467a.747.747,0,0,0-.455-.444.992.992,0,0,0-.724,0,1,1,0,0,0-.525.409.572.572,0,0,0,0,.56.49.49,0,0,0,.385.3,3.3,3.3,0,0,0,.992-.07,4.344,4.344,0,0,1,1.168-.082,1.763,1.763,0,0,1,.759.245,1.3,1.3,0,0,1,.455.607,1.4,1.4,0,0,1-.105,1.319,2.51,2.51,0,0,1-1.284,1.016,2.721,2.721,0,0,1-1.168.234,1.88,1.88,0,0,1-.992-.3,1.46,1.46,0,0,1-.607-.724l1.074-.444a.887.887,0,0,0,.56.49,1.3,1.3,0,0,0,.817-.093,1.168,1.168,0,0,0,.6-.444.549.549,0,0,0,.012-.455Z" transform="translate(-0.413 -7.622)"/>
    <path id="Path_15604" data-name="Path 15604" d="M28.011,13.777a3.41,3.41,0,0,1,0-1.46,2.242,2.242,0,0,1,.654-1.168,2.54,2.54,0,0,1,3.048-.315,2.732,2.732,0,0,1,1.168,1.658l.07.28a3.083,3.083,0,0,1,0,1.46,2.207,2.207,0,0,1-.642,1.168,2.475,2.475,0,0,1-1.168.619,2.335,2.335,0,0,1-1.95-.35,2.966,2.966,0,0,1-1.109-1.822Zm1.168-.163a2.265,2.265,0,0,0,.619,1.168,1.168,1.168,0,0,0,1.039.245,1.1,1.1,0,0,0,.829-.666,2.335,2.335,0,0,0,0-1.448,2.148,2.148,0,0,0-.619-1.168,1.168,1.168,0,0,0-1.857.4,2.464,2.464,0,0,0,.07,1.471Z" transform="translate(0.351 -7.869)"/>
    <path id="Path_15605" data-name="Path 15605" d="M35.559,14.453a1.063,1.063,0,0,0,.736-.3.911.911,0,0,0,.28-.666l1.168-.058a1.728,1.728,0,0,1-.257.946,2,2,0,0,1-.759.736,2.394,2.394,0,0,1-1.074.315,2.335,2.335,0,0,1-1.822-.642A2.872,2.872,0,0,1,33,12.807v-.128a2.837,2.837,0,0,1,.56-2,2.335,2.335,0,0,1,1.775-.841,2.242,2.242,0,0,1,1.6.479,2.032,2.032,0,0,1,.736,1.436H36.5a1.1,1.1,0,0,0-.35-.747,1.051,1.051,0,0,0-.771-.257,1.086,1.086,0,0,0-.887.479,2.184,2.184,0,0,0-.245,1.308v.187a2.137,2.137,0,0,0,.385,1.3,1.063,1.063,0,0,0,.922.432Z" transform="translate(1.198 -7.973)"/>
    <path id="Path_15606" data-name="Path 15606" d="M38.958,15.7l-1.168-.093.409-5.371,1.168.093ZM38.2,8.835a.619.619,0,0,1,.21-.444.631.631,0,0,1,.514-.14.607.607,0,0,1,.49.222.6.6,0,0,1,.152.467.631.631,0,0,1-.222.444.666.666,0,0,1-.514.14.654.654,0,0,1-.49-.222A.642.642,0,0,1,38.2,8.835Z" transform="translate(2.003 -8.24)"/>
    <path id="Path_15607" data-name="Path 15607" d="M42.856,16.033a1.961,1.961,0,0,1,0-.514,1.9,1.9,0,0,1-1.506.3,1.962,1.962,0,0,1-1.168-.724,1.5,1.5,0,0,1-.269-1.168,1.53,1.53,0,0,1,.9-1.168,3.176,3.176,0,0,1,1.88-.082l.724.152.07-.339a.969.969,0,0,0-.093-.712.934.934,0,0,0-.642-.385,1.039,1.039,0,0,0-.712.07.631.631,0,0,0-.362.455l-1.168-.245a1.3,1.3,0,0,1,.455-.747,1.9,1.9,0,0,1,.9-.432,2.907,2.907,0,0,1,1.168,0,2.335,2.335,0,0,1,1.389.771,1.693,1.693,0,0,1,.292,1.425l-.49,2.335a2.872,2.872,0,0,0,0,1.168v.082Zm-1.168-1.168a1.378,1.378,0,0,0,.689,0,1.1,1.1,0,0,0,.56-.362l.21-.992-.6-.082a1.786,1.786,0,0,0-1.039,0,.759.759,0,0,0-.455.584.712.712,0,0,0,.128.584.9.9,0,0,0,.549.315Z" transform="translate(2.355 -7.872)"/>
    <path id="Path_15608" data-name="Path 15608" d="M47.717,10.8l-.444,1.226.9.327-.3.841-.9-.327-1.016,2.9a.689.689,0,0,0,0,.455c0,.117.163.21.362.28a2.335,2.335,0,0,0,.409.093l-.315.876a2.732,2.732,0,0,1-.782-.163,1.279,1.279,0,0,1-.794-1.915l1.028-2.872-.806-.35.3-.841.829.292.444-1.168Z" transform="translate(3.157 -7.87)"/>
    <path id="Path_15609" data-name="Path 15609" d="M47.858,18.179l-1.1-.514L49.1,12.784l1.1.514Zm1.7-6.691a.666.666,0,0,1,.362-.35.677.677,0,0,1,.537,0,.642.642,0,0,1,.339.887.572.572,0,0,1-.35.327.677.677,0,0,1-.537,0,.607.607,0,0,1-.35-.864Z" transform="translate(3.507 -7.764)"/>
    <path id="Path_15610" data-name="Path 15610" d="M49.739,15.638a3.223,3.223,0,0,1,1.039-1.028,2.242,2.242,0,0,1,1.261-.35,2.522,2.522,0,0,1,1.284.409,2.335,2.335,0,0,1,1.168,1.553,2.826,2.826,0,0,1-.374,1.962l-.152.234a3.234,3.234,0,0,1-1.028,1.039,2.242,2.242,0,0,1-1.261.35,2.51,2.51,0,0,1-1.3-.42,2.335,2.335,0,0,1-1.168-1.623,2.884,2.884,0,0,1,.514-2.078Zm.969.736a2.148,2.148,0,0,0-.409,1.284,1.1,1.1,0,0,0,.549.911,1.086,1.086,0,0,0,1.063.105,2.335,2.335,0,0,0,1.039-.992,2.148,2.148,0,0,0,.4-1.273,1.168,1.168,0,0,0-.549-.922,1.1,1.1,0,0,0-1.039-.105A2.335,2.335,0,0,0,50.709,16.374Z" transform="translate(3.914 -7.231)"/>
    <path id="Path_15611" data-name="Path 15611" d="M56.95,17.491l-.4.479a1.938,1.938,0,0,1,1.646.537,1.657,1.657,0,0,1,0,2.569l-2.417,2.616-.887-.817,2.335-2.557a1.168,1.168,0,0,0,.362-.712.957.957,0,0,0-.362-.677,1.168,1.168,0,0,0-1.249-.245l-2.6,2.814-.887-.829,3.655-3.947Z" transform="translate(4.468 -6.819)"/>
    <path id="Path_15612" data-name="Path 15612" d="M59.215,23.516A3.153,3.153,0,0,1,60.546,23a2.335,2.335,0,0,1,1.3.21,2.5,2.5,0,0,1,.992.922A2.417,2.417,0,0,1,63.2,26a2.826,2.826,0,0,1-1.168,1.623l-.234.152a3.2,3.2,0,0,1-1.366.5,2.183,2.183,0,0,1-1.284-.21,2.522,2.522,0,0,1-1-.922A2.335,2.335,0,0,1,57.8,25.2a2.919,2.919,0,0,1,1.331-1.658Zm.56,1.074a2.137,2.137,0,0,0-.911.992,1.168,1.168,0,0,0,1.028,1.6,2.335,2.335,0,0,0,1.366-.467,2.113,2.113,0,0,0,.9-.992,1.168,1.168,0,0,0-1.051-1.553,2.335,2.335,0,0,0-1.366.42Z" transform="translate(5.344 -5.769)"/>
    <path id="Path_15613" data-name="Path 15613" d="M59.68,29.679l4.087-1.833-.327-.794.817-.362.327.747.455-.2a1.81,1.81,0,0,1,1.46-.117A1.927,1.927,0,0,1,67.515,28.2a2.534,2.534,0,0,1,.2.654l-.876.362a2.863,2.863,0,0,0-.152-.444.782.782,0,0,0-1.168-.432l-.432.2.444,1-.817.362-.444-.992-4.1,1.88Z" transform="translate(5.673 -5.147)"/>
    <path id="Path_15614" data-name="Path 15614" d="M61.622,35.2l-.292-1.168L68.336,32.3l.3,1.226Z" transform="translate(5.949 -4.207)"/>
    <path id="Path_15615" data-name="Path 15615" d="M67.308,36.418l-.607.093a1.927,1.927,0,0,1,.876,1.483c.128,1.168-.455,1.751-1.728,1.9l-3.5.374L62.217,39.1l3.5-.362a1.168,1.168,0,0,0,.736-.3.958.958,0,0,0,.163-.747,1.168,1.168,0,0,0-.771-1l-3.83.362L61.89,35.88l5.348-.56Z" transform="translate(6.043 -3.701)"/>
    <path id="Path_15616" data-name="Path 15616" d="M65.048,40.322a3.223,3.223,0,0,1,1.962.712,1.857,1.857,0,0,1,.642,1.6,1.74,1.74,0,0,1-.7,1.331l2.756.2-.082,1.168L62,44.829l.07-1.086h.56a1.786,1.786,0,0,1-.549-1.46,1.857,1.857,0,0,1,.864-1.471A3.363,3.363,0,0,1,65.048,40.322Zm-.187,1.168a2.254,2.254,0,0,0-1.3.234,1.028,1.028,0,0,0-.525.864,1.168,1.168,0,0,0,.584,1.168l2.335.163a1.168,1.168,0,0,0,.712-1.051,1.016,1.016,0,0,0-.4-.934,2.534,2.534,0,0,0-1.413-.42Z" transform="translate(6.062 -2.865)"/>
    <path id="Path_15617" data-name="Path 15617" d="M61.58,46.288l.234-1.168,5.278,1.028-.245,1.168Zm6.9.082a.666.666,0,0,1,.409.269.631.631,0,0,1,.082.537.619.619,0,0,1-.28.455.642.642,0,0,1-.49.082.63.63,0,0,1-.409-.269.831.831,0,0,1,.2-.992.7.7,0,0,1,.49-.082Z" transform="translate(5.991 -2.058)"/>
    <path id="Path_15618" data-name="Path 15618" d="M60.6,50.047a1.693,1.693,0,0,1,.525,0,2.02,2.02,0,0,1,.747-2.627,1.425,1.425,0,0,1,1.249-.117,1.506,1.506,0,0,1,1.039,1.028,3.106,3.106,0,0,1-.152,1.88l-.234.7.327.105a.841.841,0,0,0,1.168-.6,1.039,1.039,0,0,0,0-.7.642.642,0,0,0-.409-.42l.385-1.168a1.3,1.3,0,0,1,.689.537,1.938,1.938,0,0,1,.315.957,2.767,2.767,0,0,1-.152,1.168,2.265,2.265,0,0,1-.934,1.273,1.681,1.681,0,0,1-1.448.117l-2.335-.771a2.709,2.709,0,0,0-1.168-.187H60.13Zm1.249-.981a1.413,1.413,0,0,0,0,.7,1.168,1.168,0,0,0,.292.6l.957.327.21-.619a1.857,1.857,0,0,0,.105-1.028.759.759,0,0,0-.525-.537.747.747,0,0,0-.6,0A.934.934,0,0,0,61.846,49.066Z" transform="translate(5.748 -1.707)"/>
  </g>
</svg>
