<svg xmlns="http://www.w3.org/2000/svg" width="20.2" height="31.662" viewBox="0 0 20.2 31.662">
  <path id="Spending" d="M129.787,40.23a.869.869,0,0,1,.533.912c-.014.628,0,1.257,0,1.885,0,.7-.233.929-.924.93h-5.019a6.3,6.3,0,0,1,.518.826c.3.708.571,1.428.83,2.151.069.2.135.277.356.275,1.134-.013,2.268-.008,3.4-.006.642,0,.877.237.88.876v1.978c0,.63-.247.869-.887.871-1.113,0-2.226,0-3.339,0-.2,0-.281.048-.319.259a8.3,8.3,0,0,1-2.794,4.955,10.531,10.531,0,0,1-4.741,2.268c-.481.1-.967.18-1.494.278.1.115.185.215.273.31,3.468,3.757,6.716,7.7,9.959,11.648a.7.7,0,0,1,.16.819.747.747,0,0,1-.753.428q-2.1-.007-4.2,0a.912.912,0,0,1-.738-.372c-2.012-2.373-4.011-4.758-6.051-7.106-1.561-1.8-3.168-3.55-4.775-5.308a1.617,1.617,0,0,1-.493-1.236c.036-.761.007-1.524.011-2.287a.768.768,0,0,1,.871-.874c1.277-.022,2.557,0,3.831-.079a7.331,7.331,0,0,0,4.015-1.341,4.135,4.135,0,0,0,1.521-2.123c.021-.066.029-.136.048-.233h-9.323c-.742,0-.963-.217-.964-.949V48.069c0-.616.246-.858.866-.858h9.123c-.079-.145-.133-.258-.2-.363a4.141,4.141,0,0,0-2.1-1.6,10.606,10.606,0,0,0-3.855-.576h-2.845c-.756,0-.986-.237-.986-1,0-.834.014-1.669-.006-2.5a.892.892,0,0,1,.513-.926Z" transform="translate(-110.162 -40.23)" fill="#fff"/>
</svg>
