<svg id="Squash_Racket_Federation_of_India" data-name="Squash Racket Federation of India" xmlns="http://www.w3.org/2000/svg" width="47.757" height="47.757" viewBox="0 0 47.757 47.757">
  <path id="Path_15674" data-name="Path 15674" d="M5.724,4.7H53.457V52.457H6.233c-.423,0-.533-.133-.533-.549V7.013ZM7.033,5.978V26.865c0,.455.2.478.557.478H52.163V5.978Zm10.7,31.511H7.543c-.455,0-.565.125-.565.572v12.4c0,.69,0,.7.682.7H28.344c.47,0,.588-.141.588-.6V28.637H18.268c-.47,0-.549.149-.549.58v7.566Zm34.5,0H42.12c-.431,0-.58-.1-.572-.557V28.661H30.319V51.124H51.693c.4,0,.51-.11.51-.51V38.007ZM7.009,36.635h9.738V28.661H7.441c-.376,0-.439.165-.439.486V35.5ZM42.48,28.653a1.912,1.912,0,0,0-.047.212v7.417c0,.353.149.408.463.408h8.774c.408,0,.549-.094.549-.525V29.108a1.726,1.726,0,0,0-.039-.439Z" transform="translate(-5.7 -4.7)"/>
  <path id="Path_15675" data-name="Path 15675" d="M24.24,26.58V25.8h1.38V9.692H24.24V8.907h6.751a4.5,4.5,0,0,1,2.94.855,3.175,3.175,0,0,1,1.192,2.093c.369,2.352-.47,4.7-3.489,5.136a.674.674,0,0,0-.423.22,1.568,1.568,0,0,0,.314.141A3.789,3.789,0,0,1,34.59,20.9c.125.964.149,1.944.212,2.917a4.712,4.712,0,0,0,.078,1.051c.11.784.463.98,1.184.729l.282-.1c.29.431.212.7-.243.964a2.746,2.746,0,0,1-4.32-1.756c-.172-1.106-.267-2.227-.384-3.34-.071-.706-.055-1.419-.188-2.109a1.977,1.977,0,0,0-2.517-1.717v8.193h1.513v.847Zm4.438-9.918h1.474A1.432,1.432,0,0,0,31.83,15.25a15.2,15.2,0,0,0-.039-4.618.87.87,0,0,0-.721-.784c-.784-.11-1.568-.118-2.391-.172Z" transform="translate(-9.704 -5.607)"/>
  <path id="Path_15676" data-name="Path 15676" d="M40.577,25.779h1.356V9.729H40.546V9H50.739v5.057c-.314.1-.486.039-.612-.416a17.633,17.633,0,0,0-.91-2.6,2.282,2.282,0,0,0-2.046-1.317c-.588-.039-1.176,0-1.764,0-.3,0-.376.118-.376.392v6.555c0,.353.157.431.455.416a1.717,1.717,0,0,0,1.678-1.153,12.63,12.63,0,0,0,.416-1.709c.047-.22.039-.431.369-.416s.274.267.274.463v6.61c0,.2.1.455-.259.478s-.321-.243-.376-.463A10.976,10.976,0,0,0,47.14,19a1.709,1.709,0,0,0-2.054-1.035V25.8h1.686v.847H41.3C40.475,26.633,40.475,26.633,40.577,25.779Z" transform="translate(-13.221 -5.629)"/>
  <path id="Path_15677" data-name="Path 15677" d="M19.3,13.373c-.416.133-.51,0-.627-.369a14.317,14.317,0,0,0-1.106-2.674,2.352,2.352,0,0,0-3.136-.87,2.666,2.666,0,0,0-1.184,3.011,2.352,2.352,0,0,0,1.3,1.4,7.84,7.84,0,0,0,1.309.525c2.9.957,4,2.352,4.234,5.379a8.044,8.044,0,0,1-1.333,5.661,3.434,3.434,0,0,1-5.214.541l-.337-.29a5.81,5.81,0,0,1-.6.745,4.328,4.328,0,0,1-.855.423V21.567c.416-.125.627-.071.784.423A15.03,15.03,0,0,0,13.71,24.8a2.548,2.548,0,0,0,2.681,1.309,2.431,2.431,0,0,0,2.18-1.968,7.1,7.1,0,0,0,.118-2.235,1.921,1.921,0,0,0-1.121-1.568,24.032,24.032,0,0,0-2.352-.98,4.61,4.61,0,0,1-3.332-4.226,7.582,7.582,0,0,1,.933-5.1,3.136,3.136,0,0,1,5.018-.706l.188.149c.423-.212.549-.9,1.278-.635v4.5Z" transform="translate(-7.006 -5.493)"/>
  <path id="Path_15678" data-name="Path 15678" d="M57.669,27.345h1.082c.157.839.141.862-.6.862H54.086v-.847l1.035-.055V17.474L54,17.419v-.784l3.677-.345Z" transform="translate(-16.13 -7.203)"/>
  <path id="Path_15679" data-name="Path 15679" d="M57.841,10.511a10,10,0,0,1-.619,1.748,1,1,0,0,1-1.772.039,3.3,3.3,0,0,1,0-3.52,1,1,0,0,1,1.8.1A11.033,11.033,0,0,1,57.841,10.511Z" transform="translate(-16.333 -5.469)"/>
</svg>
