<svg xmlns="http://www.w3.org/2000/svg" width="64.099" height="36.28" viewBox="0 0 64.099 36.28">
  <g id="Table_Tennis_Federation_of_India" data-name="Table Tennis Federation of India" transform="translate(-0.003 0.05)">
    <path id="Path_16260" data-name="Path 16260" d="M22.58,33.8c-4.26,0-8.52-.07-12.77,0-1.59,0-2-.49-1.94-2,.09-3.85.07-7.69,0-11.54,0-1.18.21-1.69,1.57-1.69q13.07.09,26.15,0c1.18,0,1.52.37,1.5,1.53q-.09,6.07,0,12.15c0,1.19-.42,1.52-1.56,1.51C31.23,33.77,26.9,33.8,22.58,33.8Zm.56-10.6H21.31c-.61,0-1,.77-.5.89,2.36.58.76,2.06.82,3.13,0,.67-.72,1.67.29,1.89s.75-1,1.07-1.62c.07-.11.05-.27.09-.4.37-1.16,0-2.9,2.06-2.85.13,0,.35-.39.38-.61s-.26-.44-.54-.44c-.61-.01-1.23,0-1.84.01Z" transform="translate(-4.1 -18.62)" fill="#079749"/>
    <path id="Path_16261" data-name="Path 16261" d="M53.8,18.65c4.26,0,8.52.05,12.77,0,1.25,0,1.66.33,1.63,1.6-.07,4-.06,8,0,12,0,1.25-.36,1.66-1.64,1.65q-13-.07-25.95,0c-1.18,0-1.53-.37-1.51-1.54q.09-6.08,0-12.15c0-1.19.38-1.51,1.53-1.5C45,18.69,49.41,18.65,53.8,18.65Zm-1.29,9.82c0,.14-.22.65.5.77.5.09.74-.27.88-.68a6.5,6.5,0,0,1,.18-.79c.58-1.32-.18-3.53,2.34-3.59.11,0,.28-.32.29-.5a.544.544,0,0,0-.51-.48H52.31a.85.85,0,0,0-.55.49c-.15.42.17.63.54.64,1.33,0,.87.91.77,1.58S52.75,27.41,52.51,28.47Z" transform="translate(-4.1 -18.62)" fill="#079749"/>
    <path id="Path_16262" data-name="Path 16262" d="M61.85,35.86c1.64,0,3.29.09,4.93,0,1.08,0,1.43.34,1.42,1.41,0,4-.06,8.1,0,12.15,0,1.16-.38,1.53-1.54,1.53q-13.06-.06-26.13,0c-1.06,0-1.44-.34-1.43-1.42,0-2.74,0-5.49-.05-8.23V36.12l.24-.22a.17.17,0,0,0,.21,0,2.83,2.83,0,0,0,1.68,0H54.82a7.45,7.45,0,0,0,2.9,0h4.13Zm-6.79,4.57c0-.39.24-.84-.33-1s-.9.18-1,.69c-.32,1.4-.63,2.8-.9,4.2-.08.43-.24,1,.5,1.09.5,0,.69-.33.79-.76Z" transform="translate(-4.1 -18.62)" fill="#079749"/>
    <path id="Path_16263" data-name="Path 16263" d="M29.29,35.86h4.52a5.66,5.66,0,0,0,2.49,0l.52.07c.38,5,0,10,.16,14.94H8.06c0-4.32,0-8.64-.09-12.95,0-1.57.56-2.08,2-2.06H14.9a4.15,4.15,0,0,0,2.07,0H19a36.37,36.37,0,0,0,6.6,0h2.05a2.77,2.77,0,0,0,1.64,0Zm-4.65,7.46c-.67-.82-2.27.18-2.25-.86,0-1.4,1.51-.38,2.26-.73a2.62,2.62,0,0,0,.66-.41c.19-.19.32-.58,0-.68a10.12,10.12,0,0,0-3.43-.19c-.74,0-.81.58-.92,1.13-.25,1.2-.56,2.39-.78,3.59-.07.42-.35,1,.31,1.22s.94-.4,1-1c.13-1.33.88-1.67,2.09-1.48a.84.84,0,0,0,1.06-.59Z" transform="translate(-4.1 -18.62)" fill="#079749"/>
    <path id="Path_16264" data-name="Path 16264" d="M45.73,52.58h5.41a.32.32,0,0,0,.52,0c4.89,0,9.79.1,14.67,0,1.57,0,2.17.44,1.72,2-1.71,0-3.42-.05-5.12,0-4.77.11-9.54-.23-14.3.21q-21.09,0-42.16.06c-1.92,0-2.38-.52-2.36-2.37.09-10.77,0-21.54.07-32.3,0-.53-.39-1.37.58-1.48.61-.08,1.45-.33,1.53.77-.19,3.71-.18,7.42,0,11.14v2a19.24,19.24,0,0,0,0,4.55v3.28a57.129,57.129,0,0,0,0,7.85V50C6,52.83,6,52.83,8.79,52.83H26.65a80.9,80.9,0,0,0,9.21-.18h2.92a1.09,1.09,0,0,0,1.2,0h1.69A9.42,9.42,0,0,0,45.73,52.58Z" transform="translate(-4.1 -18.62)" fill="#079749"/>
    <path id="Path_16265" data-name="Path 16265" d="M39.35,35.9l-.24.22A.26.26,0,0,1,39.35,35.9Z" transform="translate(-4.1 -18.62)" fill="#c3ebd7"/>
  </g>
</svg>
