<svg xmlns="http://www.w3.org/2000/svg" xmlns:xlink="http://www.w3.org/1999/xlink" width="55.192" height="59.647" viewBox="0 0 55.192 59.647">
  <defs>
    <clipPath id="clip-path">
      <path id="Path_16269" data-name="Path 16269" d="M23.269,36.665s-2.046-.924,0-2.7S51.373,19.3,75.84,17.91c0,0,.3.7-.838.7S40.092,25.3,25.372,35.486A22.994,22.994,0,0,1,23.269,36.665Z" transform="translate(-22.36 -17.91)" fill="none"/>
    </clipPath>
    <clipPath id="clip-path-2">
      <circle id="Ellipse_622" data-name="Ellipse 622" cx="2.231" cy="2.231" r="2.231" fill="none"/>
    </clipPath>
  </defs>
  <g id="Taekwondo_Federation_of_India" data-name="Taekwondo Federation of India" transform="translate(-19.78 0.021)">
    <path id="Path_16266" data-name="Path 16266" d="M21.18,61.929l7.687-29.553,12.7-4.916s-12.5,19.991-9.562,32.793C32.007,60.253,24.334,60.551,21.18,61.929Z" transform="translate(-1.4 -2.303)" fill="#db2925"/>
    <path id="Path_16267" data-name="Path 16267" d="M49.7,29.134S52.66,47.605,46.55,60.392c0,0,2.955-2.259,4.93-.781,0,0-1.975-9.662,7.189-33.091C58.67,26.477,55.118,32.885,49.7,29.134Z" transform="translate(9.276 -2.699)" fill="#db2925"/>
    <path id="Path_16268" data-name="Path 16268" d="M33.869,61.494l3.666-15.629L33.4,48.707,34.92,45.4l3.14-1.762,3.026-14.975L45.221,23.8s-4.916,16.482-4.532,17.8a20.531,20.531,0,0,1,13.725-2.359s-11.565,1.421-14.45,4.987c0,0-2.231,13.4-2.16,16.936Z" transform="translate(3.742 -3.843)" fill="#1d1916"/>
    <g id="Group_418" data-name="Group 418" transform="translate(21.457 11.588)" clip-path="url(#clip-path)">
      <rect id="Rectangle_14657" data-name="Rectangle 14657" width="1.137" height="18.741" transform="translate(-1.122 0.014)" fill="#d02d26"/>
      <rect id="Rectangle_14658" data-name="Rectangle 14658" width="0.355" height="18.741" transform="translate(0.014 0.014)" fill="#d02d26"/>
      <rect id="Rectangle_14659" data-name="Rectangle 14659" width="0.355" height="18.741" transform="translate(0.369 0.014)" fill="#cf2d26"/>
      <rect id="Rectangle_14660" data-name="Rectangle 14660" width="0.355" height="18.741" transform="translate(0.725 0.014)" fill="#ce2e27"/>
      <rect id="Rectangle_14661" data-name="Rectangle 14661" width="0.355" height="18.741" transform="translate(1.08 0.014)" fill="#cd2e27"/>
      <rect id="Rectangle_14662" data-name="Rectangle 14662" width="0.355" height="18.741" transform="translate(1.435 0.014)" fill="#cc2f28"/>
      <rect id="Rectangle_14663" data-name="Rectangle 14663" width="0.355" height="18.741" transform="translate(1.79 0.014)" fill="#cb2f28"/>
      <rect id="Rectangle_14664" data-name="Rectangle 14664" width="0.355" height="18.741" transform="translate(2.145 0.014)" fill="#ca3029"/>
      <rect id="Rectangle_14665" data-name="Rectangle 14665" width="0.355" height="18.741" transform="translate(2.501 0.014)" fill="#c93029"/>
      <rect id="Rectangle_14666" data-name="Rectangle 14666" width="0.355" height="18.741" transform="translate(2.856 0.014)" fill="#c83129"/>
      <rect id="Rectangle_14667" data-name="Rectangle 14667" width="0.355" height="18.741" transform="translate(3.211 0.014)" fill="#c7312a"/>
      <rect id="Rectangle_14668" data-name="Rectangle 14668" width="0.355" height="18.741" transform="translate(3.566 0.014)" fill="#c6322a"/>
      <rect id="Rectangle_14669" data-name="Rectangle 14669" width="0.355" height="18.741" transform="translate(3.921 0.014)" fill="#c5322b"/>
      <rect id="Rectangle_14670" data-name="Rectangle 14670" width="0.355" height="18.741" transform="translate(4.277 0.014)" fill="#c4332b"/>
      <rect id="Rectangle_14671" data-name="Rectangle 14671" width="0.355" height="18.741" transform="translate(4.632 0.014)" fill="#c3332c"/>
      <rect id="Rectangle_14672" data-name="Rectangle 14672" width="0.355" height="18.741" transform="translate(4.987 0.014)" fill="#c2332c"/>
      <rect id="Rectangle_14673" data-name="Rectangle 14673" width="0.355" height="18.741" transform="translate(5.342 0.014)" fill="#c1342c"/>
      <rect id="Rectangle_14674" data-name="Rectangle 14674" width="0.355" height="18.741" transform="translate(5.697 0.014)" fill="#c0342d"/>
      <rect id="Rectangle_14675" data-name="Rectangle 14675" width="0.355" height="18.741" transform="translate(6.053 0.014)" fill="#bf352d"/>
      <rect id="Rectangle_14676" data-name="Rectangle 14676" width="0.355" height="18.741" transform="translate(6.408 0.014)" fill="#be352e"/>
      <rect id="Rectangle_14677" data-name="Rectangle 14677" width="0.355" height="18.741" transform="translate(6.763 0.014)" fill="#bd362e"/>
      <rect id="Rectangle_14678" data-name="Rectangle 14678" width="0.355" height="18.741" transform="translate(7.118 0.014)" fill="#bc362e"/>
      <rect id="Rectangle_14679" data-name="Rectangle 14679" width="0.355" height="18.741" transform="translate(7.474 0.014)" fill="#bb372f"/>
      <rect id="Rectangle_14680" data-name="Rectangle 14680" width="0.355" height="18.741" transform="translate(7.829 0.014)" fill="#ba372f"/>
      <rect id="Rectangle_14681" data-name="Rectangle 14681" width="0.355" height="18.741" transform="translate(8.184 0.014)" fill="#b93830"/>
      <rect id="Rectangle_14682" data-name="Rectangle 14682" width="0.355" height="18.741" transform="translate(8.539 0.014)" fill="#b83830"/>
      <rect id="Rectangle_14683" data-name="Rectangle 14683" width="0.355" height="18.741" transform="translate(8.894 0.014)" fill="#b73931"/>
      <rect id="Rectangle_14684" data-name="Rectangle 14684" width="0.355" height="18.741" transform="translate(9.25 0.014)" fill="#b63931"/>
      <rect id="Rectangle_14685" data-name="Rectangle 14685" width="0.355" height="18.741" transform="translate(9.605 0.014)" fill="#b53931"/>
      <rect id="Rectangle_14686" data-name="Rectangle 14686" width="0.355" height="18.741" transform="translate(9.96 0.014)" fill="#b43a32"/>
      <rect id="Rectangle_14687" data-name="Rectangle 14687" width="0.355" height="18.741" transform="translate(10.315 0.014)" fill="#b33a32"/>
      <rect id="Rectangle_14688" data-name="Rectangle 14688" width="0.355" height="18.741" transform="translate(10.67 0.014)" fill="#b23b33"/>
      <rect id="Rectangle_14689" data-name="Rectangle 14689" width="0.355" height="18.741" transform="translate(11.026 0.014)" fill="#b13b33"/>
      <rect id="Rectangle_14690" data-name="Rectangle 14690" width="0.355" height="18.741" transform="translate(11.381 0.014)" fill="#b03c34"/>
      <rect id="Rectangle_14691" data-name="Rectangle 14691" width="0.355" height="18.741" transform="translate(11.736 0.014)" fill="#af3c34"/>
      <rect id="Rectangle_14692" data-name="Rectangle 14692" width="0.355" height="18.741" transform="translate(12.091 0.014)" fill="#ae3d34"/>
      <rect id="Rectangle_14693" data-name="Rectangle 14693" width="0.355" height="18.741" transform="translate(12.446 0.014)" fill="#ad3d35"/>
      <rect id="Rectangle_14694" data-name="Rectangle 14694" width="0.355" height="18.741" transform="translate(12.802 0.014)" fill="#ac3e35"/>
      <rect id="Rectangle_14695" data-name="Rectangle 14695" width="0.355" height="18.741" transform="translate(13.157 0.014)" fill="#ab3e36"/>
      <rect id="Rectangle_14696" data-name="Rectangle 14696" width="0.355" height="18.741" transform="translate(13.512 0.014)" fill="#aa3f36"/>
      <rect id="Rectangle_14697" data-name="Rectangle 14697" width="0.355" height="18.741" transform="translate(13.867 0.014)" fill="#a83f37"/>
      <rect id="Rectangle_14698" data-name="Rectangle 14698" width="0.355" height="18.741" transform="translate(14.222 0.014)" fill="#a73f37"/>
      <rect id="Rectangle_14699" data-name="Rectangle 14699" width="0.355" height="18.741" transform="translate(14.578 0.014)" fill="#a64037"/>
      <rect id="Rectangle_14700" data-name="Rectangle 14700" width="0.355" height="18.741" transform="translate(14.933 0.014)" fill="#a54038"/>
      <rect id="Rectangle_14701" data-name="Rectangle 14701" width="0.355" height="18.741" transform="translate(15.288 0.014)" fill="#a44138"/>
      <rect id="Rectangle_14702" data-name="Rectangle 14702" width="0.355" height="18.741" transform="translate(15.643 0.014)" fill="#a34139"/>
      <rect id="Rectangle_14703" data-name="Rectangle 14703" width="0.355" height="18.741" transform="translate(15.998 0.014)" fill="#a24239"/>
      <rect id="Rectangle_14704" data-name="Rectangle 14704" width="0.355" height="18.741" transform="translate(16.354 0.014)" fill="#a14239"/>
      <rect id="Rectangle_14705" data-name="Rectangle 14705" width="0.355" height="18.741" transform="translate(16.709 0.014)" fill="#a0433a"/>
      <rect id="Rectangle_14706" data-name="Rectangle 14706" width="0.355" height="18.741" transform="translate(17.064 0.014)" fill="#9f433a"/>
      <rect id="Rectangle_14707" data-name="Rectangle 14707" width="0.355" height="18.741" transform="translate(17.419 0.014)" fill="#9e443b"/>
      <rect id="Rectangle_14708" data-name="Rectangle 14708" width="0.355" height="18.741" transform="translate(17.774 0.014)" fill="#9d443b"/>
      <rect id="Rectangle_14709" data-name="Rectangle 14709" width="0.355" height="18.741" transform="translate(18.13 0.014)" fill="#9c453c"/>
      <rect id="Rectangle_14710" data-name="Rectangle 14710" width="0.355" height="18.741" transform="translate(18.485 0.014)" fill="#9b453c"/>
      <rect id="Rectangle_14711" data-name="Rectangle 14711" width="0.355" height="18.741" transform="translate(18.854 0.014)" fill="#9a453c"/>
      <rect id="Rectangle_14712" data-name="Rectangle 14712" width="0.355" height="18.741" transform="translate(19.209 0.014)" fill="#99463d"/>
      <rect id="Rectangle_14713" data-name="Rectangle 14713" width="0.355" height="18.741" transform="translate(19.565 0.014)" fill="#98463d"/>
      <rect id="Rectangle_14714" data-name="Rectangle 14714" width="0.355" height="18.741" transform="translate(19.92 0.014)" fill="#97473e"/>
      <rect id="Rectangle_14715" data-name="Rectangle 14715" width="0.355" height="18.741" transform="translate(20.275 0.014)" fill="#96473e"/>
      <rect id="Rectangle_14716" data-name="Rectangle 14716" width="0.355" height="18.741" transform="translate(20.63 0.014)" fill="#95483f"/>
      <rect id="Rectangle_14717" data-name="Rectangle 14717" width="0.355" height="18.741" transform="translate(20.986 0.014)" fill="#94483f"/>
      <rect id="Rectangle_14718" data-name="Rectangle 14718" width="0.355" height="18.741" transform="translate(21.341 0.014)" fill="#93493f"/>
      <rect id="Rectangle_14719" data-name="Rectangle 14719" width="0.355" height="18.741" transform="translate(21.696 0.014)" fill="#924940"/>
      <rect id="Rectangle_14720" data-name="Rectangle 14720" width="0.355" height="18.741" transform="translate(22.051 0.014)" fill="#914a40"/>
      <rect id="Rectangle_14721" data-name="Rectangle 14721" width="0.355" height="18.741" transform="translate(22.406 0.014)" fill="#904a41"/>
      <rect id="Rectangle_14722" data-name="Rectangle 14722" width="0.355" height="18.741" transform="translate(22.762 0.014)" fill="#8f4b41"/>
      <rect id="Rectangle_14723" data-name="Rectangle 14723" width="0.355" height="18.741" transform="translate(23.117 0.014)" fill="#8e4b42"/>
      <rect id="Rectangle_14724" data-name="Rectangle 14724" width="0.355" height="18.741" transform="translate(23.472 0.014)" fill="#8d4b42"/>
      <rect id="Rectangle_14725" data-name="Rectangle 14725" width="0.355" height="18.741" transform="translate(23.827 0.014)" fill="#8c4c42"/>
      <rect id="Rectangle_14726" data-name="Rectangle 14726" width="0.355" height="18.741" transform="translate(24.182 0.014)" fill="#8b4c43"/>
      <rect id="Rectangle_14727" data-name="Rectangle 14727" width="0.355" height="18.741" transform="translate(24.538 0.014)" fill="#8a4d43"/>
      <rect id="Rectangle_14728" data-name="Rectangle 14728" width="0.355" height="18.741" transform="translate(24.893 0.014)" fill="#894d44"/>
      <rect id="Rectangle_14729" data-name="Rectangle 14729" width="0.355" height="18.741" transform="translate(25.248 0.014)" fill="#884e44"/>
      <rect id="Rectangle_14730" data-name="Rectangle 14730" width="0.355" height="18.741" transform="translate(25.603 0.014)" fill="#874e44"/>
      <rect id="Rectangle_14731" data-name="Rectangle 14731" width="0.355" height="18.741" transform="translate(25.958 0.014)" fill="#864f45"/>
      <rect id="Rectangle_14732" data-name="Rectangle 14732" width="0.355" height="18.741" transform="translate(26.314 0.014)" fill="#854f45"/>
      <rect id="Rectangle_14733" data-name="Rectangle 14733" width="0.355" height="18.741" transform="translate(26.669 0.014)" fill="#845046"/>
      <rect id="Rectangle_14734" data-name="Rectangle 14734" width="0.355" height="18.741" transform="translate(27.024 0.014)" fill="#835046"/>
      <rect id="Rectangle_14735" data-name="Rectangle 14735" width="0.355" height="18.741" transform="translate(27.379 0.014)" fill="#825147"/>
      <rect id="Rectangle_14736" data-name="Rectangle 14736" width="0.355" height="18.741" transform="translate(27.734 0.014)" fill="#815147"/>
      <rect id="Rectangle_14737" data-name="Rectangle 14737" width="0.327" height="18.741" transform="translate(28.09 0.014)" fill="#815147"/>
      <rect id="Rectangle_14738" data-name="Rectangle 14738" width="0.327" height="18.741" transform="translate(28.416 0.014)" fill="#805147"/>
      <rect id="Rectangle_14739" data-name="Rectangle 14739" width="0.327" height="18.741" transform="translate(28.743 0.014)" fill="#7f5046"/>
      <rect id="Rectangle_14740" data-name="Rectangle 14740" width="0.327" height="18.741" transform="translate(29.084 0.014)" fill="#7e5046"/>
      <rect id="Rectangle_14741" data-name="Rectangle 14741" width="0.327" height="18.741" transform="translate(29.411 0.014)" fill="#7d4f46"/>
      <rect id="Rectangle_14742" data-name="Rectangle 14742" width="0.327" height="18.741" transform="translate(29.738 0.014)" fill="#7c4f45"/>
      <rect id="Rectangle_14743" data-name="Rectangle 14743" width="0.327" height="18.741" transform="translate(30.065 0.014)" fill="#7b4e45"/>
      <rect id="Rectangle_14744" data-name="Rectangle 14744" width="0.327" height="18.741" transform="translate(30.391 0.014)" fill="#7a4e45"/>
      <rect id="Rectangle_14745" data-name="Rectangle 14745" width="0.327" height="18.741" transform="translate(30.732 0.014)" fill="#794e44"/>
      <rect id="Rectangle_14746" data-name="Rectangle 14746" width="0.327" height="18.741" transform="translate(31.059 0.014)" fill="#784d44"/>
      <rect id="Rectangle_14747" data-name="Rectangle 14747" width="0.327" height="18.741" transform="translate(31.386 0.014)" fill="#774d44"/>
      <rect id="Rectangle_14748" data-name="Rectangle 14748" width="0.327" height="18.741" transform="translate(31.713 0.014)" fill="#764c44"/>
      <rect id="Rectangle_14749" data-name="Rectangle 14749" width="0.327" height="18.741" transform="translate(32.039 0.014)" fill="#754c43"/>
      <rect id="Rectangle_14750" data-name="Rectangle 14750" width="0.327" height="18.741" transform="translate(32.38 0.014)" fill="#744b43"/>
      <rect id="Rectangle_14751" data-name="Rectangle 14751" width="0.327" height="18.741" transform="translate(32.707 0.014)" fill="#734b43"/>
      <rect id="Rectangle_14752" data-name="Rectangle 14752" width="0.327" height="18.741" transform="translate(33.034 0.014)" fill="#724a42"/>
      <rect id="Rectangle_14753" data-name="Rectangle 14753" width="0.327" height="18.741" transform="translate(33.361 0.014)" fill="#714a42"/>
      <rect id="Rectangle_14754" data-name="Rectangle 14754" width="0.327" height="18.741" transform="translate(33.688 0.014)" fill="#704a42"/>
      <rect id="Rectangle_14755" data-name="Rectangle 14755" width="0.327" height="18.741" transform="translate(34.029 0.014)" fill="#6f4941"/>
      <rect id="Rectangle_14756" data-name="Rectangle 14756" width="0.327" height="18.741" transform="translate(34.355 0.014)" fill="#6e4941"/>
      <rect id="Rectangle_14757" data-name="Rectangle 14757" width="0.327" height="18.741" transform="translate(34.682 0.014)" fill="#6d4841"/>
      <rect id="Rectangle_14758" data-name="Rectangle 14758" width="0.327" height="18.741" transform="translate(35.009 0.014)" fill="#6c4840"/>
      <rect id="Rectangle_14759" data-name="Rectangle 14759" width="0.327" height="18.741" transform="translate(35.336 0.014)" fill="#6b4740"/>
      <rect id="Rectangle_14760" data-name="Rectangle 14760" width="0.327" height="18.741" transform="translate(35.677 0.014)" fill="#6a4740"/>
      <rect id="Rectangle_14761" data-name="Rectangle 14761" width="0.327" height="18.741" transform="translate(36.004 0.014)" fill="#69473f"/>
      <rect id="Rectangle_14762" data-name="Rectangle 14762" width="0.327" height="18.741" transform="translate(36.33 0.014)" fill="#68463f"/>
      <rect id="Rectangle_14763" data-name="Rectangle 14763" width="0.327" height="18.741" transform="translate(36.657 0.014)" fill="#67463f"/>
      <rect id="Rectangle_14764" data-name="Rectangle 14764" width="0.327" height="18.741" transform="translate(36.998 0.014)" fill="#66453e"/>
      <rect id="Rectangle_14765" data-name="Rectangle 14765" width="0.327" height="18.741" transform="translate(37.325 0.014)" fill="#65453e"/>
      <rect id="Rectangle_14766" data-name="Rectangle 14766" width="0.327" height="18.741" transform="translate(37.652 0.014)" fill="#64443e"/>
      <rect id="Rectangle_14767" data-name="Rectangle 14767" width="0.327" height="18.741" transform="translate(37.979 0.014)" fill="#63443e"/>
      <rect id="Rectangle_14768" data-name="Rectangle 14768" width="0.327" height="18.741" transform="translate(38.305 0.014)" fill="#62443d"/>
      <rect id="Rectangle_14769" data-name="Rectangle 14769" width="0.327" height="18.741" transform="translate(38.646 0.014)" fill="#61433d"/>
      <rect id="Rectangle_14770" data-name="Rectangle 14770" width="0.327" height="18.741" transform="translate(38.973 0.014)" fill="#60433d"/>
      <rect id="Rectangle_14771" data-name="Rectangle 14771" width="0.327" height="18.741" transform="translate(39.3 0.014)" fill="#5f423c"/>
      <rect id="Rectangle_14772" data-name="Rectangle 14772" width="0.327" height="18.741" transform="translate(39.627 0.014)" fill="#5e423c"/>
      <rect id="Rectangle_14773" data-name="Rectangle 14773" width="0.327" height="18.741" transform="translate(39.953 0.014)" fill="#5d413c"/>
      <rect id="Rectangle_14774" data-name="Rectangle 14774" width="0.327" height="18.741" transform="translate(40.294 0.014)" fill="#5c413b"/>
      <rect id="Rectangle_14775" data-name="Rectangle 14775" width="0.327" height="18.741" transform="translate(40.621 0.014)" fill="#5a403b"/>
      <rect id="Rectangle_14776" data-name="Rectangle 14776" width="0.327" height="18.741" transform="translate(40.948 0.014)" fill="#59403b"/>
      <rect id="Rectangle_14777" data-name="Rectangle 14777" width="0.327" height="18.741" transform="translate(41.275 0.014)" fill="#58403a"/>
      <rect id="Rectangle_14778" data-name="Rectangle 14778" width="0.327" height="18.741" transform="translate(41.602 0.014)" fill="#573f3a"/>
      <rect id="Rectangle_14779" data-name="Rectangle 14779" width="0.327" height="18.741" transform="translate(41.943 0.014)" fill="#563f3a"/>
      <rect id="Rectangle_14780" data-name="Rectangle 14780" width="0.327" height="18.741" transform="translate(42.269 0.014)" fill="#553e39"/>
      <rect id="Rectangle_14781" data-name="Rectangle 14781" width="0.327" height="18.741" transform="translate(42.596 0.014)" fill="#543e39"/>
      <rect id="Rectangle_14782" data-name="Rectangle 14782" width="0.327" height="18.741" transform="translate(42.923 0.014)" fill="#533d39"/>
      <rect id="Rectangle_14783" data-name="Rectangle 14783" width="0.327" height="18.741" transform="translate(43.264 0.014)" fill="#523d38"/>
      <rect id="Rectangle_14784" data-name="Rectangle 14784" width="0.327" height="18.741" transform="translate(43.591 0.014)" fill="#513d38"/>
      <rect id="Rectangle_14785" data-name="Rectangle 14785" width="0.327" height="18.741" transform="translate(43.918 0.014)" fill="#503c38"/>
      <rect id="Rectangle_14786" data-name="Rectangle 14786" width="0.327" height="18.741" transform="translate(44.244 0.014)" fill="#4f3c38"/>
      <rect id="Rectangle_14787" data-name="Rectangle 14787" width="0.327" height="18.741" transform="translate(44.571 0.014)" fill="#4e3b37"/>
      <rect id="Rectangle_14788" data-name="Rectangle 14788" width="0.327" height="18.741" transform="translate(44.912 0.014)" fill="#4d3b37"/>
      <rect id="Rectangle_14789" data-name="Rectangle 14789" width="0.327" height="18.741" transform="translate(45.239 0.014)" fill="#4c3a37"/>
      <rect id="Rectangle_14790" data-name="Rectangle 14790" width="0.327" height="18.741" transform="translate(45.566 0.014)" fill="#4b3a36"/>
      <rect id="Rectangle_14791" data-name="Rectangle 14791" width="0.327" height="18.741" transform="translate(45.892 0.014)" fill="#4a3a36"/>
      <rect id="Rectangle_14792" data-name="Rectangle 14792" width="0.327" height="18.741" transform="translate(46.219 0.014)" fill="#493936"/>
      <rect id="Rectangle_14793" data-name="Rectangle 14793" width="0.327" height="18.741" transform="translate(46.56 0.014)" fill="#483935"/>
      <rect id="Rectangle_14794" data-name="Rectangle 14794" width="0.327" height="18.741" transform="translate(46.887 0.014)" fill="#473835"/>
      <rect id="Rectangle_14795" data-name="Rectangle 14795" width="0.327" height="18.741" transform="translate(47.214 0.014)" fill="#463835"/>
      <rect id="Rectangle_14796" data-name="Rectangle 14796" width="0.327" height="18.741" transform="translate(47.541 0.014)" fill="#453734"/>
      <rect id="Rectangle_14797" data-name="Rectangle 14797" width="0.327" height="18.741" transform="translate(47.867 0.014)" fill="#443734"/>
      <rect id="Rectangle_14798" data-name="Rectangle 14798" width="0.327" height="18.741" transform="translate(48.208 0.014)" fill="#433734"/>
      <rect id="Rectangle_14799" data-name="Rectangle 14799" width="0.327" height="18.741" transform="translate(48.535 0.014)" fill="#423633"/>
      <rect id="Rectangle_14800" data-name="Rectangle 14800" width="0.327" height="18.741" transform="translate(48.862 0.014)" fill="#413633"/>
      <rect id="Rectangle_14801" data-name="Rectangle 14801" width="0.327" height="18.741" transform="translate(49.189 0.014)" fill="#403533"/>
      <rect id="Rectangle_14802" data-name="Rectangle 14802" width="0.327" height="18.741" transform="translate(49.516 0.014)" fill="#3f3532"/>
      <rect id="Rectangle_14803" data-name="Rectangle 14803" width="0.327" height="18.741" transform="translate(49.857 0.014)" fill="#3e3432"/>
      <rect id="Rectangle_14804" data-name="Rectangle 14804" width="0.327" height="18.741" transform="translate(50.183 0.014)" fill="#3d3432"/>
      <rect id="Rectangle_14805" data-name="Rectangle 14805" width="0.327" height="18.741" transform="translate(50.51 0.014)" fill="#3c3332"/>
      <rect id="Rectangle_14806" data-name="Rectangle 14806" width="0.327" height="18.741" transform="translate(50.837 0.014)" fill="#3b3331"/>
      <rect id="Rectangle_14807" data-name="Rectangle 14807" width="0.327" height="18.741" transform="translate(51.178 0.014)" fill="#3a3331"/>
      <rect id="Rectangle_14808" data-name="Rectangle 14808" width="0.327" height="18.741" transform="translate(51.505 0.014)" fill="#393231"/>
      <rect id="Rectangle_14809" data-name="Rectangle 14809" width="0.327" height="18.741" transform="translate(51.832 0.014)" fill="#383230"/>
      <rect id="Rectangle_14810" data-name="Rectangle 14810" width="0.327" height="18.741" transform="translate(52.158 0.014)" fill="#373130"/>
      <rect id="Rectangle_14811" data-name="Rectangle 14811" width="0.327" height="18.741" transform="translate(52.485 0.014)" fill="#363130"/>
      <rect id="Rectangle_14812" data-name="Rectangle 14812" width="0.327" height="18.741" transform="translate(52.826 0.014)" fill="#35302f"/>
      <rect id="Rectangle_14813" data-name="Rectangle 14813" width="0.327" height="18.741" transform="translate(53.153 0.014)" fill="#34302f"/>
      <rect id="Rectangle_14814" data-name="Rectangle 14814" width="0.256" height="18.741" transform="translate(53.48 0.014)" fill="#34302f"/>
    </g>
    <path id="Path_16270" data-name="Path 16270" d="M29.765,26.769s-4.632-3.836-.781-6.692,15.359,1.7,15.757,2.06c0,0-12.162-1.918-14.336-.44S29.765,26.769,29.765,26.769Z" transform="translate(1.24 -5.803)" fill="#db2925"/>
    <path id="Path_16271" data-name="Path 16271" d="M35.7,21.476a4.006,4.006,0,0,1-.511,0c-2.032-.256-3.311-.966-3.794-2.117-.924-2.145,1.208-5.015,1.293-5.143l.1.085s-2.16,2.941-1.279,5.015c.469,1.108,1.719,1.79,3.694,2.032a4.746,4.746,0,0,0,4.532-2.231,6.635,6.635,0,0,0,.583-6.593A5.285,5.285,0,0,0,35.192,9.9h-.213V9.769h.213a5.385,5.385,0,0,1,5.2,2.629,6.735,6.735,0,0,1-.583,6.735A4.888,4.888,0,0,1,35.7,21.476Z" transform="translate(2.803 -9.76)"/>
    <g id="Group_419" data-name="Group 419" transform="translate(61.183 19.9)" clip-path="url(#clip-path-2)">
      <rect id="Rectangle_14815" data-name="Rectangle 14815" width="4.461" height="4.461" fill="#666261"/>
      <circle id="Ellipse_535" data-name="Ellipse 535" cx="2.231" cy="2.231" r="2.231" fill="#666261"/>
      <circle id="Ellipse_536" data-name="Ellipse 536" cx="2.202" cy="2.202" r="2.202" transform="translate(0.028 0.028)" fill="#676362"/>
      <circle id="Ellipse_537" data-name="Ellipse 537" cx="2.188" cy="2.188" r="2.188" transform="translate(0.043 0.043)" fill="#686463"/>
      <circle id="Ellipse_538" data-name="Ellipse 538" cx="2.16" cy="2.16" r="2.16" transform="translate(0.071 0.071)" fill="#696564"/>
      <circle id="Ellipse_539" data-name="Ellipse 539" cx="2.131" cy="2.131" r="2.131" transform="translate(0.099 0.099)" fill="#6a6665"/>
      <circle id="Ellipse_540" data-name="Ellipse 540" cx="2.103" cy="2.103" r="2.103" transform="translate(0.128 0.128)" fill="#6b6766"/>
      <circle id="Ellipse_541" data-name="Ellipse 541" cx="2.074" cy="2.074" r="2.074" transform="translate(0.156 0.156)" fill="#6c6867"/>
      <circle id="Ellipse_542" data-name="Ellipse 542" cx="2.046" cy="2.046" r="2.046" transform="translate(0.185 0.185)" fill="#6c6968"/>
      <circle id="Ellipse_543" data-name="Ellipse 543" cx="2.032" cy="2.032" r="2.032" transform="translate(0.199 0.199)" fill="#6d6a69"/>
      <circle id="Ellipse_544" data-name="Ellipse 544" cx="2.003" cy="2.003" r="2.003" transform="translate(0.227 0.227)" fill="#6e6b6a"/>
      <circle id="Ellipse_545" data-name="Ellipse 545" cx="1.975" cy="1.975" r="1.975" transform="translate(0.256 0.256)" fill="#6f6c6b"/>
      <circle id="Ellipse_546" data-name="Ellipse 546" cx="1.947" cy="1.947" r="1.947" transform="translate(0.284 0.284)" fill="#706d6c"/>
      <circle id="Ellipse_547" data-name="Ellipse 547" cx="1.918" cy="1.918" r="1.918" transform="translate(0.313 0.313)" fill="#716e6d"/>
      <circle id="Ellipse_548" data-name="Ellipse 548" cx="1.904" cy="1.904" r="1.904" transform="translate(0.327 0.327)" fill="#726f6e"/>
      <circle id="Ellipse_549" data-name="Ellipse 549" cx="1.875" cy="1.875" r="1.875" transform="translate(0.355 0.355)" fill="#73706f"/>
      <circle id="Ellipse_550" data-name="Ellipse 550" cx="1.847" cy="1.847" r="1.847" transform="translate(0.384 0.384)" fill="#747170"/>
      <circle id="Ellipse_551" data-name="Ellipse 551" cx="1.819" cy="1.819" r="1.819" transform="translate(0.412 0.412)" fill="#757271"/>
      <circle id="Ellipse_552" data-name="Ellipse 552" cx="1.79" cy="1.79" r="1.79" transform="translate(0.44 0.44)" fill="#767372"/>
      <circle id="Ellipse_553" data-name="Ellipse 553" cx="1.776" cy="1.776" r="1.776" transform="translate(0.455 0.455)" fill="#777473"/>
      <circle id="Ellipse_554" data-name="Ellipse 554" cx="1.748" cy="1.748" r="1.748" transform="translate(0.483 0.483)" fill="#777574"/>
      <circle id="Ellipse_555" data-name="Ellipse 555" cx="1.719" cy="1.719" r="1.719" transform="translate(0.511 0.511)" fill="#787675"/>
      <circle id="Ellipse_556" data-name="Ellipse 556" cx="1.691" cy="1.691" r="1.691" transform="translate(0.54 0.54)" fill="#797776"/>
      <circle id="Ellipse_557" data-name="Ellipse 557" cx="1.662" cy="1.662" r="1.662" transform="translate(0.568 0.568)" fill="#7a7777"/>
      <circle id="Ellipse_558" data-name="Ellipse 558" cx="1.648" cy="1.648" r="1.648" transform="translate(0.583 0.583)" fill="#7b7878"/>
      <circle id="Ellipse_559" data-name="Ellipse 559" cx="1.62" cy="1.62" r="1.62" transform="translate(0.611 0.611)" fill="#7c7979"/>
      <circle id="Ellipse_560" data-name="Ellipse 560" cx="1.591" cy="1.591" r="1.591" transform="translate(0.639 0.639)" fill="#7d7a7a"/>
      <circle id="Ellipse_561" data-name="Ellipse 561" cx="1.563" cy="1.563" r="1.563" transform="translate(0.668 0.668)" fill="#7e7b7b"/>
      <circle id="Ellipse_562" data-name="Ellipse 562" cx="1.534" cy="1.534" r="1.534" transform="translate(0.696 0.696)" fill="#7f7c7c"/>
      <circle id="Ellipse_563" data-name="Ellipse 563" cx="1.52" cy="1.52" r="1.52" transform="translate(0.71 0.71)" fill="#807d7d"/>
      <circle id="Ellipse_564" data-name="Ellipse 564" cx="1.492" cy="1.492" r="1.492" transform="translate(0.739 0.739)" fill="#817e7e"/>
      <circle id="Ellipse_565" data-name="Ellipse 565" cx="1.463" cy="1.463" r="1.463" transform="translate(0.767 0.767)" fill="#827f7f"/>
      <circle id="Ellipse_566" data-name="Ellipse 566" cx="1.435" cy="1.435" r="1.435" transform="translate(0.796 0.796)" fill="#828080"/>
      <circle id="Ellipse_567" data-name="Ellipse 567" cx="1.407" cy="1.407" r="1.407" transform="translate(0.824 0.824)" fill="#838181"/>
      <circle id="Ellipse_568" data-name="Ellipse 568" cx="1.392" cy="1.392" r="1.392" transform="translate(0.838 0.838)" fill="#848282"/>
      <circle id="Ellipse_569" data-name="Ellipse 569" cx="1.364" cy="1.364" r="1.364" transform="translate(0.867 0.867)" fill="#858383"/>
      <circle id="Ellipse_570" data-name="Ellipse 570" cx="1.336" cy="1.336" r="1.336" transform="translate(0.895 0.895)" fill="#868484"/>
      <circle id="Ellipse_571" data-name="Ellipse 571" cx="1.307" cy="1.307" r="1.307" transform="translate(0.924 0.924)" fill="#878585"/>
      <circle id="Ellipse_572" data-name="Ellipse 572" cx="1.279" cy="1.279" r="1.279" transform="translate(0.952 0.952)" fill="#888686"/>
      <circle id="Ellipse_573" data-name="Ellipse 573" cx="1.25" cy="1.25" r="1.25" transform="translate(0.98 0.98)" fill="#898787"/>
      <circle id="Ellipse_574" data-name="Ellipse 574" cx="1.236" cy="1.236" r="1.236" transform="translate(0.995 0.995)" fill="#8a8888"/>
      <circle id="Ellipse_575" data-name="Ellipse 575" cx="1.208" cy="1.208" r="1.208" transform="translate(1.023 1.023)" fill="#8b8989"/>
      <circle id="Ellipse_576" data-name="Ellipse 576" cx="1.179" cy="1.179" r="1.179" transform="translate(1.051 1.051)" fill="#8c8a8a"/>
      <circle id="Ellipse_577" data-name="Ellipse 577" cx="1.151" cy="1.151" r="1.151" transform="translate(1.08 1.08)" fill="#8d8b8b"/>
      <circle id="Ellipse_578" data-name="Ellipse 578" cx="1.122" cy="1.122" r="1.122" transform="translate(1.108 1.108)" fill="#8d8c8c"/>
      <circle id="Ellipse_579" data-name="Ellipse 579" cx="1.108" cy="1.108" r="1.108" transform="translate(1.122 1.122)" fill="#8e8d8e"/>
      <circle id="Ellipse_580" data-name="Ellipse 580" cx="1.08" cy="1.08" r="1.08" transform="translate(1.151 1.151)" fill="#8f8e8f"/>
      <circle id="Ellipse_581" data-name="Ellipse 581" cx="1.051" cy="1.051" r="1.051" transform="translate(1.179 1.179)" fill="#908f90"/>
      <circle id="Ellipse_582" data-name="Ellipse 582" cx="1.023" cy="1.023" r="1.023" transform="translate(1.208 1.208)" fill="#919091"/>
      <circle id="Ellipse_583" data-name="Ellipse 583" cx="0.995" cy="0.995" r="0.995" transform="translate(1.236 1.236)" fill="#929192"/>
      <circle id="Ellipse_584" data-name="Ellipse 584" cx="0.98" cy="0.98" r="0.98" transform="translate(1.25 1.25)" fill="#939293"/>
      <circle id="Ellipse_585" data-name="Ellipse 585" cx="0.952" cy="0.952" r="0.952" transform="translate(1.279 1.279)" fill="#949394"/>
      <circle id="Ellipse_586" data-name="Ellipse 586" cx="0.924" cy="0.924" r="0.924" transform="translate(1.307 1.307)" fill="#959495"/>
      <circle id="Ellipse_587" data-name="Ellipse 587" cx="0.895" cy="0.895" r="0.895" transform="translate(1.336 1.336)" fill="#969596"/>
      <circle id="Ellipse_588" data-name="Ellipse 588" cx="0.867" cy="0.867" r="0.867" transform="translate(1.364 1.364)" fill="#979697"/>
      <circle id="Ellipse_589" data-name="Ellipse 589" cx="0.852" cy="0.852" r="0.852" transform="translate(1.378 1.378)" fill="#989798"/>
      <circle id="Ellipse_590" data-name="Ellipse 590" cx="0.824" cy="0.824" r="0.824" transform="translate(1.407 1.407)" fill="#999899"/>
      <circle id="Ellipse_591" data-name="Ellipse 591" cx="0.796" cy="0.796" r="0.796" transform="translate(1.435 1.435)" fill="#99999a"/>
      <circle id="Ellipse_592" data-name="Ellipse 592" cx="0.767" cy="0.767" r="0.767" transform="translate(1.463 1.463)" fill="#9a9a9b"/>
      <circle id="Ellipse_593" data-name="Ellipse 593" cx="0.739" cy="0.739" r="0.739" transform="translate(1.492 1.492)" fill="#9b9b9c"/>
      <circle id="Ellipse_594" data-name="Ellipse 594" cx="0.725" cy="0.725" r="0.725" transform="translate(1.506 1.506)" fill="#9c9c9d"/>
      <circle id="Ellipse_595" data-name="Ellipse 595" cx="0.696" cy="0.696" r="0.696" transform="translate(1.534 1.534)" fill="#9d9d9e"/>
      <circle id="Ellipse_596" data-name="Ellipse 596" cx="0.668" cy="0.668" r="0.668" transform="translate(1.563 1.563)" fill="#9e9e9f"/>
      <circle id="Ellipse_597" data-name="Ellipse 597" cx="0.639" cy="0.639" r="0.639" transform="translate(1.591 1.591)" fill="#9f9fa0"/>
      <circle id="Ellipse_598" data-name="Ellipse 598" cx="0.611" cy="0.611" r="0.611" transform="translate(1.62 1.62)" fill="#a0a0a1"/>
      <circle id="Ellipse_599" data-name="Ellipse 599" cx="0.597" cy="0.597" r="0.597" transform="translate(1.634 1.634)" fill="#a1a1a2"/>
      <circle id="Ellipse_600" data-name="Ellipse 600" cx="0.568" cy="0.568" r="0.568" transform="translate(1.662 1.662)" fill="#a2a1a3"/>
      <circle id="Ellipse_601" data-name="Ellipse 601" cx="0.54" cy="0.54" r="0.54" transform="translate(1.691 1.691)" fill="#a3a2a4"/>
      <circle id="Ellipse_602" data-name="Ellipse 602" cx="0.511" cy="0.511" r="0.511" transform="translate(1.719 1.719)" fill="#a4a3a5"/>
      <circle id="Ellipse_603" data-name="Ellipse 603" cx="0.483" cy="0.483" r="0.483" transform="translate(1.748 1.748)" fill="#a4a4a6"/>
      <circle id="Ellipse_604" data-name="Ellipse 604" cx="0.469" cy="0.469" r="0.469" transform="translate(1.762 1.762)" fill="#a5a5a7"/>
      <circle id="Ellipse_605" data-name="Ellipse 605" cx="0.44" cy="0.44" r="0.44" transform="translate(1.79 1.79)" fill="#a6a6a8"/>
      <circle id="Ellipse_606" data-name="Ellipse 606" cx="0.412" cy="0.412" r="0.412" transform="translate(1.819 1.819)" fill="#a7a7a9"/>
      <circle id="Ellipse_607" data-name="Ellipse 607" cx="0.384" cy="0.384" r="0.384" transform="translate(1.847 1.847)" fill="#a8a8aa"/>
      <circle id="Ellipse_608" data-name="Ellipse 608" cx="0.355" cy="0.355" r="0.355" transform="translate(1.875 1.875)" fill="#a9a9ab"/>
      <circle id="Ellipse_609" data-name="Ellipse 609" cx="0.327" cy="0.327" r="0.327" transform="translate(1.904 1.904)" fill="#aaaaac"/>
      <circle id="Ellipse_610" data-name="Ellipse 610" cx="0.313" cy="0.313" r="0.313" transform="translate(1.918 1.918)" fill="#ababad"/>
      <circle id="Ellipse_611" data-name="Ellipse 611" cx="0.284" cy="0.284" r="0.284" transform="translate(1.947 1.947)" fill="#acacae"/>
      <circle id="Ellipse_612" data-name="Ellipse 612" cx="0.256" cy="0.256" r="0.256" transform="translate(1.975 1.975)" fill="#adadaf"/>
      <circle id="Ellipse_613" data-name="Ellipse 613" cx="0.227" cy="0.227" r="0.227" transform="translate(2.003 2.003)" fill="#aeaeb0"/>
      <circle id="Ellipse_614" data-name="Ellipse 614" cx="0.199" cy="0.199" r="0.199" transform="translate(2.032 2.032)" fill="#afafb1"/>
      <circle id="Ellipse_615" data-name="Ellipse 615" cx="0.185" cy="0.185" r="0.185" transform="translate(2.046 2.046)" fill="#afb0b2"/>
      <circle id="Ellipse_616" data-name="Ellipse 616" cx="0.156" cy="0.156" r="0.156" transform="translate(2.074 2.074)" fill="#b0b1b3"/>
      <circle id="Ellipse_617" data-name="Ellipse 617" cx="0.128" cy="0.128" r="0.128" transform="translate(2.103 2.103)" fill="#b1b2b4"/>
      <circle id="Ellipse_618" data-name="Ellipse 618" cx="0.099" cy="0.099" r="0.099" transform="translate(2.131 2.131)" fill="#b2b3b5"/>
      <circle id="Ellipse_619" data-name="Ellipse 619" cx="0.071" cy="0.071" r="0.071" transform="translate(2.16 2.16)" fill="#b3b4b6"/>
      <circle id="Ellipse_620" data-name="Ellipse 620" cx="0.057" cy="0.057" r="0.057" transform="translate(2.174 2.174)" fill="#b4b5b7"/>
      <circle id="Ellipse_621" data-name="Ellipse 621" cx="0.028" cy="0.028" r="0.028" transform="translate(2.202 2.202)" fill="#b5b6b8"/>
    </g>
  </g>
</svg>
