<svg xmlns="http://www.w3.org/2000/svg" width="70.969" height="71.555" viewBox="0 0 70.969 71.555">
  <g id="Tenni_Koit_Federation_of_India" data-name="Tenni Koit Federation of India" transform="translate(0.009)">
    <path id="Path_16384" data-name="Path 16384" d="M74.62,39.62v1.24a4.6,4.6,0,0,1-.18.731,5.638,5.638,0,0,1-2.6,2.957,10.015,10.015,0,0,1-3.253,1.229l-.721.127c0,.085.085.117.127.159q.329.329.636.7a8.807,8.807,0,0,1,2.056,3.889,4.907,4.907,0,0,1-.223,2.967,4.663,4.663,0,0,1-3.179,2.66,8.552,8.552,0,0,1-3.91.1l-.689-.138a1.931,1.931,0,0,0,.085.2,11.582,11.582,0,0,1,.593,1.653,7.62,7.62,0,0,1,0,3.751,4.451,4.451,0,0,1-1.918,2.7,5.023,5.023,0,0,1-3.487.625A9.389,9.389,0,0,1,54.2,63.623l-.371-.233v.223a11.721,11.721,0,0,1-.106,2.119,7.111,7.111,0,0,1-1.155,3.052A4.239,4.239,0,0,1,48.678,70.8,5.627,5.627,0,0,1,45.5,69.568a10.025,10.025,0,0,1-2-1.961c0-.064-.085-.148-.18-.18A10.491,10.491,0,0,1,41.705,70.9a6.115,6.115,0,0,1-2.035,1.791,4.843,4.843,0,0,1-1.558.487,8.708,8.708,0,0,1-.911,0,4.62,4.62,0,0,1-1.929-.71A7.238,7.238,0,0,1,32.8,69.558c-.148-.3-.276-.6-.413-.911a.583.583,0,0,0-.148.18,8.139,8.139,0,0,1-1.812,1.95,4.239,4.239,0,0,1-1.961.89,3.508,3.508,0,0,1-3.423-1.356,6.507,6.507,0,0,1-1.25-2.649,12.166,12.166,0,0,1-.36-3.031.307.307,0,0,0,0-.212c-.3.18-.593.35-.9.509a7.5,7.5,0,0,1-3.7.88,4.377,4.377,0,0,1-3.275-1.537,5.1,5.1,0,0,1-1.145-3.02,8.616,8.616,0,0,1,.339-2.935c.127-.466.286-.922.456-1.367a.265.265,0,0,0-.18,0,10.5,10.5,0,0,1-2.119.17,7.132,7.132,0,0,1-3.232-.752,4.514,4.514,0,0,1-2.406-4.8A7.969,7.969,0,0,1,9,47.918a11.276,11.276,0,0,1,.89-1c0-.053-.085,0-.117-.053-.339-.064-.678-.117-1.06-.212A8.361,8.361,0,0,1,5.3,44.951a4.567,4.567,0,0,1-1.134-5.627,7.715,7.715,0,0,1,2.893-3c.265-.17.53-.318.816-.487l-.636-.371a8.605,8.605,0,0,1-2.713-2.607,5.044,5.044,0,0,1-.795-2.035h0a.339.339,0,0,1,0-.18V29.68a.36.36,0,0,1,0-.106A4.779,4.779,0,0,1,5.854,26.31a8.245,8.245,0,0,1,3.179-1.356c.318-.074.646-.127.975-.18a.551.551,0,0,0-.074-.117,10.788,10.788,0,0,1-1.2-1.918A6.814,6.814,0,0,1,7.952,18.8a4.239,4.239,0,0,1,2.2-3.306,6.189,6.189,0,0,1,3.645-.752,9.728,9.728,0,0,1,2.628.583s.106.053.148,0,0-.1,0-.138a9.908,9.908,0,0,1-.371-1.208,8.319,8.319,0,0,1,0-4.557,4.345,4.345,0,0,1,3.508-3.179,5.977,5.977,0,0,1,3.381.53,10.937,10.937,0,0,1,3.349,2.268.784.784,0,0,0,.2.159.562.562,0,0,1,0-.138,11.986,11.986,0,0,1,.371-2.289A7.418,7.418,0,0,1,28.7,3.515a4.239,4.239,0,0,1,3.847-1.494A5.214,5.214,0,0,1,35.23,3.282a9.877,9.877,0,0,1,2.437,3.179.254.254,0,0,0,.106.159V6.514a11.053,11.053,0,0,1,1.855-2.861A6.072,6.072,0,0,1,42.5,1.809c.212-.064.424-.106.636-.159h1.208a4.133,4.133,0,0,1,1.06.318,5.023,5.023,0,0,1,2.183,1.939A9.453,9.453,0,0,1,48.954,7.8a7.311,7.311,0,0,0,.117.922l.138-.117A10.6,10.6,0,0,1,51.2,7.023a6.772,6.772,0,0,1,3.317-1.06,4.239,4.239,0,0,1,3.963,2,6.189,6.189,0,0,1,.922,3.179,10.279,10.279,0,0,1-.244,2.671v.148c0,.042.1,0,.138,0A13.2,13.2,0,0,1,60.95,13.4a7.651,7.651,0,0,1,3.5-.127,4.4,4.4,0,0,1,3.063,2.119,5.108,5.108,0,0,1,.53,3.487,9.781,9.781,0,0,1-1.6,3.794l-.244.371a10.788,10.788,0,0,1,1.77.138,7.418,7.418,0,0,1,3.794,1.632,4.377,4.377,0,0,1,1.6,3.444A5.542,5.542,0,0,1,72.183,31.5a9.357,9.357,0,0,1-2.459,2.31l-.54.35a.445.445,0,0,0,.212.106,10.205,10.205,0,0,1,3.412,2.056,5.606,5.606,0,0,1,1.78,3.084A.222.222,0,0,0,74.62,39.62ZM39.087,61.663a4.631,4.631,0,0,1,.646.329h.127a.763.763,0,0,1,.106-.307c0-.1,0-.117-.064-.127l-.615-.085h-.1c-.011,0,0-.064.053-.085l.329-.307c.2-.191.2-.191,0-.35a.286.286,0,0,1-.106-.085c-.1-.127-.127-.064-.17,0l-.339.657L38.7,60.73c-.106-.223-.106-.223-.286-.074a.53.53,0,0,1-.127.085c-.138,0-.106.106,0,.191l.487.509a6.125,6.125,0,0,1-.721.1c-.1,0-.159,0-.1.138a.625.625,0,0,1,.074.265c0,.117,0,.127.148.074l.668-.339a3.287,3.287,0,0,1-.138.742c-.053.233,0,.127.106.106a.752.752,0,0,1,.307,0c.117,0,.117,0,.1-.106a4.907,4.907,0,0,1-.106-.689Zm20.3-34.537h0a.312.312,0,0,1,.085-.265c.392-.848.795-1.685,1.187-2.522.1-.2.254-.4.244-.593s-.2-.382-.307-.572-.127-.127-.244-.064c-1.176.721-2.363,1.431-3.55,2.119-.233.138-.223.138-.106.371s.138.138.265.064l2.119-1.282a.276.276,0,0,1,.17-.074l-.064.138c-.434.911-.869,1.833-1.314,2.734a.381.381,0,0,0,0,.424,4.238,4.238,0,0,1,.318.519c.064.117.106.138.233.064l2.119-1.261c.519-.318,1.06-.636,1.568-.943.1-.053.127-.106.053-.191a.435.435,0,0,1-.053-.1c-.064-.17-.148-.159-.286-.074ZM20.245,49.285h0a.228.228,0,0,1-.053.18L19.069,52.6a.244.244,0,0,0,0,.286,4.143,4.143,0,0,1,.318.434c.064.106.117.106.212,0L22.937,50.9c.254-.191.254-.18.064-.445-.064-.1-.117-.074-.191,0-.286.223-.583.424-.88.636l-1.314.954v-.127c.371-.975.731-1.961,1.06-2.935a.254.254,0,0,0,0-.286c-.127-.159-.254-.329-.371-.5s-.138-.191-.329-.064l-3.179,2.4c-.254.18-.244.18-.074.434s.127.085.212,0l.562-.413ZM39.1,55.9a5.478,5.478,0,0,0,.837,0,7.269,7.269,0,0,0,1.346-.148.434.434,0,0,0,.2,0,22.954,22.954,0,0,0,3.041-.742,18.768,18.768,0,0,0,3.9-1.706,19.478,19.478,0,0,0,5.119-4.239,20.2,20.2,0,0,0,1.833-2.5,19.489,19.489,0,0,0,1.441-2.9,21.554,21.554,0,0,0,.7-2.119,19.869,19.869,0,0,0,.551-3.232A17.994,17.994,0,0,0,46.41,19.824a18.365,18.365,0,0,0-2.671-.795,20.961,20.961,0,0,0-2.628-.392,19.412,19.412,0,0,0-10.067,2.024,19.658,19.658,0,0,0-4.038,2.713,18.386,18.386,0,0,0-2.278,2.353,18.673,18.673,0,0,0-1.95,2.861,17.253,17.253,0,0,0-1.06,2.194,20.007,20.007,0,0,0-.911,3.031,20.4,20.4,0,0,0-.36,2.543,17.729,17.729,0,0,0,.191,4.366,18.015,18.015,0,0,0,.668,2.7,16.522,16.522,0,0,0,.89,2.2,18.439,18.439,0,0,0,1.876,3.02,20.134,20.134,0,0,0,1.452,1.7,16.956,16.956,0,0,0,2.289,1.982,17.8,17.8,0,0,0,3.741,2.119,1.06,1.06,0,0,0,.36.138,13.458,13.458,0,0,0,1.812.6,12.716,12.716,0,0,0,1.643.382,19.935,19.935,0,0,0,2.119.276A13.56,13.56,0,0,0,39.1,55.9ZM20.754,8.983a1.738,1.738,0,0,0-1.9,1.134,3.921,3.921,0,0,0-.223,1.3,9.336,9.336,0,0,0,1.282,4.461c.064.117.106.085.18,0l1.643-1.356a6.793,6.793,0,0,1,1.06-.848l2.639-1.388c.148-.085.148-.127,0-.244a10.746,10.746,0,0,0-2.5-2.247A4.949,4.949,0,0,0,20.754,8.983ZM37.71,64.81H34.552c-.233,0-.244,0-.212.233a9.93,9.93,0,0,0,1.06,3.423,4.239,4.239,0,0,0,1.325,1.611,1.547,1.547,0,0,0,1.844.064,3.593,3.593,0,0,0,1.176-1.25,9.633,9.633,0,0,0,1.282-3.91c0-.148,0-.18-.159-.18ZM46.336,9.577a9.23,9.23,0,0,0-.329-2.48,5.108,5.108,0,0,0-.986-2.013,1.664,1.664,0,0,0-2.268-.413,4.546,4.546,0,0,0-1.187,1.06,9.665,9.665,0,0,0-1.8,3.54c0,.106,0,.138.1.148l1.06.2c.943.18,1.9.307,2.851.434a22.627,22.627,0,0,1,2.363.445c.138,0,.159,0,.159-.127S46.336,9.831,46.336,9.577ZM13.294,17.5a4.239,4.239,0,0,0-1.187.106,1.749,1.749,0,0,0-1.462,1.865,4.292,4.292,0,0,0,.36,1.59,9.6,9.6,0,0,0,2.289,3.179c.1.085.138.074.2,0l3.72-5.3c.064-.1.064-.138,0-.2-.371-.191-.742-.382-1.134-.54a7.556,7.556,0,0,0-2.787-.7ZM29.38,9.98v.7c0,.233,0,.223.223.18l3.72-.721,2.49-.466c.1,0,.159,0,.117-.159A9.951,9.951,0,0,0,34.52,6.588a4.843,4.843,0,0,0-1.7-1.579,1.611,1.611,0,0,0-2.024.307,4.059,4.059,0,0,0-.827,1.314A8.478,8.478,0,0,0,29.38,9.98ZM6.437,30.115v.064A2.575,2.575,0,0,0,7.1,31.694a8.277,8.277,0,0,0,3.985,2.427c.138,0,.138,0,.148-.127q.54-3.179,1.06-6.358c0-.17,0-.2-.17-.2a9.972,9.972,0,0,0-2.512.2,5.383,5.383,0,0,0-2.363,1.06,1.9,1.9,0,0,0-.816,1.441ZM17.13,60.72a3.4,3.4,0,0,0,.127.986A1.632,1.632,0,0,0,18.645,63a3.423,3.423,0,0,0,1.664-.18,9.018,9.018,0,0,0,3.434-2.183c.074-.074.074-.117,0-.18-.318-.244-.615-.519-.933-.763-.668-.487-1.335-.986-1.961-1.537s-1.325-1.272-2.035-1.865c-.1-.085-.138-.085-.212,0a10.174,10.174,0,0,0-.805,1.494,7.641,7.641,0,0,0-.668,2.935ZM11.64,44.241h.54c.085,0,.117,0,.1-.117s-.106-.477-.159-.71a23.314,23.314,0,0,1-.424-2.554c-.138-1.06-.148-2.119-.339-3.179,0-.138-.053-.17-.2-.127a9.665,9.665,0,0,0-2.681,1.155A5.225,5.225,0,0,0,6.829,40.3,1.833,1.833,0,0,0,7.2,42.842a4.048,4.048,0,0,0,1.06.678,8.478,8.478,0,0,0,3.381.721Zm1.452,10.1a9.824,9.824,0,0,0,3.264-.636c.127,0,.117-.085.064-.2a20.888,20.888,0,0,0-1.2-2.119,26.091,26.091,0,0,1-1.78-3.624c-.053-.148-.106-.127-.2,0a10.078,10.078,0,0,0-1.8,1.59,5.627,5.627,0,0,0-1.4,2.48,1.759,1.759,0,0,0,.986,2.119,4.779,4.779,0,0,0,2.066.392Zm50-38.543h-.35a8.934,8.934,0,0,0-3.868,1.4c-.106.064-.085.106,0,.18A26.969,26.969,0,0,1,61.1,19.814a27.554,27.554,0,0,1,1.823,2.575c.064.1.106.127.2,0a9.771,9.771,0,0,0,1.865-2.84,4.239,4.239,0,0,0,.382-2.119,1.621,1.621,0,0,0-.975-1.378A3.179,3.179,0,0,0,63.091,15.8Zm3.921,22.011a17.309,17.309,0,0,1-.2,2.331,27.955,27.955,0,0,1-.53,2.935c0,.138,0,.159.138.159a9.792,9.792,0,0,0,3.126-.646A4.642,4.642,0,0,0,71.3,41.443a1.823,1.823,0,0,0,.223-2.331,4.069,4.069,0,0,0-.742-.848,8.563,8.563,0,0,0-3.7-1.8c-.138,0-.106.064-.106.117ZM60.833,60.063v-.5a9.421,9.421,0,0,0-1.356-3.5c-.085-.138-.127-.117-.223,0a26.081,26.081,0,0,1-2.119,1.971,24.809,24.809,0,0,1-2.808,2.119c-.064,0-.159.074,0,.191a10.386,10.386,0,0,0,2.681,1.717,4.313,4.313,0,0,0,2.215.435,1.568,1.568,0,0,0,1.367-.964,3.359,3.359,0,0,0,.244-1.42ZM65.295,53.7a4.324,4.324,0,0,0,1.346-.191,1.812,1.812,0,0,0,1.378-2.2,4.748,4.748,0,0,0-.721-1.78,9.538,9.538,0,0,0-2.119-2.374c-.117-.1-.159-.106-.223,0a28.614,28.614,0,0,1-1.494,3.094,25.106,25.106,0,0,1-1.621,2.639c-.053.074-.117.127,0,.191a9.347,9.347,0,0,0,3.455.7ZM50.172,11.717a.36.36,0,0,0,.159.1,26.408,26.408,0,0,1,3.116,1.515,24.553,24.553,0,0,1,2.342,1.515c.074.064.148.138.212,0a9.993,9.993,0,0,0,.646-2.777,4.917,4.917,0,0,0-.286-2.247,1.643,1.643,0,0,0-1.727-1.06,3.423,3.423,0,0,0-1.06.254,7.174,7.174,0,0,0-2.119,1.409,10.1,10.1,0,0,0-1.282,1.293ZM66.143,25.78a6.667,6.667,0,0,0-1.219.074c-.191,0-.191,0-.117.2a18.215,18.215,0,0,1,.89,2.331,24.639,24.639,0,0,1,.943,3.8c0,.106,0,.148.159.1a9.188,9.188,0,0,0,2.575-1.738,4.239,4.239,0,0,0,1.166-1.812,1.674,1.674,0,0,0-.3-1.579,2.9,2.9,0,0,0-1.06-.763,7.153,7.153,0,0,0-3.041-.615Zm-15.1,38.479a11.731,11.731,0,0,0-.159-1.961c0-.223,0-.233-.244-.138-.721.36-1.473.636-2.215.922a26.144,26.144,0,0,1-3.55,1.06c-.276,0-.307,0-.138.3a9.866,9.866,0,0,0,1.388,1.971,5.3,5.3,0,0,0,1.992,1.462,1.643,1.643,0,0,0,1.886-.3,2.755,2.755,0,0,0,.6-.954,6.528,6.528,0,0,0,.434-2.363ZM27.875,68.933a1.06,1.06,0,0,0,.519-.148,3.879,3.879,0,0,0,1.3-1.145,11.212,11.212,0,0,0,1.685-3.179c0-.127,0-.159-.106-.2l-2.925-1.166-1.78-.721c-.117,0-.17,0-.18.1a.318.318,0,0,1,0,.106,14.624,14.624,0,0,0-.106,2.808,7.609,7.609,0,0,0,.445,2.342,2.565,2.565,0,0,0,.625.975A.678.678,0,0,0,27.875,68.933ZM41.949,14.547l.35-.117a1.06,1.06,0,0,0,.276-1.812,1.7,1.7,0,0,0-.827-.35c-.731-.106-1.473-.117-2.2-.18-.117,0-.138,0-.138.138-.106,1.431-.2,2.861-.307,4.3,0,.1,0,.127.117.138h.837c.371,0,.371,0,.392-.339,0-.562.074-1.123.117-1.685,0-.064,0-.127.1-.148a.615.615,0,0,1,.721.551,3.74,3.74,0,0,1,0,.487,4.959,4.959,0,0,0,0,1.06c0,.117.064.191.212.191h1.25a3.4,3.4,0,0,1-.106-.371c-.074-.382,0-.774-.085-1.155a.89.89,0,0,0-.509-.731Zm-8.425,1.494a3.942,3.942,0,0,0-.4-1.558,1.738,1.738,0,0,0-2.225-1.06c-.625.17-1.229.371-1.844.551-.106,0-.117.074-.085.17s.117.382.18.572l1.06,3.529c0,.085,0,.159.148.127.657-.223,1.325-.382,1.971-.625a1.727,1.727,0,0,0,1.2-1.706Zm23.9,38.3a1.7,1.7,0,0,0,1.24-.646c.434-.5.858-1.06,1.293-1.515.074-.1,0-.127,0-.18l-1.526-1.229-1.812-1.526c-.053,0-.1-.106-.17,0-.456.551-.943,1.06-1.346,1.653a1.674,1.674,0,0,0-.159,1.823A3.349,3.349,0,0,0,56,53.778a2.427,2.427,0,0,0,1.42.562ZM53.892,21.859a1.41,1.41,0,0,0,.127.6,2.384,2.384,0,0,0,.774.975,1.7,1.7,0,0,0,2.119.138A4.006,4.006,0,0,0,58.205,22.3a1.664,1.664,0,0,0,.117-1.9,2.787,2.787,0,0,0-.869-.89,1.643,1.643,0,0,0-1.865-.064,3.932,3.932,0,0,0-1.367,1.335,1.791,1.791,0,0,0-.329,1.07Zm8.033,13.289a4.61,4.61,0,0,0,1.537-.276,1.706,1.706,0,0,0,1.176-1.855,3.01,3.01,0,0,0-.212-.9,1.632,1.632,0,0,0-1.388-1.06,3.963,3.963,0,0,0-2.119.382,1.558,1.558,0,0,0-.89.922A2.331,2.331,0,0,0,60.42,34.6,1.791,1.791,0,0,0,61.925,35.148Zm-45.4.223a2.183,2.183,0,0,0,.36,0,1.664,1.664,0,0,0,1.4-.911,2.618,2.618,0,0,0,.276-1.293,1.621,1.621,0,0,0-.922-1.473,3.879,3.879,0,0,0-2.363-.382,1.611,1.611,0,0,0-1.282,1.06,3.317,3.317,0,0,0-.191,1.007,1.674,1.674,0,0,0,1.06,1.664,3.963,3.963,0,0,0,1.664.329ZM15.6,39.112h-.191l-1.621.106c-.117,0-.159,0-.148.17a5.3,5.3,0,0,0,.064,1c0,.138,0,.18.2.17l2.035-.148,2.215-.148c.074,0,.148,0,.138-.127,0-.36-.053-.731-.074-1.06,0-.1,0-.117-.138-.117h-.519l-1.06.074a.307.307,0,0,1-.276-.159,1.424,1.424,0,0,1,.159-.138L18,37.723a.244.244,0,0,0,.117-.223c0-.382-.064-.752-.085-1.134,0-.2,0-.2-.191-.1l-2.724,1.78a.18.18,0,0,1-.244,0L13.7,37.247a.5.5,0,0,0-.223-.117v.456a.233.233,0,0,0,.127.2l.9.593Zm43.184,9.315h.1c1.06-.106,2.119-.223,3.179-.307a.479.479,0,0,0,.53-.35,1.346,1.346,0,0,1,.127-.244c.106-.233.148-.17-.1-.3-.774-.424-1.547-.827-2.331-1.24L59,45.3c-.233-.127-.223-.117-.36.106s0,.18.074.254c.583.3,1.155.6,1.727.911l.625.339a.212.212,0,0,1-.17,0l-3.063.286a.286.286,0,0,0-.265.18,6.56,6.56,0,0,1-.318.6c-.074.117,0,.159.074.212l1.971,1.06,1.78.954a.155.155,0,0,0,.233-.074.169.169,0,0,1,0-.074c.106-.127,0-.191-.074-.265-.805-.413-1.6-.837-2.4-1.261.032,0-.032-.011-.053-.074ZM18,44.993h0l-.1.159L16.409,47.59c-.117.18-.318.36-.318.562s.17.413.244.625.106.127.223.074l3.762-1.674c.276-.127.265-.117.148-.4,0-.117-.085-.117-.2-.074l-2.119.933a1.674,1.674,0,0,1-.392.159l.1-.159c.551-.869,1.06-1.738,1.664-2.6a.254.254,0,0,0,0-.286,4.673,4.673,0,0,1-.276-.625c-.053-.138-.117-.148-.244-.085l-3.762,1.674c-.329.148-.254.085-.148.382,0,.117.106.138.223.085.286-.148.593-.276.89-.4Zm29.09-29.376h0V13.424c0-.148,0-.2-.191-.233l-.784-.212a.18.18,0,0,0-.254.1c-.731,1.208-1.473,2.406-2.215,3.614-.2.329-.2.329.18.434.1,0,.148,0,.191-.085l.413-.668a.127.127,0,0,1,.18-.074l1.06.3c.106,0,.127.064.127.159v.784a.127.127,0,0,0,.106.148q.519.127,1.06.286c.106,0,.138,0,.138-.117Zm5.553,43.015v-.085c-.329-1.388-.668-2.777-1-4.165-.085-.35-.085-.35-.4-.17-.106.064-.138.117-.1.244s.117.477.18.721a.148.148,0,0,1-.074.191l-.986.562a.148.148,0,0,1-.212,0l-.53-.53a.148.148,0,0,0-.223,0l-.911.53c-.106,0-.106.1,0,.17l.784.774c.795.784,1.59,1.568,2.4,2.342.053.064.106.127.212.064L52.6,58.8s.064-.106.042-.17Zm-15.2-46.12v-.265c0-.074,0-.117-.117-.106l-2.7.339c-.117,0-.148.064-.127.18a7.007,7.007,0,0,0,.117.933c.138,1.06.265,2.2.4,3.306,0,.117,0,.159.159.138s.466-.064.689-.085l2.257-.286s.127,0,.127-.053a.858.858,0,0,0-.053-.371c0-.085-.159,0-.244,0l-1.526.191c-.1,0-.127,0-.138-.117l-.223-1.579c0-.106,0-.127.117-.138l.954-.117c.286,0,.276,0,.254-.318s-.064-.18-.212-.159l-1.06.138c-.117,0-.159,0-.17-.138a8.769,8.769,0,0,0-.127-1.06c0-.127,0-.17.138-.191a11.288,11.288,0,0,0,1.325-.159C37.381,12.618,37.466,12.618,37.445,12.512Zm-11.17,41a1.114,1.114,0,0,1-.117-.074l-2.119-1.876c-.233-.212-.233-.212-.456,0-.064.074-.074.117,0,.191l1.229,1.06c.074.053.106.1,0,.18-.36.382-.721.784-1.06,1.176-.064.064-.1.064-.17,0l-.71-.636c-.223-.2-.212-.2-.424,0s-.1.148,0,.233c.276.233.54.477.805.721.064,0,.117.1,0,.18l-.774.858c-.064.074-.106.074-.18,0l-.88-.795c-.254-.233-.254-.233-.477,0a.11.11,0,0,0,0,.17c.678.6,1.356,1.208,2.024,1.823.085.074.127.064.191,0,.964-1.06,1.929-2.119,2.882-3.179Zm.7-38.341H26.9l-2.353,1.409c-.106.064-.074.117,0,.191.731,1.219,1.473,2.427,2.194,3.645.085.138.138.138.265.064l2.353-1.409c.276-.17.265-.17.106-.434-.053-.1-.1-.117-.191,0l-1.42.848c-.085.053-.127.053-.18,0-.265-.456-.53-.9-.805-1.346v-.18l.827-.487c.254-.159.254-.159.106-.424s-.127-.117-.233-.053c-.286.191-.593.36-.89.551-.106.074-.17.074-.244-.053-.18-.318-.371-.625-.562-.943-.053-.085,0-.127.053-.17l1.06-.646c.233-.138.233-.138.1-.371-.064-.1-.085-.159-.148-.191Zm-2.512,4.472-.191-.212c-.064-.1-.117-.1-.2,0l-.827.774c-.074.064-.117.1-.191,0l-.858-.911c-.085-.085-.074-.138,0-.212l.88-.805c.254-.244.254-.244,0-.487-.064-.064-.1-.064-.159,0L20.9,19.666c-.074.074-.074.117,0,.18l2.967,3.179c.064.074.106.064.17,0,.254-.244.509-.487.774-.721s.085-.127,0-.212l-1.261-1.346c-.074-.085-.085-.127,0-.212.276-.244.551-.509.816-.763,0-.042.042-.064.053-.127Zm-6.231,3.91c0-.074-.117-.1-.18-.138s-.17-.148-.307.074l-1.568,2.724c-.159.276-.159.265.106.424s.148.053.212-.053l.392-.7c.064-.127.127-.138.254-.064l3.275,1.9c.106.064.159.064.223-.064.18-.329.371-.657.572-.975v-.17l-.424-.233L17.8,24.6c-.127-.074-.138-.127-.064-.254s.265-.445.392-.678a.572.572,0,0,0,.064-.117ZM28.946,55.283c0-.064-.053-.074-.085-.1-.318-.18-.646-.36-.954-.551-.117-.074-.17-.074-.254.064l-1.886,3.285c-.053.106-.106.138-.223.064s-.466-.276-.7-.424-.17,0-.212.064a.434.434,0,0,1-.053.1c-.117.127-.064.2.074.276.922.519,1.823,1.06,2.745,1.579.265.159.265.148.413-.117.064-.1.064-.148,0-.2a7.57,7.57,0,0,0-.689-.382c-.233-.117-.159-.138-.074-.286L28.925,55.4ZM52.631,15.692c0-.085-.074-.085-.127-.106l-2.914-1.4c-.3-.148-.3-.148-.434.159,0,.1,0,.127.064.17l.774.371c.106,0,.127.1.064.2l-1.632,3.434c0,.106,0,.159.074.212.318.148.646.307.964.477.138.064.18,0,.244-.085.551-1.145,1.06-2.268,1.653-3.412.064-.117.106-.138.223-.074s.5.254.752.371c0,0,.1.064.127,0S52.578,15.8,52.631,15.692ZM62.656,36.558H60.537c-.138,0-.2,0-.191.18V37.7c0,.148,0,.2.191.191h1.749c.148,0,.212,0,.2.191s0,.625,0,.933,0,.276.3.3c.127,0,.17,0,.17-.17v-1.06c0-.17,0-.2.2-.191H64.32c.138,0,.17,0,.17.17v1.346c0,.117,0,.17.148.148h.117c.159,0,.2,0,.2-.191V36.748c0-.159,0-.191-.2-.191ZM15.445,27.772a.315.315,0,0,0-.074.085c-.138.339-.276.689-.424,1.06,0,.085,0,.117.064.148l.413.17,3.571,1.4c.148.064.191,0,.244-.1.106-.307.233-.615.36-.911.053-.127,0-.18-.1-.223L15.54,27.8Zm-.986,16.034h0l4.239-.975c.106,0,.117-.085.1-.18-.085-.318-.17-.646-.233-.975,0-.138-.064-.17-.2-.138l-1.24.286-2.925.678c-.074,0-.148,0-.117.138.085.36.17.721.244,1.06.053.074.064.127.138.106ZM63.514,45.47c.074,0,.074-.064.085-.106.117-.339.223-.678.339-1.06,0-.085,0-.127-.074-.148l-.35-.106-3.751-1.2c-.117,0-.17,0-.2.106-.1.329-.2.646-.318.964,0,.117,0,.159.1.2l4.027,1.346ZM55.037,57.127h.074l.827-.646c.1-.074.117-.117,0-.212-.371-.466-.731-.943-1.06-1.409-.519-.657-1.06-1.3-1.537-1.971-.074-.1-.127-.117-.233,0-.265.223-.54.424-.805.636-.064,0-.117.085,0,.18l2.586,3.349s0,.074.1.074ZM52.281,21.033c.064,0,.085-.064.106-.1l2.5-3.529c.053-.085.053-.127,0-.18-.307-.2-.593-.4-.89-.615-.085-.064-.127,0-.18,0l-2.533,3.571c-.053.085-.053.127,0,.18l.869.615Z" transform="translate(-3.66 -1.65)" fill="#d9224c"/>
    <path id="Path_16385" data-name="Path 16385" d="M3.66,28h0v0Z" transform="translate(-3.659 -0.076)" fill="#d6254e"/>
    <path id="Path_16386" data-name="Path 16386" d="M35.31,69.16h0a8.708,8.708,0,0,0,.911,0H35.31Z" transform="translate(-1.769 2.383)" fill="#fcf8fa"/>
    <path id="Path_16387" data-name="Path 16387" d="M45.651,26.805a1.145,1.145,0,0,1,.657-.54A6.539,6.539,0,0,1,48.28,26c.117,0,.1.085.106.138.074.551.148,1.06.212,1.643.106.795.212,1.579.3,2.374a15.281,15.281,0,0,1,0,1.558v.869c0,.286,0,.2.191.233l.519.138a.2.2,0,0,1,.159.159,8.012,8.012,0,0,1,.392,2.745q0,1.224,0,2.448a7.863,7.863,0,0,0,.159,1.4c.159,1.293.329,2.6.5,3.889a.233.233,0,0,1,0,.17,27.2,27.2,0,0,0-1.325,2.671,7.683,7.683,0,0,1-1.526,2.236,9.156,9.156,0,0,1-1.7,1.145c-1.325.784-2.681,1.5-3.942,2.395-.848.593-1.621,1.293-2.437,1.95l-.17.138a7.269,7.269,0,0,1-1.346.148,5.393,5.393,0,0,1-.827,0c-.159,0-.18-.117-.117-.254a3.423,3.423,0,0,1,.233-.434,6.709,6.709,0,0,1,1.282-1.346,26.494,26.494,0,0,1,3.72-2.49c1.06-.593,2.045-1.134,3.02-1.78a5.744,5.744,0,0,0,1.59-1.4A16.109,16.109,0,0,0,48.8,44.016a2.9,2.9,0,0,0,.254-1.727,2.62,2.62,0,0,0-.191-.646l-.869,1.314s-.053.127-.127.106a2.268,2.268,0,0,1-.646-.244c-.233-.148-.456-.329-.678-.487s-.117-.106-.064-.212.223-.477.329-.71l1.145-2.49c0-.1,0-.138-.064-.18s-.117,0-.148.1L45.62,42.415c-.074.138-.138.138-.265.074l-.858-.434c-.487-.244-.487-.244-.307-.774a10.6,10.6,0,0,1,.933-1.833,14.02,14.02,0,0,0,2.024-5.585,9.082,9.082,0,0,0,.064-1.229,2.257,2.257,0,0,0-.18.477l-.763,2.628a9.389,9.389,0,0,1-2.3,3.932,21.035,21.035,0,0,1-1.939,1.579,8.69,8.69,0,0,1-5.3,1.939c-.117,0-.159,0-.191.148-.159.646-.318,1.293-.5,1.939a28.5,28.5,0,0,1-2.3,5.871c-.477.89-1.06,1.749-1.558,2.6a13.458,13.458,0,0,1-1.812-.6,63.17,63.17,0,0,0,3.179-6.973c.593-1.462,1.134-2.946,1.7-4.419v-.117c.223-.593.434-1.187.668-1.77a8.234,8.234,0,0,1,.7-1.632c.117-.18.254-.36.382-.54a10.8,10.8,0,0,1,.911-.933,20.654,20.654,0,0,1,2.119-1.568l.307-.2c.064,0,0,0,0,.053h0l.117-.127,1.8-2.119h0l.074-.1a.159.159,0,0,0,.064,0s.074-.106.138-.1,0,.106,0,.159a3.594,3.594,0,0,0,0,.827v.265a7.561,7.561,0,0,1-.064,1.2,7.132,7.132,0,0,1-.445,1.611,6.474,6.474,0,0,0-.371,1.484.933.933,0,0,0,.265.848.148.148,0,0,1,0,.2.487.487,0,0,0-.106.286,4.1,4.1,0,0,1,.509-.668,17.886,17.886,0,0,0,1.346-1.484A12.3,12.3,0,0,0,45.545,34.3a6.549,6.549,0,0,0,.477-1.547v-.127a6.083,6.083,0,0,0,.148-1.515,15.727,15.727,0,0,0-.593-3.359v-.138A2.321,2.321,0,0,1,45.651,26.805Zm-8.478,14.72a3.889,3.889,0,0,1,1.282-.36,1.155,1.155,0,0,0,1.06-.827c.424-1.176.848-2.342,1.2-3.54,0,0,.085-.138,0-.18a.159.159,0,0,0-.212.074,4.928,4.928,0,0,1-1.261,1.219,4.069,4.069,0,0,0-1.409,1.7,10.682,10.682,0,0,0-.668,1.918Z" transform="translate(-2.064 -0.195)" fill="#28186d"/>
    <path id="Path_16388" data-name="Path 16388" d="M3.73,29.18Z" transform="translate(-3.655 -0.005)" fill="#d6254e"/>
    <path id="Path_16389" data-name="Path 16389" d="M45.845,27.909v.138a.117.117,0,0,0,0,.117c.085.36.159.721.244,1.06a8.414,8.414,0,0,1,.265,3.084l-.064.6V33.1a10.173,10.173,0,0,1-1.632,3.54,18.015,18.015,0,0,1-2.119,2.522c-.212.2-.276.2-.434,0a.71.71,0,0,1-.074-.191,1.674,1.674,0,0,1,0-.827,8.181,8.181,0,0,1,.413-1.367,6.973,6.973,0,0,0,.4-2.671v-.18a2.608,2.608,0,0,1,.064-.7,1.6,1.6,0,0,0,0-.318c0-.053,0-.106-.085-.053s-.064.1-.127.053,0-.106,0-.159v-.307a1.42,1.42,0,0,0,0-.371V30.442h0V30.23h0a.477.477,0,0,1,0-.212s-.053-.085,0-.138v-.223l-.233-.689-.074-.223c-.053,0-.053-.117-.085-.17l-.064-.17-.064-.117-.1-.191a.106.106,0,0,1,0-.085l-.17-.212h0l-.085-.106h0v-.1h0l-.064-.106h0l-.18-.138h0l-.1-.117h0l-.074-.127-.064-.064-.074-.085h0l-.085-.106-.074-.085L41,26.637h0a2.045,2.045,0,0,1-.318-.286L40.62,26.3l-.148-.117-.159-.138-.127-.085h0l-.117-.074h0l-.148-.074a4.62,4.62,0,0,0-.636-.35l-.223-.1-.117-.064-.212-.064a1.5,1.5,0,0,1-.424-.127h-.3a1.134,1.134,0,0,1-.329-.064H35.947a.879.879,0,0,1-.286,0h-.975a.763.763,0,0,1-.307.064h-.3l-.265.085-.212.064-.17.074-.159.064-.689.36-.17.106h0l-.106.064h0a.583.583,0,0,1-.2.159l-.074.053-.1.074h0l-.18.159a6.475,6.475,0,0,0-1.367,1.833,7.259,7.259,0,0,0-.71,3.688,6.6,6.6,0,0,0,1.78,4.239,5.807,5.807,0,0,0,2.914,1.632,8.817,8.817,0,0,0,2.3.212,1.674,1.674,0,0,1,.562,0c-.127.18-.265.36-.382.54a8.234,8.234,0,0,0-.7,1.632c-.233.583-.445,1.176-.668,1.77a10.322,10.322,0,0,1-6.093-2.3,9.887,9.887,0,0,1-2.914-4.069,11.276,11.276,0,0,1-.71-5.225,10.809,10.809,0,0,1,1.9-5.224c.138-.2.3-.4.445-.593h0l.127-.127h0l.064-.074h0v-.074h.064l.085-.106h0l.064-.064h0l.053-.053h0l.085-.1.233-.223.223-.223h0l.106-.074h0l.17-.138h0a.657.657,0,0,1,.191-.148h0l.127-.085.127-.1.138-.1h0l.148-.106h0l.117-.085h0a.752.752,0,0,1,.233-.138h0l.138-.1a12.717,12.717,0,0,1,1.208-.593l.233-.074a6.019,6.019,0,0,1,1.388-.53l.286-.074h.456a4.441,4.441,0,0,1,.742-.1h.689a3.179,3.179,0,0,1,.943,0,7.037,7.037,0,0,1,1.632.148h.5l.212.053a4.165,4.165,0,0,1,.795.2l.212.085a2.119,2.119,0,0,1,.487.18l.223.1h0l.191.085a2.871,2.871,0,0,1,.519.233l.148.106h0l.127.064h0l.18.1a4.07,4.07,0,0,1,.572.371l.127.1h0l.117.085h0l.138.106h0l.244.074h0l.17.127.1.1.2.17.085.085.1.1h0a.466.466,0,0,1,.148.138l.053.064.138.138.074.148a1.42,1.42,0,0,0,.117.148.4.4,0,0,1,.117.148l.1.106h0a.657.657,0,0,1,.148.191h0l.085.106h0l.1.117h0l.064.074h0l.053.1h0l.1.127a.668.668,0,0,1,.138.212l.117.2h0l.1.148c.085.148.159.3.244.434l.085.2.085.148.064.159a.54.54,0,0,1,.074.509.954.954,0,0,0,.042.6Z" transform="translate(-2.342 -0.494)" fill="#f4c307"/>
    <path id="Path_16390" data-name="Path 16390" d="M37.6,21.078A7.037,7.037,0,0,0,36,20.93a10.481,10.481,0,0,1,1.621.148Z" transform="translate(-1.728 -0.498)" fill="#d6254e"/>
    <path id="Path_16391" data-name="Path 16391" d="M31.608,21.67a12.717,12.717,0,0,0-1.208.593,2.31,2.31,0,0,0,.456-.233c.244-.127.487-.233.742-.339h0Z" transform="translate(-2.062 -0.454)" fill="#d6254e"/>
    <path id="Path_16392" data-name="Path 16392" d="M33.076,21.2a6.02,6.02,0,0,0-1.346.424A12.367,12.367,0,0,1,33.076,21.2Z" transform="translate(-1.983 -0.482)" fill="#d6254e"/>
    <path id="Path_16393" data-name="Path 16393" d="M44.714,27.581a.954.954,0,0,1,0-.572.54.54,0,0,0-.074-.509l.117.254h0a2.321,2.321,0,0,0-.042.827Z" transform="translate(-1.212 -0.166)" fill="#d6254e"/>
    <path id="Path_16394" data-name="Path 16394" d="M38.975,21.4a4.165,4.165,0,0,0-.795-.2l.784.223h0Z" transform="translate(-1.597 -0.482)" fill="#d6254e"/>
    <path id="Path_16395" data-name="Path 16395" d="M34.472,21a4.44,4.44,0,0,0-.742.1Z" transform="translate(-1.863 -0.494)" fill="#d6254e"/>
    <path id="Path_16396" data-name="Path 16396" d="M41.482,22.651a4.069,4.069,0,0,0-.572-.371Z" transform="translate(-1.434 -0.418)" fill="#d6254e"/>
    <path id="Path_16397" data-name="Path 16397" d="M44.434,26.024c-.085-.138-.159-.286-.244-.434l.233.434Z" transform="translate(-1.238 -0.22)" fill="#d6254e"/>
    <path id="Path_16398" data-name="Path 16398" d="M40.509,22.013a2.872,2.872,0,0,0-.519-.233l.509.244h0S40.53,22.013,40.509,22.013Z" transform="translate(-1.489 -0.448)" fill="#d6254e"/>
    <path id="Path_16399" data-name="Path 16399" d="M35.1,20.94h0Z" transform="translate(-1.804 -0.498)" fill="#d6254e"/>
    <path id="Path_16400" data-name="Path 16400" d="M39.617,21.65a2.119,2.119,0,0,0-.487-.18Z" transform="translate(-1.541 -0.466)" fill="#d6254e"/>
    <path id="Path_16401" data-name="Path 16401" d="M28.773,23.47l-.233.223.233-.223Z" transform="translate(-2.173 -0.347)" fill="#d6254e"/>
    <path id="Path_16402" data-name="Path 16402" d="M33.491,21.1H33.3A.922.922,0,0,0,33.491,21.1Z" transform="translate(-1.889 -0.488)" fill="#d6254e"/>
    <path id="Path_16403" data-name="Path 16403" d="M38.015,21.15H37.75l.244.064h0Z" transform="translate(-1.623 -0.485)" fill="#d6254e"/>
    <path id="Path_16404" data-name="Path 16404" d="M43.257,24.3a.4.4,0,0,0-.117-.148A.4.4,0,0,1,43.257,24.3Z" transform="translate(-1.301 -0.306)" fill="#d6254e"/>
    <path id="Path_16405" data-name="Path 16405" d="M44.008,25.292a.668.668,0,0,0-.138-.212Z" transform="translate(-1.257 -0.25)" fill="#d6254e"/>
    <path id="Path_16406" data-name="Path 16406" d="M43.007,24.007l-.127-.127.127.127Z" transform="translate(-1.317 -0.322)" fill="#d6254e"/>
    <path id="Path_16407" data-name="Path 16407" d="M29.657,22.74l-.127.1Z" transform="translate(-2.114 -0.39)" fill="#d6254e"/>
    <path id="Path_16408" data-name="Path 16408" d="M42.235,23.245l-.1-.1s0,.053.1.074h0Z" transform="translate(-1.361 -0.366)" fill="#d6254e"/>
    <path id="Path_16409" data-name="Path 16409" d="M42.5,23.485,42.42,23.4l.074.074Z" transform="translate(-1.344 -0.351)" fill="#d6254e"/>
    <path id="Path_16410" data-name="Path 16410" d="M44.585,26.358,44.5,26.21l.074.138h0Z" transform="translate(-1.22 -0.183)" fill="#d6254e"/>
    <path id="Path_16411" data-name="Path 16411" d="M42.783,23.764,42.73,23.7S42.783,23.721,42.783,23.764Z" transform="translate(-1.326 -0.333)" fill="#d6254e"/>
    <path id="Path_16412" data-name="Path 16412" d="M42,23Z" transform="translate(-1.369 -0.375)" fill="#d6254e"/>
    <path id="Path_16413" data-name="Path 16413" d="M43.37,24.42Z" transform="translate(-1.287 -0.29)" fill="#d6254e"/>
    <path id="Path_16414" data-name="Path 16414" d="M28.08,24.18Z" transform="translate(-2.201 -0.304)" fill="#d6254e"/>
    <path id="Path_16415" data-name="Path 16415" d="M30.051,22.46Z" transform="translate(-2.084 -0.407)" fill="#d6254e"/>
    <path id="Path_16416" data-name="Path 16416" d="M41.69,22.81Z" transform="translate(-1.388 -0.386)" fill="#d6254e"/>
    <path id="Path_16417" data-name="Path 16417" d="M29.07,23.19Z" transform="translate(-2.142 -0.363)" fill="#d6254e"/>
    <path id="Path_16418" data-name="Path 16418" d="M40.011,23.171V23.16H40l.011.011Z" transform="translate(2.39 1.383)" fill="#d6254e"/>
    <path id="Path_16419" data-name="Path 16419" d="M38.171,21.271l-.011-.011h0l.011.011Z" transform="translate(2.28 1.27)" fill="#d6254e"/>
    <path id="Path_16420" data-name="Path 16420" d="M40.44,23.831h0v0Z" transform="translate(2.416 1.423)" fill="#d6254e"/>
    <path id="Path_16421" data-name="Path 16421" d="M36.151,20.09h0Z" transform="translate(2.159 1.2)" fill="#d6254e"/>
    <path id="Path_16422" data-name="Path 16422" d="M26.261,20.9Z" transform="translate(1.569 1.248)" fill="#d6254e"/>
    <path id="Path_16423" data-name="Path 16423" d="M36.961,20.48h0Z" transform="translate(2.208 1.223)" fill="#d6254e"/>
    <path id="Path_16424" data-name="Path 16424" d="M24.69,22.23v0Z" transform="translate(1.475 1.328)" fill="#d6254e"/>
    <path id="Path_16425" data-name="Path 16425" d="M29.78,22.65Z" transform="translate(-2.099 -0.396)" fill="#d6254e"/>
    <path id="Path_16426" data-name="Path 16426" d="M29.41,22.91Z" transform="translate(-2.121 -0.38)" fill="#d6254e"/>
    <path id="Path_16427" data-name="Path 16427" d="M42.59,23.57Z" transform="translate(-1.334 -0.341)" fill="#d6254e"/>
    <path id="Path_16428" data-name="Path 16428" d="M39.85,22.95v0Z" transform="translate(2.381 1.371)" fill="#d6254e"/>
    <path id="Path_16429" data-name="Path 16429" d="M41.57,22.72Z" transform="translate(-1.395 -0.391)" fill="#d6254e"/>
    <path id="Path_16430" data-name="Path 16430" d="M43.77,25Z" transform="translate(-1.263 -0.255)" fill="#d6254e"/>
    <path id="Path_16431" data-name="Path 16431" d="M40.74,22.19Z" transform="translate(-1.444 -0.423)" fill="#d6254e"/>
    <path id="Path_16432" data-name="Path 16432" d="M30.27,22.32Z" transform="translate(-2.07 -0.415)" fill="#d6254e"/>
    <path id="Path_16433" data-name="Path 16433" d="M28.46,23.77Z" transform="translate(-2.178 -0.329)" fill="#d6254e"/>
    <path id="Path_16434" data-name="Path 16434" d="M29.23,23.06Z" transform="translate(-2.132 -0.371)" fill="#d6254e"/>
    <path id="Path_16435" data-name="Path 16435" d="M39.92,23.051h.011l.011-.011Z" transform="translate(2.385 1.376)" fill="#d6254e"/>
    <path id="Path_16436" data-name="Path 16436" d="M25.311,21.621h0L25.3,21.61Z" transform="translate(1.512 1.291)" fill="#d6254e"/>
    <path id="Path_16437" data-name="Path 16437" d="M24.291,22.681V22.67H24.28Z" transform="translate(1.451 1.354)" fill="#d6254e"/>
    <path id="Path_16438" data-name="Path 16438" d="M28.14,24.12Z" transform="translate(-2.197 -0.308)" fill="#d6254e"/>
    <path id="Path_16439" data-name="Path 16439" d="M24.521,22.41Z" transform="translate(1.465 1.339)" fill="#d6254e"/>
    <path id="Path_16440" data-name="Path 16440" d="M28.23,24Z" transform="translate(-2.192 -0.315)" fill="#d6254e"/>
    <path id="Path_16441" data-name="Path 16441" d="M28.27,24Z" transform="translate(-2.189 -0.315)" fill="#d6254e"/>
    <path id="Path_16442" data-name="Path 16442" d="M43.72,24.87Z" transform="translate(-1.266 -0.263)" fill="#d6254e"/>
    <path id="Path_16443" data-name="Path 16443" d="M28.41,23.82Z" transform="translate(-2.181 -0.326)" fill="#d6254e"/>
    <path id="Path_16444" data-name="Path 16444" d="M36.78,40.927a10.682,10.682,0,0,1,.615-1.918,4.069,4.069,0,0,1,1.409-1.7A4.928,4.928,0,0,0,40.065,36.1a.159.159,0,0,1,.212-.074c.085,0,0,.127,0,.18-.35,1.2-.774,2.363-1.2,3.54a1.155,1.155,0,0,1-1.06.827A3.889,3.889,0,0,0,36.78,40.927Z" transform="translate(-1.681 0.402)" fill="#f2c10c"/>
    <path id="Path_16445" data-name="Path 16445" d="M41.894,33.39a6.973,6.973,0,0,1-.4,2.671,8.181,8.181,0,0,0-.413,1.367,1.674,1.674,0,0,0,0,.827.71.71,0,0,0,.074.191c.159.254.223.254.434,0a18.016,18.016,0,0,0,2.119-2.522,10.173,10.173,0,0,0,1.632-3.54V32.32a6.549,6.549,0,0,1-.477,1.547A12.3,12.3,0,0,1,42.974,36.9a17.889,17.889,0,0,1-1.346,1.484,4.1,4.1,0,0,0-.509.668.487.487,0,0,1,.106-.286.148.148,0,0,0,0-.2.933.933,0,0,1-.265-.848,6.474,6.474,0,0,1,.371-1.484,7.132,7.132,0,0,0,.445-1.611,7.562,7.562,0,0,1,.064-1.2C41.883,33.443,41.894,33.422,41.894,33.39Z" transform="translate(-1.432 0.182)" fill="#d6254e"/>
    <path id="Path_16446" data-name="Path 16446" d="M45.184,32.524l.064-.6a8.414,8.414,0,0,0-.233-3.084c-.085-.35-.159-.71-.244-1.06a.117.117,0,0,1,0-.117,15.727,15.727,0,0,1,.593,3.359A6.083,6.083,0,0,1,45.184,32.524Z" transform="translate(-1.205 -0.096)" fill="#d6254e"/>
    <path id="Path_16447" data-name="Path 16447" d="M41.68,32.389l.064-.329h0c0,.064-.064.117,0,.17s.085,0,.127-.053.1,0,.085.053a1.6,1.6,0,0,1,0,.318,2.608,2.608,0,0,1-.064.7v-.986c0-.032-.1.064-.138.1A.159.159,0,0,1,41.68,32.389Z" transform="translate(-1.388 0.167)" fill="#d6254e"/>
    <path id="Path_16448" data-name="Path 16448" d="M37.95,30.82Z" transform="translate(2.267 1.841)" fill="#d6254e"/>
    <path id="Path_16449" data-name="Path 16449" d="M39.8,34.551Z" transform="translate(-1.501 0.314)" fill="#fefefd"/>
    <path id="Path_16450" data-name="Path 16450" d="M38.805,13.57c-.286,0-.286,0-.265-.3s.053-.763.074-1.145c0-.127,0-.17.17-.138h0a.784.784,0,0,1,.7,1.24.657.657,0,0,1-.678.339Z" transform="translate(-1.576 -1.033)" fill="#d6254e"/>
    <path id="Path_16451" data-name="Path 16451" d="M30.779,16.062a.837.837,0,0,1-.795.911c-.1,0-.085-.064-.1-.117-.233-.752-.466-1.5-.689-2.247-.117-.392-.233-.774-.36-1.155,0-.1,0-.148.1-.17l.286-.074a.657.657,0,0,1,.731.286,3.635,3.635,0,0,1,.456.986,6.062,6.062,0,0,1,.371,1.579Z" transform="translate(-2.155 -0.961)" fill="#d6254e"/>
    <path id="Path_16452" data-name="Path 16452" d="M55.2,50.658a1.388,1.388,0,0,1-.742-.286,8.7,8.7,0,0,1-1.441-1.24,1.653,1.653,0,0,1-.17-.212.795.795,0,0,1,.17-1.208c.085-.074.117,0,.148,0l1.515,1.272c.4.329.795.678,1.208,1.06.1.074.1.127,0,.212l-.2.223A.625.625,0,0,1,55.2,50.658Z" transform="translate(-0.733 1.1)" fill="#d6254e"/>
    <path id="Path_16453" data-name="Path 16453" d="M52.289,22.077a.509.509,0,0,1-.477-.689A1.325,1.325,0,0,1,52.045,21a11.519,11.519,0,0,1,1.8-1.791,1.24,1.24,0,0,1,.286-.2.477.477,0,0,1,.593.085.5.5,0,0,1,.1.6,1.685,1.685,0,0,1-.138.233,10.11,10.11,0,0,1-1.961,1.961.784.784,0,0,1-.434.191Z" transform="translate(-0.785 -0.617)" fill="#d6254e"/>
    <path id="Path_16454" data-name="Path 16454" d="M57.885,32.139h-.339a.5.5,0,0,1-.456-.434.477.477,0,0,1,.286-.54,3.719,3.719,0,0,1,.858-.286,11.18,11.18,0,0,1,2.056-.3,1.06,1.06,0,0,1,.36,0,.5.5,0,0,1,.392.434.477.477,0,0,1-.265.509,1.664,1.664,0,0,1-.466.191,12.632,12.632,0,0,1-2.427.424Z" transform="translate(-0.468 0.077)" fill="#d6254e"/>
    <path id="Path_16455" data-name="Path 16455" d="M14.459,30.77a12.96,12.96,0,0,1,2.469.434,1.3,1.3,0,0,1,.424.2.477.477,0,0,1,.212.53.509.509,0,0,1-.424.392,3.1,3.1,0,0,1-1.06,0,10.312,10.312,0,0,1-1.791-.36,1.388,1.388,0,0,1-.5-.212.519.519,0,0,1,.159-.9,1.9,1.9,0,0,1,.509-.085Z" transform="translate(-3.066 0.09)" fill="#d6254e"/>
    <path id="Path_16456" data-name="Path 16456" d="M19.31,46.6Z" transform="translate(-2.725 1.035)" fill="#d9224c"/>
    <path id="Path_16457" data-name="Path 16457" d="M56.25,25.69Z" transform="translate(-0.518 -0.214)" fill="#d9224c"/>
    <path id="Path_16458" data-name="Path 16458" d="M43.48,13.41v1.929c0,.085,0,.1-.106.074l-.89-.233c-.117,0-.064-.085,0-.138l.551-1.007c.127-.2.244-.413.371-.625Z" transform="translate(-1.344 -0.948)" fill="#d6254e"/>
    <path id="Path_16459" data-name="Path 16459" d="M32.9,25.15a6.242,6.242,0,0,0-.7.36Z" transform="translate(-1.955 -0.246)" fill="#d6254e"/>
    <path id="Path_16460" data-name="Path 16460" d="M39.166,25.58a3.773,3.773,0,0,0-.636-.36,6.166,6.166,0,0,1,.636.36Z" transform="translate(-1.576 -0.242)" fill="#d6254e"/>
    <path id="Path_16461" data-name="Path 16461" d="M41.653,29.139c-.085-.233-.127-.466-.233-.689C41.494,28.683,41.579,28.906,41.653,29.139Z" transform="translate(-1.404 -0.049)" fill="#d6254e"/>
    <path id="Path_16462" data-name="Path 16462" d="M41.84,31.07Z" transform="translate(-1.379 0.107)" fill="#d6254e"/>
    <path id="Path_16463" data-name="Path 16463" d="M35.77,24.62Z" transform="translate(-1.741 -0.278)" fill="#d6254e"/>
    <path id="Path_16464" data-name="Path 16464" d="M41.78,31.78v-.36h0A1.42,1.42,0,0,1,41.78,31.78Z" transform="translate(-1.382 0.128)" fill="#d6254e"/>
    <path id="Path_16465" data-name="Path 16465" d="M38.023,25.008l-.413-.138h0A1.5,1.5,0,0,0,38.023,25.008Z" transform="translate(-1.631 -0.263)" fill="#d6254e"/>
    <path id="Path_16466" data-name="Path 16466" d="M37.338,24.814l-.318-.064h0A1.272,1.272,0,0,0,37.338,24.814Z" transform="translate(-1.667 -0.27)" fill="#d6254e"/>
    <path id="Path_16467" data-name="Path 16467" d="M34.2,24.75l-.307.064A.763.763,0,0,0,34.2,24.75Z" transform="translate(-1.854 -0.27)" fill="#d6254e"/>
    <path id="Path_16468" data-name="Path 16468" d="M33.635,24.88l-.265.085Z" transform="translate(-1.885 -0.262)" fill="#d6254e"/>
    <path id="Path_16469" data-name="Path 16469" d="M39.649,25.918l-.159-.138Z" transform="translate(-1.519 -0.209)" fill="#d6254e"/>
    <path id="Path_16470" data-name="Path 16470" d="M36.751,24.721h-.2C36.614,24.689,36.677,24.742,36.751,24.721Z" transform="translate(-1.695 -0.272)" fill="#d6254e"/>
    <path id="Path_16471" data-name="Path 16471" d="M41.355,28.25s-.053-.117-.085-.17S41.3,28.208,41.355,28.25Z" transform="translate(-1.413 -0.072)" fill="#d6254e"/>
    <path id="Path_16472" data-name="Path 16472" d="M33.18,25l-.17.074Z" transform="translate(-1.906 -0.255)" fill="#d6254e"/>
    <path id="Path_16473" data-name="Path 16473" d="M41.81,30.237h0a.18.18,0,0,0,0-.127Z" transform="translate(-1.381 0.05)" fill="#d6254e"/>
    <path id="Path_16474" data-name="Path 16474" d="M36.19,24.65Z" transform="translate(-1.716 -0.276)" fill="#d6254e"/>
    <path id="Path_16475" data-name="Path 16475" d="M38.326,25.143a.133.133,0,0,1-.106-.053h0Z" transform="translate(-1.595 -0.25)" fill="#d6254e"/>
    <path id="Path_16476" data-name="Path 16476" d="M41.213,27.927l-.053-.117h0Z" transform="translate(-1.419 -0.087)" fill="#d6254e"/>
    <path id="Path_16477" data-name="Path 16477" d="M41.712,29.448V29.31C41.659,29.363,41.69,29.405,41.712,29.448Z" transform="translate(-1.388 0.002)" fill="#d6254e"/>
    <path id="Path_16478" data-name="Path 16478" d="M40.344,26.585,40.27,26.5Z" transform="translate(-1.473 -0.166)" fill="#d6254e"/>
    <path id="Path_16479" data-name="Path 16479" d="M40.54,26.81Z" transform="translate(-1.456 -0.147)" fill="#d6254e"/>
    <path id="Path_16480" data-name="Path 16480" d="M39.844,26.074,39.78,26Z" transform="translate(-1.502 -0.195)" fill="#d6254e"/>
    <path id="Path_16481" data-name="Path 16481" d="M31.724,25.82l-.074.053Z" transform="translate(-1.987 -0.206)" fill="#d6254e"/>
    <path id="Path_16482" data-name="Path 16482" d="M41.061,27.635V27.55A.106.106,0,0,0,41.061,27.635Z" transform="translate(-1.426 -0.103)" fill="#d6254e"/>
    <path id="Path_16483" data-name="Path 16483" d="M34.67,24.68Z" transform="translate(-1.807 -0.274)" fill="#d6254e"/>
    <path id="Path_16484" data-name="Path 16484" d="M35.1,24.65Z" transform="translate(-1.781 -0.276)" fill="#d6254e"/>
    <path id="Path_16485" data-name="Path 16485" d="M32.05,25.59Z" transform="translate(-1.964 -0.22)" fill="#d6254e"/>
    <path id="Path_16486" data-name="Path 16486" d="M41.78,29.87Z" transform="translate(-1.382 0.036)" fill="#d6254e"/>
    <path id="Path_16487" data-name="Path 16487" d="M40.16,26.37Z" transform="translate(-1.479 -0.173)" fill="#d6254e"/>
    <path id="Path_16488" data-name="Path 16488" d="M31.4,26.08Z" transform="translate(-2.002 -0.191)" fill="#d6254e"/>
    <path id="Path_16489" data-name="Path 16489" d="M38.091,28l-.011.011L38.091,28Z" transform="translate(2.275 1.673)" fill="#d6254e"/>
    <path id="Path_16490" data-name="Path 16490" d="M30.77,23.07Z" transform="translate(1.839 1.378)" fill="#d6254e"/>
    <path id="Path_16491" data-name="Path 16491" d="M40.69,27Z" transform="translate(-1.447 -0.136)" fill="#d6254e"/>
    <path id="Path_16492" data-name="Path 16492" d="M31.91,25.67Z" transform="translate(-1.972 -0.215)" fill="#d6254e"/>
    <path id="Path_16493" data-name="Path 16493" d="M40.76,27.12Z" transform="translate(-1.443 -0.129)" fill="#d6254e"/>
    <path id="Path_16494" data-name="Path 16494" d="M40.82,27.22Z" transform="translate(-1.44 -0.123)" fill="#d6254e"/>
    <path id="Path_16495" data-name="Path 16495" d="M39.37,25.7Z" transform="translate(-1.526 -0.213)" fill="#d6254e"/>
    <path id="Path_16496" data-name="Path 16496" d="M37.211,25.67l.011.011-.011-.011h0Z" transform="translate(2.223 1.533)" fill="#d6254e"/>
    <path id="Path_16497" data-name="Path 16497" d="M41,27.42Z" transform="translate(-1.429 -0.111)" fill="#d6254e"/>
    <path id="Path_16498" data-name="Path 16498" d="M40.6,26.92Z" transform="translate(-1.453 -0.14)" fill="#d6254e"/>
    <path id="Path_16499" data-name="Path 16499" d="M31.56,25.94Z" transform="translate(-1.993 -0.199)" fill="#d6254e"/>
    <path id="Path_16500" data-name="Path 16500" d="M39.26,25.63Z" transform="translate(-1.533 -0.218)" fill="#d6254e"/>
    <path id="Path_16501" data-name="Path 16501" d="M37.43,24.85Z" transform="translate(-1.642 -0.264)" fill="#d6254e"/>
    <path id="Path_16502" data-name="Path 16502" d="M33.74,24.84Z" transform="translate(-1.863 -0.265)" fill="#d6254e"/>
    <path id="Path_16503" data-name="Path 16503" d="M36.75,25.03Z" transform="translate(2.196 1.495)" fill="#d6254e"/>
  </g>
</svg>
