<svg id="Tenpin_Bowling_Federation_INDIA_" data-name="Tenpin Bowling Federation (INDIA)" xmlns="http://www.w3.org/2000/svg" width="69.561" height="68.18" viewBox="0 0 69.561 68.18">
  <path id="Path_16272" data-name="Path 16272" d="M1.84,40.06l1.68-.29v.08a2.76,2.76,0,0,0-1.25.66.85.85,0,0,0-.18.77c0,.07,0,.12,0,.12h.16l3.19-.55a.68.68,0,0,0,.22-.06.13.13,0,0,0,0-.09,1.25,1.25,0,0,0,0-.28,5.49,5.49,0,0,0-.07-.55h.06l.44,2.57h.02A2.12,2.12,0,0,0,6,41.9a2.25,2.25,0,0,0-.09-.26.084.084,0,0,0-.08-.08.84.84,0,0,0-.21,0l-3.19.55c-.1,0-.15,0-.16.07a.43.43,0,0,0,0,.12.85.85,0,0,0,.43.7,2.92,2.92,0,0,0,1.4.22v.08l-1.66.29Z" transform="translate(-1.61 -1.13)" fill="#04599d"/>
  <path id="Path_16273" data-name="Path 16273" d="M3.56,38l1.6-.08h.21l.07-.12a.69.69,0,0,0,0-.22q0-.12,0-.45a1.3,1.3,0,0,0-.46-1,2.33,2.33,0,0,0-1.32-.38v-.08l1.77-.08.19,3.88H5.58a2.56,2.56,0,0,0-.1-.71.19.19,0,0,0-.07-.08h-.2l-3.07.15a.59.59,0,0,0-.22,0s0,0,0,.08a.94.94,0,0,0,0,.27,3.08,3.08,0,0,0,0,.43H1.78l-.17-3.69,1.49-.07v.07a1.82,1.82,0,0,0-.87.28.94.94,0,0,0-.52.9c0,.15,0,.31,0,.46a1.49,1.49,0,0,0,.08.4.12.12,0,0,0,.07.07.48.48,0,0,0,.21,0L3.5,38a1.4,1.4,0,0,0-.16-.76,1.64,1.64,0,0,0-1-.27V36.9l2.35-.11v.07a1.62,1.62,0,0,0-1,.36A1.38,1.38,0,0,0,3.56,38Z" transform="translate(-1.61 -1.13)" fill="#04599d"/>
  <path id="Path_16274" data-name="Path 16274" d="M4.56,31.88,2.9,31.74a1.1,1.1,0,0,0-.77.13.9.9,0,0,0-.26.65H1.82L2,30.82H2a.73.73,0,0,0,.16.61,1.25,1.25,0,0,0,.73.23l2.87.24V32L2.41,34.15l-.08.06h.1l1.95.16a1.44,1.44,0,0,0,.89-.1.86.86,0,0,0,.27-.65H5.6l-.14,1.73H5.4a.84.84,0,0,0-.14-.65,1.16,1.16,0,0,0-.74-.24l-2-.17a.74.74,0,0,0-.54.14.86.86,0,0,0-.28.61h0l.1-1.23L4.57,32c.07-.05.1-.08.1-.09S4.64,31.89,4.56,31.88Z" transform="translate(-1.61 -1.13)" fill="#04599d"/>
  <path id="Path_16275" data-name="Path 16275" d="M4.43,29.41l1.32.28a.72.72,0,0,0,.23,0l.06-.07a.94.94,0,0,0,.11-.27,4.068,4.068,0,0,1,.13-.55h.06l-.53,2.53H5.75a2.7,2.7,0,0,1,.09-.49,1.251,1.251,0,0,0,0-.28v-.09a.47.47,0,0,0-.21-.07l-3-.64a.59.59,0,0,0-.21,0l-.06.06a3.18,3.18,0,0,0-.23.76H2l.48-2.27a1.75,1.75,0,0,1,.56-1,1,1,0,0,1,.9-.31.87.87,0,0,1,.55.42,1.44,1.44,0,0,1,.13,1.06Zm0,0,.13-.6a.85.85,0,0,0-.11-.73,1.19,1.19,0,0,0-.66-.31,1.16,1.16,0,0,0-.8.06.83.83,0,0,0-.41.61v.28a1,1,0,0,0,0,.19.15.15,0,0,0,.06.09.88.88,0,0,0,.23.06Z" transform="translate(-1.61 -1.13)" fill="#04599d"/>
  <path id="Path_16276" data-name="Path 16276" d="M3.78,25.14l2.94.94a.59.59,0,0,0,.22,0l.07-.05a2.54,2.54,0,0,0,.27-.66h.06l-.71,2.24H6.57a1.8,1.8,0,0,1,.12-.43.66.66,0,0,0,0-.25.16.16,0,0,0,0-.11.6.6,0,0,0-.19-.08L3.56,25.8H3.35l-.07.06a2.45,2.45,0,0,0-.28.66H3l.71-2.25h.06a2.38,2.38,0,0,0-.12.43,1.16,1.16,0,0,0,0,.27V25A.16.16,0,0,0,3.78,25.14Z" transform="translate(-1.61 -1.13)" fill="#04599d"/>
  <path id="Path_16277" data-name="Path 16277" d="M7.59,21.78l-1.53-.66A1.09,1.09,0,0,0,5.3,21a.91.91,0,0,0-.45.53h0l.68-1.56h0a.72.72,0,0,0,0,.63,1.2,1.2,0,0,0,.57.4l2.64,1.15-.06.13-3.85.92h-.1l.1.06,1.79.78a1.5,1.5,0,0,0,.87.18A.82.82,0,0,0,8,23.77H8l-.7,1.6h0a.89.89,0,0,0,.08-.67,1.16,1.16,0,0,0-.62-.46l-1.88-.81a.72.72,0,0,0-.55-.05.8.8,0,0,0-.46.49H3.82l.49-1.14,3.29-.82h.14A.534.534,0,0,0,7.59,21.78Z" transform="translate(-1.61 -1.13)" fill="#04599d"/>
  <path id="Path_16278" data-name="Path 16278" d="M11.17,18.12,9.62,20.44h0a3.38,3.38,0,0,0,.38-.65.2.2,0,0,0,0-.11.72.72,0,0,0-.17-.14L7.21,17.79a.58.58,0,0,0-.2-.1.18.18,0,0,0-.08,0,2.78,2.78,0,0,0-.48.59h0l1.36-2a1.49,1.49,0,0,1,.86-.67.8.8,0,0,1,.64.07.69.69,0,0,1,.34.45,1.58,1.58,0,0,1-.22,1,1.74,1.74,0,0,1,.93-.64.86.86,0,0,1,1.06.75,1.24,1.24,0,0,1-.25.88ZM8.77,18l.31-.46a1,1,0,0,0,.22-.63.74.74,0,0,0-.39-.56,1,1,0,0,0-.71-.23,1,1,0,0,0-.55.46l-.16.24-.09.16a.12.12,0,0,0,0,.11l.19.14Zm.44-.56L8.82,18l1.36.91a1.1,1.1,0,0,0,.2.11.19.19,0,0,0,.11,0,.52.52,0,0,0,.13-.13l.29-.43a.78.78,0,0,0,.14-.67,1,1,0,0,0-.44-.52A1.1,1.1,0,0,0,9.85,17a.86.86,0,0,0-.64.39Z" transform="translate(-1.61 -1.13)" fill="#04599d"/>
  <path id="Path_16279" data-name="Path 16279" d="M12.87,13a2,2,0,0,1,.71,1.41,1.67,1.67,0,0,1-.4,1.26,1.71,1.71,0,0,1-1.17.59,2,2,0,0,1-1.51-.53,1.94,1.94,0,0,1-.71-1.4,1.72,1.72,0,0,1,.41-1.26,1.75,1.75,0,0,1,1.17-.59,1.94,1.94,0,0,1,1.5.52Zm-.52.61a3,3,0,0,0-1.25-.75.82.82,0,0,0-1,1.14,3.16,3.16,0,0,0,.9,1.11,3.24,3.24,0,0,0,1.25.75.82.82,0,0,0,1-1.14,3.1,3.1,0,0,0-.9-1.13Z" transform="translate(-1.61 -1.13)" fill="#04599d"/>
  <path id="Path_16280" data-name="Path 16280" d="M14.63,10.11l1.31,2.71-.15.14-3.27-1.82c-.15-.08-.26-.12-.32-.1a1.82,1.82,0,0,0-.42.29h0L13.3,10h0a1.94,1.94,0,0,0-.36.36.15.15,0,0,0,0,.21.36.36,0,0,0,.12.08L15.43,12l-.93-2-.37-.24a.42.42,0,0,0-.32-.11,1.64,1.64,0,0,0-.44.3h0L14.9,8.61v.05a1.69,1.69,0,0,0-.36.35.16.16,0,0,0,0,.22.39.39,0,0,0,.1.08l2.22,1.42-.7-1.85A1.82,1.82,0,0,0,16,8.45c-.22-.26-.51-.23-.87.08h0l1.18-1h0a.66.66,0,0,0-.19.74,5.07,5.07,0,0,0,.21.59l1.06,2.78-.15.12Z" transform="translate(-1.61 -1.13)" fill="#04599d"/>
  <path id="Path_16281" data-name="Path 16281" d="M20.61,9.32a1.4,1.4,0,0,0,.71-1A2,2,0,0,0,21,7h0l1,1.58-3.34,2h0A3.36,3.36,0,0,0,19,10.3a.86.86,0,0,0,.19-.17.19.19,0,0,0,0-.1l-.09-.19L17.52,7.22c-.06-.1-.1-.16-.13-.17h-.1a1.35,1.35,0,0,0-.25.1l-.39.21V7.31L18.72,6h0l-.44.29a1.35,1.35,0,0,0-.2.18.29.29,0,0,0-.05.1.5.5,0,0,0,.09.2l1.6,2.61a.64.64,0,0,0,.14.18H20a2.67,2.67,0,0,0,.61-.24Z" transform="translate(-1.61 -1.13)" fill="#04599d"/>
  <path id="Path_16282" data-name="Path 16282" d="M21.93,4.77l1.33,2.78a.5.5,0,0,0,.12.19.11.11,0,0,0,.09,0,2.38,2.38,0,0,0,.67-.25v.06L22,8.58V8.53l.4-.21.21-.16a.14.14,0,0,0,.05-.09.57.57,0,0,0-.07-.2L21.26,5.09a.56.56,0,0,0-.11-.18h-.09a2.28,2.28,0,0,0-.67.25V5.11l2.14-1h0l-.4.2a1.2,1.2,0,0,0-.21.16h-.05a.43.43,0,0,0,.06.3Z" transform="translate(-1.61 -1.13)" fill="#04599d"/>
  <path id="Path_16283" data-name="Path 16283" d="M27,5.24l-.57-1.57A1.1,1.1,0,0,0,26,3a.86.86,0,0,0-.7,0V2.95l1.6-.57v.05a.7.7,0,0,0-.49.39,1.22,1.22,0,0,0,.09.76l1,2.71-.13.05L24,4.23v.05l.66,1.84a1.44,1.44,0,0,0,.46.77.86.86,0,0,0,.7,0v.06l-1.64.59V7.48a.85.85,0,0,0,.54-.39,1.26,1.26,0,0,0-.09-.77l-.69-1.93a.73.73,0,0,0-.35-.43.78.78,0,0,0-.67,0V3.91L24,3.46,26.9,5.3l.12.06A.29.29,0,0,1,27,5.24Z" transform="translate(-1.61 -1.13)" fill="#04599d"/>
  <path id="Path_16284" data-name="Path 16284" d="M31.2,5.45h-.05A.56.56,0,0,0,31,5.14a.23.23,0,0,0-.21-.08.55.55,0,0,0-.31.19l-.1.15a1.39,1.39,0,0,1-.31.3,1.24,1.24,0,0,1-.39.14,1.6,1.6,0,0,1-1.2-.17,1.88,1.88,0,0,1-.86-1.32,2.11,2.11,0,0,1,.27-1.64A1.52,1.52,0,0,1,28.82,2a1.42,1.42,0,0,1,.61,0,1.61,1.61,0,0,1,.66.39l.2-.69.36,1.65h0a2.43,2.43,0,0,0-.76-1.09A1.1,1.1,0,0,0,28.93,2a.79.79,0,0,0-.6.65,3,3,0,0,0,0,1.45,3.18,3.18,0,0,0,.55,1.34.74.74,0,0,0,.77.33.87.87,0,0,0,.57-.34.87.87,0,0,0,.08-.67l-.15-.7a1.931,1.931,0,0,0-.06-.2A.13.13,0,0,0,30,3.82a1.16,1.16,0,0,0-.25,0h-.31l2-.44h0l-.32.09-.25.1c-.05,0-.07,0-.08.06a.63.63,0,0,0,0,.23Z" transform="translate(-1.61 -1.13)" fill="#04599d"/>
  <path id="Path_16285" data-name="Path 16285" d="M34,4.72l-.14-3.07a.52.52,0,0,0,0-.21l-.08-.05h-.71V1.3l3.7-.17.07,1.49h-.08a1.71,1.71,0,0,0-.27-.87,1,1,0,0,0-.9-.52,4.67,4.67,0,0,0-.55,0,1.32,1.32,0,0,0-.32.07h-.05a.56.56,0,0,0,0,.24L34.69,3a1.49,1.49,0,0,0,.78-.16,1.56,1.56,0,0,0,.27-1h.08l.11,2.36h-.08c0-.54-.13-.87-.32-1a1.68,1.68,0,0,0-.84-.09l.07,1.61a.65.65,0,0,0,0,.22h.92V5l-2.5.12V5.1h.45a1.12,1.12,0,0,0,.3-.1A.17.17,0,0,0,34,4.93,1,1,0,0,0,34,4.72Z" transform="translate(-1.61 -1.13)" fill="#04599d"/>
  <path id="Path_16286" data-name="Path 16286" d="M38.54,3.1l-.13,1.6a.68.68,0,0,0,0,.21.4.4,0,0,0,.11.09h.66a1.26,1.26,0,0,0,1.06-.32,2.31,2.31,0,0,0,.54-1.26h.08L40.72,5.2,36.84,5V4.92a2.18,2.18,0,0,0,.71,0,.12.12,0,0,0,.08,0,.58.58,0,0,0,0-.21l.24-3.06a.62.62,0,0,0,0-.22l-.07-.05a1.09,1.09,0,0,0-.27-.07,2.79,2.79,0,0,0-.43-.06V1.14l3.68.28-.11,1.49h-.08a1.87,1.87,0,0,0-.16-.9,1,1,0,0,0-.84-.63h-.45a1.34,1.34,0,0,0-.41,0,.12.12,0,0,0-.08.05.59.59,0,0,0,0,.22l-.11,1.4A1.52,1.52,0,0,0,39.32,3a1.73,1.73,0,0,0,.39-1h.07L39.6,4.33h-.07a1.77,1.77,0,0,0-.23-1,1.42,1.42,0,0,0-.76-.23Z" transform="translate(-1.61 -1.13)" fill="#04599d"/>
  <path id="Path_16287" data-name="Path 16287" d="M43.17,5.79,40.89,5.3h0l.46.07a.8.8,0,0,0,.26,0h.1a.66.66,0,0,0,.07-.21l.64-3a.61.61,0,0,0,0-.21l-.07-.07a2.61,2.61,0,0,0-.69-.22V1.53L44,2a1.76,1.76,0,0,1,1.09.74,1.88,1.88,0,0,1,.31,1.55,1.85,1.85,0,0,1-.84,1.26,1.8,1.8,0,0,1-1.39.24Zm0-.06a.87.87,0,0,0,.91-.28,2.83,2.83,0,0,0,.55-1.3,2.84,2.84,0,0,0,0-1.39.87.87,0,0,0-.7-.69L43.53,2a1,1,0,0,0-.22,0,.19.19,0,0,0-.09.05.61.61,0,0,0-.07.22l-.64,3a.57.57,0,0,0,0,.23.15.15,0,0,0,.06.09.59.59,0,0,0,.25.08Z" transform="translate(-1.61 -1.13)" fill="#04599d"/>
  <path id="Path_16288" data-name="Path 16288" d="M47.12,4.83l-.54,1.5a.88.88,0,0,0-.06.21.21.21,0,0,0,.09.11.68.68,0,0,0,.19.11l.42.15a1.26,1.26,0,0,0,1.11,0,2.41,2.41,0,0,0,.85-1.08h.07l-.6,1.67L45,6.19V6.14a2,2,0,0,0,.69.17.12.12,0,0,0,.09,0,.36.36,0,0,0,.09-.19l1-2.89A.7.7,0,0,0,47,3a.1.1,0,0,0-.06-.07,1.25,1.25,0,0,0-.24-.14,3,3,0,0,0-.4-.17h0L49.76,3.8l-.5,1.41h-.07a1.86,1.86,0,0,0,.08-.91,1,1,0,0,0-.64-.82L48.2,3.3a1.29,1.29,0,0,0-.41-.08.12.12,0,0,0-.09,0,.78.78,0,0,0-.09.2l-.47,1.32a1.45,1.45,0,0,0,.76.14c.19-.07.4-.36.65-.86h.06l-.79,2.22h-.07a1.69,1.69,0,0,0,0-1.06A1.3,1.3,0,0,0,47.12,4.83Z" transform="translate(-1.61 -1.13)" fill="#04599d"/>
  <path id="Path_16289" data-name="Path 16289" d="M52.76,8.62l-.09.18a1.25,1.25,0,0,1-.28.4.42.42,0,0,1-.49,0,.52.52,0,0,1-.34-.52,2.6,2.6,0,0,1,.34-.91l.1-.1V7.56a.55.55,0,0,0,.06-.45.8.8,0,0,0-.33-.29L51.1,6.5l-.73,1.43a.89.89,0,0,0-.09.22.16.16,0,0,0,.05.1.93.93,0,0,0,.23.16l.4.21v.05L48.79,7.56h0a3.37,3.37,0,0,0,.7.3.17.17,0,0,0,.1,0,.53.53,0,0,0,.12-.18l1.41-2.75a.57.57,0,0,0,.07-.2l-.05-.08a2.64,2.64,0,0,0-.64-.4h0l2.18,1.12a1.42,1.42,0,0,1,.76.77.78.78,0,0,1,0,.65.72.72,0,0,1-.47.4,1.66,1.66,0,0,1-1-.11,1,1,0,0,1,.43,1,2.85,2.85,0,0,1-.31.84.52.52,0,0,0-.09.23.121.121,0,0,0,.09.14c.09.04.16,0,.25-.1a2.41,2.41,0,0,0,.3-.47ZM51.15,6.44l.49.25a1,1,0,0,0,.65.15.77.77,0,0,0,.52-.46A1,1,0,0,0,53,5.65a1,1,0,0,0-.51-.5L52.18,5A.68.68,0,0,0,52,5a.13.13,0,0,0-.1,0,1.09,1.09,0,0,0-.12.2Z" transform="translate(-1.61 -1.13)" fill="#04599d"/>
  <path id="Path_16290" data-name="Path 16290" d="M55,9.58l-.95-.65-.45.33a1,1,0,0,0-.26.24.36.36,0,0,0,0,.36,1,1,0,0,0,.34.35h0L52.36,9.4V9.35a.76.76,0,0,0,.71.1,3.27,3.27,0,0,0,.7-.45L56.2,7.29l.1.07L55.38,11a.51.51,0,0,0,0,.34,1.65,1.65,0,0,0,.42.34v.05l-1.82-1.25v-.05a3.16,3.16,0,0,0,.52.32h.22v-.06Zm0-.07.41-1.57-1.31,1Z" transform="translate(-1.61 -1.13)" fill="#04599d"/>
  <path id="Path_16291" data-name="Path 16291" d="M60.85,11.13l-1.13,1.28-.06-.05a3.06,3.06,0,0,0,.57-1.3.88.88,0,0,0-.34-.71l-.11-.08s-.06,0-.12.1L57.51,12.8a.7.7,0,0,0-.13.18.33.33,0,0,0,0,.1,1.1,1.1,0,0,0,.18.21,3.87,3.87,0,0,0,.4.38v.05L56,12h0c.17.15.31.26.42.34a1.37,1.37,0,0,0,.23.15.17.17,0,0,0,.12,0,.7.7,0,0,0,.15-.14L59.1,9.89q.1-.12.09-.15l-.09-.09a.9.9,0,0,0-.73-.25,3,3,0,0,0-1.23.71l-.06-.06L58.2,8.79Z" transform="translate(-1.61 -1.13)" fill="#04599d"/>
  <path id="Path_16292" data-name="Path 16292" d="M61.89,12.83l-2.26,2.1c-.08.08-.13.13-.14.17s0,0,0,.08a2.25,2.25,0,0,0,.44.57h0l-1.6-1.73h0c.12.13.22.23.32.32a.84.84,0,0,0,.21.15.17.17,0,0,0,.11,0,.77.77,0,0,0,.16-.13l2.26-2.1a.7.7,0,0,0,.14-.16.18.18,0,0,0,0-.09,2.25,2.25,0,0,0-.44-.57h0l1.61,1.74h0c-.11-.12-.22-.23-.31-.31a.87.87,0,0,0-.22-.16h-.06A.663.663,0,0,0,61.89,12.83Z" transform="translate(-1.61 -1.13)" fill="#04599d"/>
  <path id="Path_16293" data-name="Path 16293" d="M63.68,17.52a2,2,0,0,1-1.52.42A1.72,1.72,0,0,1,61,17.29,1.68,1.68,0,0,1,60.67,16,2.11,2.11,0,0,1,63,14.24a1.66,1.66,0,0,1,1.15.65,1.68,1.68,0,0,1,.34,1.27,1.91,1.91,0,0,1-.81,1.36Zm-.49-.63a3.17,3.17,0,0,0,1-1.07.81.81,0,0,0-.07-.9.79.79,0,0,0-.85-.3,3.15,3.15,0,0,0-1.29.66,3.26,3.26,0,0,0-1,1.07.82.82,0,0,0,.92,1.2,3,3,0,0,0,1.29-.66Z" transform="translate(-1.61 -1.13)" fill="#04599d"/>
  <path id="Path_16294" data-name="Path 16294" d="M64.9,21.08l1.44-.84a1.12,1.12,0,0,0,.56-.54.92.92,0,0,0-.16-.68h0l.86,1.46h0a.75.75,0,0,0-.47-.41,1.2,1.2,0,0,0-.73.23l-2.5,1.46-.07-.13L65.37,18v-.09h-.1l-1.69,1a1.48,1.48,0,0,0-.67.59.84.84,0,0,0,.15.69h-.05l-.88-1.51h.05a.87.87,0,0,0,.49.46,1.19,1.19,0,0,0,.74-.23l1.77-1a.73.73,0,0,0,.36-.42.82.82,0,0,0-.12-.66h0l.62,1.07L64.83,21v.13C64.83,21.14,64.83,21.12,64.9,21.08Z" transform="translate(-1.61 -1.13)" fill="#04599d"/>
  <path id="Path_16295" data-name="Path 16295" d="M66,23.06a2.59,2.59,0,0,1,1.82,0,3.31,3.31,0,0,1,1.26.75l-.18.08a3.7,3.7,0,0,0-.67-.4,2.58,2.58,0,0,0-.91-.22,2.62,2.62,0,0,0-1.15.2,2.76,2.76,0,0,0-1,.65,2.44,2.44,0,0,0-.51.79,4,4,0,0,0-.2.76l-.18.07a3.46,3.46,0,0,1,.38-1.41A2.58,2.58,0,0,1,66,23.06Z" transform="translate(-1.61 -1.13)" fill="#04599d"/>
  <path id="Path_16296" data-name="Path 16296" d="M69.31,25.85l-2.94.94a.5.5,0,0,0-.2.1v.08a2.87,2.87,0,0,0,.16.7h-.06l-.72-2.24h.06a3.262,3.262,0,0,0,.15.42,1.11,1.11,0,0,0,.12.23.18.18,0,0,0,.09.07.7.7,0,0,0,.21-.05l2.93-.94.2-.09a.14.14,0,0,0,0-.09,2.87,2.87,0,0,0-.16-.7h0l.73,2.25h0c-.06-.16-.11-.3-.16-.42a1.47,1.47,0,0,0-.12-.23v-.05A.808.808,0,0,0,69.31,25.85Z" transform="translate(-1.61 -1.13)" fill="#04599d"/>
  <path id="Path_16297" data-name="Path 16297" d="M68.15,30.8l1.63-.35a1.05,1.05,0,0,0,.69-.33.9.9,0,0,0,.07-.7h0l.35,1.66h0a.73.73,0,0,0-.33-.53,1.11,1.11,0,0,0-.76,0l-2.8.58V31l2.61-3,.06-.08h-.11l-1.91.4a1.5,1.5,0,0,0-.82.35.85.85,0,0,0-.08.7h-.06l-.35-1.7h0a.87.87,0,0,0,.32.59,1.21,1.21,0,0,0,.78,0l2-.42a.78.78,0,0,0,.48-.29.82.82,0,0,0,.09-.67h0l.26,1.22-2.21,2.57c-.06.06-.09.1-.08.11A.324.324,0,0,0,68.15,30.8Z" transform="translate(-1.61 -1.13)" fill="#04599d"/>
  <path id="Path_16298" data-name="Path 16298" d="M67.29,34l-.17-2.32h.06a4.307,4.307,0,0,0,0,.46,1.11,1.11,0,0,0,.06.26.14.14,0,0,0,.06.08.44.44,0,0,0,.22,0l3.07-.22a.58.58,0,0,0,.21,0v-.08a2.3,2.3,0,0,0,0-.74H71l.17,2.33A1.8,1.8,0,0,1,70.73,35a1.89,1.89,0,0,1-1.41.73,1.87,1.87,0,0,1-1.44-.45A1.79,1.79,0,0,1,67.29,34Zm.06,0a.86.86,0,0,0,.52.79,2.72,2.72,0,0,0,1.4.16,2.86,2.86,0,0,0,1.34-.36.88.88,0,0,0,.47-.86c0-.2,0-.34,0-.44a.71.71,0,0,0-.05-.22.12.12,0,0,0-.07-.07.49.49,0,0,0-.23,0l-3.07.22a.65.65,0,0,0-.22,0,.13.13,0,0,0-.07.09.64.64,0,0,0,0,.26Z" transform="translate(-1.61 -1.13)" fill="#04599d"/>
  <path id="Path_16299" data-name="Path 16299" d="M70.79,37.56l-3.08-.11a.62.62,0,0,0-.23,0s0,0,0,.07a2.26,2.26,0,0,0-.09.71h-.06l.08-2.35h.06v.45a1.23,1.23,0,0,0,0,.26.22.22,0,0,0,.07.09h.2l3.09.1a.58.58,0,0,0,.21,0V36.7a2.26,2.26,0,0,0,.09-.71h0l-.08,2.37h0v-.44a.76.76,0,0,0,0-.27v-.06A1.326,1.326,0,0,0,70.79,37.56Z" transform="translate(-1.61 -1.13)" fill="#04599d"/>
  <path id="Path_16300" data-name="Path 16300" d="M68.33,40.73l.16-1.14-.5-.26a1,1,0,0,0-.33-.11.33.33,0,0,0-.33.12.85.85,0,0,0-.16.45h-.06l.21-1.51h.05a.77.77,0,0,0,.23.68,3.78,3.78,0,0,0,.66.41l2.65,1.4v.11l-3.66.8a.363.363,0,0,0-.31.14,1.58,1.58,0,0,0-.12.52h-.06l.3-2.19h.06a3.38,3.38,0,0,0,0,.61c0,.12,0,.18.11.19h.06Zm.07,0,1.6-.35-1.44-.75Z" transform="translate(-1.61 -1.13)" fill="#04599d"/>
  <path id="Path_16301" data-name="Path 16301" d="M67.57,44.37a2.55,2.55,0,0,1-1.49-1.06A3.47,3.47,0,0,1,65.49,42h.2a3.46,3.46,0,0,0,.31.72,2.63,2.63,0,0,0,.61.71,2.86,2.86,0,0,0,1.07.5,2.48,2.48,0,0,0,2-.32,3.64,3.64,0,0,0,.61-.49h.19a3.34,3.34,0,0,1-1.13.92,2.51,2.51,0,0,1-1.78.33Z" transform="translate(-1.61 -1.13)" fill="#04599d"/>
  <path id="Path_16302" data-name="Path 16302" d="M54.23,16.61l1.58,1.51a28.54,28.54,0,0,1,6.33,12.71c-.23.1-.31.2,0,.32h0c.1.42-.23.58-.48.8-1.16,1.05-1.18,1.73-.11,2.81l1.13,1.18h0l-.24,2.27c-.69,0-1.28.8-2,.24l-.29-.24a2.28,2.28,0,0,0-1.72-1.32c-.48-.13-.19.79-.59,1l-.24-.48a9.6,9.6,0,0,0-.58-2c-.36-1.53-1.12.43-1.66-.11.16-1.64-1.26-2.38-2-3.46-.33-.46-.9-.42-.83.42-.73,0-1.44.11-1.48,1.09l-.26.27c-.64,0-.82.53-1,1h0l-.32.25-.43.35c-.14,0-.2,0-.18.19a.32.32,0,0,0-.1.22,1.22,1.22,0,0,0-1.1,1.61A3.17,3.17,0,0,1,47.25,39c-.14.39-.44,1-1,1s-.37-.68-.58-1l-.33-.51h0a8.06,8.06,0,0,0-.76-1.82.22.22,0,0,0-.07-.2l-.19-.28h0c-.1-.62-.22-1.24-.29-1.87-.17-1.59-.15-1.59-1.4-1H42.5l-.29-.43c.17-.16.52-.29.41-.54s-.6,0-.87-.21h0a.46.46,0,0,0-.26-.5c0-.35-.2-.52-.56-.47h0c.16-.92-.53-.95-1-.76-2.48,1-4-1.57-6.19-1.62-.2,0-.45-.39-.58-.64-.48-.92-1.09-.93-1.83-.34a.19.19,0,0,1-.18,0,3,3,0,0,0,1.55,3.74h.08l.08.05c.06.14.14.16.25,0h.52a.44.44,0,0,0,.75-.08h1l.22.28c.2.43,1,.49.74,1.2-1.1.12-1.37,1.16-2,1.81-.7-.15-1.45-.37-1.54.75a.9.9,0,0,0-.73.53.17.17,0,0,1-.18,0,.47.47,0,0,0-.57.24h0c-.67,0-1.42-.2-1.79.65l-.52.15a2.48,2.48,0,0,1-.53-1.76c.05-.38,0-.79-.51-.84a9.83,9.83,0,0,1-1.81-4,.34.34,0,0,0-.32-.35l-.22-.71c.45-.36.21-.48-.18-.55l-.25-.26c0-.61.52-1.38-.59-1.66-.26-.06,0-.42.07-.64h0c1.21.17,1.06-.63,1-1.38l.27-.4c.47-.25.77-.54.24-1l.05-.53c.05-.61-.25-.56-.76-.58-1.85-.09-2.14-.4-2.31-1.94,1.39-.37,2.73-.7,4,.43a1.45,1.45,0,0,0,2,.07c.66-.75-.3-1.16-.67-1.64s-.85-.79-.09-1.31a.74.74,0,0,0,.32-.61c-.12-.36-.51-.15-.78-.22-.6-.16-1.37.64-1.75,0-.62-1.08-1.22-.4-1.68-.07s-1.3,1-1.36,1.55c-.19,1.62-1.07.69-1.72.63A5.58,5.58,0,0,0,19,16.54c7.44-6.67,16-8.42,25.49-5.65a27.85,27.85,0,0,1,8.71,4.77l.26.23Zm-6.29,9c-.54,0-1,.27-1,.81a1.33,1.33,0,0,0,1.43,1.17c.49,0,.88-.22.87-.71.01-.88-.63-1.12-1.3-1.29Zm-2.27-4.66c-.46.08-.92.22-.87.83.07.77.64,1.07,1.3,1.17a.784.784,0,0,0,1-.74c-.1-.81-.69-1.13-1.43-1.28Zm5.58.92c-.53,0-.91.26-.84.85.09.78.66,1,1.34,1.07.51,0,1-.17.92-.76-.08-.81-.67-1.11-1.42-1.18ZM33.82,32.7c-.2.14-.61.15-.63.57s.25.37.51.38.67-.06.66-.52C34.36,32.83,34.21,32.68,33.82,32.7Zm1.43.09h-.16v.09Z" transform="translate(-1.61 -1.13)" fill="#04599d"/>
  <path id="Path_16303" data-name="Path 16303" d="M19,16.54a5.58,5.58,0,0,1,2.44,2.95c.13.7.3,1.4.38,2.1.19,1.58.34,3.17.5,4.75A8.53,8.53,0,0,0,24.23,31a59.88,59.88,0,0,0,4.05,6.51,2.94,2.94,0,0,0,1,1.52,8.67,8.67,0,0,0,1.4,2.76l.34.84.19.49.15.27.36,1.26.13.3.08.45a.52.52,0,0,0,.15.53l.1.49a1,1,0,0,0,.12.79l.11.74.09,2v2.58L32.29,54l-.35,2.06c-.06.33-.12.66-.19,1l-.18.8a.08.08,0,0,0,0,.12c-.54.51-.72,1.34-1.46,1.67h0a.75.75,0,0,0-.77.49h0l-.51.25h0l-.52.08a3.53,3.53,0,0,1-3.6-1.2c-.08-.1-.3-.1-.46-.15s-.15-.19-.23-.29A5.24,5.24,0,0,0,22.46,57a.22.22,0,0,0-.13-.18c0-.23-.17-.31-.37-.33h0a.42.42,0,0,0-.32-.43h0l-.2-.25h0l-.22-.27-.14-.24c0-.13,0-.19-.15-.17l-.07-.07-.17-.22h0v-.43a.68.68,0,0,0-.49-.81c-.48-.3-.44-1-1-1.25h0c0-.41,0-.79-.49-.94v-.52c.09-1.31-.77-2.37-.94-3.61-.05-.38.13-.9-.46-1v-.5a.79.79,0,0,0,.21-.7,65.45,65.45,0,0,1-.27-7.14.53.53,0,0,0-.39-.58l-.07-3a1.18,1.18,0,0,0-.08-1.54l-.07-.71.71-.35.13.6a.6.6,0,0,0,0,.95,24.61,24.61,0,0,1,.26,5.07,47.57,47.57,0,0,0,.65,8.6c1,5.08,4,9,7.72,12.4,1.21,1.09,4.12.28,4.54-1.32C32,52.18,32.1,46.59,29.25,41.2c-2.07-3.9-4.81-7.38-6.74-11.35-.17-.34-.38-.6-.79-.44-1.58.6-3.3.79-4.77,1.7-.59-.23-.48-.83-.65-1.27s-.12-1.21-.77-1.51h0c0-.37.05-.72-.44-.79a.26.26,0,0,1-.09-.19A1.34,1.34,0,0,0,14.17,26L14,25.56V25h.55a12.71,12.71,0,0,1,2,3.9c.17.72.52.64,1,.42a17.52,17.52,0,0,1,3.15-1.17c.36-.09.81-.2.72-.72-.45-2.5-.15-5.09-.92-7.54a3.68,3.68,0,0,0-4.68-2.57A3.76,3.76,0,0,0,13.33,22a25.8,25.8,0,0,0,.95,2.48A.51.51,0,0,0,14,25h-.32l-.17-.26v-.05l-.33-.32a3,3,0,0,0-.61-1.48h0a5.58,5.58,0,0,1,.51-4.76l1.24-1.23,1-.51.49-.12.53-.12h1.11Z" transform="translate(-1.61 -1.13)" fill="#d36c34"/>
  <path id="Path_16304" data-name="Path 16304" d="M54.37,65.58A1.13,1.13,0,0,1,55,64.31,33.48,33.48,0,0,0,68.12,46.58c.17-.52.38-.81,1-.66.78.19.44.69.31,1.09A34.93,34.93,0,0,1,55.28,65.73c-.22.15-.45.46-.78.29A.282.282,0,0,1,54.37,65.58Z" transform="translate(-1.61 -1.13)" fill="#1a924e"/>
  <path id="Path_16305" data-name="Path 16305" d="M54.29,59.55a.11.11,0,0,0,0-.16c.09-.62,0-1.28.54-1.77l.25-.19a25.93,25.93,0,0,0,7.66-11.49h0l.15-.3.12-.49.7-.33.5.09c.43.38.15.77,0,1.15-.23.71-.49,1.42-.74,2.12a.16.16,0,0,0-.06.18,4.71,4.71,0,0,0-.76,1.58h0a4.65,4.65,0,0,0-.83,1.51l-.17.28-.18.26a.23.23,0,0,0-.1.2l-.2.32h0l-.18.21a.29.29,0,0,0-.1.23l-.21.3h0L58.53,56h0a1.69,1.69,0,0,0-.74.8l-1.25,1.26C55.74,58.5,55.32,59.49,54.29,59.55Z" transform="translate(-1.61 -1.13)" fill="#d36c34"/>
  <path id="Path_16306" data-name="Path 16306" d="M61.46,52l.18-.26Z" transform="translate(-1.61 -1.13)" fill="#f5f6f1"/>
  <path id="Path_16307" data-name="Path 16307" d="M61.16,52.51l.2-.32Z" transform="translate(-1.61 -1.13)" fill="#f5f6f1"/>
  <path id="Path_16308" data-name="Path 16308" d="M61,52.75l.18-.21Z" transform="translate(-1.61 -1.13)" fill="#f5f6f1"/>
  <path id="Path_16309" data-name="Path 16309" d="M60.65,53.28l.21-.3Z" transform="translate(-1.61 -1.13)" fill="#f5f6f1"/>
  <path id="Path_16310" data-name="Path 16310" d="M62.85,45.64l-.15.3Z" transform="translate(-1.61 -1.13)" fill="#f5f6f1"/>
  <path id="Path_16311" data-name="Path 16311" d="M18.56,66.24A35.1,35.1,0,0,1,3.65,47.06c-.13-.4-.43-.92.3-1.14s.83.21,1,.75A33.54,33.54,0,0,0,18,64.22C18.76,64.76,18.75,64.78,18.56,66.24Z" transform="translate(-1.61 -1.13)" fill="#1a924e"/>
  <path id="Path_16312" data-name="Path 16312" d="M18,57.43a.6.6,0,0,0,.49.46l.16.22a7.85,7.85,0,0,0,.07,1.28l-.15.29-1.53-1.06a1.79,1.79,0,0,0-.79-.75l-1-1h0c-.43-1.19-1.6-1.78-2.27-2.77l-.23-.3-.23-.35-.47-.7a1.34,1.34,0,0,0-.48-.77l-.29-.5L9.7,48.41a.27.27,0,0,0-.07-.23l-.17-.29h0c-.22-.68-.42-1.37-.67-2-.15-.42-.17-.71.34-.88a.653.653,0,0,1,.95.47,29.21,29.21,0,0,0,5.56,9.75A11.05,11.05,0,0,0,18,57.41Z" transform="translate(-1.61 -1.13)" fill="#d36c34"/>
  <path id="Path_16313" data-name="Path 16313" d="M9.46,47.89l.17.29Z" transform="translate(-1.61 -1.13)" fill="#fafae9"/>
  <path id="Path_16314" data-name="Path 16314" d="M12.53,53.43l.23.35Z" transform="translate(-1.61 -1.13)" fill="#fafae9"/>
  <path id="Path_16315" data-name="Path 16315" d="M25.23,28.82c-.33-.05-.36-.39-.42-.57a.62.62,0,0,0-.89-.43c-.44.15,0,.49,0,.72-.12.86.93,1.53.34,2.44a8.53,8.53,0,0,1-1.9-4.64c.83-.46,1.56.47,2.38.18-.05.22-.33.58-.07.64C25.75,27.44,25.22,28.21,25.23,28.82Z" transform="translate(-1.61 -1.13)" fill="#1f6093"/>
  <path id="Path_16316" data-name="Path 16316" d="M36.72,30.79a3.46,3.46,0,0,0-2.44-1,1.65,1.65,0,0,1-1.45-1.22,1.14,1.14,0,0,0-1.49-.81c.74-.59,1.35-.58,1.83.34.13.25.38.63.58.64,2.19,0,3.71,2.61,6.19,1.62.49-.19,1.18-.16,1,.76a1.32,1.32,0,0,0-1-.29c-1.08,0-2.15,0-3.23-.07Z" transform="translate(-1.61 -1.13)" fill="#1f6093"/>
  <path id="Path_16317" data-name="Path 16317" d="M26.25,23.19c-1.07.35-2-.28-3-.42s-.94-1.14-.77-2c.12-.59.45-.24.72-.13.17,1.54.46,1.85,2.31,1.94C26,22.63,26.3,22.58,26.25,23.19Z" transform="translate(-1.61 -1.13)" fill="#1f6093"/>
  <path id="Path_16318" data-name="Path 16318" d="M31.16,27.84c0,1.48,1,2.5,1.55,3.74a3,3,0,0,1-1.55-3.74Z" transform="translate(-1.61 -1.13)" fill="#1f6093"/>
  <path id="Path_16319" data-name="Path 16319" d="M35.94,33.92l-.31.49-1.16.6-.1-.09c.63-.65.9-1.69,2-1.81h.06a2,2,0,0,0,0,.24h0C36.07,33.41,35.89,33.56,35.94,33.92Z" transform="translate(-1.61 -1.13)" fill="#1f6093"/>
  <path id="Path_16320" data-name="Path 16320" d="M33.82,32.7c.39,0,.54.13.54.43,0,.46-.29.54-.66.52s-.53,0-.51-.38S33.62,32.84,33.82,32.7Z" transform="translate(-1.61 -1.13)" fill="#085999"/>
  <path id="Path_16321" data-name="Path 16321" d="M28.55,37.46c-.45-.87-.12-1.89-.54-2.77.55.05.56.46.51.84a2.48,2.48,0,0,0,.53,1.76l-.26.22a.69.69,0,0,0-.24-.05Z" transform="translate(-1.61 -1.13)" fill="#1f6093"/>
  <path id="Path_16322" data-name="Path 16322" d="M32.83,35.67c.09-1.12.84-.9,1.54-.75l.1.09a1.36,1.36,0,0,0,0,.2l-.34.17a1.84,1.84,0,0,0-1.22.35Z" transform="translate(-1.61 -1.13)" fill="#1f6093"/>
  <path id="Path_16323" data-name="Path 16323" d="M31.36,36.49,30,37.21h-.35a.75.75,0,0,1-.07-.12C29.94,36.29,30.69,36.5,31.36,36.49Z" transform="translate(-1.61 -1.13)" fill="#1f6093"/>
  <path id="Path_16324" data-name="Path 16324" d="M24.7,26.52l1-1.38C25.76,25.89,25.91,26.69,24.7,26.52Z" transform="translate(-1.61 -1.13)" fill="#1f6093"/>
  <path id="Path_16325" data-name="Path 16325" d="M36.17,31.91l.44.26.29.29h0l-.21.69H36.4c.25-.71-.54-.77-.74-1.2h0Z" transform="translate(-1.61 -1.13)" fill="#1f6093"/>
  <path id="Path_16326" data-name="Path 16326" d="M34.38,31.62c.35-.28.7-1.24,1,0Z" transform="translate(-1.61 -1.13)" fill="#1f6093"/>
  <path id="Path_16327" data-name="Path 16327" d="M26,24.74c.09-.34-.1-.74.24-1C26.73,24.2,26.43,24.49,26,24.74Z" transform="translate(-1.61 -1.13)" fill="#1f6093"/>
  <path id="Path_16328" data-name="Path 16328" d="M32.36,36.25H32.1a.9.9,0,0,1,.73-.53l.06.06-.15.44Z" transform="translate(-1.61 -1.13)" fill="#1f6093"/>
  <path id="Path_16329" data-name="Path 16329" d="M41.52,31.63c-.35,0-.48-.18-.56-.47C41.32,31.11,41.5,31.28,41.52,31.63Z" transform="translate(-1.61 -1.13)" fill="#1f6093"/>
  <path id="Path_16330" data-name="Path 16330" d="M25.66,29.63l-.18-.55C25.87,29.15,26.11,29.27,25.66,29.63Z" transform="translate(-1.61 -1.13)" fill="#1f6093"/>
  <path id="Path_16331" data-name="Path 16331" d="M33.64,31.7l.75-.08a.44.44,0,0,1-.75.08Z" transform="translate(-1.61 -1.13)" fill="#1f6093"/>
  <path id="Path_16332" data-name="Path 16332" d="M26.2,30.69c-.16-.07-.37-.09-.32-.35a.34.34,0,0,1,.32.35Z" transform="translate(-1.61 -1.13)" fill="#1f6093"/>
  <path id="Path_16333" data-name="Path 16333" d="M31.92,36.25l-.57.24A.47.47,0,0,1,31.92,36.25Z" transform="translate(-1.61 -1.13)" fill="#1f6093"/>
  <path id="Path_16334" data-name="Path 16334" d="M35.25,32.79h-.14V32.7Z" transform="translate(-1.61 -1.13)" fill="#085999"/>
  <path id="Path_16335" data-name="Path 16335" d="M32.87,31.63h.25C33,31.79,32.93,31.77,32.87,31.63Z" transform="translate(-1.61 -1.13)" fill="#1f6093"/>
  <path id="Path_16336" data-name="Path 16336" d="M35.41,31.63a.45.45,0,0,0,.2,0h0a.39.39,0,0,0,.06.21h0Z" transform="translate(-1.61 -1.13)" fill="#1f6093"/>
  <path id="Path_16337" data-name="Path 16337" d="M17.29,32.17l-.13-.6a.42.42,0,0,0-.21-.46c1.47-.91,3.19-1.1,4.77-1.7.41-.16.62.1.79.44,1.93,4,4.67,7.45,6.74,11.35,2.85,5.39,2.73,11,1.25,16.67-.42,1.6-3.33,2.41-4.54,1.32-3.74-3.4-6.7-7.32-7.72-12.4a47.57,47.57,0,0,1-.65-8.6,24.61,24.61,0,0,0-.26-5.07Z" transform="translate(-1.61 -1.13)" fill="#fdfcf9"/>
  <path id="Path_16338" data-name="Path 16338" d="M12.06,26.1c.78-.29.65-1.18,1.09-1.69l.33.32-.06.06.05.06.06-.07.17.26a.61.61,0,0,0,.29.52l.18.43c.15.53.27,1.09.83,1.36a.26.26,0,0,0,.09.19.79.79,0,0,0,.44.79h0c.46,1.16.37,2.45.92,3.59,0,.23.05.47.07.71-.26.53,0,1,.08,1.54,0,1,0,2,.07,3a33.46,33.46,0,0,0,.45,8.42c0,.17,0,.33,0,.5-.09,1.46.66,2.73.95,4.1.09.16-.28.54.24.49a.74.74,0,0,1,.21.07v.52a.85.85,0,0,0,.49.94h0c.05.66.16,1.28.93,1.5l.11.26.16.24.06.09a.41.41,0,0,0,.26.4h0l.17.22.07.07a.23.23,0,0,0,.15.17l.14.24.22.27h0l.2.25h0c0,.22.07.4.32.43h0c0,.23.17.31.37.33a.22.22,0,0,1,.13.18c-.12.9-.73.22-1.1.34l-.53-.2-.82-.67-2.24-2.08h0L17.36,54h0c-.1-.11-.19-.23-.28-.34L16.54,53l-.22-.28L15,51l-.21-.3h0A3.26,3.26,0,0,0,14,49.45l-.29-.5-.2-.37a.11.11,0,0,0-.07-.15l-.19-.34a.14.14,0,0,0-.07-.17L13,47.59a.15.15,0,0,0-.06-.18l-.19-.36-1.57-4.47a30,30,0,0,1-.53-9.81A29.18,29.18,0,0,1,11.74,28a5.54,5.54,0,0,0,.32-1.9Z" transform="translate(-1.61 -1.13)" fill="#085999"/>
  <path id="Path_16339" data-name="Path 16339" d="M14.28,24.51A25.8,25.8,0,0,1,13.33,22a3.76,3.76,0,0,1,2.52-4.73,3.68,3.68,0,0,1,4.68,2.57c.77,2.45.47,5,.92,7.54.09.52-.36.63-.72.72a17.52,17.52,0,0,0-3.15,1.17c-.47.22-.82.3-1-.42a12.71,12.71,0,0,0-2-3.9A2.833,2.833,0,0,1,14.28,24.51Z" transform="translate(-1.61 -1.13)" fill="#fdfcf9"/>
  <path id="Path_16340" data-name="Path 16340" d="M32.14,39.26v.27l-.26.49h0a2.65,2.65,0,0,0-.77,1.27h0l-.19.27a.24.24,0,0,0-.1.21.28.28,0,0,0-.13,0A8.67,8.67,0,0,1,29.25,39l.56-.26h.51a8.54,8.54,0,0,0,1.25-.15C32.36,38.33,32.11,38.9,32.14,39.26Z" transform="translate(-1.61 -1.13)" fill="#1f6093"/>
  <path id="Path_16341" data-name="Path 16341" d="M17.12,45.63a33.46,33.46,0,0,1-.45-8.42.53.53,0,0,1,.39.58,65.453,65.453,0,0,0,.27,7.14.79.79,0,0,1-.21.7Z" transform="translate(-1.61 -1.13)" fill="#aa6648"/>
  <path id="Path_16342" data-name="Path 16342" d="M18.56,50.79a.74.74,0,0,0-.21-.07l-.24-.49c-.29-1.37-1-2.64-.95-4.1.59.15.41.67.46,1C17.79,48.42,18.65,49.48,18.56,50.79Z" transform="translate(-1.61 -1.13)" fill="#aa6648"/>
  <path id="Path_16343" data-name="Path 16343" d="M16.45,31.92c-.55-1.14-.46-2.43-.92-3.59.65.3.57,1,.77,1.51s.06,1,.65,1.27a.42.42,0,0,1,.21.46Z" transform="translate(-1.61 -1.13)" fill="#aa6648"/>
  <path id="Path_16344" data-name="Path 16344" d="M21.36,57.37c.37-.12,1,.56,1.1-.34A5.24,5.24,0,0,1,24,58.85h-.54l-1.24-.79h0l-.48-.31h0l-.3-.23h0a1.42,1.42,0,0,0-.08-.15Z" transform="translate(-1.61 -1.13)" fill="#1f6093"/>
  <path id="Path_16345" data-name="Path 16345" d="M20,53.79c-.77-.22-.88-.84-.93-1.5.56.24.52,1,1,1.25Z" transform="translate(-1.61 -1.13)" fill="#1f6093"/>
  <path id="Path_16346" data-name="Path 16346" d="M15,27.35c-.56-.27-.68-.83-.83-1.36A1.34,1.34,0,0,1,15,27.35Z" transform="translate(-1.61 -1.13)" fill="#aa6648"/>
  <path id="Path_16347" data-name="Path 16347" d="M16.6,34.17c-.05-.51-.34-1-.08-1.54a1.18,1.18,0,0,1,.08,1.54Z" transform="translate(-1.61 -1.13)" fill="#aa6648"/>
  <path id="Path_16348" data-name="Path 16348" d="M19.09,52.25a.85.85,0,0,1-.49-.94C19.07,51.46,19.1,51.84,19.09,52.25Z" transform="translate(-1.61 -1.13)" fill="#1f6093"/>
  <path id="Path_16349" data-name="Path 16349" d="M15.53,28.33a.79.79,0,0,1-.44-.79C15.58,27.61,15.57,28,15.53,28.33Z" transform="translate(-1.61 -1.13)" fill="#aa6648"/>
  <path id="Path_16350" data-name="Path 16350" d="M20,53.79l.07-.25a.68.68,0,0,1,.49.81.46.46,0,0,0-.23,0l-.06-.09-.16-.24Z" transform="translate(-1.61 -1.13)" fill="#aa6648"/>
  <path id="Path_16351" data-name="Path 16351" d="M17.29,32.17v.95a.6.6,0,0,1,0-.95Z" transform="translate(-1.61 -1.13)" fill="#aa6648"/>
  <path id="Path_16352" data-name="Path 16352" d="M14.28,24.51c.09.16.19.31.29.47L14,25h0A.51.51,0,0,1,14.28,24.51Z" transform="translate(-1.61 -1.13)" fill="#aa6648"/>
  <path id="Path_16353" data-name="Path 16353" d="M14,25.56a.61.61,0,0,1-.3-.56H14Z" transform="translate(-1.61 -1.13)" fill="#aa6648"/>
  <path id="Path_16354" data-name="Path 16354" d="M20.37,54.38a.46.46,0,0,1,.23,0v.43a.41.41,0,0,1-.23-.43Z" transform="translate(-1.61 -1.13)" fill="#1f6093"/>
  <path id="Path_16355" data-name="Path 16355" d="M22,56.54c-.25,0-.31-.21-.32-.43a.42.42,0,0,1,.32.43Z" transform="translate(-1.61 -1.13)" fill="#1f6093"/>
  <path id="Path_16356" data-name="Path 16356" d="M22.33,56.85a.336.336,0,0,1-.37-.33C22.16,56.54,22.31,56.62,22.33,56.85Z" transform="translate(-1.61 -1.13)" fill="#1f6093"/>
  <path id="Path_16357" data-name="Path 16357" d="M20.83,55.05l-.17-.22Z" transform="translate(-1.61 -1.13)" fill="#1f6093"/>
  <path id="Path_16358" data-name="Path 16358" d="M21.05,55.29a.23.23,0,0,1-.15-.17C21,55.1,21.09,55.16,21.05,55.29Z" transform="translate(-1.61 -1.13)" fill="#1f6093"/>
  <path id="Path_16359" data-name="Path 16359" d="M21.41,55.8l-.22-.27Z" transform="translate(-1.61 -1.13)" fill="#1f6093"/>
  <path id="Path_16360" data-name="Path 16360" d="M21.63,56.07l-.2-.25Z" transform="translate(-1.61 -1.13)" fill="#1f6093"/>
  <path id="Path_16361" data-name="Path 16361" d="M13.53,24.78l-.06.07-.05-.06.06-.06Z" transform="translate(-1.61 -1.13)" fill="#aa6648"/>
  <path id="Path_16362" data-name="Path 16362" d="M31.18,43.1l.15.27Z" transform="translate(-1.61 -1.13)" fill="#f5f6f1"/>
  <path id="Path_16363" data-name="Path 16363" d="M31.69,44.63l.13.3Z" transform="translate(-1.61 -1.13)" fill="#f5f6f1"/>
  <path id="Path_16364" data-name="Path 16364" d="M57.82,44.34v-.32c.14-.45-.3-.54-.49-.77-.43-.51.08-.38.29-.47l.24.08a7.58,7.58,0,0,0,2.07,2c.28.66,1.12,1.2.41,2.08a.45.45,0,0,1-.63.16.11.11,0,0,0-.06-.15c0-.17-.1-.24-.25-.26h0l-.24-.27h0L58.9,46a.09.09,0,0,0,0-.14,1.82,1.82,0,0,0-.77-1.26h0Z" transform="translate(-1.61 -1.13)" fill="#1f6093"/>
  <path id="Path_16365" data-name="Path 16365" d="M60.14,43.75a3.38,3.38,0,0,1-1.57-2.19,1,1,0,0,0,0-.25l.24-.22h.46l.29.26h0A4,4,0,0,1,60.14,43.75Z" transform="translate(-1.61 -1.13)" fill="#2e6a99"/>
  <path id="Path_16366" data-name="Path 16366" d="M12.78,47.05l.19.36Z" transform="translate(-1.61 -1.13)" fill="#eff5ea"/>
  <path id="Path_16367" data-name="Path 16367" d="M13,47.59l.19.33Z" transform="translate(-1.61 -1.13)" fill="#eff5ea"/>
  <path id="Path_16368" data-name="Path 16368" d="M13.29,48.09l.19.34Z" transform="translate(-1.61 -1.13)" fill="#eff5ea"/>
  <path id="Path_16369" data-name="Path 16369" d="M13.55,48.58l.2.37Z" transform="translate(-1.61 -1.13)" fill="#eff5ea"/>
  <path id="Path_16370" data-name="Path 16370" d="M14.8,50.69,15,51Z" transform="translate(-1.61 -1.13)" fill="#eff5ea"/>
  <path id="Path_16371" data-name="Path 16371" d="M16.32,52.75l.22.28Z" transform="translate(-1.61 -1.13)" fill="#eff5ea"/>
  <path id="Path_16372" data-name="Path 16372" d="M17.11,53.67c.09.11.18.23.28.34Z" transform="translate(-1.61 -1.13)" fill="#eff5ea"/>
  <path id="Path_16373" data-name="Path 16373" d="M17.36,54l.26.29Z" transform="translate(-1.61 -1.13)" fill="#eff5ea"/>
  <path id="Path_16374" data-name="Path 16374" d="M21.42,57.58l.3.23Z" transform="translate(-1.61 -1.13)" fill="#eff5ea"/>
  <path id="Path_16375" data-name="Path 16375" d="M18.11,50.23l.24.49C17.83,50.77,18.2,50.39,18.11,50.23Z" transform="translate(-1.61 -1.13)" fill="#1f6093"/>
  <path id="Path_16376" data-name="Path 16376" d="M20.15,54.05l.16.24Z" transform="translate(-1.61 -1.13)" fill="#1f6093"/>
  <path id="Path_16377" data-name="Path 16377" d="M29.55,37.74l.11.06Z" transform="translate(-1.61 -1.13)" fill="#f5f6f1"/>
  <path id="Path_16378" data-name="Path 16378" d="M28.84,62.87H27.68V61.73h3.84v1.14H30.38v6.38H28.84Z" transform="translate(-1.61 -1.13)" fill="#04599d"/>
  <path id="Path_16379" data-name="Path 16379" d="M32.2,61.73h1.91c1.3,0,2.3.37,2.3,2,0,.91-.4,1.41-1.09,1.53.88.13,1.31.76,1.31,1.83a2,2,0,0,1-2.19,2.21H32.2Zm1.91,3c.78,0,1-.36,1-1s-.35-.94-1.06-.94h-.29v2Zm0,3.4c.77,0,1-.38,1-1.16s-.27-1.21-1-1.21H33.7v2.37Z" transform="translate(-1.61 -1.13)" fill="#04599d"/>
  <path id="Path_16380" data-name="Path 16380" d="M37.53,61.73H40.7v1.05H39.05v2h1.4v1.07h-1.4v3.38H37.53Z" transform="translate(-1.61 -1.13)" fill="#04599d"/>
  <path id="Path_16381" data-name="Path 16381" d="M41.61,65.08a5.48,5.48,0,0,1,.22-1.58,3.93,3.93,0,0,1,.65-1.33,2.42,2.42,0,0,1,.94-.81l.2.57a2.58,2.58,0,0,0-.83,1.21,5.61,5.61,0,0,0-.3,1.92v.11a5.57,5.57,0,0,0,.3,1.92,2.51,2.51,0,0,0,.83,1.23l-.2.56a2.45,2.45,0,0,1-.92-.78,4.07,4.07,0,0,1-.65-1.3,5.44,5.44,0,0,1-.24-1.53Z" transform="translate(-1.61 -1.13)" fill="#04599d"/>
  <path id="Path_16382" data-name="Path 16382" d="M45.39,67.23H44.31V62h1.08Z" transform="translate(-1.61 -1.13)" fill="#04599d"/>
  <path id="Path_16383" data-name="Path 16383" d="M48.14,65.16a5.49,5.49,0,0,1-.23,1.58,4.45,4.45,0,0,1-.68,1.34,2.4,2.4,0,0,1-.95.8l-.2-.56a2.51,2.51,0,0,0,.81-1.19,5.57,5.57,0,0,0,.31-1.86v-.2a5.59,5.59,0,0,0-.3-1.91,2.65,2.65,0,0,0-.82-1.24l.2-.56a2.55,2.55,0,0,1,.93.78,4.28,4.28,0,0,1,.68,1.31A5.4,5.4,0,0,1,48.14,65Z" transform="translate(-1.61 -1.13)" fill="#04599d"/>
</svg>
