<svg xmlns="http://www.w3.org/2000/svg" width="67.2" height="20.577" viewBox="0 0 67.2 20.577">
  <g id="The_Federation_of_Motor_Sports_Clubs_of_India" data-name="The Federation of Motor Sports Clubs of India" transform="translate(0.02 0.03)">
    <path id="Path_16504" data-name="Path 16504" d="M34.52,34.55l.42-.65.3-.34.24-.22.27-.21c2.58-1.51,5.37-1.33,8.17-1a4.62,4.62,0,0,1,3.58,2.5l.35.63a10.55,10.55,0,0,1,1.61-1.83l.56-.38,1.51-.72a13.2,13.2,0,0,1,2.81-.51,21.479,21.479,0,0,1,3,.23,6.4,6.4,0,0,1,4.81,3.09.277.277,0,0,1,.18.08V32.77c0-.49.16-.57.58-.56h4.71a.83.83,0,0,1,.08.12c0,4.34,0,8.69,0,13,0,.66-.14.86-.83.83-1.33-.07-2.67,0-4,0-.41,0-.57-.07-.54-.52V43.22a13.63,13.63,0,0,1-1.41,1.61c-1.82,1.48-4,1.7-6.19,1.65a11.19,11.19,0,0,1-5.26-1.36c-.31-.16-.51-.54-.75-.81a3.814,3.814,0,0,1-.41-.55c-.33-.5-.41-.16-.51.15l-.16.27-.22.29-.58.55a1.54,1.54,0,0,0-.57.41c-2.81,1.35-5.75,1.24-8.71.7a4.61,4.61,0,0,1-2.7-1.42c-.25.5.19,1.15-.26,1.38a3.38,3.38,0,0,1-1.43.06H29.92c-.45,0-.53-.14-.52-.55V37.79a1.76,1.76,0,0,0-1.53-1.69,2,2,0,0,0-2.07,1.35,4.76,4.76,0,0,0-.2,1.5c0,2.39,0,4.79-.05,7.18h-4.7c-.48,0-.62-.09-.62-.59V37.63a1.68,1.68,0,0,0-1.36-1.61,1.93,1.93,0,0,0-2,1.05,4.42,4.42,0,0,0-.35,2.09v6.36c0,.43-.07.6-.56.58H11.68c-.47,0-.56-.14-.56-.58V36.67c0-.41,0-.63-.54-.6s-.65.07-.64.59v8.85c0,.49-.14.6-.62.59H5.17c-.47,0-.61-.11-.61-.6V36.79c0-.58-.15-.74-.72-.72-1.28,0-1.29,0-1.29-1.29V32.64c0-.34.07-.5.45-.5s1.15.24,1.45-.11.11-.92.14-1.4c.22-2.85,1.49-4,4.47-4.13a29.181,29.181,0,0,1,4.07.26c.32,0,.5.09.4.5a14.85,14.85,0,0,0-.38,2.18c-.06.59-.35.64-.82.54a3.51,3.51,0,0,0-1.37,0,1.67,1.67,0,0,0-1.06,2c.12.26.36.17.55.17h4.91c.53,0,.76.11.69.68a9.22,9.22,0,0,0,0,1.18c.32-.08.45-.31.62-.48A6,6,0,0,1,22.38,32h.21c.07.11.18.1.29.09a4.57,4.57,0,0,1,1.58,1.14c.08.09.17.24.32.07h0c-.12,0-.15.1-.08.21l.19.27c.09.23.15.44.44.14s.8-.73,1.2-1.1l.22-.16a6.15,6.15,0,0,1,4.59-.67A4,4,0,0,1,34,34l.27.55h0l.11.21ZM53.07,42a.57.57,0,0,0,.32.31,2.82,2.82,0,0,0,4.38-1.09.6.6,0,0,1,.77-.42c1.1.16,2.2.25,3.3.39.33,0,.48,0,.48-.41V37.25c0-.36-.08-.46-.47-.4-1.21.19-2.43.32-3.63.48-.28,0-.45,0-.6-.28a2.69,2.69,0,0,0-4.24-.8c-1.12,1-1.16,2.34-1.1,3.7A2.83,2.83,0,0,0,53.07,42ZM34.74,38.35V41.8c0,.36.13.42.45.38l3.23-.3c.25,0,.45-.05.61.27a2.71,2.71,0,0,0,3.64,1.2c.48-.22.88-.53.84-1.14s-.47-.82-1-.94c-.8-.19-1.62-.34-2.43-.51C38.23,40.36,36.22,40.22,34.74,38.35ZM47,38.6a8.18,8.18,0,0,1,.71-2.93c-1.48.15-2.89.29-4.3.45-.27,0-.43.07-.6-.25a2.54,2.54,0,0,0-3.24-.9,1,1,0,0,0-.56,1,.87.87,0,0,0,.63.74,6.94,6.94,0,0,0,1.67.37C43.19,37.32,45.16,37.44,47,38.6Z" transform="translate(-2.57 -25.96)" fill="#0c0d0f"/>
    <path id="Path_16505" data-name="Path 16505" d="M54.29,26a7.7,7.7,0,0,0,1,0c.49,0,.64.07.4.55C55.08,27.7,54.53,28.85,54,30a.8.8,0,0,1-.84.55H49.02c-.5,0-.6-.11-.36-.58.52-1,1-2.07,1.49-3.1a1,1,0,0,0,.16-.59h0l.27-.27h.4a11.3,11.3,0,0,0,1.93,0A5.39,5.39,0,0,0,54.29,26Z" transform="translate(-2.57 -25.96)" fill="#e57817"/>
    <path id="Path_16506" data-name="Path 16506" d="M62.17,26c.53,0,.69.14.41.68C62,27.74,61.5,28.87,61,30a.84.84,0,0,1-.89.57H55.27C56.16,29,56.81,27.5,57.52,26a.08.08,0,0,0,.09,0h4A.86.86,0,0,0,62.17,26Z" transform="translate(-2.57 -25.96)" fill="#14abdc"/>
    <path id="Path_16507" data-name="Path 16507" d="M68.93,28c-.33.67-.68,1.34-1,2-.15.3-.29.52-.7.51H62.94c-.54,0-.57-.16-.36-.59.59-1.2,1.18-2.4,1.73-3.61.18-.4.46-.38.78-.38h4.57a.05.05,0,0,0,.09,0c-.11.75-.67,1.32-.81,2.05Z" transform="translate(-2.57 -25.96)" fill="#168d48"/>
    <path id="Path_16508" data-name="Path 16508" d="M22.89,31.92v0Z" transform="translate(-2.57 -25.96)" fill="#f7f7f7"/>
  </g>
</svg>
