<svg xmlns="http://www.w3.org/2000/svg" width="25.024" height="28.771" viewBox="0 0 25.024 28.771">
  <g id="Athletes" transform="translate(-0.017)">
    <path id="Path_14347" data-name="Path 14347" d="M104.51,107.341l2.012.73c.713.26,1.434.515,2.148.779a1.61,1.61,0,0,1,1.184,1.466,1.978,1.978,0,0,1-.431,1.351L105,117.558c-.15.2-.293.406-.453.6a1.438,1.438,0,0,1-1.472.588,1.239,1.239,0,0,1-.928-1.568,2.35,2.35,0,0,1,.311-.657c1.07-1.612,2.157-3.217,3.238-4.826.039-.057.076-.115.127-.193-.227-.065-.437-.126-.647-.185l-4.519-1.262a1.867,1.867,0,0,1-1.491-1.549,2.627,2.627,0,0,1,.3-1.656q1.248-2.456,2.5-4.913c.044-.089.089-.173.14-.281-.393-.053-.76-.1-1.126-.152-.842-.11-1.684-.221-2.527-.325a.624.624,0,0,0-.316.045q-1.908.837-3.812,1.686a1.454,1.454,0,0,1-.916.136,1.026,1.026,0,0,1-.624-1.636,1.587,1.587,0,0,1,.5-.424c1.45-.778,2.908-1.542,4.368-2.309a2.023,2.023,0,0,1,1.124-.165c1.752.127,3.5.249,5.26.38a15.74,15.74,0,0,1,1.716.178,3.388,3.388,0,0,1,1.883,1.065,2.347,2.347,0,0,1,.253,3.057c-.376.55-.826,1.051-1.248,1.569-.656.8-1.318,1.6-1.977,2.4Z" transform="translate(-91.377 -93.509)" fill="#fff"/>
    <path id="Path_14348" data-name="Path 14348" d="M89.879,222.808c-.1.255-.2.5-.29.74-.464,1.186-.933,2.369-1.386,3.559a2.8,2.8,0,0,1-.8,1.138c-.8.7-1.561,1.426-2.338,2.149l-3.282,3.031a1.7,1.7,0,0,1-1.017.492,1.254,1.254,0,0,1-1.284-1.745,2.106,2.106,0,0,1,.429-.624c1.632-1.694,3.274-3.373,4.91-5.062a.786.786,0,0,0,.178-.308q.762-2.475,1.516-4.954c.015-.049.031-.1.049-.154.017.012.037.017.043.029a2.286,2.286,0,0,0,1.52,1.212c.524.151,1.051.3,1.577.446A1.619,1.619,0,0,1,89.879,222.808Z" transform="translate(-79.36 -205.152)" fill="#fff"/>
    <path id="Path_14349" data-name="Path 14349" d="M248.653,48.368a2.924,2.924,0,1,1,2.925-2.917A2.924,2.924,0,0,1,248.653,48.368Z" transform="translate(-230.883 -42.52)" fill="#fff"/>
    <path id="Path_14350" data-name="Path 14350" d="M264.14,134.064a3.593,3.593,0,0,0,1.123-2.905l2.3,2.229.178-.1,3.089-1.872a1.409,1.409,0,0,1,.959-.245,1.026,1.026,0,0,1,.737,1.578,1.775,1.775,0,0,1-.47.481c-1.308.932-2.626,1.847-3.937,2.774a1.335,1.335,0,0,1-1.525.074,1.839,1.839,0,0,1-.3-.205q-1.036-.869-2.068-1.745C264.2,134.105,264.175,134.089,264.14,134.064Z" transform="translate(-247.651 -123.251)" fill="#fff"/>
  </g>
</svg>
