<svg xmlns="http://www.w3.org/2000/svg" width="31" height="33.354" viewBox="0 0 31 33.354">
  <g id="Enable_ACTC_Submission" data-name="Enable ACTC Submission" transform="translate(0.015)">
    <path id="Path_19907" data-name="Path 19907" d="M18.888,43.156c-1.383-.369-2.44.859-2,2.41A28.813,28.813,0,0,0,18,48.629a5.009,5.009,0,0,1,.408,2.449c-.021.193-.069.43.236.43s.335-.146.365-.365a4.8,4.8,0,0,0-.318-2.406c-.374-.98-.735-1.963-1.108-2.947a2.024,2.024,0,0,1,.021-1.59.73.73,0,0,1,1.336-.185,2.6,2.6,0,0,1,.322.55,50.1,50.1,0,0,0,2.969,5.082c1.62,2.479,2.058,5.1.494,7.811a11.978,11.978,0,0,0-.786,2.243l-.129.125c-1.753.056-3.51.052-5.267,0l-.137-.133c.211-1.01.387-2.028.64-3.007a4.172,4.172,0,0,0-.374-3.055c-.576-1.121-1.143-2.251-1.719-3.377a5.022,5.022,0,0,1-.365-4.24c.5-1.371.859-2.784,1.289-4.189a4.726,4.726,0,0,1,1.224-2.105c.563-.563,1.108-1.143,1.663-1.719a.258.258,0,0,0,.253.129c.06,1.6.056,3.2,0,4.795A.219.219,0,0,0,18.888,43.156Z" transform="translate(-14.3 -26.512)" fill="#2d2c2a"/>
    <path id="Path_19908" data-name="Path 19908" d="M71.734,59.364l.056.352-.133.133c-1.757.047-3.514.052-5.267,0l-.133-.12h0l-.026-.215a33.755,33.755,0,0,0-1.289-3.158,7.033,7.033,0,0,1,.958-6.6,45.628,45.628,0,0,0,3.059-5.237,2.148,2.148,0,0,1,.271-.451.742.742,0,0,1,1.371.18,1.989,1.989,0,0,1,.026,1.538q-.567,1.5-1.13,3.007a4.726,4.726,0,0,0-.314,2.35c.034.241.112.43.4.4s.232-.262.206-.43a5.435,5.435,0,0,1,.516-2.689c.322-.833.627-1.676.954-2.509a2.445,2.445,0,0,0,.06-1.547,1.508,1.508,0,0,0-1.856-1.255,1.126,1.126,0,0,1-.129-.559V38.48c0-.155-.03-.318.12-.43.7.73,1.4,1.456,2.084,2.2a3.463,3.463,0,0,1,.73,1.383c.46,1.525.859,3.063,1.4,4.571a4.76,4.76,0,0,1-.318,3.854c-.541,1.078-1.057,2.148-1.645,3.218a4.846,4.846,0,0,0-.455,3.867,10.282,10.282,0,0,1,.43,2.049Z" transform="translate(-42.941 -26.54)" fill="#2d2c2a"/>
    <path id="Path_19909" data-name="Path 19909" d="M27.908,30.808A6.207,6.207,0,0,1,26.8,27.371c.069-4.958.026-9.916.03-14.869,0-1.01.228-1.242,1.229-1.242H45.789c.971,0,1.212.241,1.212,1.2,0,4.82-.034,9.641,0,14.461a5.637,5.637,0,0,1-1.061,3.733,1.173,1.173,0,0,1-.039-.563q0-8.593,0-17.155c0-.49-.12-.606-.606-.6q-8.429.026-16.863,0c-.46,0-.571.116-.571.576C27.916,18.826,27.908,24.737,27.908,30.808Z" transform="translate(-21.438 -11.26)" fill="#2d2c2a"/>
    <path id="Path_19910" data-name="Path 19910" d="M41.328,35.311H35.416c-.43,0-.795-.069-.786-.554s.352-.537.756-.537h12c.284,0,.541,0,.7.309a.5.5,0,0,1-.043.55c-.163.253-.43.223-.683.223Z" transform="translate(-25.904 -24.356)" fill="#2d2c2a"/>
    <path id="Path_19911" data-name="Path 19911" d="M41.319,47.551H35.408c-.43,0-.791-.073-.769-.563s.361-.528.76-.528h12c.43,0,.739.125.748.55s-.335.541-.739.541Z" transform="translate(-25.909 -31.337)" fill="#2d2c2a"/>
    <path id="Path_19912" data-name="Path 19912" d="M41.444,28.12h5.972c.279,0,.546,0,.679.335a.485.485,0,0,1-.077.541.666.666,0,0,1-.576.223H35.321c-.382,0-.683-.146-.692-.546s.327-.559.726-.554Z" transform="translate(-25.904 -20.876)" fill="#2d2c2a"/>
    <path id="Path_19913" data-name="Path 19913" d="M41.358,41.478h-5.8a2.148,2.148,0,0,1-.524-.034.533.533,0,0,1,.034-1.04,3.54,3.54,0,0,1,.524-.026H47.661a.507.507,0,0,1,.494.494.528.528,0,0,1-.473.593,2.384,2.384,0,0,1-.464,0Z" transform="translate(-25.909 -27.868)" fill="#2d2c2a"/>
    <path id="Path_19914" data-name="Path 19914" d="M37.684,72.126,45.5,72.1c.954,0,1.9,0,2.853.026a.623.623,0,0,0,.249.464c.073.43-.03.606-.533.6-3.325-.026-6.651,0-9.972-.026-.168,0-.516.219-.507-.228.12-.03.387.034.223-.215A1.108,1.108,0,0,1,37.684,72.126Z" transform="translate(-27.593 -45.962)" fill="#2d2c2a"/>
    <path id="Path_19915" data-name="Path 19915" d="M44.841,23.07H41.568c-.43,0-.782-.039-.778-.554s.361-.516.743-.516h6.724c.387,0,.739.056.748.528s-.369.563-.773.559C47.1,23.065,45.971,23.07,44.841,23.07Z" transform="translate(-29.418 -17.386)" fill="#2d2c2a"/>
    <path id="Path_19916" data-name="Path 19916" d="M41.113,52.852a.43.43,0,0,1,.215.584.533.533,0,0,1-.533.378H35.2a.533.533,0,0,1-.576-.473.43.43,0,0,1,.43-.576H35.2l.026-.026h.03a.322.322,0,0,0,.305.129Z" transform="translate(-25.887 -34.919)" fill="#2d2c2a"/>
    <path id="Path_19917" data-name="Path 19917" d="M42,52.807l-5.538.034a.322.322,0,0,1-.305-.129l5.516-.047A.335.335,0,0,1,42,52.807Z" transform="translate(-26.777 -34.874)" fill="#1f1d1b"/>
    <path id="Path_19918" data-name="Path 19918" d="M75.622,37.763c-.15.107-.12.271-.12.43v4.069a1.126,1.126,0,0,0,.129.559c-.327.258-.292,0-.292-.2V37.54A.318.318,0,0,1,75.622,37.763Z" transform="translate(-49.123 -26.249)" fill="#1f1d1b"/>
    <path id="Path_19919" data-name="Path 19919" d="M37.505,72.138a1.108,1.108,0,0,0,.12.6c.163.249-.1.185-.223.215-.039-.206-.073-.43-.116-.619S37.333,72.091,37.505,72.138Z" transform="translate(-27.413 -45.974)" fill="#1f1d1b"/>
    <path id="Path_19920" data-name="Path 19920" d="M62.869,72.6a.623.623,0,0,1-.249-.464C63.183,72.038,62.929,72.373,62.869,72.6Z" transform="translate(-41.869 -45.972)" fill="#1f1d1b"/>
    <path id="Path_19921" data-name="Path 19921" d="M24.973,37.9a.258.258,0,0,1-.253-.129c.056-.095.116-.249.232-.193S25,37.785,24.973,37.9Z" transform="translate(-20.252 -26.262)" fill="#1f1d1b"/>
    <path id="Path_19922" data-name="Path 19922" d="M25,49.715a.219.219,0,0,1,.133-.215C25.154,49.612,25.231,49.758,25,49.715Z" transform="translate(-20.411 -33.071)" fill="#1f1d1b"/>
    <path id="Path_19923" data-name="Path 19923" d="M19.2,88.48l.137.133C19.23,88.63,19.118,88.652,19.2,88.48Z" transform="translate(-17.086 -55.304)" fill="#1f1d1b"/>
    <path id="Path_19924" data-name="Path 19924" d="M81.16,88.613l.133-.133C81.362,88.639,81.272,88.639,81.16,88.613Z" transform="translate(-52.444 -55.304)" fill="#1f1d1b"/>
    <path id="Path_19925" data-name="Path 19925" d="M35.76,52.7h-.18C35.649,52.627,35.709,52.636,35.76,52.7Z" transform="translate(-26.446 -34.866)" fill="#1f1d1b"/>
    <path id="Path_19926" data-name="Path 19926" d="M81.254,87.438l-.064-.168Z" transform="translate(-52.461 -54.614)" fill="#1f1d1b"/>
    <path id="Path_19927" data-name="Path 19927" d="M68.484,88l.026.215C68.48,88.159,68.372,88.1,68.484,88Z" transform="translate(-45.186 -55.03)" fill="#1f1d1b"/>
    <path id="Path_19928" data-name="Path 19928" d="M31.81,88.615l.129-.125C31.952,88.589,31.892,88.632,31.81,88.615Z" transform="translate(-24.296 -55.31)" fill="#1f1d1b"/>
    <path id="Path_19929" data-name="Path 19929" d="M68.59,88.51l.133.12C68.624,88.647,68.585,88.6,68.59,88.51Z" transform="translate(-45.274 -55.321)" fill="#1f1d1b"/>
  </g>
</svg>
