<svg xmlns="http://www.w3.org/2000/svg" width="25.192" height="25.216" viewBox="0 0 25.192 25.216">
  <g id="Football" transform="translate(-0.019)">
    <path id="Path_14351" data-name="Path 14351" d="M11.359,38.284c-.577.094-1.095.173-1.6.282-.094.022-.188.182-.239.3-.484,1.094-.949,2.189-1.424,3.279a1.315,1.315,0,0,1-1.278.833A1.251,1.251,0,0,1,5.649,41.96a1.557,1.557,0,0,1,.105-.84c.571-1.366,1.178-2.718,1.764-4.078a1.4,1.4,0,0,1,.9-.8c1.353-.445,2.725-.846,4.049-1.361a2.187,2.187,0,0,1,2.177.075,2.808,2.808,0,0,0,3.681-1.064.9.9,0,0,1,.494-.353q2.814-.632,5.639-1.217a1.28,1.28,0,0,1,.658,2.473q-2.808.96-5.623,1.9a.672.672,0,0,0-.51.538c-.5,1.912-1.045,3.813-1.552,5.724a5.6,5.6,0,0,0-.12,1.112c-.074,1.345-.126,2.691-.213,4.041a1.857,1.857,0,0,1-.244.822q-1.59,2.588-3.223,5.149a1.569,1.569,0,0,1-2.631.1,1.537,1.537,0,0,1-.017-1.829c.915-1.473,1.846-2.935,2.753-4.417a1.451,1.451,0,0,0,.2-.692,24.517,24.517,0,0,0-.06-2.582q-.8,1.351-1.592,2.7a3.738,3.738,0,0,1-.4.679,3.118,3.118,0,0,1-.94.823c-1.881.78-3.781,1.508-5.671,2.25a1.587,1.587,0,1,1-1.2-2.936c1.616-.658,3.245-1.277,4.859-1.939a1.065,1.065,0,0,0,.5-.482c.436-.9.879-1.795,1.228-2.725a7.837,7.837,0,0,0,.311-1.666C11.108,40.368,11.223,39.364,11.359,38.284Z" transform="translate(-3 -29.63)" fill="#fff"/>
    <path id="Path_14352" data-name="Path 14352" d="M210.488,214.331a2.819,2.819,0,1,1,.807,2.009A2.819,2.819,0,0,1,210.488,214.331Z" transform="translate(-190.972 -191.989)" fill="#fff"/>
    <path id="Path_14353" data-name="Path 14353" d="M113.907,9.334a2.667,2.667,0,1,1,2.667-2.675,2.667,2.667,0,0,1-2.667,2.675Z" transform="translate(-101.051 -4)" fill="#fff"/>
  </g>
</svg>
