<svg xmlns="http://www.w3.org/2000/svg" width="489" height="348" viewBox="0 0 489 348">
  <g id="Group_636" data-name="Group 636" transform="translate(-273 -412.928)">
    <rect id="Rectangle_617" data-name="Rectangle 617" width="489" height="348" rx="8" transform="translate(273 412.928)" fill="#fff"/>
    <line id="Line_184" data-name="Line 184" x1="418.572" transform="translate(322.094 706.428)" fill="none" stroke="#707070" stroke-width="1" opacity="0.06"/>
    <line id="Line_185" data-name="Line 185" x1="418.572" transform="translate(322.094 652.428)" fill="none" stroke="#707070" stroke-width="1" opacity="0.06"/>
    <line id="Line_187" data-name="Line 187" x1="418.572" transform="translate(322.094 601.428)" fill="none" stroke="#707070" stroke-width="1" opacity="0.06"/>
    <line id="Line_188" data-name="Line 188" x1="418.572" transform="translate(322.094 549.428)" fill="none" stroke="#707070" stroke-width="1" opacity="0.06"/>
    <line id="Line_189" data-name="Line 189" x1="418.572" transform="translate(322.094 495.428)" fill="none" stroke="#707070" stroke-width="1" opacity="0.06"/>
    <text id="_2019" data-name="2019" transform="translate(341.48 727.928)" font-size="10" font-family="Lato-Semibold, Lato" font-weight="600"><tspan x="0" y="0">2019</tspan></text>
    <text id="_2020" data-name="2020" transform="translate(458.5 727.928)" font-size="10" font-family="Lato-Semibold, Lato" font-weight="600"><tspan x="0" y="0">2020</tspan></text>
    <text id="_2021" data-name="2021" transform="translate(580 727.928)" font-size="10" font-family="Lato-Semibold, Lato" font-weight="600"><tspan x="0" y="0">2021</tspan></text>
    <text id="_2022" data-name="2022" transform="translate(702.5 727.928)" font-size="10" font-family="Lato-Semibold, Lato" font-weight="600"><tspan x="0" y="0">2022</tspan></text>
    <text id="_400" data-name="400" transform="translate(293 498.928)" font-size="10" font-family="Lato-Regular, Lato"><tspan x="0" y="0">400</tspan></text>
    <text id="_300" data-name="300" transform="translate(293 551.928)" font-size="10" font-family="Lato-Regular, Lato"><tspan x="0" y="0">300</tspan></text>
    <text id="_200" data-name="200" transform="translate(293 604.928)" font-size="10" font-family="Lato-Regular, Lato"><tspan x="0" y="0">200</tspan></text>
    <text id="_100" data-name="100" transform="translate(293 656.928)" font-size="10" font-family="Lato-Regular, Lato"><tspan x="0" y="0">100</tspan></text>
    <text id="_0" data-name="0" transform="translate(299 709.928)" font-size="10" font-family="Lato-Regular, Lato"><tspan x="0" y="0">0</tspan></text>
    <line id="Line_367" data-name="Line 367" y2="5" transform="translate(396.5 721.428)" fill="none" stroke="#f7f7f7" stroke-width="1"/>
    <line id="Line_368" data-name="Line 368" y2="5" transform="translate(478.5 721.428)" fill="none" stroke="#f7f7f7" stroke-width="1"/>
    <line id="Line_369" data-name="Line 369" y2="5" transform="translate(560.5 721.428)" fill="none" stroke="#f7f7f7" stroke-width="1"/>
    <line id="Line_370" data-name="Line 370" y2="5" transform="translate(643.5 721.428)" fill="none" stroke="#f7f7f7" stroke-width="1"/>
    <line id="Line_371" data-name="Line 371" y2="5" transform="translate(725.5 721.428)" fill="none" stroke="#f7f7f7" stroke-width="1"/>
    <g id="Group_632" data-name="Group 632" transform="translate(-59)">
      <path id="Rectangle_957" data-name="Rectangle 957" d="M6.5,0h0A6.5,6.5,0,0,1,13,6.5V166a0,0,0,0,1,0,0H0a0,0,0,0,1,0,0V6.5A6.5,6.5,0,0,1,6.5,0Z" transform="translate(511 540)" fill="#ff8271"/>
      <path id="Rectangle_15018" data-name="Rectangle 15018" d="M7.5,0h0A7.5,7.5,0,0,1,15,7.5V97a0,0,0,0,1,0,0H0a0,0,0,0,1,0,0V7.5A7.5,7.5,0,0,1,7.5,0Z" transform="translate(534 609)" fill="#8364c2"/>
    </g>
    <g id="Group_634" data-name="Group 634" transform="translate(-52)">
      <path id="Rectangle_15021" data-name="Rectangle 15021" d="M7,0H7a7,7,0,0,1,7,7V151a0,0,0,0,1,0,0H0a0,0,0,0,1,0,0V7A7,7,0,0,1,7,0Z" transform="translate(749 555)" fill="#8364c2"/>
      <path id="Rectangle_15020" data-name="Rectangle 15020" d="M7,0H7a7,7,0,0,1,7,7V208a0,0,0,0,1,0,0H0a0,0,0,0,1,0,0V7A7,7,0,0,1,7,0Z" transform="translate(725 498)" fill="#ff8271"/>
    </g>
    <g id="Group_633" data-name="Group 633" transform="translate(-54)">
      <path id="Rectangle_958" data-name="Rectangle 958" d="M7.5,0h0A7.5,7.5,0,0,1,15,7.5V145a0,0,0,0,1,0,0H0a0,0,0,0,1,0,0V7.5A7.5,7.5,0,0,1,7.5,0Z" transform="translate(616 561)" fill="#ff8271"/>
      <path id="Rectangle_15019" data-name="Rectangle 15019" d="M7,0H7a7,7,0,0,1,7,7V87a0,0,0,0,1,0,0H0a0,0,0,0,1,0,0V7A7,7,0,0,1,7,0Z" transform="translate(641 619)" fill="#8364c2"/>
    </g>
    <g id="Group_631" data-name="Group 631" transform="translate(-60)">
      <path id="Rectangle_955" data-name="Rectangle 955" d="M6.5,0h0A6.5,6.5,0,0,1,13,6.5V133a0,0,0,0,1,0,0H0a0,0,0,0,1,0,0V6.5A6.5,6.5,0,0,1,6.5,0Z" transform="translate(403 573)" fill="#ff8271"/>
      <path id="Rectangle_956" data-name="Rectangle 956" d="M7.5,0h0A7.5,7.5,0,0,1,15,7.5V78a0,0,0,0,1,0,0H0a0,0,0,0,1,0,0V7.5A7.5,7.5,0,0,1,7.5,0Z" transform="translate(425 628)" fill="#8364c2"/>
    </g>
    <path id="Path_19786" data-name="Path 19786" d="M-9033.5-6487.455h0l128.818-16.23,125.123,16.23L-8653.7-6544.5" transform="translate(9372.98 7116.73)" fill="none" stroke="#0ad43f" stroke-width="1"/>
    <text id="_160" data-name="160" transform="translate(336.066 566.418)" fill="#404040" font-size="8" font-family="Lato-Bold, Lato" font-weight="700"><tspan x="0" y="0">160</tspan></text>
    <text id="_160-2" data-name="160" transform="translate(359 622.09)" fill="#404040" font-size="8" font-family="Lato-Bold, Lato" font-weight="700"><tspan x="0" y="0">160</tspan></text>
    <text id="_210" data-name="210" transform="translate(454 534.949)" fill="#404040" font-size="8" font-family="Lato-Bold, Lato" font-weight="700"><tspan x="0" y="0">210</tspan></text>
    <text id="_210-2" data-name="210" transform="translate(477 600.656)" fill="#404040" font-size="8" font-family="Lato-Bold, Lato" font-weight="700"><tspan x="0" y="0">210</tspan></text>
    <text id="_110" data-name="110" transform="translate(571.535 553)" fill="#404040" font-size="8" font-family="Lato-Bold, Lato" font-weight="700"><tspan x="0" y="0">110</tspan></text>
    <text id="_260" data-name="260" transform="translate(597.824 611.342)" fill="#404040" font-size="8" font-family="Lato-Bold, Lato" font-weight="700"><tspan x="0" y="0">260</tspan></text>
    <text id="_210-3" data-name="210" transform="translate(691.842 492.316)" fill="#404040" font-size="8" font-family="Lato-Bold, Lato" font-weight="700"><tspan x="0" y="0">210</tspan></text>
    <text id="_260-2" data-name="260" transform="translate(718.254 547.342)" fill="#404040" font-size="8" font-family="Lato-Bold, Lato" font-weight="700"><tspan x="0" y="0">260</tspan></text>
    <g id="Group_635" data-name="Group 635" transform="translate(24.5)">
      <circle id="Ellipse_165" data-name="Ellipse 165" cx="4" cy="4" r="4" transform="translate(346.5 439)" fill="#ff7d7d"/>
      <circle id="Ellipse_166" data-name="Ellipse 166" cx="4" cy="4" r="4" transform="translate(457 439)" fill="#8364c2"/>
      <circle id="Ellipse_637" data-name="Ellipse 637" cx="4" cy="4" r="4" transform="translate(571 439)" fill="#0bd440"/>
      <text id="Proposed_Budget" data-name="Proposed Budget" transform="translate(360.043 447)" fill="#404040" font-size="10" font-family="Lato-Regular, Lato"><tspan x="0" y="0">Proposed Budget</tspan></text>
      <text id="Approved_Budget" data-name="Approved Budget" transform="translate(472 447)" fill="#404040" font-size="10" font-family="Lato-Regular, Lato"><tspan x="0" y="0">Approved Budget</tspan></text>
      <text id="Expenditure" transform="translate(584.842 447)" fill="#404040" font-size="10" font-family="Lato-Regular, Lato"><tspan x="0" y="0">Expenditure</tspan></text>
    </g>
  </g>
</svg>
