<svg id="home-7-fill" xmlns="http://www.w3.org/2000/svg" width="16.448" height="18"  viewBox="0 0 16.448 18">
  <path id="Path_14356" data-name="Path 14356" d="M0,0H16.448V18H0Z" fill="none"/>
  <path id="Path_14357" data-name="Path 14357" d="M13.021,15.338a.72.72,0,0,1-.685.75H2.741a.72.72,0,0,1-.685-.75V8.588H0L7.077,1.547a.642.642,0,0,1,.922,0l7.077,7.041H13.021Zm-5.483-3.75A1.8,1.8,0,0,0,9.252,9.713,1.8,1.8,0,0,0,7.539,7.838,1.8,1.8,0,0,0,5.825,9.713,1.8,1.8,0,0,0,7.539,11.588Z" transform="translate(0 -0.338)" fill="#fff"/>
</svg>
