<svg xmlns="http://www.w3.org/2000/svg" width="23.802" height="23.914" viewBox="0 0 23.802 23.914">
  <g id="In_progress" data-name="In progress" transform="translate(0.002 -0.002)">
    <path id="Path_14313" data-name="Path 14313" d="M46.518,20.474A12,12,0,0,1,35.537,32.658a14.229,14.229,0,0,1-1.8,0c-.415-.024-.611-.081-.477-.578.134-.582-.033-1.342.282-1.752s1.127-.1,1.714-.148a9.459,9.459,0,0,0-1.055-18.888c-.506,0-.812,0-.778-.63a3.165,3.165,0,0,0-.124-1.06c-.186-.621,0-.773.64-.812a11.989,11.989,0,0,1,12.285,9.072A10.981,10.981,0,0,1,46.518,20.474Z" transform="translate(-22.718 -8.77)"/>
    <path id="Path_14314" data-name="Path 14314" d="M35.572,26.624c-.11.115-.2.215-.3.306-2.311,2.316-4.631,4.617-6.947,6.942-.31.315-.477.234-.726-.033-1.4-1.432-2.8-2.836-4.23-4.225-.306-.3-.3-.477,0-.73.477-.425.907-1.2,1.432-1.256s.926.788,1.394,1.222A17.84,17.84,0,0,1,27.536,30.2c.277.31.444.3.735,0,1.647-1.676,3.342-3.342,4.97-5,.363-.368.582-.42.926,0A16.066,16.066,0,0,0,35.3,26.347,1.5,1.5,0,0,1,35.572,26.624Z" transform="translate(-17.458 -17.198)"/>
    <path id="Path_14315" data-name="Path 14315" d="M13.2,36.129c.415-.158.582.024.606.477s.477,1.1.229,1.432-.907.4-1.389.573c-.879.315-.883.31-1.122-.587-.477-1.786-.477-1.786,1.356-1.91Z" transform="translate(-11.246 -23.036)"/>
    <path id="Path_14316" data-name="Path 14316" d="M14.022,26.867c-.091.454-.2.955-.282,1.456-.043.234-.153.267-.372.239-.592-.081-1.189-.143-1.786-.2-.282-.024-.406-.124-.334-.42.129-.559.248-1.122.372-1.685.086-.368.253-.53.659-.363.477.2,1.012.339,1.509.525C13.984,26.485,14.232,26.523,14.022,26.867Z" transform="translate(-11.23 -17.685)"/>
    <path id="Path_14317" data-name="Path 14317" d="M25.882,52.037c-.2.544-.434,1.213-.7,1.876-.086.22-.258.072-.4,0a14.193,14.193,0,0,1-1.738-.84c-.286-.148-.263-.3-.1-.506a3.61,3.61,0,0,0,.21-.339c.955-1.5.955-1.5,2.483-.668C25.777,51.66,25.944,51.693,25.882,52.037Z" transform="translate(-17.293 -30.837)"/>
    <path id="Path_14318" data-name="Path 14318" d="M25.847,12.285c.033.32-.033.454-.205.511a5.968,5.968,0,0,0-1.3.659c-.2.134-.31.048-.42-.138-.315-.506-.635-1.017-.979-1.5-.172-.244-.162-.4.105-.53l1.724-.855c.148-.072.329-.124.4.062C25.432,11.144,25.656,11.775,25.847,12.285Z" transform="translate(-17.292 -9.601)"/>
    <path id="Path_14319" data-name="Path 14319" d="M18.463,18.054l-.754.955c-.611.788-.611.788-1.475.229l-.186-.067c-1.108-.726-1.108-.726-.286-1.781s.807-1.041,1.733-.134C17.809,17.529,18.143,17.782,18.463,18.054Z" transform="translate(-13.293 -12.854)"/>
    <path id="Path_14320" data-name="Path 14320" d="M16.668,47.812c-.1-.091-.186-.162-.263-.243-.477-.54-1.318-1.132-1.232-1.738s1.112-.812,1.695-1.241c.234-.167.344-.062.477.134a3.562,3.562,0,0,0,.606.793c.516.439.4.759-.072,1.136a11.029,11.029,0,0,0-.955.955A2.841,2.841,0,0,0,16.668,47.812Z" transform="translate(-13.288 -27.442)"/>
  </g>
</svg>
