<svg xmlns="http://www.w3.org/2000/svg" width="25.608" height="16.686" viewBox="0 0 25.608 16.686">
  <g id="meeting" transform="translate(0.544 0.502)">
    <path id="Path_14338" data-name="Path 14338" d="M21.889,35.112c1.383,0,2.766.053,4.139,0,.922-.049,1.32-.553,1.422-1.456.073-.689.141-1.373.243-2.057a2.984,2.984,0,0,0-1.839-3.537,8.632,8.632,0,0,0-3.964-.854,8.108,8.108,0,0,0-4.542,1.121,2.717,2.717,0,0,0-1.359,2.737c.1.869.2,1.737.311,2.606s.485,1.373,1.412,1.422C19.109,35.166,20.492,35.112,21.889,35.112Zm3.348-12.291a3.4,3.4,0,1,0-.94,2.43,3.4,3.4,0,0,0,.94-2.43Zm2.911,10.258H31.06a15.866,15.866,0,0,0,1.863-.1,1.038,1.038,0,0,0,.97-1.038c.073-.568.15-1.135.2-1.7a2.468,2.468,0,0,0-1.917-3.028,9.05,9.05,0,0,0-1.965-.427,7.385,7.385,0,0,0-3.959.665c.136.092.213.155.3.2a3.474,3.474,0,0,1,1.82,3.649Zm-10.685-5.6A6.075,6.075,0,0,0,14.95,26.8a6.982,6.982,0,0,0-4.222.776A2.145,2.145,0,0,0,9.54,29.7c.068.805.184,1.606.3,2.426a.97.97,0,0,0,.825.854,4.469,4.469,0,0,0,.97.112h3.537a3.1,3.1,0,0,0,.4-.044c-.053-.408-.078-.776-.146-1.14a3.633,3.633,0,0,1,1.431-4.018A6.669,6.669,0,0,1,17.464,27.479Zm12.1-1.567a1.117,1.117,0,1,1,0-.015Zm-15.328,0a1.111,1.111,0,1,1,0-.015Z" transform="translate(-9.57 -19.45)" fill="none" stroke="#000" stroke-width="1"/>
    <path id="Path_14339" data-name="Path 14339" d="M28.755,43.337c-1.378,0-2.761.053-4.139,0-.922-.049-1.3-.485-1.412-1.422s-.214-1.737-.311-2.606a2.717,2.717,0,0,1,1.359-2.737,8.108,8.108,0,0,1,4.5-1.14,8.632,8.632,0,0,1,3.926.81,2.984,2.984,0,0,1,1.839,3.537c-.1.684-.17,1.368-.243,2.057-.1.927-.485,1.456-1.422,1.456C31.5,43.39,30.118,43.337,28.755,43.337Z" transform="translate(-16.436 -27.674)" fill="none" stroke="#000" stroke-width="1"/>
    <path id="Path_14340" data-name="Path 14340" d="M34.656,22.821a3.4,3.4,0,1,1-1.032-2.416,3.4,3.4,0,0,1,1.032,2.416Z" transform="translate(-18.989 -19.45)" fill="none" stroke="#000" stroke-width="1"/>
    <path id="Path_14341" data-name="Path 14341" d="M45.9,40.811l.214-1.776a3.474,3.474,0,0,0-1.82-3.649c-.082-.049-.16-.112-.3-.2a7.385,7.385,0,0,1,3.974-.67,9.049,9.049,0,0,1,1.965.427,2.468,2.468,0,0,1,1.917,3.028c-.053.568-.131,1.135-.2,1.7a1.038,1.038,0,0,1-.97,1.038,15.869,15.869,0,0,1-1.863.1C47.882,40.821,46.911,40.811,45.9,40.811Z" transform="translate(-27.314 -27.182)" fill="none" stroke="#000" stroke-width="1"/>
    <path id="Path_14342" data-name="Path 14342" d="M17.464,35.2c-.247.165-.437.281-.611.408a3.64,3.64,0,0,0-1.431,4.018c.068.364.092.733.146,1.14a3.105,3.105,0,0,1-.4.044H11.631a4.469,4.469,0,0,1-.97-.112.97.97,0,0,1-.825-.854c-.112-.8-.228-1.6-.3-2.426a2.145,2.145,0,0,1,1.189-2.125,6.983,6.983,0,0,1,4.2-.791A6.075,6.075,0,0,1,17.464,35.2Z" transform="translate(-9.57 -27.171)" fill="none" stroke="#000" stroke-width="1"/>
    <path id="Path_14343" data-name="Path 14343" d="M47.942,26.985A2.683,2.683,0,0,1,45.23,24.3a2.712,2.712,0,1,1,2.712,2.683Z" transform="translate(-27.947 -20.537)" fill="none" stroke="#000" stroke-width="1"/>
    <path id="Path_14344" data-name="Path 14344" d="M16.378,27.016a2.664,2.664,0,0,1-2.688-2.688,2.7,2.7,0,1,1,2.688,2.688Z" transform="translate(-11.711 -20.568)" fill="none" stroke="#000" stroke-width="1"/>
  </g>
</svg>
