<svg xmlns="http://www.w3.org/2000/svg" width="26.502" height="25.466" viewBox="0 0 26.502 25.466">
  <path id="New" d="M20.658,29.456a2.682,2.682,0,0,1-.683-.09c-.609-.172-1.2-.376-1.775-.581a2.363,2.363,0,0,0-1.738,0c-.511.2-.973.36-1.407.495a2.541,2.541,0,0,1-3.116-.969c-.27-.343-.515-.707-.748-1.063l-.249-.368a1.881,1.881,0,0,0-1.071-.789l-.409-.123c-.409-.114-.8-.229-1.19-.364a2.588,2.588,0,0,1-1.967-2.719v-.07a9.179,9.179,0,0,1,.029-1.108,2.588,2.588,0,0,0-.658-2.085A10.631,10.631,0,0,1,4.761,18.4a2.515,2.515,0,0,1,0-2.907c.331-.507.7-.981,1.088-1.46a2.2,2.2,0,0,0,.491-1.513v-.086c0-.532-.041-1.079-.025-1.636A2.49,2.49,0,0,1,8.008,8.342a11.068,11.068,0,0,1,1.447-.409,2.6,2.6,0,0,0,1.734-1.259,10.692,10.692,0,0,1,.879-1.251,2.429,2.429,0,0,1,2.617-.9,10.247,10.247,0,0,1,1.5.495,2.793,2.793,0,0,0,2.29,0A11.449,11.449,0,0,1,19.8,4.56a2.478,2.478,0,0,1,2.8.9c.368.466.7.949,1.051,1.484a2.138,2.138,0,0,0,1.251.9c.658.188,1.227.36,1.828.585a2.327,2.327,0,0,1,1.578,2.044,11.309,11.309,0,0,1,0,1.754,2.474,2.474,0,0,0,.593,1.938c.057.061.11.131.164.2l.094.119A5.062,5.062,0,0,1,30.345,16.6v.691A5.041,5.041,0,0,1,29.163,19.4l-.082.1a2.019,2.019,0,0,1-.147.18,2.482,2.482,0,0,0-.617,2,11.722,11.722,0,0,1,0,1.48,2.453,2.453,0,0,1-1.591,2.29,11.6,11.6,0,0,1-1.574.507,2.527,2.527,0,0,0-1.64,1.194,11.857,11.857,0,0,1-.936,1.325A2.416,2.416,0,0,1,20.658,29.456Zm-3.341-1.251a2.969,2.969,0,0,1,1.022.192,17.991,17.991,0,0,0,1.738.572,1.987,1.987,0,0,0,2.175-.752,11.412,11.412,0,0,0,.908-1.284,2.96,2.96,0,0,1,1.926-1.374,11.74,11.74,0,0,0,1.517-.487,2.044,2.044,0,0,0,1.337-1.934,10.827,10.827,0,0,0,0-1.423,2.862,2.862,0,0,1,.728-2.31,1.521,1.521,0,0,0,.123-.151c.029-.037.057-.078.09-.114a4.731,4.731,0,0,0,1.055-1.918v-.56a4.678,4.678,0,0,0-1.092-1.918l-.106-.135-.139-.172a2.834,2.834,0,0,1-.7-2.237,10.529,10.529,0,0,0,0-1.693A1.914,1.914,0,0,0,26.579,8.8a15.28,15.28,0,0,0-1.787-.572,2.523,2.523,0,0,1-1.48-1.071A16.076,16.076,0,0,0,22.286,5.7a2.077,2.077,0,0,0-2.376-.756,11.391,11.391,0,0,0-1.276.437,3.173,3.173,0,0,1-2.609,0,9.9,9.9,0,0,0-1.439-.474,2.044,2.044,0,0,0-2.2.765,10.43,10.43,0,0,0-.85,1.206,2.977,2.977,0,0,1-1.991,1.46,10.185,10.185,0,0,0-1.4.437,2.085,2.085,0,0,0-1.431,2.065c0,.527,0,1.071.025,1.595v.07A2.588,2.588,0,0,1,6.155,14.3,16.926,16.926,0,0,0,5.092,15.7a2.106,2.106,0,0,0,0,2.453,9.977,9.977,0,0,0,.879,1.182,2.973,2.973,0,0,1,.756,2.4A9.208,9.208,0,0,0,6.7,22.8v.065A2.2,2.2,0,0,0,8.392,25.2c.384.131.785.249,1.173.36l.409.123a2.322,2.322,0,0,1,1.3.953c.082.123.168.245.249.372.229.348.47.7.728,1.034a2.126,2.126,0,0,0,2.678.818c.409-.131.875-.286,1.378-.482a2.711,2.711,0,0,1,1.014-.168Zm7.393-7.949H23.5l-.855-3.067-.855,3.062H20.47a.384.384,0,0,1-.409-.339c-.282-1.206-.56-2.392-.842-3.578l-.609-2.588v1.435H15.789v.859h2.38V17.6h-2.38v1.088h2.834v1.541H13.989V13.657H20.2c.188,0,.311.225.339.339q.254,1.169.495,2.343l.078.36.057-.213c.225-.818.454-1.636.671-2.474a.438.438,0,0,1,.5-.368h1l.842,3.05.217-1.03c.114-.548.233-1.1.339-1.636a.409.409,0,0,1,.466-.376h1.464l-.07.38a1.137,1.137,0,0,1-.049.262l-.368,1.558c-.331,1.3-.634,2.629-.936,3.937a.491.491,0,0,1-.532.466Zm-.45-.409h.409c.131,0,.139,0,.172-.131.3-1.329.613-2.65.924-3.974l.368-1.554a.258.258,0,0,1,.029-.143H25.14v.045c-.106.552-.225,1.1-.339,1.656l-.409,1.914-.319-.02-.09-.143-.957-3.43h-.773l-.02.061q-.331,1.227-.675,2.482l-.176.634a.713.713,0,0,1-.057.2l-.151.5-.233-.4a1.182,1.182,0,0,1-.147-.409l-.155-.744c-.164-.781-.327-1.558-.495-2.339v-.02h-1.01l.519,2.2c.278,1.186.56,2.371.838,3.561v.041h1l.989-3.537.307.029.094.139.924,3.381h.454ZM14.4,19.819h3.811V19.1H15.38V17.19h2.38v-.74H15.38V14.773h2.834v-.707H14.4Zm-1.791.433-.662-.012a.54.54,0,0,1-.372-.282q-.761-1.227-1.513-2.5L9.8,17.051v3.2H8.024V13.657h1.5c.159,0,.266.155.343.286q.744,1.251,1.476,2.511l.209.36V13.657h1.909v6.591h-.846Zm-.617-.409h1.055V14.066h-1.1v4.207l-.973-1.636L9.5,14.132a.409.409,0,0,0-.057-.086H8.421v5.782h.965V16l.327.233a.838.838,0,0,1,.233.262l.454.756c.507.818,1.01,1.668,1.517,2.5a.515.515,0,0,0,.078.09ZM9.492,14.066Z" transform="translate(-4.042 -4.19)" stroke="#000" stroke-width="0.4"/>
</svg>
