<svg xmlns="http://www.w3.org/2000/svg" width="25.484" height="21.214" viewBox="0 0 25.484 21.214">
  <g id="proposed" transform="translate(0.047 -0.01)">
    <path id="Path_14325" data-name="Path 14325" d="M12.239,41.06a8.764,8.764,0,0,1,3.853.874c.9.415,1.8.829,2.7,1.208a1.87,1.87,0,0,0,.789.117,15.825,15.825,0,0,1,4.537.374,3.984,3.984,0,0,1,.676.23,1.154,1.154,0,0,1,.671.752.716.716,0,0,1-.451.982,3.406,3.406,0,0,1-1.172.23,22.609,22.609,0,0,1-2.4-.194,10.363,10.363,0,0,0-2.586-.095,4.218,4.218,0,0,0-.78.2.342.342,0,0,0-.239.478.356.356,0,0,0,.491.153,4.353,4.353,0,0,1,2.082-.149c1.045.095,2.091.225,3.154.306a3.488,3.488,0,0,0,1.658-.252,1.428,1.428,0,0,0,.928-1.766.388.388,0,0,1,.3-.55,6.088,6.088,0,0,1,.626-.162,9.462,9.462,0,0,0,2.911-1.284l.9-.5a1.424,1.424,0,0,1,.9-.189.676.676,0,0,1,.617.874,1.473,1.473,0,0,1-.55.852c-1.473,1.131-2.942,2.253-4.434,3.361a5.921,5.921,0,0,1-1.352.725c-1.667.649-3.352,1.262-5.029,1.888a3.893,3.893,0,0,1-2.212.135c-2.478-.514-4.957-1.018-7.448-1.482a6.069,6.069,0,0,0-1.473.09l-.451.05a.369.369,0,0,1-.451-.347L8.328,44.3l-.347-1.6c-.059-.311.045-.451.36-.523l.451-.09a3.731,3.731,0,0,0,1.442-.482,4.055,4.055,0,0,1,2.005-.554Z" transform="translate(-7.51 -29.042)" fill="none" stroke="#000" stroke-width="1"/>
    <path id="Path_14326" data-name="Path 14326" d="M36.652,19.54A3.217,3.217,0,0,1,39.211,24.7a9.223,9.223,0,0,0-.595,1,1.658,1.658,0,0,0-.144.5.4.4,0,0,1-.406.356.383.383,0,0,1-.374-.424,2,2,0,0,1,.167-.653,13.382,13.382,0,0,1,.762-1.3,2.361,2.361,0,0,0,.216-2.438,2.411,2.411,0,0,0-4.272-.189,2.3,2.3,0,0,0,.032,2.469c.189.324.424.626.617.951a2.586,2.586,0,0,1,.4,1.086.4.4,0,0,1-.189.406.338.338,0,0,1-.4,0,.721.721,0,0,1-.185-.275,6.164,6.164,0,0,0-.216-.653,5.8,5.8,0,0,0-.518-.829,3.213,3.213,0,0,1,2.181-5.141A3.174,3.174,0,0,1,36.652,19.54Z" transform="translate(-21.509 -17.218)"/>
    <path id="Path_14327" data-name="Path 14327" d="M38.569,35.775h1.2a.4.4,0,0,1,.451.451,11.455,11.455,0,0,1-.032,1.307,1.627,1.627,0,0,1-1.663,1.419,1.658,1.658,0,0,1-1.6-1.577c0-.4,0-.8,0-1.2a.378.378,0,0,1,.415-.392Zm-.874.789v.721a.9.9,0,0,0,.027.189.87.87,0,0,0,.784.685.843.843,0,0,0,.856-.568,3.154,3.154,0,0,0,.063-1.027Z" transform="translate(-23.417 -26.136)"/>
    <path id="Path_14328" data-name="Path 14328" d="M38.083,25c.451-.451.861-.87,1.3-1.293a.658.658,0,0,1,.275-.162.424.424,0,0,1,.478.225.451.451,0,0,1-.077.523l-1.122,1.126-.527.523a.451.451,0,0,1-.671,0c-.239-.234-.478-.451-.712-.712a.451.451,0,1,1,.644-.626l.383.374A.179.179,0,0,0,38.083,25Z" transform="translate(-23.392 -19.413)"/>
    <path id="Path_14329" data-name="Path 14329" d="M48.877,21.185a.581.581,0,0,1,.144-.171c.248-.158.5-.3.761-.451a.257.257,0,0,1,.369.081A.252.252,0,0,1,50.03,21l-.766.451a.261.261,0,0,1-.388-.266Z" transform="translate(-29.985 -17.755)"/>
    <path id="Path_14330" data-name="Path 14330" d="M30.632,21.232c0,.221-.189.347-.347.261-.293-.153-.581-.32-.861-.5a.243.243,0,0,1,.248-.419c.288.153.577.32.856.5C30.587,21.11,30.609,21.2,30.632,21.232Z" transform="translate(-19.234 -17.77)"/>
    <path id="Path_14331" data-name="Path 14331" d="M28.42,27.221H27.97A.239.239,0,0,1,27.717,27a.234.234,0,0,1,.23-.266h.978a.248.248,0,0,1-.027.491Z" transform="translate(-18.361 -21.169)"/>
    <path id="Path_14332" data-name="Path 14332" d="M51,27.215h-.451a.248.248,0,0,1,0-.5h.9a.243.243,0,0,1,.261.252c0,.149-.1.239-.266.243Z" transform="translate(-30.769 -21.162)"/>
    <path id="Path_14333" data-name="Path 14333" d="M30.665,32.112a.6.6,0,0,1-.144.176c-.252.158-.514.306-.775.451a.257.257,0,0,1-.248-.451c.257-.153.514-.3.775-.451a.257.257,0,0,1,.392.275Z" transform="translate(-19.267 -23.951)"/>
    <path id="Path_14334" data-name="Path 14334" d="M50.182,32.517a.253.253,0,0,1-.365.257c-.279-.153-.554-.315-.829-.482a.23.23,0,0,1-.077-.329.221.221,0,0,1,.311-.1c.293.153.577.32.861.5C50.137,32.4,50.164,32.486,50.182,32.517Z" transform="translate(-29.984 -23.973)"/>
    <path id="Path_14335" data-name="Path 14335" d="M46.122,16.274c-.041.095-.054.149-.081.2l-.419.725a.261.261,0,0,1-.365.131.257.257,0,0,1-.068-.383l.451-.761a.221.221,0,0,1,.293-.108C46.005,16.116,46.059,16.21,46.122,16.274Z" transform="translate(-27.929 -15.304)"/>
    <path id="Path_14336" data-name="Path 14336" d="M34.143,16.053a.451.451,0,0,1,.158.117c.167.266.32.541.473.816a.256.256,0,1,1-.451.243c-.158-.261-.311-.523-.451-.789a.257.257,0,0,1,.27-.388Z" transform="translate(-21.722 -15.3)"/>
    <path id="Path_14337" data-name="Path 14337" d="M40.5,15.126v.451a.243.243,0,0,1-.252.261A.234.234,0,0,1,40,15.577v-.9a.248.248,0,0,1,.248-.266.252.252,0,0,1,.243.261v.455Z" transform="translate(-25.108 -14.4)"/>
  </g>
</svg>
