<svg xmlns="http://www.w3.org/2000/svg" width="21.999" height="21.999" viewBox="0 0 21.999 21.999">
  <g id="rejecteddd" transform="translate(-0.01 0)">
    <path id="Path_14323" data-name="Path 14323" d="M29.879,17.553A11,11,0,1,1,18.9,6.55a11,11,0,0,1,10.977,11Zm-2.2,0a8.8,8.8,0,1,0-8.808,8.8,8.8,8.8,0,0,0,8.808-8.8Z" transform="translate(-7.87 -6.55)"/>
    <path id="Path_14324" data-name="Path 14324" d="M29.622,29.771c-.492.5-.954.961-1.419,1.423-.4.4-.8.806-1.2,1.2a1.048,1.048,0,0,1-1.086.265,1.03,1.03,0,0,1-.757-.821,1.064,1.064,0,0,1,.3-1.007l2.475-2.472a1.744,1.744,0,0,1,.163-.132,1.408,1.408,0,0,1-.17-.117l-2.468-2.472a1.045,1.045,0,0,1-.273-1.1A1.03,1.03,0,0,1,26,23.786a1.052,1.052,0,0,1,1.014.3l2.464,2.464c.038.038.068.083.114.136.053-.049.091-.083.125-.121l2.494-2.491a1.048,1.048,0,0,1,1.083-.273,1.03,1.03,0,0,1,.757.821,1.052,1.052,0,0,1-.307,1.014L31.292,28.1l-.14.121c.045.045.076.083.11.114.833.836,1.669,1.665,2.5,2.506a1.09,1.09,0,0,1-.537,1.836,1.052,1.052,0,0,1-1.018-.3L29.709,29.9A1.2,1.2,0,0,1,29.622,29.771Z" transform="translate(-18.59 -17.242)"/>
  </g>
</svg>
