<svg xmlns="http://www.w3.org/2000/svg" width="26.019" height="26.019" viewBox="0 0 26.019 26.019">
  <g id="rejecteddd" transform="translate(-0.01 0)">
    <path id="Path_14323" data-name="Path 14323" d="M33.9,19.564A13.009,13.009,0,1,1,20.916,6.55,13.009,13.009,0,0,1,33.9,19.564Zm-2.6,0A10.413,10.413,0,1,0,20.885,29.972,10.413,10.413,0,0,0,31.3,19.564Z" transform="translate(-7.87 -6.55)" fill="#fff"/>
    <path id="Path_14324" data-name="Path 14324" d="M30.443,30.87c-.582.586-1.128,1.137-1.679,1.683-.475.475-.945.954-1.424,1.424a1.24,1.24,0,0,1-1.285.313,1.218,1.218,0,0,1-.9-.971,1.258,1.258,0,0,1,.358-1.191L28.447,29.2a2.063,2.063,0,0,1,.193-.157,1.665,1.665,0,0,1-.2-.139l-2.919-2.923a1.236,1.236,0,0,1-.322-1.3,1.218,1.218,0,0,1,.962-.9,1.245,1.245,0,0,1,1.2.358l2.914,2.914c.045.045.081.1.134.161.063-.058.107-.1.148-.143l2.95-2.946a1.24,1.24,0,0,1,1.28-.322,1.218,1.218,0,0,1,.9.971,1.245,1.245,0,0,1-.363,1.2l-2.9,2.905-.166.143c.054.054.09.1.13.134.985.989,1.974,1.97,2.955,2.964A1.289,1.289,0,0,1,34.7,34.3a1.245,1.245,0,0,1-1.2-.354l-2.95-2.923A1.423,1.423,0,0,1,30.443,30.87Z" transform="translate(-17.397 -16.052)" fill="#fff"/>
  </g>
</svg>
