<svg xmlns="http://www.w3.org/2000/svg" width="16.54" height="16.482" viewBox="0 0 16.54 16.482">
  <g id="Released" transform="translate(0 -0.03)">
    <path id="Path_14345" data-name="Path 14345" d="M8.392,18.134V15.857a.662.662,0,0,1,.219-.521q2.833-2.835,5.655-5.668a.644.644,0,0,0,.086-.949.636.636,0,0,0-.949.057q-3.012,3.012-6.022,6.035a.81.81,0,0,0-.219.521c-.018,1.363,0,2.726,0,4.091a.714.714,0,0,0,.433.732.666.666,0,0,0,.782-.227c.928-.936,1.863-1.866,2.8-2.8.057-.057.117-.109.222-.206l3.549,3.554Q17.171,12.266,19.41,4L2.87,8.472c.06.068.094.109.13.146l3.458,3.461a1.136,1.136,0,0,0,.12.107.618.618,0,1,0,.821-.922L5.684,9.551c-.057-.055-.112-.117-.19-.2L17.653,5.743c-1.2,4.073-2.4,8.1-3.614,12.193-.083-.1-.13-.162-.182-.214l-1.988-2a.645.645,0,0,0-1.061,0L8.593,17.939A2.469,2.469,0,0,1,8.392,18.134Z" transform="translate(-2.87 -3.97)" fill="#fff"/>
    <path id="Path_14346" data-name="Path 14346" d="M8.392,18.134c.094-.086.149-.136.2-.188l2.215-2.22a.645.645,0,0,1,1.061,0q1,.993,1.988,1.988c.052.052.1.115.182.214,1.212-4.081,2.416-8.112,3.614-12.185L5.494,9.347c.078.083.133.146.19.2L7.4,11.26a.618.618,0,1,1-.821.922,1.136,1.136,0,0,1-.12-.107L3,8.618c-.036-.036-.07-.078-.13-.146L19.41,4q-2.244,8.284-4.467,16.482l-3.56-3.557c-.1.1-.164.149-.222.206-.933.941-1.868,1.861-2.786,2.8a.66.66,0,0,1-.782.227.714.714,0,0,1-.44-.73V15.333a.81.81,0,0,1,.219-.521q3.01-3.028,6.03-6.035a.634.634,0,0,1,.949-.057.643.643,0,0,1-.086.949q-2.827,2.83-5.66,5.655a.662.662,0,0,0-.219.521C8.4,16.6,8.392,17.334,8.392,18.134Z" transform="translate(-2.87 -3.97)"/>
  </g>
</svg>
