<svg xmlns="http://www.w3.org/2000/svg" width="14.95" height="23.434" viewBox="0 0 14.95 23.434">
  <path id="Spending" d="M124.687,40.23a.643.643,0,0,1,.395.675c-.01.465,0,.93,0,1.4,0,.517-.172.687-.684.688h-3.715a4.666,4.666,0,0,1,.383.612c.219.524.423,1.057.614,1.592.051.146.1.205.263.2.839-.009,1.678-.006,2.517,0,.475,0,.649.175.651.648V47.5c0,.466-.183.643-.657.644-.824,0-1.648,0-2.471,0-.146,0-.208.036-.236.192a6.145,6.145,0,0,1-2.068,3.667,7.794,7.794,0,0,1-3.509,1.678c-.356.077-.716.134-1.106.206.073.085.137.159.2.229,2.567,2.78,4.97,5.7,7.371,8.621a.521.521,0,0,1,.118.606.553.553,0,0,1-.558.317q-1.555-.005-3.112,0a.675.675,0,0,1-.546-.275c-1.489-1.757-2.969-3.521-4.479-5.259-1.155-1.33-2.345-2.627-3.534-3.928a1.2,1.2,0,0,1-.365-.915c.027-.563.005-1.128.008-1.692a.568.568,0,0,1,.644-.647c.945-.016,1.892,0,2.835-.058a5.426,5.426,0,0,0,2.972-.992,3.061,3.061,0,0,0,1.126-1.571c.015-.049.021-.1.036-.172h-6.9c-.55,0-.713-.161-.714-.7V46.032c0-.456.182-.635.641-.635h6.752c-.058-.107-.1-.191-.146-.269a3.065,3.065,0,0,0-1.554-1.186,7.85,7.85,0,0,0-2.853-.426H110.9c-.56,0-.73-.175-.73-.742,0-.617.01-1.235,0-1.853a.66.66,0,0,1,.379-.685Z" transform="translate(-110.162 -40.23)" fill="#fff"/>
</svg>
