<svg xmlns="http://www.w3.org/2000/svg" width="24.497" height="26.891" viewBox="0 0 24.497 26.891">
  <path id="tops" d="M94.829,35.774c-.017.1-.024.187-.048.272a.709.709,0,0,1-.681.529q-.961.007-1.921,0a.71.71,0,0,1-.711-.724c0-.652,0-1.3,0-1.956V33.7h-.937c-.055.361-.1.723-.168,1.081-.365,2.035-.724,4.069-1.1,6.1-.285,1.529-.6,3.053-.9,4.578a.236.236,0,0,0,.069.238q1.417,1.488,2.831,2.98a.6.6,0,0,1,.174.438q0,3.134,0,6.269c0,.365-.145.507-.511.507H88.783a.414.414,0,0,1-.473-.474q0-1.71,0-3.421a.3.3,0,0,0-.127-.268c-.978-.755-1.952-1.515-2.937-2.282-.046.032-.091.062-.134.1q-1.4,1.092-2.807,2.181a.309.309,0,0,0-.138.279c.005,1.135,0,2.269,0,3.4,0,.34-.143.485-.477.485H79.5a.4.4,0,0,1-.446-.446c0-2.129,0-4.258.006-6.387a.579.579,0,0,1,.147-.356q1.407-1.508,2.834-3a.261.261,0,0,0,.072-.268c-.5-2.59-1.012-5.179-1.5-7.774-.237-1.263-.427-2.534-.639-3.8-.008-.049-.02-.1-.032-.157h-.926c0,.056-.009.115-.009.174v1.956a.711.711,0,0,1-.744.741q-.943,0-1.887,0a.733.733,0,0,1-.708-.645c-.005-.044-.007-.089-.011-.144-.1-.011-.21-.015-.313-.034a.951.951,0,0,1-.79-.953c0-.348,0-.7,0-1.045a.363.363,0,0,0-.015-.059H73.49v-.817h1.07v-.75a3.786,3.786,0,0,1,.008-.471.948.948,0,0,1,.955-.844c.044,0,.087-.005.138-.008.008-.074.01-.141.022-.206a.73.73,0,0,1,.716-.595q.944,0,1.887,0a.709.709,0,0,1,.726.741q0,.961,0,1.921v.2h.843a1.26,1.26,0,0,1,1.134-1,1.17,1.17,0,0,1,1.269.882.16.16,0,0,0,.185.136q2.8-.006,5.595,0c.105,0,.154-.025.187-.134a1.177,1.177,0,0,1,1-.882,1.349,1.349,0,0,1,1.322.695,1.471,1.471,0,0,1,.083.3h.839v-2.1a.719.719,0,0,1,.76-.76h1.7c.584,0,.824.213.895.8a2.489,2.489,0,0,1,.313.019.956.956,0,0,1,.781.91c.009.37,0,.741,0,1.134h1.068V33.7H95.924c0,.343.01.667,0,.99a1.514,1.514,0,0,1-.093.523.922.922,0,0,1-.882.566Zm-13.477,19.3v-.215c0-1.045,0-2.09,0-3.134a.537.537,0,0,1,.22-.463q1.692-1.309,3.378-2.627a.417.417,0,0,1,.582,0l3.379,2.626a.532.532,0,0,1,.222.461c-.006,1.05,0,2.1,0,3.151v.2H90.6c0-.058.01-.107.01-.156q0-2.8,0-5.592a.377.377,0,0,0-.1-.233q-1.326-1.412-2.665-2.812a.355.355,0,0,0-.23-.1q-2.376-.009-4.751,0a.355.355,0,0,0-.228.1c-.885.925-1.763,1.856-2.648,2.782a.37.37,0,0,0-.115.28q0,2.772,0,5.544v.185Zm3.884-9.718c.719,0,1.438,0,2.156,0,.131,0,.173-.045.2-.165.086-.452.186-.9.272-1.354.536-2.824,1.076-5.648,1.6-8.473.138-.75.228-1.509.339-2.265a.289.289,0,0,0-.093-.3c-.315-.258-.645-.132-.728.286q-.488,2.47-.974,4.941a1.412,1.412,0,0,0,.007.345,6.2,6.2,0,0,1,.059.854,2.842,2.842,0,1,1-5.589-.906.551.551,0,0,0,.007-.229q-.484-2.471-.975-4.941a1.137,1.137,0,0,0-.08-.273.354.354,0,0,0-.454-.183c-.173.059-.336.17-.3.4.1.61.151,1.226.265,1.833.643,3.42,1.3,6.839,1.947,10.258.028.143.086.175.222.173.708-.006,1.415,0,2.123,0ZM87.351,37.1l.669-3.39H82.461l.671,3.395a2.866,2.866,0,0,1,4.22,0Zm-2.1,3.939a2.025,2.025,0,0,0-.014-4.05,2.025,2.025,0,1,0,.015,4.051Zm-8.756-5.286h1.7V30.835h-1.7Zm15.8-4.927v4.926h1.7V30.829ZM75.669,33.294V31.828c0-.1-.022-.191-.138-.193s-.156.088-.155.2v2.9c0,.11.017.22.149.218s.145-.11.144-.22C75.667,34.249,75.669,33.771,75.669,33.294Zm19.142-.018V34.74c0,.1.02.206.141.208s.16-.1.16-.211q0-1.438,0-2.876c0-.116-.021-.231-.162-.225s-.138.121-.138.228Q94.811,32.57,94.811,33.276Z" transform="translate(-72.99 -29.506)" fill="none" stroke="#fff" stroke-width="1"/>
</svg>
