<svg xmlns="http://www.w3.org/2000/svg" width="19.326" height="19.359" viewBox="0 0 19.326 19.359">
  <g id="verifed" transform="translate(-0.05)">
    <path id="Path_14321" data-name="Path 14321" d="M17.818,4.56c.505.1,1,.181,1.523.3a9.189,9.189,0,0,1,3.1,1.386c.576.392.726.914.408,1.383s-.867.516-1.436.131A7.827,7.827,0,1,0,24.758,15.3a8.158,8.158,0,0,0-.187-3.13.914.914,0,1,1,1.781-.405c.114.542.211,1.088.335,1.634v1.634c-.047.254-.1.509-.137.763a9.645,9.645,0,0,1-18.974.4c-.08-.385-.144-.773-.214-1.162V13.411a2.715,2.715,0,0,0,.07-.285,9.479,9.479,0,0,1,6.732-8.118,17.073,17.073,0,0,1,2.009-.449Z" transform="translate(-7.31 -4.56)"/>
    <path id="Path_14322" data-name="Path 14322" d="M37.558,11.152a7.7,7.7,0,0,1-.512.67q-4.218,4.385-8.446,8.764c-.606.626-1.024.626-1.627,0L24.194,17.7a2.966,2.966,0,0,1-.275-.3.934.934,0,0,1,.147-1.242.84.84,0,0,1,1.2.067c.763.777,1.516,1.563,2.27,2.343a3.374,3.374,0,0,1,.218.288l2.621-2.715,5.463-5.661q1-1.055,1.717.231Z" transform="translate(-18.212 -8.179)"/>
  </g>
</svg>
