<svg xmlns="http://www.w3.org/2000/svg" width="23.496" height="23.536" viewBox="0 0 23.496 23.536">
  <g id="verifed" transform="translate(-0.05)">
    <path id="Path_14321" data-name="Path 14321" d="M20.075,4.56c.615.118,1.221.22,1.852.362a11.172,11.172,0,0,1,3.765,1.685c.7.476.883,1.111.5,1.681s-1.054.627-1.746.159a9.516,9.516,0,1,0,4.07,9.174,9.919,9.919,0,0,0-.228-3.805,1.111,1.111,0,1,1,2.165-.492c.138.659.256,1.323.407,1.986V17.3c-.057.309-.118.619-.167.928a11.726,11.726,0,0,1-23.069.484c-.1-.468-.175-.94-.26-1.412V15.321a3.3,3.3,0,0,0,.085-.346,11.525,11.525,0,0,1,8.185-9.87,20.757,20.757,0,0,1,2.442-.545Z" transform="translate(-7.31 -4.56)" fill="#fff"/>
    <path id="Path_14322" data-name="Path 14322" d="M40.538,11.4a9.362,9.362,0,0,1-.623.814Q34.787,17.546,29.646,22.87c-.737.761-1.245.761-1.978,0L24.29,19.361a3.606,3.606,0,0,1-.334-.37,1.136,1.136,0,0,1,.179-1.51,1.022,1.022,0,0,1,1.461.081c.928.944,1.844,1.9,2.759,2.849a4.1,4.1,0,0,1,.265.35l3.187-3.3,6.642-6.882q1.221-1.282,2.088.281Z" transform="translate(-17.028 -7.786)" fill="#fff"/>
  </g>
</svg>
