<svg id="Layer_1" data-name="Layer 1" xmlns="http://www.w3.org/2000/svg" viewBox="0 0 77.74 77.73"><defs><style>.cls-1{fill:#fff;}</style></defs><path class="cls-1" d="M72.94,7.39h2.73c.23.26.56.15.84.22a8.45,8.45,0,0,1,4.76,13c-.29.41-.34.56.17.85a14.43,14.43,0,0,1,7.1,9.45,5.33,5.33,0,0,0,.33,1.42V52.46c-.2,0-.14.24-.18.37a7.06,7.06,0,0,1-4,4.8.92.92,0,0,0-.64,1c0,8,0,15.94,0,23.9a2.31,2.31,0,0,1-2.58,2.56H67.62c-2,0-2.85-.82-2.85-2.84q0-11.76,0-23.52c0-.26.12-.57-.13-.82-.18.19-.09.37-.1.54A7.22,7.22,0,0,1,60.23,65a.92.92,0,0,0-.63,1q0,8.31,0,16.62a2.27,2.27,0,0,1-2.54,2.51c-4.63,0-9.26,0-13.88,0a2.54,2.54,0,0,1-2.79-2.77c.07-5.47,0-10.93,0-16.39,0-.25.11-.55-.15-.77-.21.21-.11.45-.12.65a7.22,7.22,0,0,1-4.3,6.45.84.84,0,0,0-.59.94c0,3.11,0,6.22,0,9.33a2.33,2.33,0,0,1-2.55,2.53H18.6A2.31,2.31,0,0,1,16,82.52c0-3.11,0-6.22,0-9.33a.79.79,0,0,0-.56-.88,7,7,0,0,1-4.13-4.91,14.89,14.89,0,0,1-.17-4,14.17,14.17,0,0,1,7.45-12.74c.39-.23.51-.34.2-.76a8,8,0,0,1-1.44-6.3,8.38,8.38,0,1,1,15.07,6.3c-.11.16-.5.37-.08.59a19,19,0,0,1,3.15,2.21c0-1.25,0-2.36,0-3.47a17.47,17.47,0,0,1,.32-3.54A14.4,14.4,0,0,1,43.08,36c.28-.16.51-.22.2-.63-3.87-5-.48-12.64,5.8-13.31a8.47,8.47,0,0,1,9.21,9.83,8.33,8.33,0,0,1-1.78,3.86,17.22,17.22,0,0,1,3.39,2.34c0-1.44,0-2.76,0-4.07a14.36,14.36,0,0,1,7.48-12.6c.41-.24.49-.37.19-.8A8.46,8.46,0,0,1,71.4,7.89,8.39,8.39,0,0,0,72.94,7.39ZM69.4,68c0,3.92,0,7.84,0,11.76,0,.61.1.81.76.8,2.78,0,5.56-.06,8.34,0,.81,0,1-.21,1-1,0-7.76,0-15.52,0-23.29a2.34,2.34,0,0,1,2.11-2.59c2-.22,2.77-1.08,2.77-3.12V35.1A16.64,16.64,0,0,0,84.2,33c-.47-3.73-2.29-6.52-5.81-7.95a9.82,9.82,0,0,0-10.33,1.4,9.68,9.68,0,0,0-3.55,8c0,5.43,0,10.87,0,16.31a6.3,6.3,0,0,0,0,.75,2.52,2.52,0,0,0,2.28,2.17,2.42,2.42,0,0,1,2.56,2.79ZM45,71.65c0,2.7,0,5.41,0,8.11,0,.6.1.81.76.8,2.85,0,5.71,0,8.57,0,.6,0,.73-.16.73-.74,0-5.38,0-10.77,0-16.15A2.37,2.37,0,0,1,57.47,61a2.5,2.5,0,0,0,2.43-2.58c0-3.29,0-6.57,0-9.86a10,10,0,0,0-1.18-4.64,9.91,9.91,0,0,0-11.18-4.78,9.58,9.58,0,0,0-7.37,9.14c-.06,3.36,0,6.73,0,10.09A2.49,2.49,0,0,0,42.59,61,2.37,2.37,0,0,1,45,63.61C45,66.29,45,69,45,71.65ZM20.6,75.22c0,1.56,0,3.13,0,4.7,0,.49.11.63.62.63,2.93,0,5.86,0,8.79,0,.55,0,.66-.16.65-.67,0-3,0-6,0-8.95a2.52,2.52,0,0,1,.94-2.13,3.27,3.27,0,0,1,1.71-.52,2.42,2.42,0,0,0,2.19-2.23,18.2,18.2,0,0,0-.06-4.24,9.9,9.9,0,0,0-19-2.07,14.16,14.16,0,0,0-.68,5.44c0,2,.73,2.88,2.75,3.16a2.24,2.24,0,0,1,2.12,2.4C20.61,72.23,20.6,73.72,20.6,75.22Zm50-59.52a3.68,3.68,0,0,0,3.72,3.83,3.74,3.74,0,0,0,3.86-3.79,3.87,3.87,0,0,0-3.83-3.8A3.8,3.8,0,0,0,70.63,15.7ZM50,34.14a3.69,3.69,0,0,0,3.81-3.75,3.8,3.8,0,0,0-7.6-.08A3.69,3.69,0,0,0,50,34.14ZM29.41,45a3.75,3.75,0,0,0-3.68-3.81,3.79,3.79,0,1,0-.12,7.58A3.72,3.72,0,0,0,29.41,45Z" transform="translate(-11.13 -7.39)"/></svg>