<svg id="Layer_1" data-name="Layer 1" xmlns="http://www.w3.org/2000/svg" viewBox="0 0 75.08 74.39"><defs><style>.cls-1{fill:#fff;}</style></defs><path class="cls-1" d="M14.63,46.79V40.9c.06,0,.07-.06.09-.11A3,3,0,0,1,18,38.5l7.42,0a.42.42,0,0,0,.45-.3,24.75,24.75,0,0,1,2.76-4.82.47.47,0,0,0,0-.63c-1.27-2.16-2.54-4.33-3.79-6.5A3,3,0,0,1,26,21.89L40.56,13.4A3,3,0,0,1,45,14.59L48.73,21a.47.47,0,0,0,.53.3,26.31,26.31,0,0,1,5.54,0,.51.51,0,0,0,.57-.3c1.12-2,2.28-4,3.38-5.94a4,4,0,0,1,2.45-2.23s0,0,0,0h1.08a6.87,6.87,0,0,1,1.29.53q7.23,4.15,14.48,8.29a3,3,0,0,1,1.21,4.49c-1.23,2.15-2.46,4.3-3.71,6.45a.47.47,0,0,0,0,.6,26.16,26.16,0,0,1,2.78,4.74.54.54,0,0,0,.59.37q3.78,0,7.58-.05a3,3,0,0,1,3.1,2.89c0,.06,0,.13,0,.19q0,5.65,0,11.31c0,.1,0,.2,0,.29v6.2c-.06,0-.07.06-.08.11a3,3,0,0,1-3.25,2.29l-7.43,0a.4.4,0,0,0-.44.29,26.09,26.09,0,0,1-2.8,4.86.44.44,0,0,0,0,.57c1.26,2.14,2.52,4.3,3.77,6.46a3,3,0,0,1-1.16,4.44L63.84,86.58a3.07,3.07,0,0,1-4.53-1.21c-1.25-2.14-2.5-4.29-3.76-6.43-.07-.13-.1-.3-.34-.27a27.24,27.24,0,0,1-5.78,0c-.25,0-.35.09-.46.28-1.23,2.17-2.47,4.33-3.71,6.5a3.52,3.52,0,0,1-.77,1,3,3,0,0,1-3.67.21c-4.83-2.76-9.64-5.55-14.49-8.27a3.18,3.18,0,0,1-1.26-4.58c1.29-2.1,2.47-4.27,3.71-6.41a.44.44,0,0,0,0-.57,26.8,26.8,0,0,1-2.81-4.8.46.46,0,0,0-.51-.32c-2.54,0-5.08,0-7.62,0a3,3,0,0,1-3.11-2.88,1.37,1.37,0,0,0,0-.19c0-3.87,0-7.74,0-11.61A.45.45,0,0,0,14.63,46.79Zm6.07,3.32h.05c0,1.73,0,3.47,0,5.2,0,.31.06.4.39.4,2.15,0,4.29,0,6.44,0a3.06,3.06,0,0,1,3.21,2.24,22.4,22.4,0,0,0,4,6.79,3,3,0,0,1,.36,3.84C34,70.4,33,72.27,31.89,74.13c-.17.3-.13.42.17.58q4.52,2.57,9,5.16c.27.16.37.13.53-.15,1.1-2,2.2-3.9,3.34-5.83a2.81,2.81,0,0,1,3-1.47,24.84,24.84,0,0,0,8.34,0A3,3,0,0,1,59.69,74c1.11,1.89,2.22,3.78,3.31,5.68.14.23.23.25.45.11,3-1.77,6-3.53,9.09-5.28.26-.15.27-.25.12-.5-1.13-1.92-2.25-3.85-3.37-5.77a3,3,0,0,1,.28-3.5,23.13,23.13,0,0,0,4.13-7.17,3,3,0,0,1,3-2.08c2.18,0,4.36,0,6.55,0,.31,0,.4-.06.4-.39q0-5.18,0-10.37c0-.33-.07-.44-.43-.44-2.16,0-4.31.05-6.47.05a3,3,0,0,1-3.09-2.14,23.06,23.06,0,0,0-4.05-6.92,3,3,0,0,1-.33-3.77c1.08-1.9,2.16-3.8,3.26-5.7.13-.23.12-.31-.12-.45q-4.55-2.58-9.09-5.19c-.26-.15-.38-.16-.54.13-1.08,1.92-2.18,3.82-3.28,5.73a3,3,0,0,1-3.36,1.55,22.13,22.13,0,0,0-8,0A3.06,3.06,0,0,1,44.65,26c-1.09-1.87-2.19-3.73-3.27-5.61-.16-.28-.26-.29-.53-.13q-4.51,2.64-9,5.26c-.26.15-.26.25-.12.49q1.65,2.79,3.27,5.6a3,3,0,0,1-.28,3.81,22.69,22.69,0,0,0-4,7,3,3,0,0,1-3,2.09c-2.18,0-4.37,0-6.55,0-.36,0-.41.11-.41.43C20.71,46.66,20.7,48.38,20.7,50.11Z" transform="translate(-14.63 -12.81)"/><path class="cls-1" d="M58.94,53.41a8.07,8.07,0,0,1-2.45-.35.59.59,0,0,0-.7.18q-6.43,6.52-12.9,13a2.56,2.56,0,0,1-1.11.78,2,2,0,0,1-2-.48c-1-1-2-1.95-2.94-2.95a2.07,2.07,0,0,1,.07-3q5.84-5.89,11.68-11.77c.47-.48.94-1,1.43-1.43a.61.61,0,0,0,.18-.7,9.2,9.2,0,0,1,5.63-11.17,9,9,0,0,1,6.11-.08c.54.19.58.39.17.81-1.79,1.8-3.57,3.61-5.37,5.4A1.19,1.19,0,0,0,56.41,43c.27.69.5,1.39.74,2.09a1.35,1.35,0,0,0,.9.91l2.12.76a1.08,1.08,0,0,0,1.28-.29q2.67-2.72,5.36-5.41c.46-.46.65-.41.85.21a9.18,9.18,0,0,1-8.72,12.12ZM42,62.56A1.44,1.44,0,1,0,40.55,64,1.43,1.43,0,0,0,42,62.56Z" transform="translate(-14.63 -12.81)"/></svg>