<svg xmlns="http://www.w3.org/2000/svg" width="12.352" height="12.366" viewBox="0 0 12.352 12.366">
  <g id="manegment" transform="translate(0.017 -0.041)">
    <path id="Path_14347" data-name="Path 14347" d="M16.411,18.089H10.53a.412.412,0,0,1-.463-.463c0-.463-.011-.926.018-1.388a5.126,5.126,0,0,1,1.169-2.983A5.38,5.38,0,0,1,13.588,11.6l.057-.024.02-.015a.761.761,0,0,0-.081-.066,3.264,3.264,0,0,1-1.033-1.248A3.148,3.148,0,0,1,17.289,6.43a2.985,2.985,0,0,1,1.266,2.209,3.1,3.1,0,0,1-1.191,2.779,2.919,2.919,0,0,1-1.685.645c-.246.026-.494.02-.739.046A4.459,4.459,0,0,0,12.118,13.5,4.319,4.319,0,0,0,10.9,16.115c-.039.384-.029.77-.042,1.167h4.968a.143.143,0,0,1,.145.088c.121.219.254.423.382.634A.556.556,0,0,1,16.411,18.089Zm.481-6.924c-.537,0-.657-1.771-.656-1.234s.807,0,1.344,0-1.485.537-1.484,0,1.341,1.236.8,1.234Z" transform="translate(-10.08 -5.78)" fill="#fff"/>
    <path id="Path_14348" data-name="Path 14348" d="M40.8,40.133a.689.689,0,0,1-.39-.182,3.635,3.635,0,0,0-.371-.287.338.338,0,0,0-.382,0,2.738,2.738,0,0,0-.362.272.54.54,0,0,1-.684.092l-.658-.373a.487.487,0,0,1-.233-.632.689.689,0,0,0-.645-.961.377.377,0,0,1-.4-.318,3.7,3.7,0,0,1-.077-.463,2.915,2.915,0,0,1,.05-.877.658.658,0,0,1,.055-.169.39.39,0,0,1,.369-.243.684.684,0,0,0,.673-.52.658.658,0,0,0-.029-.4.5.5,0,0,1,.257-.684l.689-.379a.544.544,0,0,1,.645.072,3.521,3.521,0,0,0,.322.25.4.4,0,0,0,.478,0,2.89,2.89,0,0,0,.3-.219.54.54,0,0,1,.7-.086l.673.375a.489.489,0,0,1,.219.634.684.684,0,0,0,.64.954.4.4,0,0,1,.4.344,2.689,2.689,0,0,1,.075.827,4.466,4.466,0,0,1-.072.542.426.426,0,0,1-.439.364.658.658,0,0,0-.658.616.787.787,0,0,0,.057.311.5.5,0,0,1-.254.658c-.219.125-.454.254-.684.375A1.722,1.722,0,0,1,40.8,40.133Zm-2.45-.972c.154.086.32.178.485.274.037.022.057,0,.088-.015a4,4,0,0,1,.364-.27.985.985,0,0,1,1.1,0,3.46,3.46,0,0,1,.382.281.081.081,0,0,0,.107.011c.151-.086.3-.171.458-.252a.072.072,0,0,0,.042-.1,1.289,1.289,0,0,1-.046-.243,1.316,1.316,0,0,1,1.07-1.39.081.081,0,0,0,.077-.083,2.483,2.483,0,0,0,0-.687c0-.064-.031-.088-.094-.1a1.3,1.3,0,0,1-1.011-1.619.072.072,0,0,0-.042-.1c-.151-.081-.3-.165-.452-.25a.079.079,0,0,0-.107.011q-.125.105-.257.2a1.046,1.046,0,0,1-1.237.02c-.107-.07-.206-.154-.311-.219a.09.09,0,0,0-.07-.022c-.189.1-.373.2-.562.307a.278.278,0,0,0,.02.079,1.171,1.171,0,0,1,.015.6A1.29,1.29,0,0,1,37.34,36.6c-.055.013-.081.029-.09.09a2.353,2.353,0,0,0,0,.691c0,.057.026.077.083.088a1.3,1.3,0,0,1,1.067,1.2,3.91,3.91,0,0,1-.05.487Z" transform="translate(-30.789 -27.726)" fill="#fff"/>
    <path id="Path_14349" data-name="Path 14349" d="M48.335,43.659a1.217,1.217,0,1,1-1.211-1.22A1.217,1.217,0,0,1,48.335,43.659Zm-1.224.592a.588.588,0,1,0-.417-.174.588.588,0,0,0,.417.174Z" transform="translate(-38.056 -34.367)" fill="#fff"/>
  </g>
</svg>
