<svg id="phone-line_1_" data-name="phone-line (1)" xmlns="http://www.w3.org/2000/svg" width="13.428" height="13.428" viewBox="0 0 13.428 13.428">
  <path id="Path_14352" data-name="Path 14352" d="M0,0H13.428V13.428H0Z" fill="none"/>
  <path id="Path_14353" data-name="Path 14353" d="M6.562,7.3A5.906,5.906,0,0,0,8.773,9.509l.495-.693a.559.559,0,0,1,.725-.166,6.391,6.391,0,0,0,2.565.763.559.559,0,0,1,.516.558v2.5a.559.559,0,0,1-.5.557A8.677,8.677,0,0,1,3.046,3.5.559.559,0,0,1,3.6,3H6.1a.559.559,0,0,1,.558.516,6.391,6.391,0,0,0,.763,2.564.559.559,0,0,1-.166.725L6.562,7.3ZM5.15,6.93l1.063-.759A7.5,7.5,0,0,1,5.6,4.119H4.128c0,.093,0,.186,0,.28a7.552,7.552,0,0,0,7.554,7.553c.092,0,.185,0,.278-.006V10.471A7.5,7.5,0,0,1,9.9,9.857L9.144,10.92a6.961,6.961,0,0,1-.886-.42l-.032-.019A7.025,7.025,0,0,1,5.589,7.851L5.57,7.819a6.961,6.961,0,0,1-.42-.886Z" transform="translate(-1.322 -1.322)" fill="#fff"/>
</svg>
