<svg xmlns="http://www.w3.org/2000/svg" width="14.474" height="15.999" viewBox="0 0 14.474 15.999">
  <g id="proposed" transform="translate(-9.358 -0.01)">
    <path id="Path_14326" data-name="Path 14326" d="M37.451,19.54a4.019,4.019,0,0,1,3.2,6.451,11.524,11.524,0,0,0-.743,1.244,2.072,2.072,0,0,0-.18.619.5.5,0,0,1-.507.445.479.479,0,0,1-.467-.529,2.494,2.494,0,0,1,.208-.816,16.717,16.717,0,0,1,.951-1.621,2.95,2.95,0,0,0,.27-3.046,3.012,3.012,0,0,0-5.337-.236,2.877,2.877,0,0,0,.039,3.085c.236.4.529.783.771,1.188a3.231,3.231,0,0,1,.5,1.357.5.5,0,0,1-.236.507.422.422,0,0,1-.5,0,.9.9,0,0,1-.231-.343,7.7,7.7,0,0,0-.27-.816,7.24,7.24,0,0,0-.647-1.036A4.014,4.014,0,0,1,37,19.57,3.965,3.965,0,0,1,37.451,19.54Z" transform="translate(-20.865 -16.642)" fill="#fff"/>
    <path id="Path_14327" data-name="Path 14327" d="M38.98,35.776h1.5a.5.5,0,0,1,.563.563A14.311,14.311,0,0,1,41,37.971a2.032,2.032,0,0,1-2.077,1.773,2.072,2.072,0,0,1-2-1.97v-1.5a.473.473,0,0,1,.518-.49Zm-1.092.985v.9a1.126,1.126,0,0,0,.034.236,1.087,1.087,0,0,0,.98.856,1.053,1.053,0,0,0,1.07-.709,3.941,3.941,0,0,0,.079-1.284Z" transform="translate(-22.383 -23.736)" fill="#fff"/>
    <path id="Path_14328" data-name="Path 14328" d="M38.385,25.367c.563-.563,1.075-1.086,1.621-1.616a.822.822,0,0,1,.343-.2.529.529,0,0,1,.6.281.563.563,0,0,1-.1.653l-1.4,1.407-.659.653a.563.563,0,0,1-.839,0c-.3-.293-.6-.563-.889-.889a.563.563,0,1,1,.805-.783l.478.467a.223.223,0,0,0,.04.027Z" transform="translate(-22.363 -18.388)" fill="#fff"/>
    <path id="Path_14329" data-name="Path 14329" d="M48.877,21.352a.726.726,0,0,1,.18-.214c.31-.2.631-.377.951-.563a.321.321,0,0,1,.462.1.315.315,0,0,1-.152.445l-.957.563a.327.327,0,0,1-.484-.332Z" transform="translate(-27.608 -17.069)" fill="#fff"/>
    <path id="Path_14330" data-name="Path 14330" d="M30.963,21.4c0,.276-.236.433-.433.327-.366-.191-.726-.4-1.075-.619a.3.3,0,0,1,.31-.524c.36.191.721.4,1.07.619C30.906,21.251,30.935,21.364,30.963,21.4Z" transform="translate(-19.055 -17.081)" fill="#fff"/>
    <path id="Path_14331" data-name="Path 14331" d="M28.6,27.344h-.563a.3.3,0,0,1-.315-.281.293.293,0,0,1,.287-.332h1.222a.31.31,0,0,1-.034.614Z" transform="translate(-18.361 -19.784)" fill="#fff"/>
    <path id="Path_14332" data-name="Path 14332" d="M51.173,27.339H50.61a.31.31,0,0,1,0-.619h1.126a.3.3,0,0,1,.327.315.292.292,0,0,1-.332.3Z" transform="translate(-28.231 -19.779)" fill="#fff"/>
    <path id="Path_14333" data-name="Path 14333" d="M30.989,32.191a.754.754,0,0,1-.18.22c-.315.2-.642.383-.968.563a.321.321,0,0,1-.31-.563c.321-.191.642-.377.968-.563a.321.321,0,0,1,.49.343Z" transform="translate(-19.081 -21.998)" fill="#fff"/>
    <path id="Path_14334" data-name="Path 14334" d="M50.509,32.688a.316.316,0,0,1-.456.321c-.349-.191-.692-.394-1.036-.6a.287.287,0,0,1-.1-.411.276.276,0,0,1,.388-.124c.366.191.721.4,1.075.619C50.453,32.536,50.486,32.648,50.509,32.688Z" transform="translate(-27.607 -22.015)" fill="#fff"/>
    <path id="Path_14335" data-name="Path 14335" d="M46.369,16.328c-.051.118-.068.186-.1.248l-.524.906a.327.327,0,0,1-.456.163.321.321,0,0,1-.084-.479l.563-.951a.276.276,0,0,1,.366-.135C46.223,16.131,46.29,16.249,46.369,16.328Z" transform="translate(-25.973 -15.119)" fill="#fff"/>
    <path id="Path_14336" data-name="Path 14336" d="M34.22,16.055a.563.563,0,0,1,.2.146c.208.332.4.676.591,1.019a.32.32,0,0,1-.563.3c-.2-.327-.388-.653-.563-.985a.321.321,0,0,1,.338-.484Z" transform="translate(-21.035 -15.116)" fill="#fff"/>
    <path id="Path_14337" data-name="Path 14337" d="M40.623,15.305v.563a.3.3,0,0,1-.315.327.293.293,0,0,1-.31-.327V14.742a.31.31,0,0,1,.31-.332.315.315,0,0,1,.3.327v.569Z" transform="translate(-23.728 -14.4)" fill="#fff"/>
  </g>
</svg>
