<svg id="settings-3-line_1_1_" data-name="settings-3-line (1) (1)" xmlns="http://www.w3.org/2000/svg" width="14" height="14" viewBox="0 0 14 14">
  <path id="Path_14354" data-name="Path 14354" d="M0,0H14V14H0Z" fill="none"/>
  <path id="Path_14355" data-name="Path 14355" d="M2.932,10.75a5.844,5.844,0,0,1-.571-1.357,1.75,1.75,0,0,0,0-3.119,5.828,5.828,0,0,1,1.46-2.53,1.75,1.75,0,0,0,2.7-1.56,5.827,5.827,0,0,1,2.921,0,1.75,1.75,0,0,0,2.7,1.558,5.878,5.878,0,0,1,1.46,2.53,1.75,1.75,0,0,0,0,3.119,5.828,5.828,0,0,1-1.459,2.53,1.75,1.75,0,0,0-2.7,1.56,5.827,5.827,0,0,1-2.921,0,1.75,1.75,0,0,0-2.7-1.558,5.844,5.844,0,0,1-.892-1.173Zm3.3.115A2.913,2.913,0,0,1,7.546,12.48a4.658,4.658,0,0,0,.875,0,2.919,2.919,0,0,1,3.37-1.945,4.628,4.628,0,0,0,.438-.757,2.918,2.918,0,0,1,0-3.889,4.74,4.74,0,0,0-.437-.757,2.916,2.916,0,0,1-3.37-1.947,4.659,4.659,0,0,0-.875,0A2.919,2.919,0,0,1,4.178,5.13a4.661,4.661,0,0,0-.438.757,2.918,2.918,0,0,1,0,3.889,4.74,4.74,0,0,0,.438.757,2.913,2.913,0,0,1,2.056.33Zm1.75-1.281a1.75,1.75,0,1,1,1.75-1.75,1.75,1.75,0,0,1-1.75,1.75Zm0-1.166A.584.584,0,1,0,7.4,7.833a.584.584,0,0,0,.584.584Z" transform="translate(-0.984 -0.832)" fill="#fff"/>
</svg>
