<svg xmlns="http://www.w3.org/2000/svg" width="13.327" height="13.356" viewBox="0 0 13.327 13.356">
  <g id="verifed" transform="translate(-0.049 0.009)">
    <path id="Path_14321" data-name="Path 14321" d="M14.571,4.56c.349.067.693.125,1.05.2a6.337,6.337,0,0,1,2.135.956c.4.27.5.63.282.953a.658.658,0,0,1-.99.09,5.4,5.4,0,1,0,2.308,5.2,5.625,5.625,0,0,0-.129-2.158.63.63,0,1,1,1.228-.279c.078.374.145.75.231,1.126v1.126c-.032.175-.067.351-.095.526a6.65,6.65,0,0,1-13.084.275c-.055-.265-.1-.533-.148-.8V10.66a1.872,1.872,0,0,0,.048-.2,6.536,6.536,0,0,1,4.642-5.6,11.773,11.773,0,0,1,1.385-.309Z" transform="translate(-7.31 -4.56)" fill="#fff"/>
    <path id="Path_14322" data-name="Path 14322" d="M33.27,10.794a5.309,5.309,0,0,1-.353.462Q30.009,14.28,27.093,17.3c-.418.432-.706.432-1.122,0l-1.916-1.99a2.045,2.045,0,0,1-.189-.21.644.644,0,0,1,.1-.856.579.579,0,0,1,.829.046c.526.536,1.046,1.078,1.565,1.616a2.327,2.327,0,0,1,.15.2l1.807-1.872,3.767-3.9q.693-.727,1.184.159Z" transform="translate(-19.915 -8.745)" fill="#fff"/>
  </g>
</svg>
